<svg width="439" height="198" viewBox="0 0 439 198" fill="none" xmlns="http://www.w3.org/2000/svg">
<g filter="url(#filter0_d)">
<rect x="44" y="34" width="351" height="110" rx="8" fill="#F5F5F5"/>
<g opacity="0.5">
<path d="M59.288 51.184H69.944V53.362H65.84V64H63.392V53.362H59.288V51.184ZM75.4415 59.914V54.712H77.7095V64H75.5135V62.65C74.8055 63.694 73.8335 64.216 72.5975 64.216C71.6015 64.216 70.8095 63.928 70.2215 63.352C69.6455 62.764 69.3575 61.936 69.3575 60.868V54.712H71.6255V60.49C71.6255 61.666 72.2075 62.254 73.3715 62.254C73.9475 62.254 74.4335 62.05 74.8295 61.642C75.2375 61.222 75.4415 60.646 75.4415 59.914ZM84.5208 54.568C84.7248 54.568 84.9108 54.58 85.0788 54.604V56.692H84.5028C83.6388 56.692 82.9728 56.914 82.5048 57.358C82.0488 57.79 81.8208 58.432 81.8208 59.284V64H79.5528V54.712H81.7488V56.368C82.2648 55.168 83.1888 54.568 84.5208 54.568ZM95.2308 64H92.6388L89.9388 59.68L88.5348 61.084V64H86.3028V51.184H88.5348V58.564L92.3148 54.712H95.0148L91.5048 58.222L95.2308 64ZM98.2735 53.506H96.0415V51.382H98.2735V53.506ZM98.2915 64H96.0235V54.712H98.2915V64ZM103.773 64.252C101.061 64.252 99.6452 63.184 99.5252 61.048H101.739C101.799 61.624 101.985 62.032 102.297 62.272C102.621 62.512 103.125 62.632 103.809 62.632C105.033 62.632 105.645 62.26 105.645 61.516C105.645 61.18 105.513 60.922 105.249 60.742C104.985 60.562 104.511 60.412 103.827 60.292L102.765 60.112C100.737 59.776 99.7232 58.84 99.7232 57.304C99.7232 56.428 100.059 55.744 100.731 55.252C101.403 54.748 102.351 54.496 103.575 54.496C106.227 54.496 107.595 55.546 107.679 57.646H105.537C105.513 57.094 105.339 56.704 105.015 56.476C104.691 56.236 104.211 56.116 103.575 56.116C102.495 56.116 101.955 56.476 101.955 57.196C101.955 57.508 102.075 57.754 102.315 57.934C102.555 58.102 102.951 58.234 103.503 58.33L104.673 58.51C105.801 58.714 106.617 59.038 107.121 59.482C107.637 59.926 107.895 60.544 107.895 61.336C107.895 62.272 107.535 62.992 106.815 63.496C106.095 64 105.081 64.252 103.773 64.252ZM114.196 54.496C115.204 54.496 115.996 54.79 116.572 55.378C117.16 55.954 117.454 56.776 117.454 57.844V64H115.186V58.222C115.186 57.046 114.604 56.458 113.44 56.458C112.864 56.458 112.372 56.668 111.964 57.088C111.568 57.496 111.37 58.066 111.37 58.798V64H109.102V51.184H111.37V55.954C112.078 54.982 113.02 54.496 114.196 54.496ZM131.534 57.25C132.242 57.502 132.788 57.904 133.172 58.456C133.568 59.008 133.766 59.632 133.766 60.328C133.766 61.492 133.382 62.398 132.614 63.046C131.858 63.682 130.754 64 129.302 64H123.308V51.184H129.104C130.448 51.184 131.474 51.49 132.182 52.102C132.89 52.714 133.244 53.512 133.244 54.496C133.244 55.756 132.674 56.674 131.534 57.25ZM128.924 53.182H125.738V56.53H128.924C129.536 56.53 130.004 56.38 130.328 56.08C130.664 55.768 130.832 55.342 130.832 54.802C130.832 54.298 130.664 53.902 130.328 53.614C129.992 53.326 129.524 53.182 128.924 53.182ZM125.738 61.984H129.176C129.86 61.984 130.382 61.834 130.742 61.534C131.102 61.222 131.282 60.784 131.282 60.22C131.282 59.032 130.58 58.438 129.176 58.438H125.738V61.984ZM140.085 54.568C140.289 54.568 140.475 54.58 140.643 54.604V56.692H140.067C139.203 56.692 138.537 56.914 138.069 57.358C137.613 57.79 137.385 58.432 137.385 59.284V64H135.117V54.712H137.313V56.368C137.829 55.168 138.753 54.568 140.085 54.568ZM147.863 59.914V54.712H150.131V64H147.935V62.65C147.227 63.694 146.255 64.216 145.019 64.216C144.023 64.216 143.231 63.928 142.643 63.352C142.067 62.764 141.779 61.936 141.779 60.868V54.712H144.047V60.49C144.047 61.666 144.629 62.254 145.793 62.254C146.369 62.254 146.855 62.05 147.251 61.642C147.659 61.222 147.863 60.646 147.863 59.914ZM157.069 54.496C158.077 54.496 158.869 54.79 159.445 55.378C160.033 55.954 160.327 56.776 160.327 57.844V64H158.059V58.222C158.059 57.046 157.477 56.458 156.313 56.458C155.737 56.458 155.245 56.668 154.837 57.088C154.441 57.496 154.243 58.066 154.243 58.798V64H151.975V54.712H154.171V56.044C154.879 55.012 155.845 54.496 157.069 54.496ZM166.346 64.216C164.978 64.216 163.868 63.772 163.016 62.884C162.176 62.008 161.756 60.832 161.756 59.356C161.756 57.868 162.176 56.686 163.016 55.81C163.844 54.934 164.954 54.496 166.346 54.496C167.558 54.496 168.548 54.82 169.316 55.468C170.084 56.104 170.534 56.968 170.666 58.06H168.398C168.29 57.52 168.056 57.106 167.696 56.818C167.336 56.53 166.886 56.386 166.346 56.386C165.638 56.386 165.08 56.644 164.672 57.16C164.276 57.664 164.078 58.396 164.078 59.356C164.078 60.316 164.282 61.054 164.69 61.57C165.098 62.074 165.65 62.326 166.346 62.326C166.898 62.326 167.36 62.176 167.732 61.876C168.116 61.564 168.35 61.12 168.434 60.544H170.702C170.582 61.66 170.126 62.554 169.334 63.226C168.542 63.886 167.546 64.216 166.346 64.216ZM177.037 54.496C178.045 54.496 178.837 54.79 179.413 55.378C180.001 55.954 180.295 56.776 180.295 57.844V64H178.027V58.222C178.027 57.046 177.445 56.458 176.281 56.458C175.705 56.458 175.213 56.668 174.805 57.088C174.409 57.496 174.211 58.066 174.211 58.798V64H171.943V51.184H174.211V55.954C174.919 54.982 175.861 54.496 177.037 54.496ZM195.203 51.184V53.362H188.579V56.386H194.609V58.474H188.579V64H186.149V51.184H195.203ZM204.95 59.518V60.058H198.002C198.086 60.85 198.332 61.45 198.74 61.858C199.16 62.254 199.718 62.452 200.414 62.452C201.446 62.452 202.154 62.008 202.538 61.12H204.716C204.476 62.068 203.972 62.824 203.204 63.388C202.436 63.94 201.5 64.216 200.396 64.216C199.016 64.216 197.9 63.772 197.048 62.884C196.196 61.996 195.77 60.82 195.77 59.356C195.77 57.892 196.19 56.716 197.03 55.828C197.882 54.94 198.992 54.496 200.36 54.496C201.764 54.496 202.88 54.958 203.708 55.882C204.536 56.806 204.95 58.018 204.95 59.518ZM200.342 56.26C199.01 56.26 198.236 56.998 198.02 58.474H202.682C202.586 57.79 202.334 57.25 201.926 56.854C201.518 56.458 200.99 56.26 200.342 56.26ZM214.678 64H212.41C212.302 63.808 212.218 63.43 212.158 62.866C211.534 63.766 210.538 64.216 209.17 64.216C208.15 64.216 207.334 63.97 206.722 63.478C206.122 62.986 205.822 62.302 205.822 61.426C205.822 59.734 207.01 58.768 209.386 58.528L210.79 58.402C211.258 58.342 211.594 58.234 211.798 58.078C212.002 57.91 212.104 57.664 212.104 57.34C212.104 56.944 211.972 56.656 211.708 56.476C211.456 56.284 211.024 56.188 210.412 56.188C209.752 56.188 209.278 56.302 208.99 56.53C208.702 56.746 208.534 57.124 208.486 57.664H206.254C206.386 55.552 207.778 54.496 210.43 54.496C213.01 54.496 214.3 55.426 214.3 57.286V62.236C214.3 63.052 214.426 63.64 214.678 64ZM209.71 62.596C210.418 62.596 210.994 62.404 211.438 62.02C211.882 61.624 212.104 61.06 212.104 60.328V59.482C211.888 59.674 211.534 59.8 211.042 59.86L209.818 60.004C209.218 60.076 208.786 60.22 208.522 60.436C208.27 60.64 208.144 60.94 208.144 61.336C208.144 61.732 208.276 62.044 208.54 62.272C208.816 62.488 209.206 62.596 209.71 62.596ZM219.754 64.252C217.042 64.252 215.626 63.184 215.506 61.048H217.72C217.78 61.624 217.966 62.032 218.278 62.272C218.602 62.512 219.106 62.632 219.79 62.632C221.014 62.632 221.626 62.26 221.626 61.516C221.626 61.18 221.494 60.922 221.23 60.742C220.966 60.562 220.492 60.412 219.808 60.292L218.746 60.112C216.718 59.776 215.704 58.84 215.704 57.304C215.704 56.428 216.04 55.744 216.712 55.252C217.384 54.748 218.332 54.496 219.556 54.496C222.208 54.496 223.576 55.546 223.66 57.646H221.518C221.494 57.094 221.32 56.704 220.996 56.476C220.672 56.236 220.192 56.116 219.556 56.116C218.476 56.116 217.936 56.476 217.936 57.196C217.936 57.508 218.056 57.754 218.296 57.934C218.536 58.102 218.932 58.234 219.484 58.33L220.654 58.51C221.782 58.714 222.598 59.038 223.102 59.482C223.618 59.926 223.876 60.544 223.876 61.336C223.876 62.272 223.516 62.992 222.796 63.496C222.076 64 221.062 64.252 219.754 64.252ZM229.783 54.712V56.44H227.947V61.462C227.947 61.762 228.025 61.972 228.181 62.092C228.349 62.212 228.625 62.272 229.009 62.272H229.783V64C229.291 64.048 228.895 64.072 228.595 64.072C227.587 64.072 226.849 63.886 226.381 63.514C225.925 63.13 225.697 62.524 225.697 61.696V56.44H224.257V54.712H225.697V52.012H227.947V54.712H229.783Z" fill="black"/>
</g>
<g opacity="0.5">
<path d="M341.901 59.41C341.901 60.31 341.493 61.114 340.677 61.822H346.761V64H337.635V62.02C338.283 61.696 338.751 61.342 339.039 60.958C339.339 60.562 339.489 60.082 339.489 59.518C339.489 59.254 339.453 58.996 339.381 58.744H337.347V57.43H338.877C338.877 57.418 338.847 57.352 338.787 57.232C338.247 56.08 337.977 55.162 337.977 54.478C337.977 53.386 338.373 52.516 339.165 51.868C339.933 51.22 340.971 50.896 342.279 50.896C343.719 50.896 344.811 51.25 345.555 51.958C346.299 52.666 346.701 53.68 346.761 55H344.403C344.367 54.292 344.181 53.764 343.845 53.416C343.509 53.068 342.975 52.894 342.243 52.894C341.667 52.894 341.223 53.038 340.911 53.326C340.599 53.602 340.443 53.986 340.443 54.478C340.443 54.91 340.653 55.594 341.073 56.53C341.169 56.77 341.295 57.07 341.451 57.43H345.123V58.744H341.847C341.883 58.96 341.901 59.182 341.901 59.41ZM351.426 51.184H353.352V64H350.922V55.36H347.97V53.65L348.258 53.632C349.194 53.572 349.908 53.362 350.4 53.002C350.904 52.63 351.246 52.024 351.426 51.184ZM363.375 58.996H365.085V61.048H363.375V64H360.945V61.048H354.717V58.744L360.711 51.184H363.375V58.996ZM360.999 58.996V53.794L356.877 58.996H360.999ZM366.006 64V61.426H368.652V64.198C368.652 65.89 367.878 66.766 366.33 66.826H366.006V65.53L366.312 65.512C366.864 65.476 367.14 65.074 367.14 64.306V64H366.006ZM375.005 55.576C376.397 55.576 377.483 55.984 378.263 56.8C379.019 57.616 379.397 58.63 379.397 59.842C379.397 61.174 378.953 62.248 378.065 63.064C377.177 63.88 376.025 64.288 374.609 64.288C373.301 64.288 372.203 63.934 371.315 63.226C370.451 62.53 369.971 61.57 369.875 60.346H372.197C372.281 60.958 372.539 61.444 372.971 61.804C373.415 62.152 373.961 62.326 374.609 62.326C375.341 62.326 375.929 62.098 376.373 61.642C376.829 61.174 377.057 60.574 377.057 59.842C377.057 59.11 376.829 58.516 376.373 58.06C375.929 57.592 375.341 57.358 374.609 57.358C373.529 57.358 372.779 57.79 372.359 58.654H370.127L371.315 51.184H378.731V53.236H373.223L372.665 56.422C373.361 55.858 374.141 55.576 375.005 55.576Z" fill="black"/>
</g>
<g opacity="0.5">
<path d="M62.388 96.168C60.456 96.168 59.434 95.3467 59.322 93.704H60.456C60.5213 94.2453 60.6987 94.6327 60.988 94.866C61.2867 95.09 61.7533 95.202 62.388 95.202C63.5453 95.202 64.124 94.8287 64.124 94.082C64.124 93.7553 64.0027 93.508 63.76 93.34C63.5267 93.172 63.0973 93.0273 62.472 92.906L61.8 92.78C60.2973 92.5 59.546 91.7907 59.546 90.652C59.546 90.0267 59.7793 89.532 60.246 89.168C60.722 88.7947 61.366 88.608 62.178 88.608C64.0913 88.608 65.0713 89.406 65.118 91.002H63.998C63.97 90.4793 63.8113 90.1107 63.522 89.896C63.2327 89.6813 62.7847 89.574 62.178 89.574C61.6927 89.574 61.3193 89.6673 61.058 89.854C60.7967 90.0407 60.666 90.302 60.666 90.638C60.666 90.9553 60.778 91.1933 61.002 91.352C61.226 91.5107 61.5993 91.646 62.122 91.758L62.766 91.884C63.6527 92.0613 64.2873 92.3133 64.67 92.64C65.062 92.9667 65.258 93.424 65.258 94.012C65.258 94.6933 65.0013 95.2253 64.488 95.608C63.984 95.9813 63.284 96.168 62.388 96.168ZM69.7072 88.608C70.5098 88.608 71.1352 88.8273 71.5832 89.266C72.0312 89.7047 72.2552 90.3207 72.2552 91.114V96H71.1352V91.226C71.1352 90.1527 70.5845 89.616 69.4832 89.616C68.9605 89.616 68.4985 89.812 68.0972 90.204C67.6958 90.596 67.4952 91.1653 67.4952 91.912V96H66.3752V86.032H67.4952V89.77C68.0458 88.9953 68.7832 88.608 69.7072 88.608ZM79.8437 95.09H80.2497V96C80.063 96.028 79.8577 96.042 79.6337 96.042C78.8777 96.042 78.4717 95.6967 78.4157 95.006C77.9117 95.7807 77.1277 96.168 76.0637 96.168C75.2704 96.168 74.645 95.986 74.1877 95.622C73.7397 95.2487 73.5157 94.726 73.5157 94.054C73.5157 92.7473 74.407 92.0007 76.1897 91.814L77.2257 91.702C77.9817 91.618 78.3597 91.2867 78.3597 90.708C78.3597 90.3067 78.2337 90.0173 77.9817 89.84C77.739 89.6627 77.3237 89.574 76.7357 89.574C76.1104 89.574 75.6577 89.6813 75.3777 89.896C75.107 90.1013 74.953 90.47 74.9157 91.002H73.7957C73.889 89.406 74.869 88.608 76.7357 88.608C78.5464 88.608 79.4517 89.308 79.4517 90.708V94.74C79.4517 94.9733 79.5824 95.09 79.8437 95.09ZM76.1197 95.216C76.717 95.216 77.2397 95.034 77.6877 94.67C78.1357 94.3153 78.3597 93.8067 78.3597 93.144V92.29C78.1544 92.4487 77.837 92.5513 77.4077 92.598L76.3577 92.724C75.751 92.7987 75.317 92.9387 75.0557 93.144C74.8037 93.3493 74.6777 93.6433 74.6777 94.026C74.6777 94.3993 74.799 94.6933 75.0417 94.908C75.2844 95.1133 75.6437 95.216 76.1197 95.216ZM87.3141 96H86.0121L83.5761 92.122L82.2881 93.326V96H81.1681V86.032H82.2881V92.01L85.6341 88.776H87.1181L84.3741 91.38L87.3141 96ZM90.4153 96.168C88.4833 96.168 87.4613 95.3467 87.3493 93.704H88.4833C88.5487 94.2453 88.726 94.6327 89.0153 94.866C89.314 95.09 89.7807 95.202 90.4153 95.202C91.5727 95.202 92.1513 94.8287 92.1513 94.082C92.1513 93.7553 92.03 93.508 91.7873 93.34C91.554 93.172 91.1247 93.0273 90.4993 92.906L89.8273 92.78C88.3247 92.5 87.5733 91.7907 87.5733 90.652C87.5733 90.0267 87.8067 89.532 88.2733 89.168C88.7493 88.7947 89.3933 88.608 90.2053 88.608C92.1187 88.608 93.0987 89.406 93.1453 91.002H92.0253C91.9973 90.4793 91.8387 90.1107 91.5493 89.896C91.26 89.6813 90.812 89.574 90.2053 89.574C89.72 89.574 89.3467 89.6673 89.0853 89.854C88.824 90.0407 88.6933 90.302 88.6933 90.638C88.6933 90.9553 88.8053 91.1933 89.0293 91.352C89.2533 91.5107 89.6267 91.646 90.1493 91.758L90.7933 91.884C91.68 92.0613 92.3147 92.3133 92.6973 92.64C93.0893 92.9667 93.2853 93.424 93.2853 94.012C93.2853 94.6933 93.0287 95.2253 92.5153 95.608C92.0113 95.9813 91.3113 96.168 90.4153 96.168ZM97.7345 88.608C98.5372 88.608 99.1625 88.8273 99.6105 89.266C100.059 89.7047 100.283 90.3207 100.283 91.114V96H99.1625V91.226C99.1625 90.1527 98.6118 89.616 97.5105 89.616C96.9878 89.616 96.5258 89.812 96.1245 90.204C95.7232 90.596 95.5225 91.1653 95.5225 91.912V96H94.4025V86.032H95.5225V89.77C96.0732 88.9953 96.8105 88.608 97.7345 88.608ZM107.633 95.132C106.97 95.8227 106.13 96.168 105.113 96.168C104.096 96.168 103.256 95.8227 102.593 95.132C101.94 94.4507 101.613 93.536 101.613 92.388C101.613 91.24 101.94 90.3253 102.593 89.644C103.256 88.9533 104.096 88.608 105.113 88.608C106.13 88.608 106.97 88.9533 107.633 89.644C108.286 90.3253 108.613 91.24 108.613 92.388C108.613 93.536 108.286 94.4507 107.633 95.132ZM103.419 94.418C103.839 94.9127 104.404 95.16 105.113 95.16C105.822 95.16 106.387 94.9127 106.807 94.418C107.227 93.9327 107.437 93.256 107.437 92.388C107.437 91.5107 107.227 90.8293 106.807 90.344C106.387 89.8587 105.822 89.616 105.113 89.616C104.404 89.616 103.839 89.8587 103.419 90.344C102.999 90.8293 102.789 91.5107 102.789 92.388C102.789 93.256 102.999 93.9327 103.419 94.418ZM114.502 92.864V88.776H115.622V96H114.558V94.922C114.008 95.7527 113.252 96.168 112.29 96.168C111.488 96.168 110.862 95.9487 110.414 95.51C109.966 95.0713 109.742 94.4553 109.742 93.662V88.776H110.862V93.55C110.862 94.6233 111.413 95.16 112.514 95.16C113.037 95.16 113.499 94.964 113.9 94.572C114.302 94.18 114.502 93.6107 114.502 92.864ZM123.449 96H122.147L119.711 92.122L118.423 93.326V96H117.303V86.032H118.423V92.01L121.769 88.776H123.253L120.509 91.38L123.449 96ZM129.91 95.09H130.316V96C130.129 96.028 129.924 96.042 129.7 96.042C128.944 96.042 128.538 95.6967 128.482 95.006C127.978 95.7807 127.194 96.168 126.13 96.168C125.337 96.168 124.711 95.986 124.254 95.622C123.806 95.2487 123.582 94.726 123.582 94.054C123.582 92.7473 124.473 92.0007 126.256 91.814L127.292 91.702C128.048 91.618 128.426 91.2867 128.426 90.708C128.426 90.3067 128.3 90.0173 128.048 89.84C127.805 89.6627 127.39 89.574 126.802 89.574C126.177 89.574 125.724 89.6813 125.444 89.896C125.173 90.1013 125.019 90.47 124.982 91.002H123.862C123.955 89.406 124.935 88.608 126.802 88.608C128.613 88.608 129.518 89.308 129.518 90.708V94.74C129.518 94.9733 129.649 95.09 129.91 95.09ZM126.186 95.216C126.783 95.216 127.306 95.034 127.754 94.67C128.202 94.3153 128.426 93.8067 128.426 93.144V92.29C128.221 92.4487 127.903 92.5513 127.474 92.598L126.424 92.724C125.817 92.7987 125.383 92.9387 125.122 93.144C124.87 93.3493 124.744 93.6433 124.744 94.026C124.744 94.3993 124.865 94.6933 125.108 94.908C125.351 95.1133 125.71 95.216 126.186 95.216ZM137.511 88.608C138.528 88.608 139.345 88.9487 139.961 89.63C140.568 90.3207 140.871 91.24 140.871 92.388C140.871 93.5267 140.568 94.4413 139.961 95.132C139.345 95.8227 138.528 96.168 137.511 96.168C136.438 96.168 135.612 95.7387 135.033 94.88V96H133.969V86.032H135.089V89.812C135.668 89.0093 136.475 88.608 137.511 88.608ZM137.371 95.16C138.071 95.16 138.631 94.908 139.051 94.404C139.48 93.8907 139.695 93.2 139.695 92.332C139.695 91.4827 139.485 90.82 139.065 90.344C138.654 89.8587 138.09 89.616 137.371 89.616C136.662 89.616 136.097 89.8587 135.677 90.344C135.257 90.8293 135.047 91.5107 135.047 92.388C135.047 93.256 135.257 93.9327 135.677 94.418C136.097 94.9127 136.662 95.16 137.371 95.16ZM147.971 95.09H148.377V96C148.19 96.028 147.985 96.042 147.761 96.042C147.005 96.042 146.599 95.6967 146.543 95.006C146.039 95.7807 145.255 96.168 144.191 96.168C143.397 96.168 142.772 95.986 142.315 95.622C141.867 95.2487 141.643 94.726 141.643 94.054C141.643 92.7473 142.534 92.0007 144.317 91.814L145.353 91.702C146.109 91.618 146.487 91.2867 146.487 90.708C146.487 90.3067 146.361 90.0173 146.109 89.84C145.866 89.6627 145.451 89.574 144.863 89.574C144.237 89.574 143.785 89.6813 143.505 89.896C143.234 90.1013 143.08 90.47 143.043 91.002H141.923C142.016 89.406 142.996 88.608 144.863 88.608C146.673 88.608 147.579 89.308 147.579 90.708V94.74C147.579 94.9733 147.709 95.09 147.971 95.09ZM144.247 95.216C144.844 95.216 145.367 95.034 145.815 94.67C146.263 94.3153 146.487 93.8067 146.487 93.144V92.29C146.281 92.4487 145.964 92.5513 145.535 92.598L144.485 92.724C143.878 92.7987 143.444 92.9387 143.183 93.144C142.931 93.3493 142.805 93.6433 142.805 94.026C142.805 94.3993 142.926 94.6933 143.169 94.908C143.411 95.1133 143.771 95.216 144.247 95.216ZM155.441 96H154.139L151.703 92.122L150.415 93.326V96H149.295V86.032H150.415V92.01L153.761 88.776H155.245L152.501 91.38L155.441 96ZM162.158 92.388V92.78H156.67C156.726 93.564 156.945 94.1567 157.328 94.558C157.71 94.95 158.233 95.146 158.896 95.146C159.894 95.146 160.534 94.698 160.814 93.802H161.976C161.78 94.53 161.416 95.1087 160.884 95.538C160.352 95.958 159.68 96.168 158.868 96.168C157.869 96.168 157.062 95.8273 156.446 95.146C155.82 94.4647 155.508 93.5453 155.508 92.388C155.508 91.2493 155.816 90.3347 156.432 89.644C157.038 88.9533 157.841 88.608 158.84 88.608C159.876 88.608 160.688 88.9673 161.276 89.686C161.864 90.4047 162.158 91.3053 162.158 92.388ZM158.84 89.63C158.252 89.63 157.771 89.8167 157.398 90.19C157.024 90.554 156.791 91.0813 156.698 91.772H160.954C160.898 91.1373 160.683 90.624 160.31 90.232C159.936 89.8307 159.446 89.63 158.84 89.63ZM168.918 89.812V86.032H170.038V96H168.974V94.88C168.396 95.7387 167.57 96.168 166.496 96.168C165.479 96.168 164.667 95.8227 164.06 95.132C163.444 94.4413 163.136 93.5267 163.136 92.388C163.136 91.2307 163.444 90.3113 164.06 89.63C164.658 88.9487 165.47 88.608 166.496 88.608C167.532 88.608 168.34 89.0093 168.918 89.812ZM164.312 92.444C164.312 93.3027 164.522 93.97 164.942 94.446C165.362 94.922 165.927 95.16 166.636 95.16C167.346 95.16 167.91 94.9127 168.33 94.418C168.75 93.9327 168.96 93.256 168.96 92.388C168.96 91.5293 168.75 90.8527 168.33 90.358C167.91 89.8633 167.346 89.616 166.636 89.616C165.936 89.616 165.372 89.8727 164.942 90.386C164.522 90.89 164.312 91.576 164.312 92.444ZM180.683 92.388V92.78H175.195C175.251 93.564 175.47 94.1567 175.853 94.558C176.236 94.95 176.758 95.146 177.421 95.146C178.42 95.146 179.059 94.698 179.339 93.802H180.501C180.305 94.53 179.941 95.1087 179.409 95.538C178.877 95.958 178.205 96.168 177.393 96.168C176.394 96.168 175.587 95.8273 174.971 95.146C174.346 94.4647 174.033 93.5453 174.033 92.388C174.033 91.2493 174.341 90.3347 174.957 89.644C175.564 88.9533 176.366 88.608 177.365 88.608C178.401 88.608 179.213 88.9673 179.801 89.686C180.389 90.4047 180.683 91.3053 180.683 92.388ZM177.365 89.63C176.777 89.63 176.296 89.8167 175.923 90.19C175.55 90.554 175.316 91.0813 175.223 91.772H179.479C179.423 91.1373 179.208 90.624 178.835 90.232C178.462 89.8307 177.972 89.63 177.365 89.63ZM187.5 89.826V88.776H188.564V95.72C188.564 96.7093 188.275 97.4887 187.696 98.058C187.117 98.6273 186.287 98.912 185.204 98.912C184.308 98.912 183.589 98.7067 183.048 98.296C182.507 97.8853 182.199 97.316 182.124 96.588H183.244C183.384 97.5027 184.037 97.96 185.204 97.96C186.697 97.96 187.444 97.2133 187.444 95.72V95.02C186.875 95.7853 186.067 96.168 185.022 96.168C184.005 96.168 183.193 95.8227 182.586 95.132C181.97 94.4413 181.662 93.5267 181.662 92.388C181.662 91.2307 181.97 90.3113 182.586 89.63C183.183 88.9487 183.995 88.608 185.022 88.608C186.095 88.608 186.921 89.014 187.5 89.826ZM185.162 95.16C185.871 95.16 186.436 94.9127 186.856 94.418C187.276 93.9233 187.486 93.2467 187.486 92.388C187.486 91.5293 187.276 90.8527 186.856 90.358C186.436 89.8633 185.871 89.616 185.162 89.616C184.462 89.616 183.897 89.868 183.468 90.372C183.048 90.876 182.838 91.548 182.838 92.388C182.838 93.228 183.048 93.9 183.468 94.404C183.897 94.908 184.462 95.16 185.162 95.16ZM195.73 89.826V88.776H196.794V95.72C196.794 96.7093 196.505 97.4887 195.926 98.058C195.348 98.6273 194.517 98.912 193.434 98.912C192.538 98.912 191.82 98.7067 191.278 98.296C190.737 97.8853 190.429 97.316 190.354 96.588H191.474C191.614 97.5027 192.268 97.96 193.434 97.96C194.928 97.96 195.674 97.2133 195.674 95.72V95.02C195.105 95.7853 194.298 96.168 193.252 96.168C192.235 96.168 191.423 95.8227 190.816 95.132C190.2 94.4413 189.892 93.5267 189.892 92.388C189.892 91.2307 190.2 90.3113 190.816 89.63C191.414 88.9487 192.226 88.608 193.252 88.608C194.326 88.608 195.152 89.014 195.73 89.826ZM193.392 95.16C194.102 95.16 194.666 94.9127 195.086 94.418C195.506 93.9233 195.716 93.2467 195.716 92.388C195.716 91.5293 195.506 90.8527 195.086 90.358C194.666 89.8633 194.102 89.616 193.392 89.616C192.692 89.616 192.128 89.868 191.698 90.372C191.278 90.876 191.068 91.548 191.068 92.388C191.068 93.228 191.278 93.9 191.698 94.404C192.128 94.908 192.692 95.16 193.392 95.16ZM201.021 96.168C199.089 96.168 198.067 95.3467 197.955 93.704H199.089C199.154 94.2453 199.331 94.6327 199.621 94.866C199.919 95.09 200.386 95.202 201.021 95.202C202.178 95.202 202.757 94.8287 202.757 94.082C202.757 93.7553 202.635 93.508 202.393 93.34C202.159 93.172 201.73 93.0273 201.105 92.906L200.433 92.78C198.93 92.5 198.179 91.7907 198.179 90.652C198.179 90.0267 198.412 89.532 198.879 89.168C199.355 88.7947 199.999 88.608 200.811 88.608C202.724 88.608 203.704 89.406 203.751 91.002H202.631C202.603 90.4793 202.444 90.1107 202.155 89.896C201.865 89.6813 201.417 89.574 200.811 89.574C200.325 89.574 199.952 89.6673 199.691 89.854C199.429 90.0407 199.299 90.302 199.299 90.638C199.299 90.9553 199.411 91.1933 199.635 91.352C199.859 91.5107 200.232 91.646 200.755 91.758L201.399 91.884C202.285 92.0613 202.92 92.3133 203.303 92.64C203.695 92.9667 203.891 93.424 203.891 94.012C203.891 94.6933 203.634 95.2253 203.121 95.608C202.617 95.9813 201.917 96.168 201.021 96.168ZM204.798 96V94.6H206.212V96.126C206.212 97.246 205.787 97.848 204.938 97.932L204.798 97.946V97.19L204.896 97.176C205.241 97.1387 205.414 96.8213 205.414 96.224V96H204.798ZM213.518 88.776V89.756H212.034V94.446C212.034 94.8567 212.309 95.062 212.86 95.062H213.518V96C213.21 96.028 212.944 96.042 212.72 96.042C211.516 96.042 210.914 95.5427 210.914 94.544V89.756H209.724V88.776H210.914V86.732H212.034V88.776H213.518ZM219.461 92.864V88.776H220.581V96H219.517V94.922C218.967 95.7527 218.211 96.168 217.249 96.168C216.447 96.168 215.821 95.9487 215.373 95.51C214.925 95.0713 214.701 94.4553 214.701 93.662V88.776H215.821V93.55C215.821 94.6233 216.372 95.16 217.473 95.16C217.996 95.16 218.458 94.964 218.859 94.572C219.261 94.18 219.461 93.6107 219.461 92.864ZM225.65 88.664C225.837 88.664 225.963 88.6687 226.028 88.678V89.756H225.748C225.001 89.756 224.418 89.9427 223.998 90.316C223.587 90.68 223.382 91.2027 223.382 91.884V96H222.262V88.776H223.326V90.05C223.811 89.126 224.586 88.664 225.65 88.664ZM233.22 96H231.918L229.482 92.122L228.194 93.326V96H227.074V86.032H228.194V92.01L231.54 88.776H233.024L230.28 91.38L233.22 96ZM235.14 87.684H233.95V86.312H235.14V87.684ZM235.112 96H233.992V88.776H235.112V96ZM239.343 96.168C237.411 96.168 236.389 95.3467 236.277 93.704H237.411C237.476 94.2453 237.654 94.6327 237.943 94.866C238.242 95.09 238.708 95.202 239.343 95.202C240.5 95.202 241.079 94.8287 241.079 94.082C241.079 93.7553 240.958 93.508 240.715 93.34C240.482 93.172 240.052 93.0273 239.427 92.906L238.755 92.78C237.252 92.5 236.501 91.7907 236.501 90.652C236.501 90.0267 236.734 89.532 237.201 89.168C237.677 88.7947 238.321 88.608 239.133 88.608C241.046 88.608 242.026 89.406 242.073 91.002H240.953C240.925 90.4793 240.766 90.1107 240.477 89.896C240.188 89.6813 239.74 89.574 239.133 89.574C238.648 89.574 238.274 89.6673 238.013 89.854C237.752 90.0407 237.621 90.302 237.621 90.638C237.621 90.9553 237.733 91.1933 237.957 91.352C238.181 91.5107 238.554 91.646 239.077 91.758L239.721 91.884C240.608 92.0613 241.242 92.3133 241.625 92.64C242.017 92.9667 242.213 93.424 242.213 94.012C242.213 94.6933 241.956 95.2253 241.443 95.608C240.939 95.9813 240.239 96.168 239.343 96.168ZM246.662 88.608C247.465 88.608 248.09 88.8273 248.538 89.266C248.986 89.7047 249.21 90.3207 249.21 91.114V96H248.09V91.226C248.09 90.1527 247.54 89.616 246.438 89.616C245.916 89.616 245.454 89.812 245.052 90.204C244.651 90.596 244.45 91.1653 244.45 91.912V96H243.33V86.032H244.45V89.77C245.001 88.9953 245.738 88.608 246.662 88.608ZM256.553 96.168C255.554 96.168 254.747 95.8227 254.131 95.132C253.515 94.4413 253.207 93.5267 253.207 92.388C253.207 91.2307 253.515 90.3113 254.131 89.63C254.728 88.9487 255.535 88.608 256.553 88.608C257.411 88.608 258.116 88.8413 258.667 89.308C259.217 89.7747 259.549 90.414 259.661 91.226H258.499C258.415 90.7127 258.191 90.316 257.827 90.036C257.472 89.756 257.047 89.616 256.553 89.616C255.89 89.616 255.363 89.8587 254.971 90.344C254.579 90.82 254.383 91.5013 254.383 92.388C254.383 93.2653 254.579 93.9467 254.971 94.432C255.372 94.9173 255.899 95.16 256.553 95.16C257.047 95.16 257.477 95.0153 257.841 94.726C258.205 94.4367 258.429 94.0353 258.513 93.522H259.661C259.539 94.334 259.194 94.978 258.625 95.454C258.065 95.93 257.374 96.168 256.553 96.168ZM264.19 88.608C264.992 88.608 265.618 88.8273 266.066 89.266C266.514 89.7047 266.738 90.3207 266.738 91.114V96H265.618V91.226C265.618 90.1527 265.067 89.616 263.966 89.616C263.443 89.616 262.981 89.812 262.58 90.204C262.178 90.596 261.978 91.1653 261.978 91.912V96H260.858V86.032H261.978V89.77C262.528 88.9953 263.266 88.608 264.19 88.608ZM274.718 92.388V92.78H269.23C269.286 93.564 269.505 94.1567 269.888 94.558C270.271 94.95 270.793 95.146 271.456 95.146C272.455 95.146 273.094 94.698 273.374 93.802H274.536C274.34 94.53 273.976 95.1087 273.444 95.538C272.912 95.958 272.24 96.168 271.428 96.168C270.429 96.168 269.622 95.8273 269.006 95.146C268.381 94.4647 268.068 93.5453 268.068 92.388C268.068 91.2493 268.376 90.3347 268.992 89.644C269.599 88.9533 270.401 88.608 271.4 88.608C272.436 88.608 273.248 88.9673 273.836 89.686C274.424 90.4047 274.718 91.3053 274.718 92.388ZM271.4 89.63C270.812 89.63 270.331 89.8167 269.958 90.19C269.585 90.554 269.351 91.0813 269.258 91.772H273.514C273.458 91.1373 273.243 90.624 272.87 90.232C272.497 89.8307 272.007 89.63 271.4 89.63ZM282.347 92.388V92.78H276.859C276.915 93.564 277.134 94.1567 277.517 94.558C277.9 94.95 278.422 95.146 279.085 95.146C280.084 95.146 280.723 94.698 281.003 93.802H282.165C281.969 94.53 281.605 95.1087 281.073 95.538C280.541 95.958 279.869 96.168 279.057 96.168C278.058 96.168 277.251 95.8273 276.635 95.146C276.01 94.4647 275.697 93.5453 275.697 92.388C275.697 91.2493 276.005 90.3347 276.621 89.644C277.228 88.9533 278.03 88.608 279.029 88.608C280.065 88.608 280.877 88.9673 281.465 89.686C282.053 90.4047 282.347 91.3053 282.347 92.388ZM279.029 89.63C278.441 89.63 277.96 89.8167 277.587 90.19C277.214 90.554 276.98 91.0813 276.887 91.772H281.143C281.087 91.1373 280.872 90.624 280.499 90.232C280.126 89.8307 279.636 89.63 279.029 89.63ZM286.156 96.168C284.224 96.168 283.202 95.3467 283.09 93.704H284.224C284.289 94.2453 284.466 94.6327 284.756 94.866C285.054 95.09 285.521 95.202 286.156 95.202C287.313 95.202 287.892 94.8287 287.892 94.082C287.892 93.7553 287.77 93.508 287.528 93.34C287.294 93.172 286.865 93.0273 286.24 92.906L285.568 92.78C284.065 92.5 283.314 91.7907 283.314 90.652C283.314 90.0267 283.547 89.532 284.014 89.168C284.49 88.7947 285.134 88.608 285.946 88.608C287.859 88.608 288.839 89.406 288.886 91.002H287.766C287.738 90.4793 287.579 90.1107 287.29 89.896C287 89.6813 286.552 89.574 285.946 89.574C285.46 89.574 285.087 89.6673 284.826 89.854C284.564 90.0407 284.434 90.302 284.434 90.638C284.434 90.9553 284.546 91.1933 284.77 91.352C284.994 91.5107 285.367 91.646 285.89 91.758L286.534 91.884C287.42 92.0613 288.055 92.3133 288.438 92.64C288.83 92.9667 289.026 93.424 289.026 94.012C289.026 94.6933 288.769 95.2253 288.256 95.608C287.752 95.9813 287.052 96.168 286.156 96.168ZM296.443 92.388V92.78H290.955C291.011 93.564 291.23 94.1567 291.613 94.558C291.995 94.95 292.518 95.146 293.181 95.146C294.179 95.146 294.819 94.698 295.099 93.802H296.261C296.065 94.53 295.701 95.1087 295.169 95.538C294.637 95.958 293.965 96.168 293.153 96.168C292.154 96.168 291.347 95.8273 290.731 95.146C290.105 94.4647 289.793 93.5453 289.793 92.388C289.793 91.2493 290.101 90.3347 290.717 89.644C291.323 88.9533 292.126 88.608 293.125 88.608C294.161 88.608 294.973 88.9673 295.561 89.686C296.149 90.4047 296.443 91.3053 296.443 92.388ZM293.125 89.63C292.537 89.63 292.056 89.8167 291.683 90.19C291.309 90.554 291.076 91.0813 290.983 91.772H295.239C295.183 91.1373 294.968 90.624 294.595 90.232C294.221 89.8307 293.731 89.63 293.125 89.63ZM63.13 107.984H62.486C61.842 107.984 61.52 108.325 61.52 109.006V109.776H63.06V110.756H61.52V117H60.4V110.756H59.21V109.776H60.4V109.034C60.4 107.681 61.072 107.004 62.416 107.004C62.5933 107.004 62.8313 107.013 63.13 107.032V107.984ZM69.4338 116.132C68.7712 116.823 67.9312 117.168 66.9138 117.168C65.8965 117.168 65.0565 116.823 64.3938 116.132C63.7405 115.451 63.4138 114.536 63.4138 113.388C63.4138 112.24 63.7405 111.325 64.3938 110.644C65.0565 109.953 65.8965 109.608 66.9138 109.608C67.9312 109.608 68.7712 109.953 69.4338 110.644C70.0872 111.325 70.4138 112.24 70.4138 113.388C70.4138 114.536 70.0872 115.451 69.4338 116.132ZM65.2198 115.418C65.6398 115.913 66.2045 116.16 66.9138 116.16C67.6232 116.16 68.1878 115.913 68.6078 115.418C69.0278 114.933 69.2378 114.256 69.2378 113.388C69.2378 112.511 69.0278 111.829 68.6078 111.344C68.1878 110.859 67.6232 110.616 66.9138 110.616C66.2045 110.616 65.6398 110.859 65.2198 111.344C64.7998 111.829 64.5898 112.511 64.5898 113.388C64.5898 114.256 64.7998 114.933 65.2198 115.418ZM75.0802 109.608C75.8829 109.608 76.5082 109.827 76.9562 110.266C77.4042 110.705 77.6282 111.321 77.6282 112.114V117H76.5082V112.226C76.5082 111.153 75.9575 110.616 74.8562 110.616C74.3335 110.616 73.8715 110.812 73.4702 111.204C73.0689 111.596 72.8682 112.165 72.8682 112.912V117H71.7482V109.776H72.8122V110.854C73.3629 110.023 74.1189 109.608 75.0802 109.608ZM84.7408 110.812V107.032H85.8607V117H84.7968V115.88C84.2181 116.739 83.3921 117.168 82.3188 117.168C81.3014 117.168 80.4894 116.823 79.8828 116.132C79.2668 115.441 78.9588 114.527 78.9588 113.388C78.9588 112.231 79.2668 111.311 79.8828 110.63C80.4801 109.949 81.2921 109.608 82.3188 109.608C83.3548 109.608 84.1621 110.009 84.7408 110.812ZM80.1348 113.444C80.1348 114.303 80.3448 114.97 80.7648 115.446C81.1848 115.922 81.7494 116.16 82.4588 116.16C83.1681 116.16 83.7328 115.913 84.1528 115.418C84.5728 114.933 84.7828 114.256 84.7828 113.388C84.7828 112.529 84.5728 111.853 84.1528 111.358C83.7328 110.863 83.1681 110.616 82.4588 110.616C81.7588 110.616 81.1941 110.873 80.7648 111.386C80.3448 111.89 80.1348 112.576 80.1348 113.444ZM92.2992 113.864V109.776H93.4192V117H92.3552V115.922C91.8046 116.753 91.0486 117.168 90.0872 117.168C89.2846 117.168 88.6592 116.949 88.2112 116.51C87.7632 116.071 87.5392 115.455 87.5392 114.662V109.776H88.6592V114.55C88.6592 115.623 89.2099 116.16 90.3112 116.16C90.8339 116.16 91.2959 115.964 91.6972 115.572C92.0986 115.18 92.2992 114.611 92.2992 113.864ZM101.4 113.388V113.78H95.9118C95.9678 114.564 96.1871 115.157 96.5698 115.558C96.9524 115.95 97.4751 116.146 98.1378 116.146C99.1364 116.146 99.7758 115.698 100.056 114.802H101.218C101.022 115.53 100.658 116.109 100.126 116.538C99.5938 116.958 98.9218 117.168 98.1098 117.168C97.1111 117.168 96.3038 116.827 95.6878 116.146C95.0624 115.465 94.7498 114.545 94.7498 113.388C94.7498 112.249 95.0578 111.335 95.6738 110.644C96.2804 109.953 97.0831 109.608 98.0818 109.608C99.1178 109.608 99.9298 109.967 100.518 110.686C101.106 111.405 101.4 112.305 101.4 113.388ZM98.0818 110.63C97.4938 110.63 97.0131 110.817 96.6398 111.19C96.2664 111.554 96.0331 112.081 95.9398 112.772H100.196C100.14 112.137 99.9251 111.624 99.5518 111.232C99.1784 110.831 98.6884 110.63 98.0818 110.63ZM101.958 117V115.6H103.372V117.126C103.372 118.246 102.947 118.848 102.098 118.932L101.958 118.946V118.19L102.056 118.176C102.401 118.139 102.574 117.821 102.574 117.224V117H101.958ZM110.062 117.168C108.13 117.168 107.108 116.347 106.996 114.704H108.13C108.195 115.245 108.372 115.633 108.662 115.866C108.96 116.09 109.427 116.202 110.062 116.202C111.219 116.202 111.798 115.829 111.798 115.082C111.798 114.755 111.676 114.508 111.434 114.34C111.2 114.172 110.771 114.027 110.146 113.906L109.474 113.78C107.971 113.5 107.22 112.791 107.22 111.652C107.22 111.027 107.453 110.532 107.92 110.168C108.396 109.795 109.04 109.608 109.852 109.608C111.765 109.608 112.745 110.406 112.792 112.002H111.672C111.644 111.479 111.485 111.111 111.196 110.896C110.906 110.681 110.458 110.574 109.852 110.574C109.366 110.574 108.993 110.667 108.732 110.854C108.47 111.041 108.34 111.302 108.34 111.638C108.34 111.955 108.452 112.193 108.676 112.352C108.9 112.511 109.273 112.646 109.796 112.758L110.44 112.884C111.326 113.061 111.961 113.313 112.344 113.64C112.736 113.967 112.932 114.424 112.932 115.012C112.932 115.693 112.675 116.225 112.162 116.608C111.658 116.981 110.958 117.168 110.062 117.168ZM118.809 113.864V109.776H119.929V117H118.865V115.922C118.314 116.753 117.558 117.168 116.597 117.168C115.794 117.168 115.169 116.949 114.721 116.51C114.273 116.071 114.049 115.455 114.049 114.662V109.776H115.169V114.55C115.169 115.623 115.72 116.16 116.821 116.16C117.344 116.16 117.806 115.964 118.207 115.572C118.608 115.18 118.809 114.611 118.809 113.864ZM124.606 117.168C123.607 117.168 122.8 116.823 122.184 116.132C121.568 115.441 121.26 114.527 121.26 113.388C121.26 112.231 121.568 111.311 122.184 110.63C122.781 109.949 123.588 109.608 124.606 109.608C125.464 109.608 126.169 109.841 126.72 110.308C127.27 110.775 127.602 111.414 127.714 112.226H126.552C126.468 111.713 126.244 111.316 125.88 111.036C125.525 110.756 125.1 110.616 124.606 110.616C123.943 110.616 123.416 110.859 123.024 111.344C122.632 111.82 122.436 112.501 122.436 113.388C122.436 114.265 122.632 114.947 123.024 115.432C123.425 115.917 123.952 116.16 124.606 116.16C125.1 116.16 125.53 116.015 125.894 115.726C126.258 115.437 126.482 115.035 126.566 114.522H127.714C127.592 115.334 127.247 115.978 126.678 116.454C126.118 116.93 125.427 117.168 124.606 117.168ZM133.67 113.864V109.776H134.79V117H133.726V115.922C133.176 116.753 132.42 117.168 131.458 117.168C130.656 117.168 130.03 116.949 129.582 116.51C129.134 116.071 128.91 115.455 128.91 114.662V109.776H130.03V114.55C130.03 115.623 130.581 116.16 131.682 116.16C132.205 116.16 132.667 115.964 133.068 115.572C133.47 115.18 133.67 114.611 133.67 113.864ZM142.617 117H141.315L138.879 113.122L137.591 114.326V117H136.471V107.032H137.591V113.01L140.937 109.776H142.421L139.677 112.38L142.617 117ZM147.284 110.602H146.416L146.262 107.032H147.438L147.284 110.602ZM152.35 109.776V110.756H150.866V115.446C150.866 115.857 151.141 116.062 151.692 116.062H152.35V117C152.042 117.028 151.776 117.042 151.552 117.042C150.348 117.042 149.746 116.543 149.746 115.544V110.756H148.556V109.776H149.746V107.732H150.866V109.776H152.35ZM158.293 113.864V109.776H159.413V117H158.349V115.922C157.799 116.753 157.043 117.168 156.081 117.168C155.279 117.168 154.653 116.949 154.205 116.51C153.757 116.071 153.533 115.455 153.533 114.662V109.776H154.653V114.55C154.653 115.623 155.204 116.16 156.305 116.16C156.828 116.16 157.29 115.964 157.691 115.572C158.093 115.18 158.293 114.611 158.293 113.864ZM164.482 109.664C164.669 109.664 164.795 109.669 164.86 109.678V110.756H164.58C163.833 110.756 163.25 110.943 162.83 111.316C162.419 111.68 162.214 112.203 162.214 112.884V117H161.094V109.776H162.158V111.05C162.643 110.126 163.418 109.664 164.482 109.664ZM172.052 117H170.75L168.314 113.122L167.026 114.326V117H165.906V107.032H167.026V113.01L170.372 109.776H171.856L169.112 112.38L172.052 117ZM173.972 108.684H172.782V107.312H173.972V108.684ZM173.944 117H172.824V109.776H173.944V117ZM178.175 117.168C176.243 117.168 175.221 116.347 175.109 114.704H176.243C176.308 115.245 176.486 115.633 176.775 115.866C177.074 116.09 177.54 116.202 178.175 116.202C179.332 116.202 179.911 115.829 179.911 115.082C179.911 114.755 179.79 114.508 179.547 114.34C179.314 114.172 178.884 114.027 178.259 113.906L177.587 113.78C176.084 113.5 175.333 112.791 175.333 111.652C175.333 111.027 175.566 110.532 176.033 110.168C176.509 109.795 177.153 109.608 177.965 109.608C179.878 109.608 180.858 110.406 180.905 112.002H179.785C179.757 111.479 179.598 111.111 179.309 110.896C179.02 110.681 178.572 110.574 177.965 110.574C177.48 110.574 177.106 110.667 176.845 110.854C176.584 111.041 176.453 111.302 176.453 111.638C176.453 111.955 176.565 112.193 176.789 112.352C177.013 112.511 177.386 112.646 177.909 112.758L178.553 112.884C179.44 113.061 180.074 113.313 180.457 113.64C180.849 113.967 181.045 114.424 181.045 115.012C181.045 115.693 180.788 116.225 180.275 116.608C179.771 116.981 179.071 117.168 178.175 117.168ZM185.494 109.608C186.297 109.608 186.922 109.827 187.37 110.266C187.818 110.705 188.042 111.321 188.042 112.114V117H186.922V112.226C186.922 111.153 186.372 110.616 185.27 110.616C184.748 110.616 184.286 110.812 183.884 111.204C183.483 111.596 183.282 112.165 183.282 112.912V117H182.162V107.032H183.282V110.77C183.833 109.995 184.57 109.608 185.494 109.608ZM195.385 117.168C194.386 117.168 193.579 116.823 192.963 116.132C192.347 115.441 192.039 114.527 192.039 113.388C192.039 112.231 192.347 111.311 192.963 110.63C193.56 109.949 194.367 109.608 195.385 109.608C196.243 109.608 196.948 109.841 197.499 110.308C198.049 110.775 198.381 111.414 198.493 112.226H197.331C197.247 111.713 197.023 111.316 196.659 111.036C196.304 110.756 195.879 110.616 195.385 110.616C194.722 110.616 194.195 110.859 193.803 111.344C193.411 111.82 193.215 112.501 193.215 113.388C193.215 114.265 193.411 114.947 193.803 115.432C194.204 115.917 194.731 116.16 195.385 116.16C195.879 116.16 196.309 116.015 196.673 115.726C197.037 115.437 197.261 115.035 197.345 114.522H198.493C198.371 115.334 198.026 115.978 197.457 116.454C196.897 116.93 196.206 117.168 195.385 117.168ZM203.022 109.608C203.824 109.608 204.45 109.827 204.898 110.266C205.346 110.705 205.57 111.321 205.57 112.114V117H204.45V112.226C204.45 111.153 203.899 110.616 202.798 110.616C202.275 110.616 201.813 110.812 201.412 111.204C201.01 111.596 200.81 112.165 200.81 112.912V117H199.69V107.032H200.81V110.77C201.36 109.995 202.098 109.608 203.022 109.608ZM212.92 116.132C212.257 116.823 211.417 117.168 210.4 117.168C209.383 117.168 208.543 116.823 207.88 116.132C207.227 115.451 206.9 114.536 206.9 113.388C206.9 112.24 207.227 111.325 207.88 110.644C208.543 109.953 209.383 109.608 210.4 109.608C211.417 109.608 212.257 109.953 212.92 110.644C213.573 111.325 213.9 112.24 213.9 113.388C213.9 114.536 213.573 115.451 212.92 116.132ZM208.706 115.418C209.126 115.913 209.691 116.16 210.4 116.16C211.109 116.16 211.674 115.913 212.094 115.418C212.514 114.933 212.724 114.256 212.724 113.388C212.724 112.511 212.514 111.829 212.094 111.344C211.674 110.859 211.109 110.616 210.4 110.616C209.691 110.616 209.126 110.859 208.706 111.344C208.286 111.829 208.076 112.511 208.076 113.388C208.076 114.256 208.286 114.933 208.706 115.418ZM218.623 109.664C218.809 109.664 218.935 109.669 219.001 109.678V110.756H218.721C217.974 110.756 217.391 110.943 216.971 111.316C216.56 111.68 216.355 112.203 216.355 112.884V117H215.235V109.776H216.299V111.05C216.784 110.126 217.559 109.664 218.623 109.664ZM221.195 108.684H220.005V107.312H221.195V108.684ZM221.167 117H220.047V109.776H221.167V117ZM225.303 116.02H228.201V117H222.363V116.16L225.667 111.904C225.826 111.708 226.012 111.475 226.227 111.204C226.442 110.933 226.568 110.775 226.605 110.728C226.138 110.747 225.625 110.756 225.065 110.756H222.503V109.776H228.005V110.616L224.701 114.872C224.542 115.068 224.356 115.301 224.141 115.572C223.926 115.843 223.8 116.001 223.763 116.048C224.23 116.029 224.743 116.02 225.303 116.02ZM234.645 116.132C233.982 116.823 233.142 117.168 232.125 117.168C231.107 117.168 230.267 116.823 229.605 116.132C228.951 115.451 228.625 114.536 228.625 113.388C228.625 112.24 228.951 111.325 229.605 110.644C230.267 109.953 231.107 109.608 232.125 109.608C233.142 109.608 233.982 109.953 234.645 110.644C235.298 111.325 235.625 112.24 235.625 113.388C235.625 114.536 235.298 115.451 234.645 116.132ZM230.431 115.418C230.851 115.913 231.415 116.16 232.125 116.16C232.834 116.16 233.399 115.913 233.819 115.418C234.239 114.933 234.449 114.256 234.449 113.388C234.449 112.511 234.239 111.829 233.819 111.344C233.399 110.859 232.834 110.616 232.125 110.616C231.415 110.616 230.851 110.859 230.431 111.344C230.011 111.829 229.801 112.511 229.801 113.388C229.801 114.256 230.011 114.933 230.431 115.418ZM237.217 110.602H236.349L236.195 107.032H237.371L237.217 110.602ZM239.489 117H238.075V115.6H239.489V117ZM242.169 117H240.755V115.6H242.169V117ZM244.849 117H243.435V115.6H244.849V117Z" fill="#8D8D93"/>
</g>
<path d="M355 112C355 107.582 358.582 104 363 104H395V136C395 140.418 391.418 144 387 144H355V112Z" fill="#EBEBEB"/>
<path d="M382.375 123.375H375.625V116.625C375.625 116.28 375.345 116 375 116C374.655 116 374.375 116.28 374.375 116.625V123.375H367.625C367.28 123.375 367 123.655 367 124C367 124.345 367.28 124.625 367.625 124.625H374.375V131.375C374.375 131.72 374.655 132 375 132C375.345 132 375.625 131.72 375.625 131.375V124.625H382.375C382.72 124.625 383 124.345 383 124C383 123.655 382.72 123.375 382.375 123.375Z" fill="#B0B0B0"/>
<path d="M258.881 52.3846C259.486 52.3846 259.977 51.868 259.977 51.2307C259.977 50.5935 259.486 50.0769 258.881 50.0769C258.276 50.0769 257.785 50.5935 257.785 51.2307C257.785 51.868 258.276 52.3846 258.881 52.3846Z" fill="#FF7474"/>
<path d="M255.958 50.077C256.563 50.077 257.054 49.5604 257.054 48.9231C257.054 48.2859 256.563 47.7693 255.958 47.7693C255.353 47.7693 254.862 48.2859 254.862 48.9231C254.862 49.5604 255.353 50.077 255.958 50.077Z" fill="#FF7474"/>
<path d="M253.035 49.3077C253.64 49.3077 254.131 48.7911 254.131 48.1538C254.131 47.5166 253.64 47 253.035 47C252.429 47 251.939 47.5166 251.939 48.1538C251.939 48.7911 252.429 49.3077 253.035 49.3077Z" fill="#FF7474"/>
<path d="M250.112 50.8463C250.717 50.8463 251.208 50.3297 251.208 49.6924C251.208 49.0552 250.717 48.5386 250.112 48.5386C249.506 48.5386 249.016 49.0552 249.016 49.6924C249.016 50.3297 249.506 50.8463 250.112 50.8463Z" fill="#FF7474"/>
<path d="M257.785 51.2307V56.2307C257.785 56.443 257.621 56.6153 257.42 56.6153C257.218 56.6153 257.054 56.443 257.054 56.2307V48.923H254.862V55.4615C254.862 55.6738 254.698 55.8461 254.496 55.8461C254.295 55.8461 254.131 55.6738 254.131 55.4615V48.1538H251.939V55.4615C251.939 55.6738 251.775 55.8461 251.573 55.8461C251.372 55.8461 251.208 55.6738 251.208 55.4615V49.6923H249.016V59.3077L247.536 57.1761C247.097 56.4646 246.242 56.2261 245.615 56.6338C244.99 57.0507 244.835 57.96 245.268 58.6692C245.268 58.6692 247.654 62.4715 248.672 64.0992C249.689 65.7269 251.337 67 254.418 67C259.521 67 259.977 62.8523 259.977 61.6153C259.977 60.3784 259.977 51.2307 259.977 51.2307H257.785Z" fill="#FF7474"/>
</g>
<defs>
<filter id="filter0_d" x="0" y="0" width="439" height="198" filterUnits="userSpaceOnUse" color-interpolation-filters="sRGB">
<feFlood flood-opacity="0" result="BackgroundImageFix"/>
<feColorMatrix in="SourceAlpha" type="matrix" values="0 0 0 0 0 0 0 0 0 0 0 0 0 0 0 0 0 0 127 0" result="hardAlpha"/>
<feOffset dy="10"/>
<feGaussianBlur stdDeviation="22"/>
<feColorMatrix type="matrix" values="0 0 0 0 0.341667 0 0 0 0 0.341667 0 0 0 0 0.341667 0 0 0 0.18 0"/>
<feBlend mode="normal" in2="BackgroundImageFix" result="effect1_dropShadow"/>
<feBlend mode="normal" in="SourceGraphic" in2="effect1_dropShadow" result="shape"/>
</filter>
</defs>
</svg>
