<svg width="438" height="198" viewBox="0 0 438 198" fill="none" xmlns="http://www.w3.org/2000/svg">
<g filter="url(#filter0_d)">
<rect x="44" y="34" width="350" height="110" rx="8" fill="white"/>
<path d="M69.494 51.184V53.362H62.474V56.386H68.828V58.474H62.474V61.822H69.458V64H60.044V51.184H69.494ZM77.5124 55.99V54.712H79.7084V63.694C79.7084 64.954 79.3064 65.944 78.5024 66.664C77.7104 67.384 76.5824 67.744 75.1184 67.744C73.8224 67.744 72.8024 67.456 72.0584 66.88C71.3264 66.304 70.9244 65.512 70.8524 64.504H73.0844C73.1924 65.5 73.8824 65.998 75.1544 65.998C75.8984 65.998 76.4624 65.806 76.8464 65.422C77.2424 65.038 77.4404 64.48 77.4404 63.748V62.578C76.7684 63.502 75.8204 63.964 74.5964 63.964C73.3364 63.964 72.3224 63.526 71.5544 62.65C70.7864 61.798 70.4024 60.658 70.4024 59.23C70.4024 57.79 70.7864 56.644 71.5544 55.792C72.3104 54.928 73.3184 54.496 74.5784 54.496C75.8864 54.496 76.8644 54.994 77.5124 55.99ZM75.1004 62.092C75.8564 62.092 76.4444 61.84 76.8644 61.336C77.2844 60.832 77.4944 60.13 77.4944 59.23C77.4944 58.33 77.2844 57.628 76.8644 57.124C76.4444 56.62 75.8564 56.368 75.1004 56.368C74.3684 56.368 73.7864 56.626 73.3544 57.142C72.9344 57.646 72.7244 58.348 72.7244 59.248C72.7244 60.136 72.9344 60.832 73.3544 61.336C73.7864 61.84 74.3684 62.092 75.1004 62.092ZM88.2351 55.99V54.712H90.4311V63.694C90.4311 64.954 90.0291 65.944 89.2251 66.664C88.4331 67.384 87.3051 67.744 85.8411 67.744C84.5451 67.744 83.5251 67.456 82.7811 66.88C82.0491 66.304 81.6471 65.512 81.5751 64.504H83.8071C83.9151 65.5 84.6051 65.998 85.8771 65.998C86.6211 65.998 87.1851 65.806 87.5691 65.422C87.9651 65.038 88.1631 64.48 88.1631 63.748V62.578C87.4911 63.502 86.5431 63.964 85.3191 63.964C84.0591 63.964 83.0451 63.526 82.2771 62.65C81.5091 61.798 81.1251 60.658 81.1251 59.23C81.1251 57.79 81.5091 56.644 82.2771 55.792C83.0331 54.928 84.0411 54.496 85.3011 54.496C86.6091 54.496 87.5871 54.994 88.2351 55.99ZM85.8231 62.092C86.5791 62.092 87.1671 61.84 87.5871 61.336C88.0071 60.832 88.2171 60.13 88.2171 59.23C88.2171 58.33 88.0071 57.628 87.5871 57.124C87.1671 56.62 86.5791 56.368 85.8231 56.368C85.0911 56.368 84.5091 56.626 84.0771 57.142C83.6571 57.646 83.4471 58.348 83.4471 59.248C83.4471 60.136 83.6571 60.832 84.0771 61.336C84.5091 61.84 85.0911 62.092 85.8231 62.092ZM95.9158 64.252C93.2038 64.252 91.7878 63.184 91.6678 61.048H93.8818C93.9418 61.624 94.1278 62.032 94.4398 62.272C94.7638 62.512 95.2678 62.632 95.9518 62.632C97.1758 62.632 97.7878 62.26 97.7878 61.516C97.7878 61.18 97.6558 60.922 97.3918 60.742C97.1278 60.562 96.6538 60.412 95.9697 60.292L94.9078 60.112C92.8798 59.776 91.8658 58.84 91.8658 57.304C91.8658 56.428 92.2018 55.744 92.8738 55.252C93.5458 54.748 94.4938 54.496 95.7178 54.496C98.3698 54.496 99.7378 55.546 99.8218 57.646H97.6798C97.6558 57.094 97.4818 56.704 97.1578 56.476C96.8338 56.236 96.3538 56.116 95.7178 56.116C94.6378 56.116 94.0978 56.476 94.0978 57.196C94.0978 57.508 94.2178 57.754 94.4578 57.934C94.6978 58.102 95.0938 58.234 95.6458 58.33L96.8158 58.51C97.9438 58.714 98.7598 59.038 99.2638 59.482C99.7798 59.926 100.038 60.544 100.038 61.336C100.038 62.272 99.6778 62.992 98.9578 63.496C98.2378 64 97.2238 64.252 95.9158 64.252ZM115.299 60.598L115.407 62.506C115.419 63.118 115.551 63.616 115.803 64H113.301C113.085 63.64 112.971 63.13 112.959 62.47L112.905 61.066C112.869 60.286 112.689 59.746 112.365 59.446C112.053 59.134 111.549 58.978 110.853 58.978H107.685V64H105.255V51.184H111.069C112.497 51.184 113.607 51.508 114.399 52.156C115.191 52.804 115.587 53.686 115.587 54.802C115.587 56.338 114.873 57.358 113.445 57.862C114.093 58.066 114.555 58.39 114.831 58.834C115.119 59.266 115.275 59.854 115.299 60.598ZM107.685 53.182V57.07H110.925C111.609 57.07 112.137 56.902 112.509 56.566C112.893 56.218 113.085 55.72 113.085 55.072C113.085 54.46 112.887 53.992 112.491 53.668C112.107 53.344 111.555 53.182 110.835 53.182H107.685ZM126.118 59.356C126.118 60.82 125.686 61.996 124.822 62.884C123.958 63.772 122.818 64.216 121.402 64.216C119.986 64.216 118.846 63.772 117.982 62.884C117.106 62.008 116.668 60.832 116.668 59.356C116.668 57.88 117.106 56.704 117.982 55.828C118.846 54.94 119.986 54.496 121.402 54.496C122.818 54.496 123.958 54.934 124.822 55.81C125.686 56.686 126.118 57.868 126.118 59.356ZM119.62 61.57C120.052 62.086 120.646 62.344 121.402 62.344C122.158 62.344 122.746 62.086 123.166 61.57C123.598 61.042 123.814 60.304 123.814 59.356C123.814 58.408 123.598 57.676 123.166 57.16C122.746 56.632 122.158 56.368 121.402 56.368C120.646 56.368 120.052 56.626 119.62 57.142C119.2 57.658 118.99 58.396 118.99 59.356C118.99 60.316 119.2 61.054 119.62 61.57ZM132.376 57.052L133.132 54.712H135.508L131.926 64.756C131.542 65.812 131.062 66.538 130.486 66.934C129.898 67.342 129.046 67.546 127.93 67.546C127.558 67.546 127.228 67.528 126.94 67.492V65.71H127.804C128.296 65.71 128.674 65.572 128.938 65.296C129.202 65.02 129.334 64.66 129.334 64.216C129.334 63.772 129.19 63.148 128.902 62.344L126.202 54.712H128.65L129.406 57.034C129.934 58.69 130.426 60.418 130.882 62.218C131.242 60.862 131.74 59.14 132.376 57.052ZM144.366 64H142.098C141.99 63.808 141.906 63.43 141.846 62.866C141.222 63.766 140.226 64.216 138.858 64.216C137.838 64.216 137.022 63.97 136.41 63.478C135.81 62.986 135.51 62.302 135.51 61.426C135.51 59.734 136.698 58.768 139.074 58.528L140.478 58.402C140.946 58.342 141.282 58.234 141.486 58.078C141.69 57.91 141.792 57.664 141.792 57.34C141.792 56.944 141.66 56.656 141.396 56.476C141.144 56.284 140.712 56.188 140.1 56.188C139.44 56.188 138.966 56.302 138.678 56.53C138.39 56.746 138.222 57.124 138.174 57.664H135.942C136.074 55.552 137.466 54.496 140.118 54.496C142.698 54.496 143.988 55.426 143.988 57.286V62.236C143.988 63.052 144.114 63.64 144.366 64ZM139.398 62.596C140.106 62.596 140.682 62.404 141.126 62.02C141.57 61.624 141.792 61.06 141.792 60.328V59.482C141.576 59.674 141.222 59.8 140.73 59.86L139.506 60.004C138.906 60.076 138.474 60.22 138.21 60.436C137.958 60.64 137.832 60.94 137.832 61.336C137.832 61.732 137.964 62.044 138.228 62.272C138.504 62.488 138.894 62.596 139.398 62.596ZM147.932 64H145.664V51.184H147.932V64Z" fill="black"/>
<path d="M341.2 59.41C341.2 60.31 340.792 61.114 339.976 61.822H346.06V64H336.934V62.02C337.582 61.696 338.05 61.342 338.338 60.958C338.638 60.562 338.788 60.082 338.788 59.518C338.788 59.254 338.752 58.996 338.68 58.744H336.646V57.43H338.176C338.176 57.418 338.146 57.352 338.086 57.232C337.546 56.08 337.276 55.162 337.276 54.478C337.276 53.386 337.672 52.516 338.464 51.868C339.232 51.22 340.27 50.896 341.578 50.896C343.018 50.896 344.11 51.25 344.854 51.958C345.598 52.666 346 53.68 346.06 55H343.702C343.666 54.292 343.48 53.764 343.144 53.416C342.808 53.068 342.274 52.894 341.542 52.894C340.966 52.894 340.522 53.038 340.21 53.326C339.898 53.602 339.742 53.986 339.742 54.478C339.742 54.91 339.952 55.594 340.372 56.53C340.468 56.77 340.594 57.07 340.75 57.43H344.422V58.744H341.146C341.182 58.96 341.2 59.182 341.2 59.41ZM350.725 51.184H352.651V64H350.221V55.36H347.269V53.65L347.557 53.632C348.493 53.572 349.207 53.362 349.699 53.002C350.203 52.63 350.545 52.024 350.725 51.184ZM357.125 61.948H363.731V64H354.407L354.461 63.046C354.509 62.062 354.713 61.18 355.073 60.4C355.517 59.428 356.435 58.624 357.827 57.988L359.087 57.34C359.831 56.98 360.359 56.614 360.671 56.242C360.983 55.87 361.139 55.408 361.139 54.856C361.139 54.268 360.953 53.806 360.581 53.47C360.209 53.122 359.693 52.948 359.033 52.948C357.557 52.948 356.819 53.728 356.819 55.288H354.479C354.467 53.908 354.857 52.834 355.649 52.066C356.453 51.286 357.605 50.896 359.105 50.896C360.485 50.896 361.577 51.244 362.381 51.94C363.185 52.636 363.587 53.548 363.587 54.676C363.587 55.648 363.317 56.476 362.777 57.16C362.237 57.832 361.379 58.462 360.203 59.05L359.015 59.68C358.343 60.04 357.869 60.382 357.593 60.706C357.329 61.018 357.173 61.432 357.125 61.948ZM365.006 64V61.426H367.652V64.198C367.652 65.89 366.878 66.766 365.33 66.826H365.006V65.53L365.312 65.512C365.864 65.476 366.14 65.074 366.14 64.306V64H365.006ZM374.005 55.576C375.397 55.576 376.483 55.984 377.263 56.8C378.019 57.616 378.397 58.63 378.397 59.842C378.397 61.174 377.953 62.248 377.065 63.064C376.177 63.88 375.025 64.288 373.609 64.288C372.301 64.288 371.203 63.934 370.315 63.226C369.451 62.53 368.971 61.57 368.875 60.346H371.197C371.281 60.958 371.539 61.444 371.971 61.804C372.415 62.152 372.961 62.326 373.609 62.326C374.341 62.326 374.929 62.098 375.373 61.642C375.829 61.174 376.057 60.574 376.057 59.842C376.057 59.11 375.829 58.516 375.373 58.06C374.929 57.592 374.341 57.358 373.609 57.358C372.529 57.358 371.779 57.79 371.359 58.654H369.127L370.315 51.184H377.731V53.236H372.223L371.665 56.422C372.361 55.858 373.141 55.576 374.005 55.576Z" fill="black"/>
<path d="M67.596 92.038L68.618 88.776H69.822L67.414 96H66.238L65.174 92.654C64.81 91.4687 64.5673 90.652 64.446 90.204C64.2313 90.9693 63.984 91.786 63.704 92.654L62.654 96H61.478L59.07 88.776H60.274L61.296 92.038C61.548 92.8313 61.8093 93.7087 62.08 94.67C62.3787 93.606 62.6353 92.7287 62.85 92.038L63.858 88.776H65.034L66.042 92.038C66.5553 93.746 66.8167 94.614 66.826 94.642C66.9007 94.3527 67.1573 93.4847 67.596 92.038ZM70.0774 96H68.9854L72.5554 86.032H73.6474L70.0774 96ZM77.7281 96.224C76.4307 96.224 75.4181 95.93 74.6901 95.342C73.9621 94.754 73.5934 93.8767 73.5841 92.71H74.8021C74.8301 94.3433 75.8054 95.16 77.7281 95.16C78.5401 95.16 79.1607 95.0013 79.5901 94.684C80.0287 94.3667 80.2481 93.9047 80.2481 93.298C80.2481 92.822 80.0661 92.4533 79.7021 92.192C79.3474 91.9213 78.7221 91.688 77.8261 91.492L76.9441 91.296C75.9361 91.0627 75.1801 90.7267 74.6761 90.288C74.1721 89.84 73.9201 89.2147 73.9201 88.412C73.9201 87.6187 74.2281 86.9887 74.8441 86.522C75.4601 86.046 76.2861 85.808 77.3221 85.808C78.0221 85.808 78.6287 85.892 79.1421 86.06C79.6647 86.228 80.0707 86.466 80.3601 86.774C80.6494 87.0727 80.8594 87.3993 80.9901 87.754C81.1301 88.1087 81.2047 88.5007 81.2141 88.93H80.0101C79.9541 88.2207 79.7207 87.7027 79.3101 87.376C78.9087 87.04 78.2461 86.872 77.3221 86.872C76.6221 86.872 76.0807 87.0073 75.6981 87.278C75.3247 87.5487 75.1381 87.9267 75.1381 88.412C75.1381 88.8973 75.3014 89.2753 75.6281 89.546C75.9454 89.8167 76.5614 90.0547 77.4761 90.26L78.3581 90.456C79.4594 90.6987 80.2527 91.0487 80.7381 91.506C81.2234 91.954 81.4661 92.5513 81.4661 93.298C81.4661 94.2033 81.1347 94.9173 80.4721 95.44C79.8094 95.9627 78.8947 96.224 77.7281 96.224ZM90.2604 88.608C91.0444 88.608 91.651 88.8367 92.0804 89.294C92.519 89.742 92.7384 90.344 92.7384 91.1V96H91.6184V91.212C91.6184 90.148 91.1144 89.616 90.1064 89.616C89.5744 89.616 89.131 89.8307 88.7764 90.26C88.431 90.68 88.2584 91.2773 88.2584 92.052V96H87.1384V91.212C87.1384 90.148 86.6344 89.616 85.6264 89.616C85.1037 89.616 84.665 89.8307 84.3104 90.26C83.9557 90.68 83.7784 91.2773 83.7784 92.052V96H82.6584V88.776H83.7224V89.84C84.1984 89.0187 84.8937 88.608 85.8084 88.608C86.891 88.608 87.633 89.0607 88.0344 89.966C88.5384 89.0607 89.2804 88.608 90.2604 88.608ZM100.086 95.132C99.4235 95.8227 98.5835 96.168 97.5662 96.168C96.5488 96.168 95.7088 95.8227 95.0462 95.132C94.3928 94.4507 94.0662 93.536 94.0662 92.388C94.0662 91.24 94.3928 90.3253 95.0462 89.644C95.7088 88.9533 96.5488 88.608 97.5662 88.608C98.5835 88.608 99.4235 88.9533 100.086 89.644C100.74 90.3253 101.066 91.24 101.066 92.388C101.066 93.536 100.74 94.4507 100.086 95.132ZM95.8722 94.418C96.2922 94.9127 96.8568 95.16 97.5662 95.16C98.2755 95.16 98.8402 94.9127 99.2602 94.418C99.6802 93.9327 99.8902 93.256 99.8902 92.388C99.8902 91.5107 99.6802 90.8293 99.2602 90.344C98.8402 89.8587 98.2755 89.616 97.5662 89.616C96.8568 89.616 96.2922 89.8587 95.8722 90.344C95.4522 90.8293 95.2422 91.5107 95.2422 92.388C95.2422 93.256 95.4522 93.9327 95.8722 94.418ZM108.547 96H107.245L104.809 92.122L103.521 93.326V96H102.401V86.032H103.521V92.01L106.867 88.776H108.351L105.607 91.38L108.547 96ZM115.263 92.388V92.78H109.775C109.831 93.564 110.05 94.1567 110.433 94.558C110.816 94.95 111.338 95.146 112.001 95.146C113 95.146 113.639 94.698 113.919 93.802H115.081C114.885 94.53 114.521 95.1087 113.989 95.538C113.457 95.958 112.785 96.168 111.973 96.168C110.974 96.168 110.167 95.8273 109.551 95.146C108.926 94.4647 108.613 93.5453 108.613 92.388C108.613 91.2493 108.921 90.3347 109.537 89.644C110.144 88.9533 110.946 88.608 111.945 88.608C112.981 88.608 113.793 88.9673 114.381 89.686C114.969 90.4047 115.263 91.3053 115.263 92.388ZM111.945 89.63C111.357 89.63 110.876 89.8167 110.503 90.19C110.13 90.554 109.896 91.0813 109.803 91.772H114.059C114.003 91.1373 113.788 90.624 113.415 90.232C113.042 89.8307 112.552 89.63 111.945 89.63ZM122.024 89.812V86.032H123.144V96H122.08V94.88C121.501 95.7387 120.675 96.168 119.602 96.168C118.585 96.168 117.773 95.8227 117.166 95.132C116.55 94.4413 116.242 93.5267 116.242 92.388C116.242 91.2307 116.55 90.3113 117.166 89.63C117.763 88.9487 118.575 88.608 119.602 88.608C120.638 88.608 121.445 89.0093 122.024 89.812ZM117.418 92.444C117.418 93.3027 117.628 93.97 118.048 94.446C118.468 94.922 119.033 95.16 119.742 95.16C120.451 95.16 121.016 94.9127 121.436 94.418C121.856 93.9327 122.066 93.256 122.066 92.388C122.066 91.5293 121.856 90.8527 121.436 90.358C121.016 89.8633 120.451 89.616 119.742 89.616C119.042 89.616 118.477 89.8727 118.048 90.386C117.628 90.89 117.418 91.576 117.418 92.444ZM131.212 96.224C129.915 96.224 128.902 95.93 128.174 95.342C127.446 94.754 127.078 93.8767 127.068 92.71H128.286C128.314 94.3433 129.29 95.16 131.212 95.16C132.024 95.16 132.645 95.0013 133.074 94.684C133.513 94.3667 133.732 93.9047 133.732 93.298C133.732 92.822 133.55 92.4533 133.186 92.192C132.832 91.9213 132.206 91.688 131.31 91.492L130.428 91.296C129.42 91.0627 128.664 90.7267 128.16 90.288C127.656 89.84 127.404 89.2147 127.404 88.412C127.404 87.6187 127.712 86.9887 128.328 86.522C128.944 86.046 129.77 85.808 130.806 85.808C131.506 85.808 132.113 85.892 132.626 86.06C133.149 86.228 133.555 86.466 133.844 86.774C134.134 87.0727 134.344 87.3993 134.474 87.754C134.614 88.1087 134.689 88.5007 134.698 88.93H133.494C133.438 88.2207 133.205 87.7027 132.794 87.376C132.393 87.04 131.73 86.872 130.806 86.872C130.106 86.872 129.565 87.0073 129.182 87.278C128.809 87.5487 128.622 87.9267 128.622 88.412C128.622 88.8973 128.786 89.2753 129.112 89.546C129.43 89.8167 130.046 90.0547 130.96 90.26L131.842 90.456C132.944 90.6987 133.737 91.0487 134.222 91.506C134.708 91.954 134.95 92.5513 134.95 93.298C134.95 94.2033 134.619 94.9173 133.956 95.44C133.294 95.9627 132.379 96.224 131.212 96.224ZM142.119 95.09H142.525V96C142.338 96.028 142.133 96.042 141.909 96.042C141.153 96.042 140.747 95.6967 140.691 95.006C140.187 95.7807 139.403 96.168 138.339 96.168C137.546 96.168 136.92 95.986 136.463 95.622C136.015 95.2487 135.791 94.726 135.791 94.054C135.791 92.7473 136.682 92.0007 138.465 91.814L139.501 91.702C140.257 91.618 140.635 91.2867 140.635 90.708C140.635 90.3067 140.509 90.0173 140.257 89.84C140.014 89.6627 139.599 89.574 139.011 89.574C138.386 89.574 137.933 89.6813 137.653 89.896C137.382 90.1013 137.228 90.47 137.191 91.002H136.071C136.164 89.406 137.144 88.608 139.011 88.608C140.822 88.608 141.727 89.308 141.727 90.708V94.74C141.727 94.9733 141.858 95.09 142.119 95.09ZM138.395 95.216C138.992 95.216 139.515 95.034 139.963 94.67C140.411 94.3153 140.635 93.8067 140.635 93.144V92.29C140.43 92.4487 140.112 92.5513 139.683 92.598L138.633 92.724C138.026 92.7987 137.592 92.9387 137.331 93.144C137.079 93.3493 136.953 93.6433 136.953 94.026C136.953 94.3993 137.074 94.6933 137.317 94.908C137.56 95.1133 137.919 95.216 138.395 95.216ZM144.564 96H143.444V86.032H144.564V96ZM153.848 88.608C154.632 88.608 155.239 88.8367 155.668 89.294C156.107 89.742 156.326 90.344 156.326 91.1V96H155.206V91.212C155.206 90.148 154.702 89.616 153.694 89.616C153.162 89.616 152.719 89.8307 152.364 90.26C152.019 90.68 151.846 91.2773 151.846 92.052V96H150.726V91.212C150.726 90.148 150.222 89.616 149.214 89.616C148.692 89.616 148.253 89.8307 147.898 90.26C147.544 90.68 147.366 91.2773 147.366 92.052V96H146.246V88.776H147.31V89.84C147.786 89.0187 148.482 88.608 149.396 88.608C150.479 88.608 151.221 89.0607 151.622 89.966C152.126 89.0607 152.868 88.608 153.848 88.608ZM163.674 95.132C163.011 95.8227 162.171 96.168 161.154 96.168C160.137 96.168 159.297 95.8227 158.634 95.132C157.981 94.4507 157.654 93.536 157.654 92.388C157.654 91.24 157.981 90.3253 158.634 89.644C159.297 88.9533 160.137 88.608 161.154 88.608C162.171 88.608 163.011 88.9533 163.674 89.644C164.327 90.3253 164.654 91.24 164.654 92.388C164.654 93.536 164.327 94.4507 163.674 95.132ZM159.46 94.418C159.88 94.9127 160.445 95.16 161.154 95.16C161.863 95.16 162.428 94.9127 162.848 94.418C163.268 93.9327 163.478 93.256 163.478 92.388C163.478 91.5107 163.268 90.8293 162.848 90.344C162.428 89.8587 161.863 89.616 161.154 89.616C160.445 89.616 159.88 89.8587 159.46 90.344C159.04 90.8293 158.83 91.5107 158.83 92.388C158.83 93.256 159.04 93.9327 159.46 94.418ZM169.32 88.608C170.123 88.608 170.748 88.8273 171.196 89.266C171.644 89.7047 171.868 90.3207 171.868 91.114V96H170.748V91.226C170.748 90.1527 170.198 89.616 169.096 89.616C168.574 89.616 168.112 89.812 167.71 90.204C167.309 90.596 167.108 91.1653 167.108 91.912V96H165.988V88.776H167.052V89.854C167.603 89.0233 168.359 88.608 169.32 88.608ZM173.339 96V94.6H174.753V96.126C174.753 97.246 174.328 97.848 173.479 97.932L173.339 97.946V97.19L173.437 97.176C173.782 97.1387 173.955 96.8213 173.955 96.224V96H173.339ZM184.803 95.09H185.209V96C185.022 96.028 184.817 96.042 184.593 96.042C183.837 96.042 183.431 95.6967 183.375 95.006C182.871 95.7807 182.087 96.168 181.023 96.168C180.229 96.168 179.604 95.986 179.147 95.622C178.699 95.2487 178.475 94.726 178.475 94.054C178.475 92.7473 179.366 92.0007 181.149 91.814L182.185 91.702C182.941 91.618 183.319 91.2867 183.319 90.708C183.319 90.3067 183.193 90.0173 182.941 89.84C182.698 89.6627 182.283 89.574 181.695 89.574C181.069 89.574 180.617 89.6813 180.337 89.896C180.066 90.1013 179.912 90.47 179.875 91.002H178.755C178.848 89.406 179.828 88.608 181.695 88.608C183.505 88.608 184.411 89.308 184.411 90.708V94.74C184.411 94.9733 184.541 95.09 184.803 95.09ZM181.079 95.216C181.676 95.216 182.199 95.034 182.647 94.67C183.095 94.3153 183.319 93.8067 183.319 93.144V92.29C183.113 92.4487 182.796 92.5513 182.367 92.598L181.317 92.724C180.71 92.7987 180.276 92.9387 180.015 93.144C179.763 93.3493 179.637 93.6433 179.637 94.026C179.637 94.3993 179.758 94.6933 180.001 94.908C180.243 95.1133 180.603 95.216 181.079 95.216ZM189.522 91.982L190.712 88.776H191.916L189.074 96H187.898L185.07 88.776H186.288L187.478 91.996C188.066 93.5733 188.407 94.5067 188.5 94.796C188.668 94.3013 189.009 93.3633 189.522 91.982ZM198.073 95.132C197.41 95.8227 196.57 96.168 195.553 96.168C194.535 96.168 193.695 95.8227 193.033 95.132C192.379 94.4507 192.053 93.536 192.053 92.388C192.053 91.24 192.379 90.3253 193.033 89.644C193.695 88.9533 194.535 88.608 195.553 88.608C196.57 88.608 197.41 88.9533 198.073 89.644C198.726 90.3253 199.053 91.24 199.053 92.388C199.053 93.536 198.726 94.4507 198.073 95.132ZM193.859 94.418C194.279 94.9127 194.843 95.16 195.553 95.16C196.262 95.16 196.827 94.9127 197.247 94.418C197.667 93.9327 197.877 93.256 197.877 92.388C197.877 91.5107 197.667 90.8293 197.247 90.344C196.827 89.8587 196.262 89.616 195.553 89.616C194.843 89.616 194.279 89.8587 193.859 90.344C193.439 90.8293 193.229 91.5107 193.229 92.388C193.229 93.256 193.439 93.9327 193.859 94.418ZM203.383 96.168C202.384 96.168 201.577 95.8227 200.961 95.132C200.345 94.4413 200.037 93.5267 200.037 92.388C200.037 91.2307 200.345 90.3113 200.961 89.63C201.558 88.9487 202.366 88.608 203.383 88.608C204.242 88.608 204.946 88.8413 205.497 89.308C206.048 89.7747 206.379 90.414 206.491 91.226H205.329C205.245 90.7127 205.021 90.316 204.657 90.036C204.302 89.756 203.878 89.616 203.383 89.616C202.72 89.616 202.193 89.8587 201.801 90.344C201.409 90.82 201.213 91.5013 201.213 92.388C201.213 93.2653 201.409 93.9467 201.801 94.432C202.202 94.9173 202.73 95.16 203.383 95.16C203.878 95.16 204.307 95.0153 204.671 94.726C205.035 94.4367 205.259 94.0353 205.343 93.522H206.491C206.37 94.334 206.024 94.978 205.455 95.454C204.895 95.93 204.204 96.168 203.383 96.168ZM213.596 95.09H214.002V96C213.815 96.028 213.61 96.042 213.386 96.042C212.63 96.042 212.224 95.6967 212.168 95.006C211.664 95.7807 210.88 96.168 209.816 96.168C209.022 96.168 208.397 95.986 207.94 95.622C207.492 95.2487 207.268 94.726 207.268 94.054C207.268 92.7473 208.159 92.0007 209.942 91.814L210.978 91.702C211.734 91.618 212.112 91.2867 212.112 90.708C212.112 90.3067 211.986 90.0173 211.734 89.84C211.491 89.6627 211.076 89.574 210.488 89.574C209.862 89.574 209.41 89.6813 209.13 89.896C208.859 90.1013 208.705 90.47 208.668 91.002H207.548C207.641 89.406 208.621 88.608 210.488 88.608C212.298 88.608 213.204 89.308 213.204 90.708V94.74C213.204 94.9733 213.334 95.09 213.596 95.09ZM209.872 95.216C210.469 95.216 210.992 95.034 211.44 94.67C211.888 94.3153 212.112 93.8067 212.112 93.144V92.29C211.906 92.4487 211.589 92.5513 211.16 92.598L210.11 92.724C209.503 92.7987 209.069 92.9387 208.808 93.144C208.556 93.3493 208.43 93.6433 208.43 94.026C208.43 94.3993 208.551 94.6933 208.794 94.908C209.036 95.1133 209.396 95.216 209.872 95.216ZM220.352 89.812V86.032H221.472V96H220.408V94.88C219.829 95.7387 219.003 96.168 217.93 96.168C216.913 96.168 216.101 95.8227 215.494 95.132C214.878 94.4413 214.57 93.5267 214.57 92.388C214.57 91.2307 214.878 90.3113 215.494 89.63C216.091 88.9487 216.903 88.608 217.93 88.608C218.966 88.608 219.773 89.0093 220.352 89.812ZM215.746 92.444C215.746 93.3027 215.956 93.97 216.376 94.446C216.796 94.922 217.361 95.16 218.07 95.16C218.779 95.16 219.344 94.9127 219.764 94.418C220.184 93.9327 220.394 93.256 220.394 92.388C220.394 91.5293 220.184 90.8527 219.764 90.358C219.344 89.8633 218.779 89.616 218.07 89.616C217.37 89.616 216.805 89.8727 216.376 90.386C215.956 90.89 215.746 91.576 215.746 92.444ZM228.821 95.132C228.158 95.8227 227.318 96.168 226.301 96.168C225.283 96.168 224.443 95.8227 223.781 95.132C223.127 94.4507 222.801 93.536 222.801 92.388C222.801 91.24 223.127 90.3253 223.781 89.644C224.443 88.9533 225.283 88.608 226.301 88.608C227.318 88.608 228.158 88.9533 228.821 89.644C229.474 90.3253 229.801 91.24 229.801 92.388C229.801 93.536 229.474 94.4507 228.821 95.132ZM224.607 94.418C225.027 94.9127 225.591 95.16 226.301 95.16C227.01 95.16 227.575 94.9127 227.995 94.418C228.415 93.9327 228.625 93.256 228.625 92.388C228.625 91.5107 228.415 90.8293 227.995 90.344C227.575 89.8587 227.01 89.616 226.301 89.616C225.591 89.616 225.027 89.8587 224.607 90.344C224.187 90.8293 223.977 91.5107 223.977 92.388C223.977 93.256 224.187 93.9327 224.607 94.418ZM240.241 93.844L242.173 96H240.661L239.611 94.824C238.818 95.7573 237.744 96.224 236.391 96.224C235.476 96.224 234.748 95.9533 234.207 95.412C233.656 94.88 233.381 94.2267 233.381 93.452C233.381 92.7987 233.558 92.248 233.913 91.8C234.277 91.352 234.874 90.8947 235.705 90.428C235.276 89.9427 234.968 89.5133 234.781 89.14C234.604 88.7667 234.515 88.3887 234.515 88.006C234.515 87.3993 234.739 86.8767 235.187 86.438C235.626 86.018 236.218 85.808 236.965 85.808C237.628 85.808 238.202 85.9993 238.687 86.382C239.163 86.7647 239.401 87.292 239.401 87.964C239.401 88.9533 238.72 89.84 237.357 90.624L239.429 92.934C239.616 92.3927 239.709 91.8093 239.709 91.184H240.843C240.815 92.1827 240.614 93.0693 240.241 93.844ZM236.951 86.816C236.578 86.816 236.274 86.928 236.041 87.152C235.808 87.3667 235.691 87.6513 235.691 88.006C235.691 88.5007 236.027 89.126 236.699 89.882C237.231 89.5927 237.618 89.2987 237.861 89C238.104 88.7013 238.225 88.37 238.225 88.006C238.225 87.6607 238.104 87.376 237.861 87.152C237.618 86.928 237.315 86.816 236.951 86.816ZM236.461 95.16C237.497 95.16 238.3 94.768 238.869 93.984L236.363 91.17C235.719 91.5153 235.257 91.8513 234.977 92.178C234.706 92.5047 234.571 92.9107 234.571 93.396C234.571 93.8907 234.744 94.3107 235.089 94.656C235.434 94.992 235.892 95.16 236.461 95.16ZM248.23 96.168C246.298 96.168 245.276 95.3467 245.164 93.704H246.298C246.363 94.2453 246.54 94.6327 246.83 94.866C247.128 95.09 247.595 95.202 248.23 95.202C249.387 95.202 249.966 94.8287 249.966 94.082C249.966 93.7553 249.844 93.508 249.602 93.34C249.368 93.172 248.939 93.0273 248.314 92.906L247.642 92.78C246.139 92.5 245.388 91.7907 245.388 90.652C245.388 90.0267 245.621 89.532 246.088 89.168C246.564 88.7947 247.208 88.608 248.02 88.608C249.933 88.608 250.913 89.406 250.96 91.002H249.84C249.812 90.4793 249.653 90.1107 249.364 89.896C249.074 89.6813 248.626 89.574 248.02 89.574C247.534 89.574 247.161 89.6673 246.9 89.854C246.638 90.0407 246.508 90.302 246.508 90.638C246.508 90.9553 246.62 91.1933 246.844 91.352C247.068 91.5107 247.441 91.646 247.964 91.758L248.608 91.884C249.494 92.0613 250.129 92.3133 250.512 92.64C250.904 92.9667 251.1 93.424 251.1 94.012C251.1 94.6933 250.843 95.2253 250.33 95.608C249.826 95.9813 249.126 96.168 248.23 96.168ZM255.759 88.608C256.776 88.608 257.593 88.9487 258.209 89.63C258.816 90.3207 259.119 91.24 259.119 92.388C259.119 93.5267 258.816 94.4413 258.209 95.132C257.593 95.8227 256.776 96.168 255.759 96.168C254.723 96.168 253.916 95.7667 253.337 94.964V98.744H252.217V88.776H253.281V89.896C253.86 89.0373 254.686 88.608 255.759 88.608ZM255.619 95.16C256.319 95.16 256.879 94.908 257.299 94.404C257.728 93.8907 257.943 93.2 257.943 92.332C257.943 91.4827 257.733 90.82 257.313 90.344C256.902 89.8587 256.338 89.616 255.619 89.616C254.91 89.616 254.345 89.8587 253.925 90.344C253.505 90.8293 253.295 91.5107 253.295 92.388C253.295 93.256 253.505 93.9327 253.925 94.418C254.345 94.9127 254.91 95.16 255.619 95.16ZM261.595 87.684H260.405V86.312H261.595V87.684ZM261.567 96H260.447V88.776H261.567V96ZM266.582 88.608C267.385 88.608 268.01 88.8273 268.458 89.266C268.906 89.7047 269.13 90.3207 269.13 91.114V96H268.01V91.226C268.01 90.1527 267.459 89.616 266.358 89.616C265.835 89.616 265.373 89.812 264.972 90.204C264.571 90.596 264.37 91.1653 264.37 91.912V96H263.25V88.776H264.314V89.854C264.865 89.0233 265.621 88.608 266.582 88.608ZM276.719 95.09H277.125V96C276.938 96.028 276.733 96.042 276.509 96.042C275.753 96.042 275.347 95.6967 275.291 95.006C274.787 95.7807 274.003 96.168 272.939 96.168C272.145 96.168 271.52 95.986 271.063 95.622C270.615 95.2487 270.391 94.726 270.391 94.054C270.391 92.7473 271.282 92.0007 273.065 91.814L274.101 91.702C274.857 91.618 275.235 91.2867 275.235 90.708C275.235 90.3067 275.109 90.0173 274.857 89.84C274.614 89.6627 274.199 89.574 273.611 89.574C272.985 89.574 272.533 89.6813 272.253 89.896C271.982 90.1013 271.828 90.47 271.791 91.002H270.671C270.764 89.406 271.744 88.608 273.611 88.608C275.421 88.608 276.327 89.308 276.327 90.708V94.74C276.327 94.9733 276.457 95.09 276.719 95.09ZM272.995 95.216C273.592 95.216 274.115 95.034 274.563 94.67C275.011 94.3153 275.235 93.8067 275.235 93.144V92.29C275.029 92.4487 274.712 92.5513 274.283 92.598L273.233 92.724C272.626 92.7987 272.192 92.9387 271.931 93.144C271.679 93.3493 271.553 93.6433 271.553 94.026C271.553 94.3993 271.674 94.6933 271.917 94.908C272.159 95.1133 272.519 95.216 272.995 95.216ZM281.039 96.168C280.04 96.168 279.233 95.8227 278.617 95.132C278.001 94.4413 277.693 93.5267 277.693 92.388C277.693 91.2307 278.001 90.3113 278.617 89.63C279.214 88.9487 280.022 88.608 281.039 88.608C281.898 88.608 282.602 88.8413 283.153 89.308C283.704 89.7747 284.035 90.414 284.147 91.226H282.985C282.901 90.7127 282.677 90.316 282.313 90.036C281.958 89.756 281.534 89.616 281.039 89.616C280.376 89.616 279.849 89.8587 279.457 90.344C279.065 90.82 278.869 91.5013 278.869 92.388C278.869 93.2653 279.065 93.9467 279.457 94.432C279.858 94.9173 280.386 95.16 281.039 95.16C281.534 95.16 281.963 95.0153 282.327 94.726C282.691 94.4367 282.915 94.0353 282.999 93.522H284.147C284.026 94.334 283.68 94.978 283.111 95.454C282.551 95.93 281.86 96.168 281.039 96.168ZM288.676 88.608C289.479 88.608 290.104 88.8273 290.552 89.266C291 89.7047 291.224 90.3207 291.224 91.114V96H290.104V91.226C290.104 90.1527 289.553 89.616 288.452 89.616C287.929 89.616 287.467 89.812 287.066 90.204C286.665 90.596 286.464 91.1653 286.464 91.912V96H285.344V86.032H286.464V89.77C287.015 88.9953 287.752 88.608 288.676 88.608ZM65.51 116.132C64.8473 116.823 64.0073 117.168 62.99 117.168C61.9727 117.168 61.1327 116.823 60.47 116.132C59.8167 115.451 59.49 114.536 59.49 113.388C59.49 112.24 59.8167 111.325 60.47 110.644C61.1327 109.953 61.9727 109.608 62.99 109.608C64.0073 109.608 64.8473 109.953 65.51 110.644C66.1633 111.325 66.49 112.24 66.49 113.388C66.49 114.536 66.1633 115.451 65.51 116.132ZM61.296 115.418C61.716 115.913 62.2807 116.16 62.99 116.16C63.6993 116.16 64.264 115.913 64.684 115.418C65.104 114.933 65.314 114.256 65.314 113.388C65.314 112.511 65.104 111.829 64.684 111.344C64.264 110.859 63.6993 110.616 62.99 110.616C62.2807 110.616 61.716 110.859 61.296 111.344C60.876 111.829 60.666 112.511 60.666 113.388C60.666 114.256 60.876 114.933 61.296 115.418ZM71.1564 109.608C71.959 109.608 72.5844 109.827 73.0324 110.266C73.4804 110.705 73.7044 111.321 73.7044 112.114V117H72.5844V112.226C72.5844 111.153 72.0337 110.616 70.9324 110.616C70.4097 110.616 69.9477 110.812 69.5464 111.204C69.145 111.596 68.9444 112.165 68.9444 112.912V117H67.8244V109.776H68.8884V110.854C69.439 110.023 70.195 109.608 71.1564 109.608ZM81.5929 109.608C82.6103 109.608 83.4269 109.949 84.0429 110.63C84.6496 111.321 84.9529 112.24 84.9529 113.388C84.9529 114.527 84.6496 115.441 84.0429 116.132C83.4269 116.823 82.6103 117.168 81.5929 117.168C80.5196 117.168 79.6936 116.739 79.1149 115.88V117H78.0509V107.032H79.1709V110.812C79.7496 110.009 80.5569 109.608 81.5929 109.608ZM81.4529 116.16C82.1529 116.16 82.7129 115.908 83.1329 115.404C83.5623 114.891 83.7769 114.2 83.7769 113.332C83.7769 112.483 83.5669 111.82 83.1469 111.344C82.7363 110.859 82.1716 110.616 81.4529 110.616C80.7436 110.616 80.1789 110.859 79.7589 111.344C79.3389 111.829 79.1289 112.511 79.1289 113.388C79.1289 114.256 79.3389 114.933 79.7589 115.418C80.1789 115.913 80.7436 116.16 81.4529 116.16ZM89.6694 109.664C89.8561 109.664 89.9821 109.669 90.0474 109.678V110.756H89.7674C89.0207 110.756 88.4374 110.943 88.0174 111.316C87.6067 111.68 87.4014 112.203 87.4014 112.884V117H86.2814V109.776H87.3454V111.05C87.8307 110.126 88.6054 109.664 89.6694 109.664ZM92.2419 108.684H91.0519V107.312H92.2419V108.684ZM92.2139 117H91.0939V109.776H92.2139V117ZM96.8926 117.168C95.894 117.168 95.0866 116.823 94.4706 116.132C93.8546 115.441 93.5466 114.527 93.5466 113.388C93.5466 112.231 93.8546 111.311 94.4706 110.63C95.068 109.949 95.8753 109.608 96.8926 109.608C97.7513 109.608 98.456 109.841 99.0066 110.308C99.5573 110.775 99.8886 111.414 100.001 112.226H98.8386C98.7546 111.713 98.5306 111.316 98.1666 111.036C97.812 110.756 97.3873 110.616 96.8926 110.616C96.23 110.616 95.7026 110.859 95.3106 111.344C94.9186 111.82 94.7226 112.501 94.7226 113.388C94.7226 114.265 94.9186 114.947 95.3106 115.432C95.712 115.917 96.2393 116.16 96.8926 116.16C97.3873 116.16 97.8166 116.015 98.1806 115.726C98.5446 115.437 98.7686 115.035 98.8526 114.522H100.001C99.8793 115.334 99.534 115.978 98.9646 116.454C98.4046 116.93 97.714 117.168 96.8926 117.168ZM107.343 117H106.041L103.605 113.122L102.317 114.326V117H101.197V107.032H102.317V113.01L105.663 109.776H107.147L104.403 112.38L107.343 117ZM116.588 116.132C115.925 116.823 115.085 117.168 114.068 117.168C113.051 117.168 112.211 116.823 111.548 116.132C110.895 115.451 110.568 114.536 110.568 113.388C110.568 112.24 110.895 111.325 111.548 110.644C112.211 109.953 113.051 109.608 114.068 109.608C115.085 109.608 115.925 109.953 116.588 110.644C117.241 111.325 117.568 112.24 117.568 113.388C117.568 114.536 117.241 115.451 116.588 116.132ZM112.374 115.418C112.794 115.913 113.359 116.16 114.068 116.16C114.777 116.16 115.342 115.913 115.762 115.418C116.182 114.933 116.392 114.256 116.392 113.388C116.392 112.511 116.182 111.829 115.762 111.344C115.342 110.859 114.777 110.616 114.068 110.616C113.359 110.616 112.794 110.859 112.374 111.344C111.954 111.829 111.744 112.511 111.744 113.388C111.744 114.256 111.954 114.933 112.374 115.418ZM122.161 112.982L123.351 109.776H124.555L121.713 117H120.537L117.709 109.776H118.927L120.117 112.996C120.705 114.573 121.045 115.507 121.139 115.796C121.307 115.301 121.647 114.363 122.161 112.982ZM131.341 113.388V113.78H125.853C125.909 114.564 126.129 115.157 126.511 115.558C126.894 115.95 127.417 116.146 128.079 116.146C129.078 116.146 129.717 115.698 129.997 114.802H131.159C130.963 115.53 130.599 116.109 130.067 116.538C129.535 116.958 128.863 117.168 128.051 117.168C127.053 117.168 126.245 116.827 125.629 116.146C125.004 115.465 124.691 114.545 124.691 113.388C124.691 112.249 124.999 111.335 125.615 110.644C126.222 109.953 127.025 109.608 128.023 109.608C129.059 109.608 129.871 109.967 130.459 110.686C131.047 111.405 131.341 112.305 131.341 113.388ZM128.023 110.63C127.435 110.63 126.955 110.817 126.581 111.19C126.208 111.554 125.975 112.081 125.881 112.772H130.137C130.081 112.137 129.867 111.624 129.493 111.232C129.12 110.831 128.63 110.63 128.023 110.63ZM136.002 109.608C136.805 109.608 137.43 109.827 137.878 110.266C138.326 110.705 138.55 111.321 138.55 112.114V117H137.43V112.226C137.43 111.153 136.879 110.616 135.778 110.616C135.255 110.616 134.793 110.812 134.392 111.204C133.991 111.596 133.79 112.165 133.79 112.912V117H132.67V109.776H133.734V110.854C134.285 110.023 135.041 109.608 136.002 109.608ZM145.445 117.168C143.513 117.168 142.491 116.347 142.379 114.704H143.513C143.578 115.245 143.755 115.633 144.045 115.866C144.343 116.09 144.81 116.202 145.445 116.202C146.602 116.202 147.181 115.829 147.181 115.082C147.181 114.755 147.059 114.508 146.817 114.34C146.583 114.172 146.154 114.027 145.529 113.906L144.857 113.78C143.354 113.5 142.603 112.791 142.603 111.652C142.603 111.027 142.836 110.532 143.303 110.168C143.779 109.795 144.423 109.608 145.235 109.608C147.148 109.608 148.128 110.406 148.175 112.002H147.055C147.027 111.479 146.868 111.111 146.579 110.896C146.289 110.681 145.841 110.574 145.235 110.574C144.749 110.574 144.376 110.667 144.115 110.854C143.853 111.041 143.723 111.302 143.723 111.638C143.723 111.955 143.835 112.193 144.059 112.352C144.283 112.511 144.656 112.646 145.179 112.758L145.823 112.884C146.709 113.061 147.344 113.313 147.727 113.64C148.119 113.967 148.315 114.424 148.315 115.012C148.315 115.693 148.058 116.225 147.545 116.608C147.041 116.981 146.341 117.168 145.445 117.168ZM155.102 116.132C154.439 116.823 153.599 117.168 152.582 117.168C151.564 117.168 150.724 116.823 150.062 116.132C149.408 115.451 149.082 114.536 149.082 113.388C149.082 112.24 149.408 111.325 150.062 110.644C150.724 109.953 151.564 109.608 152.582 109.608C153.599 109.608 154.439 109.953 155.102 110.644C155.755 111.325 156.082 112.24 156.082 113.388C156.082 114.536 155.755 115.451 155.102 116.132ZM150.888 115.418C151.308 115.913 151.872 116.16 152.582 116.16C153.291 116.16 153.856 115.913 154.276 115.418C154.696 114.933 154.906 114.256 154.906 113.388C154.906 112.511 154.696 111.829 154.276 111.344C153.856 110.859 153.291 110.616 152.582 110.616C151.872 110.616 151.308 110.859 150.888 111.344C150.468 111.829 150.258 112.511 150.258 113.388C150.258 114.256 150.468 114.933 150.888 115.418ZM161.971 113.864V109.776H163.091V117H162.027V115.922C161.476 116.753 160.72 117.168 159.759 117.168C158.956 117.168 158.331 116.949 157.883 116.51C157.435 116.071 157.211 115.455 157.211 114.662V109.776H158.331V114.55C158.331 115.623 158.882 116.16 159.983 116.16C160.506 116.16 160.968 115.964 161.369 115.572C161.77 115.18 161.971 114.611 161.971 113.864ZM168.16 109.664C168.346 109.664 168.472 109.669 168.538 109.678V110.756H168.258C167.511 110.756 166.928 110.943 166.508 111.316C166.097 111.68 165.892 112.203 165.892 112.884V117H164.772V109.776H165.836V111.05C166.321 110.126 167.096 109.664 168.16 109.664ZM174.592 110.812V107.032H175.712V117H174.648V115.88C174.07 116.739 173.244 117.168 172.17 117.168C171.153 117.168 170.341 116.823 169.734 116.132C169.118 115.441 168.81 114.527 168.81 113.388C168.81 112.231 169.118 111.311 169.734 110.63C170.332 109.949 171.144 109.608 172.17 109.608C173.206 109.608 174.014 110.009 174.592 110.812ZM169.986 113.444C169.986 114.303 170.196 114.97 170.616 115.446C171.036 115.922 171.601 116.16 172.31 116.16C173.02 116.16 173.584 115.913 174.004 115.418C174.424 114.933 174.634 114.256 174.634 113.388C174.634 112.529 174.424 111.853 174.004 111.358C173.584 110.863 173.02 110.616 172.31 110.616C171.61 110.616 171.046 110.873 170.616 111.386C170.196 111.89 169.986 112.576 169.986 113.444ZM183.061 116.132C182.398 116.823 181.558 117.168 180.541 117.168C179.523 117.168 178.683 116.823 178.021 116.132C177.367 115.451 177.041 114.536 177.041 113.388C177.041 112.24 177.367 111.325 178.021 110.644C178.683 109.953 179.523 109.608 180.541 109.608C181.558 109.608 182.398 109.953 183.061 110.644C183.714 111.325 184.041 112.24 184.041 113.388C184.041 114.536 183.714 115.451 183.061 116.132ZM178.847 115.418C179.267 115.913 179.831 116.16 180.541 116.16C181.25 116.16 181.815 115.913 182.235 115.418C182.655 114.933 182.865 114.256 182.865 113.388C182.865 112.511 182.655 111.829 182.235 111.344C181.815 110.859 181.25 110.616 180.541 110.616C179.831 110.616 179.267 110.859 178.847 111.344C178.427 111.829 178.217 112.511 178.217 113.388C178.217 114.256 178.427 114.933 178.847 115.418ZM189.93 113.864V109.776H191.05V117H189.986V115.922C189.435 116.753 188.679 117.168 187.718 117.168C186.915 117.168 186.29 116.949 185.842 116.51C185.394 116.071 185.17 115.455 185.17 114.662V109.776H186.29V114.55C186.29 115.623 186.841 116.16 187.942 116.16C188.465 116.16 188.927 115.964 189.328 115.572C189.729 115.18 189.93 114.611 189.93 113.864ZM198.219 110.826V109.776H199.283V116.72C199.283 117.709 198.993 118.489 198.415 119.058C197.836 119.627 197.005 119.912 195.923 119.912C195.027 119.912 194.308 119.707 193.767 119.296C193.225 118.885 192.917 118.316 192.843 117.588H193.963C194.103 118.503 194.756 118.96 195.923 118.96C197.416 118.96 198.163 118.213 198.163 116.72V116.02C197.593 116.785 196.786 117.168 195.741 117.168C194.723 117.168 193.911 116.823 193.305 116.132C192.689 115.441 192.381 114.527 192.381 113.388C192.381 112.231 192.689 111.311 193.305 110.63C193.902 109.949 194.714 109.608 195.741 109.608C196.814 109.608 197.64 110.014 198.219 110.826ZM195.881 116.16C196.59 116.16 197.155 115.913 197.575 115.418C197.995 114.923 198.205 114.247 198.205 113.388C198.205 112.529 197.995 111.853 197.575 111.358C197.155 110.863 196.59 110.616 195.881 110.616C195.181 110.616 194.616 110.868 194.187 111.372C193.767 111.876 193.557 112.548 193.557 113.388C193.557 114.228 193.767 114.9 194.187 115.404C194.616 115.908 195.181 116.16 195.881 116.16ZM204.293 109.608C205.096 109.608 205.721 109.827 206.169 110.266C206.617 110.705 206.841 111.321 206.841 112.114V117H205.721V112.226C205.721 111.153 205.17 110.616 204.069 110.616C203.546 110.616 203.084 110.812 202.683 111.204C202.282 111.596 202.081 112.165 202.081 112.912V117H200.961V107.032H202.081V110.77C202.632 109.995 203.369 109.608 204.293 109.608ZM218.944 113.038L219.966 109.776H221.17L218.762 117H217.586L216.522 113.654C216.158 112.469 215.915 111.652 215.794 111.204C215.579 111.969 215.332 112.786 215.052 113.654L214.002 117H212.826L210.418 109.776H211.622L212.644 113.038C212.896 113.831 213.157 114.709 213.428 115.67C213.726 114.606 213.983 113.729 214.198 113.038L215.206 109.776H216.382L217.39 113.038C217.903 114.746 218.164 115.614 218.174 115.642C218.248 115.353 218.505 114.485 218.944 113.038ZM223.164 108.684H221.974V107.312H223.164V108.684ZM223.136 117H222.016V109.776H223.136V117ZM227.983 109.776V110.756H226.499V115.446C226.499 115.857 226.774 116.062 227.325 116.062H227.983V117C227.675 117.028 227.409 117.042 227.185 117.042C225.981 117.042 225.379 116.543 225.379 115.544V110.756H224.189V109.776H225.379V107.732H226.499V109.776H227.983ZM232.498 109.608C233.301 109.608 233.926 109.827 234.374 110.266C234.822 110.705 235.046 111.321 235.046 112.114V117H233.926V112.226C233.926 111.153 233.376 110.616 232.274 110.616C231.752 110.616 231.29 110.812 230.888 111.204C230.487 111.596 230.286 112.165 230.286 112.912V117H229.166V107.032H230.286V110.77C230.837 109.995 231.574 109.608 232.498 109.608ZM237.931 117H236.517V115.6H237.931V117ZM240.61 117H239.196V115.6H240.61V117ZM243.29 117H241.876V115.6H243.29V117Z" fill="#8D8D93"/>
<path d="M354 112C354 107.582 357.582 104 362 104H394V136C394 140.418 390.418 144 386 144H354V112Z" fill="#FEE0CC"/>
<path d="M381.375 123.375H374.625V116.625C374.625 116.28 374.345 116 374 116C373.655 116 373.375 116.28 373.375 116.625V123.375H366.625C366.28 123.375 366 123.655 366 124C366 124.345 366.28 124.625 366.625 124.625H373.375V131.375C373.375 131.72 373.655 132 374 132C374.345 132 374.625 131.72 374.625 131.375V124.625H381.375C381.72 124.625 382 124.345 382 124C382 123.655 381.72 123.375 381.375 123.375Z" fill="#5A4335"/>
</g>
<defs>
<filter id="filter0_d" x="0" y="0" width="438" height="198" filterUnits="userSpaceOnUse" color-interpolation-filters="sRGB">
<feFlood flood-opacity="0" result="BackgroundImageFix"/>
<feColorMatrix in="SourceAlpha" type="matrix" values="0 0 0 0 0 0 0 0 0 0 0 0 0 0 0 0 0 0 127 0" result="hardAlpha"/>
<feOffset dy="10"/>
<feGaussianBlur stdDeviation="22"/>
<feColorMatrix type="matrix" values="0 0 0 0 0.341667 0 0 0 0 0.341667 0 0 0 0 0.341667 0 0 0 0.18 0"/>
<feBlend mode="normal" in2="BackgroundImageFix" result="effect1_dropShadow"/>
<feBlend mode="normal" in="SourceGraphic" in2="effect1_dropShadow" result="shape"/>
</filter>
</defs>
</svg>
