<svg width="212" height="128" viewBox="0 0 212 128" fill="none" xmlns="http://www.w3.org/2000/svg">
<g filter="url(#filter0_d)">
<rect x="44" y="34" width="124" height="40" rx="8" fill="#F75151"/>
<path d="M101.19 60.225C99.8 60.225 98.705 59.855 97.905 59.115C97.115 58.365 96.72 57.32 96.72 55.98V49.32H98.745V55.995C98.745 56.805 98.955 57.42 99.375 57.84C99.795 58.26 100.4 58.47 101.19 58.47C101.98 58.47 102.585 58.26 103.005 57.84C103.425 57.42 103.635 56.805 103.635 55.995V49.32H105.66V55.98C105.66 57.34 105.265 58.39 104.475 59.13C103.685 59.86 102.59 60.225 101.19 60.225ZM110.196 60.21C107.936 60.21 106.756 59.32 106.656 57.54H108.501C108.551 58.02 108.706 58.36 108.966 58.56C109.236 58.76 109.656 58.86 110.226 58.86C111.246 58.86 111.756 58.55 111.756 57.93C111.756 57.65 111.646 57.435 111.426 57.285C111.206 57.135 110.811 57.01 110.241 56.91L109.356 56.76C107.666 56.48 106.821 55.7 106.821 54.42C106.821 53.69 107.101 53.12 107.661 52.71C108.221 52.29 109.011 52.08 110.031 52.08C112.241 52.08 113.381 52.955 113.451 54.705H111.666C111.646 54.245 111.501 53.92 111.231 53.73C110.961 53.53 110.561 53.43 110.031 53.43C109.131 53.43 108.681 53.73 108.681 54.33C108.681 54.59 108.781 54.795 108.981 54.945C109.181 55.085 109.511 55.195 109.971 55.275L110.946 55.425C111.886 55.595 112.566 55.865 112.986 56.235C113.416 56.605 113.631 57.12 113.631 57.78C113.631 58.56 113.331 59.16 112.731 59.58C112.131 60 111.286 60.21 110.196 60.21ZM121.941 56.265V56.715H116.151C116.221 57.375 116.426 57.875 116.766 58.215C117.116 58.545 117.581 58.71 118.161 58.71C119.021 58.71 119.611 58.34 119.931 57.6H121.746C121.546 58.39 121.126 59.02 120.486 59.49C119.846 59.95 119.066 60.18 118.146 60.18C116.996 60.18 116.066 59.81 115.356 59.07C114.646 58.33 114.291 57.35 114.291 56.13C114.291 54.91 114.641 53.93 115.341 53.19C116.051 52.45 116.976 52.08 118.116 52.08C119.286 52.08 120.216 52.465 120.906 53.235C121.596 54.005 121.941 55.015 121.941 56.265ZM118.101 53.55C116.991 53.55 116.346 54.165 116.166 55.395H120.051C119.971 54.825 119.761 54.375 119.421 54.045C119.081 53.715 118.641 53.55 118.101 53.55ZM135.234 52.08C136.084 52.08 136.744 52.33 137.214 52.83C137.694 53.33 137.934 54.015 137.934 54.885V60H136.044V55.185C136.044 54.205 135.599 53.715 134.709 53.715C134.229 53.715 133.839 53.89 133.539 54.24C133.249 54.58 133.104 55.08 133.104 55.74V60H131.229V55.185C131.229 54.205 130.779 53.715 129.879 53.715C129.409 53.715 129.024 53.89 128.724 54.24C128.434 54.58 128.289 55.08 128.289 55.74V60H126.399V52.26H128.229V53.37C128.759 52.51 129.494 52.08 130.434 52.08C131.614 52.08 132.414 52.56 132.834 53.52C133.414 52.56 134.214 52.08 135.234 52.08ZM146.77 56.265V56.715H140.98C141.05 57.375 141.255 57.875 141.595 58.215C141.945 58.545 142.41 58.71 142.99 58.71C143.85 58.71 144.44 58.34 144.76 57.6H146.575C146.375 58.39 145.955 59.02 145.315 59.49C144.675 59.95 143.895 60.18 142.975 60.18C141.825 60.18 140.895 59.81 140.185 59.07C139.475 58.33 139.12 57.35 139.12 56.13C139.12 54.91 139.47 53.93 140.17 53.19C140.88 52.45 141.805 52.08 142.945 52.08C144.115 52.08 145.045 52.465 145.735 53.235C146.425 54.005 146.77 55.015 146.77 56.265ZM142.93 53.55C141.82 53.55 141.175 54.165 140.995 55.395H144.88C144.8 54.825 144.59 54.375 144.25 54.045C143.91 53.715 143.47 53.55 142.93 53.55Z" fill="white"/>
<path d="M83.0781 56.1094C82.6902 56.1094 82.375 56.4246 82.375 56.8125C82.375 57.2004 82.6902 57.5156 83.0781 57.5156C83.4661 57.5156 83.7812 57.2004 83.7812 56.8125C83.7812 56.4246 83.4661 56.1094 83.0781 56.1094Z" fill="white"/>
<path d="M87.2969 46.2656H71.0896V48.375C71.0896 48.7636 70.7751 49.0781 70.3865 49.0781C69.9978 49.0781 69.6834 48.7636 69.6834 48.375V46.2656H64.7031C64.3145 46.2656 64 46.5801 64 46.9688V51.1875C64 51.5761 64.3145 51.8906 64.7031 51.8906C65.8663 51.8906 66.8125 52.8368 66.8125 54C66.8125 55.1632 65.8663 56.1094 64.7031 56.1094C64.3145 56.1094 64 56.4239 64 56.8125V61.0312C64 61.4199 64.3145 61.7344 64.7031 61.7344H69.625V59.625C69.625 59.2364 69.9395 58.9219 70.3281 58.9219C70.7168 58.9219 71.0312 59.2364 71.0312 59.625V61.7344H87.2969C87.6855 61.7344 88 61.4199 88 61.0312V46.9688C88 46.5801 87.6855 46.2656 87.2969 46.2656ZM71.0312 56.8125C71.0312 57.2011 70.7168 57.5156 70.3281 57.5156C69.9395 57.5156 69.625 57.2011 69.625 56.8125V55.4062C69.625 55.0176 69.9395 54.7031 70.3281 54.7031C70.7168 54.7031 71.0312 55.0176 71.0312 55.4062V56.8125ZM71.0312 52.5938C71.0312 52.9824 70.7168 53.2969 70.3281 53.2969C69.9395 53.2969 69.625 52.9824 69.625 52.5938V51.1875C69.625 50.7989 69.9395 50.4844 70.3281 50.4844C70.7168 50.4844 71.0312 50.7989 71.0312 51.1875V52.5938ZM75.3438 51.1875C75.3438 50.0243 76.29 49.0781 77.4531 49.0781C78.6163 49.0781 79.5625 50.0243 79.5625 51.1875C79.5625 52.3507 78.6163 53.2969 77.4531 53.2969C76.29 53.2969 75.3438 52.3507 75.3438 51.1875ZM77.0631 58.8038C76.7397 58.5881 76.6525 58.1521 76.8681 57.8287L82.4931 49.3912C82.708 49.0678 83.1441 48.9813 83.4682 49.1962C83.7916 49.4118 83.8788 49.8478 83.6632 50.1713L78.0382 58.6088C77.8261 58.9274 77.3917 59.0215 77.0631 58.8038ZM83.0781 58.9219C81.915 58.9219 80.9688 57.9757 80.9688 56.8125C80.9688 55.6493 81.915 54.7031 83.0781 54.7031C84.2413 54.7031 85.1875 55.6493 85.1875 56.8125C85.1875 57.9757 84.2413 58.9219 83.0781 58.9219Z" fill="white"/>
<path d="M77.4531 50.4844C77.0652 50.4844 76.75 50.7996 76.75 51.1875C76.75 51.5754 77.0652 51.8906 77.4531 51.8906C77.8411 51.8906 78.1562 51.5754 78.1562 51.1875C78.1562 50.7996 77.8411 50.4844 77.4531 50.4844Z" fill="white"/>
</g>
<defs>
<filter id="filter0_d" x="0" y="0" width="212" height="128" filterUnits="userSpaceOnUse" color-interpolation-filters="sRGB">
<feFlood flood-opacity="0" result="BackgroundImageFix"/>
<feColorMatrix in="SourceAlpha" type="matrix" values="0 0 0 0 0 0 0 0 0 0 0 0 0 0 0 0 0 0 127 0" result="hardAlpha"/>
<feOffset dy="10"/>
<feGaussianBlur stdDeviation="22"/>
<feColorMatrix type="matrix" values="0 0 0 0 0.341667 0 0 0 0 0.341667 0 0 0 0 0.341667 0 0 0 0.18 0"/>
<feBlend mode="normal" in2="BackgroundImageFix" result="effect1_dropShadow"/>
<feBlend mode="normal" in="SourceGraphic" in2="effect1_dropShadow" result="shape"/>
</filter>
</defs>
</svg>
