<svg width="390" height="522" viewBox="0 0 390 522" fill="none" xmlns="http://www.w3.org/2000/svg">
<g filter="url(#filter0_d)">
<path d="M44 34L48.4023 39.6364L52.8047 34L56.3265 39.6364L60.7289 34L65.1312 39.6364L69.5335 34L73.9359 39.6364L78.3382 34L82.7405 39.6364L83.621 38.5091L84.5015 37.3818L87.1429 34L91.5452 39.6364L95.9475 34L100.35 39.6364L104.752 34L109.155 39.6364L113.557 34L117.959 39.6364L122.362 34L126.764 39.6364L128.525 37.3818L131.166 34L135.569 39.6364L139.971 34L144.373 39.6364L148.776 34L153.178 39.6364L157.58 34L161.983 39.6364L166.385 34L170.787 39.6364L175.189 34L179.592 39.6364L183.994 34L188.396 39.6364L192.799 34L197.201 39.6364L201.604 34L206.006 39.6364L210.408 34L214.81 39.6364L219.213 34L223.615 39.6364L228.017 34L232.42 39.6364L236.822 34L241.224 39.6364L245.627 34L250.029 39.6364L254.431 34L258.834 39.6364L263.236 34L267.638 39.6364L272.041 34L276.443 39.6364L280.845 34L285.248 39.6364L289.65 34L294.052 39.6364L298.455 34L302.857 39.6364L307.259 34L311.662 39.6364L316.064 34L320.466 39.6364L324.869 34L329.271 39.6364L333.673 34L338.076 39.6364L342.478 34L346 39.6364V464.055L343.359 468L338.956 462.364L334.554 468L330.152 462.364L325.749 468L321.347 462.364L316.945 468L312.542 462.364L308.14 468L303.738 462.364L299.335 468L294.933 462.364L290.531 468L286.128 462.364L281.726 468L277.324 462.364L272.921 468L268.519 462.364L264.117 468L259.714 462.364L255.312 468L250.91 462.364L246.507 468L242.105 462.364L237.703 468L233.3 462.364L228.898 468L224.496 462.364L220.093 468L215.691 462.364L211.289 468L206.886 462.364L202.484 468L198.082 462.364L193.679 468L189.277 462.364L184.875 468L180.472 462.364L176.07 468L171.668 462.364L167.164 468L162.863 462.364L158.461 468L154.058 462.364L149.49 468L145.254 462.364L140.851 468L136.449 462.364L132.047 468L127.644 462.364L123.242 468L118.84 462.364L114.437 468L110.035 462.364L105.633 468L101.23 462.364L96.828 468L92.4257 462.364L88.0233 468L83.621 462.364L79.2187 468L74.8163 462.364L70.414 468L66.0117 462.364L61.6093 468L57.207 462.364L52.8047 468L48.4023 462.364L44 468V34Z" fill="#FFFAE9"/>
</g>
<defs>
<filter id="filter0_d" x="0" y="0" width="390" height="522" filterUnits="userSpaceOnUse" color-interpolation-filters="sRGB">
<feFlood flood-opacity="0" result="BackgroundImageFix"/>
<feColorMatrix in="SourceAlpha" type="matrix" values="0 0 0 0 0 0 0 0 0 0 0 0 0 0 0 0 0 0 127 0" result="hardAlpha"/>
<feOffset dy="10"/>
<feGaussianBlur stdDeviation="22"/>
<feColorMatrix type="matrix" values="0 0 0 0 0.341667 0 0 0 0 0.341667 0 0 0 0 0.341667 0 0 0 0.18 0"/>
<feBlend mode="normal" in2="BackgroundImageFix" result="effect1_dropShadow"/>
<feBlend mode="normal" in="SourceGraphic" in2="effect1_dropShadow" result="shape"/>
</filter>
</defs>
</svg>
