<svg width="134" height="563" viewBox="0 0 134 563" fill="none" xmlns="http://www.w3.org/2000/svg">
<g filter="url(#filter0_d)">
<path d="M44 34L80 34C85.5228 34 90 38.4772 90 44L90 499C90 504.523 85.5228 509 80 509H44L44 34Z" fill="#80D0A4"/>
<path d="M73 170.913L73 173.344L70.331 174.296L70.331 179.6L73 180.535L73 182.898L60.896 178.291L60.896 175.605L73 170.913ZM67.067 178.444L68.376 178.903L68.376 174.993L67.067 175.469C66.0583 175.866 64.6757 176.364 62.919 176.965C64.3243 177.441 65.707 177.934 67.067 178.444ZM73 168.005L73 170.147L60.896 170.147L60.896 168.005L73 168.005ZM73 164.137L73 166.279L60.896 166.279L60.896 164.137L73 164.137ZM65.367 152.485L60.896 152.485L60.896 150.343L73 150.343L73 152.417L71.776 152.417C72.728 153.063 73.204 153.987 73.204 155.188C73.204 156.401 72.7847 157.359 71.946 158.061C71.1073 158.775 69.9967 159.132 68.614 159.132C67.2087 159.132 66.0923 158.775 65.265 158.061C64.4377 157.37 64.024 156.412 64.024 155.188C64.024 154.01 64.4717 153.109 65.367 152.485ZM68.682 156.939C69.5887 156.939 70.2743 156.741 70.739 156.344C71.2037 155.948 71.436 155.398 71.436 154.695C71.436 153.993 71.1923 153.437 70.705 153.029C70.2177 152.633 69.5207 152.434 68.614 152.434C67.7073 152.434 67.0103 152.633 66.523 153.029C66.0357 153.426 65.792 153.981 65.792 154.695C65.792 155.387 66.047 155.936 66.557 156.344C67.067 156.741 67.7753 156.939 68.682 156.939ZM73 140.726L73 142.868C72.8187 142.97 72.4617 143.05 71.929 143.106C72.779 143.696 73.204 144.636 73.204 145.928C73.204 146.892 72.9717 147.662 72.507 148.24C72.0423 148.807 71.3963 149.09 70.569 149.09C68.971 149.09 68.0587 147.968 67.832 145.724L67.713 144.398C67.6563 143.956 67.5543 143.639 67.407 143.446C67.2483 143.254 67.016 143.157 66.71 143.157C66.336 143.157 66.064 143.282 65.894 143.531C65.7127 143.769 65.622 144.177 65.622 144.755C65.622 145.379 65.7297 145.826 65.945 146.098C66.149 146.37 66.506 146.529 67.016 146.574L67.016 148.682C65.0213 148.558 64.024 147.243 64.024 144.738C64.024 142.302 64.9023 141.083 66.659 141.083L71.334 141.083C72.1047 141.083 72.66 140.964 73 140.726ZM71.674 145.418C71.674 144.75 71.4927 144.206 71.13 143.786C70.756 143.367 70.2233 143.157 69.532 143.157L68.733 143.157C68.9143 143.361 69.0333 143.696 69.09 144.16L69.226 145.316C69.294 145.883 69.43 146.291 69.634 146.54C69.8267 146.778 70.11 146.897 70.484 146.897C70.858 146.897 71.1527 146.773 71.368 146.523C71.572 146.263 71.674 145.894 71.674 145.418ZM66.438 134.867L64.228 134.153L64.228 131.909L73.714 135.292C74.7113 135.655 75.397 136.108 75.771 136.652C76.1563 137.207 76.349 138.012 76.349 139.066C76.349 139.417 76.332 139.729 76.298 140.001L74.615 140.001L74.615 139.185C74.615 138.72 74.4847 138.363 74.224 138.114C73.9633 137.865 73.6233 137.74 73.204 137.74C72.7847 137.74 72.1953 137.876 71.436 138.148L64.228 140.698L64.228 138.386L66.421 137.672C67.985 137.173 69.617 136.709 71.317 136.278C70.0363 135.938 68.41 135.468 66.438 134.867ZM64.024 117.318C64.024 116.355 64.3073 115.607 64.874 115.074C65.4407 114.53 66.217 114.258 67.203 114.258L73 114.258L73 116.4L67.543 116.4C66.4323 116.4 65.877 116.905 65.877 117.913C65.877 118.457 66.0753 118.899 66.472 119.239C66.8573 119.568 67.424 119.732 68.172 119.732L73 119.732L73 121.857L67.543 121.857C66.4323 121.857 65.877 122.367 65.877 123.387C65.877 123.92 66.0753 124.356 66.472 124.696C66.8573 125.025 67.424 125.189 68.172 125.189L73 125.189L73 127.331L64.228 127.331L64.228 125.257L65.486 125.257C64.5113 124.657 64.024 123.824 64.024 122.758C64.024 121.421 64.568 120.514 65.656 120.038C64.568 119.381 64.024 118.474 64.024 117.318ZM68.767 104.244L69.277 104.244L69.277 110.806C70.025 110.726 70.5917 110.494 70.977 110.109C71.351 109.712 71.538 109.185 71.538 108.528C71.538 107.553 71.1187 106.884 70.28 106.522L70.28 104.465C71.1753 104.691 71.8893 105.167 72.422 105.893C72.9433 106.618 73.204 107.502 73.204 108.545C73.204 109.848 72.7847 110.902 71.946 111.707C71.1073 112.511 69.9967 112.914 68.614 112.914C67.2313 112.914 66.1207 112.517 65.282 111.724C64.4433 110.919 64.024 109.871 64.024 108.579C64.024 107.253 64.4603 106.199 65.333 105.417C66.2057 104.635 67.3503 104.244 68.767 104.244ZM65.69 108.596C65.69 109.854 66.387 110.585 67.781 110.789L67.781 106.386C67.135 106.476 66.625 106.714 66.251 107.1C65.877 107.485 65.69 107.984 65.69 108.596ZM64.024 98.0495C64.024 97.0975 64.3017 96.3495 64.857 95.8055C65.401 95.2502 66.1773 94.9725 67.186 94.9725L73 94.9725L73 97.1145L67.543 97.1145C66.4323 97.1145 65.877 97.6642 65.877 98.7635C65.877 99.3075 66.0753 99.7722 66.472 100.158C66.8573 100.532 67.3957 100.719 68.087 100.719L73 100.719L73 102.861L64.228 102.861L64.228 100.787L65.486 100.787C64.5113 100.118 64.024 99.2055 64.024 98.0495ZM69.141 87.7513L64.228 87.7513L64.228 85.6093L73 85.6093L73 87.6833L71.725 87.6833C72.711 88.3519 73.204 89.2699 73.204 90.4373C73.204 91.3779 72.932 92.1259 72.388 92.6813C71.8327 93.2253 71.0507 93.4973 70.042 93.4973L64.228 93.4973L64.228 91.3553L69.685 91.3553C70.7957 91.3553 71.351 90.8056 71.351 89.7063C71.351 89.1623 71.1583 88.7033 70.773 88.3293C70.3763 87.9439 69.8323 87.7513 69.141 87.7513Z" fill="white"/>
<path d="M66.625 270.245C66.863 269.576 67.2427 269.061 67.764 268.698C68.2853 268.324 68.8747 268.137 69.532 268.137C70.6313 268.137 71.487 268.5 72.099 269.225C72.6997 269.939 73 270.982 73 272.353L73 278.014L60.896 278.014L60.896 272.54C60.896 271.271 61.185 270.302 61.763 269.633C62.341 268.964 63.0947 268.63 64.024 268.63C65.214 268.63 66.081 269.168 66.625 270.245ZM62.783 272.71L62.783 275.719L65.945 275.719L65.945 272.71C65.945 272.132 65.8033 271.69 65.52 271.384C65.2253 271.067 64.823 270.908 64.313 270.908C63.837 270.908 63.463 271.067 63.191 271.384C62.919 271.701 62.783 272.143 62.783 272.71ZM71.096 275.719L71.096 272.472C71.096 271.826 70.9543 271.333 70.671 270.993C70.3763 270.653 69.9627 270.483 69.43 270.483C68.308 270.483 67.747 271.146 67.747 272.472L67.747 275.719L71.096 275.719ZM64.092 262.169C64.092 261.976 64.1033 261.8 64.126 261.642L66.098 261.642L66.098 262.186C66.098 263.002 66.3077 263.631 66.727 264.073C67.135 264.503 67.7413 264.719 68.546 264.719L73 264.719L73 266.861L64.228 266.861L64.228 264.787L65.792 264.787C64.6587 264.299 64.092 263.427 64.092 262.169ZM69.141 254.823L64.228 254.823L64.228 252.681L73 252.681L73 254.755L71.725 254.755C72.711 255.423 73.204 256.341 73.204 257.509C73.204 258.449 72.932 259.197 72.388 259.753C71.8327 260.297 71.0507 260.569 70.042 260.569L64.228 260.569L64.228 258.427L69.685 258.427C70.7957 258.427 71.351 257.877 71.351 256.778C71.351 256.234 71.1583 255.775 70.773 255.401C70.3763 255.015 69.8323 254.823 69.141 254.823ZM64.024 246.129C64.024 245.177 64.3017 244.429 64.857 243.885C65.401 243.329 66.1773 243.052 67.186 243.052L73 243.052L73 245.194L67.543 245.194C66.4323 245.194 65.877 245.743 65.877 246.843C65.877 247.387 66.0753 247.851 66.472 248.237C66.8573 248.611 67.3957 248.798 68.087 248.798L73 248.798L73 250.94L64.228 250.94L64.228 248.866L65.486 248.866C64.5113 248.197 64.024 247.285 64.024 246.129ZM73.204 237.367C73.204 238.659 72.7847 239.707 71.946 240.512C71.1187 241.305 70.008 241.702 68.614 241.702C67.2087 241.702 66.0923 241.305 65.265 240.512C64.4377 239.73 64.024 238.681 64.024 237.367C64.024 236.222 64.33 235.287 64.942 234.562C65.5427 233.836 66.3587 233.411 67.39 233.287L67.39 235.429C66.88 235.531 66.489 235.752 66.217 236.092C65.945 236.432 65.809 236.857 65.809 237.367C65.809 238.035 66.0527 238.562 66.54 238.948C67.016 239.322 67.7073 239.509 68.614 239.509C69.5207 239.509 70.2177 239.316 70.705 238.931C71.181 238.545 71.419 238.024 71.419 237.367C71.419 236.845 71.2773 236.409 70.994 236.058C70.6993 235.695 70.28 235.474 69.736 235.395L69.736 233.253C70.79 233.366 71.6343 233.797 72.269 234.545C72.8923 235.293 73.204 236.233 73.204 237.367ZM64.024 227.269C64.024 226.317 64.3017 225.569 64.857 225.025C65.401 224.47 66.1773 224.192 67.186 224.192L73 224.192L73 226.334L67.543 226.334C66.4323 226.334 65.877 226.884 65.877 227.983C65.877 228.527 66.0753 228.992 66.472 229.377C66.8573 229.751 67.3957 229.938 68.087 229.938L73 229.938L73 232.08L60.896 232.08L60.896 229.938L65.401 229.938C64.483 229.27 64.024 228.38 64.024 227.269Z" fill="#FEFEFE"/>
<path d="M60.896 363.719L70.943 363.719L70.943 357.956L73 357.956L73 366.014L60.896 366.014L60.896 363.719ZM69.141 351.372L64.228 351.372L64.228 349.23L73 349.23L73 351.304L71.725 351.304C72.711 351.973 73.204 352.891 73.204 354.058C73.204 354.999 72.932 355.747 72.388 356.302C71.8327 356.846 71.0507 357.118 70.042 357.118L64.228 357.118L64.228 354.976L69.685 354.976C70.7957 354.976 71.351 354.427 71.351 353.327C71.351 352.783 71.1583 352.324 70.773 351.95C70.3763 351.565 69.8323 351.372 69.141 351.372ZM64.024 342.678C64.024 341.726 64.3017 340.978 64.857 340.434C65.401 339.879 66.1773 339.601 67.186 339.601L73 339.601L73 341.743L67.543 341.743C66.4323 341.743 65.877 342.293 65.877 343.392C65.877 343.936 66.0753 344.401 66.472 344.786C66.8573 345.16 67.3957 345.347 68.087 345.347L73 345.347L73 347.489L64.228 347.489L64.228 345.415L65.486 345.415C64.5113 344.747 64.024 343.834 64.024 342.678ZM73.204 333.917C73.204 335.209 72.7847 336.257 71.946 337.062C71.1187 337.855 70.008 338.252 68.614 338.252C67.2087 338.252 66.0923 337.855 65.265 337.062C64.4377 336.28 64.024 335.231 64.024 333.917C64.024 332.772 64.33 331.837 64.942 331.112C65.5427 330.386 66.3587 329.961 67.39 329.837L67.39 331.979C66.88 332.081 66.489 332.302 66.217 332.642C65.945 332.982 65.809 333.407 65.809 333.917C65.809 334.585 66.0527 335.112 66.54 335.498C67.016 335.872 67.7073 336.059 68.614 336.059C69.5207 336.059 70.2177 335.866 70.705 335.481C71.181 335.095 71.419 334.574 71.419 333.917C71.419 333.395 71.2773 332.959 70.994 332.608C70.6993 332.245 70.28 332.024 69.736 331.945L69.736 329.803C70.79 329.916 71.6343 330.347 72.269 331.095C72.8923 331.843 73.204 332.783 73.204 333.917ZM64.024 323.819C64.024 322.867 64.3017 322.119 64.857 321.575C65.401 321.02 66.1773 320.742 67.186 320.742L73 320.742L73 322.884L67.543 322.884C66.4323 322.884 65.877 323.434 65.877 324.533C65.877 325.077 66.0753 325.542 66.472 325.927C66.8573 326.301 67.3957 326.488 68.087 326.488L73 326.488L73 328.63L60.896 328.63L60.896 326.488L65.401 326.488C64.483 325.819 64.024 324.93 64.024 323.819Z" fill="white"/>
<path d="M60.896 458.014L60.896 453.39C60.896 451.452 61.4343 449.956 62.511 448.902C63.599 447.848 65.078 447.321 66.948 447.321C68.818 447.321 70.2913 447.848 71.368 448.902C72.456 449.956 73 451.452 73 453.39L73 458.014L60.896 458.014ZM71.028 455.719L71.028 453.424C71.028 452.234 70.6823 451.316 69.991 450.67C69.2883 450.024 68.274 449.701 66.948 449.701C65.622 449.701 64.6133 450.024 63.922 450.67C63.2193 451.316 62.868 452.234 62.868 453.424L62.868 455.719L71.028 455.719ZM63.089 443.839L63.089 445.947L61.083 445.947L61.083 443.839L63.089 443.839ZM73 443.822L73 445.964L64.228 445.964L64.228 443.822L73 443.822ZM64.024 437.285C64.024 436.333 64.3017 435.585 64.857 435.041C65.401 434.486 66.1773 434.208 67.186 434.208L73 434.208L73 436.35L67.543 436.35C66.4323 436.35 65.877 436.9 65.877 437.999C65.877 438.543 66.0753 439.008 66.472 439.393C66.8573 439.767 67.3957 439.954 68.087 439.954L73 439.954L73 442.096L64.228 442.096L64.228 440.022L65.486 440.022C64.5113 439.353 64.024 438.441 64.024 437.285ZM64.024 427.656C64.024 426.704 64.3017 425.956 64.857 425.412C65.401 424.857 66.1773 424.579 67.186 424.579L73 424.579L73 426.721L67.543 426.721C66.4323 426.721 65.877 427.271 65.877 428.37C65.877 428.914 66.0753 429.379 66.472 429.764C66.8573 430.138 67.3957 430.325 68.087 430.325L73 430.325L73 432.467L64.228 432.467L64.228 430.393L65.486 430.393C64.5113 429.724 64.024 428.812 64.024 427.656ZM68.767 414.559L69.277 414.559L69.277 421.121C70.025 421.042 70.5917 420.809 70.977 420.424C71.351 420.027 71.538 419.5 71.538 418.843C71.538 417.868 71.1187 417.2 70.28 416.837L70.28 414.78C71.1753 415.007 71.8893 415.483 72.422 416.208C72.9433 416.933 73.204 417.817 73.204 418.86C73.204 420.163 72.7847 421.217 71.946 422.022C71.1073 422.827 69.9967 423.229 68.614 423.229C67.2313 423.229 66.1207 422.832 65.282 422.039C64.4433 421.234 64.024 420.186 64.024 418.894C64.024 417.568 64.4603 416.514 65.333 415.732C66.2057 414.95 67.3503 414.559 68.767 414.559ZM65.69 418.911C65.69 420.169 66.387 420.9 67.781 421.104L67.781 416.701C67.135 416.792 66.625 417.03 66.251 417.415C65.877 417.8 65.69 418.299 65.69 418.911ZM64.092 408.484C64.092 408.291 64.1033 408.116 64.126 407.957L66.098 407.957L66.098 408.501C66.098 409.317 66.3077 409.946 66.727 410.388C67.135 410.819 67.7413 411.034 68.546 411.034L73 411.034L73 413.176L64.228 413.176L64.228 411.102L65.792 411.102C64.6587 410.615 64.092 409.742 64.092 408.484Z" fill="white"/>
</g>
<defs>
<filter id="filter0_d" x="0" y="0" width="134" height="563" filterUnits="userSpaceOnUse" color-interpolation-filters="sRGB">
<feFlood flood-opacity="0" result="BackgroundImageFix"/>
<feColorMatrix in="SourceAlpha" type="matrix" values="0 0 0 0 0 0 0 0 0 0 0 0 0 0 0 0 0 0 127 0" result="hardAlpha"/>
<feOffset dy="10"/>
<feGaussianBlur stdDeviation="22"/>
<feColorMatrix type="matrix" values="0 0 0 0 0.341667 0 0 0 0 0.341667 0 0 0 0 0.341667 0 0 0 0.18 0"/>
<feBlend mode="normal" in2="BackgroundImageFix" result="effect1_dropShadow"/>
<feBlend mode="normal" in="SourceGraphic" in2="effect1_dropShadow" result="shape"/>
</filter>
</defs>
</svg>
