<svg width="115" height="402" viewBox="0 0 115 402" fill="none" xmlns="http://www.w3.org/2000/svg">
<path d="M3.50299 400.947C3.47375 401.221 3.67264 401.468 3.94723 401.497L8.42193 401.973C8.69652 402.003 8.94282 401.804 8.97207 401.529C9.00131 401.255 8.80242 401.008 8.52783 400.979L4.55032 400.555L4.9739 396.578C5.00314 396.303 4.80425 396.057 4.52966 396.028C4.25507 395.999 4.00877 396.197 3.97953 396.472L3.50299 400.947ZM0.518514 1.13234C3.22861 10.6493 9.06268 21.016 16.6908 32.2263C24.3213 43.4402 33.7765 55.5395 43.752 68.5138C63.7155 94.4788 85.7863 123.98 99.727 157.132C113.662 190.27 119.465 227.038 106.906 267.549C94.3433 308.071 63.3894 352.4 3.68605 400.611L4.31431 401.389C64.1114 353.102 95.2202 308.619 107.861 267.845C120.505 227.059 114.652 190.045 100.649 156.744C86.6517 123.458 64.5035 93.8631 44.5447 67.9043C34.5591 54.9168 25.1274 42.8472 17.5175 31.6637C9.9052 20.4766 4.14534 10.2173 1.48028 0.858461L0.518514 1.13234Z" fill="black"/>
</svg>
