<svg width="312" height="159" viewBox="0 0 312 159" fill="none" xmlns="http://www.w3.org/2000/svg">
<path d="M306.425 1.73322C306.279 1.49878 305.97 1.42704 305.736 1.57298L301.916 3.9511C301.681 4.09702 301.61 4.40537 301.755 4.63981C301.901 4.87423 302.21 4.94598 302.444 4.80005L305.84 2.68616L307.954 6.08198C308.1 6.3164 308.408 6.38814 308.643 6.24222C308.877 6.09628 308.949 5.78793 308.803 5.55351L306.425 1.73322ZM1.78912 143.908C4.74318 141.811 7.97083 140.212 11.4491 139.038L11.1292 138.09C7.56671 139.293 4.25046 140.935 1.21037 143.092L1.78912 143.908ZM33.0085 136.422C39.8118 136.65 47.117 137.607 54.8265 139.005L55.005 138.022C47.2685 136.618 39.9113 135.653 33.0421 135.423L33.0085 136.422ZM76.3804 143.607C79.8565 144.422 83.385 145.269 86.9595 146.127C90.5336 146.984 94.1537 147.852 97.811 148.71L98.0393 147.736C94.3848 146.879 90.7672 146.012 87.1928 145.154C83.6188 144.297 80.0878 143.449 76.6087 142.633L76.3804 143.607ZM119.357 153.406C126.55 154.812 133.828 156.033 141.14 156.922L141.261 155.929C133.979 155.044 126.724 153.828 119.549 152.424L119.357 153.406ZM163.169 158.444C170.553 158.521 177.92 158.11 185.214 157.063L185.072 156.073C177.835 157.112 170.52 157.52 163.179 157.444L163.169 158.444ZM206.689 151.906C213.483 149.55 220.159 146.473 226.672 142.546L226.156 141.69C219.705 145.58 213.091 148.627 206.362 150.961L206.689 151.906ZM244.333 129.317C249.505 124.606 254.529 119.212 259.378 113.061L258.592 112.442C253.776 118.553 248.789 123.905 243.66 128.578L244.333 129.317ZM271.802 94.926C275.367 88.968 278.808 82.496 282.113 75.4723L281.208 75.0466C277.917 82.0424 274.491 88.485 270.944 94.4126L271.802 94.926ZM290.69 55.1463C293.172 48.5908 295.556 41.6465 297.833 34.293L296.878 33.9971C294.606 41.3322 292.229 48.2571 289.754 54.7922L290.69 55.1463ZM303.805 13.0988C304.721 9.51988 305.615 5.85778 306.487 2.11077L305.513 1.88414C304.643 5.62422 303.75 9.27919 302.836 12.8508L303.805 13.0988ZM306.849 1.46898C306.557 1.00013 305.941 0.856632 305.472 1.14851L297.831 5.90473C297.362 6.19659 297.219 6.81329 297.511 7.28215C297.803 7.75102 298.419 7.8945 298.888 7.60264L305.68 3.37487L309.907 10.1665C310.199 10.6353 310.816 10.7788 311.285 10.487C311.754 10.1951 311.897 9.57842 311.605 9.10955L306.849 1.46898ZM2.07849 144.316C4.98954 142.25 8.17289 140.672 11.6091 139.511L10.9692 137.616C7.36465 138.834 4.0041 140.497 0.920995 142.685L2.07849 144.316ZM32.9918 136.922C39.762 137.149 47.0413 138.101 54.7373 139.497L55.0943 137.53C47.3443 136.124 39.9611 135.155 33.0589 134.923L32.9918 136.922ZM76.2662 144.093C79.7409 144.909 83.2681 145.755 86.8428 146.613C90.4168 147.47 94.0381 148.339 97.6969 149.197L98.1534 147.249C94.5004 146.393 90.884 145.526 87.3094 144.668C83.7357 143.811 80.2035 142.963 76.7229 142.146L76.2662 144.093ZM119.261 153.896C126.462 155.305 133.753 156.528 141.08 157.418L141.321 155.433C134.054 154.549 126.812 153.335 119.645 151.934L119.261 153.896ZM163.164 158.944C170.57 159.021 177.962 158.609 185.286 157.557L185.001 155.578C177.792 156.613 170.503 157.02 163.184 156.944L163.164 158.944ZM206.853 152.378C213.678 150.011 220.387 146.92 226.93 142.974L225.898 141.261C219.477 145.133 212.896 148.166 206.198 150.489L206.853 152.378ZM244.67 129.687C249.863 124.956 254.906 119.542 259.77 113.37L258.2 112.132C253.399 118.223 248.431 123.555 243.323 128.208L244.67 129.687ZM272.231 95.1828C275.805 89.2095 279.254 82.7227 282.565 75.6851L280.755 74.8337C277.471 81.8157 274.053 88.2435 270.515 94.1558L272.231 95.1828ZM291.157 55.3234C293.643 48.7576 296.03 41.8035 298.311 34.4409L296.4 33.8492C294.131 41.1751 291.758 48.0902 289.287 54.6152L291.157 55.3234ZM304.289 13.2228C305.206 9.64021 306.102 5.97455 306.974 2.22407L305.026 1.77084C304.157 5.50745 303.265 9.15884 302.352 12.7268L304.289 13.2228Z" fill="black"/>
</svg>
