<svg width="69" height="228" viewBox="0 0 69 228" fill="none" xmlns="http://www.w3.org/2000/svg">
<path d="M29.7758 227.447C30.0226 227.571 30.3231 227.471 30.4469 227.224L32.4649 223.202C32.5888 222.955 32.4891 222.655 32.2422 222.531C31.9954 222.407 31.695 222.507 31.5711 222.754L29.7773 226.329L26.2021 224.535C25.9553 224.411 25.6548 224.511 25.531 224.758C25.4071 225.005 25.5068 225.305 25.7536 225.429L29.7758 227.447ZM67.7857 0.548235C48.5217 9.68478 33.5816 19.7063 22.7455 31.7979C11.9025 43.8973 5.18766 58.0486 2.34449 75.4088C-3.33493 110.087 6.43808 157.575 29.5254 227.157L30.4746 226.843C7.38349 157.249 -2.30373 109.978 3.33134 75.5704C6.14542 58.3879 12.7815 44.4149 23.4902 32.4653C34.2058 20.5081 49.018 10.5562 68.2143 1.45176L67.7857 0.548235Z" fill="black"/>
</svg>
