<svg width="117" height="197" viewBox="0 0 117 197" fill="none" xmlns="http://www.w3.org/2000/svg">
<path d="M1.29955 2.59516C1.02686 2.63869 0.841099 2.89505 0.884636 3.16774L1.59416 7.61145C1.6377 7.88414 1.89405 8.0699 2.16674 8.02635C2.43943 7.98282 2.62519 7.72647 2.58165 7.45378L1.95097 3.50381L5.90094 2.87313C6.17362 2.82958 6.35938 2.57324 6.31584 2.30054C6.2723 2.02786 6.01595 1.84209 5.74326 1.88563L1.29955 2.59516ZM116 196C116.497 195.946 116.497 195.946 116.497 195.946C116.497 195.946 116.497 195.946 116.497 195.946C116.497 195.946 116.497 195.946 116.497 195.946C116.497 195.946 116.497 195.946 116.497 195.946C116.497 195.946 116.497 195.945 116.497 195.945C116.497 195.944 116.497 195.943 116.497 195.942C116.496 195.939 116.496 195.935 116.495 195.93C116.494 195.919 116.492 195.903 116.49 195.882C116.485 195.84 116.478 195.777 116.469 195.694C116.451 195.528 116.423 195.282 116.385 194.959L115.392 195.074C115.429 195.396 115.457 195.641 115.475 195.806C115.485 195.888 115.492 195.95 115.496 195.992C115.498 196.012 115.5 196.028 115.501 196.038C115.502 196.044 115.502 196.048 115.503 196.05C115.503 196.051 115.503 196.052 115.503 196.053C115.503 196.053 115.503 196.054 115.503 196.054C115.503 196.054 115.503 196.054 115.503 196.054C115.503 196.054 115.503 196.054 115.503 196.054C115.503 196.054 115.503 196.054 115.503 196.054C115.503 196.054 115.503 196.054 116 196ZM116.143 192.938C116.069 192.338 115.984 191.656 115.887 190.896L114.895 191.022C114.992 191.781 115.077 192.462 115.151 193.06L116.143 192.938ZM115.625 188.88C115.541 188.25 115.452 187.584 115.357 186.883L114.366 187.018C114.461 187.718 114.55 188.383 114.633 189.011L115.625 188.88ZM115.08 184.88C114.989 184.23 114.893 183.557 114.793 182.861L113.803 183.003C113.903 183.698 113.999 184.37 114.089 185.019L115.08 184.88ZM114.496 180.821C114.401 180.176 114.302 179.514 114.2 178.837L113.211 178.987C113.313 179.663 113.412 180.323 113.507 180.967L114.496 180.821ZM113.891 176.818C113.789 176.16 113.684 175.489 113.576 174.806L112.588 174.962C112.696 175.644 112.801 176.314 112.903 176.971L113.891 176.818ZM113.256 172.805C113.148 172.14 113.038 171.465 112.924 170.781L111.938 170.944C112.051 171.627 112.161 172.301 112.269 172.965L113.256 172.805ZM112.592 168.791C112.479 168.124 112.364 167.449 112.246 166.766L111.26 166.936C111.378 167.618 111.493 168.292 111.606 168.958L112.592 168.791ZM111.899 164.781C111.781 164.113 111.661 163.44 111.539 162.76L110.555 162.937C110.677 163.616 110.797 164.288 110.914 164.954L111.899 164.781ZM111.177 160.775C111.055 160.109 110.93 159.438 110.803 158.761L109.82 158.946C109.947 159.621 110.072 160.291 110.194 160.956L111.177 160.775ZM110.426 156.775C110.298 156.11 110.169 155.442 110.037 154.769L109.055 154.961C109.187 155.633 109.316 156.3 109.444 156.963L110.426 156.775ZM109.643 152.78C109.51 152.117 109.375 151.451 109.239 150.782L108.259 150.983C108.395 151.65 108.53 152.315 108.662 152.976L109.643 152.78ZM108.827 148.791C108.689 148.13 108.549 147.466 108.407 146.801L107.429 147.009C107.571 147.674 107.711 148.336 107.848 148.995L108.827 148.791ZM107.978 144.808C107.834 144.149 107.688 143.488 107.541 142.825L106.565 143.042C106.712 143.704 106.857 144.363 107.001 145.021L107.978 144.808ZM107.092 140.834C106.943 140.176 106.791 139.516 106.637 138.856L105.663 139.082C105.817 139.741 105.968 140.399 106.117 141.056L107.092 140.834ZM106.17 136.872C106.013 136.214 105.855 135.554 105.694 134.895L104.723 135.132C104.883 135.789 105.041 136.447 105.197 137.104L106.17 136.872ZM105.207 132.919C105.043 132.261 104.877 131.602 104.709 130.944L103.741 131.192C103.908 131.848 104.073 132.504 104.237 133.16L105.207 132.919ZM104.201 128.974C104.029 128.318 103.856 127.661 103.68 127.006L102.714 127.265C102.889 127.918 103.062 128.572 103.233 129.227L104.201 128.974ZM103.147 125.041C102.968 124.386 102.786 123.733 102.603 123.081L101.64 123.352C101.823 124.002 102.004 124.653 102.183 125.305L103.147 125.041ZM102.044 121.121C101.855 120.468 101.665 119.817 101.472 119.168L100.514 119.452C100.705 120.099 100.895 120.748 101.083 121.398L102.044 121.121ZM100.886 117.217C100.687 116.566 100.487 115.917 100.284 115.27L99.3299 115.569C99.5317 116.213 99.7315 116.86 99.9292 117.508L100.886 117.217ZM99.6683 113.333C99.4588 112.683 99.2471 112.036 99.0332 111.392L98.0842 111.707C98.2971 112.348 98.5079 112.993 98.7165 113.64L99.6683 113.333ZM98.3851 109.47C98.1633 108.822 97.9392 108.177 97.7128 107.537L96.7699 107.87C96.9952 108.507 97.2182 109.149 97.439 109.794L98.3851 109.47ZM97.0264 105.625C96.7917 104.982 96.5546 104.343 96.3151 103.708L95.3795 104.062C95.6177 104.693 95.8535 105.328 96.087 105.968L97.0264 105.625ZM95.5855 101.809C95.3362 101.172 95.0845 100.539 94.8303 99.9125L93.9036 100.288C94.1562 100.911 94.4064 101.54 94.6541 102.173L95.5855 101.809ZM94.0516 98.0285C93.7858 97.3978 93.5174 96.7732 93.2464 96.1551L92.3306 96.5567C92.5996 97.1702 92.8661 97.7904 93.13 98.4167L94.0516 98.0285ZM92.4117 94.2911C92.1268 93.6682 91.839 93.0526 91.5484 92.4447L90.6462 92.8761C90.9343 93.4787 91.2197 94.0891 91.5023 94.707L92.4117 94.2911ZM90.6494 90.6079C90.3418 89.9941 90.0311 89.3891 89.7172 88.7933L88.8325 89.2594C89.1431 89.849 89.4507 90.448 89.7554 91.0559L90.6494 90.6079ZM88.7442 86.9943C88.5803 86.6995 88.4156 86.4071 88.2501 86.1174L87.3818 86.6134C87.5453 86.8997 87.7081 87.1885 87.87 87.48L88.7442 86.9943ZM88.2501 86.1174C88.0869 85.8317 87.9207 85.5452 87.7516 85.258L86.8899 85.7654C87.0568 86.0489 87.2208 86.3316 87.3818 86.6134L88.2501 86.1174ZM86.7022 83.5258C86.3504 82.9605 85.9878 82.3925 85.6151 81.8221L84.778 82.3692C85.1469 82.9337 85.5055 83.4954 85.8533 84.0542L86.7022 83.5258ZM84.4909 80.1398C84.115 79.589 83.73 79.0361 83.3365 78.4814L82.5209 79.0601C82.9111 79.61 83.2926 80.1579 83.665 80.7035L84.4909 80.1398ZM82.1545 76.8451C81.7584 76.306 81.3546 75.7654 80.9434 75.2234L80.1467 75.8279C80.5549 76.3659 80.9557 76.9024 81.3487 77.4372L82.1545 76.8451ZM79.7157 73.6289C79.3023 73.0996 78.8823 72.5693 78.456 72.0379L77.676 72.6638C78.0997 73.1918 78.517 73.7187 78.9276 74.2444L79.7157 73.6289ZM77.1908 70.4807C76.7633 69.9609 76.33 69.4403 75.8914 68.9191L75.1263 69.563C75.5626 70.0814 75.9934 70.5991 76.4185 71.1159L77.1908 70.4807ZM74.5926 67.3924C74.1555 66.8839 73.7134 66.375 73.2668 65.8658L72.515 66.5252C72.9595 67.032 73.3994 67.5384 73.8344 68.0444L74.5926 67.3924ZM71.9313 64.3576C71.4857 63.859 71.0359 63.3603 70.5823 62.8616L69.8425 63.5345C70.2943 64.0311 70.7421 64.5276 71.1857 65.024L71.9313 64.3576ZM69.2153 61.3714C68.7621 60.8814 68.3053 60.3915 67.8452 59.9019L67.1165 60.5867C67.5748 61.0744 68.0298 61.5624 68.4812 62.0504L69.2153 61.3714ZM66.4555 58.434C65.994 57.9501 65.5294 57.4665 65.0621 56.9835L64.3434 57.6788C64.8091 58.1602 65.272 58.642 65.7319 59.1242L66.4555 58.434ZM63.6559 55.5397C63.1859 55.0605 62.7135 54.5819 62.2389 54.104L61.5294 54.8087C62.0026 55.2851 62.4735 55.7622 62.9419 56.2398L63.6559 55.5397ZM60.8163 52.6807C60.34 52.207 59.8617 51.7343 59.3816 51.2625L58.6807 51.9757C59.1594 52.4462 59.6363 52.9175 60.1111 53.3897L60.8163 52.6807ZM57.9416 49.8554C57.4603 49.3877 56.9774 48.921 56.4932 48.4556L55.8002 49.1766C56.2831 49.6408 56.7647 50.1061 57.2448 50.5726L57.9416 49.8554ZM55.0367 47.063C54.55 46.6001 54.0622 46.1385 53.5735 45.6784L52.888 46.4064C53.3754 46.8654 53.862 47.3259 54.3475 47.7876L55.0367 47.063ZM52.1051 44.3024C51.6129 43.8435 51.12 43.3861 50.6267 42.9304L49.9482 43.6649C50.4403 44.1196 50.9321 44.5759 51.4231 45.0338L52.1051 44.3024ZM49.1452 41.568C48.6491 41.1139 48.1528 40.6617 47.6566 40.2114L46.9846 40.952C47.4798 41.4013 47.975 41.8525 48.47 42.3056L49.1452 41.568ZM46.1605 38.8598C45.662 38.4113 45.1638 37.9649 44.666 37.5209L44.0003 38.267C44.497 38.7102 44.9943 39.1557 45.4917 39.6032L46.1605 38.8598ZM43.1544 36.1776C42.651 35.7322 42.1484 35.2891 41.6468 34.8487L40.987 35.6001C41.4877 36.0397 41.9893 36.4819 42.4917 36.9265L43.1544 36.1776ZM40.1295 33.5215C39.6208 33.0782 39.1133 32.6377 38.6075 32.2002L37.9533 32.9566C38.4583 33.3933 38.9648 33.833 39.4725 34.2754L40.1295 33.5215ZM37.0879 30.8908C36.5733 30.449 36.0606 30.0104 35.55 29.5752L34.9013 30.3363C35.411 30.7707 35.9228 31.2085 36.4365 31.6495L37.0879 30.8908ZM34.0252 28.2799C33.5061 27.8406 32.9897 27.4049 32.4761 26.9732L31.8326 27.7387C32.3453 28.1697 32.8609 28.6046 33.3791 29.0432L34.0252 28.2799ZM30.9384 25.6849C30.4176 25.2501 29.9001 24.8194 29.3863 24.3932L28.7479 25.1629C29.2609 25.5884 29.7775 26.0184 30.2975 26.4525L30.9384 25.6849ZM27.8357 23.1113C27.3129 22.6806 26.7945 22.2548 26.2806 21.8341L25.6471 22.6078C26.1602 23.0279 26.6778 23.453 27.1997 23.8831L27.8357 23.1113ZM24.7177 20.5587C24.1923 20.1313 23.6723 19.7096 23.158 19.294L22.5294 20.0717C23.0429 20.4867 23.5621 20.9077 24.0867 21.3344L24.7177 20.5587ZM21.5851 18.0266C21.0555 17.6011 20.5327 17.1826 20.0173 16.7712L19.3935 17.5528C19.9081 17.9635 20.43 18.3814 20.9589 18.8062L21.5851 18.0266ZM18.4392 15.5156C17.9028 15.0901 17.3754 14.6731 16.8576 14.265L16.2386 15.0504C16.7556 15.4578 17.2821 15.8742 17.8178 16.299L18.4392 15.5156ZM15.284 13.0286C14.7373 12.6004 14.203 12.1833 13.6819 11.7778L13.0678 12.567C13.5881 12.9719 14.1215 13.3883 14.6674 13.8158L15.284 13.0286ZM12.1084 10.5572C11.5559 10.13 11.021 9.71788 10.5047 9.32138L9.89563 10.1145C10.4111 10.5103 10.9451 10.9218 11.4967 11.3483L12.1084 10.5572ZM8.89432 8.08886C8.33223 7.66019 7.79795 7.25433 7.29329 6.87227L6.6897 7.66957C7.19344 8.05093 7.72678 8.45607 8.28791 8.88402L8.89432 8.08886ZM5.68901 5.6625C5.08603 5.20964 4.54395 4.80467 4.06758 4.45018L3.4706 5.25243C3.94581 5.60606 4.48672 6.01016 5.08848 6.46209L5.68901 5.6625ZM2.47526 3.27185C2.21294 3.07897 2.01229 2.93218 1.8771 2.83351C1.80951 2.78419 1.7583 2.7469 1.72391 2.7219C1.70672 2.7094 1.69374 2.69997 1.68503 2.69365C1.68067 2.69048 1.67739 2.68811 1.67518 2.6865C1.67407 2.68569 1.67323 2.68508 1.67266 2.68467C1.67238 2.68446 1.67216 2.68431 1.67201 2.6842C1.67194 2.68415 1.67188 2.6841 1.67184 2.68407C1.67182 2.68407 1.6718 2.68404 1.6718 2.68405C1.67179 2.68404 1.67178 2.68404 1.67177 2.68403C1.67177 2.68403 1.67177 2.68403 1.37838 3.0889C1.085 3.49378 1.085 3.49378 1.085 3.49378C1.085 3.49378 1.085 3.49378 1.085 3.49377C1.08501 3.49379 1.08501 3.49378 1.08502 3.49379C1.08506 3.49383 1.0851 3.49385 1.08516 3.49389C1.08528 3.49399 1.08547 3.49412 1.08573 3.49431C1.08624 3.49468 1.08702 3.49524 1.08807 3.49601C1.09017 3.49753 1.09334 3.49983 1.09759 3.50291C1.10607 3.50907 1.11883 3.51834 1.13579 3.53067C1.16971 3.55534 1.22047 3.59229 1.2876 3.64129C1.42185 3.73926 1.62154 3.88535 1.88288 4.07751L2.47526 3.27185ZM1.22071 2.10141C0.675336 2.18849 0.303815 2.7012 0.390889 3.24657L1.80993 12.134C1.89702 12.6794 2.40972 13.0509 2.9551 12.9638C3.50048 12.8767 3.872 12.364 3.78491 11.8186L2.52355 3.91872L10.4235 2.65735C10.9689 2.57027 11.3404 2.05756 11.2533 1.51219C11.1662 0.966811 10.6535 0.595288 10.1081 0.682368L1.22071 2.10141ZM116 196C116.994 195.892 116.994 195.892 116.994 195.892C116.994 195.892 116.994 195.892 116.994 195.892C116.994 195.892 116.994 195.892 116.994 195.892C116.994 195.892 116.994 195.892 116.994 195.892C116.994 195.892 116.994 195.891 116.994 195.891C116.994 195.89 116.994 195.889 116.994 195.888C116.993 195.885 116.993 195.881 116.992 195.875C116.991 195.865 116.989 195.849 116.987 195.827C116.982 195.785 116.975 195.722 116.966 195.638C116.947 195.472 116.919 195.225 116.882 194.901L114.895 195.132C114.932 195.453 114.96 195.697 114.978 195.861C114.988 195.943 114.995 196.005 114.999 196.046C115.001 196.067 115.003 196.083 115.004 196.093C115.005 196.098 115.005 196.102 115.005 196.104C115.006 196.105 115.006 196.106 115.006 196.107C115.006 196.107 115.006 196.107 115.006 196.108C115.006 196.108 115.006 196.108 115.006 196.108C115.006 196.108 115.006 196.108 115.006 196.108C115.006 196.108 115.006 196.108 115.006 196.108C115.006 196.108 115.006 196.108 116 196ZM116.639 192.877C116.566 192.277 116.48 191.593 116.383 190.832L114.399 191.086C114.496 191.843 114.581 192.524 114.654 193.121L116.639 192.877ZM116.12 188.814C116.037 188.184 115.948 187.517 115.852 186.815L113.87 187.085C113.966 187.784 114.055 188.449 114.138 189.076L116.12 188.814ZM115.575 184.811C115.484 184.16 115.388 183.486 115.288 182.79L113.308 183.074C113.408 183.769 113.504 184.44 113.594 185.088L115.575 184.811ZM114.991 180.748C114.895 180.102 114.796 179.44 114.694 178.762L112.716 179.061C112.818 179.737 112.917 180.397 113.012 181.04L114.991 180.748ZM114.385 176.742C114.283 176.083 114.178 175.411 114.07 174.728L112.094 175.04C112.202 175.722 112.307 176.391 112.409 177.048L114.385 176.742ZM113.749 172.725C113.642 172.06 113.531 171.384 113.418 170.699L111.445 171.026C111.558 171.708 111.668 172.382 111.775 173.045L113.749 172.725ZM113.085 168.708C112.972 168.04 112.856 167.364 112.738 166.681L110.767 167.021C110.885 167.702 111 168.376 111.113 169.041L113.085 168.708ZM112.391 164.694C112.274 164.026 112.153 163.352 112.031 162.671L110.063 163.026C110.185 163.704 110.304 164.376 110.422 165.041L112.391 164.694ZM111.669 160.685C111.546 160.018 111.421 159.346 111.294 158.669L109.329 159.038C109.455 159.713 109.58 160.382 109.702 161.047L111.669 160.685ZM110.917 156.681C110.789 156.015 110.659 155.346 110.527 154.673L108.565 155.058C108.696 155.728 108.825 156.395 108.953 157.057L110.917 156.681ZM110.133 152.682C110 152.018 109.866 151.352 109.729 150.682L107.769 151.083C107.905 151.75 108.04 152.414 108.172 153.074L110.133 152.682ZM109.317 148.688C109.179 148.027 109.039 147.363 108.896 146.696L106.94 147.114C107.082 147.777 107.221 148.438 107.359 149.097L109.317 148.688ZM108.466 144.702C108.322 144.042 108.177 143.38 108.029 142.716L106.077 143.151C106.224 143.811 106.369 144.47 106.512 145.128L108.466 144.702ZM107.58 140.723C107.43 140.064 107.278 139.404 107.124 138.742L105.176 139.196C105.329 139.854 105.481 140.511 105.63 141.167L107.58 140.723ZM106.657 136.756C106.5 136.097 106.341 135.437 106.18 134.777L104.237 135.25C104.397 135.907 104.555 136.563 104.711 137.219L106.657 136.756ZM105.692 132.798C105.528 132.139 105.362 131.48 105.194 130.821L103.256 131.315C103.423 131.97 103.589 132.626 103.752 133.281L105.692 132.798ZM104.685 128.848C104.513 128.19 104.339 127.533 104.163 126.877L102.231 127.394C102.406 128.046 102.579 128.7 102.749 129.353L104.685 128.848ZM103.63 124.908C103.45 124.253 103.268 123.598 103.084 122.945L101.159 123.487C101.342 124.136 101.522 124.786 101.701 125.438L103.63 124.908ZM102.524 120.982C102.335 120.328 102.144 119.676 101.952 119.026L100.034 119.594C100.226 120.24 100.415 120.888 100.603 121.537L102.524 120.982ZM101.364 117.071C101.165 116.419 100.964 115.769 100.761 115.121L98.8528 115.719C99.0542 116.362 99.2536 117.007 99.4509 117.654L101.364 117.071ZM100.144 113.179C99.9342 112.528 99.7221 111.88 99.5077 111.235L97.6097 111.865C97.8221 112.505 98.0324 113.147 98.2407 113.793L100.144 113.179ZM98.8582 109.308C98.6358 108.658 98.4112 108.012 98.1843 107.37L96.2985 108.036C96.5232 108.672 96.7457 109.312 96.966 109.956L98.8582 109.308ZM97.4961 105.454C97.2608 104.809 97.023 104.168 96.7828 103.532L94.9117 104.238C95.1492 104.867 95.3844 105.501 95.6174 106.139L97.4961 105.454ZM96.0511 101.627C95.8012 100.988 95.5487 100.353 95.2936 99.7246L93.4402 100.476C93.692 101.097 93.9414 101.724 94.1884 102.355L96.0511 101.627ZM94.5123 97.8343C94.2457 97.2015 93.9764 96.5747 93.7043 95.9543L91.8727 96.7575C92.1407 97.3687 92.4063 97.9867 92.6693 98.6109L94.5123 97.8343ZM92.8664 94.0831C92.5803 93.4577 92.2914 92.8396 91.9995 92.2291L90.1951 93.0918C90.4819 93.6917 90.7661 94.2996 91.0476 94.915L92.8664 94.0831ZM91.0964 90.3839C90.7873 89.7672 90.4751 89.1592 90.1596 88.5603L88.3901 89.4924C88.6991 90.0789 89.0052 90.6749 89.3084 91.2799L91.0964 90.3839ZM89.1812 86.7515C89.0164 86.4549 88.8508 86.1609 88.6843 85.8694L86.9477 86.8614C87.1102 87.1459 87.272 87.4331 87.433 87.7229L89.1812 86.7515ZM88.6843 85.8694C88.52 85.5817 88.3527 85.2934 88.1825 85.0043L86.459 86.019C86.6249 86.3007 86.7878 86.5815 86.9477 86.8614L88.6843 85.8694ZM87.1267 83.2615C86.7728 82.693 86.4083 82.1219 86.0336 81.5486L84.3595 82.6428C84.7264 83.2042 85.083 83.7629 85.4288 84.3184L87.1267 83.2615ZM84.9039 79.8579C84.5262 79.3045 84.1395 78.7491 83.7442 78.1921L82.1131 79.3494C82.5016 79.897 82.8814 80.4423 83.252 80.9854L84.9039 79.8579ZM82.5575 76.549C82.1598 76.0078 81.7544 75.4652 81.3417 74.9212L79.7484 76.1301C80.1551 76.6661 80.5544 77.2006 80.9458 77.7333L82.5575 76.549ZM80.1097 73.3211C79.695 72.7901 79.2736 72.258 78.8459 71.725L77.286 72.9767C77.7084 73.503 78.1243 74.0283 78.5335 74.5522L80.1097 73.3211ZM77.577 70.1632C77.1482 69.6418 76.7138 69.1197 76.2739 68.5971L74.7437 69.8849C75.1788 70.4019 75.6085 70.9182 76.0323 71.4335L77.577 70.1632ZM74.9718 67.0665C74.5335 66.5567 74.0904 66.0465 73.6426 65.536L72.1391 66.8549C72.5826 67.3605 73.0214 67.8657 73.4552 68.3703L74.9718 67.0665ZM72.3041 64.0244C71.8575 63.5247 71.4068 63.0249 70.9521 62.5251L69.4727 63.8709C69.9235 64.3665 70.3703 64.8619 70.8129 65.3572L72.3041 64.0244ZM69.5824 61.0319C69.1282 60.5409 68.6706 60.0501 68.2096 59.5595L66.7521 60.929C67.2095 61.4159 67.6636 61.9029 68.1141 62.39L69.5824 61.0319ZM66.8173 58.0889C66.3549 57.6041 65.8896 57.1197 65.4215 56.6359L63.9841 58.0264C64.4489 58.507 64.911 58.988 65.3701 59.4693L66.8173 58.0889ZM64.0129 55.1897C63.5422 54.7096 63.069 54.2302 62.5936 53.7516L61.1747 55.1611C61.6471 55.6367 62.1172 56.113 62.5849 56.5899L64.0129 55.1897ZM61.1688 52.3261C60.6918 51.8518 60.2129 51.3783 59.7321 50.9059L58.3303 52.3324C58.8083 52.8021 59.2844 53.2728 59.7586 53.7443L61.1688 52.3261ZM58.2901 49.4968C57.8081 49.0284 57.3245 48.5612 56.8397 48.0951L55.4537 49.5371C55.936 50.0006 56.4169 50.4654 56.8963 50.9312L58.2901 49.4968ZM55.3813 46.7008C54.8939 46.2372 54.4055 45.775 53.9163 45.3143L52.5452 46.7704C53.0321 47.2289 53.5181 47.6887 54.0029 48.1499L55.3813 46.7008ZM52.4461 43.9368C51.9533 43.4772 51.4599 43.0193 50.966 42.5631L49.6089 44.0322C50.1005 44.4863 50.5916 44.9421 51.0821 45.3995L52.4461 43.9368ZM49.4828 41.1992C48.9862 40.7446 48.4893 40.2919 47.9926 39.8411L46.6486 41.3223C47.1433 41.7711 47.6379 42.2218 48.1323 42.6744L49.4828 41.1992ZM46.4949 38.488C45.9959 38.0391 45.4972 37.5923 44.9989 37.1478L43.6674 38.6401C44.1637 39.0829 44.6604 39.5278 45.1573 39.9749L46.4949 38.488ZM43.4858 35.8032C42.9819 35.3573 42.4788 34.9139 41.9768 34.473L40.6571 35.9759C41.1573 36.415 41.6584 36.8568 42.1603 37.3009L43.4858 35.8032ZM40.4579 33.1445C39.9488 32.7008 39.4409 32.26 38.9345 31.822L37.6262 33.3348C38.1307 33.7711 38.6368 34.2103 39.1441 34.6524L40.4579 33.1445ZM37.4136 30.5115C36.8985 30.0692 36.3854 29.6303 35.8744 29.1947L34.577 30.7168C35.0862 31.1508 35.5975 31.5883 36.1108 32.0289L37.4136 30.5115ZM34.3482 27.8983C33.8287 27.4586 33.3118 27.0226 32.7978 26.5905L31.5108 28.1214C32.0232 28.5521 32.5383 28.9866 33.056 29.4248L34.3482 27.8983ZM31.2589 25.3011C30.7376 24.8659 30.2197 24.4349 29.7055 24.0084L28.4287 25.5478C28.9412 25.9729 29.4575 26.4025 29.977 26.8363L31.2589 25.3011ZM28.1536 22.7255C27.6305 22.2944 27.1116 21.8682 26.5973 21.4472L25.3303 22.9947C25.843 23.4144 26.3603 23.8392 26.8818 24.269L28.1536 22.7255ZM25.0332 20.1708C24.5074 19.7431 23.987 19.3211 23.4723 18.9051L22.2151 20.4605C22.7281 20.8752 23.247 21.2959 23.7711 21.7223L25.0332 20.1708ZM21.8982 17.6368C21.3682 17.211 20.845 16.7921 20.3292 16.3805L19.0816 17.9436C19.5958 18.354 20.1173 18.7716 20.6458 19.196L21.8982 17.6368ZM18.7499 15.1238C18.2131 14.698 17.6853 14.2807 17.1672 13.8723L15.9291 15.4431C16.4457 15.8502 16.9718 16.2662 17.5071 16.6908L18.7499 15.1238ZM15.5923 12.6349C15.0452 12.2064 14.5105 11.789 13.989 11.3832L12.7607 12.9615C13.2806 13.3661 13.8136 13.7822 14.3591 14.2095L15.5923 12.6349ZM12.4142 10.1616C11.8613 9.73411 11.326 9.32165 10.8093 8.92483L9.59109 10.511C10.1061 10.9065 10.6397 11.3177 11.1909 11.7438L12.4142 10.1616ZM9.19753 7.69128C8.63496 7.26224 8.1002 6.85603 7.59509 6.47363L6.3879 8.06821C6.89118 8.44922 7.42405 8.85401 7.98471 9.28159L9.19753 7.69128ZM5.98928 5.2627C5.38568 4.80938 4.84301 4.40396 4.36608 4.04905L3.17211 5.65356C3.64674 6.00675 4.18705 6.4104 4.78821 6.8619L5.98928 5.2627ZM2.77145 2.86901C2.50864 2.67579 2.30751 2.52863 2.17186 2.42964C2.10404 2.38014 2.05259 2.34268 2.01797 2.31751C2.00067 2.30493 1.98758 2.29542 1.97875 2.28901C1.97434 2.28582 1.97099 2.28338 1.96873 2.28174C1.9676 2.28092 1.96673 2.28029 1.96613 2.27985C1.96583 2.27964 1.96561 2.27948 1.96544 2.27935C1.96536 2.27929 1.96529 2.27925 1.96525 2.27922C1.96522 2.2792 1.9652 2.27918 1.96519 2.27917C1.96518 2.27917 1.96517 2.27916 1.96517 2.27916C1.96516 2.27915 1.96516 2.27915 1.37838 3.0889C0.791609 3.89865 0.791608 3.89865 0.791607 3.89865L0.791606 3.89865C0.791607 3.89865 0.791608 3.89865 0.791621 3.89866C0.791645 3.89868 0.791674 3.8987 0.791727 3.89873C0.791842 3.89882 0.792013 3.89895 0.792251 3.89911C0.792736 3.89947 0.793494 3.90002 0.794517 3.90076C0.796561 3.90224 0.79968 3.9045 0.80387 3.90755C0.812241 3.91362 0.824879 3.9228 0.841723 3.93505C0.875422 3.95955 0.925958 3.99635 0.992842 4.04516C1.12663 4.1428 1.32584 4.28854 1.58669 4.48033L2.77145 2.86901Z" fill="black"/>
</svg>
