<svg width="188" height="289" viewBox="0 0 188 289" fill="none" xmlns="http://www.w3.org/2000/svg">
<path d="M181.06 288.454C181.158 288.713 181.446 288.843 181.704 288.745L185.912 287.149C186.17 287.051 186.3 286.762 186.202 286.504C186.104 286.246 185.816 286.116 185.557 286.214L181.817 287.632L180.399 283.892C180.301 283.634 180.012 283.504 179.754 283.602C179.496 283.7 179.366 283.989 179.464 284.247L181.06 288.454ZM6.56323 0.756932C-5.83589 23.0335 2.14762 45.4581 20.058 68.1126C37.9671 90.7654 65.9287 113.817 93.8318 137.446C121.763 161.099 149.643 185.336 167.507 210.404C185.361 235.46 193.144 261.247 181.071 288.072L181.983 288.482C194.262 261.199 186.28 235.025 168.321 209.824C150.372 184.636 122.391 160.32 94.4781 136.683C66.5377 113.023 38.6739 90.0471 20.8425 67.4924C3.01235 44.9395 -4.6598 22.9766 7.43701 1.24327L6.56323 0.756932Z" fill="black"/>
</svg>
