<svg width="283" height="674" viewBox="0 0 283 674" fill="none" xmlns="http://www.w3.org/2000/svg">
<g filter="url(#filter0_d)">
<path d="M231.354 34.6464C231.158 34.4512 230.842 34.4512 230.646 34.6464L227.464 37.8284C227.269 38.0237 227.269 38.3403 227.464 38.5355C227.66 38.7308 227.976 38.7308 228.172 38.5355L231 35.7071L233.828 38.5355C234.024 38.7308 234.34 38.7307 234.536 38.5355C234.731 38.3403 234.731 38.0237 234.536 37.8284L231.354 34.6464ZM47.4981 618.956C47.4675 618.611 47.4374 618.268 47.4076 617.924L46.4113 618.011C46.4412 618.355 46.4714 618.699 46.502 619.044L47.4981 618.956ZM47.0674 613.822C46.9059 611.78 46.7574 609.751 46.6217 607.736L45.6239 607.803C45.7599 609.822 45.9087 611.855 46.0705 613.901L47.0674 613.822ZM46.1464 599.744C46.1124 599.083 46.0797 598.425 46.0485 597.767L45.0496 597.815C45.0809 598.473 45.1136 599.133 45.1477 599.795L46.1464 599.744ZM45.8776 593.839C45.796 591.771 45.7281 589.718 45.6739 587.678L44.6742 587.705C44.7286 589.749 44.7966 591.807 44.8784 593.879L45.8776 593.839ZM45.5287 579.594C45.5225 578.927 45.5178 578.261 45.5146 577.596L44.5146 577.601C44.5178 578.267 44.5225 578.935 44.5287 579.604L45.5287 579.594ZM45.5129 573.627C45.5209 571.609 45.5426 569.605 45.5776 567.615L44.5778 567.597C44.5426 569.592 44.5209 571.601 44.5129 573.623L45.5129 573.627ZM45.7978 559.478C45.8223 558.806 45.8485 558.136 45.8761 557.467L44.877 557.426C44.8492 558.096 44.8231 558.768 44.7984 559.441L45.7978 559.478ZM46.0604 553.475C46.1617 551.488 46.2767 549.516 46.405 547.557L45.4072 547.491C45.2785 549.455 45.1633 551.433 45.0617 553.424L46.0604 553.475ZM47.0221 539.41C47.0799 538.738 47.1394 538.067 47.2004 537.398L46.2046 537.307C46.1434 537.978 46.0838 538.65 46.0258 539.324L47.0221 539.41ZM47.5856 533.403C47.7877 531.415 48.0038 529.442 48.2336 527.483L47.2404 527.366C47.01 529.331 46.7933 531.309 46.5908 533.302L47.5856 533.403ZM49.2658 519.43C49.359 518.761 49.4537 518.093 49.5501 517.427L48.5604 517.284C48.4638 517.952 48.3688 518.621 48.2754 519.292L49.2658 519.43ZM50.1475 513.451C50.4558 511.472 50.7783 509.508 51.1147 507.558L50.1293 507.388C49.7919 509.344 49.4686 511.313 49.1595 513.297L50.1475 513.451ZM52.5802 499.594C52.7099 498.932 52.8411 498.271 52.974 497.611L51.9937 497.414C51.8604 498.075 51.7288 498.738 51.5988 499.403L52.5802 499.594ZM53.7902 493.673C54.2078 491.714 54.6395 489.769 55.085 487.838L54.1106 487.613C53.6639 489.55 53.2309 491.5 52.8122 493.465L53.7902 493.673ZM56.9945 479.97C57.1609 479.317 57.3289 478.665 57.4984 478.015L56.5308 477.763C56.3608 478.415 56.1923 479.068 56.0255 479.723L56.9945 479.97ZM58.5342 474.134C59.0612 472.202 59.6021 470.284 60.1562 468.38L59.196 468.101C58.6403 470.01 58.098 471.934 57.5694 473.87L58.5342 474.134ZM62.5083 460.624C62.7106 459.983 62.9144 459.343 63.1198 458.705L62.1678 458.399C61.9619 459.039 61.7575 459.68 61.5546 460.323L62.5083 460.624ZM64.3693 454.893C65.0058 452.987 65.6555 451.094 66.3179 449.213L65.3747 448.881C64.7105 450.767 64.0591 452.665 63.4208 454.577L64.3693 454.893ZM69.0868 441.615C69.3232 440.988 69.561 440.361 69.8001 439.736L68.8662 439.379C68.6264 440.005 68.388 440.633 68.151 441.263L69.0868 441.615ZM71.2514 436.002C71.9925 434.125 72.7458 432.259 73.5109 430.405L72.5865 430.023C71.8195 431.882 71.0642 433.753 70.3212 435.635L71.2514 436.002ZM76.6607 422.982C76.9283 422.368 77.1972 421.755 77.4673 421.144L76.5525 420.74C76.2818 421.353 76.0123 421.967 75.7441 422.582L76.6607 422.982ZM79.1023 417.49C79.938 415.646 80.7848 413.812 81.642 411.989L80.737 411.563C79.8778 413.391 79.0291 415.229 78.1915 417.078L79.1023 417.49ZM85.1296 404.736C85.4247 404.136 85.7208 403.536 86.0181 402.938L85.1225 402.493C84.8247 403.093 84.5279 403.693 84.2322 404.295L85.1296 404.736ZM87.824 399.341C88.7379 397.539 89.6612 395.746 90.5933 393.961L89.7069 393.498C88.773 395.286 87.8479 397.083 86.9322 398.889L87.824 399.341ZM94.3677 386.862C94.6869 386.272 95.007 385.682 95.328 385.094L94.4501 384.615C94.1286 385.204 93.8079 385.795 93.4881 386.386L94.3677 386.862ZM97.2725 381.558C98.2499 379.794 99.235 378.038 100.227 376.287L99.3571 375.794C98.3635 377.547 97.3769 379.307 96.3978 381.073L97.2725 381.558ZM104.236 369.309C104.574 368.728 104.913 368.147 105.252 367.568L104.389 367.062C104.049 367.643 103.71 368.224 103.371 368.806L104.236 369.309ZM107.297 364.095C108.323 362.362 109.356 360.633 110.393 358.908L109.536 358.393C108.498 360.119 107.464 361.85 106.437 363.585L107.297 364.095ZM114.573 352.022C114.924 351.449 115.275 350.877 115.627 350.305L114.775 349.781C114.423 350.354 114.071 350.927 113.72 351.5L114.573 352.022ZM117.742 346.876C118.802 345.163 119.866 343.453 120.934 341.745L120.086 341.215C119.018 342.924 117.953 344.636 116.892 346.35L117.742 346.876ZM125.218 334.922C125.576 334.353 125.935 333.786 126.294 333.218L125.448 332.684C125.089 333.252 124.731 333.82 124.372 334.388L125.218 334.922ZM128.449 329.811C129.527 328.11 130.607 326.409 131.688 324.708L130.844 324.172C129.763 325.873 128.683 327.574 127.604 329.276L128.449 329.811ZM136.012 317.909C136.373 317.342 136.734 316.774 137.095 316.207L136.251 315.67C135.89 316.238 135.529 316.805 135.169 317.372L136.012 317.909ZM139.26 312.801C140.338 311.104 141.416 309.404 142.494 307.702L141.649 307.167C140.572 308.869 139.494 310.568 138.415 312.265L139.26 312.801ZM146.799 300.882C147.157 300.312 147.515 299.742 147.873 299.172L147.026 298.64C146.668 299.21 146.31 299.78 145.952 300.35L146.799 300.882ZM150.01 295.757C151.075 294.05 152.138 292.34 153.198 290.626L152.347 290.1C151.288 291.813 150.226 293.522 149.162 295.227L150.01 295.757ZM157.424 283.742C157.773 283.169 158.122 282.596 158.47 282.021L157.615 281.503C157.267 282.076 156.919 282.65 156.57 283.222L157.424 283.742ZM160.549 278.579C161.586 276.853 162.619 275.123 163.648 273.385L162.787 272.876C161.76 274.611 160.728 276.34 159.692 278.063L160.549 278.579ZM167.728 266.417C168.064 265.837 168.398 265.257 168.732 264.676L167.866 264.178C167.532 264.758 167.198 265.337 166.863 265.916L167.728 266.417ZM170.73 261.181C171.725 259.428 172.715 257.668 173.698 255.899L172.824 255.413C171.842 257.179 170.854 258.937 169.86 260.687L170.73 261.181ZM177.571 248.828C177.889 248.239 178.207 247.648 178.523 247.056L177.641 246.585C177.325 247.175 177.009 247.765 176.691 248.354L177.571 248.828ZM180.413 243.494C181.353 241.707 182.286 239.911 183.211 238.104L182.321 237.648C181.398 239.451 180.466 241.245 179.528 243.029L180.413 243.494ZM186.823 230.918C187.12 230.316 187.415 229.713 187.71 229.109L186.812 228.671C186.517 229.273 186.222 229.875 185.926 230.476L186.823 230.918ZM189.468 225.471C190.339 223.648 191.202 221.814 192.056 219.968L191.148 219.548C190.296 221.39 189.435 223.22 188.566 225.039L189.468 225.471ZM195.364 212.653C195.636 212.039 195.906 211.423 196.176 210.805L195.259 210.405C194.99 211.021 194.72 211.636 194.449 212.249L195.364 212.653ZM197.78 207.086C198.568 205.233 199.347 203.369 200.116 201.492L199.191 201.113C198.424 202.985 197.646 204.846 196.859 206.694L197.78 207.086ZM203.093 194.027C203.337 193.399 203.579 192.77 203.82 192.14L202.886 191.783C202.645 192.412 202.404 193.039 202.161 193.665L203.093 194.027ZM205.253 188.339C205.951 186.459 206.639 184.566 207.315 182.66L206.373 182.326C205.698 184.227 205.012 186.116 204.315 187.991L205.253 188.339ZM209.932 175.054C210.145 174.414 210.357 173.773 210.567 173.13L209.617 172.819C209.407 173.46 209.196 174.1 208.983 174.738L209.932 175.054ZM211.815 169.255C212.419 167.349 213.011 165.43 213.591 163.496L212.633 163.209C212.054 165.137 211.464 167.052 210.862 168.953L211.815 169.255ZM215.828 155.769C216.009 155.118 216.189 154.467 216.367 153.813L215.403 153.55C215.225 154.201 215.045 154.851 214.865 155.5L215.828 155.769ZM217.423 149.874C217.929 147.943 218.425 145.998 218.908 144.039L217.937 143.8C217.455 145.754 216.961 147.694 216.455 149.62L217.423 149.874ZM220.756 136.216C220.904 135.558 221.052 134.898 221.197 134.237L220.221 134.021C220.075 134.681 219.928 135.339 219.78 135.996L220.756 136.216ZM222.057 130.249C222.468 128.291 222.868 126.319 223.255 124.333L222.274 124.142C221.887 126.123 221.489 128.09 221.078 130.043L222.057 130.249ZM224.715 116.448C224.832 115.785 224.946 115.12 225.06 114.454L224.074 114.286C223.961 114.951 223.846 115.614 223.73 116.276L224.715 116.448ZM225.725 110.435C226.044 108.445 226.352 106.44 226.647 104.422L225.657 104.277C225.363 106.291 225.056 108.291 224.737 110.277L225.725 110.435ZM227.728 96.512C227.813 95.8467 227.896 95.1799 227.979 94.5115L226.986 94.3895C226.904 95.0564 226.821 95.7218 226.736 96.3855L227.728 96.512ZM228.455 90.482C228.685 88.4577 228.903 86.4193 229.108 84.3662L228.113 84.2666C227.909 86.3152 227.691 88.3493 227.462 90.369L228.455 90.482ZM229.832 76.4436C229.886 75.7796 229.94 75.1141 229.992 74.447L228.995 74.3689C228.943 75.0345 228.89 75.6986 228.835 76.3612L229.832 76.4436ZM230.29 70.4264C230.431 68.4069 230.561 66.3737 230.678 64.3264L229.679 64.2693C229.562 66.3124 229.434 68.3415 229.293 70.3567L230.29 70.4264ZM231.072 56.2647C231.099 55.605 231.125 54.9439 231.149 54.2813L230.15 54.2445C230.125 54.9058 230.1 55.5656 230.073 56.2239L231.072 56.2647ZM231.28 50.2884C231.339 48.2832 231.385 46.2649 231.421 44.2332L230.421 44.2159C230.386 46.2437 230.339 48.2582 230.281 50.2594L231.28 50.2884ZM231.499 36.0348C231.5 35.6902 231.5 35.3453 231.5 35L230.5 35C230.5 35.3446 230.5 35.6889 230.499 36.0329L231.499 36.0348ZM231.707 34.2929C231.317 33.9023 230.683 33.9023 230.293 34.2929L223.929 40.6568C223.538 41.0474 223.538 41.6805 223.929 42.071C224.319 42.4616 224.953 42.4616 225.343 42.071L231 36.4142L236.657 42.071C237.047 42.4616 237.681 42.4616 238.071 42.071C238.462 41.6805 238.462 41.0473 238.071 40.6569L231.707 34.2929ZM47.9961 618.911C47.9656 618.568 47.9355 618.224 47.9057 617.881L45.9132 618.054C45.9431 618.398 45.9733 618.743 46.0039 619.088L47.9961 618.911ZM47.5658 613.783C47.4045 611.742 47.2561 609.716 47.1205 607.702L45.1251 607.836C45.2612 609.858 45.4101 611.892 45.572 613.94L47.5658 613.783ZM46.6457 599.718C46.6117 599.058 46.5792 598.4 46.5479 597.743L44.5502 597.838C44.5815 598.498 44.6142 599.158 44.6484 599.821L46.6457 599.718ZM46.3772 593.82C46.2957 591.754 46.2279 589.702 46.1737 587.665L44.1744 587.718C44.2288 589.764 44.2969 591.824 44.3788 593.898L46.3772 593.82ZM46.0286 579.59C46.0225 578.923 46.0178 578.258 46.0146 577.594L44.0146 577.604C44.0179 578.27 44.0225 578.938 44.0287 579.608L46.0286 579.59ZM46.0129 573.629C46.0209 571.613 46.0425 569.612 46.0776 567.623L44.0779 567.588C44.0427 569.585 44.0209 571.596 44.0129 573.621L46.0129 573.629ZM46.2974 559.496C46.322 558.825 46.3481 558.156 46.3757 557.488L44.3774 557.405C44.3496 558.076 44.3234 558.749 44.2988 559.423L46.2974 559.496ZM46.5598 553.501C46.661 551.516 46.7758 549.546 46.904 547.59L44.9082 547.459C44.7794 549.425 44.664 551.405 44.5624 553.399L46.5598 553.501ZM47.5202 539.453C47.578 538.781 47.6374 538.112 47.6984 537.443L45.7066 537.262C45.6454 537.933 45.5857 538.607 45.5276 539.281L47.5202 539.453ZM48.0831 533.454C48.2848 531.468 48.5006 529.498 48.7302 527.541L46.7438 527.308C46.5131 529.275 46.2961 531.256 46.0933 533.251L48.0831 533.454ZM49.761 519.499C49.8541 518.831 49.9487 518.164 50.0449 517.499L48.0656 517.213C47.9688 517.881 47.8736 518.552 47.7801 519.224L49.761 519.499ZM50.6416 513.528C50.9494 511.552 51.2715 509.591 51.6074 507.643L49.6365 507.303C49.2988 509.261 48.9749 511.233 48.6654 513.22L50.6416 513.528ZM53.0709 499.69C53.2004 499.029 53.3315 498.368 53.4641 497.71L51.5035 497.315C51.3701 497.977 51.2383 498.641 51.1081 499.307L53.0709 499.69ZM54.2792 493.778C54.6962 491.821 55.1274 489.879 55.5722 487.95L53.6234 487.501C53.1761 489.44 52.7425 491.393 52.3232 493.361L54.2792 493.778ZM57.4791 480.093C57.6452 479.441 57.8129 478.79 57.9822 478.141L56.047 477.637C55.8767 478.289 55.7081 478.944 55.541 479.599L57.4791 480.093ZM59.0165 474.265C59.5429 472.337 60.0829 470.421 60.6363 468.52L58.7159 467.961C58.1595 469.873 57.6164 471.799 57.0871 473.739L59.0165 474.265ZM62.9851 460.775C63.1871 460.134 63.3907 459.495 63.5957 458.858L61.6918 458.246C61.4857 458.886 61.281 459.529 61.0778 460.173L62.9851 460.775ZM64.8436 455.052C65.4792 453.148 66.128 451.258 66.7895 449.379L64.9031 448.715C64.238 450.603 63.5857 452.504 62.9465 454.418L64.8436 455.052ZM69.5547 441.791C69.7908 441.165 70.0283 440.539 70.2671 439.915L68.3992 439.2C68.1591 439.828 67.9204 440.456 67.6831 441.086L69.5547 441.791ZM71.7165 436.186C72.4566 434.311 73.209 432.447 73.9731 430.595L72.1243 429.832C71.3563 431.694 70.6001 433.567 69.8562 435.452L71.7165 436.186ZM77.1191 423.181C77.3863 422.569 77.6549 421.957 77.9246 421.346L76.0952 420.538C75.8242 421.151 75.5543 421.766 75.2858 422.382L77.1191 423.181ZM79.5577 417.697C80.3925 415.855 81.2382 414.023 82.0945 412.201L80.2844 411.35C79.4243 413.18 78.5747 415.021 77.736 416.871L79.5577 417.697ZM85.5783 404.956C85.8731 404.357 86.1689 403.758 86.4658 403.161L84.6747 402.271C84.3766 402.871 84.0795 403.472 83.7835 404.074L85.5783 404.956ZM88.2699 399.567C89.1829 397.767 90.1053 395.976 91.0365 394.192L89.2636 393.266C88.3289 395.057 87.4029 396.855 86.4862 398.662L88.2699 399.567ZM94.8075 387.099C95.1264 386.51 95.4462 385.921 95.7669 385.333L94.0112 384.376C93.6894 384.966 93.3684 385.556 93.0484 386.148L94.8075 387.099ZM97.7098 381.8C98.6864 380.038 99.6707 378.283 100.662 376.534L98.9221 375.548C97.9277 377.302 96.9403 379.063 95.9605 380.831L97.7098 381.8ZM104.668 369.56C105.006 368.98 105.344 368.4 105.684 367.82L103.958 366.81C103.617 367.391 103.278 367.972 102.939 368.554L104.668 369.56ZM107.727 364.35C108.753 362.617 109.785 360.89 110.821 359.166L109.108 358.135C108.069 359.863 107.035 361.594 106.006 363.33L107.727 364.35ZM115 352.283C115.35 351.711 115.701 351.139 116.053 350.567L114.349 349.52C113.997 350.092 113.645 350.665 113.294 351.239L115 352.283ZM118.167 347.139C119.227 345.427 120.291 343.718 121.358 342.01L119.662 340.95C118.593 342.66 117.528 344.372 116.467 346.087L118.167 347.139ZM125.641 335.188C125.999 334.62 126.358 334.052 126.716 333.485L125.026 332.417C124.667 332.985 124.308 333.553 123.949 334.121L125.641 335.188ZM128.871 330.079C129.949 328.378 131.029 326.677 132.11 324.976L130.422 323.904C129.341 325.605 128.26 327.307 127.182 329.009L128.871 330.079ZM136.434 318.177C136.795 317.61 137.156 317.043 137.516 316.475L135.829 315.402C135.468 315.969 135.107 316.536 134.747 317.103L136.434 318.177ZM139.682 313.069C140.76 311.371 141.839 309.672 142.917 307.97L141.227 306.9C140.15 308.601 139.072 310.3 137.993 311.997L139.682 313.069ZM147.222 301.148C147.58 300.578 147.938 300.008 148.296 299.437L146.602 298.375C146.245 298.945 145.887 299.514 145.529 300.083L147.222 301.148ZM150.434 296.021C151.499 294.314 152.562 292.604 153.623 290.889L151.922 289.837C150.863 291.549 149.801 293.258 148.737 294.962L150.434 296.021ZM157.851 284.002C158.2 283.429 158.549 282.855 158.897 282.281L157.187 281.243C156.84 281.817 156.491 282.39 156.143 282.962L157.851 284.002ZM160.977 278.836C162.015 277.11 163.049 275.378 164.078 273.64L162.357 272.621C161.33 274.355 160.299 276.083 159.263 277.806L160.977 278.836ZM168.161 266.667C168.497 266.087 168.831 265.507 169.166 264.926L167.432 263.928C167.099 264.508 166.765 265.087 166.43 265.665L168.161 266.667ZM171.165 261.428C172.161 259.674 173.151 257.912 174.135 256.142L172.387 255.17C171.406 256.935 170.419 258.691 169.426 260.44L171.165 261.428ZM178.011 249.066C178.33 248.476 178.647 247.884 178.964 247.292L177.201 246.349C176.885 246.939 176.568 247.528 176.251 248.116L178.011 249.066ZM180.855 243.727C181.796 241.938 182.73 240.14 183.656 238.332L181.876 237.42C180.954 239.222 180.023 241.013 179.085 242.796L180.855 243.727ZM187.272 231.139C187.568 230.537 187.865 229.933 188.16 229.328L186.362 228.451C186.068 229.054 185.773 229.655 185.478 230.255L187.272 231.139ZM189.919 225.686C190.791 223.861 191.655 222.026 192.51 220.178L190.694 219.339C189.843 221.178 188.983 223.006 188.114 224.824L189.919 225.686ZM195.821 212.855C196.093 212.24 196.364 211.623 196.634 211.005L194.801 210.205C194.532 210.821 194.263 211.434 193.992 212.047L195.821 212.855ZM198.24 207.282C199.029 205.427 199.809 203.561 200.579 201.682L198.728 200.923C197.962 202.794 197.186 204.652 196.399 206.498L198.24 207.282ZM203.559 194.208C203.803 193.58 204.046 192.95 204.287 192.318L202.419 191.604C202.179 192.232 201.937 192.859 201.695 193.485L203.559 194.208ZM205.721 188.513C206.42 186.631 207.109 184.736 207.786 182.827L205.902 182.158C205.228 184.058 204.542 185.944 203.846 187.817L205.721 188.513ZM210.406 175.212C210.62 174.572 210.832 173.93 211.042 173.286L209.142 172.663C208.932 173.304 208.721 173.943 208.509 174.58L210.406 175.212ZM212.292 169.406C212.896 167.498 213.489 165.576 214.07 163.64L212.154 163.065C211.576 164.991 210.986 166.904 210.385 168.802L212.292 169.406ZM216.309 155.903C216.491 155.252 216.671 154.599 216.85 153.945L214.92 153.418C214.743 154.069 214.563 154.718 214.383 155.366L216.309 155.903ZM217.906 150.001C218.414 148.068 218.909 146.12 219.393 144.159L217.451 143.68C216.97 145.632 216.477 147.569 215.972 149.493L217.906 150.001ZM221.243 136.326C221.392 135.667 221.54 135.007 221.686 134.345L219.733 133.914C219.587 134.573 219.441 135.23 219.292 135.886L221.243 136.326ZM222.546 130.352C222.958 128.392 223.358 126.417 223.746 124.429L221.783 124.046C221.397 126.025 220.999 127.99 220.589 129.94L222.546 130.352ZM225.208 116.535C225.324 115.871 225.439 115.205 225.553 114.538L223.581 114.202C223.468 114.866 223.354 115.528 223.238 116.189L225.208 116.535ZM226.219 110.514C226.538 108.522 226.846 106.515 227.141 104.494L225.162 104.205C224.868 106.217 224.562 108.214 224.244 110.197L226.219 110.514ZM228.224 96.5752C228.309 95.9092 228.393 95.2416 228.475 94.5725L226.49 94.3285C226.408 94.9947 226.325 95.6593 226.24 96.3223L228.224 96.5752ZM228.952 90.5384C229.182 88.512 229.4 86.4712 229.606 84.4159L227.616 84.2169C227.411 86.2633 227.194 88.2951 226.965 90.3126L228.952 90.5384ZM230.33 76.4848C230.385 75.8201 230.438 75.1538 230.491 74.4861L228.497 74.3298C228.445 74.9947 228.391 75.6581 228.337 76.32L230.33 76.4848ZM230.789 70.4612C230.93 68.4397 231.06 66.4043 231.177 64.3549L229.18 64.2408C229.063 66.2818 228.935 68.3088 228.794 70.3219L230.789 70.4612ZM231.572 56.2851C231.599 55.6247 231.624 54.963 231.649 54.2997L229.65 54.226C229.626 54.8867 229.6 55.5458 229.573 56.2036L231.572 56.2851ZM231.78 50.3029C231.838 48.2958 231.885 46.2755 231.92 44.2419L229.921 44.2073C229.886 46.2331 229.839 48.2456 229.781 50.2449L231.78 50.3029ZM231.999 36.0357C232 35.6909 232 35.3456 232 35L230 35C230 35.3443 230 35.6883 229.999 36.0319L231.999 36.0357Z" fill="black"/>
</g>
<defs>
<filter id="filter0_d" x="0.0129395" y="0" width="282.351" height="673.088" filterUnits="userSpaceOnUse" color-interpolation-filters="sRGB">
<feFlood flood-opacity="0" result="BackgroundImageFix"/>
<feColorMatrix in="SourceAlpha" type="matrix" values="0 0 0 0 0 0 0 0 0 0 0 0 0 0 0 0 0 0 127 0" result="hardAlpha"/>
<feOffset dy="10"/>
<feGaussianBlur stdDeviation="22"/>
<feColorMatrix type="matrix" values="0 0 0 0 0.341667 0 0 0 0 0.341667 0 0 0 0 0.341667 0 0 0 0.18 0"/>
<feBlend mode="normal" in2="BackgroundImageFix" result="effect1_dropShadow"/>
<feBlend mode="normal" in="SourceGraphic" in2="effect1_dropShadow" result="shape"/>
</filter>
</defs>
</svg>
