<svg width="134" height="294" viewBox="0 0 134 294" fill="none" xmlns="http://www.w3.org/2000/svg">
<path d="M28.5028 292.947C28.4736 293.222 28.6725 293.468 28.9471 293.497L33.4218 293.974C33.6963 294.003 33.9426 293.804 33.9719 293.529C34.0011 293.255 33.8022 293.009 33.5276 292.979L29.5501 292.556L29.9737 288.578C30.003 288.304 29.8041 288.057 29.5295 288.028C29.2549 287.999 29.0086 288.198 28.9793 288.472L28.5028 292.947ZM0.518285 1.13429C3.23882 10.688 9.49171 19.3854 17.8258 27.661C26.1608 35.9375 36.6095 43.823 47.7649 51.7435C70.1065 67.6063 95.267 83.6064 112.31 103.267C120.822 113.086 127.286 123.796 130.355 135.828C133.422 147.854 133.104 161.234 128.003 176.413C117.792 206.796 88.4174 244.377 28.6859 292.611L29.3141 293.389C89.0831 245.125 118.646 207.395 128.951 176.732C134.108 161.387 134.442 147.81 131.324 135.581C128.206 123.357 121.647 112.511 113.065 102.612C95.9206 82.8336 70.6119 66.7387 48.3438 50.9281C37.1944 43.0118 26.8031 35.1661 18.5304 26.9515C10.257 18.736 4.13466 10.1826 1.48004 0.860418L0.518285 1.13429Z" fill="black"/>
</svg>
