<svg width="231" height="375" viewBox="0 0 231 375" fill="none" xmlns="http://www.w3.org/2000/svg">
<g filter="url(#filter0_d)">
<path d="M180.92 35.2282C180.77 34.9964 180.46 34.9302 180.228 35.0803L176.451 37.5264C176.219 37.6765 176.153 37.9861 176.303 38.2179C176.453 38.4497 176.763 38.5159 176.995 38.3658L180.352 36.1915L182.526 39.5489C182.677 39.7807 182.986 39.8469 183.218 39.6968C183.45 39.5467 183.516 39.2371 183.366 39.0054L180.92 35.2282ZM46.0589 320.092C46.1119 319.743 46.1651 319.395 46.2184 319.048L45.23 318.896C45.1766 319.243 45.1234 319.592 45.0702 319.941L46.0589 320.092ZM46.8642 314.942C47.1902 312.917 47.5207 310.932 47.8558 308.987L46.8703 308.817C46.5346 310.766 46.2035 312.754 45.8769 314.784L46.8642 314.942ZM49.2801 301.096C49.4084 300.417 49.5373 299.744 49.6667 299.076L48.685 298.886C48.5552 299.555 48.4261 300.23 48.2975 300.91L49.2801 301.096ZM50.4508 295.129C50.8535 293.152 51.2616 291.221 51.6751 289.336L50.6983 289.122C50.2837 291.012 49.8745 292.948 49.4709 294.93L50.4508 295.129ZM53.5119 281.399C53.6678 280.761 53.8243 280.129 53.9815 279.502L53.0116 279.259C52.8538 279.887 52.6968 280.522 52.5405 281.162L53.5119 281.399ZM54.99 275.593C55.5234 273.583 56.0642 271.634 56.6123 269.743L55.6518 269.465C55.1015 271.363 54.5587 273.32 54.0234 275.336L54.99 275.593ZM58.9863 262.045C59.1965 261.404 59.4077 260.771 59.6199 260.145L58.6728 259.824C58.4596 260.453 58.2474 261.089 58.0361 261.733L58.9863 262.045ZM60.9106 256.457C61.6281 254.473 62.3559 252.565 63.0934 250.731L62.1656 250.358C61.4235 252.204 60.6916 254.122 59.9701 256.117L60.9106 256.457ZM66.2839 243.359C66.5651 242.756 66.8475 242.162 67.1312 241.576L66.2312 241.14C65.9454 241.731 65.6608 242.329 65.3776 242.937L66.2839 243.359ZM68.9421 237.983C69.8982 236.16 70.8676 234.425 71.8495 232.769L70.9893 232.259C69.9984 233.93 69.0206 235.681 68.0565 237.519L68.9421 237.983ZM76.212 226.012C76.604 225.455 76.9977 224.907 77.3932 224.368L76.587 223.776C76.1876 224.32 75.7898 224.874 75.3939 225.437L76.212 226.012ZM79.8094 221.212C81.0891 219.608 82.3857 218.086 83.6982 216.629L82.9552 215.96C81.6301 217.431 80.3206 218.968 79.0278 220.588L79.8094 221.212ZM89.2897 210.855C89.7721 210.389 90.2563 209.928 90.7423 209.472L90.0577 208.743C89.5684 209.202 89.0808 209.666 88.5948 210.136L89.2897 210.855ZM93.7025 206.76C95.2006 205.418 96.7144 204.103 98.2429 202.794L97.5923 202.034C96.0605 203.347 94.5408 204.666 93.0353 206.015L93.7025 206.76ZM104.384 197.574C104.893 197.14 105.405 196.703 105.917 196.264L105.266 195.505C104.754 195.944 104.244 196.379 103.735 196.813L104.384 197.574ZM108.963 193.619C110.452 192.309 111.949 190.962 113.455 189.559L112.774 188.827C111.276 190.223 109.785 191.564 108.303 192.868L108.963 193.619ZM119.253 183.884C119.708 183.414 120.165 182.937 120.621 182.452L119.893 181.767C119.44 182.248 118.987 182.721 118.535 183.188L119.253 183.884ZM123.366 179.453C124.666 177.99 125.97 176.46 127.277 174.852L126.501 174.221C125.204 175.817 123.909 177.336 122.619 178.789L123.366 179.453ZM132.191 168.432C132.592 167.875 132.993 167.311 133.395 166.737L132.576 166.164C132.177 166.733 131.778 167.294 131.38 167.847L132.191 168.432ZM135.626 163.459C136.719 161.809 137.812 160.088 138.906 158.293L138.052 157.773C136.965 159.558 135.878 161.267 134.792 162.907L135.626 163.459ZM142.964 151.275C143.279 150.701 143.594 150.12 143.909 149.532L143.028 149.06C142.715 149.645 142.401 150.222 142.087 150.793L142.964 151.275ZM145.755 146.008C146.662 144.235 147.569 142.4 148.475 140.501L147.573 140.07C146.67 141.961 145.768 143.787 144.864 145.553L145.755 146.008ZM151.816 133.197C152.094 132.563 152.372 131.923 152.649 131.275L151.731 130.881C151.454 131.526 151.177 132.164 150.9 132.796L151.816 133.197ZM154.177 127.648C154.931 125.823 155.685 123.947 156.437 122.019L155.506 121.656C154.755 123.577 154.004 125.447 153.253 127.267L154.177 127.648ZM159.271 114.495C159.498 113.873 159.724 113.245 159.95 112.612L159.009 112.276C158.783 112.907 158.557 113.533 158.331 114.154L159.271 114.495ZM161.306 108.755C161.954 106.882 162.601 104.966 163.247 103.006L162.297 102.693C161.653 104.648 161.007 106.559 160.361 108.428L161.306 108.755ZM165.691 95.3617C165.894 94.7068 166.097 94.0473 166.3 93.3833L165.344 93.0909C165.141 93.7536 164.938 94.4118 164.736 95.0654L165.691 95.3617ZM167.479 89.4698C168.03 87.6125 168.581 85.7207 169.131 83.7934L168.169 83.5191C167.62 85.443 167.071 87.3314 166.52 89.1852L167.479 89.4698ZM171.324 75.8933C171.504 75.2279 171.684 74.5585 171.864 73.8851L170.897 73.6273C170.718 74.2997 170.538 74.968 170.359 75.6323L171.324 75.8933ZM172.856 70.12C173.352 68.217 173.847 66.283 174.34 64.3175L173.371 64.0739C172.877 66.0366 172.383 67.9678 171.888 69.868L172.856 70.12ZM176.311 56.2858C176.463 55.6493 176.615 55.0097 176.768 54.367L175.794 54.1365C175.642 54.7784 175.49 55.4172 175.338 56.0529L176.311 56.2858ZM177.661 50.5555C178.107 48.6315 178.552 46.6802 178.996 44.7009L178.02 44.4819C177.577 46.4589 177.132 48.408 176.687 50.3297L177.661 50.5555ZM180.768 36.634C180.842 36.2917 180.915 35.9485 180.989 35.6046L180.011 35.3954C179.938 35.739 179.864 36.0818 179.791 36.4238L180.768 36.634ZM181.339 34.9564C181.039 34.4929 180.42 34.3604 179.956 34.6606L172.402 39.5528C171.939 39.853 171.806 40.4722 172.106 40.9358C172.407 41.3994 173.026 41.5318 173.489 41.2316L180.204 36.8829L184.553 43.5978C184.853 44.0614 185.472 44.1938 185.936 43.8936C186.399 43.5934 186.532 42.9742 186.232 42.5107L181.339 34.9564ZM46.5532 320.167C46.6062 319.818 46.6593 319.471 46.7126 319.124L44.7358 318.82C44.6824 319.168 44.6291 319.516 44.5759 319.866L46.5532 320.167ZM47.3579 315.022C47.6835 312.998 48.0138 311.015 48.3485 309.072L46.3775 308.732C46.0415 310.683 45.7101 312.673 45.3833 314.704L47.3579 315.022ZM49.7714 301.188C49.8995 300.511 50.0283 299.838 50.1576 299.171L48.1942 298.791C48.0642 299.461 47.9349 300.136 47.8062 300.817L49.7714 301.188ZM50.9407 295.229C51.3429 293.254 51.7505 291.326 52.1635 289.443L50.2099 289.015C49.7948 290.907 49.3851 292.845 48.981 294.83L50.9407 295.229ZM53.9977 281.518C54.1533 280.881 54.3095 280.249 54.4665 279.624L52.5266 279.137C52.3686 279.767 52.2113 280.402 52.0548 281.043L53.9977 281.518ZM55.4733 275.721C56.0057 273.715 56.5455 271.77 57.0925 269.882L55.1716 269.326C54.6202 271.228 54.0764 273.188 53.5402 275.208L55.4733 275.721ZM59.4613 262.2C59.6711 261.561 59.8818 260.93 60.0934 260.305L58.1993 259.663C57.9856 260.294 57.7728 260.932 57.5611 261.577L59.4613 262.2ZM61.3808 256.627C62.0964 254.648 62.8221 252.746 63.5574 250.917L61.7017 250.171C60.9573 252.023 60.2233 253.947 59.4999 255.947L61.3808 256.627ZM66.7371 243.571C67.0172 242.97 67.2986 242.378 67.5812 241.794L65.7812 240.922C65.4943 241.515 65.2087 242.116 64.9244 242.725L66.7371 243.571ZM69.3849 238.215C70.3371 236.4 71.3022 234.672 72.2796 233.024L70.5592 232.004C69.5637 233.683 68.5817 235.441 67.6137 237.286L69.3849 238.215ZM76.621 226.3C77.0111 225.745 77.4028 225.2 77.7963 224.664L76.1839 223.48C75.7825 224.027 75.3828 224.583 74.9849 225.149L76.621 226.3ZM80.2002 221.524C81.4734 219.928 82.7635 218.414 84.0697 216.964L82.5837 215.626C81.2523 217.103 79.9363 218.648 78.637 220.276L80.2002 221.524ZM89.6371 211.215C90.1177 210.75 90.6002 210.291 91.0846 209.836L89.7154 208.378C89.2245 208.839 88.7352 209.305 88.2474 209.776L89.6371 211.215ZM94.0361 207.132C95.5305 205.794 97.0413 204.481 98.5683 203.173L97.267 201.654C95.7336 202.968 94.2109 204.291 92.7017 205.642L94.0361 207.132ZM104.708 197.955C105.218 197.52 105.73 197.083 106.242 196.643L104.94 195.125C104.429 195.564 103.92 195.999 103.411 196.432L104.708 197.955ZM109.294 193.994C110.785 192.682 112.286 191.332 113.796 189.925L112.433 188.461C110.939 189.853 109.452 191.191 107.973 192.493L109.294 193.994ZM119.612 184.232C120.069 183.76 120.527 183.281 120.985 182.795L119.529 181.424C119.078 181.903 118.627 182.375 118.176 182.84L119.612 184.232ZM123.74 179.785C125.045 178.317 126.353 176.781 127.665 175.167L126.112 173.906C124.82 175.496 123.531 177.01 122.245 178.457L123.74 179.785ZM132.596 168.724C132.999 168.166 133.402 167.599 133.804 167.024L132.166 165.877C131.769 166.445 131.371 167.004 130.974 167.554L132.596 168.724ZM136.043 163.735C137.139 162.079 138.236 160.354 139.333 158.553L137.625 157.512C136.541 159.292 135.457 160.996 134.375 162.631L136.043 163.735ZM143.402 151.516C143.718 150.94 144.034 150.358 144.35 149.769L142.588 148.823C142.275 149.407 141.962 149.983 141.649 150.553L143.402 151.516ZM146.2 146.236C147.109 144.458 148.018 142.619 148.927 140.716L147.122 139.855C146.221 141.742 145.32 143.564 144.419 145.325L146.2 146.236ZM152.274 133.398C152.552 132.763 152.831 132.121 153.109 131.473L151.271 130.684C150.995 131.327 150.718 131.964 150.442 132.595L152.274 133.398ZM154.639 127.839C155.395 126.011 156.149 124.132 156.903 122.201L155.04 121.474C154.291 123.393 153.541 125.259 152.791 127.076L154.639 127.839ZM159.741 114.666C159.968 114.043 160.195 113.414 160.421 112.781L158.538 112.107C158.313 112.737 158.087 113.363 157.862 113.983L159.741 114.666ZM161.779 108.918C162.428 107.043 163.075 105.124 163.722 103.162L161.822 102.536C161.179 104.489 160.534 106.398 159.889 108.265L161.779 108.918ZM166.168 95.5099C166.372 94.8543 166.575 94.1941 166.778 93.5294L164.865 92.9448C164.663 93.6068 164.461 94.2643 164.258 94.9172L166.168 95.5099ZM167.958 89.6122C168.51 87.7531 169.061 85.8595 169.612 83.9305L167.688 83.382C167.14 85.3042 166.591 87.1908 166.041 89.0428L167.958 89.6122ZM171.807 76.0238C171.987 75.3578 172.167 74.6879 172.347 74.0141L170.414 73.4984C170.235 74.1702 170.056 74.838 169.876 75.5018L171.807 76.0238ZM173.34 70.2461C173.836 68.3416 174.331 66.4062 174.825 64.4394L172.886 63.952C172.393 65.9134 171.899 67.8432 171.405 69.7419L173.34 70.2461ZM176.797 56.4023C176.949 55.7654 177.102 55.1254 177.254 54.4823L175.308 54.0212C175.156 54.6628 175.004 55.3011 174.852 55.9364L176.797 56.4023ZM178.148 50.6684C178.594 48.7433 179.04 46.7908 179.484 44.8104L177.533 44.3724C177.089 46.3483 176.645 48.2963 176.199 50.2167L178.148 50.6684ZM181.257 36.7391C181.331 36.3966 181.404 36.0533 181.478 35.7092L179.522 35.2909C179.449 35.6343 179.375 35.9769 179.302 36.3187L181.257 36.7391Z" fill="black"/>
</g>
<defs>
<filter id="filter0_d" x="0.575684" y="0.5" width="229.816" height="373.667" filterUnits="userSpaceOnUse" color-interpolation-filters="sRGB">
<feFlood flood-opacity="0" result="BackgroundImageFix"/>
<feColorMatrix in="SourceAlpha" type="matrix" values="0 0 0 0 0 0 0 0 0 0 0 0 0 0 0 0 0 0 127 0" result="hardAlpha"/>
<feOffset dy="10"/>
<feGaussianBlur stdDeviation="22"/>
<feColorMatrix type="matrix" values="0 0 0 0 0.341667 0 0 0 0 0.341667 0 0 0 0 0.341667 0 0 0 0.18 0"/>
<feBlend mode="normal" in2="BackgroundImageFix" result="effect1_dropShadow"/>
<feBlend mode="normal" in="SourceGraphic" in2="effect1_dropShadow" result="shape"/>
</filter>
</defs>
</svg>
