<svg width="83" height="25" viewBox="0 0 83 25" fill="none" xmlns="http://www.w3.org/2000/svg">
<path d="M82.1582 15.3895C83.2806 14.8283 83.2806 13.0043 82.1582 12.4431C73.4594 7.6728 64.6203 3.32339 55.0796 0.797931C53.6766 0.517324 52.2736 2.06066 53.1154 3.32339C55.0796 6.12946 57.4648 8.51462 60.2709 10.6192C40.6284 10.058 20.2844 7.39219 0.922531 12.0222C-0.4805 12.3028 -0.199906 14.6877 1.20336 14.5474C21.2667 12.0222 41.1898 13.9865 61.2532 14.2668C59.1487 16.652 57.0441 19.0371 54.9396 21.282C53.9574 22.2641 54.5186 24.3689 56.2023 24.2286C65.4621 23.1059 74.1609 20.0193 82.1582 15.3895ZM65.4621 13.8461C66.7248 13.0043 66.4442 10.6192 64.48 10.6192C64.3397 10.6192 64.1993 10.6192 64.1993 10.6192C62.5157 8.93553 60.8321 7.39219 59.1484 5.56825C65.6024 7.8131 71.6354 10.6192 77.6685 13.8459C72.1966 16.652 66.5845 18.7565 60.5515 19.879C61.9545 18.3356 63.3575 16.652 64.9009 15.1084C65.4621 14.8283 65.6024 14.2668 65.4621 13.8461Z" fill="black"/>
</svg>
