<svg width="841" height="841" viewBox="0 0 841 841" fill="none" xmlns="http://www.w3.org/2000/svg">
<g opacity="0.15" clip-path="url(#clip0)">
<path d="M793.175 655.451C766.808 657.305 728.61 634.928 697.97 597.301C689.315 586.555 681.636 575.058 675.021 562.952C679.153 548.703 675.605 504.52 680.725 490.579C695.403 497.707 722.753 533.454 742.846 535.872C746.984 540.152 751.969 545.849 755.677 550.269C786.33 588.037 800.303 629.943 793.175 655.451Z" fill="#24AE5F"/>
<path d="M841.202 513.354C825.952 530.888 788.325 540.722 745.855 536.302L742.865 535.872C724.158 533.717 705.918 528.572 688.847 520.623C691.201 514.04 673.95 498.887 676.503 492.363C680.282 482.643 703.968 481.572 708.228 472.026C722.971 469.985 737.9 469.748 752.7 471.313C795.171 475.727 829.801 493.12 841.202 513.354Z" fill="#4FBA6F"/>
<path d="M757.114 378.957C748.28 393.206 740.011 407.743 732.318 422.428C723.625 438.672 715.638 455.205 708.228 472.026C701.107 487.988 694.692 504.232 688.847 520.624C683.715 534.59 679.153 548.704 675.022 562.953C671.031 576.066 667.471 589.321 664.334 602.864C607.576 598.893 553.538 577.035 509.977 540.435V540.293C509.553 537.888 509.271 535.463 509.124 533.025C550.536 465.085 580.887 390.999 599.056 313.538C608.865 314.231 618.623 315.514 628.272 317.387C648.693 320.942 668.606 326.972 687.564 335.344C712.847 346.225 736.309 360.936 757.114 378.957Z" fill="#71C285"/>
<path d="M664.333 602.864C621.529 671.933 590.241 747.507 571.694 826.623C550.041 825.013 528.659 820.849 507.981 814.222C509.977 813.651 512.119 813.086 514.115 812.374C501.001 731.558 473.21 719.471 486.323 638.662C484.751 628.686 511.119 550.411 509.977 540.435C553.538 577.035 607.575 598.892 664.333 602.864Z" fill="#4FBA6F"/>
<path d="M511.972 555.973L514.115 570.081C467.693 585.58 417.928 588.147 370.164 577.491C368.881 572.929 367.457 568.515 366.315 563.954C363.749 555.113 361.613 546.279 359.476 537.297C356.057 531.742 352.631 526.038 349.5 520.341C355.621 456.148 353.471 391.435 343.085 327.793C398.591 309.259 458.608 309.259 514.115 327.793C502.984 395.644 501.31 464.713 509.124 533.025C509.271 535.463 509.554 537.888 509.977 540.294V540.435C510.548 545.708 511.26 550.841 511.972 555.973Z" fill="#4FBA6F"/>
<path d="M514.115 812.374C512.12 813.086 509.977 813.65 507.982 814.221C457.768 829.721 404.121 830.222 353.631 815.652C389.545 804.816 307.735 738.114 337.529 712.607C304.604 659.3 356.056 661.866 337.529 602.863C335.816 597.731 371.73 582.622 370.164 577.49C417.927 588.146 467.692 585.58 514.115 570.08C513.255 575.212 512.543 580.486 511.831 585.618C501.046 660.878 501.816 737.345 514.115 812.374Z" fill="#71C285"/>
<path d="M514.115 327.793C458.608 309.258 398.591 309.258 343.085 327.793C350.289 263.201 353.523 198.232 352.779 133.243C352.779 130.395 352.779 127.116 352.631 124.268C353.022 125.121 353.503 125.929 354.062 126.686C366.033 142.507 403.57 93.7685 447.323 60.5555C478.965 36.613 508.842 43.7406 514.314 24.3594C507.129 108.447 503.85 264.369 514.115 327.793Z" fill="#71C285"/>
<path d="M217.752 611.415C218.464 603.858 205.832 616.4 204.837 609.844C205.691 608.561 207.243 571.364 207.955 570.081C195.843 556.255 208.687 533.166 179.894 529.175C161.828 476.62 137.975 426.239 108.778 378.957C152.859 340.496 208.321 317.522 266.689 313.538C283.716 386.251 311.636 455.968 349.5 520.341C350.353 521.907 351.348 523.62 352.208 525.185C354.626 529.317 357.051 533.307 359.476 537.297C325.218 567.226 283.844 587.839 239.327 597.16C240.61 591.887 217.181 616.4 217.752 611.415Z" fill="#71C285"/>
<path d="M452.116 761.204C423.477 786.07 389.918 804.624 353.632 815.652C334.276 821.445 314.35 825.128 294.199 826.622C278.93 761.518 254.961 698.768 222.935 640.06C227.856 630.674 232.007 620.903 235.336 610.844C236.902 606.283 238.185 601.721 239.327 597.301V597.16C283.844 587.838 325.217 567.225 359.476 537.297C360.612 542.429 361.895 547.421 363.178 552.553C365.321 560.957 367.739 569.227 370.164 577.49C389.071 642.145 416.638 703.945 452.116 761.204Z" fill="#4FBA6F"/>
<path d="M266.689 313.538C208.321 317.522 152.859 340.496 108.778 378.956C90.154 299.796 58.8207 224.183 15.991 155.05C60.2001 116.698 115.668 93.7432 174.049 89.6309C192.622 168.785 223.91 244.404 266.689 313.538Z" fill="#4FBA6F"/>
<path d="M514.397 23.7886C514.397 24.0709 514.397 24.212 514.256 24.3596C508.841 43.7407 486.605 71.2439 454.964 95.1929C411.21 128.399 366.033 142.507 354.061 126.687C353.503 125.93 353.022 125.121 352.631 124.268V124.12C344.509 107.023 369.876 69.5374 411.64 38.0374C455.394 4.83082 500.572 -9.27684 512.543 6.39619C515.841 11.5863 516.527 18.0211 514.397 23.7886Z" fill="#F9EAB0"/>
<path d="M239.327 597.16V597.301C235.561 612.146 230.056 626.498 222.935 640.06C214.717 655.444 205.023 670.007 194.001 683.531C156.381 729.992 109.343 757.502 76.8481 755.218C68.0139 723.865 85.2588 672.272 123.027 625.805C128.159 619.537 133.292 613.692 138.706 608.137C186.733 602.433 226.072 583.475 241.604 560.675C243.189 572.871 242.419 585.259 239.327 597.16Z" fill="#24AE5F"/>
<path d="M241.604 560.674C240.892 561.958 242.464 559.391 241.604 560.674C226.072 583.475 186.732 602.433 138.706 608.136L134.998 608.56C82.6925 613.974 36.5138 601.862 17.7036 580.344C31.8113 555.26 74.4293 534.018 126.735 528.603C144.416 526.711 162.257 526.903 179.893 529.174C203.567 531.965 225.456 543.141 241.604 560.674Z" fill="#4FBA6F"/>
<path d="M664.347 617.111C663.975 617.111 663.59 617.111 663.224 617.111C603.541 612.871 546.719 589.884 500.874 551.436C496.947 548.184 495.061 543.077 495.921 538.053C496.781 533.03 500.251 528.841 505.031 527.07C509.817 525.3 515.18 526.217 519.1 529.476C560.435 564.107 611.656 584.803 665.444 588.607C673.315 588.909 679.449 595.536 679.147 603.408C678.846 611.28 672.218 617.413 664.347 617.111Z" fill="#4C8056"/>
<path d="M571.707 840.878C571.348 840.878 570.963 840.878 570.597 840.878C547.828 839.178 525.348 834.796 503.606 827.822C498.506 826.469 494.573 822.414 493.374 817.275C492.18 812.137 493.919 806.754 497.903 803.29C501.881 799.825 507.449 798.844 512.376 800.743C531.988 807.011 552.268 810.956 572.804 812.483C580.676 812.785 586.815 819.405 586.514 827.277C586.219 835.149 579.591 841.289 571.72 840.987L571.707 840.878Z" fill="#4C8056"/>
<path d="M514.115 342.041C512.62 342.041 511.138 341.804 509.72 341.342C457.056 323.853 400.15 323.853 347.485 341.342C342.571 343.209 337.035 342.215 333.07 338.757C329.112 335.305 327.373 329.948 328.547 324.829C329.721 319.703 333.622 315.642 338.696 314.262C397.064 294.862 460.148 294.862 518.516 314.262C525.137 316.463 529.191 323.128 528.101 330.019C527.01 336.909 521.088 341.996 514.115 342.041Z" fill="#4C8056"/>
<path d="M518.529 583.623C516.251 584.335 514.115 585.047 511.831 585.618C484.764 593.888 456.619 598.109 428.314 598.16C410.415 598.173 392.561 596.409 375.008 592.887C373.302 587.755 371.73 582.622 370.164 577.49C368.881 572.928 367.457 568.515 366.315 563.953C368.56 563.17 370.979 563.023 373.302 563.523C418.556 573.596 465.704 571.183 509.695 556.543C510.407 556.396 511.119 556.113 511.972 555.972C519.324 554.83 526.311 559.533 528.03 566.763C529.743 574 525.611 581.339 518.529 583.623Z" fill="#4C8056"/>
<path d="M428.43 840.435C401.825 840.39 375.354 836.663 349.769 829.362C342.411 827.052 338.228 819.309 340.319 811.892C342.411 804.47 350.032 800.062 357.507 801.936C405.392 815.678 456.234 815.209 503.85 800.582C508.758 799.004 514.134 800.191 517.913 803.693C521.698 807.196 523.289 812.47 522.089 817.48C520.883 822.491 517.066 826.462 512.1 827.861C484.982 836.143 456.786 840.377 428.43 840.435Z" fill="#4C8056"/>
<path d="M368.74 548.133C366.886 549.699 365.032 551.27 363.178 552.554C328.214 581.635 286.68 601.741 242.176 611.127C241.233 611.294 240.283 611.39 239.327 611.416C237.973 611.441 236.626 611.249 235.337 610.845C236.902 606.283 238.185 601.722 239.327 597.302V597.16C240.552 592.137 241.457 587.043 242.034 581.911C282.106 572.608 319.264 553.567 350.212 526.468C350.783 525.91 351.463 525.474 352.208 525.185C358.097 521.451 365.847 522.677 370.306 528.034C372.763 530.908 373.982 534.641 373.687 538.407C373.392 542.18 371.614 545.676 368.74 548.133Z" fill="#4C8056"/>
<path d="M108.778 393.206C102.812 393.212 97.4744 389.504 95.3958 383.91C93.3236 378.316 94.9531 372.022 99.4824 368.141C145.898 327.736 204.222 303.562 265.611 299.283C269.384 298.956 273.137 300.162 276.017 302.632C278.891 305.102 280.656 308.631 280.899 312.409C281.214 316.194 280.001 319.947 277.538 322.834C275.074 325.721 271.559 327.505 267.773 327.794C212.478 331.656 159.942 353.43 118.126 389.819C115.521 392.038 112.198 393.244 108.778 393.206Z" fill="#4C8056"/>
<path d="M294.185 840.877C286.314 841.185 279.68 835.052 279.379 827.18C279.071 819.308 285.204 812.675 293.069 812.373C348.377 808.421 400.92 786.673 442.839 750.374C448.818 745.254 457.819 745.96 462.932 751.939C468.052 757.925 467.346 766.92 461.367 772.039C414.906 812.309 356.659 836.457 295.34 840.877H294.185Z" fill="#4C8056"/>
<path d="M15.991 169.33C10.0246 169.324 4.69973 165.609 2.63395 160.009C0.568161 154.414 2.21053 148.127 6.73986 144.246C53.2585 103.989 111.537 79.8472 172.895 75.4205C180.747 74.811 187.605 80.6748 188.215 88.5209C188.831 96.367 182.967 103.225 175.121 103.841C119.774 107.832 67.1994 129.606 25.2421 165.924C22.6631 168.131 19.3848 169.343 15.991 169.33Z" fill="#4C8056"/>
<path d="M757.114 393.205C753.721 393.212 750.436 391.993 747.85 389.786C728.136 372.727 705.925 358.793 681.989 348.457C664.006 340.502 645.119 334.754 625.751 331.354C616.596 329.596 607.345 328.409 598.042 327.793C590.171 327.228 584.243 320.396 584.807 312.524C585.365 304.652 592.198 298.724 600.07 299.282C610.444 300.027 620.766 301.387 630.979 303.363C652.471 307.135 673.418 313.493 693.376 322.301C719.911 333.759 744.527 349.214 766.378 368.127C770.914 372.002 772.556 378.296 770.484 383.896C768.418 389.491 763.081 393.212 757.114 393.205Z" fill="#4C8056"/>
</g>
<defs>
<clipPath id="clip0">
<rect width="841" height="841" fill="white"/>
</clipPath>
</defs>
</svg>
