<svg width="65" height="55" viewBox="0 0 65 55" fill="none" xmlns="http://www.w3.org/2000/svg">
<path d="M64.5 31.6893C64.5 37.4589 63.4464 41.7367 61.6245 44.9173C59.8068 48.0905 57.2027 50.2096 54.0293 51.6298C47.6367 54.4906 38.9929 54.5 29.9342 54.5C20.9709 54.5 13.6259 52.6016 8.52568 48.2398C3.44062 43.8909 0.5 37.0171 0.5 26.8666C0.5 21.8372 1.84111 17.8433 4.0542 14.6415C6.27091 11.4344 9.38097 8.99579 12.9551 7.11312C20.1172 3.34041 29.0591 1.84119 36.1622 0.835802C43.1727 -0.15649 50.2357 0.944979 55.5427 5.54153C60.8466 10.1353 64.5 18.3099 64.5 31.6893Z" stroke="black"/>
</svg>
