<svg width="30" height="30" viewBox="0 0 30 30" fill="none" xmlns="http://www.w3.org/2000/svg">
<g clip-path="url(#clip0)">
<path d="M18.1748 2.86537V1.71434C18.1748 0.767618 17.4074 0 16.4604 0C15.5137 0 14.7461 0.767618 14.7461 1.71434V2.89189C15.8835 2.74063 17.0353 2.7317 18.1748 2.86537Z" fill="#CBCACA"/>
<path d="M26.5057 20.4159C26.5017 20.4185 26.4978 20.4209 26.4938 20.4232L22.0441 23.1216C22.1187 23.3719 22.1665 23.6292 22.1865 23.8897C22.209 24.1857 21.9874 24.4441 21.6912 24.467L14.7936 24.9935C14.7797 24.9945 14.7658 24.9951 14.7519 24.9951C14.463 24.9948 14.2259 24.7663 14.2148 24.4775C14.2041 24.1886 14.4234 23.9428 14.7117 23.921L21.0173 23.4396C20.6714 22.266 19.5535 21.4934 18.3334 21.585L14.1371 21.9054C13.3038 21.9679 12.4674 21.8424 11.6896 21.5378L11.241 21.3616C9.05108 20.4955 6.56308 20.8938 4.75342 22.4007L5.21457 28.4413L5.85219 28.0091C6.53315 27.5464 7.36721 27.3662 8.17842 27.5067L15.4856 28.7609C16.8764 28.8978 18.2751 28.5926 19.4823 27.8883L28.6289 20.5243C28.018 20.0359 27.1632 19.992 26.5057 20.4159Z" fill="#CBCACA"/>
<path d="M4.19123 17.3744C4.71278 18.4123 5.77951 19.063 6.94105 19.052H26.2155C27.3771 19.063 28.4438 18.4123 28.9651 17.3744L30.0145 15.1527H3.14209L4.19123 17.3744Z" fill="#CBCACA"/>
<path d="M0.0158691 20.9746L3.54513 20.7052L4.23396 29.7307L0.704966 30.0001L0.0158691 20.9746Z" fill="#CBCACA"/>
<path d="M24.7855 6.99834C22.5998 4.97018 19.685 3.84961 16.5781 3.84961C13.4713 3.84961 10.5566 4.96887 8.37088 6.99703C6.32039 8.89992 5.13916 11.3879 5.01074 14.0771H28.1456C28.0172 11.3879 26.836 8.90123 24.7855 6.99834Z" fill="#CBCACA"/>
</g>
<defs>
<clipPath id="clip0">
<rect width="30" height="30" fill="white"/>
</clipPath>
</defs>
</svg>
