<svg width="30" height="30" viewBox="0 0 30 30" fill="none" xmlns="http://www.w3.org/2000/svg">
<g clip-path="url(#clip0)">
<path d="M29.6242 14.6487C30.168 14.0506 30.1155 13.1339 29.5069 12.6017L16.0995 0.870202C15.491 0.338018 14.5153 0.349166 13.9195 0.895335L0.466585 13.2272C-0.129164 13.7734 -0.158404 14.6889 0.401847 15.2713L0.739132 15.6225C1.2987 16.2049 2.20318 16.2743 2.75805 15.7772L3.76345 14.8768V28.0584C3.76345 28.8671 4.41875 29.5218 5.22691 29.5218H10.4709C11.2791 29.5218 11.9344 28.8671 11.9344 28.0584V18.8366H18.6231V28.0584C18.6115 28.8665 19.1898 29.5213 19.9979 29.5213H25.5552C26.3634 29.5213 27.0187 28.8665 27.0187 28.0578V15.0624C27.0187 15.0624 27.2964 15.3057 27.639 15.6068C27.981 15.9073 28.6992 15.6664 29.2431 15.0677L29.6242 14.6487Z" fill="#CBCACA"/>
</g>
<defs>
<clipPath id="clip0">
<rect width="30" height="30" fill="white"/>
</clipPath>
</defs>
</svg>
