<svg width="120" height="34" viewBox="0 0 120 34" fill="none" xmlns="http://www.w3.org/2000/svg">
<path d="M23.6591 16.9758C23.6591 10.8603 18.3847 5.91211 11.866 5.91211C5.3191 5.91211 0.0216016 11.2952 0.0216016 17.9471L0.0166016 33.9654H5.84035L5.84535 26.9805C9.6416 29.0866 14.3585 29.0428 18.0729 26.8626C23.7391 23.537 23.6672 17.2401 23.6591 16.9758Z" fill="white"/>
<path d="M47.2756 5.91211H41.6231V7.65729C39.7944 6.48337 37.7794 5.91211 35.4544 5.91211C28.9356 5.91211 23.6612 10.8609 23.6612 16.9758C23.6531 17.2395 23.5813 23.537 29.2475 26.8626C32.9619 29.0428 37.6788 29.0866 41.475 26.9806V28.5693L47.2988 28.5948V17.9471L47.2756 5.91211Z" fill="white"/>
<path d="M72.7363 16.7263C72.595 10.7263 67.3757 5.91211 60.9463 5.91211C58.6207 5.91211 56.6063 6.48337 54.7775 7.65729V6.83122V5.91211H49.1251L49.1019 17.9471V28.5948H72.7394C72.7394 28.5948 72.7382 16.8093 72.7363 16.7263Z" fill="white"/>
<path d="M96.3593 0.0439453H90.7049L90.7018 7.65698C88.8731 6.48306 86.8581 5.9118 84.5331 5.9118C78.015 5.9118 72.74 10.8605 72.74 16.9755C72.7319 17.2392 72.66 23.5367 78.3262 26.8623C82.0406 29.0425 86.7575 29.0863 90.5537 26.9802V28.569L96.3774 28.5945V17.9468L96.3593 0.0439453Z" fill="white"/>
<path d="M119.993 5.91211H114.341V7.65729C112.512 6.48337 110.497 5.91211 108.172 5.91211C101.653 5.91211 96.3789 10.8609 96.3789 16.9758C96.3708 17.2395 96.2989 23.537 101.965 26.8626C105.68 29.0428 110.396 29.0866 114.193 26.9806V28.5693L120.016 28.5948V17.9471L119.993 5.91211Z" fill="white"/>
</svg>
