<svg width="53" height="226" viewBox="0 0 53 226" fill="none" xmlns="http://www.w3.org/2000/svg">
<path d="M17.7598 77.0199H30.4798V69.8599H31.9998V78.6999H17.7598V77.0199ZM27.5198 61.9608H21.6798V60.3608H31.9998V61.8808H30.4598C31.6465 62.6675 32.2398 63.7475 32.2398 65.1208C32.2398 66.2675 31.9265 67.1608 31.2998 67.8008C30.6731 68.4408 29.7931 68.7608 28.6598 68.7608H21.6798V67.1608H28.4998C30.0331 67.1608 30.7998 66.3742 30.7998 64.8008C30.7998 64.0542 30.5198 63.3942 29.9598 62.8208C29.3998 62.2475 28.5865 61.9608 27.5198 61.9608ZM21.4398 53.2001C21.4398 52.0534 21.7531 51.1601 22.3798 50.5201C23.0065 49.8801 23.8865 49.5601 25.0198 49.5601H31.9998V51.1601H25.1798C23.6465 51.1601 22.8798 51.9467 22.8798 53.5201C22.8798 54.2667 23.1598 54.9267 23.7198 55.5001C24.2798 56.0734 25.0931 56.3601 26.1598 56.3601H31.9998V57.9601H21.6798V56.4401H23.2198C22.0331 55.6534 21.4398 54.5734 21.4398 53.2001ZM32.2398 42.8793C32.2398 44.3059 31.7465 45.4593 30.7598 46.3393C29.7731 47.2193 28.4665 47.6593 26.8398 47.6593C25.1865 47.6593 23.8731 47.2193 22.8998 46.3393C21.9265 45.4859 21.4398 44.3326 21.4398 42.8793C21.4398 41.6526 21.7731 40.6459 22.4398 39.8593C23.1065 39.0726 24.0198 38.5993 25.1798 38.4393V40.0993C24.4465 40.2193 23.8798 40.5393 23.4798 41.0593C23.0798 41.5659 22.8798 42.1726 22.8798 42.8793C22.8798 43.8259 23.2265 44.5793 23.9198 45.1393C24.5998 45.6993 25.5731 45.9793 26.8398 45.9793C28.0931 45.9793 29.0665 45.6993 29.7598 45.1393C30.4531 44.5659 30.7998 43.8126 30.7998 42.8793C30.7998 42.1726 30.5931 41.5593 30.1798 41.0393C29.7665 40.5193 29.1931 40.1993 28.4598 40.0793V38.4393C29.6198 38.6126 30.5398 39.1059 31.2198 39.9193C31.8998 40.7193 32.2398 41.7059 32.2398 42.8793ZM21.4398 31.9696C21.4398 30.8229 21.7531 29.9296 22.3798 29.2896C23.0065 28.6496 23.8865 28.3296 25.0198 28.3296H31.9998V29.9296H25.1798C23.6465 29.9296 22.8798 30.7162 22.8798 32.2896C22.8798 33.0363 23.1598 33.6962 23.7198 34.2696C24.2798 34.8429 25.0931 35.1296 26.1598 35.1296H31.9998V36.7296H17.7598V35.1296H23.0998C21.9931 34.3429 21.4398 33.2896 21.4398 31.9696Z" fill="black"/>
<path d="M17.7598 206.7V201.9C17.7598 199.74 18.3864 198.033 19.6398 196.78C20.8931 195.54 22.6398 194.92 24.8798 194.92C27.0931 194.92 28.8331 195.54 30.0998 196.78C31.3665 198.047 31.9998 199.753 31.9998 201.9V206.7H17.7598ZM30.4798 205.02V201.9C30.4798 200.22 29.9865 198.933 28.9998 198.04C28.0131 197.133 26.6398 196.68 24.8798 196.68C23.1198 196.68 21.7465 197.133 20.7598 198.04C19.7731 198.933 19.2798 200.22 19.2798 201.9V205.02H30.4798ZM20.1198 191.371V193.071H18.1598V191.371H20.1198ZM31.9998 191.411V193.011H21.6798V191.411H31.9998ZM21.4398 184.247C21.4398 183.1 21.7531 182.207 22.3798 181.567C23.0065 180.927 23.8865 180.607 25.0198 180.607H31.9998V182.207H25.1798C23.6465 182.207 22.8798 182.994 22.8798 184.567C22.8798 185.314 23.1598 185.974 23.7198 186.547C24.2798 187.12 25.0931 187.407 26.1598 187.407H31.9998V189.007H21.6798V187.487H23.2198C22.0331 186.7 21.4398 185.62 21.4398 184.247ZM21.4398 173.446C21.4398 172.3 21.7531 171.406 22.3798 170.766C23.0065 170.126 23.8865 169.806 25.0198 169.806H31.9998V171.406H25.1798C23.6465 171.406 22.8798 172.193 22.8798 173.766C22.8798 174.513 23.1598 175.173 23.7198 175.746C24.2798 176.32 25.0931 176.606 26.1598 176.606H31.9998V178.206H21.6798V176.686H23.2198C22.0331 175.9 21.4398 174.82 21.4398 173.446ZM26.8398 158.405H27.3998V166.245C28.5198 166.165 29.3665 165.852 29.9398 165.305C30.4998 164.759 30.7798 164.012 30.7798 163.065C30.7798 161.639 30.1398 160.725 28.8598 160.325V158.665C29.8998 158.945 30.7265 159.465 31.3398 160.225C31.9398 160.985 32.2398 161.945 32.2398 163.105C32.2398 164.532 31.7531 165.685 30.7798 166.565C29.8065 167.459 28.4931 167.905 26.8398 167.905C25.2131 167.905 23.9065 167.465 22.9198 166.585C21.9331 165.719 21.4398 164.572 21.4398 163.145C21.4398 161.665 21.9531 160.505 22.9798 159.665C24.0065 158.825 25.2931 158.405 26.8398 158.405ZM22.8998 163.145C22.8998 163.985 23.1665 164.672 23.6998 165.205C24.2198 165.739 24.9731 166.072 25.9598 166.205V160.125C25.0531 160.205 24.3198 160.512 23.7598 161.045C23.1865 161.579 22.8998 162.279 22.8998 163.145ZM21.5198 151.667C21.5198 151.4 21.5265 151.22 21.5398 151.127H23.0798V151.527C23.0798 152.594 23.3465 153.427 23.8798 154.027C24.3998 154.614 25.1465 154.907 26.1198 154.907H31.9998V156.507H21.6798V154.987H23.4998C22.1798 154.294 21.5198 153.187 21.5198 151.667Z" fill="black"/>
<rect x="0.5" y="0.5" width="52" height="225" rx="4.5" stroke="#F9FE17"/>
</svg>
