<svg width="390" height="522" viewBox="0 0 390 522" fill="none" xmlns="http://www.w3.org/2000/svg">
<g filter="url(#filter0_d)">
<path d="M44 34L48.4023 39.6364L52.8047 34L56.3265 39.6364L60.7289 34L65.1312 39.6364L69.5335 34L73.9359 39.6364L78.3382 34L82.7405 39.6364L83.621 38.5091L84.5015 37.3818L87.1429 34L91.5452 39.6364L95.9475 34L100.35 39.6364L104.752 34L109.155 39.6364L113.557 34L117.959 39.6364L122.362 34L126.764 39.6364L128.525 37.3818L131.166 34L135.569 39.6364L139.971 34L144.373 39.6364L148.776 34L153.178 39.6364L157.58 34L161.983 39.6364L166.385 34L170.787 39.6364L175.189 34L179.592 39.6364L183.994 34L188.396 39.6364L192.799 34L197.201 39.6364L201.604 34L206.006 39.6364L210.408 34L214.81 39.6364L219.213 34L223.615 39.6364L228.017 34L232.42 39.6364L236.822 34L241.224 39.6364L245.627 34L250.029 39.6364L254.431 34L258.834 39.6364L263.236 34L267.638 39.6364L272.041 34L276.443 39.6364L280.845 34L285.248 39.6364L289.65 34L294.052 39.6364L298.455 34L302.857 39.6364L307.259 34L311.662 39.6364L316.064 34L320.466 39.6364L324.869 34L329.271 39.6364L333.673 34L338.076 39.6364L342.478 34L346 39.6364V464.055L343.359 468L338.956 462.364L334.554 468L330.152 462.364L325.749 468L321.347 462.364L316.945 468L312.542 462.364L308.14 468L303.738 462.364L299.335 468L294.933 462.364L290.531 468L286.128 462.364L281.726 468L277.324 462.364L272.921 468L268.519 462.364L264.117 468L259.714 462.364L255.312 468L250.91 462.364L246.507 468L242.105 462.364L237.703 468L233.3 462.364L228.898 468L224.496 462.364L220.093 468L215.691 462.364L211.289 468L206.886 462.364L202.484 468L198.082 462.364L193.679 468L189.277 462.364L184.875 468L180.472 462.364L176.07 468L171.668 462.364L167.164 468L162.863 462.364L158.461 468L154.058 462.364L149.49 468L145.254 462.364L140.851 468L136.449 462.364L132.047 468L127.644 462.364L123.242 468L118.84 462.364L114.437 468L110.035 462.364L105.633 468L101.23 462.364L96.828 468L92.4257 462.364L88.0233 468L83.621 462.364L79.2187 468L74.8163 462.364L70.414 468L66.0117 462.364L61.6093 468L57.207 462.364L52.8047 468L48.4023 462.364L44 468V34Z" fill="#FFFAE9"/>
</g>
<path d="M65 367C65 355.402 74.402 346 86 346H304C315.598 346 325 355.402 325 367C325 378.598 315.598 388 304 388H86C74.402 388 65 378.598 65 367Z" fill="#80D0A4"/>
<path d="M181.949 361.396H187.27C188.619 361.396 189.667 361.753 190.415 362.467C191.175 363.17 191.554 364.127 191.554 365.34C191.554 366.541 191.175 367.499 190.415 368.213C189.667 368.916 188.619 369.267 187.27 369.267H184.244V373.5H181.949V361.396ZM184.244 367.295H187.168C187.837 367.295 188.347 367.131 188.698 366.802C189.061 366.462 189.242 365.975 189.242 365.34C189.242 364.705 189.061 364.218 188.698 363.878C188.347 363.538 187.837 363.368 187.168 363.368H184.244V367.295ZM200.177 373.5H198.035C197.933 373.319 197.854 372.962 197.797 372.429C197.208 373.279 196.267 373.704 194.975 373.704C194.012 373.704 193.241 373.472 192.663 373.007C192.097 372.542 191.813 371.896 191.813 371.069C191.813 369.471 192.935 368.559 195.179 368.332L196.505 368.213C196.947 368.156 197.265 368.054 197.457 367.907C197.65 367.748 197.746 367.516 197.746 367.21C197.746 366.836 197.622 366.564 197.372 366.394C197.134 366.213 196.726 366.122 196.148 366.122C195.525 366.122 195.077 366.23 194.805 366.445C194.533 366.649 194.375 367.006 194.329 367.516H192.221C192.346 365.521 193.661 364.524 196.165 364.524C198.602 364.524 199.82 365.402 199.82 367.159V371.834C199.82 372.605 199.939 373.16 200.177 373.5ZM195.485 372.174C196.154 372.174 196.698 371.993 197.117 371.63C197.537 371.256 197.746 370.723 197.746 370.032V369.233C197.542 369.414 197.208 369.533 196.743 369.59L195.587 369.726C195.021 369.794 194.613 369.93 194.363 370.134C194.125 370.327 194.006 370.61 194.006 370.984C194.006 371.358 194.131 371.653 194.38 371.868C194.641 372.072 195.009 372.174 195.485 372.174ZM206.037 366.938L206.751 364.728H208.995L205.612 374.214C205.249 375.211 204.796 375.897 204.252 376.271C203.696 376.656 202.892 376.849 201.838 376.849C201.486 376.849 201.175 376.832 200.903 376.798V375.115H201.719C202.183 375.115 202.54 374.985 202.79 374.724C203.039 374.463 203.164 374.123 203.164 373.704C203.164 373.285 203.028 372.695 202.756 371.936L200.206 364.728H202.518L203.232 366.921C203.73 368.485 204.195 370.117 204.626 371.817C204.966 370.536 205.436 368.91 206.037 366.938Z" fill="white"/>
<path d="M65 423C65 411.402 74.402 402 86 402H304C315.598 402 325 411.402 325 423C325 434.598 315.598 444 304 444H86C74.402 444 65 434.598 65 423Z" fill="#80D0A4"/>
<path d="M183.336 429.772C181.692 429.772 180.417 429.404 179.511 428.667C178.615 427.93 178.162 426.876 178.151 425.505H180.412C180.423 426.366 180.678 426.984 181.177 427.358C181.687 427.732 182.429 427.919 183.404 427.919C184.197 427.919 184.803 427.772 185.223 427.477C185.642 427.171 185.852 426.735 185.852 426.168C185.852 425.692 185.67 425.329 185.308 425.08C184.956 424.831 184.31 424.61 183.37 424.417L182.35 424.213C179.754 423.726 178.457 422.502 178.457 420.541C178.457 419.498 178.853 418.671 179.647 418.059C180.44 417.436 181.539 417.124 182.945 417.124C184.543 417.124 185.75 417.464 186.566 418.144C187.393 418.824 187.829 419.776 187.875 421H185.648C185.602 420.309 185.37 419.799 184.951 419.47C184.543 419.141 183.885 418.977 182.979 418.977C182.276 418.977 181.738 419.107 181.364 419.368C180.99 419.629 180.803 419.997 180.803 420.473C180.803 420.96 180.973 421.334 181.313 421.595C181.664 421.856 182.282 422.077 183.166 422.258L184.22 422.462C185.636 422.745 186.656 423.17 187.28 423.737C187.914 424.292 188.232 425.063 188.232 426.049C188.232 427.228 187.801 428.146 186.94 428.803C186.078 429.449 184.877 429.772 183.336 429.772ZM194.296 420.524C195.497 420.524 196.455 420.938 197.169 421.765C197.872 422.604 198.223 423.72 198.223 425.114C198.223 426.497 197.872 427.607 197.169 428.446C196.455 429.285 195.497 429.704 194.296 429.704C193.106 429.704 192.199 429.256 191.576 428.361V432.832H189.434V420.728H191.491V421.986C192.126 421.011 193.061 420.524 194.296 420.524ZM192.137 427.205C192.522 427.692 193.072 427.936 193.786 427.936C194.489 427.936 195.044 427.681 195.452 427.171C195.849 426.672 196.047 425.964 196.047 425.046C196.047 424.151 195.849 423.471 195.452 423.006C195.067 422.53 194.511 422.292 193.786 422.292C193.072 422.292 192.517 422.536 192.12 423.023C191.723 423.51 191.525 424.207 191.525 425.114C191.525 426.032 191.729 426.729 192.137 427.205ZM201.703 429.5H199.561V417.396H201.703V429.5ZM205.554 419.589H203.446V417.583H205.554V419.589ZM205.571 429.5H203.429V420.728H205.571V429.5ZM211.87 420.728V422.36H210.136V427.103C210.136 427.386 210.21 427.585 210.357 427.698C210.516 427.811 210.777 427.868 211.139 427.868H211.87V429.5C211.406 429.545 211.032 429.568 210.748 429.568C209.796 429.568 209.099 429.392 208.657 429.041C208.227 428.678 208.011 428.106 208.011 427.324V422.36H206.651V420.728H208.011V418.178H210.136V420.728H211.87Z" fill="white"/>
<path d="M88.2846 58H71.7158C71.3275 58 71.0127 58.3148 71.0127 58.7031V79.2257C71.0127 79.4122 71.0868 79.5911 71.2186 79.7229L73.2897 81.794C73.5643 82.0686 74.0095 82.0686 74.2841 81.794L75.8581 80.2201L77.4319 81.794C77.5637 81.9259 77.7426 82 77.929 82C78.1155 82 78.2944 81.9259 78.4262 81.794L80.0001 80.2201L81.574 81.794C81.7059 81.9259 81.8848 82 82.0712 82C82.2577 82 82.4365 81.9259 82.5684 81.794L84.1423 80.2201L85.7161 81.794C85.8535 81.9313 86.0333 82 86.2133 82C86.3933 82 86.5733 81.9313 86.7105 81.794L88.7816 79.7229C88.9135 79.5911 88.9876 79.4122 88.9876 79.2257V58.7031C88.9877 58.3148 88.6729 58 88.2846 58ZM79.2969 63.2814V62.4688C79.2969 62.0805 79.6118 61.7656 80.0001 61.7656C80.3884 61.7656 80.7032 62.0805 80.7032 62.4688V63.2719H81.5064C81.8947 63.2719 82.2095 63.5867 82.2095 63.975C82.2095 64.3633 81.8947 64.6781 81.5064 64.6781H79.4981C79.0553 64.6781 78.695 65.0384 78.695 65.4812C78.695 65.9241 79.0553 66.2844 79.4981 66.2844H80.5023C81.7205 66.2844 82.7117 67.2755 82.7117 68.4938C82.7117 69.6442 81.8276 70.5917 80.7032 70.6936V71.5063C80.7032 71.8946 80.3884 72.2094 80.0001 72.2094C79.6118 72.2094 79.2969 71.8946 79.2969 71.5063V70.7031H78.4938C78.1056 70.7031 77.7907 70.3883 77.7907 70C77.7907 69.6117 78.1056 69.2969 78.4938 69.2969H80.5023C80.9451 69.2969 81.3054 68.9366 81.3054 68.4937C81.3054 68.0509 80.9452 67.6906 80.5023 67.6906H79.4981C78.2798 67.6906 77.2887 66.6995 77.2887 65.4812C77.2888 64.3308 78.1727 63.3834 79.2969 63.2814ZM83.7658 75.975H76.2346C75.8463 75.975 75.5314 75.6602 75.5314 75.2719C75.5314 74.8835 75.8463 74.5687 76.2346 74.5687H83.7658C84.1541 74.5687 84.4689 74.8835 84.4689 75.2719C84.4689 75.6602 84.1541 75.975 83.7658 75.975Z" fill="#FFB526"/>
<path d="M261.324 73.936H266.588V75H260.008L260.036 74.454C260.092 73.6327 260.278 72.928 260.596 72.34C260.913 71.752 261.45 71.2387 262.206 70.8L263.466 70.072C264.1 69.6987 264.548 69.3347 264.81 68.98C265.08 68.6253 265.216 68.196 265.216 67.692C265.216 67.1413 265.038 66.7027 264.684 66.376C264.338 66.04 263.858 65.872 263.242 65.872C261.851 65.872 261.156 66.586 261.156 68.014H259.994C259.984 66.9967 260.269 66.208 260.848 65.648C261.426 65.088 262.234 64.808 263.27 64.808C264.212 64.808 264.978 65.074 265.566 65.606C266.154 66.1567 266.448 66.852 266.448 67.692C266.448 68.98 265.692 70.0627 264.18 70.94L263.116 71.556C262.5 71.9293 262.056 72.2933 261.786 72.648C261.515 72.9933 261.361 73.4227 261.324 73.936ZM270.156 65.032H271.108V75H269.932V67.566H267.664V66.642L267.888 66.628C268.597 66.5813 269.124 66.4413 269.47 66.208C269.815 65.9747 270.044 65.5827 270.156 65.032ZM273.052 75H271.96L275.53 65.032H276.622L273.052 75ZM283.577 73.88C282.97 74.776 282.069 75.224 280.875 75.224C279.671 75.224 278.77 74.776 278.173 73.88C277.566 72.9747 277.263 71.6867 277.263 70.016C277.263 68.3453 277.566 67.0573 278.173 66.152C278.77 65.256 279.671 64.808 280.875 64.808C282.069 64.808 282.97 65.256 283.577 66.152C284.183 67.0573 284.487 68.3453 284.487 70.016C284.487 71.6867 284.183 72.9747 283.577 73.88ZM280.875 65.872C279.288 65.872 278.495 67.2533 278.495 70.016C278.495 72.7787 279.288 74.16 280.875 74.16C282.461 74.16 283.255 72.7787 283.255 70.016C283.255 67.2533 282.461 65.872 280.875 65.872ZM286.808 73.936H292.072V75H285.492L285.52 74.454C285.576 73.6327 285.763 72.928 286.08 72.34C286.397 71.752 286.934 71.2387 287.69 70.8L288.95 70.072C289.585 69.6987 290.033 69.3347 290.294 68.98C290.565 68.6253 290.7 68.196 290.7 67.692C290.7 67.1413 290.523 66.7027 290.168 66.376C289.823 66.04 289.342 65.872 288.726 65.872C287.335 65.872 286.64 66.586 286.64 68.014H285.478C285.469 66.9967 285.753 66.208 286.332 65.648C286.911 65.088 287.718 64.808 288.754 64.808C289.697 64.808 290.462 65.074 291.05 65.606C291.638 66.1567 291.932 66.852 291.932 67.692C291.932 68.98 291.176 70.0627 289.664 70.94L288.6 71.556C287.984 71.9293 287.541 72.2933 287.27 72.648C286.999 72.9933 286.845 73.4227 286.808 73.936ZM293.806 75H292.714L296.284 65.032H297.376L293.806 75ZM299.564 73.936H304.828V75H298.248L298.276 74.454C298.332 73.6327 298.519 72.928 298.836 72.34C299.153 71.752 299.69 71.2387 300.446 70.8L301.706 70.072C302.341 69.6987 302.789 69.3347 303.05 68.98C303.321 68.6253 303.456 68.196 303.456 67.692C303.456 67.1413 303.279 66.7027 302.924 66.376C302.579 66.04 302.098 65.872 301.482 65.872C300.091 65.872 299.396 66.586 299.396 68.014H298.234C298.225 66.9967 298.509 66.208 299.088 65.648C299.667 65.088 300.474 64.808 301.51 64.808C302.453 64.808 303.218 65.074 303.806 65.606C304.394 66.1567 304.688 66.852 304.688 67.692C304.688 68.98 303.932 70.0627 302.42 70.94L301.356 71.556C300.74 71.9293 300.297 72.2933 300.026 72.648C299.755 72.9933 299.601 73.4227 299.564 73.936ZM312.069 73.88C311.462 74.776 310.561 75.224 309.367 75.224C308.163 75.224 307.262 74.776 306.665 73.88C306.058 72.9747 305.755 71.6867 305.755 70.016C305.755 68.3453 306.058 67.0573 306.665 66.152C307.262 65.256 308.163 64.808 309.367 64.808C310.561 64.808 311.462 65.256 312.069 66.152C312.675 67.0573 312.979 68.3453 312.979 70.016C312.979 71.6867 312.675 72.9747 312.069 73.88ZM309.367 65.872C307.78 65.872 306.987 67.2533 306.987 70.016C306.987 72.7787 307.78 74.16 309.367 74.16C310.953 74.16 311.747 72.7787 311.747 70.016C311.747 67.2533 310.953 65.872 309.367 65.872ZM315.3 73.936H320.564V75H313.984L314.012 74.454C314.068 73.6327 314.255 72.928 314.572 72.34C314.89 71.752 315.426 71.2387 316.182 70.8L317.442 70.072C318.077 69.6987 318.525 69.3347 318.786 68.98C319.057 68.6253 319.192 68.196 319.192 67.692C319.192 67.1413 319.015 66.7027 318.66 66.376C318.315 66.04 317.834 65.872 317.218 65.872C315.828 65.872 315.132 66.586 315.132 68.014H313.97C313.961 66.9967 314.246 66.208 314.824 65.648C315.403 65.088 316.21 64.808 317.246 64.808C318.189 64.808 318.954 65.074 319.542 65.606C320.13 66.1567 320.424 66.852 320.424 67.692C320.424 68.98 319.668 70.0627 318.156 70.94L317.092 71.556C316.476 71.9293 316.033 72.2933 315.762 72.648C315.492 72.9933 315.338 73.4227 315.3 73.936ZM324.132 65.032H325.084V75H323.908V67.566H321.64V66.642L321.864 66.628C322.573 66.5813 323.101 66.4413 323.446 66.208C323.791 65.9747 324.02 65.5827 324.132 65.032Z" fill="black"/>
<path d="M126.914 74.538C125.803 75.694 124.341 76.272 122.528 76.272C120.715 76.272 119.253 75.694 118.142 74.538C117.031 73.3707 116.476 71.8407 116.476 69.948C116.476 68.0553 117.031 66.5253 118.142 65.358C119.253 64.202 120.715 63.624 122.528 63.624C124.341 63.624 125.803 64.202 126.914 65.358C128.013 66.5027 128.563 68.0327 128.563 69.948C128.563 71.8633 128.013 73.3933 126.914 74.538ZM118.873 69.948C118.873 71.274 119.207 72.3223 119.876 73.093C120.545 73.8637 121.429 74.249 122.528 74.249C123.639 74.249 124.528 73.8637 125.197 73.093C125.854 72.3337 126.183 71.2853 126.183 69.948C126.183 68.6107 125.854 67.5623 125.197 66.803C124.528 66.0323 123.639 65.647 122.528 65.647C121.429 65.647 120.545 66.0323 119.876 66.803C119.207 67.5737 118.873 68.622 118.873 69.948ZM132.058 76H129.916V63.896H132.058V76ZM135.909 66.089H133.801V64.083H135.909V66.089ZM135.926 76H133.784V67.228H135.926V76ZM142.652 69.574L143.502 67.228H145.729L142.465 76H140L136.753 67.228H139.048L139.898 69.591C140.295 70.8263 140.754 72.3167 141.275 74.062C141.694 72.6567 142.153 71.1607 142.652 69.574ZM154.107 76H151.965C151.863 75.8187 151.783 75.4617 151.727 74.929C151.137 75.779 150.197 76.204 148.905 76.204C147.941 76.204 147.171 75.9717 146.593 75.507C146.026 75.0423 145.743 74.3963 145.743 73.569C145.743 71.971 146.865 71.0587 149.109 70.832L150.435 70.713C150.877 70.6563 151.194 70.5543 151.387 70.407C151.579 70.2483 151.676 70.016 151.676 69.71C151.676 69.336 151.551 69.064 151.302 68.894C151.064 68.7127 150.656 68.622 150.078 68.622C149.454 68.622 149.007 68.7297 148.735 68.945C148.463 69.149 148.304 69.506 148.259 70.016H146.151C146.275 68.0213 147.59 67.024 150.095 67.024C152.531 67.024 153.75 67.9023 153.75 69.659V74.334C153.75 75.1047 153.869 75.66 154.107 76ZM149.415 74.674C150.083 74.674 150.627 74.4927 151.047 74.13C151.466 73.756 151.676 73.2233 151.676 72.532V71.733C151.472 71.9143 151.137 72.0333 150.673 72.09L149.517 72.226C148.95 72.294 148.542 72.43 148.293 72.634C148.055 72.8267 147.936 73.11 147.936 73.484C147.936 73.858 148.06 74.1527 148.31 74.368C148.57 74.572 148.939 74.674 149.415 74.674ZM154.83 66.174V63.896H157.176V66.361C157.176 67.8797 156.49 68.6617 155.119 68.707L154.83 68.724V67.551L155.102 67.534C155.589 67.5 155.833 67.1373 155.833 66.446V66.174H154.83ZM161.606 76.238C159.045 76.238 157.707 75.2293 157.594 73.212H159.685C159.742 73.756 159.917 74.1413 160.212 74.368C160.518 74.5947 160.994 74.708 161.64 74.708C162.796 74.708 163.374 74.3567 163.374 73.654C163.374 73.3367 163.249 73.093 163 72.923C162.751 72.753 162.303 72.6113 161.657 72.498L160.654 72.328C158.739 72.0107 157.781 71.1267 157.781 69.676C157.781 68.8487 158.098 68.2027 158.733 67.738C159.368 67.262 160.263 67.024 161.419 67.024C163.924 67.024 165.216 68.0157 165.295 69.999H163.272C163.249 69.4777 163.085 69.1093 162.779 68.894C162.473 68.6673 162.02 68.554 161.419 68.554C160.399 68.554 159.889 68.894 159.889 69.574C159.889 69.8687 160.002 70.101 160.229 70.271C160.456 70.4297 160.83 70.5543 161.351 70.645L162.456 70.815C163.521 71.0077 164.292 71.3137 164.768 71.733C165.255 72.1523 165.499 72.736 165.499 73.484C165.499 74.368 165.159 75.048 164.479 75.524C163.799 76 162.841 76.238 161.606 76.238Z" fill="black"/>
<path d="M311.974 112.936H317.238V114H310.658L310.686 113.454C310.742 112.633 310.929 111.928 311.246 111.34C311.563 110.752 312.1 110.239 312.856 109.8L314.116 109.072C314.751 108.699 315.199 108.335 315.46 107.98C315.731 107.625 315.866 107.196 315.866 106.692C315.866 106.141 315.689 105.703 315.334 105.376C314.989 105.04 314.508 104.872 313.892 104.872C312.501 104.872 311.806 105.586 311.806 107.014H310.644C310.635 105.997 310.919 105.208 311.498 104.648C312.077 104.088 312.884 103.808 313.92 103.808C314.863 103.808 315.628 104.074 316.216 104.606C316.804 105.157 317.098 105.852 317.098 106.692C317.098 107.98 316.342 109.063 314.83 109.94L313.766 110.556C313.15 110.929 312.707 111.293 312.436 111.648C312.165 111.993 312.011 112.423 311.974 112.936ZM320.96 110.514C320.96 111.373 320.526 112.18 319.658 112.936H325.006V114H318.258V112.936C318.79 112.563 319.173 112.194 319.406 111.83C319.649 111.466 319.77 111.027 319.77 110.514C319.77 110.355 319.756 110.206 319.728 110.066H318.09V109.1H319.42C319.411 109.053 319.331 108.89 319.182 108.61C318.753 107.779 318.538 107.061 318.538 106.454C318.538 105.661 318.818 105.021 319.378 104.536C319.929 104.051 320.671 103.808 321.604 103.808C322.705 103.808 323.541 104.088 324.11 104.648C324.679 105.208 324.978 105.969 325.006 106.93H323.788C323.732 106.239 323.527 105.726 323.172 105.39C322.827 105.045 322.285 104.872 321.548 104.872C320.969 104.872 320.521 105.017 320.204 105.306C319.887 105.586 319.728 105.969 319.728 106.454C319.728 106.837 319.91 107.415 320.274 108.19C320.461 108.601 320.596 108.904 320.68 109.1H323.746V110.066H320.932C320.951 110.309 320.96 110.458 320.96 110.514Z" fill="#717171"/>
<path d="M125.534 114H124.288L123.126 111.102H118.59L117.442 114H116.21L120.186 104.032H121.502L125.534 114ZM119.052 109.926L119.01 110.038H122.706L122.65 109.912C122.417 109.343 121.81 107.807 120.83 105.306C120.167 107.079 119.575 108.619 119.052 109.926ZM134.053 106.608C134.837 106.608 135.444 106.837 135.873 107.294C136.312 107.742 136.531 108.344 136.531 109.1V114H135.411V109.212C135.411 108.148 134.907 107.616 133.899 107.616C133.367 107.616 132.924 107.831 132.569 108.26C132.224 108.68 132.051 109.277 132.051 110.052V114H130.931V109.212C130.931 108.148 130.427 107.616 129.419 107.616C128.897 107.616 128.458 107.831 128.103 108.26C127.749 108.68 127.571 109.277 127.571 110.052V114H126.451V106.776H127.515V107.84C127.991 107.019 128.687 106.608 129.601 106.608C130.684 106.608 131.426 107.061 131.827 107.966C132.331 107.061 133.073 106.608 134.053 106.608ZM144.509 110.388V110.78H139.021C139.077 111.564 139.296 112.157 139.679 112.558C140.062 112.95 140.584 113.146 141.247 113.146C142.246 113.146 142.885 112.698 143.165 111.802H144.327C144.131 112.53 143.767 113.109 143.235 113.538C142.703 113.958 142.031 114.168 141.219 114.168C140.22 114.168 139.413 113.827 138.797 113.146C138.172 112.465 137.859 111.545 137.859 110.388C137.859 109.249 138.167 108.335 138.783 107.644C139.39 106.953 140.192 106.608 141.191 106.608C142.227 106.608 143.039 106.967 143.627 107.686C144.215 108.405 144.509 109.305 144.509 110.388ZM141.191 107.63C140.603 107.63 140.122 107.817 139.749 108.19C139.376 108.554 139.142 109.081 139.049 109.772H143.305C143.249 109.137 143.034 108.624 142.661 108.232C142.288 107.831 141.798 107.63 141.191 107.63ZM149.226 106.664C149.413 106.664 149.539 106.669 149.604 106.678V107.756H149.324C148.577 107.756 147.994 107.943 147.574 108.316C147.163 108.68 146.958 109.203 146.958 109.884V114H145.838V106.776H146.902V108.05C147.387 107.126 148.162 106.664 149.226 106.664ZM151.799 105.684H150.609V104.312H151.799V105.684ZM151.771 114H150.651V106.776H151.771V114ZM156.449 114.168C155.451 114.168 154.643 113.823 154.027 113.132C153.411 112.441 153.103 111.527 153.103 110.388C153.103 109.231 153.411 108.311 154.027 107.63C154.625 106.949 155.432 106.608 156.449 106.608C157.308 106.608 158.013 106.841 158.563 107.308C159.114 107.775 159.445 108.414 159.557 109.226H158.395C158.311 108.713 158.087 108.316 157.723 108.036C157.369 107.756 156.944 107.616 156.449 107.616C155.787 107.616 155.259 107.859 154.867 108.344C154.475 108.82 154.279 109.501 154.279 110.388C154.279 111.265 154.475 111.947 154.867 112.432C155.269 112.917 155.796 113.16 156.449 113.16C156.944 113.16 157.373 113.015 157.737 112.726C158.101 112.437 158.325 112.035 158.409 111.522H159.557C159.436 112.334 159.091 112.978 158.521 113.454C157.961 113.93 157.271 114.168 156.449 114.168ZM166.662 113.09H167.068V114C166.881 114.028 166.676 114.042 166.452 114.042C165.696 114.042 165.29 113.697 165.234 113.006C164.73 113.781 163.946 114.168 162.882 114.168C162.089 114.168 161.463 113.986 161.006 113.622C160.558 113.249 160.334 112.726 160.334 112.054C160.334 110.747 161.225 110.001 163.008 109.814L164.044 109.702C164.8 109.618 165.178 109.287 165.178 108.708C165.178 108.307 165.052 108.017 164.8 107.84C164.557 107.663 164.142 107.574 163.554 107.574C162.929 107.574 162.476 107.681 162.196 107.896C161.925 108.101 161.771 108.47 161.734 109.002H160.614C160.707 107.406 161.687 106.608 163.554 106.608C165.365 106.608 166.27 107.308 166.27 108.708V112.74C166.27 112.973 166.401 113.09 166.662 113.09ZM162.938 113.216C163.535 113.216 164.058 113.034 164.506 112.67C164.954 112.315 165.178 111.807 165.178 111.144V110.29C164.973 110.449 164.655 110.551 164.226 110.598L163.176 110.724C162.569 110.799 162.135 110.939 161.874 111.144C161.622 111.349 161.496 111.643 161.496 112.026C161.496 112.399 161.617 112.693 161.86 112.908C162.103 113.113 162.462 113.216 162.938 113.216ZM171.387 106.608C172.19 106.608 172.815 106.827 173.263 107.266C173.711 107.705 173.935 108.321 173.935 109.114V114H172.815V109.226C172.815 108.153 172.264 107.616 171.163 107.616C170.64 107.616 170.178 107.812 169.777 108.204C169.376 108.596 169.175 109.165 169.175 109.912V114H168.055V106.776H169.119V107.854C169.67 107.023 170.426 106.608 171.387 106.608ZM181.285 113.132C180.623 113.823 179.783 114.168 178.765 114.168C177.748 114.168 176.908 113.823 176.245 113.132C175.592 112.451 175.265 111.536 175.265 110.388C175.265 109.24 175.592 108.325 176.245 107.644C176.908 106.953 177.748 106.608 178.765 106.608C179.783 106.608 180.623 106.953 181.285 107.644C181.939 108.325 182.265 109.24 182.265 110.388C182.265 111.536 181.939 112.451 181.285 113.132ZM177.071 112.418C177.491 112.913 178.056 113.16 178.765 113.16C179.475 113.16 180.039 112.913 180.459 112.418C180.879 111.933 181.089 111.256 181.089 110.388C181.089 109.511 180.879 108.829 180.459 108.344C180.039 107.859 179.475 107.616 178.765 107.616C178.056 107.616 177.491 107.859 177.071 108.344C176.651 108.829 176.441 109.511 176.441 110.388C176.441 111.256 176.651 111.933 177.071 112.418ZM188.562 104.032H189.514V114H188.338V106.566H186.07V105.642L186.294 105.628C187.003 105.581 187.53 105.441 187.876 105.208C188.221 104.975 188.45 104.583 188.562 104.032ZM194.588 107.504C195.652 107.504 196.482 107.817 197.08 108.442C197.677 109.067 197.976 109.875 197.976 110.864C197.976 111.844 197.663 112.647 197.038 113.272C196.403 113.907 195.563 114.224 194.518 114.224C193.566 114.224 192.777 113.949 192.152 113.398C191.526 112.857 191.186 112.133 191.13 111.228H192.306C192.362 111.825 192.595 112.297 193.006 112.642C193.416 112.987 193.92 113.16 194.518 113.16C195.171 113.16 195.703 112.95 196.114 112.53C196.534 112.101 196.744 111.545 196.744 110.864C196.744 110.183 196.534 109.632 196.114 109.212C195.703 108.783 195.171 108.568 194.518 108.568C193.538 108.568 192.856 108.969 192.474 109.772H191.382L192.222 104.032H197.374V105.096H193.174L192.698 108.232C193.239 107.747 193.869 107.504 194.588 107.504ZM205.483 112.88C204.876 113.776 203.975 114.224 202.781 114.224C201.577 114.224 200.676 113.776 200.079 112.88C199.472 111.975 199.169 110.687 199.169 109.016C199.169 107.345 199.472 106.057 200.079 105.152C200.676 104.256 201.577 103.808 202.781 103.808C203.975 103.808 204.876 104.256 205.483 105.152C206.089 106.057 206.393 107.345 206.393 109.016C206.393 110.687 206.089 111.975 205.483 112.88ZM202.781 104.872C201.194 104.872 200.401 106.253 200.401 109.016C200.401 111.779 201.194 113.16 202.781 113.16C204.367 113.16 205.161 111.779 205.161 109.016C205.161 106.253 204.367 104.872 202.781 104.872ZM218.204 106.608C218.988 106.608 219.594 106.837 220.024 107.294C220.462 107.742 220.682 108.344 220.682 109.1V114H219.562V109.212C219.562 108.148 219.058 107.616 218.05 107.616C217.518 107.616 217.074 107.831 216.72 108.26C216.374 108.68 216.202 109.277 216.202 110.052V114H215.082V109.212C215.082 108.148 214.578 107.616 213.57 107.616C213.047 107.616 212.608 107.831 212.254 108.26C211.899 108.68 211.722 109.277 211.722 110.052V114H210.602V106.776H211.666V107.84C212.142 107.019 212.837 106.608 213.752 106.608C214.834 106.608 215.576 107.061 215.978 107.966C216.482 107.061 217.224 106.608 218.204 106.608ZM223.48 114H222.36V104.032H223.48V114Z" fill="#717171"/>
<path d="M124.736 133.782C123.859 134.743 122.701 135.224 121.264 135.224C119.827 135.224 118.674 134.743 117.806 133.782C116.929 132.839 116.49 131.584 116.49 130.016C116.49 128.457 116.929 127.197 117.806 126.236C118.674 125.284 119.827 124.808 121.264 124.808C122.701 124.808 123.859 125.284 124.736 126.236C125.604 127.207 126.038 128.467 126.038 130.016C126.038 131.575 125.604 132.83 124.736 133.782ZM118.688 133.026C119.332 133.773 120.191 134.146 121.264 134.146C122.337 134.146 123.196 133.773 123.84 133.026C124.484 132.289 124.806 131.285 124.806 130.016C124.806 128.747 124.484 127.743 123.84 127.006C123.196 126.259 122.337 125.886 121.264 125.886C120.191 125.886 119.332 126.259 118.688 127.006C118.044 127.743 117.722 128.747 117.722 130.016C117.722 131.285 118.044 132.289 118.688 133.026ZM134.969 127.608C135.753 127.608 136.36 127.837 136.789 128.294C137.228 128.742 137.447 129.344 137.447 130.1V135H136.327V130.212C136.327 129.148 135.823 128.616 134.815 128.616C134.283 128.616 133.84 128.831 133.485 129.26C133.14 129.68 132.967 130.277 132.967 131.052V135H131.847V130.212C131.847 129.148 131.343 128.616 130.335 128.616C129.813 128.616 129.374 128.831 129.019 129.26C128.665 129.68 128.487 130.277 128.487 131.052V135H127.367V127.776H128.431V128.84C128.907 128.019 129.603 127.608 130.517 127.608C131.6 127.608 132.342 128.061 132.743 128.966C133.247 128.061 133.989 127.608 134.969 127.608ZM145.425 131.388V131.78H139.937C139.993 132.564 140.212 133.157 140.595 133.558C140.978 133.95 141.5 134.146 142.163 134.146C143.162 134.146 143.801 133.698 144.081 132.802H145.243C145.047 133.53 144.683 134.109 144.151 134.538C143.619 134.958 142.947 135.168 142.135 135.168C141.136 135.168 140.329 134.827 139.713 134.146C139.088 133.465 138.775 132.545 138.775 131.388C138.775 130.249 139.083 129.335 139.699 128.644C140.306 127.953 141.108 127.608 142.107 127.608C143.143 127.608 143.955 127.967 144.543 128.686C145.131 129.405 145.425 130.305 145.425 131.388ZM142.107 128.63C141.519 128.63 141.038 128.817 140.665 129.19C140.292 129.554 140.058 130.081 139.965 130.772H144.221C144.165 130.137 143.95 129.624 143.577 129.232C143.204 128.831 142.714 128.63 142.107 128.63ZM147.874 135H146.754V125.032H147.874V135ZM155.857 131.388V131.78H150.369C150.425 132.564 150.644 133.157 151.027 133.558C151.409 133.95 151.932 134.146 152.595 134.146C153.593 134.146 154.233 133.698 154.513 132.802H155.675C155.479 133.53 155.115 134.109 154.583 134.538C154.051 134.958 153.379 135.168 152.567 135.168C151.568 135.168 150.761 134.827 150.145 134.146C149.519 133.465 149.207 132.545 149.207 131.388C149.207 130.249 149.515 129.335 150.131 128.644C150.737 127.953 151.54 127.608 152.539 127.608C153.575 127.608 154.387 127.967 154.975 128.686C155.563 129.405 155.857 130.305 155.857 131.388ZM152.539 128.63C151.951 128.63 151.47 128.817 151.097 129.19C150.723 129.554 150.49 130.081 150.397 130.772H154.653C154.597 130.137 154.382 129.624 154.009 129.232C153.635 128.831 153.145 128.63 152.539 128.63ZM159.926 127.776V128.756H158.442V133.446C158.442 133.857 158.717 134.062 159.268 134.062H159.926V135C159.618 135.028 159.352 135.042 159.128 135.042C157.924 135.042 157.322 134.543 157.322 133.544V128.756H156.132V127.776H157.322V125.732H158.442V127.776H159.926ZM164.91 133.936H170.174V135H163.594L163.622 134.454C163.678 133.633 163.864 132.928 164.182 132.34C164.499 131.752 165.036 131.239 165.792 130.8L167.052 130.072C167.686 129.699 168.134 129.335 168.396 128.98C168.666 128.625 168.802 128.196 168.802 127.692C168.802 127.141 168.624 126.703 168.27 126.376C167.924 126.04 167.444 125.872 166.828 125.872C165.437 125.872 164.742 126.586 164.742 128.014H163.58C163.57 126.997 163.855 126.208 164.434 125.648C165.012 125.088 165.82 124.808 166.856 124.808C167.798 124.808 168.564 125.074 169.152 125.606C169.74 126.157 170.034 126.852 170.034 127.692C170.034 128.98 169.278 130.063 167.766 130.94L166.702 131.556C166.086 131.929 165.642 132.293 165.372 132.648C165.101 132.993 164.947 133.423 164.91 133.936ZM177.414 133.88C176.808 134.776 175.907 135.224 174.712 135.224C173.508 135.224 172.608 134.776 172.01 133.88C171.404 132.975 171.1 131.687 171.1 130.016C171.1 128.345 171.404 127.057 172.01 126.152C172.608 125.256 173.508 124.808 174.712 124.808C175.907 124.808 176.808 125.256 177.414 126.152C178.021 127.057 178.324 128.345 178.324 130.016C178.324 131.687 178.021 132.975 177.414 133.88ZM174.712 125.872C173.126 125.872 172.332 127.253 172.332 130.016C172.332 132.779 173.126 134.16 174.712 134.16C176.299 134.16 177.092 132.779 177.092 130.016C177.092 127.253 176.299 125.872 174.712 125.872ZM185.905 133.88C185.298 134.776 184.397 135.224 183.203 135.224C181.999 135.224 181.098 134.776 180.501 133.88C179.894 132.975 179.591 131.687 179.591 130.016C179.591 128.345 179.894 127.057 180.501 126.152C181.098 125.256 181.999 124.808 183.203 124.808C184.397 124.808 185.298 125.256 185.905 126.152C186.511 127.057 186.815 128.345 186.815 130.016C186.815 131.687 186.511 132.975 185.905 133.88ZM183.203 125.872C181.616 125.872 180.823 127.253 180.823 130.016C180.823 132.779 181.616 134.16 183.203 134.16C184.789 134.16 185.583 132.779 185.583 130.016C185.583 127.253 184.789 125.872 183.203 125.872ZM188.546 135H187.454L191.024 125.032H192.116L188.546 135ZM194.304 133.936H199.568V135H192.988L193.016 134.454C193.072 133.633 193.259 132.928 193.576 132.34C193.893 131.752 194.43 131.239 195.186 130.8L196.446 130.072C197.081 129.699 197.529 129.335 197.79 128.98C198.061 128.625 198.196 128.196 198.196 127.692C198.196 127.141 198.019 126.703 197.664 126.376C197.319 126.04 196.838 125.872 196.222 125.872C194.831 125.872 194.136 126.586 194.136 128.014H192.974C192.965 126.997 193.249 126.208 193.828 125.648C194.407 125.088 195.214 124.808 196.25 124.808C197.193 124.808 197.958 125.074 198.546 125.606C199.134 126.157 199.428 126.852 199.428 127.692C199.428 128.98 198.672 130.063 197.16 130.94L196.096 131.556C195.48 131.929 195.037 132.293 194.766 132.648C194.495 132.993 194.341 133.423 194.304 133.936ZM206.809 133.88C206.202 134.776 205.302 135.224 204.107 135.224C202.903 135.224 202.002 134.776 201.405 133.88C200.798 132.975 200.495 131.687 200.495 130.016C200.495 128.345 200.798 127.057 201.405 126.152C202.002 125.256 202.903 124.808 204.107 124.808C205.302 124.808 206.202 125.256 206.809 126.152C207.416 127.057 207.719 128.345 207.719 130.016C207.719 131.687 207.416 132.975 206.809 133.88ZM204.107 125.872C202.52 125.872 201.727 127.253 201.727 130.016C201.727 132.779 202.52 134.16 204.107 134.16C205.694 134.16 206.487 132.779 206.487 130.016C206.487 127.253 205.694 125.872 204.107 125.872Z" fill="#717171"/>
<path d="M307.822 125.032H308.774V135H307.598V127.566H305.33V126.642L305.554 126.628C306.263 126.581 306.79 126.441 307.136 126.208C307.481 125.975 307.71 125.583 307.822 125.032ZM316.703 133.88C316.097 134.776 315.196 135.224 314.001 135.224C312.797 135.224 311.897 134.776 311.299 133.88C310.693 132.975 310.389 131.687 310.389 130.016C310.389 128.345 310.693 127.057 311.299 126.152C311.897 125.256 312.797 124.808 314.001 124.808C315.196 124.808 316.097 125.256 316.703 126.152C317.31 127.057 317.613 128.345 317.613 130.016C317.613 131.687 317.31 132.975 316.703 133.88ZM314.001 125.872C312.415 125.872 311.621 127.253 311.621 130.016C311.621 132.779 312.415 134.16 314.001 134.16C315.588 134.16 316.381 132.779 316.381 130.016C316.381 127.253 315.588 125.872 314.001 125.872ZM321.606 131.514C321.606 132.373 321.172 133.18 320.304 133.936H325.652V135H318.904V133.936C319.436 133.563 319.819 133.194 320.052 132.83C320.295 132.466 320.416 132.027 320.416 131.514C320.416 131.355 320.402 131.206 320.374 131.066H318.736V130.1H320.066C320.057 130.053 319.978 129.89 319.828 129.61C319.399 128.779 319.184 128.061 319.184 127.454C319.184 126.661 319.464 126.021 320.024 125.536C320.575 125.051 321.317 124.808 322.25 124.808C323.352 124.808 324.187 125.088 324.756 125.648C325.326 126.208 325.624 126.969 325.652 127.93H324.434C324.378 127.239 324.173 126.726 323.818 126.39C323.473 126.045 322.932 125.872 322.194 125.872C321.616 125.872 321.168 126.017 320.85 126.306C320.533 126.586 320.374 126.969 320.374 127.454C320.374 127.837 320.556 128.415 320.92 129.19C321.107 129.601 321.242 129.904 321.326 130.1H324.392V131.066H321.578C321.597 131.309 321.606 131.458 321.606 131.514Z" fill="#717171"/>
<path d="M118.895 211H116.87V200.32H118.895V211ZM124.789 203.08C125.629 203.08 126.289 203.325 126.769 203.815C127.259 204.295 127.504 204.98 127.504 205.87V211H125.614V206.185C125.614 205.205 125.129 204.715 124.159 204.715C123.679 204.715 123.269 204.89 122.929 205.24C122.599 205.58 122.434 206.055 122.434 206.665V211H120.544V203.26H122.374V204.37C122.964 203.51 123.769 203.08 124.789 203.08ZM136.313 203.26V204.7H134.783V208.885C134.783 209.135 134.848 209.31 134.978 209.41C135.118 209.51 135.348 209.56 135.668 209.56H136.313V211C135.903 211.04 135.573 211.06 135.323 211.06C134.483 211.06 133.868 210.905 133.478 210.595C133.098 210.275 132.908 209.77 132.908 209.08V204.7H131.708V203.26H132.908V201.01H134.783V203.26H136.313ZM144.803 207.13C144.803 208.35 144.443 209.33 143.723 210.07C143.003 210.81 142.053 211.18 140.873 211.18C139.693 211.18 138.743 210.81 138.023 210.07C137.293 209.34 136.928 208.36 136.928 207.13C136.928 205.9 137.293 204.92 138.023 204.19C138.743 203.45 139.693 203.08 140.873 203.08C142.053 203.08 143.003 203.445 143.723 204.175C144.443 204.905 144.803 205.89 144.803 207.13ZM139.388 208.975C139.748 209.405 140.243 209.62 140.873 209.62C141.503 209.62 141.993 209.405 142.343 208.975C142.703 208.535 142.883 207.92 142.883 207.13C142.883 206.34 142.703 205.73 142.343 205.3C141.993 204.86 141.503 204.64 140.873 204.64C140.243 204.64 139.748 204.855 139.388 205.285C139.038 205.715 138.863 206.33 138.863 207.13C138.863 207.93 139.038 208.545 139.388 208.975ZM149.628 203.26V204.7H148.098V208.885C148.098 209.135 148.163 209.31 148.293 209.41C148.433 209.51 148.663 209.56 148.983 209.56H149.628V211C149.218 211.04 148.888 211.06 148.638 211.06C147.798 211.06 147.183 210.905 146.793 210.595C146.413 210.275 146.223 209.77 146.223 209.08V204.7H145.023V203.26H146.223V201.01H148.098V203.26H149.628ZM157.651 211H155.761C155.671 210.84 155.601 210.525 155.551 210.055C155.031 210.805 154.201 211.18 153.061 211.18C152.211 211.18 151.531 210.975 151.021 210.565C150.521 210.155 150.271 209.585 150.271 208.855C150.271 207.445 151.261 206.64 153.241 206.44L154.411 206.335C154.801 206.285 155.081 206.195 155.251 206.065C155.421 205.925 155.506 205.72 155.506 205.45C155.506 205.12 155.396 204.88 155.176 204.73C154.966 204.57 154.606 204.49 154.096 204.49C153.546 204.49 153.151 204.585 152.911 204.775C152.671 204.955 152.531 205.27 152.491 205.72H150.631C150.741 203.96 151.901 203.08 154.111 203.08C156.261 203.08 157.336 203.855 157.336 205.405V209.53C157.336 210.21 157.441 210.7 157.651 211ZM153.511 209.83C154.101 209.83 154.581 209.67 154.951 209.35C155.321 209.02 155.506 208.55 155.506 207.94V207.235C155.326 207.395 155.031 207.5 154.621 207.55L153.601 207.67C153.101 207.73 152.741 207.85 152.521 208.03C152.311 208.2 152.206 208.45 152.206 208.78C152.206 209.11 152.316 209.37 152.536 209.56C152.766 209.74 153.091 209.83 153.511 209.83ZM160.623 211H158.733V200.32H160.623V211ZM164.156 205.78H161.951V203.635H164.156V205.78ZM164.156 211H161.951V208.855H164.156V211Z" fill="#AE6A2A"/>
<path d="M302.805 209.29H308.31V211H300.54L300.585 210.205C300.625 209.385 300.795 208.65 301.095 208C301.465 207.19 302.23 206.52 303.39 205.99L304.44 205.45C305.06 205.15 305.5 204.845 305.76 204.535C306.02 204.225 306.15 203.84 306.15 203.38C306.15 202.89 305.995 202.505 305.685 202.225C305.375 201.935 304.945 201.79 304.395 201.79C303.165 201.79 302.55 202.44 302.55 203.74H300.6C300.59 202.59 300.915 201.695 301.575 201.055C302.245 200.405 303.205 200.08 304.455 200.08C305.605 200.08 306.515 200.37 307.185 200.95C307.855 201.53 308.19 202.29 308.19 203.23C308.19 204.04 307.965 204.73 307.515 205.3C307.065 205.86 306.35 206.385 305.37 206.875L304.38 207.4C303.82 207.7 303.425 207.985 303.195 208.255C302.975 208.515 302.845 208.86 302.805 209.29ZM315.75 206.83H317.175V208.54H315.75V211H313.725V208.54H308.535V206.62L313.53 200.32H315.75V206.83ZM313.77 206.83V202.495L310.335 206.83H313.77ZM321.643 207.175C321.643 207.925 321.303 208.595 320.623 209.185H325.693V211H318.088V209.35C318.628 209.08 319.018 208.785 319.258 208.465C319.508 208.135 319.633 207.735 319.633 207.265C319.633 207.045 319.603 206.83 319.543 206.62H317.848V205.525H319.123C319.123 205.515 319.098 205.46 319.048 205.36C318.598 204.4 318.373 203.635 318.373 203.065C318.373 202.155 318.703 201.43 319.363 200.89C320.003 200.35 320.868 200.08 321.958 200.08C323.158 200.08 324.068 200.375 324.688 200.965C325.308 201.555 325.643 202.4 325.693 203.5H323.728C323.698 202.91 323.543 202.47 323.263 202.18C322.983 201.89 322.538 201.745 321.928 201.745C321.448 201.745 321.078 201.865 320.818 202.105C320.558 202.335 320.428 202.655 320.428 203.065C320.428 203.425 320.603 203.995 320.953 204.775C321.033 204.975 321.138 205.225 321.268 205.525H324.328V206.62H321.598C321.628 206.8 321.643 206.985 321.643 207.175Z" fill="#AE6A2A"/>
<rect x="116" y="224" width="210" height="1" fill="#D3D3D3" fill-opacity="0.15"/>
<path d="M116.272 239.896H126.336V241.953H122.46V252H120.148V241.953H116.272V239.896ZM134.283 247.614C134.283 248.997 133.875 250.107 133.059 250.946C132.243 251.785 131.166 252.204 129.829 252.204C128.492 252.204 127.415 251.785 126.599 250.946C125.772 250.119 125.358 249.008 125.358 247.614C125.358 246.22 125.772 245.109 126.599 244.282C127.415 243.443 128.492 243.024 129.829 243.024C131.166 243.024 132.243 243.438 133.059 244.265C133.875 245.092 134.283 246.209 134.283 247.614ZM128.146 249.705C128.554 250.192 129.115 250.436 129.829 250.436C130.543 250.436 131.098 250.192 131.495 249.705C131.903 249.206 132.107 248.509 132.107 247.614C132.107 246.719 131.903 246.027 131.495 245.54C131.098 245.041 130.543 244.792 129.829 244.792C129.115 244.792 128.554 245.036 128.146 245.523C127.749 246.01 127.551 246.707 127.551 247.614C127.551 248.521 127.749 249.218 128.146 249.705ZM144.158 243.024C145.359 243.024 146.317 243.438 147.031 244.265C147.733 245.104 148.085 246.22 148.085 247.614C148.085 248.997 147.733 250.107 147.031 250.946C146.317 251.785 145.359 252.204 144.158 252.204C142.968 252.204 142.061 251.756 141.438 250.861V255.332H139.296V243.228H141.353V244.486C141.987 243.511 142.922 243.024 144.158 243.024ZM141.999 249.705C142.384 250.192 142.934 250.436 143.648 250.436C144.35 250.436 144.906 250.181 145.314 249.671C145.71 249.172 145.909 248.464 145.909 247.546C145.909 246.651 145.71 245.971 145.314 245.506C144.928 245.03 144.373 244.792 143.648 244.792C142.934 244.792 142.378 245.036 141.982 245.523C141.585 246.01 141.387 246.707 141.387 247.614C141.387 248.532 141.591 249.229 141.999 249.705ZM157.211 252H155.069C154.967 251.819 154.888 251.462 154.831 250.929C154.242 251.779 153.301 252.204 152.009 252.204C151.046 252.204 150.275 251.972 149.697 251.507C149.13 251.042 148.847 250.396 148.847 249.569C148.847 247.971 149.969 247.059 152.213 246.832L153.539 246.713C153.981 246.656 154.298 246.554 154.491 246.407C154.684 246.248 154.78 246.016 154.78 245.71C154.78 245.336 154.655 245.064 154.406 244.894C154.168 244.713 153.76 244.622 153.182 244.622C152.559 244.622 152.111 244.73 151.839 244.945C151.567 245.149 151.408 245.506 151.363 246.016H149.255C149.38 244.021 150.694 243.024 153.199 243.024C155.636 243.024 156.854 243.902 156.854 245.659V250.334C156.854 251.105 156.973 251.66 157.211 252ZM152.519 250.674C153.188 250.674 153.732 250.493 154.151 250.13C154.57 249.756 154.78 249.223 154.78 248.532V247.733C154.576 247.914 154.242 248.033 153.777 248.09L152.621 248.226C152.054 248.294 151.646 248.43 151.397 248.634C151.159 248.827 151.04 249.11 151.04 249.484C151.04 249.858 151.165 250.153 151.414 250.368C151.675 250.572 152.043 250.674 152.519 250.674ZM163.07 245.438L163.784 243.228H166.028L162.645 252.714C162.283 253.711 161.829 254.397 161.285 254.771C160.73 255.156 159.925 255.349 158.871 255.349C158.52 255.349 158.208 255.332 157.936 255.298V253.615H158.752C159.217 253.615 159.574 253.485 159.823 253.224C160.073 252.963 160.197 252.623 160.197 252.204C160.197 251.785 160.061 251.195 159.789 250.436L157.239 243.228H159.551L160.265 245.421C160.764 246.985 161.229 248.617 161.659 250.317C161.999 249.036 162.47 247.41 163.07 245.438Z" fill="black"/>
<path d="M299.712 250.062H305.951V252H297.145L297.196 251.099C297.242 250.17 297.434 249.337 297.774 248.6C298.194 247.682 299.061 246.923 300.375 246.322L301.565 245.71C302.268 245.37 302.767 245.024 303.061 244.673C303.356 244.322 303.503 243.885 303.503 243.364C303.503 242.809 303.328 242.372 302.976 242.055C302.625 241.726 302.138 241.562 301.514 241.562C300.12 241.562 299.423 242.299 299.423 243.772H297.213C297.202 242.469 297.57 241.454 298.318 240.729C299.078 239.992 300.166 239.624 301.582 239.624C302.886 239.624 303.917 239.953 304.676 240.61C305.436 241.267 305.815 242.129 305.815 243.194C305.815 244.112 305.56 244.894 305.05 245.54C304.54 246.175 303.73 246.77 302.619 247.325L301.497 247.92C300.863 248.26 300.415 248.583 300.154 248.889C299.905 249.184 299.758 249.575 299.712 250.062ZM314.383 247.274H315.998V249.212H314.383V252H312.088V249.212H306.206V247.036L311.867 239.896H314.383V247.274ZM312.139 247.274V242.361L308.246 247.274H312.139ZM321.062 247.665C321.062 248.515 320.677 249.274 319.906 249.943H325.652V252H317.033V250.13C317.645 249.824 318.087 249.49 318.359 249.127C318.643 248.753 318.784 248.3 318.784 247.767C318.784 247.518 318.75 247.274 318.682 247.036H316.761V245.795H318.206C318.206 245.784 318.178 245.721 318.121 245.608C317.611 244.52 317.356 243.653 317.356 243.007C317.356 241.976 317.73 241.154 318.478 240.542C319.204 239.93 320.184 239.624 321.419 239.624C322.779 239.624 323.811 239.958 324.513 240.627C325.216 241.296 325.596 242.253 325.652 243.5H323.425C323.391 242.831 323.216 242.333 322.898 242.004C322.581 241.675 322.077 241.511 321.385 241.511C320.841 241.511 320.422 241.647 320.127 241.919C319.833 242.18 319.685 242.542 319.685 243.007C319.685 243.415 319.884 244.061 320.28 244.945C320.371 245.172 320.49 245.455 320.637 245.795H324.105V247.036H321.011C321.045 247.24 321.062 247.45 321.062 247.665Z" fill="black"/>
<path d="M120.89 173.24C119.5 173.24 118.415 172.925 117.635 172.295C116.855 171.665 116.46 170.725 116.45 169.475H117.755C117.785 171.225 118.83 172.1 120.89 172.1C121.76 172.1 122.425 171.93 122.885 171.59C123.355 171.25 123.59 170.755 123.59 170.105C123.59 169.595 123.395 169.2 123.005 168.92C122.625 168.63 121.955 168.38 120.995 168.17L120.05 167.96C118.97 167.71 118.16 167.35 117.62 166.88C117.08 166.4 116.81 165.73 116.81 164.87C116.81 164.02 117.14 163.345 117.8 162.845C118.46 162.335 119.345 162.08 120.455 162.08C121.205 162.08 121.855 162.17 122.405 162.35C122.965 162.53 123.4 162.785 123.71 163.115C124.02 163.435 124.245 163.785 124.385 164.165C124.535 164.545 124.615 164.965 124.625 165.425H123.335C123.275 164.665 123.025 164.11 122.585 163.76C122.155 163.4 121.445 163.22 120.455 163.22C119.705 163.22 119.125 163.365 118.715 163.655C118.315 163.945 118.115 164.35 118.115 164.87C118.115 165.39 118.29 165.795 118.64 166.085C118.98 166.375 119.64 166.63 120.62 166.85L121.565 167.06C122.745 167.32 123.595 167.695 124.115 168.185C124.635 168.665 124.895 169.305 124.895 170.105C124.895 171.075 124.54 171.84 123.83 172.4C123.12 172.96 122.14 173.24 120.89 173.24ZM133.142 169.13V169.55H127.262C127.322 170.39 127.557 171.025 127.967 171.455C128.377 171.875 128.937 172.085 129.647 172.085C130.717 172.085 131.402 171.605 131.702 170.645H132.947C132.737 171.425 132.347 172.045 131.777 172.505C131.207 172.955 130.487 173.18 129.617 173.18C128.547 173.18 127.682 172.815 127.022 172.085C126.352 171.355 126.017 170.37 126.017 169.13C126.017 167.91 126.347 166.93 127.007 166.19C127.657 165.45 128.517 165.08 129.587 165.08C130.697 165.08 131.567 165.465 132.197 166.235C132.827 167.005 133.142 167.97 133.142 169.13ZM129.587 166.175C128.957 166.175 128.442 166.375 128.042 166.775C127.642 167.165 127.392 167.73 127.292 168.47H131.852C131.792 167.79 131.562 167.24 131.162 166.82C130.762 166.39 130.237 166.175 129.587 166.175ZM138.196 165.14C138.396 165.14 138.531 165.145 138.601 165.155V166.31H138.301C137.501 166.31 136.876 166.51 136.426 166.91C135.986 167.3 135.766 167.86 135.766 168.59V173H134.566V165.26H135.706V166.625C136.226 165.635 137.056 165.14 138.196 165.14ZM143.887 168.695L145.162 165.26H146.452L143.407 173H142.147L139.117 165.26H140.422L141.697 168.71C142.327 170.4 142.692 171.4 142.792 171.71C142.972 171.18 143.337 170.175 143.887 168.695ZM148.584 164.09H147.309V162.62H148.584V164.09ZM148.554 173H147.354V165.26H148.554V173ZM153.567 173.18C152.497 173.18 151.632 172.81 150.972 172.07C150.312 171.33 149.982 170.35 149.982 169.13C149.982 167.89 150.312 166.905 150.972 166.175C151.612 165.445 152.477 165.08 153.567 165.08C154.487 165.08 155.242 165.33 155.832 165.83C156.422 166.33 156.777 167.015 156.897 167.885H155.652C155.562 167.335 155.322 166.91 154.932 166.61C154.552 166.31 154.097 166.16 153.567 166.16C152.857 166.16 152.292 166.42 151.872 166.94C151.452 167.45 151.242 168.18 151.242 169.13C151.242 170.07 151.452 170.8 151.872 171.32C152.302 171.84 152.867 172.1 153.567 172.1C154.097 172.1 154.557 171.945 154.947 171.635C155.337 171.325 155.577 170.895 155.667 170.345H156.897C156.767 171.215 156.397 171.905 155.787 172.415C155.187 172.925 154.447 173.18 153.567 173.18ZM164.929 169.13V169.55H159.049C159.109 170.39 159.344 171.025 159.754 171.455C160.164 171.875 160.724 172.085 161.434 172.085C162.504 172.085 163.189 171.605 163.489 170.645H164.734C164.524 171.425 164.134 172.045 163.564 172.505C162.994 172.955 162.274 173.18 161.404 173.18C160.334 173.18 159.469 172.815 158.809 172.085C158.139 171.355 157.804 170.37 157.804 169.13C157.804 167.91 158.134 166.93 158.794 166.19C159.444 165.45 160.304 165.08 161.374 165.08C162.484 165.08 163.354 165.465 163.984 166.235C164.614 167.005 164.929 167.97 164.929 169.13ZM161.374 166.175C160.744 166.175 160.229 166.375 159.829 166.775C159.429 167.165 159.179 167.73 159.079 168.47H163.639C163.579 167.79 163.349 167.24 162.949 166.82C162.549 166.39 162.024 166.175 161.374 166.175ZM172.42 173.18C171.35 173.18 170.485 172.81 169.825 172.07C169.165 171.33 168.835 170.35 168.835 169.13C168.835 167.89 169.165 166.905 169.825 166.175C170.465 165.445 171.33 165.08 172.42 165.08C173.34 165.08 174.095 165.33 174.685 165.83C175.275 166.33 175.63 167.015 175.75 167.885H174.505C174.415 167.335 174.175 166.91 173.785 166.61C173.405 166.31 172.95 166.16 172.42 166.16C171.71 166.16 171.145 166.42 170.725 166.94C170.305 167.45 170.095 168.18 170.095 169.13C170.095 170.07 170.305 170.8 170.725 171.32C171.155 171.84 171.72 172.1 172.42 172.1C172.95 172.1 173.41 171.945 173.8 171.635C174.19 171.325 174.43 170.895 174.52 170.345H175.75C175.62 171.215 175.25 171.905 174.64 172.415C174.04 172.925 173.3 173.18 172.42 173.18ZM180.602 165.08C181.462 165.08 182.132 165.315 182.612 165.785C183.092 166.255 183.332 166.915 183.332 167.765V173H182.132V167.885C182.132 166.735 181.542 166.16 180.362 166.16C179.802 166.16 179.307 166.37 178.877 166.79C178.447 167.21 178.232 167.82 178.232 168.62V173H177.032V162.32H178.232V166.325C178.822 165.495 179.612 165.08 180.602 165.08ZM191.462 172.025H191.897V173C191.697 173.03 191.477 173.045 191.237 173.045C190.427 173.045 189.992 172.675 189.932 171.935C189.392 172.765 188.552 173.18 187.412 173.18C186.562 173.18 185.892 172.985 185.402 172.595C184.922 172.195 184.682 171.635 184.682 170.915C184.682 169.515 185.637 168.715 187.547 168.515L188.657 168.395C189.467 168.305 189.872 167.95 189.872 167.33C189.872 166.9 189.737 166.59 189.467 166.4C189.207 166.21 188.762 166.115 188.132 166.115C187.462 166.115 186.977 166.23 186.677 166.46C186.387 166.68 186.222 167.075 186.182 167.645H184.982C185.082 165.935 186.132 165.08 188.132 165.08C190.072 165.08 191.042 165.83 191.042 167.33V171.65C191.042 171.9 191.182 172.025 191.462 172.025ZM187.472 172.16C188.112 172.16 188.672 171.965 189.152 171.575C189.632 171.195 189.872 170.65 189.872 169.94V169.025C189.652 169.195 189.312 169.305 188.852 169.355L187.727 169.49C187.077 169.57 186.612 169.72 186.332 169.94C186.062 170.16 185.927 170.475 185.927 170.885C185.927 171.285 186.057 171.6 186.317 171.83C186.577 172.05 186.962 172.16 187.472 172.16ZM196.585 165.14C196.785 165.14 196.92 165.145 196.99 165.155V166.31H196.69C195.89 166.31 195.265 166.51 194.815 166.91C194.375 167.3 194.155 167.86 194.155 168.59V173H192.955V165.26H194.095V166.625C194.615 165.635 195.445 165.14 196.585 165.14ZM203.537 166.385V165.26H204.677V172.7C204.677 173.76 204.367 174.595 203.747 175.205C203.127 175.815 202.237 176.12 201.077 176.12C200.117 176.12 199.347 175.9 198.767 175.46C198.187 175.02 197.857 174.41 197.777 173.63H198.977C199.127 174.61 199.827 175.1 201.077 175.1C202.677 175.1 203.477 174.3 203.477 172.7V171.95C202.867 172.77 202.002 173.18 200.882 173.18C199.792 173.18 198.922 172.81 198.272 172.07C197.612 171.33 197.282 170.35 197.282 169.13C197.282 167.89 197.612 166.905 198.272 166.175C198.912 165.445 199.782 165.08 200.882 165.08C202.032 165.08 202.917 165.515 203.537 166.385ZM201.032 172.1C201.792 172.1 202.397 171.835 202.847 171.305C203.297 170.775 203.522 170.05 203.522 169.13C203.522 168.21 203.297 167.485 202.847 166.955C202.397 166.425 201.792 166.16 201.032 166.16C200.282 166.16 199.677 166.43 199.217 166.97C198.767 167.51 198.542 168.23 198.542 169.13C198.542 170.03 198.767 170.75 199.217 171.29C199.677 171.83 200.282 172.1 201.032 172.1ZM213.225 169.13V169.55H207.345C207.405 170.39 207.64 171.025 208.05 171.455C208.46 171.875 209.02 172.085 209.73 172.085C210.8 172.085 211.485 171.605 211.785 170.645H213.03C212.82 171.425 212.43 172.045 211.86 172.505C211.29 172.955 210.57 173.18 209.7 173.18C208.63 173.18 207.765 172.815 207.105 172.085C206.435 171.355 206.1 170.37 206.1 169.13C206.1 167.91 206.43 166.93 207.09 166.19C207.74 165.45 208.6 165.08 209.67 165.08C210.78 165.08 211.65 165.465 212.28 166.235C212.91 167.005 213.225 167.97 213.225 169.13ZM209.67 166.175C209.04 166.175 208.525 166.375 208.125 166.775C207.725 167.165 207.475 167.73 207.375 168.47H211.935C211.875 167.79 211.645 167.24 211.245 166.82C210.845 166.39 210.32 166.175 209.67 166.175ZM215.939 167.135H214.424V165.635H215.939V167.135ZM215.939 173H214.424V171.5H215.939V173Z" fill="black"/>
<path d="M308.136 162.032H309.088V172H307.912V164.566H305.644V163.642L305.868 163.628C306.577 163.581 307.105 163.441 307.45 163.208C307.795 162.975 308.024 162.583 308.136 162.032ZM311.978 170.936H317.242V172H310.662L310.69 171.454C310.746 170.633 310.933 169.928 311.25 169.34C311.567 168.752 312.104 168.239 312.86 167.8L314.12 167.072C314.755 166.699 315.203 166.335 315.464 165.98C315.735 165.625 315.87 165.196 315.87 164.692C315.87 164.141 315.693 163.703 315.338 163.376C314.993 163.04 314.512 162.872 313.896 162.872C312.505 162.872 311.81 163.586 311.81 165.014H310.648C310.639 163.997 310.923 163.208 311.502 162.648C312.081 162.088 312.888 161.808 313.924 161.808C314.867 161.808 315.632 162.074 316.22 162.606C316.808 163.157 317.102 163.852 317.102 164.692C317.102 165.98 316.346 167.063 314.834 167.94L313.77 168.556C313.154 168.929 312.711 169.293 312.44 169.648C312.169 169.993 312.015 170.423 311.978 170.936ZM320.964 168.514C320.964 169.373 320.53 170.18 319.662 170.936H325.01V172H318.262V170.936C318.794 170.563 319.176 170.194 319.41 169.83C319.652 169.466 319.774 169.027 319.774 168.514C319.774 168.355 319.76 168.206 319.732 168.066H318.094V167.1H319.424C319.414 167.053 319.335 166.89 319.186 166.61C318.756 165.779 318.542 165.061 318.542 164.454C318.542 163.661 318.822 163.021 319.382 162.536C319.932 162.051 320.674 161.808 321.608 161.808C322.709 161.808 323.544 162.088 324.114 162.648C324.683 163.208 324.982 163.969 325.01 164.93H323.792C323.736 164.239 323.53 163.726 323.176 163.39C322.83 163.045 322.289 162.872 321.552 162.872C320.973 162.872 320.525 163.017 320.208 163.306C319.89 163.586 319.732 163.969 319.732 164.454C319.732 164.837 319.914 165.415 320.278 166.19C320.464 166.601 320.6 166.904 320.684 167.1H323.75V168.066H320.936C320.954 168.309 320.964 168.458 320.964 168.514Z" fill="black"/>
<defs>
<filter id="filter0_d" x="0" y="0" width="390" height="522" filterUnits="userSpaceOnUse" color-interpolation-filters="sRGB">
<feFlood flood-opacity="0" result="BackgroundImageFix"/>
<feColorMatrix in="SourceAlpha" type="matrix" values="0 0 0 0 0 0 0 0 0 0 0 0 0 0 0 0 0 0 127 0" result="hardAlpha"/>
<feOffset dy="10"/>
<feGaussianBlur stdDeviation="22"/>
<feColorMatrix type="matrix" values="0 0 0 0 0.341667 0 0 0 0 0.341667 0 0 0 0 0.341667 0 0 0 0.18 0"/>
<feBlend mode="normal" in2="BackgroundImageFix" result="effect1_dropShadow"/>
<feBlend mode="normal" in="SourceGraphic" in2="effect1_dropShadow" result="shape"/>
</filter>
</defs>
</svg>
