<svg width="190" height="228" viewBox="0 0 190 228" fill="none" xmlns="http://www.w3.org/2000/svg">
<g filter="url(#filter0_d)">
<rect x="44" y="34" width="102" height="140" rx="20" fill="#FEE0CC"/>
<g clip-path="url(#clip0)">
<path d="M89.407 65.6949V66.2848C89.6645 71.051 91.2924 75.6415 94.0951 79.5051L113.844 84.1424C116.215 83.3201 118.314 81.864 119.915 79.9322C125 73.8305 123.983 65.6949 123.983 65.6949H89.407Z" fill="#A56A43"/>
<path d="M96.8104 74.8475C92.9358 73.0984 89.407 69.9153 89.407 65.695C89.407 59.5119 97.146 54.5085 106.695 54.5085C116.244 54.5085 123.983 59.5119 123.983 65.695C123.983 71.2475 117.729 75.8645 109.522 76.7085L96.8104 74.8475Z" fill="#CB8252"/>
<path d="M119.916 65.6949C119.914 66.2402 119.804 66.7797 119.59 67.2814C115.166 61.1187 98.2342 61.1085 93.8003 67.2814C93.5866 66.7797 93.4759 66.2402 93.4749 65.6949C93.4749 61.7593 99.3935 58.5763 106.695 58.5763C113.997 58.5763 119.916 61.7593 119.916 65.6949Z" fill="#805333"/>
<path d="M119.59 67.2814C118.288 70.3322 113.285 72.661 107.244 72.7932L98.8238 71.4102C96.3323 70.3932 94.5119 68.9593 93.8 67.2814C98.2238 61.1187 115.156 61.1085 119.59 67.2814Z" fill="#C03A2B"/>
<path d="M99.5765 105.356H121.014C122.117 105.31 123.113 104.683 123.632 103.709C124.151 102.734 124.114 101.558 123.536 100.617L105.149 69.2136C104.65 68.2726 103.672 67.6843 102.607 67.6843C101.542 67.6843 100.564 68.2726 100.065 69.2136L92.1121 82.8712L99.5765 105.356Z" fill="#F0C419"/>
<path d="M104.743 113.492H67.9697C66.8665 113.446 65.8702 112.819 65.3515 111.844C64.8328 110.87 64.8694 109.693 65.4476 108.753L83.8341 77.3492C84.3332 76.4082 85.3113 75.8199 86.3764 75.8199C87.4416 75.8199 88.4196 76.4082 88.9188 77.3492L107.265 108.753C107.843 109.693 107.879 110.87 107.361 111.844C106.842 112.819 105.846 113.446 104.743 113.492Z" fill="#F0C419"/>
<path d="M104.742 113.492H100.593C90.5459 102.61 90.1493 85.5357 90.3323 79.8306L107.265 108.753C107.843 109.693 107.879 110.87 107.361 111.844C106.842 112.819 105.846 113.446 104.742 113.492Z" fill="#F29C1F"/>
<path d="M121.014 105.356H116.865C106.817 94.4746 106.421 77.4 106.604 71.6949L123.536 100.617C124.114 101.558 124.151 102.734 123.632 103.709C123.113 104.683 122.117 105.31 121.014 105.356Z" fill="#F29C1F"/>
</g>
<path d="M74.281 148H71.986V135.896H74.281V148ZM80.9612 139.024C81.9132 139.024 82.6612 139.302 83.2052 139.857C83.7605 140.401 84.0382 141.177 84.0382 142.186V148H81.8962V142.543C81.8962 141.432 81.3465 140.877 80.2472 140.877C79.7032 140.877 79.2385 141.075 78.8532 141.472C78.4792 141.857 78.2922 142.396 78.2922 143.087V148H76.1502V139.228H78.2242V140.486C78.8929 139.511 79.8052 139.024 80.9612 139.024ZM92.0351 140.367V135.896H94.1771V148H92.1031V146.776C91.4571 147.728 90.5334 148.204 89.3321 148.204C88.1194 148.204 87.1618 147.785 86.4591 146.946C85.7451 146.107 85.3881 144.997 85.3881 143.614C85.3881 142.209 85.7451 141.092 86.4591 140.265C87.1504 139.438 88.1081 139.024 89.3321 139.024C90.5108 139.024 91.4118 139.472 92.0351 140.367ZM87.5811 143.682C87.5811 144.589 87.7794 145.274 88.1761 145.739C88.5728 146.204 89.1224 146.436 89.8251 146.436C90.5278 146.436 91.0831 146.192 91.4911 145.705C91.8878 145.218 92.0861 144.521 92.0861 143.614C92.0861 142.707 91.8878 142.01 91.4911 141.523C91.0944 141.036 90.5391 140.792 89.8251 140.792C89.1338 140.792 88.5841 141.047 88.1761 141.557C87.7794 142.067 87.5811 142.775 87.5811 143.682ZM98.0311 138.089H95.9231V136.083H98.0311V138.089ZM98.0481 148H95.9061V139.228H98.0481V148ZM107.662 148H105.52C105.418 147.819 105.339 147.462 105.282 146.929C104.693 147.779 103.752 148.204 102.46 148.204C101.497 148.204 100.726 147.972 100.148 147.507C99.5816 147.042 99.2982 146.396 99.2982 145.569C99.2982 143.971 100.42 143.059 102.664 142.832L103.99 142.713C104.432 142.656 104.75 142.554 104.942 142.407C105.135 142.248 105.231 142.016 105.231 141.71C105.231 141.336 105.107 141.064 104.857 140.894C104.619 140.713 104.211 140.622 103.633 140.622C103.01 140.622 102.562 140.73 102.29 140.945C102.018 141.149 101.86 141.506 101.814 142.016H99.7062C99.8309 140.021 101.146 139.024 103.65 139.024C106.087 139.024 107.305 139.902 107.305 141.659V146.334C107.305 147.105 107.424 147.66 107.662 148ZM102.97 146.674C103.639 146.674 104.183 146.493 104.602 146.13C105.022 145.756 105.231 145.223 105.231 144.532V143.733C105.027 143.914 104.693 144.033 104.228 144.09L103.072 144.226C102.506 144.294 102.098 144.43 101.848 144.634C101.61 144.827 101.491 145.11 101.491 145.484C101.491 145.858 101.616 146.153 101.865 146.368C102.126 146.572 102.494 146.674 102.97 146.674ZM113.749 139.024C114.701 139.024 115.449 139.302 115.993 139.857C116.549 140.401 116.826 141.177 116.826 142.186V148H114.684V142.543C114.684 141.432 114.135 140.877 113.035 140.877C112.491 140.877 112.027 141.075 111.641 141.472C111.267 141.857 111.08 142.396 111.08 143.087V148H108.938V139.228H111.012V140.486C111.681 139.511 112.593 139.024 113.749 139.024Z" fill="#EA6D19"/>
</g>
<defs>
<filter id="filter0_d" x="0" y="0" width="190" height="228" filterUnits="userSpaceOnUse" color-interpolation-filters="sRGB">
<feFlood flood-opacity="0" result="BackgroundImageFix"/>
<feColorMatrix in="SourceAlpha" type="matrix" values="0 0 0 0 0 0 0 0 0 0 0 0 0 0 0 0 0 0 127 0" result="hardAlpha"/>
<feOffset dy="10"/>
<feGaussianBlur stdDeviation="22"/>
<feColorMatrix type="matrix" values="0 0 0 0 0.341667 0 0 0 0 0.341667 0 0 0 0 0.341667 0 0 0 0.18 0"/>
<feBlend mode="normal" in2="BackgroundImageFix" result="effect1_dropShadow"/>
<feBlend mode="normal" in="SourceGraphic" in2="effect1_dropShadow" result="shape"/>
</filter>
<clipPath id="clip0">
<rect width="60" height="60" fill="white" transform="translate(65 54)"/>
</clipPath>
</defs>
</svg>
