<svg width="238" height="123" viewBox="0 0 238 123" fill="none" xmlns="http://www.w3.org/2000/svg">
<g filter="url(#filter0_d)">
<rect x="44" y="34" width="150" height="35" rx="17.5" fill="#FEE0CC"/>
<path d="M69.1318 53.302L72.0478 45.184H73.6318L68.8798 58H67.1878L62.3638 45.184H63.9658L66.9358 53.302C67.4758 54.826 67.8418 55.888 68.0338 56.488C68.2138 55.888 68.5798 54.826 69.1318 53.302ZM81.6448 53.356V53.86H74.5888C74.6608 54.868 74.9428 55.63 75.4348 56.146C75.9268 56.65 76.5988 56.902 77.4508 56.902C78.7348 56.902 79.5568 56.326 79.9168 55.174H81.4108C81.1588 56.11 80.6908 56.854 80.0068 57.406C79.3228 57.946 78.4588 58.216 77.4148 58.216C76.1308 58.216 75.0928 57.778 74.3008 56.902C73.4968 56.026 73.0948 54.844 73.0948 53.356C73.0948 51.892 73.4908 50.716 74.2828 49.828C75.0628 48.94 76.0948 48.496 77.3788 48.496C78.7108 48.496 79.7548 48.958 80.5108 49.882C81.2668 50.806 81.6448 51.964 81.6448 53.356ZM77.3788 49.81C76.6228 49.81 76.0048 50.05 75.5248 50.53C75.0448 50.998 74.7448 51.676 74.6248 52.564H80.0968C80.0248 51.748 79.7488 51.088 79.2688 50.584C78.7888 50.068 78.1588 49.81 77.3788 49.81ZM90.4094 50.062V48.712H91.7774V57.64C91.7774 58.912 91.4054 59.914 90.6614 60.646C89.9174 61.378 88.8494 61.744 87.4574 61.744C86.3054 61.744 85.3814 61.48 84.6854 60.952C83.9894 60.424 83.5934 59.692 83.4974 58.756H84.9374C85.1174 59.932 85.9574 60.52 87.4574 60.52C89.3774 60.52 90.3374 59.56 90.3374 57.64V56.74C89.6054 57.724 88.5674 58.216 87.2234 58.216C85.9154 58.216 84.8714 57.772 84.0914 56.884C83.2994 55.996 82.9034 54.82 82.9034 53.356C82.9034 51.868 83.2994 50.686 84.0914 49.81C84.8594 48.934 85.9034 48.496 87.2234 48.496C88.6034 48.496 89.6654 49.018 90.4094 50.062ZM87.4034 56.92C88.3154 56.92 89.0414 56.602 89.5814 55.966C90.1214 55.33 90.3914 54.46 90.3914 53.356C90.3914 52.252 90.1214 51.382 89.5814 50.746C89.0414 50.11 88.3154 49.792 87.4034 49.792C86.5034 49.792 85.7774 50.116 85.2254 50.764C84.6854 51.412 84.4154 52.276 84.4154 53.356C84.4154 54.436 84.6854 55.3 85.2254 55.948C85.7774 56.596 86.5034 56.92 87.4034 56.92ZM102.035 53.356V53.86H94.9795C95.0515 54.868 95.3335 55.63 95.8255 56.146C96.3175 56.65 96.9895 56.902 97.8415 56.902C99.1255 56.902 99.9475 56.326 100.307 55.174H101.801C101.549 56.11 101.081 56.854 100.397 57.406C99.7135 57.946 98.8495 58.216 97.8055 58.216C96.5215 58.216 95.4835 57.778 94.6915 56.902C93.8875 56.026 93.4855 54.844 93.4855 53.356C93.4855 51.892 93.8815 50.716 94.6735 49.828C95.4535 48.94 96.4855 48.496 97.7695 48.496C99.1015 48.496 100.145 48.958 100.901 49.882C101.657 50.806 102.035 51.964 102.035 53.356ZM97.7695 49.81C97.0135 49.81 96.3955 50.05 95.9155 50.53C95.4355 50.998 95.1355 51.676 95.0155 52.564H100.487C100.415 51.748 100.139 51.088 99.6595 50.584C99.1795 50.068 98.5495 49.81 97.7695 49.81ZM107.267 48.712V49.972H105.359V56.002C105.359 56.53 105.713 56.794 106.421 56.794H107.267V58C106.871 58.036 106.529 58.054 106.241 58.054C104.693 58.054 103.919 57.412 103.919 56.128V49.972H102.389V48.712H103.919V46.084H105.359V48.712H107.267ZM116.297 56.83H116.819V58C116.579 58.036 116.315 58.054 116.027 58.054C115.055 58.054 114.533 57.61 114.461 56.722C113.813 57.718 112.805 58.216 111.437 58.216C110.417 58.216 109.613 57.982 109.025 57.514C108.449 57.034 108.161 56.362 108.161 55.498C108.161 53.818 109.307 52.858 111.599 52.618L112.931 52.474C113.903 52.366 114.389 51.94 114.389 51.196C114.389 50.68 114.227 50.308 113.903 50.08C113.591 49.852 113.057 49.738 112.301 49.738C111.497 49.738 110.915 49.876 110.555 50.152C110.207 50.416 110.009 50.89 109.961 51.574H108.521C108.641 49.522 109.901 48.496 112.301 48.496C114.629 48.496 115.793 49.396 115.793 51.196V56.38C115.793 56.68 115.961 56.83 116.297 56.83ZM111.509 56.992C112.277 56.992 112.949 56.758 113.525 56.29C114.101 55.834 114.389 55.18 114.389 54.328V53.23C114.125 53.434 113.717 53.566 113.165 53.626L111.815 53.788C111.035 53.884 110.477 54.064 110.141 54.328C109.817 54.592 109.655 54.97 109.655 55.462C109.655 55.942 109.811 56.32 110.123 56.596C110.435 56.86 110.897 56.992 111.509 56.992ZM122.444 48.568C122.684 48.568 122.846 48.574 122.93 48.586V49.972H122.57C121.61 49.972 120.86 50.212 120.32 50.692C119.792 51.16 119.528 51.832 119.528 52.708V58H118.088V48.712H119.456V50.35C120.08 49.162 121.076 48.568 122.444 48.568ZM125.751 47.308H124.221V45.544H125.751V47.308ZM125.715 58H124.275V48.712H125.715V58ZM135.475 56.83H135.997V58C135.757 58.036 135.493 58.054 135.205 58.054C134.233 58.054 133.711 57.61 133.639 56.722C132.991 57.718 131.983 58.216 130.615 58.216C129.595 58.216 128.791 57.982 128.203 57.514C127.627 57.034 127.339 56.362 127.339 55.498C127.339 53.818 128.485 52.858 130.777 52.618L132.109 52.474C133.081 52.366 133.567 51.94 133.567 51.196C133.567 50.68 133.405 50.308 133.081 50.08C132.769 49.852 132.235 49.738 131.479 49.738C130.675 49.738 130.093 49.876 129.733 50.152C129.385 50.416 129.187 50.89 129.139 51.574H127.699C127.819 49.522 129.079 48.496 131.479 48.496C133.807 48.496 134.971 49.396 134.971 51.196V56.38C134.971 56.68 135.139 56.83 135.475 56.83ZM130.687 56.992C131.455 56.992 132.127 56.758 132.703 56.29C133.279 55.834 133.567 55.18 133.567 54.328V53.23C133.303 53.434 132.895 53.566 132.343 53.626L130.993 53.788C130.213 53.884 129.655 54.064 129.319 54.328C128.995 54.592 128.833 54.97 128.833 55.462C128.833 55.942 128.989 56.32 129.301 56.596C129.613 56.86 130.075 56.992 130.687 56.992ZM141.55 48.496C142.582 48.496 143.386 48.778 143.962 49.342C144.538 49.906 144.826 50.698 144.826 51.718V58H143.386V51.862C143.386 50.482 142.678 49.792 141.262 49.792C140.59 49.792 139.996 50.044 139.48 50.548C138.964 51.052 138.706 51.784 138.706 52.744V58H137.266V48.712H138.634V50.098C139.342 49.03 140.314 48.496 141.55 48.496Z" fill="black"/>
<g clip-path="url(#clip0)">
<path d="M169.552 52.001L173.885 47.6678C174.038 47.5153 174.038 47.2679 173.885 47.1154C173.733 46.9629 173.485 46.9628 173.333 47.1154L169 51.4486L164.666 47.1154C164.514 46.9628 164.267 46.9628 164.114 47.1154C163.962 47.268 163.961 47.5153 164.114 47.6678L168.447 52.001L164.114 56.3341C163.961 56.4867 163.961 56.734 164.114 56.8866C164.19 56.9628 164.29 57.001 164.39 57.001C164.49 57.001 164.59 56.9628 164.667 56.8866L169 52.5534L173.333 56.8866C173.409 56.9628 173.509 57.001 173.609 57.001C173.709 57.001 173.809 56.9628 173.885 56.8866C174.038 56.734 174.038 56.4867 173.885 56.3341L169.552 52.001Z" fill="black"/>
</g>
</g>
<defs>
<filter id="filter0_d" x="0" y="0" width="238" height="123" filterUnits="userSpaceOnUse" color-interpolation-filters="sRGB">
<feFlood flood-opacity="0" result="BackgroundImageFix"/>
<feColorMatrix in="SourceAlpha" type="matrix" values="0 0 0 0 0 0 0 0 0 0 0 0 0 0 0 0 0 0 127 0" result="hardAlpha"/>
<feOffset dy="10"/>
<feGaussianBlur stdDeviation="22"/>
<feColorMatrix type="matrix" values="0 0 0 0 0.341667 0 0 0 0 0.341667 0 0 0 0 0.341667 0 0 0 0.18 0"/>
<feBlend mode="normal" in2="BackgroundImageFix" result="effect1_dropShadow"/>
<feBlend mode="normal" in="SourceGraphic" in2="effect1_dropShadow" result="shape"/>
</filter>
<clipPath id="clip0">
<rect width="10" height="10" fill="white" transform="translate(164 47)"/>
</clipPath>
</defs>
</svg>
