<svg width="222" height="128" viewBox="0 0 222 128" fill="none" xmlns="http://www.w3.org/2000/svg">
<g filter="url(#filter0_d)">
<path d="M44 34H170C174.418 34 178 37.5817 178 42V74H52C47.5817 74 44 70.4183 44 66V34Z" fill="#FFEA2C"/>
<path d="M65.462 47.896C66.206 47.896 66.848 48.016 67.388 48.256C67.94 48.484 68.354 48.796 68.63 49.192C68.918 49.588 69.116 50.02 69.224 50.488C69.332 50.944 69.35 51.418 69.278 51.91H67.712C67.796 51.094 67.634 50.452 67.226 49.984C66.818 49.504 66.158 49.264 65.246 49.264C64.562 49.264 63.992 49.438 63.536 49.786C63.092 50.122 62.804 50.578 62.672 51.154C62.528 51.73 62.576 52.522 62.816 53.53C62.876 53.77 62.96 54.16 63.068 54.7H67.064L66.812 55.942H63.104C63.092 56.17 63.056 56.41 62.996 56.662C62.744 57.802 62.054 58.792 60.926 59.632H67.64L67.352 61H58.676L58.964 59.632C60.416 58.78 61.274 57.784 61.538 56.644C61.598 56.392 61.634 56.158 61.646 55.942H59.54L59.792 54.7H61.52C61.52 54.688 61.514 54.664 61.502 54.628C61.49 54.58 61.472 54.532 61.448 54.484C61.436 54.424 61.43 54.388 61.43 54.376C61.046 53.152 60.956 52.042 61.16 51.046C61.376 50.062 61.85 49.294 62.582 48.742C63.326 48.178 64.286 47.896 65.462 47.896ZM74.4547 48.184H75.6787L72.9427 61H71.4307L73.4647 51.442H70.5487L70.8007 50.254L71.0887 50.236C72.0127 50.176 72.7267 49.996 73.2307 49.696C73.7347 49.396 74.1427 48.892 74.4547 48.184ZM80.8883 48.184H82.1123L79.3763 61H77.8643L79.8983 51.442H76.9823L77.2343 50.254L77.5223 50.236C78.4463 50.176 79.1603 49.996 79.6643 49.696C80.1683 49.396 80.5763 48.892 80.8883 48.184ZM81.6021 61L81.9801 59.2H83.7981L83.3841 61.162C83.2161 61.954 82.9521 62.524 82.5921 62.872C82.2441 63.232 81.7401 63.442 81.0801 63.502L81.2781 62.53C81.8421 62.446 82.1961 62.032 82.3401 61.288L82.3941 61H81.6021ZM95.3878 48.184L95.0998 49.552H89.6998L88.3138 53.386C89.0098 52.894 89.8018 52.648 90.6898 52.648C92.0098 52.648 93.0058 53.092 93.6778 53.98C94.3258 54.868 94.4998 56.014 94.1998 57.418C93.9718 58.498 93.4438 59.416 92.6158 60.172C91.7998 60.916 90.7438 61.288 89.4478 61.288C88.1758 61.288 87.1738 60.94 86.4418 60.244C85.6978 59.536 85.3678 58.6 85.4518 57.436H86.9818C86.9458 58.252 87.1558 58.87 87.6118 59.29C88.0798 59.71 88.7398 59.92 89.5918 59.92C90.3718 59.92 91.0378 59.674 91.5898 59.182C92.1418 58.678 92.5018 58.012 92.6698 57.184C92.8738 56.224 92.7598 55.456 92.3278 54.88C91.9078 54.304 91.2598 54.016 90.3838 54.016C89.1118 54.016 88.1878 54.532 87.6118 55.564H86.1178L88.7638 48.184H95.3878Z" fill="black"/>
<path d="M59 55.24H95.2618V56.14H59V55.24Z" fill="black"/>
<path d="M135.237 56.41C135.237 57.31 134.829 58.114 134.013 58.822H140.097V61H130.971V59.02C131.619 58.696 132.087 58.342 132.375 57.958C132.675 57.562 132.825 57.082 132.825 56.518C132.825 56.254 132.789 55.996 132.717 55.744H130.683V54.43H132.213C132.213 54.418 132.183 54.352 132.123 54.232C131.583 53.08 131.313 52.162 131.313 51.478C131.313 50.386 131.709 49.516 132.501 48.868C133.269 48.22 134.307 47.896 135.615 47.896C137.055 47.896 138.147 48.25 138.891 48.958C139.635 49.666 140.037 50.68 140.097 52H137.739C137.703 51.292 137.517 50.764 137.181 50.416C136.845 50.068 136.311 49.894 135.579 49.894C135.003 49.894 134.559 50.038 134.247 50.326C133.935 50.602 133.779 50.986 133.779 51.478C133.779 51.91 133.989 52.594 134.409 53.53C134.505 53.77 134.631 54.07 134.787 54.43H138.459V55.744H135.183C135.219 55.96 135.237 56.182 135.237 56.41ZM140.911 50.236V48.184H149.677V50.128C148.225 51.664 147.175 53.272 146.527 54.952C145.855 56.68 145.501 58.696 145.465 61H142.945C143.017 56.86 144.433 53.272 147.193 50.236H140.911ZM149.006 61V58.426H151.652V61.198C151.652 62.89 150.878 63.766 149.33 63.826H149.006V62.53L149.312 62.512C149.864 62.476 150.14 62.074 150.14 61.306V61H149.006ZM158.005 52.576C159.397 52.576 160.483 52.984 161.263 53.8C162.019 54.616 162.397 55.63 162.397 56.842C162.397 58.174 161.953 59.248 161.065 60.064C160.177 60.88 159.025 61.288 157.609 61.288C156.301 61.288 155.203 60.934 154.315 60.226C153.451 59.53 152.971 58.57 152.875 57.346H155.197C155.281 57.958 155.539 58.444 155.971 58.804C156.415 59.152 156.961 59.326 157.609 59.326C158.341 59.326 158.929 59.098 159.373 58.642C159.829 58.174 160.057 57.574 160.057 56.842C160.057 56.11 159.829 55.516 159.373 55.06C158.929 54.592 158.341 54.358 157.609 54.358C156.529 54.358 155.779 54.79 155.359 55.654H153.127L154.315 48.184H161.731V50.236H156.223L155.665 53.422C156.361 52.858 157.141 52.576 158.005 52.576Z" fill="black"/>
<rect x="111" y="41" width="1" height="26" fill="black"/>
</g>
<defs>
<filter id="filter0_d" x="0" y="0" width="222" height="128" filterUnits="userSpaceOnUse" color-interpolation-filters="sRGB">
<feFlood flood-opacity="0" result="BackgroundImageFix"/>
<feColorMatrix in="SourceAlpha" type="matrix" values="0 0 0 0 0 0 0 0 0 0 0 0 0 0 0 0 0 0 127 0" result="hardAlpha"/>
<feOffset dy="10"/>
<feGaussianBlur stdDeviation="22"/>
<feColorMatrix type="matrix" values="0 0 0 0 0.341667 0 0 0 0 0.341667 0 0 0 0 0.341667 0 0 0 0.18 0"/>
<feBlend mode="normal" in2="BackgroundImageFix" result="effect1_dropShadow"/>
<feBlend mode="normal" in="SourceGraphic" in2="effect1_dropShadow" result="shape"/>
</filter>
</defs>
</svg>
