<svg width="57" height="133" viewBox="0 0 57 133" fill="none" xmlns="http://www.w3.org/2000/svg">
<path d="M56 64.5001L55.5 64.5001L56 64.5001ZM26.5124 0.50028C26.2363 0.49343 26.007 0.711677 26.0001 0.987734L25.8886 5.48635C25.8818 5.76241 26.1 5.99175 26.3761 5.99859C26.6521 6.00544 26.8815 5.78719 26.8883 5.51113L26.9874 1.51236L30.9862 1.61149C31.2623 1.61834 31.4916 1.4001 31.4985 1.12405C31.5053 0.847984 31.2871 0.61865 31.011 0.611804L26.5124 0.50028ZM1.49999 131.5C1.76742 131.923 1.76743 131.923 1.76743 131.923C1.76744 131.923 1.76745 131.923 1.76746 131.923C1.76747 131.923 1.7675 131.923 1.76752 131.923C1.76757 131.922 1.76764 131.922 1.76773 131.922C1.76791 131.922 1.76815 131.922 1.76846 131.922C1.76909 131.922 1.77 131.921 1.77119 131.92C1.77356 131.919 1.77704 131.916 1.78163 131.914C1.79081 131.908 1.8044 131.899 1.82232 131.888C1.85815 131.865 1.91131 131.831 1.98113 131.786C2.12078 131.696 2.3271 131.562 2.59488 131.386L2.04615 130.55C1.78082 130.724 1.57688 130.857 1.43954 130.945C1.37087 130.989 1.31885 131.023 1.28414 131.045C1.26678 131.056 1.25375 131.064 1.24512 131.07C1.24081 131.072 1.2376 131.074 1.2355 131.076C1.23445 131.076 1.23368 131.077 1.23319 131.077C1.23294 131.077 1.23277 131.078 1.23266 131.078C1.23261 131.078 1.23257 131.078 1.23255 131.078C1.23254 131.078 1.23254 131.078 1.23254 131.078C1.23254 131.078 1.23254 131.078 1.23254 131.078C1.23255 131.078 1.23255 131.078 1.49999 131.5ZM4.30119 130.247C4.79434 129.913 5.35177 129.531 5.96656 129.105L5.3964 128.283C4.7848 128.708 4.23045 129.087 3.74027 129.419L4.30119 130.247ZM7.63208 127.936C8.15608 127.565 8.70846 127.169 9.2864 126.751L8.70019 125.941C8.12491 126.357 7.57512 126.751 7.05364 127.12L7.63208 127.936ZM10.9317 125.549C11.4621 125.158 12.0091 124.75 12.5711 124.328L11.9701 123.528C11.4106 123.949 10.866 124.355 10.338 124.744L10.9317 125.549ZM14.1905 123.098C14.7134 122.698 15.2468 122.285 15.7895 121.862L15.1741 121.073C14.6339 121.495 14.1028 121.906 13.5822 122.305L14.1905 123.098ZM17.389 120.601C17.9138 120.183 18.4457 119.756 18.9837 119.32L18.3538 118.543C17.8182 118.978 17.2888 119.403 16.7664 119.818L17.389 120.601ZM20.5459 118.04C21.0628 117.613 21.5843 117.177 22.1095 116.734L21.4647 115.97C20.942 116.411 20.4231 116.844 19.9086 117.27L20.5459 118.04ZM23.6597 115.413C24.1672 114.976 24.6773 114.532 25.1893 114.082L24.529 113.331C24.0196 113.779 23.5121 114.221 23.0072 114.655L23.6597 115.413ZM26.7155 112.726C27.2148 112.277 27.7153 111.823 28.2161 111.363L27.5396 110.626C27.0415 111.084 26.5438 111.536 26.0471 111.982L26.7155 112.726ZM29.7077 109.976C30.1995 109.514 30.691 109.046 31.1817 108.574L30.488 107.853C30.0003 108.323 29.5116 108.788 29.0227 109.248L29.7077 109.976ZM32.6372 107.154C33.1191 106.678 33.5995 106.197 34.0778 105.712L33.3657 105.01C32.8906 105.492 32.4133 105.969 31.9345 106.442L32.6372 107.154ZM35.4948 104.255C35.9642 103.766 36.4309 103.272 36.8944 102.775L36.1627 102.093C35.7026 102.587 35.2392 103.077 34.7731 103.563L35.4948 104.255ZM38.2701 101.275C38.7251 100.771 39.1764 100.264 39.6233 99.7525L38.8704 99.0943C38.4272 99.6013 37.9795 100.105 37.528 100.605L38.2701 101.275ZM40.9506 98.208C41.3894 97.6883 41.8232 97.1652 42.2515 96.6388L41.4758 96.0077C41.0515 96.5292 40.6215 97.0476 40.1865 97.5628L40.9506 98.208ZM43.5212 95.0472C43.9412 94.5099 44.355 93.9696 44.7619 93.4263L43.9615 92.8268C43.5589 93.3644 43.1493 93.8993 42.7334 94.4313L43.5212 95.0472ZM45.9638 91.7842C46.3616 91.2279 46.7516 90.6688 47.1333 90.1071L46.3061 89.5451C45.9291 90.1 45.5436 90.6526 45.1504 91.2027L45.9638 91.7842ZM48.2578 88.4063C48.6275 87.831 48.988 87.2533 49.3386 86.6733L48.4827 86.1561C48.1371 86.7279 47.7815 87.2978 47.4166 87.8656L48.2578 88.4063ZM50.3704 84.9079C50.7061 84.3131 51.0307 83.7163 51.3437 83.1175L50.4574 82.6543C50.1496 83.2432 49.8301 83.8307 49.4995 84.4164L50.3704 84.9079ZM52.2626 81.2824C52.5585 80.6643 52.8413 80.0445 53.1101 79.4232L52.1924 79.026C51.9287 79.6353 51.6512 80.2436 51.3607 80.8506L52.2626 81.2824ZM53.8855 77.5262C54.1325 76.8835 54.364 76.2394 54.5792 75.5943L53.6305 75.2779C53.4203 75.9083 53.1939 76.5383 52.9521 77.1674L53.8855 77.5262ZM55.1793 73.6386C55.3654 72.9738 55.5334 72.3081 55.6821 71.6418L54.7062 71.4239C54.5614 72.0723 54.3978 72.7207 54.2163 73.369L55.1793 73.6386ZM56.0729 69.6236C56.1839 68.9451 56.2742 68.2663 56.3426 67.5876L55.3476 67.4873C55.2813 68.145 55.1938 68.8033 55.0861 69.4621L56.0729 69.6236ZM56.4822 65.5288C56.494 65.1858 56.5 64.8429 56.5 64.5001L55.5 64.5001C55.5 64.8313 55.4942 65.1627 55.4828 65.4945L56.4822 65.5288ZM56.5 64.5001C56.5 64.1657 56.4969 63.8315 56.4908 63.4975L55.4909 63.5158C55.4969 63.8438 55.5 64.1719 55.5 64.5001L56.5 64.5001ZM56.4182 61.4963C56.3821 60.8291 56.3344 60.1631 56.2756 59.4984L55.2795 59.5866C55.3373 60.2401 55.3842 60.8947 55.4196 61.5502L56.4182 61.4963ZM56.0661 57.5077C55.9854 56.8453 55.8941 56.1845 55.7927 55.5255L54.8043 55.6777C54.9042 56.3265 54.9941 56.9768 55.0735 57.6286L56.0661 57.5077ZM55.4581 53.5529C55.3367 52.897 55.2056 52.2433 55.0655 51.5919L54.0879 51.8023C54.226 52.4444 54.3552 53.0887 54.4748 53.7349L55.4581 53.5529ZM54.6177 49.6438C54.4594 48.9958 54.2924 48.3505 54.1173 47.7081L53.1525 47.9711C53.3253 48.6052 53.4901 49.2419 53.6463 49.8811L54.6177 49.6438ZM53.5672 45.7873C53.3757 45.1488 53.1765 44.5134 52.9701 43.8815L52.0195 44.192C52.2234 44.8164 52.4202 45.444 52.6094 46.0746L53.5672 45.7873ZM52.3275 41.9894C52.1059 41.3605 51.8775 40.7354 51.643 40.1143L50.7074 40.4676C50.9394 41.0819 51.1653 41.7001 51.3844 42.3218L52.3275 41.9894ZM50.9181 38.2551C50.6689 37.6355 50.4139 37.0201 50.1537 36.4094L49.2337 36.8014C49.4913 37.406 49.7437 38.015 49.9903 38.6282L50.9181 38.2551ZM49.3538 34.5823C49.0803 33.9737 48.802 33.3701 48.5195 32.7718L47.6152 33.1988C47.8952 33.7916 48.1708 34.3895 48.4417 34.9922L49.3538 34.5823ZM47.6499 30.9731C47.3536 30.3741 47.0535 29.7809 46.7503 29.1938L45.8618 29.6528C46.1625 30.2348 46.4599 30.8228 46.7536 31.4165L47.6499 30.9731ZM45.8223 27.4341C45.5043 26.8431 45.1835 26.2587 44.8606 25.6815L43.9878 26.1696C44.3081 26.7423 44.6263 27.3218 44.9417 27.908L45.8223 27.4341ZM43.8728 23.9482C43.5369 23.3692 43.1994 22.7981 42.8611 22.2352L42.004 22.7503C42.3397 23.309 42.6746 23.8757 43.0079 24.4501L43.8728 23.9482ZM41.8223 20.5357C41.4664 19.963 41.1103 19.3996 40.755 18.8461L39.9135 19.3862C40.2662 19.9358 40.6197 20.495 40.973 21.0635L41.8223 20.5357ZM39.6656 17.1753C39.2933 16.6131 38.9228 16.0623 38.5549 15.5234L37.729 16.0871C38.0943 16.6223 38.4622 17.1692 38.8318 17.7274L39.6656 17.1753ZM37.4234 13.8897C37.0339 13.3356 36.6487 12.7958 36.2691 12.2709L35.4588 12.857C35.8359 13.3783 36.2185 13.9144 36.6053 14.4647L37.4234 13.8897ZM35.0879 10.6613C34.6784 10.1112 34.2774 9.58056 33.8865 9.07014L33.0926 9.67816C33.4808 10.1851 33.8791 10.7121 34.2857 11.2584L35.0879 10.6613ZM32.6657 7.49866C32.2334 6.95008 31.8176 6.43079 31.421 5.94217L30.6446 6.57233C31.0382 7.05735 31.451 7.5729 31.8803 8.11762L32.6657 7.49866ZM30.1438 4.39241C29.6734 3.83064 29.2437 3.32736 28.8613 2.88592L28.1055 3.54067C28.4844 3.97804 28.9104 4.47706 29.377 5.03436L30.1438 4.39241ZM27.534 1.3847C27.3184 1.14652 27.1511 0.964902 27.0374 0.842489C26.9805 0.78128 26.9371 0.734871 26.9077 0.703593C26.8929 0.68795 26.8817 0.676089 26.8741 0.668047C26.8703 0.664031 26.8674 0.660965 26.8654 0.658864C26.8644 0.657812 26.8637 0.657 26.8631 0.656428C26.8629 0.656142 26.8627 0.655917 26.8625 0.655756C26.8624 0.655671 26.8624 0.655604 26.8623 0.655556C26.8623 0.655529 26.8623 0.655504 26.8622 0.655489C26.8622 0.655477 26.8622 0.655464 26.8622 0.655458C26.8622 0.655456 26.8622 0.655443 26.5 1.00012C26.1378 1.34481 26.1378 1.3448 26.1378 1.34479C26.1378 1.34479 26.1378 1.34479 26.1378 1.34479C26.1378 1.34479 26.1378 1.34482 26.1378 1.34486C26.1379 1.34493 26.138 1.34507 26.1382 1.34527C26.1386 1.34566 26.1392 1.34629 26.14 1.34716C26.1417 1.34891 26.1442 1.35162 26.1477 1.35528C26.1546 1.3626 26.1651 1.37373 26.1792 1.38864C26.2072 1.41846 26.2493 1.46338 26.3047 1.52306C26.4156 1.64243 26.5799 1.82087 26.7926 2.05576L27.534 1.3847ZM56 64.5001L55 64.5001L56 64.5001ZM26.5248 0.000430935C25.9727 -0.0132545 25.514 0.423225 25.5003 0.975337L25.2772 9.97257C25.2636 10.5247 25.7 10.9834 26.2522 10.9971C26.8043 11.0107 27.2629 10.5743 27.2766 10.0221L27.4749 2.0246L35.4724 2.22287C36.0246 2.23656 36.4832 1.80008 36.4969 1.24796C36.5106 0.695848 36.0741 0.237175 35.522 0.22349L26.5248 0.000430935ZM1.49999 131.5C2.03485 132.345 2.03487 132.345 2.03488 132.345C2.03489 132.345 2.0349 132.345 2.03492 132.345C2.03494 132.345 2.03497 132.345 2.03501 132.345C2.03508 132.345 2.03516 132.345 2.03527 132.345C2.03547 132.345 2.03575 132.344 2.0361 132.344C2.0368 132.344 2.03777 132.343 2.03903 132.342C2.04154 132.341 2.04516 132.339 2.04989 132.336C2.05934 132.329 2.07321 132.321 2.09141 132.309C2.1278 132.286 2.18153 132.251 2.25193 132.206C2.39273 132.115 2.60024 131.981 2.86925 131.804L1.77179 130.132C1.50769 130.306 1.30493 130.437 1.16874 130.525C1.10065 130.569 1.0492 130.602 1.01505 130.623C0.997968 130.634 0.985214 130.642 0.976866 130.648C0.972692 130.65 0.969619 130.652 0.967658 130.654C0.966677 130.654 0.965974 130.655 0.965551 130.655C0.965339 130.655 0.965197 130.655 0.965125 130.655C0.965089 130.655 0.96507 130.655 0.965069 130.655C0.965069 130.655 0.965073 130.655 0.965081 130.655C0.965085 130.655 0.965095 130.655 0.965097 130.655C0.965107 130.655 0.965119 130.655 1.49999 131.5ZM4.58165 130.661C5.07628 130.326 5.63526 129.943 6.25164 129.515L5.11132 127.872C4.50131 128.296 3.9485 128.674 3.45981 129.005L4.58165 130.661ZM7.9213 128.344C8.44656 127.972 9.00024 127.575 9.5795 127.156L8.40709 125.536C7.83314 125.951 7.28464 126.344 6.76441 126.713L7.9213 128.344ZM11.2285 125.951C11.7601 125.559 12.3084 125.151 12.8716 124.727L11.6696 123.129C11.1113 123.549 10.568 123.953 10.0412 124.342L11.2285 125.951ZM14.4946 123.495C15.0187 123.094 15.5533 122.68 16.0972 122.256L14.8664 120.679C14.3274 121.1 13.7975 121.51 13.2781 121.908L14.4946 123.495ZM17.7003 120.992C18.2263 120.574 18.7595 120.145 19.2987 119.708L18.0388 118.155C17.5045 118.588 16.9763 119.012 16.4551 119.427L17.7003 120.992ZM20.8646 118.426C21.3827 117.997 21.9054 117.561 22.4319 117.116L21.1423 115.588C20.6209 116.028 20.1032 116.46 19.5899 116.884L20.8646 118.426ZM23.9859 115.792C24.4947 115.354 25.0061 114.909 25.5194 114.458L24.1988 112.956C23.6908 113.402 23.1846 113.843 22.6809 114.276L23.9859 115.792ZM27.0497 113.098C27.5503 112.648 28.0522 112.192 28.5544 111.731L27.2013 110.258C26.7046 110.714 26.2083 111.165 25.713 111.61L27.0497 113.098ZM30.0502 110.341C30.5434 109.877 31.0364 109.408 31.5286 108.934L30.1411 107.493C29.6549 107.962 29.1677 108.425 28.6802 108.883L30.0502 110.341ZM32.9886 107.51C33.472 107.032 33.9539 106.55 34.4338 106.063L33.0097 104.659C32.5361 105.139 32.0604 105.615 31.5831 106.087L32.9886 107.51ZM35.8557 104.601C36.3267 104.11 36.7951 103.615 37.2602 103.115L35.7968 101.752C35.3384 102.244 34.8767 102.732 34.4123 103.217L35.8557 104.601ZM38.6411 101.61C39.0979 101.104 39.551 100.595 39.9997 100.082L38.494 98.7652C38.0526 99.2701 37.6067 99.7716 37.157 100.27L38.6411 101.61ZM41.3326 98.5306C41.7733 98.0086 42.2091 97.4832 42.6393 96.9544L41.0879 95.6922C40.6656 96.2112 40.2376 96.7273 39.8045 97.2402L41.3326 98.5306ZM43.9151 95.3552C44.3372 94.8153 44.7531 94.2721 45.1621 93.726L43.5613 92.5271C43.1608 93.0618 42.7534 93.594 42.3395 94.1233L43.9151 95.3552ZM46.3706 92.075C46.7706 91.5156 47.1629 90.9532 47.5468 90.3881L45.8926 89.2641C45.5178 89.8156 45.1346 90.3649 44.7436 90.9119L46.3706 92.075ZM48.6784 88.6766C49.0506 88.0976 49.4135 87.516 49.7665 86.932L48.0548 85.8974C47.7117 86.4652 47.3585 87.0312 46.996 87.5952L48.6784 88.6766ZM50.8059 85.1536C51.144 84.5544 51.4713 83.9528 51.7868 83.3491L50.0143 82.4227C49.7091 83.0067 49.3921 83.5894 49.0641 84.1706L50.8059 85.1536ZM52.7136 81.4983C53.0121 80.8747 53.2975 80.2491 53.569 79.6218L51.7335 78.8274C51.4724 79.4307 51.1976 80.0332 50.9097 80.6347L52.7136 81.4983ZM54.3522 77.7056C54.6018 77.0562 54.8359 76.405 55.0535 75.7524L53.1562 75.1198C52.9485 75.7428 52.7246 76.3656 52.4854 76.988L54.3522 77.7056ZM55.6608 73.7734C55.8492 73.1004 56.0193 72.426 56.1701 71.7508L54.2182 71.315C54.0754 71.9544 53.914 72.5942 53.7349 73.2342L55.6608 73.7734ZM56.5664 69.7043C56.679 69.016 56.7706 68.327 56.84 67.6378L54.8501 67.4372C54.7849 68.0843 54.6988 68.7325 54.5926 69.3814L56.5664 69.7043ZM56.9819 65.546C56.9939 65.1973 57 64.8487 57 64.5001L55 64.5001C55 64.8255 54.9943 65.1512 54.9831 65.4773L56.9819 65.546ZM57 64.5001C57 64.1626 56.9969 63.8253 56.9907 63.4883L54.991 63.525C54.997 63.8499 55 64.175 55 64.5001L57 64.5001ZM56.9174 61.4693C56.8811 60.7963 56.833 60.1246 56.7737 59.4543L54.7815 59.6306C54.8388 60.2786 54.8853 60.9275 54.9203 61.5772L56.9174 61.4693ZM56.5625 57.4473C56.4811 56.7795 56.3891 56.1135 56.2868 55.4494L54.3101 55.7538C54.4092 56.3975 54.4984 57.0426 54.5771 57.6891L56.5625 57.4473ZM55.9497 53.4619C55.8274 52.8012 55.6954 52.1427 55.5543 51.4868L53.599 51.9075C53.7362 52.545 53.8644 53.1846 53.9831 53.8259L55.9497 53.4619ZM55.1034 49.5251C54.944 48.8727 54.7759 48.2231 54.5997 47.5766L52.6701 48.1026C52.8418 48.7325 53.0055 49.365 53.1606 49.9998L55.1034 49.5251ZM54.0462 45.6436C53.8534 45.0011 53.653 44.362 53.4454 43.7263L51.5442 44.3472C51.7469 44.9679 51.9425 45.5917 52.1305 46.2183L54.0462 45.6436ZM52.7991 41.8231C52.5762 41.1907 52.3465 40.5621 52.1107 39.9376L50.2397 40.6442C50.4704 41.2552 50.695 41.8699 50.9128 42.488L52.7991 41.8231ZM51.3819 38.0686C51.1315 37.4457 50.8752 36.8272 50.6137 36.2134L48.7737 36.9974C49.03 37.5989 49.2811 38.2048 49.5264 38.8148L51.3819 38.0686ZM49.8099 34.3773C49.5351 33.7658 49.2555 33.1594 48.9716 32.5583L47.1631 33.4123C47.4417 34.0023 47.7161 34.5974 47.9856 35.1972L49.8099 34.3773ZM48.0981 30.7514C47.8005 30.1498 47.4991 29.554 47.1945 28.9643L45.4176 29.8822C45.7169 30.4618 46.0131 31.0472 46.3054 31.6382L48.0981 30.7514ZM46.2626 27.1972C45.9432 26.6037 45.6211 26.017 45.2969 25.4374L43.5515 26.4137C43.8705 26.984 44.1873 27.5612 44.5014 28.1449L46.2626 27.1972ZM44.3053 23.6972C43.968 23.116 43.6292 22.5427 43.2896 21.9776L41.5754 23.0078C41.9099 23.5644 42.2434 24.1289 42.5755 24.7011L44.3053 23.6972ZM42.247 20.2718C41.8897 19.6969 41.5324 19.1315 41.1758 18.576L39.4927 19.6563C39.8442 20.2039 40.1963 20.7611 40.5483 21.3275L42.247 20.2718ZM40.0825 16.8992C39.7089 16.3351 39.337 15.7823 38.9679 15.2415L37.316 16.369C37.68 16.9023 38.0466 17.4473 38.415 18.0035L40.0825 16.8992ZM37.8325 13.6022C37.4417 13.0462 37.0552 12.5045 36.6742 11.9779L35.0537 13.1501C35.4295 13.6696 35.8107 14.2038 36.1962 14.7523L37.8325 13.6022ZM35.489 10.3628C35.0781 9.81081 34.6757 9.27831 34.2835 8.76613L32.6956 9.98216C33.0825 10.4873 33.4794 11.0125 33.8847 11.557L35.489 10.3628ZM33.0584 7.18917C32.6246 6.63866 32.2073 6.11751 31.8093 5.6271L30.2563 6.8874C30.6485 7.37063 31.0598 7.88432 31.4876 8.4271L33.0584 7.18917ZM30.5272 4.07142C30.0549 3.50743 29.6234 3.00203 29.2393 2.55855L27.7276 3.86803C28.1047 4.30338 28.5289 4.80027 28.9937 5.35534L30.5272 4.07142ZM27.9047 1.04917C27.6876 0.809341 27.5189 0.626145 27.4037 0.502203C27.3462 0.440233 27.302 0.39308 27.2719 0.361065C27.2569 0.345058 27.2453 0.332833 27.2374 0.324436C27.2334 0.320235 27.2303 0.316996 27.2282 0.314714C27.2271 0.313571 27.2262 0.312671 27.2256 0.312014C27.2253 0.311686 27.225 0.311415 27.2248 0.311202C27.2247 0.311102 27.2246 0.311014 27.2246 0.310935C27.2245 0.310902 27.2245 0.310868 27.2245 0.310841C27.2245 0.310822 27.2244 0.310801 27.2244 0.310795C27.2244 0.310776 27.2244 0.310762 26.5 1.00012C25.7756 1.68949 25.7756 1.68947 25.7755 1.68946C25.7755 1.68945 25.7755 1.68944 25.7755 1.68943C25.7755 1.68942 25.7755 1.68941 25.7755 1.68941C25.7755 1.68939 25.7755 1.68939 25.7755 1.6894C25.7755 1.68944 25.7756 1.68953 25.7758 1.68969C25.776 1.68999 25.7766 1.69053 25.7773 1.69132C25.7788 1.69288 25.7812 1.69541 25.7845 1.6989C25.7911 1.70585 25.8012 1.71662 25.8149 1.73117C25.8423 1.76025 25.8836 1.80442 25.9384 1.86334C26.0478 1.98119 26.2107 2.15804 26.4218 2.39128L27.9047 1.04917Z" fill="black"/>
</svg>
