<svg width="17" height="123" viewBox="0 0 17 123" fill="none" xmlns="http://www.w3.org/2000/svg">
<path d="M10.5872 122.283C10.7431 122.511 11.0542 122.569 11.2822 122.413L14.9965 119.873C15.2244 119.717 15.2828 119.406 15.1269 119.178C14.971 118.95 14.6598 118.892 14.4319 119.047L11.1303 121.306L8.87212 118.004C8.71622 117.776 8.40507 117.718 8.17715 117.874C7.94922 118.029 7.89082 118.341 8.04672 118.569L10.5872 122.283ZM0.452637 1.21614C9.16307 23.9842 13.959 41.9599 15.4402 60.3299C16.9215 78.7016 15.0898 97.4967 10.5085 121.908L11.4913 122.093C16.0803 97.6403 17.9284 78.7469 16.437 60.2496C14.9454 41.7505 10.1161 23.6767 1.38662 0.858822L0.452637 1.21614Z" fill="black"/>
</svg>
