<svg width="217" height="206" viewBox="0 0 217 206" fill="none" xmlns="http://www.w3.org/2000/svg">
<path d="M185.5 204.519C185.51 204.795 185.742 205.01 186.018 205L190.515 204.832C190.791 204.822 191.006 204.59 190.996 204.314C190.986 204.038 190.754 203.823 190.478 203.833L186.48 203.982L186.331 199.985C186.321 199.709 186.089 199.494 185.813 199.504C185.537 199.514 185.322 199.746 185.332 200.022L185.5 204.519ZM0.54287 0.702716C0.812802 1.31191 1.09468 1.91639 1.38824 2.51623L2.28645 2.07665C1.99838 1.48805 1.72187 0.895057 1.45712 0.297593L0.54287 0.702716ZM3.28803 6.06027C3.96009 7.21203 4.67608 8.34621 5.43417 9.46346L6.26167 8.90198C5.51587 7.80285 4.81199 6.68783 4.15175 5.55629L3.28803 6.06027ZM7.78366 12.7015C8.60232 13.7601 9.45933 14.8032 10.353 15.8313L11.1077 15.1753C10.2261 14.161 9.38123 13.1327 8.57472 12.0898L7.78366 12.7015ZM13.0339 18.7595C13.9604 19.7221 14.9194 20.6715 15.9093 21.6082L16.5966 20.8819C15.6176 19.9554 14.6696 19.017 13.7543 18.066L13.0339 18.7595ZM18.8539 24.2796C19.8526 25.1494 20.8781 26.0082 21.9291 26.8565L22.5571 26.0783C21.5154 25.2376 20.4995 24.3868 19.5107 23.5255L18.8539 24.2796ZM25.1033 29.3296C26.1512 30.1186 27.2211 30.8984 28.3119 31.6694L28.8892 30.8529C27.8062 30.0873 26.7443 29.3134 25.7047 28.5307L25.1033 29.3296ZM31.6459 33.957C32.7382 34.685 33.849 35.4053 34.9772 36.1182L35.5114 35.2729C34.3897 34.5641 33.2858 33.8482 32.2005 33.1249L31.6459 33.957ZM38.3788 38.2147C39.5244 38.9037 40.686 39.5859 41.8627 40.2617L42.3607 39.3945C41.1896 38.7219 40.0338 38.0431 38.8942 37.3577L38.3788 38.2147ZM45.3099 42.2C46.4724 42.8404 47.6481 43.4751 48.8361 44.1044L49.3042 43.2207C48.1208 42.5938 46.9499 41.9617 45.7923 41.3241L45.3099 42.2ZM52.398 45.957C53.5694 46.5555 54.7516 47.1493 55.9437 47.7386L56.3869 46.8422C55.1985 46.2547 54.0203 45.6629 52.853 45.0665L52.398 45.957ZM59.5492 49.4936C60.7465 50.0677 61.9528 50.6377 63.1673 51.2039L63.5898 50.2975C62.3784 49.7328 61.1754 49.1643 59.9815 48.5919L59.5492 49.4936ZM66.7787 52.8658C67.9899 53.4163 69.2085 53.9634 70.4337 54.5073L70.8395 53.5933C69.6168 53.0505 68.4009 52.5046 67.1924 51.9554L66.7787 52.8658ZM74.0935 56.1148C75.3065 56.642 76.5252 57.1665 77.7488 57.6885L78.1411 56.7686C76.9195 56.2475 75.703 55.724 74.4922 55.1977L74.0935 56.1148ZM81.4338 59.2469C82.6596 59.761 83.8896 60.2729 85.1232 60.7827L85.5052 59.8585C84.273 59.3493 83.0446 58.8381 81.8206 58.3247L81.4338 59.2469ZM88.8077 62.2954C90.039 62.7978 91.2732 63.2984 92.5097 63.7975L92.884 62.8702C91.6486 62.3716 90.4155 61.8714 89.1855 61.3695L88.8077 62.2954ZM96.2168 65.287C97.4499 65.7804 98.6847 66.2725 99.9203 66.7635L100.29 65.8342C99.0546 65.3434 97.8206 64.8516 96.5882 64.3586L96.2168 65.287ZM103.63 68.2335C104.867 68.7228 106.105 69.2113 107.343 69.6992L107.709 68.7689C106.472 68.2811 105.234 67.7927 103.997 67.3036L103.63 68.2335ZM111.057 71.1625C112.295 71.6499 113.531 72.1368 114.766 72.6236L115.133 71.6933C113.898 71.2064 112.661 70.7194 111.424 70.2321L111.057 71.1625ZM118.473 74.0867C119.715 74.5776 120.954 75.0686 122.191 75.5599L122.56 74.6306C121.323 74.139 120.083 73.6478 118.841 73.1567L118.473 74.0867ZM125.891 77.035C127.125 77.5286 128.356 78.0228 129.582 78.5177L129.956 77.5905C128.729 77.0951 127.498 76.6005 126.263 76.1065L125.891 77.035ZM133.294 80.0248C134.527 80.5281 135.754 81.0324 136.976 81.538L137.359 80.614C136.135 80.1077 134.906 79.6028 133.672 79.099L133.294 80.0248ZM140.64 83.0658C141.879 83.5864 143.111 84.1086 144.335 84.6327L144.728 83.7133C143.502 83.1883 142.268 82.6653 141.028 82.1439L140.64 83.0658ZM147.985 86.2107C149.203 86.7431 150.413 87.2776 151.614 87.8145L152.022 86.9016C150.818 86.3635 149.606 85.8278 148.385 85.2944L147.985 86.2107ZM155.272 89.4711C156.481 90.026 157.68 90.5838 158.868 91.1446L159.295 90.2404C158.104 89.6779 156.901 89.1186 155.689 88.5622L155.272 89.4711ZM162.454 92.865C163.665 93.4551 164.862 94.0489 166.046 94.6466L166.497 93.754C165.308 93.154 164.107 92.5582 162.892 91.9661L162.454 92.865ZM169.554 96.4522C170.747 97.0781 171.924 97.7086 173.084 98.3441L173.564 97.467C172.398 96.8286 171.216 96.1953 170.019 95.5667L169.554 96.4522ZM176.562 100.294C177.708 100.952 178.836 101.616 179.944 102.285L180.461 101.429C179.346 100.756 178.212 100.088 177.06 99.4266L176.562 100.294ZM183.372 104.415C184.492 105.132 185.589 105.856 186.662 106.587L187.225 105.76C186.143 105.023 185.038 104.295 183.911 103.573L183.372 104.415ZM189.922 108.885C191.007 109.678 192.063 110.479 193.089 111.289L193.708 110.504C192.672 109.686 191.606 108.877 190.512 108.078L189.922 108.885ZM196.127 113.793C197.152 114.675 198.142 115.569 199.094 116.474L199.783 115.75C198.818 114.832 197.816 113.928 196.779 113.035L196.127 113.793ZM201.851 119.241C202.78 120.227 203.664 121.227 204.502 122.241L205.273 121.604C204.42 120.573 203.522 119.557 202.579 118.556L201.851 119.241ZM206.881 125.332C207.661 126.427 208.388 127.538 209.06 128.667L209.919 128.156C209.233 127.002 208.491 125.868 207.695 124.752L206.881 125.332ZM210.911 132.112C211.483 133.305 211.995 134.518 212.444 135.75L213.384 135.408C212.923 134.144 212.398 132.901 211.812 131.68L210.911 132.112ZM213.599 139.503C213.916 140.762 214.17 142.042 214.357 143.345L215.347 143.202C215.154 141.865 214.894 140.551 214.568 139.258L213.599 139.503ZM214.716 147.274C214.767 148.552 214.756 149.85 214.681 151.171L215.68 151.227C215.756 149.875 215.767 148.545 215.715 147.235L214.716 147.274ZM214.272 155.138C214.086 156.384 213.845 157.649 213.547 158.934L214.522 159.16C214.825 157.85 215.071 156.558 215.261 155.285L214.272 155.138ZM212.481 162.849C212.11 164.038 211.692 165.243 211.225 166.465L212.159 166.822C212.633 165.582 213.058 164.357 213.436 163.147L212.481 162.849ZM209.691 170.151C209.16 171.334 208.585 172.531 207.964 173.745L208.854 174.2C209.482 172.972 210.065 171.76 210.603 170.561L209.691 170.151ZM206.126 177.149C205.475 178.297 204.784 179.459 204.052 180.635L204.902 181.163C205.64 179.976 206.338 178.803 206.996 177.643L206.126 177.149ZM201.904 183.957C201.199 185.007 200.463 186.067 199.696 187.139L200.508 187.721C201.282 186.642 202.024 185.573 202.734 184.514L201.904 183.957ZM197.296 190.387C196.491 191.445 195.656 192.514 194.79 193.594L195.57 194.22C196.441 193.134 197.282 192.058 198.092 190.992L197.296 190.387ZM192.366 196.547C191.532 197.54 190.674 198.542 189.789 199.552L190.541 200.211C191.43 199.195 192.294 198.188 193.132 197.19L192.366 196.547ZM187.057 202.611C186.589 203.125 186.114 203.642 185.633 204.16L186.366 204.841C186.849 204.32 187.326 203.801 187.797 203.284L187.057 202.611ZM185 204.538C185.021 205.09 185.485 205.52 186.037 205.5L195.031 205.164C195.582 205.143 196.013 204.679 195.992 204.127C195.972 203.575 195.508 203.145 194.956 203.165L186.961 203.464L186.663 195.469C186.642 194.917 186.178 194.487 185.626 194.507C185.074 194.528 184.644 194.992 184.664 195.544L185 204.538ZM0.085729 0.905278C0.358281 1.52034 0.642827 2.13056 0.939156 2.73603L2.73556 1.85685C2.45024 1.27388 2.17641 0.686631 1.91426 0.0950314L0.085729 0.905278ZM2.85617 6.31226C3.53413 7.47413 4.25619 8.61789 5.02044 9.7442L6.67542 8.62124C5.93576 7.53117 5.23796 6.42573 4.5836 5.3043L2.85617 6.31226ZM7.38814 13.0074C8.21287 14.0738 9.07595 15.1243 9.97559 16.1593L11.4851 14.8473C10.6095 13.8399 9.77068 12.8189 8.97024 11.7839L7.38814 13.0074ZM12.6736 19.1063C13.6058 20.0747 14.5704 21.0296 15.5657 21.9714L16.9403 20.5187C15.9666 19.5973 15.0242 18.6644 14.1146 17.7193L12.6736 19.1063ZM18.5255 24.6567C19.5291 25.5307 20.5594 26.3935 21.615 27.2456L22.8712 25.6892C21.8341 24.8522 20.823 24.0054 19.839 23.1485L18.5255 24.6567ZM24.8026 29.7291C25.8546 30.5211 26.9286 31.3039 28.0233 32.0777L29.1778 30.4446C28.0987 29.6818 27.0409 28.9108 26.0055 28.1313L24.8026 29.7291ZM31.3686 34.3731C32.4644 35.1034 33.5786 35.8259 34.7101 36.5409L35.7785 34.8502C34.6601 34.1435 33.5596 33.4298 32.4778 32.7089L31.3686 34.3731ZM38.1211 38.6432C39.2697 39.334 40.4342 40.0179 41.6137 40.6952L42.6097 38.9609C41.4414 38.2899 40.2885 37.6128 39.1519 36.9293L38.1211 38.6432ZM45.0686 42.638C46.2336 43.2797 47.4117 43.9157 48.602 44.5462L49.5382 42.7789C48.3571 42.1532 47.1886 41.5224 46.0336 40.8862L45.0686 42.638ZM52.1705 46.4023C53.344 47.0018 54.5281 47.5966 55.7221 48.1868L56.6085 46.394C55.422 45.8074 54.2457 45.2166 53.0805 44.6213L52.1705 46.4023ZM59.333 49.9445C60.532 50.5193 61.74 51.0901 62.956 51.657L63.8011 49.8443C62.5912 49.2803 61.3899 48.7126 60.1977 48.141L59.333 49.9445ZM66.5718 53.321C67.7845 53.8721 69.0044 54.4198 70.2308 54.9643L71.0423 53.1363C69.821 52.5941 68.6064 52.0488 67.3993 51.5002L66.5718 53.321ZM73.8942 56.5733C75.1083 57.1011 76.328 57.626 77.5526 58.1484L78.3373 56.3087C77.1167 55.7881 75.9012 55.2649 74.6915 54.7391L73.8942 56.5733ZM81.2404 59.708C82.4671 60.2225 83.6979 60.7346 84.9323 61.2448L85.6961 59.3964C84.4648 58.8875 83.2372 58.3767 82.014 57.8636L81.2404 59.708ZM88.6189 62.7584C89.8508 63.261 91.0855 63.7619 92.3225 64.2612L93.0711 62.4066C91.8362 61.9081 90.6038 61.4082 89.3744 60.9066L88.6189 62.7584ZM96.031 65.7513C97.2646 66.2448 98.4997 66.737 99.7357 67.2282L100.474 65.3695C99.2395 64.8789 98.0059 64.3872 96.774 63.8944L96.031 65.7513ZM103.446 68.6985C104.684 69.1879 105.922 69.6764 107.159 70.1643L107.893 68.3037C106.655 67.816 105.418 67.3277 104.181 66.8386L103.446 68.6985ZM110.874 71.6278C112.111 72.1151 113.348 72.602 114.583 73.0888L115.316 71.2281C114.081 70.7412 112.844 70.2542 111.607 69.7669L110.874 71.6278ZM118.289 74.5516C119.531 75.0425 120.77 75.5334 122.006 76.0246L122.745 74.1659C121.507 73.6742 120.267 73.1829 119.024 72.6917L118.289 74.5516ZM125.706 77.4992C126.939 77.9927 128.169 78.4867 129.394 78.9814L130.143 77.1268C128.915 76.6312 127.684 76.1365 126.449 75.6423L125.706 77.4992ZM133.105 80.4877C134.337 80.9907 135.564 81.4947 136.785 82L137.55 80.152C136.326 79.6454 135.096 79.1402 133.861 78.6361L133.105 80.4877ZM140.446 83.5267C141.684 84.0469 142.915 84.5687 144.138 85.0923L144.925 83.2537C143.698 82.7282 142.463 82.2047 141.221 81.683L140.446 83.5267ZM147.784 86.6689C149.002 87.2007 150.21 87.7347 151.41 88.271L152.226 86.4452C151.021 85.9064 149.807 85.3702 148.585 84.8362L147.784 86.6689ZM155.063 89.9255C156.271 90.4797 157.468 91.0367 158.654 91.5968L159.508 89.7883C158.315 89.2249 157.111 88.6649 155.898 88.1078L155.063 89.9255ZM162.235 93.3145C163.444 93.9036 164.639 94.4963 165.82 95.0929L166.722 93.3077C165.532 92.7066 164.328 92.1097 163.111 91.5167L162.235 93.3145ZM169.322 96.8949C170.512 97.5195 171.686 98.1486 172.843 98.7826L173.804 97.0285C172.636 96.3885 171.451 95.7538 170.251 95.124L169.322 96.8949ZM176.313 100.727C177.456 101.384 178.581 102.046 179.686 102.713L180.72 101.001C179.602 100.326 178.464 99.6564 177.309 98.993L176.313 100.727ZM183.102 104.836C184.218 105.551 185.311 106.272 186.38 107L187.506 105.347C186.421 104.607 185.312 103.876 184.18 103.152L183.102 104.836ZM189.627 109.289C190.707 110.078 191.758 110.875 192.779 111.681L194.018 110.112C192.977 109.289 191.906 108.477 190.807 107.674L189.627 109.289ZM195.801 114.172C196.82 115.049 197.803 115.937 198.749 116.837L200.127 115.387C199.156 114.464 198.149 113.554 197.106 112.656L195.801 114.172ZM201.487 119.584C202.409 120.563 203.286 121.554 204.117 122.56L205.658 121.285C204.798 120.245 203.892 119.221 202.943 118.213L201.487 119.584ZM206.474 125.623C207.246 126.707 207.966 127.806 208.631 128.923L210.349 127.9C209.655 126.734 208.905 125.588 208.102 124.462L206.474 125.623ZM210.46 132.329C211.025 133.507 211.531 134.704 211.974 135.921L213.853 135.236C213.387 133.957 212.856 132.699 212.263 131.463L210.46 132.329ZM213.114 139.625C213.427 140.867 213.677 142.131 213.862 143.416L215.842 143.131C215.647 141.777 215.383 140.445 215.053 139.136L213.114 139.625ZM214.216 147.294C214.267 148.555 214.256 149.838 214.182 151.142L216.179 151.256C216.256 149.888 216.268 148.541 216.215 147.215L214.216 147.294ZM213.777 155.064C213.593 156.297 213.355 157.549 213.06 158.821L215.009 159.273C215.315 157.95 215.564 156.646 215.755 155.359L213.777 155.064ZM212.004 162.7C211.636 163.879 211.221 165.074 210.758 166.287L212.626 167.001C213.104 165.751 213.532 164.516 213.913 163.296L212.004 162.7ZM209.235 169.946C208.708 171.121 208.136 172.311 207.519 173.517L209.299 174.428C209.931 173.193 210.517 171.972 211.06 170.766L209.235 169.946ZM205.691 176.902C205.043 178.045 204.356 179.201 203.628 180.371L205.326 181.427C206.068 180.235 206.769 179.056 207.431 177.889L205.691 176.902ZM201.489 183.678C200.787 184.724 200.054 185.78 199.289 186.848L200.915 188.013C201.691 186.929 202.436 185.856 203.15 184.793L201.489 183.678ZM196.898 190.084C196.096 191.139 195.263 192.205 194.4 193.281L195.96 194.533C196.834 193.443 197.677 192.364 198.49 191.295L196.898 190.084ZM191.983 196.225C191.152 197.216 190.295 198.215 189.413 199.223L190.918 200.54C191.809 199.522 192.675 198.512 193.515 197.511L191.983 196.225ZM186.688 202.274C186.221 202.787 185.747 203.303 185.266 203.82L186.732 205.181C187.217 204.659 187.695 204.139 188.166 203.621L186.688 202.274Z" fill="black"/>
</svg>
