<svg width="184" height="198" viewBox="0 0 184 198" fill="none" xmlns="http://www.w3.org/2000/svg">
<path d="M174.756 1.06916C174.519 0.927702 174.212 1.00528 174.071 1.24245L171.765 5.1072C171.624 5.34436 171.702 5.65129 171.939 5.79274C172.176 5.9342 172.483 5.85661 172.624 5.61945L174.673 2.18412L178.109 4.23314C178.346 4.3746 178.653 4.29701 178.794 4.05985C178.936 3.82269 178.858 3.51576 178.621 3.37431L174.756 1.06916ZM1.85646 196.851C4.34953 194.317 7.06826 191.982 9.98369 189.816L9.38728 189.013C6.43461 191.207 3.6763 193.576 1.1437 196.149L1.85646 196.851ZM28.6564 179.036C35.0015 176.132 41.7882 173.587 48.8496 171.23L48.533 170.281C41.4506 172.646 34.6282 175.203 28.2403 178.126L28.6564 179.036ZM69.5798 164.872C76.479 162.872 83.4792 160.893 90.4301 158.801L90.1419 157.844C83.1975 159.933 76.2092 161.909 69.3013 163.912L69.5798 164.872ZM111.081 152.022C117.991 149.495 124.712 146.7 131.093 143.489L130.644 142.595C124.305 145.785 117.621 148.565 110.737 151.083L111.081 152.022ZM149.6 132.046C155.359 127.629 160.58 122.589 165.09 116.756L164.299 116.144C159.847 121.902 154.69 126.882 148.992 131.252L149.6 132.046ZM175.859 97.8695C178.385 91.5749 180.292 84.6118 181.48 76.8814L180.491 76.7294C179.314 84.3897 177.426 91.2783 174.931 97.497L175.859 97.8695ZM182.889 55.1801C182.8 48.403 182.268 41.1554 181.252 33.3963L180.261 33.5261C181.272 41.2505 181.801 48.459 181.889 55.1932L182.889 55.1801ZM177.512 12.1208C176.755 8.62887 175.913 5.04818 174.985 1.37604L174.015 1.62111C174.941 5.28273 175.78 8.85239 176.535 12.3328L177.512 12.1208ZM175.012 0.63974C174.538 0.356829 173.924 0.512 173.641 0.986318L169.031 8.71582C168.748 9.19014 168.903 9.80399 169.377 10.0869C169.852 10.3698 170.466 10.2146 170.749 9.74032L174.847 2.86967L181.717 6.96771C182.192 7.25062 182.805 7.09545 183.088 6.62113C183.371 6.14681 183.216 5.53295 182.742 5.25004L175.012 0.63974ZM2.21284 197.201C4.68615 194.688 7.38508 192.37 10.2819 190.217L9.08907 188.612C6.11779 190.82 3.33969 193.205 0.787325 195.799L2.21284 197.201ZM28.8645 179.49C35.1882 176.597 41.9571 174.058 49.008 171.704L48.3747 169.807C41.2818 172.175 34.4415 174.739 28.0323 177.672L28.8645 179.49ZM69.719 165.352C76.6139 163.353 83.6201 161.373 90.5741 159.28L89.9978 157.365C83.0566 159.453 76.0743 161.427 69.1621 163.431L69.719 165.352ZM111.252 152.491C118.175 149.96 124.915 147.158 131.318 143.935L130.419 142.149C124.102 145.328 117.436 148.1 110.565 150.613L111.252 152.491ZM149.904 132.442C155.693 128.003 160.946 122.933 165.486 117.062L163.903 115.838C159.481 121.558 154.355 126.508 148.687 130.855L149.904 132.442ZM176.323 98.0557C178.864 91.7231 180.78 84.7228 181.974 76.9573L179.997 76.6535C178.825 84.2787 176.947 91.13 174.467 97.3108L176.323 98.0557ZM183.389 55.1735C183.3 48.3751 182.766 41.1079 181.748 33.3314L179.765 33.591C180.774 41.298 181.301 48.487 181.389 55.1998L183.389 55.1735ZM178.001 12.0148C177.242 8.51712 176.399 4.9309 175.47 1.25351L173.531 1.74364C174.455 5.4 175.292 8.96415 176.046 12.4388L178.001 12.0148Z" fill="black"/>
</svg>
