<svg width="107" height="290" viewBox="0 0 107 290" fill="none" xmlns="http://www.w3.org/2000/svg">
<path d="M105.52 288.499C105.796 288.488 106.011 288.255 106 287.979L105.816 283.483C105.805 283.207 105.572 282.993 105.296 283.004C105.02 283.015 104.806 283.248 104.817 283.524L104.98 287.521L100.983 287.684C100.708 287.695 100.493 287.928 100.504 288.204C100.516 288.48 100.748 288.694 101.024 288.683L105.52 288.499ZM43.5182 1.13237C44.5133 4.62697 45.1068 8.00655 45.3555 11.2936L46.3527 11.2182C46.0987 7.86241 45.4931 4.41638 44.48 0.858499L43.5182 1.13237ZM42.7061 31.5528C40.632 37.9051 37.5511 44.0748 33.9807 50.2762L34.8473 50.7751C38.4343 44.5448 41.5524 38.308 43.6567 31.8632L42.7061 31.5528ZM23.0859 67.9675C19.4736 73.7521 15.8694 79.7168 12.6675 86.0064L13.5587 86.4601C16.7402 80.2106 20.3256 74.2757 23.9341 68.4971L23.0859 67.9675ZM4.84958 105.334C2.97284 111.774 1.74483 118.607 1.46151 125.946L2.46077 125.985C2.74064 118.735 3.95364 111.983 5.80966 105.613L4.84958 105.334ZM3.12992 146.675C4.35593 152.979 6.27341 159.626 9.0088 166.668L9.94094 166.305C7.22543 159.315 5.32533 152.725 4.11153 146.484L3.12992 146.675ZM17.8921 185.613C20.9726 191.263 24.5452 197.145 28.6591 203.279L29.4896 202.722C25.3912 196.612 21.8347 190.755 18.7701 185.134L17.8921 185.613ZM40.865 220.14C44.8983 225.345 49.2963 230.718 54.0831 236.269L54.8404 235.616C50.0641 230.078 45.6773 224.718 41.6554 219.527L40.865 220.14ZM68.0115 251.736C72.5475 256.576 77.362 261.543 82.4687 266.64L83.1752 265.933C78.0759 260.842 73.2691 255.884 68.7412 251.052L68.0115 251.736ZM97.36 281.09C99.8987 283.488 102.499 285.914 105.161 288.368L105.839 287.632C103.179 285.181 100.582 282.758 98.0468 280.363L97.36 281.09ZM105.541 288.999C106.093 288.977 106.522 288.511 106.499 287.959L106.132 278.967C106.11 278.415 105.644 277.986 105.092 278.008C104.54 278.031 104.111 278.496 104.134 279.048L104.46 287.042L96.4668 287.368C95.915 287.39 95.4859 287.856 95.5084 288.408C95.5309 288.96 95.9965 289.389 96.5484 289.366L105.541 288.999ZM43.0373 1.26931C44.0234 4.73226 44.6108 8.07863 44.8569 11.3314L46.8512 11.1805C46.5947 7.79034 45.983 4.31109 44.9608 0.721561L43.0373 1.26931ZM42.2308 31.3976C40.1718 37.7036 37.1095 43.8397 33.5473 50.0267L35.2806 51.0246C38.876 44.7799 42.0126 38.5094 44.132 32.0184L42.2308 31.3976ZM22.6618 67.7026C19.0476 73.4903 15.4341 79.47 12.2219 85.7795L14.0043 86.6869C17.1756 80.4574 20.7516 74.5375 24.3582 68.762L22.6618 67.7026ZM4.36955 105.194C2.48244 111.67 1.24691 118.544 0.961885 125.927L2.96039 126.004C3.23856 118.799 4.44404 112.087 6.28969 105.753L4.36955 105.194ZM2.63913 146.771C3.87123 153.105 5.79741 159.782 8.54274 166.849L10.407 166.124C7.70144 159.16 5.81002 152.598 4.60234 146.389L2.63913 146.771ZM17.4532 185.852C20.5415 191.517 24.1222 197.412 28.2438 203.558L29.9048 202.444C25.8142 196.345 22.2658 190.501 19.2091 184.895L17.4532 185.852ZM40.4697 220.446C44.5088 225.659 48.9124 231.039 53.7045 236.595L55.219 235.289C50.4481 229.757 46.0668 224.404 42.0507 219.221L40.4697 220.446ZM67.6467 252.078C72.1867 256.922 77.0051 261.893 82.1155 266.994L83.5285 265.579C78.4328 260.492 73.6299 255.538 69.106 250.71L67.6467 252.078ZM97.0167 281.453C99.5568 283.853 102.158 286.28 104.822 288.735L106.178 287.265C103.52 284.815 100.924 282.393 98.3901 279.999L97.0167 281.453Z" fill="black"/>
</svg>
