<svg width="53" height="15" viewBox="0 0 53 15" fill="none" xmlns="http://www.w3.org/2000/svg">
<path d="M0.537548 5.65482C-0.179182 6.01319 -0.179182 7.17787 0.537548 7.53624C6.09221 10.5823 11.7365 13.3597 17.8287 14.9723C18.7246 15.1515 19.6205 14.166 19.0829 13.3597C17.8287 11.5678 16.3056 10.0448 14.5138 8.70093C27.0566 9.05929 40.0473 10.7615 52.4109 7.80501C53.3068 7.62583 53.1276 6.10292 52.2316 6.19252C39.42 7.80501 26.6981 6.55073 13.8865 6.3717C15.2304 4.84865 16.5742 3.32559 17.9181 1.89213C18.5453 1.26499 18.1869 -0.0790251 17.1118 0.010566C11.1989 0.727443 5.64425 2.69845 0.537548 5.65482ZM11.1989 6.64033C10.3926 7.17787 10.5718 8.70093 11.8261 8.70093C11.9156 8.70093 12.0052 8.70093 12.0052 8.70093C13.0803 9.77602 14.1554 10.7615 15.2305 11.9262C11.1093 10.4928 7.2569 8.70093 3.40447 6.64047C6.89853 4.84865 10.4822 3.50478 14.3346 2.78805C13.4387 3.77355 12.5428 4.84865 11.5573 5.8343C11.1989 6.01319 11.1093 6.3717 11.1989 6.64033Z" fill="black"/>
</svg>
