<svg width="60" height="314" viewBox="0 0 60 314" fill="none" xmlns="http://www.w3.org/2000/svg">
<path d="M5.06396 312.745C5.1991 312.986 5.50386 313.071 5.74468 312.936L9.66905 310.734C9.90987 310.599 9.99555 310.294 9.86042 310.053C9.72528 309.812 9.42051 309.727 9.17969 309.862L5.69136 311.819L3.73393 308.331C3.5988 308.09 3.29403 308.004 3.05321 308.14C2.81239 308.275 2.72671 308.579 2.86185 308.82L5.06396 312.745ZM21.6178 1.32345C21.843 1.59004 22.067 1.8564 22.2899 2.12255L23.0566 1.48053C22.8328 1.21327 22.6078 0.945808 22.3817 0.678132L21.6178 1.32345ZM26.1769 6.89105C27.9061 9.0725 29.5572 11.2413 31.1322 13.4004L31.9401 12.8111C30.3569 10.6407 28.6977 8.46132 26.9606 6.26987L26.1769 6.89105ZM32.3133 15.0378C33.5222 16.7327 34.6842 18.422 35.8005 20.1072L36.6342 19.555C35.5114 17.8599 34.3428 16.1611 33.1274 14.4571L32.3133 15.0378ZM40.139 27.0252C40.4848 27.6094 40.8251 28.1935 41.1601 28.7773L42.0275 28.2796C41.6903 27.6919 41.3476 27.104 40.9996 26.5159L40.139 27.0252ZM44.1003 34.1612C45.3702 36.6106 46.5477 39.06 47.6356 41.5138L48.5498 41.1084C47.4534 38.6357 46.2671 36.168 44.9881 33.7009L44.1003 34.1612ZM48.4435 43.3753C49.248 45.2702 49.9998 47.1684 50.7001 49.0721L51.6386 48.7268C50.9326 46.8077 50.1748 44.8942 49.3639 42.9845L48.4435 43.3753ZM53.2583 56.8157C53.4495 57.4673 53.635 58.1199 53.8148 58.7735L54.779 58.5082C54.5976 57.8492 54.4106 57.1912 54.2178 56.5341L53.2583 56.8157ZM55.289 64.7159C55.8761 67.3675 56.3749 70.04 56.7887 72.7386L57.7771 72.587C57.3601 69.8672 56.8573 67.1732 56.2653 64.4997L55.289 64.7159ZM57.0811 74.7529C57.3573 76.7675 57.587 78.7972 57.7716 80.8444L58.7675 80.7545C58.5816 78.6924 58.3501 76.6473 58.0718 74.617L57.0811 74.7529ZM58.2683 88.9916C58.2904 89.6654 58.308 90.3414 58.3211 91.0195L59.321 91C59.3077 90.3176 59.29 89.6372 59.2677 88.9588L58.2683 88.9916ZM58.3218 97.1572C58.2717 99.8413 58.157 102.561 57.9802 105.321L58.9782 105.385C59.1559 102.611 59.2713 99.8758 59.3216 97.1758L58.3218 97.1572ZM57.8401 107.344C57.6898 109.363 57.507 111.405 57.2928 113.469L58.2875 113.572C58.5026 111.499 58.6862 109.448 58.8373 107.418L57.8401 107.344ZM56.307 121.595C56.2153 122.259 56.1206 122.926 56.0231 123.595L57.0126 123.739C57.1105 123.068 57.2055 122.398 57.2976 121.732L56.307 121.595ZM55.0675 129.687C54.6255 132.326 54.1418 135.003 53.6181 137.724L54.6 137.913C55.1252 135.185 55.6104 132.499 56.0538 129.852L55.0675 129.687ZM53.2238 139.742C52.8327 141.715 52.4212 143.71 51.9898 145.728L52.9677 145.937C53.4001 143.914 53.8126 141.914 54.2047 139.936L53.2238 139.742ZM50.2111 153.709C50.0569 154.375 49.9009 155.043 49.7429 155.714L50.7163 155.943C50.8745 155.271 51.0309 154.602 51.1853 153.935L50.2111 153.709ZM48.3052 161.677C47.6604 164.294 46.9887 166.949 46.2913 169.644L47.2594 169.895C47.9577 167.196 48.6304 164.537 49.2761 161.917L48.3052 161.677ZM45.7823 171.601C45.2688 173.565 44.742 175.551 44.2023 177.558L45.168 177.818C45.7082 175.808 46.2356 173.82 46.7497 171.854L45.7823 171.601ZM42.0523 185.433C41.8694 186.093 41.6854 186.755 41.5001 187.42L42.4633 187.688C42.6488 187.023 42.833 186.36 43.016 185.699L42.0523 185.433ZM39.8384 193.33C39.1004 195.933 38.3449 198.573 37.5726 201.25L38.5334 201.527C39.3061 198.849 40.062 196.208 40.8005 193.602L39.8384 193.33ZM37.0101 203.196C36.449 205.133 35.8793 207.091 35.3014 209.068L36.2613 209.348C36.8394 207.37 37.4093 205.412 37.9707 203.474L37.0101 203.196ZM32.9899 216.937C32.7984 217.586 32.6062 218.237 32.4131 218.891L33.3721 219.174C33.5652 218.521 33.7575 217.869 33.949 217.22L32.9899 216.937ZM30.6548 224.826C29.8917 227.397 29.1173 230.001 28.3323 232.637L29.2907 232.922C30.0758 230.286 30.8503 227.682 31.6135 225.111L30.6548 224.826ZM27.745 234.608C27.1625 236.564 26.5741 238.538 25.9803 240.53L26.9387 240.815C27.5325 238.823 28.1208 236.85 28.7034 234.894L27.745 234.608ZM23.6482 248.356C23.4517 249.016 23.2546 249.679 23.057 250.343L24.0154 250.628C24.213 249.964 24.4101 249.302 24.6067 248.642L23.6482 248.356ZM21.3113 256.215C20.5407 258.81 19.7626 261.435 18.9775 264.09L19.9364 264.374C20.7215 261.719 21.4994 259.094 22.2699 256.499L21.3113 256.215ZM18.3873 266.088C17.8176 268.017 17.2444 269.962 16.6677 271.924L17.6271 272.206C18.2036 270.245 18.7768 268.3 19.3463 266.371L18.3873 266.088ZM14.3494 279.836C14.1573 280.494 13.9649 281.153 13.7721 281.815L14.7322 282.094C14.9249 281.433 15.1173 280.774 15.3093 280.116L14.3494 279.836ZM12.0746 287.657C11.3163 290.274 10.5532 292.919 9.78552 295.592L10.7467 295.868C11.5141 293.196 12.277 290.551 13.0351 287.935L12.0746 287.657ZM9.22187 297.557C8.66695 299.494 8.10971 301.446 7.55029 303.413L8.51214 303.686C9.07138 301.72 9.62844 299.769 10.1832 297.833L9.22187 297.557ZM5.3013 311.36C5.20714 311.694 5.11293 312.029 5.01866 312.365L5.98135 312.635C6.07557 312.3 6.16976 311.965 6.26388 311.631L5.3013 311.36ZM4.62792 312.989C4.89818 313.471 5.50772 313.642 5.98936 313.372L13.8381 308.968C14.3197 308.698 14.4911 308.088 14.2208 307.606C13.9506 307.125 13.341 306.953 12.8594 307.224L5.88273 311.139L1.96786 304.162C1.6976 303.68 1.08806 303.509 0.606417 303.779C0.124781 304.049 -0.0465699 304.659 0.223689 305.141L4.62792 312.989ZM21.2358 1.64611C21.4606 1.91215 21.6841 2.17797 21.9065 2.44356L23.4399 1.15952C23.2156 0.891707 22.9902 0.623694 22.7636 0.355472L21.2358 1.64611ZM25.7851 7.20164C27.5103 9.37809 29.1573 11.5416 30.7282 13.6951L32.344 12.5164C30.7567 10.3405 29.0935 8.15573 27.3524 5.95928L25.7851 7.20164ZM31.9062 15.3281C33.1118 17.0185 34.2706 18.703 35.3836 20.3833L37.051 19.2789C35.925 17.5789 34.7531 15.8753 33.5345 14.1668L31.9062 15.3281ZM39.7087 27.2798C40.0534 27.8622 40.3926 28.4443 40.7265 29.0262L42.4612 28.0308C42.1228 27.4411 41.7791 26.8513 41.4299 26.2612L39.7087 27.2798ZM43.6564 34.3913C44.9218 36.8319 46.0948 39.2722 47.1785 41.7164L49.0069 40.9058C47.9063 38.4235 46.7156 35.9466 45.432 33.4708L43.6564 34.3913ZM47.9832 43.5707C48.7846 45.4581 49.5334 47.3488 50.2309 49.2447L52.1079 48.5542C51.399 46.6273 50.6382 44.7063 49.8242 42.789L47.9832 43.5707ZM52.7785 56.9564C52.9689 57.6054 53.1536 58.2553 53.3327 58.9062L55.2611 58.3756C55.079 57.7138 54.8912 57.0531 54.6976 56.3934L52.7785 56.9564ZM54.8008 64.824C55.3855 67.4647 55.8823 70.1264 56.2944 72.8143L58.2713 72.5112C57.8527 69.7808 57.3479 67.076 56.7535 64.3916L54.8008 64.824ZM56.5857 74.8208C56.8608 76.8276 57.0897 78.8497 57.2736 80.8893L59.2655 80.7096C59.0789 78.64 58.8466 76.5872 58.5672 74.5491L56.5857 74.8208ZM57.7685 89.008C57.7906 89.6796 57.8081 90.3533 57.8212 91.0292L59.8209 90.9903C59.8076 90.3056 59.7898 89.623 59.7675 88.9425L57.7685 89.008ZM57.8219 97.1479C57.772 99.824 57.6576 102.536 57.4812 105.289L59.4771 105.417C59.6553 102.636 59.771 99.8931 59.8215 97.1851L57.8219 97.1479ZM57.3415 107.307C57.1915 109.321 57.0092 111.358 56.7955 113.418L58.7848 113.624C59.0004 111.546 59.1845 109.49 59.3359 107.455L57.3415 107.307ZM55.8117 121.527C55.7202 122.19 55.6257 122.855 55.5283 123.523L57.5074 123.811C57.6055 123.139 57.7007 122.468 57.7929 121.8L55.8117 121.527ZM54.5744 129.604C54.1331 132.239 53.6501 134.913 53.1271 137.629L55.091 138.007C55.6169 135.276 56.1028 132.586 56.5469 129.935L54.5744 129.604ZM52.7333 139.644C52.3428 141.615 51.9317 143.608 51.5009 145.624L53.4567 146.042C53.8895 144.016 54.3026 142.014 54.6951 140.033L52.7333 139.644ZM49.7239 153.596C49.57 154.262 49.4141 154.929 49.2562 155.599L51.203 156.058C51.3614 155.385 51.5179 154.715 51.6724 154.048L49.7239 153.596ZM47.8197 161.558C47.1755 164.172 46.5042 166.825 45.8072 169.519L47.7434 170.02C48.4422 167.319 49.1154 164.659 49.7616 162.036L47.8197 161.558ZM45.2985 171.475C44.7853 173.438 44.2588 175.422 43.7194 177.428L45.6509 177.947C46.1914 175.937 46.7191 173.948 47.2335 171.981L45.2985 171.475ZM41.5704 185.299C41.3877 185.959 41.2037 186.621 41.0184 187.286L42.945 187.823C43.1305 187.157 43.3148 186.494 43.4978 185.833L41.5704 185.299ZM39.3574 193.193C38.6196 195.796 37.8643 198.435 37.0922 201.111L39.0138 201.665C39.7866 198.987 40.5429 196.345 41.2816 193.739L39.3574 193.193ZM36.5299 203.056C35.9689 204.994 35.3993 206.951 34.8215 208.927L36.7412 209.489C37.3194 207.51 37.8894 205.552 38.4509 203.613L36.5299 203.056ZM32.5103 216.796C32.3189 217.445 32.1266 218.096 31.9336 218.749L33.8516 219.316C34.0447 218.662 34.237 218.011 34.4286 217.362L32.5103 216.796ZM30.1755 224.684C29.4124 227.255 28.6381 229.858 27.8531 232.494L29.7699 233.065C30.555 230.429 31.3295 227.825 32.0928 225.253L30.1755 224.684ZM27.2659 234.466C26.6833 236.421 26.095 238.395 25.5012 240.387L27.4178 240.958C28.0116 238.966 28.6 236.992 29.1826 235.037L27.2659 234.466ZM23.169 248.214C22.9725 248.874 22.7754 249.536 22.5777 250.2L24.4947 250.77C24.6923 250.106 24.8893 249.444 25.0859 248.784L23.169 248.214ZM20.832 256.072C20.0614 258.667 19.2832 261.293 18.498 263.949L20.4159 264.516C21.2009 261.861 21.9788 259.236 22.7492 256.642L20.832 256.072ZM17.9077 265.946C17.338 267.876 16.7647 269.821 16.188 271.783L18.1068 272.347C18.6833 270.386 19.2564 268.441 19.8259 266.513L17.9077 265.946ZM13.8694 279.696C13.6773 280.354 13.4849 281.013 13.2921 281.675L15.2122 282.234C15.4049 281.573 15.5972 280.914 15.7892 280.256L13.8694 279.696ZM11.5943 287.518C10.836 290.135 10.0727 292.78 9.30494 295.454L11.2273 296.006C11.9946 293.334 12.7574 290.69 13.5153 288.074L11.5943 287.518ZM8.74121 297.419C8.18621 299.357 7.62888 301.309 7.06938 303.276L8.99306 303.823C9.55222 301.857 10.1092 299.906 10.6639 297.97L8.74121 297.419ZM4.82 311.224C4.72583 311.559 4.6316 311.894 4.53732 312.229L6.46268 312.771C6.5569 312.435 6.65107 312.101 6.74518 311.766L4.82 311.224Z" fill="black"/>
</svg>
