<svg width="201" height="180" viewBox="0 0 201 180" fill="none" xmlns="http://www.w3.org/2000/svg">
<path d="M187.257 0.570901C187.02 0.429157 186.713 0.506372 186.571 0.743362L184.261 4.60535C184.119 4.84234 184.197 5.14936 184.434 5.2911C184.671 5.43284 184.978 5.35563 185.119 5.11863L187.172 1.68576L190.605 3.73891C190.842 3.88063 191.149 3.80341 191.291 3.56643C191.433 3.32944 191.356 3.02242 191.119 2.88067L187.257 0.570901ZM0.959364 176.498C47.2478 180.273 84.4149 180.618 113.535 176.653C142.653 172.688 163.781 164.407 177.932 150.878C192.095 137.338 199.203 118.607 200.412 93.8916C201.621 69.1878 196.938 38.4649 187.485 0.878059L186.515 1.12196C195.96 38.6769 200.615 69.2865 199.413 93.8427C198.213 118.388 191.165 136.844 177.241 150.155C163.306 163.477 142.417 171.711 113.4 175.662C84.3863 179.613 47.3032 179.274 1.04064 175.502L0.959364 176.498Z" fill="black"/>
</svg>
