<svg width="48" height="251" viewBox="0 0 48 251" fill="none" xmlns="http://www.w3.org/2000/svg">
<path d="M19.2293 0.070632C18.9923 -0.0711129 18.6853 0.006103 18.5435 0.243092L16.2337 4.10508C16.092 4.34208 16.1692 4.6491 16.4062 4.79083C16.6432 4.93257 16.9502 4.85536 17.092 4.61836L19.1451 1.18549L22.578 3.23863C22.815 3.38037 23.122 3.30316 23.2637 3.06617C23.4055 2.82917 23.3282 2.52215 23.0912 2.38041L19.2293 0.070632ZM1.18223 250.966C16.278 245.053 27.3561 235.812 34.8679 222.909C42.3732 210.016 46.2986 193.501 47.1595 173.065C48.8806 132.206 38.3549 75.5162 19.4575 0.37779L18.4877 0.621688C37.3868 75.7668 47.8747 132.327 46.1604 173.023C45.3035 193.364 41.399 209.702 34.0037 222.405C26.6149 235.098 15.7218 244.197 0.817534 250.034L1.18223 250.966Z" fill="black"/>
</svg>
