<svg width="60" height="53" viewBox="0 0 60 53" fill="none" xmlns="http://www.w3.org/2000/svg">
<path d="M59.5 30.537C59.5 36.0977 58.5272 40.2196 56.8463 43.2829C55.17 46.3379 52.7707 48.3746 49.8501 49.7391C46.9192 51.1084 43.4583 51.8026 39.67 52.1511C35.8818 52.4996 31.8006 52.5 27.6316 52.5C19.3666 52.5 12.6006 50.6729 7.90288 46.4788C3.21604 42.2944 0.5 35.674 0.5 25.8896C0.5 21.042 1.7384 17.194 3.77957 14.1112C5.82355 11.024 8.69038 8.67764 11.9843 6.86629C18.587 3.2355 26.8322 1.7918 33.3889 0.822975C39.8476 -0.13138 46.3499 0.927794 51.237 5.34669C56.126 9.76719 59.5 17.641 59.5 30.537Z" stroke="black"/>
</svg>
