<svg width="624" height="624" viewBox="0 0 624 624" fill="none" xmlns="http://www.w3.org/2000/svg">
<g opacity="0.1" clip-path="url(#clip0)">
<path d="M94.002 172.971C106.203 163.294 121.788 152.365 139.236 143.468C150.006 137.976 161.315 133.457 173.077 130.597C191.523 126.112 246.279 118.441 245.353 150.496C245.101 159.192 237.776 166.112 230.043 169.058C222.06 172.099 213.295 172.038 204.767 172.537C178.688 174.063 155.172 180.971 131.499 191.523C107.055 202.419 81.5489 216.765 67.0153 240.105C59.6101 251.997 60.1598 267.836 61.0726 281.284C62.5035 302.367 87.9449 312.155 103.148 297.493C135.349 266.438 190.526 222.578 252.199 214.048C260.833 212.854 268.439 219.88 268.019 228.633C267.756 234.106 264.152 238.872 259.11 241.015C230.093 253.35 135.845 296.537 93.0405 353.823C83.6951 366.33 80.0266 382.175 82.8956 397.522C84.5141 406.182 86.7797 416.654 89.8181 427.362C95.4536 447.224 121.228 452.574 134.306 436.599C155.188 411.092 190.646 376.362 245.485 347.237C259.411 339.841 276.439 349.05 277.688 364.883C278.388 373.745 273.434 382.088 265.57 386.232C229.009 405.499 133.72 463.317 169.187 526.614C176.007 538.784 184.814 547.332 196.806 554.954C204.705 559.973 213.095 564.2 221.671 567.928C229.683 571.411 237.894 574.404 246.169 577.199C268.675 584.8 290.256 598.855 303.669 618.757C303.843 619.014 304.028 619.308 304.224 619.631C307.761 625.459 316.235 625.459 319.772 619.631C319.968 619.308 320.153 619.014 320.328 618.757C333.739 598.856 355.322 584.8 377.827 577.199C386.101 574.404 394.312 571.41 402.325 567.928C410.901 564.2 419.293 559.974 427.19 554.954C439.181 547.334 447.989 538.785 454.809 526.614C490.276 463.317 394.987 405.499 358.426 386.232C350.562 382.088 345.608 373.745 346.308 364.883C347.558 349.05 364.585 339.84 378.511 347.237C433.35 376.362 468.809 411.092 489.691 436.599C502.77 452.574 528.543 447.225 534.178 427.363C537.218 416.652 539.483 406.177 541.102 397.516C543.969 382.173 540.302 366.336 530.961 353.831C488.158 296.543 393.906 253.353 364.886 241.018C359.843 238.874 356.238 234.107 355.976 228.634C355.557 219.881 363.163 212.856 371.795 214.05C433.469 222.58 488.646 266.441 520.847 297.496C536.05 312.157 561.491 302.37 562.923 281.286C563.836 267.839 564.386 252 556.981 240.107C542.447 216.767 516.941 202.421 492.497 191.526C468.825 180.974 445.309 174.066 419.229 172.54C410.702 172.04 401.936 172.101 393.953 169.06C386.221 166.115 378.895 159.195 378.644 150.499C377.717 118.443 432.473 126.114 450.919 130.599C462.681 133.459 473.99 137.977 484.76 143.47C502.21 152.368 517.796 163.299 529.998 172.977C543.166 183.422 562.549 173.681 562.112 156.879C561.84 146.461 560.638 135.912 558.886 125.694C548.323 64.1015 501.557 14.357 440.197 2.52052C408.674 -3.56104 383.586 2.06714 364.265 12.0061C331.367 28.9284 292.627 28.9284 259.729 12.0061C240.41 2.06471 215.323 -3.56348 183.8 2.51808C122.439 14.3546 75.6733 64.0991 65.1104 125.691C63.3578 135.908 62.1561 146.457 61.8843 156.875C61.4468 173.679 80.8322 183.417 94.002 172.971Z" fill="#4DA629"/>
<path d="M562.931 281.29C561.489 302.37 536.059 312.15 520.847 297.491C488.646 266.443 433.472 222.579 371.802 214.053C363.162 212.849 355.563 219.883 355.976 228.636C356.239 234.104 359.838 238.869 364.891 241.013C393.908 253.351 488.156 296.538 530.967 353.832C540.308 366.334 543.971 382.172 541.098 397.521C539.481 406.173 537.224 416.657 534.176 427.366C528.545 447.229 502.764 452.571 489.685 436.595C468.807 411.089 433.345 376.367 378.508 347.238C364.589 339.84 347.561 349.056 346.307 364.88C345.605 373.746 350.558 382.086 358.42 386.235C394.985 405.496 490.274 463.316 454.812 526.617C447.99 538.78 439.187 547.332 427.186 554.957C419.286 559.973 410.898 564.198 402.32 567.923C394.307 571.409 386.106 574.405 377.831 577.202C355.322 584.801 333.741 598.858 320.324 618.759C320.149 619.01 319.973 619.312 319.772 619.637C316.236 625.455 307.759 625.455 304.223 619.637C304.022 619.312 303.847 619.01 303.671 618.759C301.916 616.165 300.035 613.669 298.017 611.274C297.838 611.061 319.284 590.378 321.021 588.985C330.997 580.987 341.795 574.013 353.195 568.22C390.346 549.344 449.948 532.194 430.386 477.487C420.304 449.295 397.895 435.943 372.589 422.876C360.264 416.512 347.704 409.97 338.069 399.994C324.606 386.053 320.341 366.204 328.981 348.526C335.655 334.875 350.136 322.33 365.937 322.386C371.368 322.406 376.97 322.596 382.311 323.673C394.415 326.119 405.283 332.926 414.984 340.566C432.465 354.335 450.611 367.294 468.619 380.504C475.315 385.432 494.074 402.937 502.151 399.84C522.251 392.128 511.944 366.422 502.539 353.832C491.942 339.646 479.412 326.799 464.308 317.481C432.921 298.114 400.313 280.725 366.741 265.452C357.474 261.237 348.002 257.1 340.157 250.613C333.589 245.181 327.365 237.443 327.116 228.527C326.753 215.432 334.419 203.238 346.113 197.47C361.066 190.097 384.65 196.478 399.609 201.434C403.783 202.817 407.957 204.199 412.131 205.582C436.046 213.504 458.404 225.429 479.583 238.953C490.201 245.734 500.569 252.915 510.771 260.306C518.376 265.814 529.646 275.703 538.618 268.179C544.568 263.189 540.697 251.21 537.12 245.923C532.07 238.456 524.813 231.923 517.219 227.115C504.422 219.014 489.613 214.816 475.095 210.5C459.338 205.815 443.657 200.876 428.06 195.681C416.426 191.807 404.424 190.148 392.89 186.364C373.382 179.962 353.205 162.405 356.554 139.888C359.578 119.559 381.692 104.668 400.883 102.264C423.469 99.4367 446.019 106.977 467.483 112.704C474.393 114.548 480.337 118.431 487.05 120.977C496.042 124.388 503.634 129.831 513.646 130.827C539.711 133.419 527.245 105.578 521.059 92.5751C514.517 78.8215 506.636 64.578 496.808 52.8451C475.127 27.0015 444.931 8.9189 411.777 2.5229C408.002 1.7953 404.315 1.23102 400.729 0.842242C412.566 -0.599539 425.707 -0.274133 440.204 2.5229C501.561 14.3606 548.32 64.1051 558.892 125.687C560.635 135.908 561.839 146.454 562.114 156.874C562.553 173.677 543.166 183.421 530 172.975C517.799 163.294 502.213 152.372 484.758 143.469C473.986 137.976 462.687 133.462 450.925 130.604C432.479 126.115 377.719 118.441 378.647 150.505C378.898 159.194 386.221 166.117 393.958 169.064C401.934 172.099 410.699 172.035 419.226 172.537C445.308 174.067 468.82 180.976 492.494 191.522C516.946 202.419 542.452 216.765 556.986 240.113C564.385 251.997 563.834 267.835 562.931 281.29Z" fill="#488929"/>
<path d="M282.711 491.344C297.589 473.998 301.98 453.357 292.518 445.242C283.057 437.127 263.326 444.61 248.448 461.956C233.571 479.302 229.18 499.942 238.641 508.057C248.103 516.173 267.834 508.69 282.711 491.344Z" fill="#FEE8C7"/>
<path d="M467.621 77.3306C472.146 65.7126 462.23 51.0032 445.472 44.4763C428.714 37.9494 411.461 42.0766 406.936 53.6947C402.411 65.3127 412.328 80.0222 429.085 86.5491C445.843 93.076 463.096 88.9487 467.621 77.3306Z" fill="#FEE8C7"/>
</g>
<defs>
<clipPath id="clip0">
<rect width="624" height="624" fill="white"/>
</clipPath>
</defs>
</svg>
