<svg width="436" height="436" viewBox="0 0 436 436" fill="none" xmlns="http://www.w3.org/2000/svg">
<g opacity="0.1" clip-path="url(#clip0)">
<path d="M337.76 100.885C338.153 99.21 340.176 98.5469 341.496 99.6531C365.126 119.468 385.331 143.484 398.947 170.864C419.467 212.102 423.962 267.409 384.162 299.027C373.15 307.778 359.97 313.421 346.308 316.511C346.85 330.507 344.799 344.698 339.185 357.592C318.903 404.202 264.312 414.127 219.176 404.942C189.21 398.851 160.794 385.526 135.55 367.812C134.141 366.822 134.26 364.696 135.779 363.881C173.597 343.569 194.742 318.61 196.117 316.95C196.256 316.797 196.378 316.638 196.498 316.482C201.492 309.979 200.492 300.647 194.139 295.361C187.632 289.94 177.968 290.832 172.55 297.342C172.222 297.732 148.956 325.18 107.683 343.45C106.832 343.825 105.829 343.655 105.154 343.02C101.649 339.725 98.2373 336.347 94.9365 332.903C83.3325 320.809 73.062 307.784 64.0403 294.025C63.1697 292.698 63.8818 290.904 65.4228 290.528C101.529 281.677 124.666 266.869 126.316 265.798C127.811 264.821 129.084 263.632 130.11 262.293C133.962 257.276 134.436 250.18 130.787 244.582C126.167 237.485 116.665 235.485 109.571 240.111C109.197 240.354 85.1036 255.76 48.1619 262.868C47.1386 263.065 46.099 262.546 45.644 261.608C36.2932 242.424 28.9137 222.249 23.3215 201.502C22.9728 200.211 23.8007 198.889 25.1156 198.636C50.9504 193.679 67.5344 186.021 68.9732 185.344C71.2195 184.284 73.0972 182.693 74.5333 180.789C77.8754 176.347 78.7821 170.181 76.2982 164.92C72.6817 157.27 63.5575 153.983 55.9021 157.606C55.7466 157.674 41.1615 164.392 18.3488 168.641C17.0797 168.879 15.8548 168.042 15.6312 166.771C9.35753 130.853 7.83342 93.9973 10.0694 58.2778C44.0027 46.9018 80.0039 38.8685 116.324 35.6599C117.61 35.5479 118.735 36.5153 118.832 37.8028C120.613 60.9395 117.886 76.764 117.86 76.9318C116.335 85.2628 121.861 93.2305 130.185 94.7508C135.912 95.7929 141.636 93.3259 145.061 88.9515C146.534 87.0723 147.587 84.8476 148.032 82.4038C148.313 80.8393 151.434 62.8437 149.557 36.6019C149.463 35.2662 150.527 34.1251 151.863 34.1291C173.351 34.1821 194.744 36.1069 215.694 40.1884C216.715 40.3891 217.484 41.2568 217.561 42.296C220.222 79.8211 211.557 107.073 211.419 107.5C208.779 115.544 213.163 124.209 221.212 126.844C227.559 128.926 234.295 126.634 238.148 121.621C239.177 120.281 239.998 118.747 240.556 117.051C241.165 115.177 249.5 89.0066 248.738 51.836C248.704 50.2531 250.257 49.1018 251.76 49.598C267.382 54.7673 282.618 61.3292 297.293 69.4177C301.472 71.7211 305.617 74.1456 309.704 76.6793C310.491 77.1708 310.915 78.0957 310.772 79.0142C303.769 123.604 283.253 153.164 282.96 153.579C278.068 160.492 279.7 170.059 286.617 174.948C293.362 179.721 302.637 178.28 307.628 171.781C307.751 171.624 307.874 171.465 307.986 171.292C309.231 169.532 327.892 142.664 337.76 100.885Z" fill="#73D98B"/>
<path d="M10.0693 58.2777C9.60566 65.6563 9.31624 73.0868 9.18286 80.5447C43.4987 69.0766 79.888 60.9714 116.599 57.7325C117.905 57.6149 119.045 58.6013 119.147 59.9061C119.19 60.4624 119.226 61.0107 119.265 61.5586C119.533 55.1712 119.547 47.0774 118.832 37.8027C118.735 36.5151 117.609 35.5449 116.327 35.6593C80.0037 38.8683 44.0026 46.9016 10.0693 58.2777Z" fill="#00C756"/>
<path d="M149.557 36.6018C150.007 42.8981 150.169 48.7148 150.151 53.9486C150.572 53.3971 151.229 53.0328 151.98 53.033C173.465 53.0864 194.86 55.0108 215.807 59.0927C216.832 59.293 217.6 60.1607 217.674 61.2003C217.762 62.4442 217.837 63.6749 217.902 64.898C218.176 57.9448 218.132 50.3608 217.557 42.2933C217.484 41.2538 216.715 40.3861 215.694 40.1883C194.744 36.1039 173.351 34.1791 151.863 34.129C150.527 34.125 149.46 35.2665 149.557 36.6018Z" fill="#00C756"/>
<path d="M248.735 51.8363C248.882 58.9674 248.694 65.6882 248.288 71.9143C248.581 71.8937 248.88 71.9114 249.18 72.0096C264.804 77.1784 280.038 83.7407 294.716 91.8288C298.724 94.038 302.697 96.3654 306.62 98.7891C308.248 92.6 309.676 85.9915 310.772 79.0112C310.915 78.0957 310.492 77.1707 309.704 76.6793C305.62 74.1452 301.472 71.721 297.293 69.4177C282.615 61.3296 267.382 54.7672 251.76 49.598C250.254 49.0992 248.704 50.2501 248.735 51.8363Z" fill="#00C756"/>
<path d="M337.76 100.885C336.094 107.937 334.173 114.553 332.135 120.706C353.996 139.824 372.66 162.619 385.48 188.397C401.654 220.899 407.867 262.137 390.291 293.631C423.416 261.397 418.343 209.849 398.948 170.864C385.332 143.484 365.126 119.468 341.496 99.6529C340.176 98.5467 338.153 99.2069 337.76 100.885Z" fill="#00C756"/>
<path d="M256.529 172.254C257.407 165.963 253.022 160.153 246.73 159.272C240.439 158.393 234.63 162.782 233.751 169.07L228.101 209.506L182.242 176.445L189.969 121.136C190.848 114.845 186.462 109.033 180.171 108.154C173.879 107.276 168.07 111.661 167.189 117.953L161.141 161.233L116.289 128.901C112.478 126.151 107.172 126.928 104.31 130.655C101.451 134.381 102.067 139.708 105.703 142.68L148.516 177.672L108.262 194.684C102.41 197.156 99.672 203.9 102.144 209.752C104.615 215.6 111.363 218.341 117.211 215.87L168.657 194.134L212.431 229.911L174.821 245.802C168.972 248.273 166.232 255.021 168.703 260.869C171.175 266.721 177.922 269.459 183.774 266.987L232.568 246.37L276.342 282.147L241.38 296.919C235.532 299.391 232.791 306.138 235.263 311.987C237.734 317.838 244.482 320.576 250.333 318.104L296.479 298.606L402.878 385.566C408.279 389.981 416.259 389.056 420.507 383.524L430.199 370.905C434.447 365.374 433.281 357.426 427.625 353.346L316.156 272.986L323.091 223.371C323.966 217.08 319.581 211.268 313.292 210.389C307.001 209.51 301.189 213.899 300.31 220.187L295.058 257.776L249.199 224.715L256.529 172.254Z" fill="#B9EBC2"/>
</g>
<defs>
<clipPath id="clip0">
<rect width="388.482" height="388.482" fill="white" transform="translate(50.5444 435.725) rotate(-97.4758)"/>
</clipPath>
</defs>
</svg>
