<svg width="80" height="24" viewBox="0 0 80 24" fill="none" xmlns="http://www.w3.org/2000/svg">
<path d="M15.7724 11.9836C15.7724 7.97028 12.2562 4.72305 7.91032 4.72305C3.54574 4.72305 0.0140755 8.25572 0.0140755 12.621L0.0107422 23.1331H3.89324L3.89658 18.5492C6.42741 19.9313 9.57199 19.9026 12.0482 18.4718C15.8257 16.2894 15.7778 12.1571 15.7724 11.9836Z" fill="#35644A"/>
<path d="M31.517 4.72305H27.7487V5.86833C26.5295 5.09794 25.1862 4.72305 23.6362 4.72305C19.2903 4.72305 15.7741 7.97066 15.7741 11.9836C15.7687 12.1567 15.7208 16.2894 19.4983 18.4718C21.9745 19.9026 25.1191 19.9313 27.6499 18.5492V19.5918L31.5324 19.6086V12.621L31.517 4.72305Z" fill="#35644A"/>
<path d="M48.4906 11.8199C48.3965 7.88239 44.9169 4.72305 40.6306 4.72305C39.0802 4.72305 37.7373 5.09794 36.5181 5.86833V5.32622V4.72305H32.7498L32.7344 12.621V19.6086H48.4927C48.4927 19.6086 48.4919 11.8743 48.4906 11.8199Z" fill="#35644A"/>
<path d="M64.239 0.872375H60.4695L60.4674 5.86843C59.2482 5.09804 57.9049 4.72315 56.3549 4.72315C52.0095 4.72315 48.4928 7.97076 48.4928 11.9837C48.4874 12.1568 48.4395 16.2895 52.217 18.4719C54.6932 19.9026 57.8378 19.9314 60.3686 18.5493V19.5919L64.2511 19.6086V12.6211L64.239 0.872375Z" fill="#35644A"/>
<path d="M79.9955 4.72305H76.2272V5.86833C75.008 5.09794 73.6647 4.72305 72.1147 4.72305C67.7688 4.72305 64.2526 7.97066 64.2526 11.9836C64.2472 12.1567 64.1993 16.2894 67.9768 18.4718C70.453 19.9026 73.5976 19.9313 76.1284 18.5492V19.5918L80.0109 19.6086V12.621L79.9955 4.72305Z" fill="#35644A"/>
</svg>
