<svg width="120" height="64" viewBox="0 0 120 64" fill="none" xmlns="http://www.w3.org/2000/svg">
<g clip-path="url(#clip0)">
<path d="M23.6591 31.9751C23.6591 25.8595 18.3847 20.9114 11.866 20.9114C5.3191 20.9114 0.0216016 26.2945 0.0216016 32.9464L0.0166016 48.9647H5.84035L5.84535 41.9798C9.6416 44.0859 14.3585 44.0421 18.0728 41.8619C23.7391 38.5363 23.6672 32.2394 23.6591 31.9751Z" fill="#35644A"/>
<path d="M47.2755 20.9114H41.623V22.6566C39.7943 21.4827 37.7793 20.9114 35.4543 20.9114C28.9355 20.9114 23.6611 25.8601 23.6611 31.9751C23.653 32.2388 23.5811 38.5363 29.2474 41.8619C32.9618 44.0421 37.6786 44.0859 41.4749 41.9798V43.5686L47.2986 43.5941V32.9464L47.2755 20.9114Z" fill="#35644A"/>
<path d="M72.7364 31.7256C72.5952 25.7256 67.3758 20.9114 60.9464 20.9114C58.6208 20.9114 56.6064 21.4827 54.7777 22.6566V21.8305V20.9114H49.1252L49.1021 32.9464V43.5941H72.7395C72.7395 43.5941 72.7383 31.8086 72.7364 31.7256Z" fill="#35644A"/>
<path d="M96.3595 15.0437H90.7052L90.7021 22.6567C88.8733 21.4828 86.8583 20.9115 84.5333 20.9115C78.0152 20.9115 72.7402 25.8603 72.7402 31.9752C72.7321 32.2389 72.6602 38.5364 78.3265 41.862C82.0408 44.0422 86.7577 44.086 90.5539 41.98V43.5687L96.3777 43.5942V32.9465L96.3595 15.0437Z" fill="#35644A"/>
<path d="M119.993 20.9114H114.341V22.6566C112.512 21.4827 110.497 20.9114 108.172 20.9114C101.653 20.9114 96.3789 25.8601 96.3789 31.9751C96.3708 32.2388 96.2989 38.5363 101.965 41.8619C105.68 44.0421 110.396 44.0859 114.193 41.9798V43.5686L120.016 43.5941V32.9464L119.993 20.9114Z" fill="#35644A"/>
</g>
<defs>
<clipPath id="clip0">
<rect width="120" height="64" fill="white"/>
</clipPath>
</defs>
</svg>
