<svg width="205" height="69" viewBox="0 0 205 69" fill="none" xmlns="http://www.w3.org/2000/svg">
<path d="M92.342 27.344C92.342 28.4333 92.3927 29.4973 92.494 30.536C92.6207 31.5493 92.8107 32.9807 93.064 34.83C93.5453 37.946 93.786 40.4287 93.786 42.278C93.786 42.658 93.71 42.886 93.558 42.962C93.406 43.038 93.2287 43.076 93.026 43.076C92.8233 43.076 92.684 43.076 92.608 43.076C92.2533 43.076 91.9747 43.038 91.772 42.962C91.5693 42.8607 91.4047 42.6327 91.278 42.278L90.48 31.942C90.404 30.9033 90.3027 28.8133 90.176 25.672C89.0867 26.9387 88.01 27.9013 86.946 28.56C85.882 29.1933 84.7927 29.51 83.678 29.51C82.082 29.51 80.486 28.3827 78.89 26.128C78.966 26.508 79.004 27.0147 79.004 27.648C79.004 28.2813 79.004 28.6487 79.004 28.75L78.966 41.176C78.966 41.4293 78.8267 41.632 78.548 41.784C78.2947 41.9107 78.0287 41.974 77.75 41.974C77.3953 41.974 77.142 41.8473 76.99 41.594C76.8633 41.3153 76.762 40.948 76.686 40.492V35.172C76.686 34.3613 76.7113 33.4493 76.762 32.436C76.8127 31.4227 76.8507 30.7133 76.876 30.308C77.0027 28.5347 77.066 26.926 77.066 25.482C77.066 25.0513 76.99 24.646 76.838 24.266C76.686 23.8607 76.458 23.4173 76.154 22.936C75.85 22.4547 75.622 22.0367 75.47 21.682C75.3433 21.3273 75.28 20.9473 75.28 20.542C75.28 20.0607 75.5207 19.82 76.002 19.82C76.762 19.82 77.3827 20.0987 77.864 20.656C78.3453 21.188 78.8647 21.9987 79.422 23.088C79.9033 23.9747 80.3213 24.6713 80.676 25.178C81.0307 25.6847 81.4867 26.128 82.044 26.508C82.6013 26.8627 83.2727 27.04 84.058 27.04C85.198 27.0907 86.1353 26.8753 86.87 26.394C87.6047 25.8873 88.162 25.2793 88.542 24.57C88.922 23.8607 89.2893 22.9993 89.644 21.986C89.948 21.15 90.214 20.5673 90.442 20.238C90.67 19.8833 90.9487 19.744 91.278 19.82C92.038 19.7693 92.418 20.466 92.418 21.91C92.418 23.126 92.4053 24.0253 92.38 24.608L92.342 27.344ZM106.57 43C104.949 43 103.454 42.6833 102.086 42.05C100.718 41.4167 99.6287 40.5173 98.818 39.352C98.0074 38.1867 97.602 36.844 97.602 35.324C97.602 33.6267 97.9187 32.0433 98.552 30.574C99.1854 29.0793 100.11 27.8887 101.326 27.002C102.567 26.09 104.011 25.634 105.658 25.634C107.381 25.634 108.685 26.1913 109.572 27.306C110.459 28.3953 110.877 29.776 110.826 31.448C110.826 32.9427 110.231 34.0827 109.04 34.868C107.875 35.6533 106.38 36.046 104.556 36.046C104.277 36.046 103.859 36.0207 103.302 35.97C102.39 35.8687 101.744 35.7293 101.364 35.552C100.984 35.3747 100.794 35.02 100.794 34.488C100.794 34.3107 100.845 34.184 100.946 34.108C101.047 34.0067 101.25 33.956 101.554 33.956C101.883 33.956 102.466 34.032 103.302 34.184C104.113 34.336 104.835 34.412 105.468 34.412C107.799 34.412 108.964 33.3987 108.964 31.372C108.964 30.156 108.736 29.1933 108.28 28.484C107.849 27.7747 107.077 27.42 105.962 27.42C104.746 27.42 103.657 27.7493 102.694 28.408C101.731 29.0413 100.984 29.8773 100.452 30.916C99.9454 31.9547 99.692 33.0567 99.692 34.222C99.692 36.2233 100.249 37.87 101.364 39.162C102.479 40.4287 104.201 41.062 106.532 41.062C106.811 41.062 107.279 41.0367 107.938 40.986C108.217 40.9607 108.559 40.8847 108.964 40.758C109.369 40.6313 109.661 40.5427 109.838 40.492C110.927 40.112 111.725 39.922 112.232 39.922C112.612 39.922 112.903 40.0233 113.106 40.226C112.473 41.1887 111.523 41.898 110.256 42.354C109.015 42.7847 107.786 43 106.57 43ZM118.245 43.152C117.891 43.2533 117.688 43.304 117.637 43.304C117.435 43.304 117.219 43.2027 116.991 43C116.155 41.7587 115.547 39.5927 115.167 36.502C114.813 33.4113 114.635 30.7513 114.635 28.522C114.635 28.1673 114.889 27.99 115.395 27.99C116.155 27.99 116.535 28.408 116.535 29.244C116.535 29.472 116.523 29.662 116.497 29.814C116.725 29.282 117.156 28.7373 117.789 28.18C118.423 27.6227 119.157 27.154 119.993 26.774C120.829 26.394 121.678 26.204 122.539 26.204C125.25 26.204 127.226 27.4073 128.467 29.814C129.709 32.1953 130.329 35.1593 130.329 38.706C130.329 39.922 130.203 40.8973 129.949 41.632C129.696 42.3413 129.354 42.696 128.923 42.696C128.467 42.696 128.239 42.5567 128.239 42.278C128.417 40.9353 128.505 39.618 128.505 38.326C128.505 35.058 127.935 32.588 126.795 30.916C125.655 29.2187 124.148 28.37 122.273 28.37C121.361 28.37 120.475 28.598 119.613 29.054C118.777 29.51 118.093 30.1433 117.561 30.954C117.055 31.7647 116.801 32.6893 116.801 33.728C116.801 34.8933 116.865 35.9067 116.991 36.768C117.118 37.6293 117.321 38.668 117.599 39.884C117.903 41.0747 118.119 42.164 118.245 43.152ZM150.855 42.81C150.399 42.81 150.032 42.62 149.753 42.24C149.5 41.8347 149.272 41.2267 149.069 40.416C148.867 39.58 148.55 38.136 148.119 36.084C147.689 37.7813 146.878 39.1367 145.687 40.15C144.497 41.138 143.04 41.632 141.317 41.632C139.747 41.632 138.417 41.0873 137.327 39.998C136.263 38.8833 135.465 37.4267 134.933 35.628C134.401 33.804 134.135 31.8407 134.135 29.738C134.135 28.7753 134.224 27.952 134.401 27.268C134.604 26.5587 134.845 26.0267 135.123 25.672C135.427 25.3173 135.719 25.1527 135.997 25.178C136.301 25.178 136.453 25.3807 136.453 25.786C136.453 26.1153 136.365 26.6347 136.187 27.344C136.01 28.1293 135.921 29.0287 135.921 30.042C135.921 31.562 136.137 33.044 136.567 34.488C137.023 35.932 137.682 37.1227 138.543 38.06C139.43 38.972 140.469 39.428 141.659 39.428C142.647 39.428 143.547 39.1367 144.357 38.554C145.168 37.9713 145.801 37.2367 146.257 36.35C146.739 35.4633 146.979 34.5893 146.979 33.728V27.686C147.258 27.154 147.638 26.888 148.119 26.888C148.55 26.888 148.841 27.2553 148.993 27.99C149.145 28.7247 149.221 29.7633 149.221 31.106C149.221 32.246 149.209 33.12 149.183 33.728C149.335 34.564 149.563 35.4127 149.867 36.274C150.197 37.1353 150.602 38.1107 151.083 39.2C151.666 40.5427 151.957 41.366 151.957 41.67C151.957 42.43 151.59 42.81 150.855 42.81Z" fill="black"/>
<path d="M52.72 43C52.2387 43 51.7193 42.9493 51.162 42.848C50.63 42.7213 50.098 42.5947 49.566 42.468C48.2487 42.088 47.1847 41.898 46.374 41.898C45.614 41.898 44.7653 41.9613 43.828 42.088C42.4347 42.2147 41.5607 42.278 41.206 42.278C39.686 42.278 38.5207 41.9993 37.71 41.442C36.9247 40.8847 36.4813 40.0867 36.38 39.048C36.3293 38.4147 36.5067 37.9713 36.912 37.718C37.3173 37.4393 37.9633 37.3 38.85 37.3C39.3567 37.3 39.8253 37.376 40.256 37.528C40.712 37.6547 41.2947 37.8573 42.004 38.136C42.7133 38.44 43.3467 38.668 43.904 38.82C44.4613 38.972 45.0567 39.048 45.69 39.048C46.374 39.048 47.0707 38.6173 47.78 37.756C48.5147 36.8947 49.11 35.7673 49.566 34.374C50.0473 32.9807 50.288 31.524 50.288 30.004C50.288 28.1293 50.022 26.6853 49.49 25.672C48.9833 24.6333 48.0207 24.114 46.602 24.114C43.9167 24.114 41.9787 25.672 40.788 28.788C40.332 28.6107 40.0027 28.3827 39.8 28.104C39.6227 27.8 39.534 27.3947 39.534 26.888C39.534 26.1533 39.8127 25.444 40.37 24.76C40.9527 24.0507 41.7633 23.4807 42.802 23.05C43.866 22.594 45.0947 22.366 46.488 22.366C48.4893 22.366 49.984 23.05 50.972 24.418C51.9853 25.786 52.492 27.5847 52.492 29.814C52.492 32.0433 52.0233 34.0573 51.086 35.856C50.174 37.6293 49.0593 39.0353 47.742 40.074C48.3753 40.3273 48.9833 40.492 49.566 40.568C50.174 40.644 50.8327 40.682 51.542 40.682C52.4033 40.7073 52.9987 40.796 53.328 40.948C53.6827 41.0747 53.86 41.404 53.86 41.936C53.86 42.164 53.746 42.4047 53.518 42.658C53.29 42.886 53.024 43 52.72 43ZM58.8407 43C58.3847 43 57.9793 42.7973 57.6247 42.392C57.2953 41.9613 57.0293 41.4673 56.8267 40.91C56.6493 40.3273 56.5607 39.8333 56.5607 39.428C56.5607 38.6173 56.6747 37.946 56.9027 37.414C57.156 36.8567 57.4473 36.464 57.7767 36.236C58.106 35.9827 58.41 35.856 58.6887 35.856C59.5753 35.856 60.2847 36.2867 60.8167 37.148C61.3487 37.984 61.6147 38.8833 61.6147 39.846C61.6147 40.226 61.4627 40.6693 61.1587 41.176C60.88 41.6827 60.5253 42.1133 60.0947 42.468C59.664 42.8227 59.246 43 58.8407 43Z" fill="black"/>
<path d="M189.5 39.4238C189.5 46.5015 186.477 51.7955 181.103 55.7881C175.704 59.7998 167.923 62.5006 158.435 64.3077C139.46 67.9219 113.889 67.9239 87.5 67.9239C61.1443 67.9239 39.3404 65.5485 24.1423 60.0166C16.5463 57.2517 10.6339 53.7101 6.6243 49.3136C2.62464 44.9279 0.5 39.6727 0.5 33.4239C0.5 27.2964 4.33356 22.3369 10.9106 18.2871C17.4888 14.2366 26.722 11.1575 37.2969 8.78676C58.4394 4.04685 84.7757 2.17326 105.53 0.922995C126.252 -0.325309 147.297 1.0529 163.14 6.893C171.057 9.81166 177.647 13.8342 182.254 19.1724C186.854 24.5014 189.5 31.166 189.5 39.4238Z" stroke="black"/>
<path d="M204.5 39.1464C204.5 45.5146 201.407 50.2972 195.857 53.9193C190.281 57.558 182.246 60.0075 172.452 61.646C152.87 64.9223 126.483 64.9238 99.2632 64.9238C72.0722 64.9238 49.5695 62.7713 33.8806 57.7553C18.1711 52.7327 9.5 44.9198 9.5 33.7098C9.5 28.2134 13.4178 23.7285 20.2226 20.0481C27.0143 16.3748 36.5459 13.5831 47.4584 11.4342C69.2751 7.13797 96.4487 5.44009 117.858 4.30723C139.239 3.17587 160.96 4.42447 177.316 9.72028C185.492 12.3677 192.292 16.0154 197.044 20.8507C201.783 25.6741 204.5 31.6944 204.5 39.1464Z" stroke="black"/>
</svg>
