<svg width="195" height="147" viewBox="0 0 195 147" fill="none" xmlns="http://www.w3.org/2000/svg">
<path d="M16.8299 49.03C15.8299 49.03 15.0749 48.86 14.5649 48.52C14.0549 48.17 13.7999 47.54 13.7999 46.63C13.9999 41.63 14.3199 39.245 14.7599 39.475C14.9799 39.485 15.0899 39.825 15.0899 40.495C15.0899 40.905 15.0199 41.77 14.8799 43.09C14.6999 44.61 14.6099 45.725 14.6099 46.435L14.6249 46.87C14.6249 47.09 14.6899 47.31 14.8199 47.53C14.9599 47.75 15.1349 47.87 15.3449 47.89L18.2849 48.145C18.3949 48.155 18.4499 48.26 18.4499 48.46C18.4499 48.64 18.4049 48.765 18.3149 48.835C18.2349 48.905 18.0899 48.96 17.8799 49L16.8299 49.03ZM22.1567 49.015C21.5667 49.015 21.0317 48.885 20.5517 48.625C20.0817 48.355 19.7117 47.985 19.4417 47.515C19.1817 47.035 19.0517 46.49 19.0517 45.88C19.0517 44.88 19.4167 44.135 20.1467 43.645C20.8867 43.155 21.7917 42.91 22.8617 42.91C23.3517 42.91 23.8067 43.03 24.2267 43.27C24.6567 43.51 25.0017 43.855 25.2617 44.305C25.5217 44.755 25.6517 45.275 25.6517 45.865C25.6517 46.505 25.4867 47.065 25.1567 47.545C24.8267 48.015 24.3917 48.38 23.8517 48.64C23.3217 48.89 22.7567 49.015 22.1567 49.015ZM21.9917 48.16C22.9217 48.16 23.6267 47.95 24.1067 47.53C24.5867 47.11 24.8267 46.495 24.8267 45.685C24.8267 45.135 24.6367 44.66 24.2567 44.26C23.8867 43.86 23.3667 43.66 22.6967 43.66C22.2467 43.66 21.7917 43.745 21.3317 43.915C20.8717 44.085 20.4917 44.34 20.1917 44.68C19.8917 45.02 19.7417 45.43 19.7417 45.91C19.7417 46.31 19.8417 46.685 20.0417 47.035C20.2417 47.375 20.5117 47.65 20.8517 47.86C21.2017 48.06 21.5817 48.16 21.9917 48.16ZM28.1646 49C27.7546 48.2 27.4296 47.26 27.1896 46.18C26.9596 45.1 26.8446 44.165 26.8446 43.375C26.8446 43.065 26.9146 42.865 27.0546 42.775C27.1346 42.725 27.1946 42.7 27.2346 42.7C27.3046 42.7 27.3546 42.755 27.3846 42.865C27.4246 42.975 27.4646 43.175 27.5046 43.465L27.5796 44.005C27.6896 43.465 27.8996 43.04 28.2096 42.73C28.5296 42.41 28.9196 42.25 29.3796 42.25C29.8896 42.25 30.2696 42.35 30.5196 42.55C30.7696 42.74 30.8946 43.06 30.8946 43.51C30.3946 43.27 29.9396 43.15 29.5296 43.15C29.1396 43.15 28.8046 43.255 28.5246 43.465C28.2446 43.675 28.0496 43.985 27.9396 44.395C27.8496 44.675 27.8046 44.94 27.8046 45.19C27.8046 45.46 27.8396 45.715 27.9096 45.955C27.9896 46.185 28.1096 46.47 28.2696 46.81C28.4196 47.16 28.5346 47.46 28.6146 47.71C28.7046 47.96 28.7546 48.23 28.7646 48.52C28.7646 48.69 28.7046 48.815 28.5846 48.895C28.4646 48.965 28.3246 49 28.1646 49ZM35.0282 49C34.3882 49 33.7982 48.875 33.2582 48.625C32.7182 48.375 32.2882 48.02 31.9682 47.56C31.6482 47.1 31.4882 46.57 31.4882 45.97C31.4882 45.3 31.6132 44.675 31.8632 44.095C32.1132 43.505 32.4782 43.035 32.9582 42.685C33.4482 42.325 34.0182 42.145 34.6682 42.145C35.3482 42.145 35.8632 42.365 36.2132 42.805C36.5632 43.235 36.7282 43.78 36.7082 44.44C36.7082 45.03 36.4732 45.48 36.0032 45.79C35.5432 46.1 34.9532 46.255 34.2332 46.255C34.1232 46.255 33.9582 46.245 33.7382 46.225C33.3782 46.185 33.1232 46.13 32.9732 46.06C32.8232 45.99 32.7482 45.85 32.7482 45.64C32.7482 45.57 32.7682 45.52 32.8082 45.49C32.8482 45.45 32.9282 45.43 33.0482 45.43C33.1782 45.43 33.4082 45.46 33.7382 45.52C34.0582 45.58 34.3432 45.61 34.5932 45.61C35.5132 45.61 35.9732 45.21 35.9732 44.41C35.9732 43.93 35.8832 43.55 35.7032 43.27C35.5332 42.99 35.2282 42.85 34.7882 42.85C34.3082 42.85 33.8782 42.98 33.4982 43.24C33.1182 43.49 32.8232 43.82 32.6132 44.23C32.4132 44.64 32.3132 45.075 32.3132 45.535C32.3132 46.325 32.5332 46.975 32.9732 47.485C33.4132 47.985 34.0932 48.235 35.0132 48.235C35.1232 48.235 35.3082 48.225 35.5682 48.205C35.6782 48.195 35.8132 48.165 35.9732 48.115C36.1332 48.065 36.2482 48.03 36.3182 48.01C36.7482 47.86 37.0632 47.785 37.2632 47.785C37.4132 47.785 37.5282 47.825 37.6082 47.905C37.3582 48.285 36.9832 48.565 36.4832 48.745C35.9932 48.915 35.5082 49 35.0282 49ZM47.9468 49.015C47.7968 49.015 47.7068 48.975 47.6768 48.895C47.6468 48.805 47.6318 48.67 47.6318 48.49C47.6418 48.42 47.6468 48.34 47.6468 48.25C47.6468 48.15 47.6518 48.075 47.6618 48.025C47.7218 47.545 47.7518 47.09 47.7518 46.66C47.7518 45.71 47.5918 44.97 47.2718 44.44C46.9518 43.9 46.4468 43.63 45.7568 43.63C45.3768 43.63 44.9968 43.725 44.6168 43.915C44.2468 44.105 43.9418 44.34 43.7018 44.62C43.4718 44.9 43.3568 45.155 43.3568 45.385C43.4068 45.675 43.4968 46.03 43.6268 46.45C43.6368 46.5 43.6768 46.655 43.7468 46.915C43.8268 47.175 43.8668 47.41 43.8668 47.62L43.8818 47.905C43.8818 48.065 43.8018 48.145 43.6418 48.145C43.4418 48.145 43.2768 48.015 43.1468 47.755C43.0268 47.495 42.8918 47.09 42.7418 46.54C42.5918 46 42.4468 45.555 42.3068 45.205C42.1668 44.855 41.9768 44.555 41.7368 44.305C41.4968 44.055 41.1918 43.93 40.8218 43.93C40.3118 43.93 39.9118 44.105 39.6218 44.455C39.3418 44.805 39.2018 45.235 39.2018 45.745C39.2018 46.085 39.2318 46.535 39.2918 47.095C39.3418 47.515 39.3668 47.875 39.3668 48.175C39.3668 48.355 39.3468 48.49 39.3068 48.58C39.2668 48.67 39.1718 48.715 39.0218 48.715C38.8218 48.715 38.6818 48.65 38.6018 48.52C38.5218 48.38 38.4818 48.17 38.4818 47.89C38.4818 47.34 38.4518 46.675 38.3918 45.895C38.3818 45.795 38.3618 45.54 38.3318 45.13C38.3018 44.71 38.2968 44.29 38.3168 43.87L38.3318 43.375C38.3918 43.315 38.4618 43.285 38.5418 43.285C38.6518 43.285 38.7418 43.355 38.8118 43.495C38.8918 43.625 38.9318 43.825 38.9318 44.095C39.0818 43.835 39.3018 43.6 39.5918 43.39C39.8818 43.18 40.1868 43.075 40.5068 43.075C41.0568 43.075 41.5118 43.19 41.8718 43.42C42.2418 43.64 42.5768 44 42.8768 44.5C43.1568 43.99 43.5768 43.555 44.1368 43.195C44.7068 42.835 45.2918 42.655 45.8918 42.655C46.5118 42.655 47.0268 42.89 47.4368 43.36C47.8568 43.83 48.1618 44.395 48.3518 45.055C48.5518 45.715 48.6518 46.325 48.6518 46.885C48.6518 47.385 48.6068 47.865 48.5168 48.325C48.4368 48.785 48.2468 49.015 47.9468 49.015ZM54.6123 49.015C54.3823 49.015 54.1973 48.68 54.0573 48.01C53.9173 47.33 53.8273 46.745 53.7873 46.255C53.7473 45.765 53.6923 44.99 53.6223 43.93C53.6123 43.76 53.6073 43.54 53.6073 43.27C53.6073 42.93 53.6323 42.695 53.6823 42.565C53.7423 42.435 53.8373 42.37 53.9673 42.37C54.0773 42.37 54.1623 42.395 54.2223 42.445C54.2923 42.485 54.3523 42.555 54.4023 42.655L54.3873 43.255C54.3873 43.895 54.4173 44.5 54.4773 45.07C54.5473 45.64 54.6523 46.405 54.7923 47.365C54.8723 47.785 54.9273 48.13 54.9573 48.4C54.9773 48.54 54.9523 48.68 54.8823 48.82C54.8123 48.95 54.7223 49.015 54.6123 49.015ZM54.2373 40.765C54.0173 40.765 53.8523 40.68 53.7423 40.51C53.6423 40.34 53.5923 40.13 53.5923 39.88C53.5923 39.77 53.5973 39.69 53.6073 39.64C53.5973 39.48 53.6873 39.4 53.8773 39.4C54.0173 39.4 54.1573 39.435 54.2973 39.505C54.4473 39.565 54.4923 39.61 54.4323 39.64C54.5323 39.9 54.5823 40.105 54.5823 40.255C54.5823 40.385 54.5523 40.49 54.4923 40.57C54.4323 40.64 54.3473 40.705 54.2373 40.765ZM58.0726 54.34C57.8726 54.34 57.6326 53.805 57.3526 52.735C57.0826 51.665 56.8376 50.475 56.6176 49.165C56.4076 47.865 56.3026 47.045 56.3026 46.705C56.3026 45.695 56.6426 44.96 57.3226 44.5C58.0026 44.03 58.8776 43.795 59.9476 43.795C60.5176 43.795 61.0576 43.915 61.5676 44.155C62.0776 44.385 62.4876 44.72 62.7976 45.16C63.1076 45.59 63.2626 46.09 63.2626 46.66C63.2626 47.37 63.0126 47.87 62.5126 48.16C62.0226 48.45 61.4026 48.595 60.6526 48.595C59.8726 48.595 59.2076 48.465 58.6576 48.205C58.1176 47.935 57.8476 47.57 57.8476 47.11L57.8626 46.96C57.9326 46.88 58.0076 46.84 58.0876 46.84C58.1576 46.84 58.2326 46.87 58.3126 46.93C58.4026 46.98 58.4976 47.04 58.5976 47.11C58.9076 47.34 59.2126 47.525 59.5126 47.665C59.8226 47.805 60.2076 47.875 60.6676 47.875C61.2976 47.875 61.7426 47.765 62.0026 47.545C62.2726 47.315 62.4076 46.955 62.4076 46.465C62.4076 46.105 62.2876 45.785 62.0476 45.505C61.8076 45.225 61.4976 45.01 61.1176 44.86C60.7376 44.71 60.3476 44.635 59.9476 44.635C59.0176 44.635 58.3176 44.835 57.8476 45.235C57.3776 45.625 57.1676 46.28 57.2176 47.2C57.3076 48.76 57.4476 50.07 57.6376 51.13C57.8376 52.19 58.1826 53.09 58.6726 53.83L58.6876 53.86C58.6876 53.88 58.6626 53.9 58.6126 53.92C58.5726 53.95 58.5426 53.975 58.5226 53.995C58.4026 54.185 58.2526 54.3 58.0726 54.34ZM64.5368 47.23C64.6768 47.12 64.8118 47.065 64.9418 47.065C65.0618 47.065 65.1768 47.1 65.2868 47.17C65.4068 47.24 65.5268 47.33 65.6468 47.44C65.7668 47.54 65.8618 47.615 65.9318 47.665C66.1618 47.845 66.4768 47.985 66.8768 48.085C67.2768 48.185 67.7018 48.235 68.1518 48.235C68.6618 48.235 69.1168 48.14 69.5168 47.95C69.9268 47.75 70.1318 47.485 70.1318 47.155C70.1318 46.855 70.0218 46.62 69.8018 46.45C69.5818 46.27 69.3168 46.14 69.0068 46.06C68.6968 45.98 68.2868 45.905 67.7768 45.835C67.0868 45.755 66.5368 45.655 66.1268 45.535C65.7268 45.415 65.4068 45.22 65.1668 44.95C64.9268 44.67 64.8068 44.28 64.8068 43.78C64.8068 43.24 65.0618 42.84 65.5718 42.58C66.0818 42.31 66.6668 42.175 67.3268 42.175C67.9268 42.175 68.4368 42.305 68.8568 42.565C69.2868 42.815 69.5068 43.175 69.5168 43.645C69.5368 43.915 69.4968 44.13 69.3968 44.29C69.2968 44.44 69.1768 44.515 69.0368 44.515C68.9568 44.515 68.8868 44.485 68.8268 44.425C68.7768 44.365 68.7518 44.285 68.7518 44.185C68.7518 44.025 68.8068 43.85 68.9168 43.66C68.8668 43.42 68.7018 43.24 68.4218 43.12C68.1518 43 67.8268 42.94 67.4468 42.94C66.8868 42.94 66.4418 43.045 66.1118 43.255C65.7818 43.455 65.6168 43.695 65.6168 43.975C65.6168 44.275 65.7368 44.505 65.9768 44.665C66.2168 44.825 66.5068 44.94 66.8468 45.01C67.1968 45.07 67.6918 45.13 68.3318 45.19C68.8618 45.26 69.2918 45.345 69.6218 45.445C69.9618 45.545 70.2468 45.74 70.4768 46.03C70.7068 46.31 70.8218 46.715 70.8218 47.245C70.8218 47.795 70.5668 48.23 70.0568 48.55C69.5468 48.86 68.9368 49.015 68.2268 49.015C67.3168 49.015 66.5018 48.86 65.7818 48.55C65.0718 48.24 64.6568 47.8 64.5368 47.23ZM78.9937 48.925C78.8137 48.925 78.6687 48.85 78.5587 48.7C78.4587 48.54 78.3687 48.3 78.2887 47.98C78.2087 47.65 78.0837 47.08 77.9137 46.27C77.7437 46.94 77.4237 47.475 76.9537 47.875C76.4837 48.265 75.9087 48.46 75.2287 48.46C74.6087 48.46 74.0837 48.245 73.6537 47.815C73.2337 47.375 72.9187 46.8 72.7087 46.09C72.4987 45.37 72.3937 44.595 72.3937 43.765C72.3937 43.385 72.4287 43.06 72.4987 42.79C72.5787 42.51 72.6737 42.3 72.7837 42.16C72.9037 42.02 73.0187 41.955 73.1287 41.965C73.2487 41.965 73.3087 42.045 73.3087 42.205C73.3087 42.335 73.2737 42.54 73.2037 42.82C73.1337 43.13 73.0987 43.485 73.0987 43.885C73.0987 44.485 73.1837 45.07 73.3537 45.64C73.5337 46.21 73.7937 46.68 74.1337 47.05C74.4837 47.41 74.8937 47.59 75.3637 47.59C75.7537 47.59 76.1087 47.475 76.4287 47.245C76.7487 47.015 76.9987 46.725 77.1787 46.375C77.3687 46.025 77.4637 45.68 77.4637 45.34V42.955C77.5737 42.745 77.7237 42.64 77.9137 42.64C78.0837 42.64 78.1987 42.785 78.2587 43.075C78.3187 43.365 78.3487 43.775 78.3487 44.305C78.3487 44.755 78.3437 45.1 78.3337 45.34C78.3937 45.67 78.4837 46.005 78.6037 46.345C78.7337 46.685 78.8937 47.07 79.0837 47.5C79.3137 48.03 79.4287 48.355 79.4287 48.475C79.4287 48.775 79.2837 48.925 78.9937 48.925ZM90.3687 49.015C90.2187 49.015 90.1287 48.975 90.0987 48.895C90.0687 48.805 90.0537 48.67 90.0537 48.49C90.0637 48.42 90.0687 48.34 90.0687 48.25C90.0687 48.15 90.0737 48.075 90.0837 48.025C90.1437 47.545 90.1737 47.09 90.1737 46.66C90.1737 45.71 90.0137 44.97 89.6937 44.44C89.3737 43.9 88.8687 43.63 88.1787 43.63C87.7987 43.63 87.4187 43.725 87.0387 43.915C86.6687 44.105 86.3637 44.34 86.1237 44.62C85.8937 44.9 85.7787 45.155 85.7787 45.385C85.8287 45.675 85.9187 46.03 86.0487 46.45C86.0587 46.5 86.0987 46.655 86.1687 46.915C86.2487 47.175 86.2887 47.41 86.2887 47.62L86.3037 47.905C86.3037 48.065 86.2237 48.145 86.0637 48.145C85.8637 48.145 85.6987 48.015 85.5687 47.755C85.4487 47.495 85.3137 47.09 85.1637 46.54C85.0137 46 84.8687 45.555 84.7287 45.205C84.5887 44.855 84.3987 44.555 84.1587 44.305C83.9187 44.055 83.6137 43.93 83.2437 43.93C82.7337 43.93 82.3337 44.105 82.0437 44.455C81.7637 44.805 81.6237 45.235 81.6237 45.745C81.6237 46.085 81.6537 46.535 81.7137 47.095C81.7637 47.515 81.7887 47.875 81.7887 48.175C81.7887 48.355 81.7687 48.49 81.7287 48.58C81.6887 48.67 81.5937 48.715 81.4437 48.715C81.2437 48.715 81.1037 48.65 81.0237 48.52C80.9437 48.38 80.9037 48.17 80.9037 47.89C80.9037 47.34 80.8737 46.675 80.8137 45.895C80.8037 45.795 80.7837 45.54 80.7537 45.13C80.7237 44.71 80.7187 44.29 80.7387 43.87L80.7537 43.375C80.8137 43.315 80.8837 43.285 80.9637 43.285C81.0737 43.285 81.1637 43.355 81.2337 43.495C81.3137 43.625 81.3537 43.825 81.3537 44.095C81.5037 43.835 81.7237 43.6 82.0137 43.39C82.3037 43.18 82.6087 43.075 82.9287 43.075C83.4787 43.075 83.9337 43.19 84.2937 43.42C84.6637 43.64 84.9987 44 85.2987 44.5C85.5787 43.99 85.9987 43.555 86.5587 43.195C87.1287 42.835 87.7137 42.655 88.3137 42.655C88.9337 42.655 89.4487 42.89 89.8587 43.36C90.2787 43.83 90.5837 44.395 90.7737 45.055C90.9737 45.715 91.0737 46.325 91.0737 46.885C91.0737 47.385 91.0287 47.865 90.9387 48.325C90.8587 48.785 90.6687 49.015 90.3687 49.015ZM98.5942 48.985C98.1242 48.985 97.7142 48.825 97.3642 48.505C97.0242 48.185 96.7642 47.77 96.5842 47.26C96.4142 46.75 96.3292 46.22 96.3292 45.67C96.3292 44.71 96.5292 43.9 96.9292 43.24C97.3392 42.58 97.9592 42.25 98.7892 42.25C99.2892 42.25 99.7242 42.34 100.094 42.52C100.474 42.69 100.969 42.98 101.579 43.39L101.969 43.66C101.919 43.33 101.844 42.95 101.744 42.52C101.644 42.09 101.579 41.795 101.549 41.635C101.379 40.855 101.254 40.275 101.174 39.895C101.104 39.505 101.069 39.16 101.069 38.86C101.069 38.33 101.219 38.065 101.519 38.065C101.629 38.305 101.759 38.82 101.909 39.61C102.059 40.39 102.249 41.46 102.479 42.82C102.719 44.26 102.929 45.435 103.109 46.345C103.289 47.255 103.439 47.825 103.559 48.055C103.559 48.285 103.389 48.4 103.049 48.4C102.789 48.4 102.609 48.25 102.509 47.95C102.419 47.65 102.364 47.125 102.344 46.375H102.224C101.804 47.135 101.259 47.76 100.589 48.25C99.9192 48.74 99.2542 48.985 98.5942 48.985ZM98.7892 48.25C99.1992 48.25 99.6392 48.08 100.109 47.74C100.589 47.39 100.994 46.97 101.324 46.48C101.654 45.98 101.819 45.53 101.819 45.13V44.68C100.789 43.6 99.8392 43.06 98.9692 43.06C98.3592 43.06 97.8892 43.285 97.5592 43.735C97.2292 44.175 97.0642 44.755 97.0642 45.475L97.0792 45.79C97.1392 46.55 97.3092 47.15 97.5892 47.59C97.8692 48.03 98.2692 48.25 98.7892 48.25ZM107.557 49.015C106.967 49.015 106.432 48.885 105.952 48.625C105.482 48.355 105.112 47.985 104.842 47.515C104.582 47.035 104.452 46.49 104.452 45.88C104.452 44.88 104.817 44.135 105.547 43.645C106.287 43.155 107.192 42.91 108.262 42.91C108.752 42.91 109.207 43.03 109.627 43.27C110.057 43.51 110.402 43.855 110.662 44.305C110.922 44.755 111.052 45.275 111.052 45.865C111.052 46.505 110.887 47.065 110.557 47.545C110.227 48.015 109.792 48.38 109.252 48.64C108.722 48.89 108.157 49.015 107.557 49.015ZM107.392 48.16C108.322 48.16 109.027 47.95 109.507 47.53C109.987 47.11 110.227 46.495 110.227 45.685C110.227 45.135 110.037 44.66 109.657 44.26C109.287 43.86 108.767 43.66 108.097 43.66C107.647 43.66 107.192 43.745 106.732 43.915C106.272 44.085 105.892 44.34 105.592 44.68C105.292 45.02 105.142 45.43 105.142 45.91C105.142 46.31 105.242 46.685 105.442 47.035C105.642 47.375 105.912 47.65 106.252 47.86C106.602 48.06 106.982 48.16 107.392 48.16ZM112.616 48.895C112.396 47.805 112.226 46.515 112.106 45.025C111.996 43.525 111.941 42.075 111.941 40.675C111.941 39.975 111.956 39.355 111.986 38.815C111.986 38.685 112.086 38.62 112.286 38.62C112.446 38.62 112.546 38.66 112.586 38.74C112.636 38.82 112.661 38.945 112.661 39.115C112.661 40.735 112.691 42.12 112.751 43.27C112.811 44.41 112.891 45.64 112.991 46.96C113.051 47.81 113.091 48.385 113.111 48.685C113.121 48.845 113.036 48.925 112.856 48.925C112.796 48.925 112.716 48.915 112.616 48.895ZM117.415 49.015C116.825 49.015 116.29 48.885 115.81 48.625C115.34 48.355 114.97 47.985 114.7 47.515C114.44 47.035 114.31 46.49 114.31 45.88C114.31 44.88 114.675 44.135 115.405 43.645C116.145 43.155 117.05 42.91 118.12 42.91C118.61 42.91 119.065 43.03 119.485 43.27C119.915 43.51 120.26 43.855 120.52 44.305C120.78 44.755 120.91 45.275 120.91 45.865C120.91 46.505 120.745 47.065 120.415 47.545C120.085 48.015 119.65 48.38 119.11 48.64C118.58 48.89 118.015 49.015 117.415 49.015ZM117.25 48.16C118.18 48.16 118.885 47.95 119.365 47.53C119.845 47.11 120.085 46.495 120.085 45.685C120.085 45.135 119.895 44.66 119.515 44.26C119.145 43.86 118.625 43.66 117.955 43.66C117.505 43.66 117.05 43.745 116.59 43.915C116.13 44.085 115.75 44.34 115.45 44.68C115.15 45.02 115 45.43 115 45.91C115 46.31 115.1 46.685 115.3 47.035C115.5 47.375 115.77 47.65 116.11 47.86C116.46 48.06 116.84 48.16 117.25 48.16ZM123.423 49C123.013 48.2 122.688 47.26 122.448 46.18C122.218 45.1 122.103 44.165 122.103 43.375C122.103 43.065 122.173 42.865 122.313 42.775C122.393 42.725 122.453 42.7 122.493 42.7C122.563 42.7 122.613 42.755 122.643 42.865C122.683 42.975 122.723 43.175 122.763 43.465L122.838 44.005C122.948 43.465 123.158 43.04 123.468 42.73C123.788 42.41 124.178 42.25 124.638 42.25C125.148 42.25 125.528 42.35 125.778 42.55C126.028 42.74 126.153 43.06 126.153 43.51C125.653 43.27 125.198 43.15 124.788 43.15C124.398 43.15 124.063 43.255 123.783 43.465C123.503 43.675 123.308 43.985 123.198 44.395C123.108 44.675 123.063 44.94 123.063 45.19C123.063 45.46 123.098 45.715 123.168 45.955C123.248 46.185 123.368 46.47 123.528 46.81C123.678 47.16 123.793 47.46 123.873 47.71C123.963 47.96 124.013 48.23 124.023 48.52C124.023 48.69 123.963 48.815 123.843 48.895C123.723 48.965 123.583 49 123.423 49ZM130.572 47.23C130.712 47.12 130.847 47.065 130.977 47.065C131.097 47.065 131.212 47.1 131.322 47.17C131.442 47.24 131.562 47.33 131.682 47.44C131.802 47.54 131.897 47.615 131.967 47.665C132.197 47.845 132.512 47.985 132.912 48.085C133.312 48.185 133.737 48.235 134.187 48.235C134.697 48.235 135.152 48.14 135.552 47.95C135.962 47.75 136.167 47.485 136.167 47.155C136.167 46.855 136.057 46.62 135.837 46.45C135.617 46.27 135.352 46.14 135.042 46.06C134.732 45.98 134.322 45.905 133.812 45.835C133.122 45.755 132.572 45.655 132.162 45.535C131.762 45.415 131.442 45.22 131.202 44.95C130.962 44.67 130.842 44.28 130.842 43.78C130.842 43.24 131.097 42.84 131.607 42.58C132.117 42.31 132.702 42.175 133.362 42.175C133.962 42.175 134.472 42.305 134.892 42.565C135.322 42.815 135.542 43.175 135.552 43.645C135.572 43.915 135.532 44.13 135.432 44.29C135.332 44.44 135.212 44.515 135.072 44.515C134.992 44.515 134.922 44.485 134.862 44.425C134.812 44.365 134.787 44.285 134.787 44.185C134.787 44.025 134.842 43.85 134.952 43.66C134.902 43.42 134.737 43.24 134.457 43.12C134.187 43 133.862 42.94 133.482 42.94C132.922 42.94 132.477 43.045 132.147 43.255C131.817 43.455 131.652 43.695 131.652 43.975C131.652 44.275 131.772 44.505 132.012 44.665C132.252 44.825 132.542 44.94 132.882 45.01C133.232 45.07 133.727 45.13 134.367 45.19C134.897 45.26 135.327 45.345 135.657 45.445C135.997 45.545 136.282 45.74 136.512 46.03C136.742 46.31 136.857 46.715 136.857 47.245C136.857 47.795 136.602 48.23 136.092 48.55C135.582 48.86 134.972 49.015 134.262 49.015C133.352 49.015 132.537 48.86 131.817 48.55C131.107 48.24 130.692 47.8 130.572 47.23ZM139.134 49.015C138.904 49.015 138.719 48.68 138.579 48.01C138.439 47.33 138.349 46.745 138.309 46.255C138.269 45.765 138.214 44.99 138.144 43.93C138.134 43.76 138.129 43.54 138.129 43.27C138.129 42.93 138.154 42.695 138.204 42.565C138.264 42.435 138.359 42.37 138.489 42.37C138.599 42.37 138.684 42.395 138.744 42.445C138.814 42.485 138.874 42.555 138.924 42.655L138.909 43.255C138.909 43.895 138.939 44.5 138.999 45.07C139.069 45.64 139.174 46.405 139.314 47.365C139.394 47.785 139.449 48.13 139.479 48.4C139.499 48.54 139.474 48.68 139.404 48.82C139.334 48.95 139.244 49.015 139.134 49.015ZM138.759 40.765C138.539 40.765 138.374 40.68 138.264 40.51C138.164 40.34 138.114 40.13 138.114 39.88C138.114 39.77 138.119 39.69 138.129 39.64C138.119 39.48 138.209 39.4 138.399 39.4C138.539 39.4 138.679 39.435 138.819 39.505C138.969 39.565 139.014 39.61 138.954 39.64C139.054 39.9 139.104 40.105 139.104 40.255C139.104 40.385 139.074 40.49 139.014 40.57C138.954 40.64 138.869 40.705 138.759 40.765ZM143.239 49C143.139 49.02 143.074 49.03 143.044 49.03C142.734 49.03 142.519 48.8 142.399 48.34C142.289 47.88 142.234 47.235 142.234 46.405C142.234 46.065 142.244 45.535 142.264 44.815C142.284 44.375 142.294 44.045 142.294 43.825C141.064 43.825 140.449 43.685 140.449 43.405C140.449 43.315 140.459 43.245 140.479 43.195C140.509 43.145 140.569 43.12 140.659 43.12L142.294 43.015C142.284 42.525 142.259 41.99 142.219 41.41C142.179 40.89 142.154 40.41 142.144 39.97C142.144 39.86 142.189 39.785 142.279 39.745C142.369 39.695 142.464 39.67 142.564 39.67C142.684 39.67 142.784 39.735 142.864 39.865C142.944 39.985 142.984 40.11 142.984 40.24L143.089 42.985L144.334 43.045C144.524 43.025 144.684 43.06 144.814 43.15C144.954 43.24 145.029 43.39 145.039 43.6C144.829 43.69 144.599 43.745 144.349 43.765C144.099 43.785 143.679 43.795 143.089 43.795C143.089 44.725 143.134 46.255 143.224 48.385C143.224 48.605 143.224 48.76 143.224 48.85C143.234 48.93 143.239 48.98 143.239 49ZM153.468 49C152.428 49 151.523 48.82 150.753 48.46C149.993 48.09 149.613 47.445 149.613 46.525C149.613 46.195 149.713 45.875 149.913 45.565C150.113 45.255 150.408 45.005 150.798 44.815C151.188 44.615 151.663 44.515 152.223 44.515C152.653 44.515 153.018 44.535 153.318 44.575C153.618 44.615 153.963 44.725 154.353 44.905C154.743 45.085 155.148 45.37 155.568 45.76C155.408 45.07 155.168 44.465 154.848 43.945C154.528 43.425 154.168 43.025 153.768 42.745C153.378 42.455 152.993 42.31 152.613 42.31C152.433 42.31 152.263 42.345 152.103 42.415C151.953 42.475 151.768 42.565 151.548 42.685C151.298 42.845 151.113 42.925 150.993 42.925C150.943 42.925 150.898 42.91 150.858 42.88C150.828 42.84 150.813 42.795 150.813 42.745C150.813 42.345 150.988 42.035 151.338 41.815C151.698 41.595 152.133 41.495 152.643 41.515C153.343 41.555 153.983 41.855 154.563 42.415C155.143 42.965 155.598 43.65 155.928 44.47C156.268 45.29 156.438 46.095 156.438 46.885C156.438 47.015 156.428 47.2 156.408 47.44L155.928 47.41C155.548 46.64 155.058 46.095 154.458 45.775C153.868 45.445 153.273 45.28 152.673 45.28C151.903 45.28 151.353 45.395 151.023 45.625C150.693 45.855 150.528 46.19 150.528 46.63C150.528 47.09 150.758 47.46 151.218 47.74C151.678 48.02 152.268 48.16 152.988 48.16C153.388 48.16 153.708 48.14 153.948 48.1C154.188 48.05 154.438 47.985 154.698 47.905C154.908 47.835 155.093 47.785 155.253 47.755C155.413 47.725 155.618 47.71 155.868 47.71C156.148 47.71 156.323 47.73 156.393 47.77C156.473 47.81 156.513 47.9 156.513 48.04C156.513 48.14 156.308 48.265 155.898 48.415C155.488 48.565 155.028 48.7 154.518 48.82C154.008 48.94 153.658 49 153.468 49ZM167.449 49.015C167.299 49.015 167.209 48.975 167.179 48.895C167.149 48.805 167.134 48.67 167.134 48.49C167.144 48.42 167.149 48.34 167.149 48.25C167.149 48.15 167.154 48.075 167.164 48.025C167.224 47.545 167.254 47.09 167.254 46.66C167.254 45.71 167.094 44.97 166.774 44.44C166.454 43.9 165.949 43.63 165.259 43.63C164.879 43.63 164.499 43.725 164.119 43.915C163.749 44.105 163.444 44.34 163.204 44.62C162.974 44.9 162.859 45.155 162.859 45.385C162.909 45.675 162.999 46.03 163.129 46.45C163.139 46.5 163.179 46.655 163.249 46.915C163.329 47.175 163.369 47.41 163.369 47.62L163.384 47.905C163.384 48.065 163.304 48.145 163.144 48.145C162.944 48.145 162.779 48.015 162.649 47.755C162.529 47.495 162.394 47.09 162.244 46.54C162.094 46 161.949 45.555 161.809 45.205C161.669 44.855 161.479 44.555 161.239 44.305C160.999 44.055 160.694 43.93 160.324 43.93C159.814 43.93 159.414 44.105 159.124 44.455C158.844 44.805 158.704 45.235 158.704 45.745C158.704 46.085 158.734 46.535 158.794 47.095C158.844 47.515 158.869 47.875 158.869 48.175C158.869 48.355 158.849 48.49 158.809 48.58C158.769 48.67 158.674 48.715 158.524 48.715C158.324 48.715 158.184 48.65 158.104 48.52C158.024 48.38 157.984 48.17 157.984 47.89C157.984 47.34 157.954 46.675 157.894 45.895C157.884 45.795 157.864 45.54 157.834 45.13C157.804 44.71 157.799 44.29 157.819 43.87L157.834 43.375C157.894 43.315 157.964 43.285 158.044 43.285C158.154 43.285 158.244 43.355 158.314 43.495C158.394 43.625 158.434 43.825 158.434 44.095C158.584 43.835 158.804 43.6 159.094 43.39C159.384 43.18 159.689 43.075 160.009 43.075C160.559 43.075 161.014 43.19 161.374 43.42C161.744 43.64 162.079 44 162.379 44.5C162.659 43.99 163.079 43.555 163.639 43.195C164.209 42.835 164.794 42.655 165.394 42.655C166.014 42.655 166.529 42.89 166.939 43.36C167.359 43.83 167.664 44.395 167.854 45.055C168.054 45.715 168.154 46.325 168.154 46.885C168.154 47.385 168.109 47.865 168.019 48.325C167.939 48.785 167.749 49.015 167.449 49.015ZM172.899 49C172.259 49 171.669 48.875 171.129 48.625C170.589 48.375 170.159 48.02 169.839 47.56C169.519 47.1 169.359 46.57 169.359 45.97C169.359 45.3 169.484 44.675 169.734 44.095C169.984 43.505 170.349 43.035 170.829 42.685C171.319 42.325 171.889 42.145 172.539 42.145C173.219 42.145 173.734 42.365 174.084 42.805C174.434 43.235 174.599 43.78 174.579 44.44C174.579 45.03 174.344 45.48 173.874 45.79C173.414 46.1 172.824 46.255 172.104 46.255C171.994 46.255 171.829 46.245 171.609 46.225C171.249 46.185 170.994 46.13 170.844 46.06C170.694 45.99 170.619 45.85 170.619 45.64C170.619 45.57 170.639 45.52 170.679 45.49C170.719 45.45 170.799 45.43 170.919 45.43C171.049 45.43 171.279 45.46 171.609 45.52C171.929 45.58 172.214 45.61 172.464 45.61C173.384 45.61 173.844 45.21 173.844 44.41C173.844 43.93 173.754 43.55 173.574 43.27C173.404 42.99 173.099 42.85 172.659 42.85C172.179 42.85 171.749 42.98 171.369 43.24C170.989 43.49 170.694 43.82 170.484 44.23C170.284 44.64 170.184 45.075 170.184 45.535C170.184 46.325 170.404 46.975 170.844 47.485C171.284 47.985 171.964 48.235 172.884 48.235C172.994 48.235 173.179 48.225 173.439 48.205C173.549 48.195 173.684 48.165 173.844 48.115C174.004 48.065 174.119 48.03 174.189 48.01C174.619 47.86 174.934 47.785 175.134 47.785C175.284 47.785 175.399 47.825 175.479 47.905C175.229 48.285 174.854 48.565 174.354 48.745C173.864 48.915 173.379 49 172.899 49ZM178.498 49C178.398 49.02 178.333 49.03 178.303 49.03C177.993 49.03 177.778 48.8 177.658 48.34C177.548 47.88 177.493 47.235 177.493 46.405C177.493 46.065 177.503 45.535 177.523 44.815C177.543 44.375 177.553 44.045 177.553 43.825C176.323 43.825 175.708 43.685 175.708 43.405C175.708 43.315 175.718 43.245 175.738 43.195C175.768 43.145 175.828 43.12 175.918 43.12L177.553 43.015C177.543 42.525 177.518 41.99 177.478 41.41C177.438 40.89 177.413 40.41 177.403 39.97C177.403 39.86 177.448 39.785 177.538 39.745C177.628 39.695 177.723 39.67 177.823 39.67C177.943 39.67 178.043 39.735 178.123 39.865C178.203 39.985 178.243 40.11 178.243 40.24L178.348 42.985L179.593 43.045C179.783 43.025 179.943 43.06 180.073 43.15C180.213 43.24 180.288 43.39 180.298 43.6C180.088 43.69 179.858 43.745 179.608 43.765C179.358 43.785 178.938 43.795 178.348 43.795C178.348 44.725 178.393 46.255 178.483 48.385C178.483 48.605 178.483 48.76 178.483 48.85C178.493 48.93 178.498 48.98 178.498 49ZM181.557 51.835C181.437 51.835 181.357 51.785 181.317 51.685C181.287 51.595 181.272 51.47 181.272 51.31C181.272 50.98 181.347 50.515 181.497 49.915C181.507 49.855 181.547 49.665 181.617 49.345C181.687 49.025 181.722 48.725 181.722 48.445L181.707 47.89C181.587 47.89 181.507 47.87 181.467 47.83C181.437 47.78 181.422 47.705 181.422 47.605C181.422 47.375 181.457 47.195 181.527 47.065C181.607 46.935 181.747 46.87 181.947 46.87C182.197 46.87 182.362 46.985 182.442 47.215C182.532 47.445 182.577 47.735 182.577 48.085L182.562 48.58C182.562 48.79 182.517 49.165 182.427 49.705C182.337 50.255 182.217 50.745 182.067 51.175C181.917 51.615 181.747 51.835 181.557 51.835ZM33.3764 71.015C32.2064 71.015 31.2964 70.75 30.6464 70.22C30.0064 69.68 29.6864 68.85 29.6864 67.73C29.6864 67.16 29.8264 66.62 30.1064 66.11C30.3964 65.59 30.7814 65.175 31.2614 64.865C31.7514 64.545 32.2764 64.385 32.8364 64.385C33.4064 64.385 33.8914 64.51 34.2914 64.76C34.6914 65 34.8914 65.35 34.8914 65.81C34.8914 66.13 34.8314 66.36 34.7114 66.5C34.6014 66.63 34.4764 66.695 34.3364 66.695C34.3364 66.215 34.2064 65.825 33.9464 65.525C33.6864 65.225 33.3164 65.075 32.8364 65.075C32.3564 65.075 31.9414 65.205 31.5914 65.465C31.2414 65.715 30.9714 66.05 30.7814 66.47C30.6014 66.88 30.5114 67.31 30.5114 67.76C30.5114 68.71 30.8314 69.355 31.4714 69.695C32.1214 70.035 32.9764 70.205 34.0364 70.205C34.3964 70.205 34.8664 70.185 35.4464 70.145C35.4664 70.145 35.5114 70.165 35.5814 70.205C35.6514 70.245 35.7064 70.27 35.7464 70.28V70.37C35.7464 70.66 35.4914 70.84 34.9814 70.91C34.4714 70.98 33.9364 71.015 33.3764 71.015ZM39.4565 71.015C38.8665 71.015 38.3315 70.885 37.8515 70.625C37.3815 70.355 37.0115 69.985 36.7415 69.515C36.4815 69.035 36.3515 68.49 36.3515 67.88C36.3515 66.88 36.7165 66.135 37.4465 65.645C38.1865 65.155 39.0915 64.91 40.1615 64.91C40.6515 64.91 41.1065 65.03 41.5265 65.27C41.9565 65.51 42.3015 65.855 42.5615 66.305C42.8215 66.755 42.9515 67.275 42.9515 67.865C42.9515 68.505 42.7865 69.065 42.4565 69.545C42.1265 70.015 41.6915 70.38 41.1515 70.64C40.6215 70.89 40.0565 71.015 39.4565 71.015ZM39.2915 70.16C40.2215 70.16 40.9265 69.95 41.4065 69.53C41.8865 69.11 42.1265 68.495 42.1265 67.685C42.1265 67.135 41.9365 66.66 41.5565 66.26C41.1865 65.86 40.6665 65.66 39.9965 65.66C39.5465 65.66 39.0915 65.745 38.6315 65.915C38.1715 66.085 37.7915 66.34 37.4915 66.68C37.1915 67.02 37.0415 67.43 37.0415 67.91C37.0415 68.31 37.1415 68.685 37.3415 69.035C37.5415 69.375 37.8115 69.65 38.1515 69.86C38.5015 70.06 38.8815 70.16 39.2915 70.16ZM45.5694 71.06C45.4294 71.1 45.3494 71.12 45.3294 71.12C45.2494 71.12 45.1644 71.08 45.0744 71C44.7444 70.51 44.5044 69.655 44.3544 68.435C44.2144 67.215 44.1444 66.165 44.1444 65.285C44.1444 65.145 44.2444 65.075 44.4444 65.075C44.7444 65.075 44.8944 65.24 44.8944 65.57C44.8944 65.66 44.8894 65.735 44.8794 65.795C44.9694 65.585 45.1394 65.37 45.3894 65.15C45.6394 64.93 45.9294 64.745 46.2594 64.595C46.5894 64.445 46.9244 64.37 47.2644 64.37C48.3344 64.37 49.1144 64.845 49.6044 65.795C50.0944 66.735 50.3394 67.905 50.3394 69.305C50.3394 69.785 50.2894 70.17 50.1894 70.46C50.0894 70.74 49.9544 70.88 49.7844 70.88C49.6044 70.88 49.5144 70.825 49.5144 70.715C49.5844 70.185 49.6194 69.665 49.6194 69.155C49.6194 67.865 49.3944 66.89 48.9444 66.23C48.4944 65.56 47.8994 65.225 47.1594 65.225C46.7994 65.225 46.4494 65.315 46.1094 65.495C45.7794 65.675 45.5094 65.925 45.2994 66.245C45.0994 66.565 44.9994 66.93 44.9994 67.34C44.9994 67.8 45.0244 68.2 45.0744 68.54C45.1244 68.88 45.2044 69.29 45.3144 69.77C45.4344 70.24 45.5194 70.67 45.5694 71.06ZM51.6169 69.23C51.7569 69.12 51.8919 69.065 52.0219 69.065C52.1419 69.065 52.2569 69.1 52.3669 69.17C52.4869 69.24 52.6069 69.33 52.7269 69.44C52.8469 69.54 52.9419 69.615 53.0119 69.665C53.2419 69.845 53.5569 69.985 53.9569 70.085C54.3569 70.185 54.7819 70.235 55.2319 70.235C55.7419 70.235 56.1969 70.14 56.5969 69.95C57.0069 69.75 57.2119 69.485 57.2119 69.155C57.2119 68.855 57.1019 68.62 56.8819 68.45C56.6619 68.27 56.3969 68.14 56.0869 68.06C55.7769 67.98 55.3669 67.905 54.8569 67.835C54.1669 67.755 53.6169 67.655 53.2069 67.535C52.8069 67.415 52.4869 67.22 52.2469 66.95C52.0069 66.67 51.8869 66.28 51.8869 65.78C51.8869 65.24 52.1419 64.84 52.6519 64.58C53.1619 64.31 53.7469 64.175 54.4069 64.175C55.0069 64.175 55.5169 64.305 55.9369 64.565C56.3669 64.815 56.5869 65.175 56.5969 65.645C56.6169 65.915 56.5769 66.13 56.4769 66.29C56.3769 66.44 56.2569 66.515 56.1169 66.515C56.0369 66.515 55.9669 66.485 55.9069 66.425C55.8569 66.365 55.8319 66.285 55.8319 66.185C55.8319 66.025 55.8869 65.85 55.9969 65.66C55.9469 65.42 55.7819 65.24 55.5019 65.12C55.2319 65 54.9069 64.94 54.5269 64.94C53.9669 64.94 53.5219 65.045 53.1919 65.255C52.8619 65.455 52.6969 65.695 52.6969 65.975C52.6969 66.275 52.8169 66.505 53.0569 66.665C53.2969 66.825 53.5869 66.94 53.9269 67.01C54.2769 67.07 54.7719 67.13 55.4119 67.19C55.9419 67.26 56.3719 67.345 56.7019 67.445C57.0419 67.545 57.3269 67.74 57.5569 68.03C57.7869 68.31 57.9019 68.715 57.9019 69.245C57.9019 69.795 57.6469 70.23 57.1369 70.55C56.6269 70.86 56.0169 71.015 55.3069 71.015C54.3969 71.015 53.5819 70.86 52.8619 70.55C52.1519 70.24 51.7369 69.8 51.6169 69.23ZM62.7137 71C62.0737 71 61.4837 70.875 60.9437 70.625C60.4037 70.375 59.9737 70.02 59.6537 69.56C59.3337 69.1 59.1737 68.57 59.1737 67.97C59.1737 67.3 59.2987 66.675 59.5487 66.095C59.7987 65.505 60.1637 65.035 60.6437 64.685C61.1337 64.325 61.7037 64.145 62.3537 64.145C63.0337 64.145 63.5487 64.365 63.8987 64.805C64.2487 65.235 64.4137 65.78 64.3937 66.44C64.3937 67.03 64.1587 67.48 63.6887 67.79C63.2287 68.1 62.6387 68.255 61.9187 68.255C61.8087 68.255 61.6437 68.245 61.4237 68.225C61.0637 68.185 60.8087 68.13 60.6587 68.06C60.5087 67.99 60.4337 67.85 60.4337 67.64C60.4337 67.57 60.4537 67.52 60.4937 67.49C60.5337 67.45 60.6137 67.43 60.7337 67.43C60.8637 67.43 61.0937 67.46 61.4237 67.52C61.7437 67.58 62.0287 67.61 62.2787 67.61C63.1987 67.61 63.6587 67.21 63.6587 66.41C63.6587 65.93 63.5687 65.55 63.3887 65.27C63.2187 64.99 62.9137 64.85 62.4737 64.85C61.9937 64.85 61.5637 64.98 61.1837 65.24C60.8037 65.49 60.5087 65.82 60.2987 66.23C60.0987 66.64 59.9987 67.075 59.9987 67.535C59.9987 68.325 60.2187 68.975 60.6587 69.485C61.0987 69.985 61.7787 70.235 62.6987 70.235C62.8087 70.235 62.9937 70.225 63.2537 70.205C63.3637 70.195 63.4987 70.165 63.6587 70.115C63.8187 70.065 63.9337 70.03 64.0037 70.01C64.4337 69.86 64.7487 69.785 64.9487 69.785C65.0987 69.785 65.2137 69.825 65.2937 69.905C65.0437 70.285 64.6687 70.565 64.1687 70.745C63.6787 70.915 63.1937 71 62.7137 71ZM69.5874 71.015C68.4174 71.015 67.5074 70.75 66.8574 70.22C66.2174 69.68 65.8974 68.85 65.8974 67.73C65.8974 67.16 66.0374 66.62 66.3174 66.11C66.6074 65.59 66.9924 65.175 67.4724 64.865C67.9624 64.545 68.4874 64.385 69.0474 64.385C69.6174 64.385 70.1024 64.51 70.5024 64.76C70.9024 65 71.1024 65.35 71.1024 65.81C71.1024 66.13 71.0424 66.36 70.9224 66.5C70.8124 66.63 70.6874 66.695 70.5474 66.695C70.5474 66.215 70.4174 65.825 70.1574 65.525C69.8974 65.225 69.5274 65.075 69.0474 65.075C68.5674 65.075 68.1524 65.205 67.8024 65.465C67.4524 65.715 67.1824 66.05 66.9924 66.47C66.8124 66.88 66.7224 67.31 66.7224 67.76C66.7224 68.71 67.0424 69.355 67.6824 69.695C68.3324 70.035 69.1874 70.205 70.2474 70.205C70.6074 70.205 71.0774 70.185 71.6574 70.145C71.6774 70.145 71.7224 70.165 71.7924 70.205C71.8624 70.245 71.9174 70.27 71.9574 70.28V70.37C71.9574 70.66 71.7024 70.84 71.1924 70.91C70.6824 70.98 70.1474 71.015 69.5874 71.015ZM74.9774 71C74.8774 71.02 74.8124 71.03 74.7824 71.03C74.4724 71.03 74.2574 70.8 74.1374 70.34C74.0274 69.88 73.9724 69.235 73.9724 68.405C73.9724 68.065 73.9824 67.535 74.0024 66.815C74.0224 66.375 74.0324 66.045 74.0324 65.825C72.8024 65.825 72.1874 65.685 72.1874 65.405C72.1874 65.315 72.1974 65.245 72.2174 65.195C72.2474 65.145 72.3074 65.12 72.3974 65.12L74.0324 65.015C74.0224 64.525 73.9974 63.99 73.9574 63.41C73.9174 62.89 73.8924 62.41 73.8824 61.97C73.8824 61.86 73.9274 61.785 74.0174 61.745C74.1074 61.695 74.2024 61.67 74.3024 61.67C74.4224 61.67 74.5224 61.735 74.6024 61.865C74.6824 61.985 74.7224 62.11 74.7224 62.24L74.8274 64.985L76.0724 65.045C76.2624 65.025 76.4224 65.06 76.5524 65.15C76.6924 65.24 76.7674 65.39 76.7774 65.6C76.5674 65.69 76.3374 65.745 76.0874 65.765C75.8374 65.785 75.4174 65.795 74.8274 65.795C74.8274 66.725 74.8724 68.255 74.9624 70.385C74.9624 70.605 74.9624 70.76 74.9624 70.85C74.9724 70.93 74.9774 70.98 74.9774 71ZM81.1415 71C80.5015 71 79.9115 70.875 79.3715 70.625C78.8315 70.375 78.4015 70.02 78.0815 69.56C77.7615 69.1 77.6015 68.57 77.6015 67.97C77.6015 67.3 77.7265 66.675 77.9765 66.095C78.2265 65.505 78.5915 65.035 79.0715 64.685C79.5615 64.325 80.1315 64.145 80.7815 64.145C81.4615 64.145 81.9765 64.365 82.3265 64.805C82.6765 65.235 82.8415 65.78 82.8215 66.44C82.8215 67.03 82.5865 67.48 82.1165 67.79C81.6565 68.1 81.0665 68.255 80.3465 68.255C80.2365 68.255 80.0715 68.245 79.8515 68.225C79.4915 68.185 79.2365 68.13 79.0865 68.06C78.9365 67.99 78.8615 67.85 78.8615 67.64C78.8615 67.57 78.8815 67.52 78.9215 67.49C78.9615 67.45 79.0415 67.43 79.1615 67.43C79.2915 67.43 79.5215 67.46 79.8515 67.52C80.1715 67.58 80.4565 67.61 80.7065 67.61C81.6265 67.61 82.0865 67.21 82.0865 66.41C82.0865 65.93 81.9965 65.55 81.8165 65.27C81.6465 64.99 81.3415 64.85 80.9015 64.85C80.4215 64.85 79.9915 64.98 79.6115 65.24C79.2315 65.49 78.9365 65.82 78.7265 66.23C78.5265 66.64 78.4265 67.075 78.4265 67.535C78.4265 68.325 78.6465 68.975 79.0865 69.485C79.5265 69.985 80.2065 70.235 81.1265 70.235C81.2365 70.235 81.4215 70.225 81.6815 70.205C81.7915 70.195 81.9265 70.165 82.0865 70.115C82.2465 70.065 82.3615 70.03 82.4315 70.01C82.8615 69.86 83.1765 69.785 83.3765 69.785C83.5265 69.785 83.6415 69.825 83.7215 69.905C83.4715 70.285 83.0965 70.565 82.5965 70.745C82.1065 70.915 81.6215 71 81.1415 71ZM86.7401 71C86.6401 71.02 86.5751 71.03 86.5451 71.03C86.2351 71.03 86.0201 70.8 85.9001 70.34C85.7901 69.88 85.7351 69.235 85.7351 68.405C85.7351 68.065 85.7451 67.535 85.7651 66.815C85.7851 66.375 85.7951 66.045 85.7951 65.825C84.5651 65.825 83.9501 65.685 83.9501 65.405C83.9501 65.315 83.9601 65.245 83.9801 65.195C84.0101 65.145 84.0701 65.12 84.1601 65.12L85.7951 65.015C85.7851 64.525 85.7601 63.99 85.7201 63.41C85.6801 62.89 85.6551 62.41 85.6451 61.97C85.6451 61.86 85.6901 61.785 85.7801 61.745C85.8701 61.695 85.9651 61.67 86.0651 61.67C86.1851 61.67 86.2851 61.735 86.3651 61.865C86.4451 61.985 86.4851 62.11 86.4851 62.24L86.5901 64.985L87.8351 65.045C88.0251 65.025 88.1851 65.06 88.3151 65.15C88.4551 65.24 88.5301 65.39 88.5401 65.6C88.3301 65.69 88.1001 65.745 87.8501 65.765C87.6001 65.785 87.1801 65.795 86.5901 65.795C86.5901 66.725 86.6351 68.255 86.7251 70.385C86.7251 70.605 86.7251 70.76 86.7251 70.85C86.7351 70.93 86.7401 70.98 86.7401 71ZM96.2642 70.925C96.0842 70.925 95.9392 70.85 95.8292 70.7C95.7292 70.54 95.6392 70.3 95.5592 69.98C95.4792 69.65 95.3542 69.08 95.1842 68.27C95.0142 68.94 94.6942 69.475 94.2242 69.875C93.7542 70.265 93.1792 70.46 92.4992 70.46C91.8792 70.46 91.3542 70.245 90.9242 69.815C90.5042 69.375 90.1892 68.8 89.9792 68.09C89.7692 67.37 89.6642 66.595 89.6642 65.765C89.6642 65.385 89.6992 65.06 89.7692 64.79C89.8492 64.51 89.9442 64.3 90.0542 64.16C90.1742 64.02 90.2892 63.955 90.3992 63.965C90.5192 63.965 90.5792 64.045 90.5792 64.205C90.5792 64.335 90.5442 64.54 90.4742 64.82C90.4042 65.13 90.3692 65.485 90.3692 65.885C90.3692 66.485 90.4542 67.07 90.6242 67.64C90.8042 68.21 91.0642 68.68 91.4042 69.05C91.7542 69.41 92.1642 69.59 92.6342 69.59C93.0242 69.59 93.3792 69.475 93.6992 69.245C94.0192 69.015 94.2692 68.725 94.4492 68.375C94.6392 68.025 94.7342 67.68 94.7342 67.34V64.955C94.8442 64.745 94.9942 64.64 95.1842 64.64C95.3542 64.64 95.4692 64.785 95.5292 65.075C95.5892 65.365 95.6192 65.775 95.6192 66.305C95.6192 66.755 95.6142 67.1 95.6042 67.34C95.6642 67.67 95.7542 68.005 95.8742 68.345C96.0042 68.685 96.1642 69.07 96.3542 69.5C96.5842 70.03 96.6992 70.355 96.6992 70.475C96.6992 70.775 96.5542 70.925 96.2642 70.925ZM99.2242 71C98.8142 70.2 98.4892 69.26 98.2492 68.18C98.0192 67.1 97.9042 66.165 97.9042 65.375C97.9042 65.065 97.9742 64.865 98.1142 64.775C98.1942 64.725 98.2542 64.7 98.2942 64.7C98.3642 64.7 98.4142 64.755 98.4442 64.865C98.4842 64.975 98.5242 65.175 98.5642 65.465L98.6392 66.005C98.7492 65.465 98.9592 65.04 99.2692 64.73C99.5892 64.41 99.9792 64.25 100.439 64.25C100.949 64.25 101.329 64.35 101.579 64.55C101.829 64.74 101.954 65.06 101.954 65.51C101.454 65.27 100.999 65.15 100.589 65.15C100.199 65.15 99.8642 65.255 99.5842 65.465C99.3042 65.675 99.1092 65.985 98.9992 66.395C98.9092 66.675 98.8642 66.94 98.8642 67.19C98.8642 67.46 98.8992 67.715 98.9692 67.955C99.0492 68.185 99.1692 68.47 99.3292 68.81C99.4792 69.16 99.5942 69.46 99.6742 69.71C99.7642 69.96 99.8142 70.23 99.8242 70.52C99.8242 70.69 99.7642 70.815 99.6442 70.895C99.5242 70.965 99.3842 71 99.2242 71ZM110.153 71C109.113 71 108.208 70.82 107.438 70.46C106.678 70.09 106.298 69.445 106.298 68.525C106.298 68.195 106.398 67.875 106.598 67.565C106.798 67.255 107.093 67.005 107.483 66.815C107.873 66.615 108.348 66.515 108.908 66.515C109.338 66.515 109.703 66.535 110.003 66.575C110.303 66.615 110.648 66.725 111.038 66.905C111.428 67.085 111.833 67.37 112.253 67.76C112.093 67.07 111.853 66.465 111.533 65.945C111.213 65.425 110.853 65.025 110.453 64.745C110.063 64.455 109.678 64.31 109.298 64.31C109.118 64.31 108.948 64.345 108.788 64.415C108.638 64.475 108.453 64.565 108.233 64.685C107.983 64.845 107.798 64.925 107.678 64.925C107.628 64.925 107.583 64.91 107.543 64.88C107.513 64.84 107.498 64.795 107.498 64.745C107.498 64.345 107.673 64.035 108.023 63.815C108.383 63.595 108.818 63.495 109.328 63.515C110.028 63.555 110.668 63.855 111.248 64.415C111.828 64.965 112.283 65.65 112.613 66.47C112.953 67.29 113.123 68.095 113.123 68.885C113.123 69.015 113.113 69.2 113.093 69.44L112.613 69.41C112.233 68.64 111.743 68.095 111.143 67.775C110.553 67.445 109.958 67.28 109.358 67.28C108.588 67.28 108.038 67.395 107.708 67.625C107.378 67.855 107.213 68.19 107.213 68.63C107.213 69.09 107.443 69.46 107.903 69.74C108.363 70.02 108.953 70.16 109.673 70.16C110.073 70.16 110.393 70.14 110.633 70.1C110.873 70.05 111.123 69.985 111.383 69.905C111.593 69.835 111.778 69.785 111.938 69.755C112.098 69.725 112.303 69.71 112.553 69.71C112.833 69.71 113.008 69.73 113.078 69.77C113.158 69.81 113.198 69.9 113.198 70.04C113.198 70.14 112.993 70.265 112.583 70.415C112.173 70.565 111.713 70.7 111.203 70.82C110.693 70.94 110.343 71 110.153 71ZM116.963 70.985C116.493 70.985 116.083 70.825 115.733 70.505C115.393 70.185 115.133 69.77 114.953 69.26C114.783 68.75 114.698 68.22 114.698 67.67C114.698 66.71 114.898 65.9 115.298 65.24C115.708 64.58 116.328 64.25 117.158 64.25C117.658 64.25 118.093 64.34 118.463 64.52C118.843 64.69 119.338 64.98 119.948 65.39L120.338 65.66C120.288 65.33 120.213 64.95 120.113 64.52C120.013 64.09 119.948 63.795 119.918 63.635C119.748 62.855 119.623 62.275 119.543 61.895C119.473 61.505 119.438 61.16 119.438 60.86C119.438 60.33 119.588 60.065 119.888 60.065C119.998 60.305 120.128 60.82 120.278 61.61C120.428 62.39 120.618 63.46 120.848 64.82C121.088 66.26 121.298 67.435 121.478 68.345C121.658 69.255 121.808 69.825 121.928 70.055C121.928 70.285 121.758 70.4 121.418 70.4C121.158 70.4 120.978 70.25 120.878 69.95C120.788 69.65 120.733 69.125 120.713 68.375H120.593C120.173 69.135 119.628 69.76 118.958 70.25C118.288 70.74 117.623 70.985 116.963 70.985ZM117.158 70.25C117.568 70.25 118.008 70.08 118.478 69.74C118.958 69.39 119.363 68.97 119.693 68.48C120.023 67.98 120.188 67.53 120.188 67.13V66.68C119.158 65.6 118.208 65.06 117.338 65.06C116.728 65.06 116.258 65.285 115.928 65.735C115.598 66.175 115.433 66.755 115.433 67.475L115.448 67.79C115.508 68.55 115.678 69.15 115.958 69.59C116.238 70.03 116.638 70.25 117.158 70.25ZM123.826 71.015C123.596 71.015 123.411 70.68 123.271 70.01C123.131 69.33 123.041 68.745 123.001 68.255C122.961 67.765 122.906 66.99 122.836 65.93C122.826 65.76 122.821 65.54 122.821 65.27C122.821 64.93 122.846 64.695 122.896 64.565C122.956 64.435 123.051 64.37 123.181 64.37C123.291 64.37 123.376 64.395 123.436 64.445C123.506 64.485 123.566 64.555 123.616 64.655L123.601 65.255C123.601 65.895 123.631 66.5 123.691 67.07C123.761 67.64 123.866 68.405 124.006 69.365C124.086 69.785 124.141 70.13 124.171 70.4C124.191 70.54 124.166 70.68 124.096 70.82C124.026 70.95 123.936 71.015 123.826 71.015ZM123.451 62.765C123.231 62.765 123.066 62.68 122.956 62.51C122.856 62.34 122.806 62.13 122.806 61.88C122.806 61.77 122.811 61.69 122.821 61.64C122.811 61.48 122.901 61.4 123.091 61.4C123.231 61.4 123.371 61.435 123.511 61.505C123.661 61.565 123.706 61.61 123.646 61.64C123.746 61.9 123.796 62.105 123.796 62.255C123.796 62.385 123.766 62.49 123.706 62.57C123.646 62.64 123.561 62.705 123.451 62.765ZM127.287 76.34C127.087 76.34 126.847 75.805 126.567 74.735C126.297 73.665 126.052 72.475 125.832 71.165C125.622 69.865 125.517 69.045 125.517 68.705C125.517 67.695 125.857 66.96 126.537 66.5C127.217 66.03 128.092 65.795 129.162 65.795C129.732 65.795 130.272 65.915 130.782 66.155C131.292 66.385 131.702 66.72 132.012 67.16C132.322 67.59 132.477 68.09 132.477 68.66C132.477 69.37 132.227 69.87 131.727 70.16C131.237 70.45 130.617 70.595 129.867 70.595C129.087 70.595 128.422 70.465 127.872 70.205C127.332 69.935 127.062 69.57 127.062 69.11L127.077 68.96C127.147 68.88 127.222 68.84 127.302 68.84C127.372 68.84 127.447 68.87 127.527 68.93C127.617 68.98 127.712 69.04 127.812 69.11C128.122 69.34 128.427 69.525 128.727 69.665C129.037 69.805 129.422 69.875 129.882 69.875C130.512 69.875 130.957 69.765 131.217 69.545C131.487 69.315 131.622 68.955 131.622 68.465C131.622 68.105 131.502 67.785 131.262 67.505C131.022 67.225 130.712 67.01 130.332 66.86C129.952 66.71 129.562 66.635 129.162 66.635C128.232 66.635 127.532 66.835 127.062 67.235C126.592 67.625 126.382 68.28 126.432 69.2C126.522 70.76 126.662 72.07 126.852 73.13C127.052 74.19 127.397 75.09 127.887 75.83L127.902 75.86C127.902 75.88 127.877 75.9 127.827 75.92C127.787 75.95 127.757 75.975 127.737 75.995C127.617 76.185 127.467 76.3 127.287 76.34ZM134.681 71.015C134.451 71.015 134.266 70.68 134.126 70.01C133.986 69.33 133.896 68.745 133.856 68.255C133.816 67.765 133.761 66.99 133.691 65.93C133.681 65.76 133.676 65.54 133.676 65.27C133.676 64.93 133.701 64.695 133.751 64.565C133.811 64.435 133.906 64.37 134.036 64.37C134.146 64.37 134.231 64.395 134.291 64.445C134.361 64.485 134.421 64.555 134.471 64.655L134.456 65.255C134.456 65.895 134.486 66.5 134.546 67.07C134.616 67.64 134.721 68.405 134.861 69.365C134.941 69.785 134.996 70.13 135.026 70.4C135.046 70.54 135.021 70.68 134.951 70.82C134.881 70.95 134.791 71.015 134.681 71.015ZM134.306 62.765C134.086 62.765 133.921 62.68 133.811 62.51C133.711 62.34 133.661 62.13 133.661 61.88C133.661 61.77 133.666 61.69 133.676 61.64C133.666 61.48 133.756 61.4 133.946 61.4C134.086 61.4 134.226 61.435 134.366 61.505C134.516 61.565 134.561 61.61 134.501 61.64C134.601 61.9 134.651 62.105 134.651 62.255C134.651 62.385 134.621 62.49 134.561 62.57C134.501 62.64 134.416 62.705 134.306 62.765ZM136.446 69.23C136.586 69.12 136.721 69.065 136.851 69.065C136.971 69.065 137.086 69.1 137.196 69.17C137.316 69.24 137.436 69.33 137.556 69.44C137.676 69.54 137.771 69.615 137.841 69.665C138.071 69.845 138.386 69.985 138.786 70.085C139.186 70.185 139.611 70.235 140.061 70.235C140.571 70.235 141.026 70.14 141.426 69.95C141.836 69.75 142.041 69.485 142.041 69.155C142.041 68.855 141.931 68.62 141.711 68.45C141.491 68.27 141.226 68.14 140.916 68.06C140.606 67.98 140.196 67.905 139.686 67.835C138.996 67.755 138.446 67.655 138.036 67.535C137.636 67.415 137.316 67.22 137.076 66.95C136.836 66.67 136.716 66.28 136.716 65.78C136.716 65.24 136.971 64.84 137.481 64.58C137.991 64.31 138.576 64.175 139.236 64.175C139.836 64.175 140.346 64.305 140.766 64.565C141.196 64.815 141.416 65.175 141.426 65.645C141.446 65.915 141.406 66.13 141.306 66.29C141.206 66.44 141.086 66.515 140.946 66.515C140.866 66.515 140.796 66.485 140.736 66.425C140.686 66.365 140.661 66.285 140.661 66.185C140.661 66.025 140.716 65.85 140.826 65.66C140.776 65.42 140.611 65.24 140.331 65.12C140.061 65 139.736 64.94 139.356 64.94C138.796 64.94 138.351 65.045 138.021 65.255C137.691 65.455 137.526 65.695 137.526 65.975C137.526 66.275 137.646 66.505 137.886 66.665C138.126 66.825 138.416 66.94 138.756 67.01C139.106 67.07 139.601 67.13 140.241 67.19C140.771 67.26 141.201 67.345 141.531 67.445C141.871 67.545 142.156 67.74 142.386 68.03C142.616 68.31 142.731 68.715 142.731 69.245C142.731 69.795 142.476 70.23 141.966 70.55C141.456 70.86 140.846 71.015 140.136 71.015C139.226 71.015 138.411 70.86 137.691 70.55C136.981 70.24 136.566 69.8 136.446 69.23ZM147.693 71.015C146.523 71.015 145.613 70.75 144.963 70.22C144.323 69.68 144.003 68.85 144.003 67.73C144.003 67.16 144.143 66.62 144.423 66.11C144.713 65.59 145.098 65.175 145.578 64.865C146.068 64.545 146.593 64.385 147.153 64.385C147.723 64.385 148.208 64.51 148.608 64.76C149.008 65 149.208 65.35 149.208 65.81C149.208 66.13 149.148 66.36 149.028 66.5C148.918 66.63 148.793 66.695 148.653 66.695C148.653 66.215 148.523 65.825 148.263 65.525C148.003 65.225 147.633 65.075 147.153 65.075C146.673 65.075 146.258 65.205 145.908 65.465C145.558 65.715 145.288 66.05 145.098 66.47C144.918 66.88 144.828 67.31 144.828 67.76C144.828 68.71 145.148 69.355 145.788 69.695C146.438 70.035 147.293 70.205 148.353 70.205C148.713 70.205 149.183 70.185 149.763 70.145C149.783 70.145 149.828 70.165 149.898 70.205C149.968 70.245 150.023 70.27 150.063 70.28V70.37C150.063 70.66 149.808 70.84 149.298 70.91C148.788 70.98 148.253 71.015 147.693 71.015ZM151.673 71.015C151.443 71.015 151.258 70.68 151.118 70.01C150.978 69.33 150.888 68.745 150.848 68.255C150.808 67.765 150.753 66.99 150.683 65.93C150.673 65.76 150.668 65.54 150.668 65.27C150.668 64.93 150.693 64.695 150.743 64.565C150.803 64.435 150.898 64.37 151.028 64.37C151.138 64.37 151.223 64.395 151.283 64.445C151.353 64.485 151.413 64.555 151.463 64.655L151.448 65.255C151.448 65.895 151.478 66.5 151.538 67.07C151.608 67.64 151.713 68.405 151.853 69.365C151.933 69.785 151.988 70.13 152.018 70.4C152.038 70.54 152.013 70.68 151.943 70.82C151.873 70.95 151.783 71.015 151.673 71.015ZM151.298 62.765C151.078 62.765 150.913 62.68 150.803 62.51C150.703 62.34 150.653 62.13 150.653 61.88C150.653 61.77 150.658 61.69 150.668 61.64C150.658 61.48 150.748 61.4 150.938 61.4C151.078 61.4 151.218 61.435 151.358 61.505C151.508 61.565 151.553 61.61 151.493 61.64C151.593 61.9 151.643 62.105 151.643 62.255C151.643 62.385 151.613 62.49 151.553 62.57C151.493 62.64 151.408 62.705 151.298 62.765ZM154.788 71.06C154.648 71.1 154.568 71.12 154.548 71.12C154.468 71.12 154.383 71.08 154.293 71C153.963 70.51 153.723 69.655 153.573 68.435C153.433 67.215 153.363 66.165 153.363 65.285C153.363 65.145 153.463 65.075 153.663 65.075C153.963 65.075 154.113 65.24 154.113 65.57C154.113 65.66 154.108 65.735 154.098 65.795C154.188 65.585 154.358 65.37 154.608 65.15C154.858 64.93 155.148 64.745 155.478 64.595C155.808 64.445 156.143 64.37 156.483 64.37C157.553 64.37 158.333 64.845 158.823 65.795C159.313 66.735 159.558 67.905 159.558 69.305C159.558 69.785 159.508 70.17 159.408 70.46C159.308 70.74 159.173 70.88 159.003 70.88C158.823 70.88 158.733 70.825 158.733 70.715C158.803 70.185 158.838 69.665 158.838 69.155C158.838 67.865 158.613 66.89 158.163 66.23C157.713 65.56 157.118 65.225 156.378 65.225C156.018 65.225 155.668 65.315 155.328 65.495C154.998 65.675 154.728 65.925 154.518 66.245C154.318 66.565 154.218 66.93 154.218 67.34C154.218 67.8 154.243 68.2 154.293 68.54C154.343 68.88 154.423 69.29 154.533 69.77C154.653 70.24 154.738 70.67 154.788 71.06ZM163.281 78.32C162.441 78.32 161.736 78.08 161.166 77.6C160.606 77.13 160.271 76.335 160.161 75.215C160.151 75.045 160.176 74.915 160.236 74.825C160.306 74.735 160.396 74.69 160.506 74.69C160.626 74.69 160.731 74.735 160.821 74.825C160.911 74.925 160.951 75.055 160.941 75.215C160.941 75.875 161.166 76.395 161.616 76.775C162.076 77.165 162.661 77.36 163.371 77.36C163.781 77.36 164.141 77.21 164.451 76.91C164.771 76.61 165.016 76.19 165.186 75.65C165.356 75.12 165.441 74.51 165.441 73.82C165.441 72.61 165.456 71.435 165.486 70.295L165.501 69.53C165.111 69.94 164.756 70.24 164.436 70.43C164.126 70.62 163.751 70.715 163.311 70.715C162.541 70.715 161.971 70.51 161.601 70.1C161.241 69.68 161.061 69.04 161.061 68.18C161.061 67.69 161.191 67.18 161.451 66.65C161.721 66.11 162.086 65.66 162.546 65.3C163.016 64.94 163.546 64.76 164.136 64.76C164.336 64.76 164.521 64.78 164.691 64.82C165.331 64.96 165.761 65.555 165.981 66.605C166.201 67.655 166.311 69.015 166.311 70.685C166.311 71.145 166.301 71.755 166.281 72.515L166.266 73.94C166.266 74.51 166.176 75.13 165.996 75.8C165.816 76.48 165.501 77.07 165.051 77.57C164.601 78.07 164.011 78.32 163.281 78.32ZM163.086 69.725C163.826 69.725 164.386 69.55 164.766 69.2C165.146 68.84 165.336 68.315 165.336 67.625C165.336 67.535 165.326 67.38 165.306 67.16C165.256 66.7 165.136 66.34 164.946 66.08C164.766 65.81 164.481 65.675 164.091 65.675C163.681 65.675 163.306 65.82 162.966 66.11C162.626 66.4 162.361 66.76 162.171 67.19C161.981 67.61 161.886 68.005 161.886 68.375C161.886 68.745 161.996 69.065 162.216 69.335C162.436 69.595 162.726 69.725 163.086 69.725Z" fill="#333333"/>
<path d="M73.62 20.64C73.3 20.6 73 20.58 72.72 20.58C72.46 20.56 72.28 20.55 72.18 20.55C72.1 20.53 72.06 20.49 72.06 20.43C71.92 19.79 71.82 19.23 71.76 18.75C71.7 18.25 71.66 17.79 71.64 17.37C71.62 16.77 71.57 16.18 71.49 15.6C71.43 15 71.29 14.21 71.07 13.23C69.95 13.41 69.2 13.5 68.82 13.5C68.42 13.5 68.12 13.43 67.92 13.29C67.72 13.13 67.62 12.88 67.62 12.54C67.62 12.34 67.73 12.24 67.95 12.24L68.85 12.15C68.99 12.13 69.63 12.05 70.77 11.91C70.73 11.33 70.65 10.14 70.53 8.34C70.47 6.9 70.38 5.75 70.26 4.89L66.51 5.22C66.23 5.4 66.01 5.49 65.85 5.49C65.61 5.31 65.46 5.08 65.4 4.8C65.88 4.28 67.03 3.85 68.85 3.51C70.69 3.17 72.68 3 74.82 3C77.5 3 79.8 3.29 81.72 3.87C83.64 4.43 84.68 5.3 84.84 6.48C84.22 6.48 83.62 6.41 83.04 6.27C82.46 6.13 81.73 5.92 80.85 5.64C79.73 5.26 78.7 4.97 77.76 4.77C76.84 4.57 75.8 4.47 74.64 4.47C73.9 4.47 73.09 4.53 72.21 4.65C72.21 6.51 72.26 8.86 72.36 11.7L73.41 11.61C76.61 11.35 78.48 11.22 79.02 11.22C79.28 11.22 79.46 11.24 79.56 11.28C79.66 11.3 79.74 11.34 79.8 11.4C79.82 12 79.25 12.43 78.09 12.69C76.93 12.93 75.09 13.1 72.57 13.2C72.67 14.18 72.86 15.46 73.14 17.04C73.4 18.52 73.56 19.72 73.62 20.64ZM88.6631 21.03C88.2031 21.03 87.8331 20.36 87.5531 19.02C87.2731 17.66 87.0931 16.49 87.0131 15.51C86.9331 14.53 86.8231 12.98 86.6831 10.86C86.6631 10.52 86.6531 10.08 86.6531 9.54C86.6531 8.86 86.7031 8.39 86.8031 8.13C86.9231 7.87 87.1131 7.74 87.3731 7.74C87.5931 7.74 87.7631 7.79 87.8831 7.89C88.0231 7.97 88.1431 8.11 88.2431 8.31L88.2131 9.51C88.2131 10.79 88.2731 12 88.3931 13.14C88.5331 14.28 88.7431 15.81 89.0231 17.73C89.1831 18.57 89.2931 19.26 89.3531 19.8C89.3931 20.08 89.3431 20.36 89.2031 20.64C89.0631 20.9 88.8831 21.03 88.6631 21.03ZM87.9131 4.53C87.4731 4.53 87.1431 4.36 86.9231 4.02C86.7231 3.68 86.6231 3.26 86.6231 2.76C86.6231 2.54 86.6331 2.38 86.6531 2.28C86.6331 1.96 86.8131 1.8 87.1931 1.8C87.4731 1.8 87.7531 1.87 88.0331 2.01C88.3331 2.13 88.4231 2.22 88.3031 2.28C88.5031 2.8 88.6031 3.21 88.6031 3.51C88.6031 3.77 88.5431 3.98 88.4231 4.14C88.3031 4.28 88.1331 4.41 87.9131 4.53ZM93.6938 20.79C93.2538 18.61 92.9138 16.03 92.6738 13.05C92.4538 10.05 92.3438 7.15 92.3438 4.35C92.3438 2.95 92.3738 1.71 92.4338 0.629999C92.4338 0.369999 92.6338 0.239999 93.0338 0.239999C93.3538 0.239999 93.5538 0.319999 93.6338 0.48C93.7338 0.639999 93.7838 0.889998 93.7838 1.23C93.7838 4.47 93.8438 7.24 93.9638 9.54C94.0838 11.82 94.2438 14.28 94.4438 16.92C94.5638 18.62 94.6438 19.77 94.6838 20.37C94.7038 20.69 94.5338 20.85 94.1738 20.85C94.0538 20.85 93.8938 20.83 93.6938 20.79ZM101.913 21C101.713 21.04 101.583 21.06 101.523 21.06C100.903 21.06 100.473 20.6 100.233 19.68C100.013 18.76 99.9028 17.47 99.9028 15.81C99.9028 15.13 99.9228 14.07 99.9628 12.63C100.003 11.75 100.023 11.09 100.023 10.65C97.5628 10.65 96.3328 10.37 96.3328 9.81C96.3328 9.63 96.3528 9.49 96.3928 9.39C96.4528 9.29 96.5728 9.24 96.7528 9.24L100.023 9.03C100.003 8.05 99.9528 6.98 99.8728 5.82C99.7928 4.78 99.7428 3.82 99.7228 2.94C99.7228 2.72 99.8128 2.57 99.9928 2.49C100.173 2.39 100.363 2.34 100.563 2.34C100.803 2.34 101.003 2.47 101.163 2.73C101.323 2.97 101.403 3.22 101.403 3.48L101.613 8.97L104.103 9.09C104.483 9.05 104.803 9.12 105.063 9.3C105.343 9.48 105.493 9.78 105.513 10.2C105.093 10.38 104.633 10.49 104.133 10.53C103.633 10.57 102.793 10.59 101.613 10.59C101.613 12.45 101.703 15.51 101.883 19.77C101.883 20.21 101.883 20.52 101.883 20.7C101.903 20.86 101.913 20.96 101.913 21ZM114.241 21C112.961 21 111.781 20.75 110.701 20.25C109.621 19.75 108.761 19.04 108.121 18.12C107.481 17.2 107.161 16.14 107.161 14.94C107.161 13.6 107.411 12.35 107.911 11.19C108.411 10.01 109.141 9.07 110.101 8.37C111.081 7.65 112.221 7.29 113.521 7.29C114.881 7.29 115.911 7.73 116.611 8.61C117.311 9.47 117.641 10.56 117.601 11.88C117.601 13.06 117.131 13.96 116.191 14.58C115.271 15.2 114.091 15.51 112.651 15.51C112.431 15.51 112.101 15.49 111.661 15.45C110.941 15.37 110.431 15.26 110.131 15.12C109.831 14.98 109.681 14.7 109.681 14.28C109.681 14.14 109.721 14.04 109.801 13.98C109.881 13.9 110.041 13.86 110.281 13.86C110.541 13.86 111.001 13.92 111.661 14.04C112.301 14.16 112.871 14.22 113.371 14.22C115.211 14.22 116.131 13.42 116.131 11.82C116.131 10.86 115.951 10.1 115.591 9.54C115.251 8.98 114.641 8.7 113.761 8.7C112.801 8.7 111.941 8.96 111.181 9.48C110.421 9.98 109.831 10.64 109.411 11.46C109.011 12.28 108.811 13.15 108.811 14.07C108.811 15.65 109.251 16.95 110.131 17.97C111.011 18.97 112.371 19.47 114.211 19.47C114.431 19.47 114.801 19.45 115.321 19.41C115.541 19.39 115.811 19.33 116.131 19.23C116.451 19.13 116.681 19.06 116.821 19.02C117.681 18.72 118.311 18.57 118.711 18.57C119.011 18.57 119.241 18.65 119.401 18.81C118.901 19.57 118.151 20.13 117.151 20.49C116.171 20.83 115.201 21 114.241 21ZM123.248 21C122.428 19.4 121.778 17.52 121.298 15.36C120.838 13.2 120.608 11.33 120.608 9.75C120.608 9.13 120.748 8.73 121.028 8.55C121.188 8.45 121.308 8.4 121.388 8.4C121.528 8.4 121.628 8.51 121.688 8.73C121.768 8.95 121.848 9.35 121.928 9.93L122.078 11.01C122.298 9.93 122.718 9.08 123.338 8.46C123.978 7.82 124.758 7.5 125.678 7.5C126.698 7.5 127.458 7.7 127.958 8.1C128.458 8.48 128.708 9.12 128.708 10.02C127.708 9.54 126.798 9.3 125.978 9.3C125.198 9.3 124.528 9.51 123.968 9.93C123.408 10.35 123.018 10.97 122.798 11.79C122.618 12.35 122.528 12.88 122.528 13.38C122.528 13.92 122.598 14.43 122.738 14.91C122.898 15.37 123.138 15.94 123.458 16.62C123.758 17.32 123.988 17.92 124.148 18.42C124.328 18.92 124.428 19.46 124.448 20.04C124.448 20.38 124.328 20.63 124.088 20.79C123.848 20.93 123.568 21 123.248 21Z" fill="black"/>
<g clip-path="url(#clip0)">
<path d="M53.2999 128.317H5.19995C2.50756 128.317 0.324951 130.444 0.324951 133.067V141.934C0.324951 144.557 2.50756 146.684 5.19995 146.684H53.2999C55.9923 146.684 58.1749 144.557 58.1749 141.934V133.067C58.1749 130.444 55.9923 128.317 53.2999 128.317Z" fill="#35644A"/>
<path d="M21.3279 134.354H23.8031C24.8405 134.354 25.6413 134.634 26.2055 135.196C26.7697 135.763 27.0518 136.535 27.0518 137.51C27.0518 138.485 26.7697 139.254 26.2055 139.815C25.6413 140.383 24.8405 140.667 23.8031 140.667H21.3279V134.354ZM22.5564 139.638H23.7849C24.4219 139.638 24.9133 139.458 25.2591 139.097C25.6049 138.731 25.7778 138.202 25.7778 137.51C25.7778 136.818 25.6049 136.292 25.2591 135.932C24.9133 135.565 24.4219 135.382 23.7849 135.382H22.5564V139.638ZM31.9294 140.667H30.7828C30.7282 140.572 30.6858 140.386 30.6554 140.108C30.34 140.551 29.8364 140.773 29.1448 140.773C28.6292 140.773 28.2166 140.652 27.9072 140.409C27.6039 140.167 27.4522 139.83 27.4522 139.399C27.4522 138.565 28.0528 138.089 29.254 137.971L29.9638 137.909C30.2004 137.879 30.3703 137.826 30.4734 137.749C30.5766 137.667 30.6281 137.546 30.6281 137.386C30.6281 137.191 30.5614 137.049 30.4279 136.96C30.3005 136.866 30.0821 136.818 29.7727 136.818C29.4391 136.818 29.1994 136.875 29.0538 136.987C28.9082 137.093 28.8233 137.28 28.799 137.546H27.6706C27.7374 136.505 28.4411 135.985 29.7818 135.985C31.0862 135.985 31.7383 136.443 31.7383 137.359V139.798C31.7383 140.2 31.802 140.489 31.9294 140.667ZM29.4178 139.975C29.7758 139.975 30.067 139.88 30.2914 139.691C30.5159 139.496 30.6281 139.218 30.6281 138.858V138.441C30.5189 138.536 30.34 138.598 30.0912 138.627L29.4724 138.698C29.1691 138.734 28.9507 138.805 28.8172 138.911C28.6898 139.011 28.6261 139.159 28.6261 139.354C28.6261 139.549 28.6929 139.703 28.8263 139.815C28.9659 139.922 29.163 139.975 29.4178 139.975ZM35.066 137.244L35.4482 136.091H36.6494L34.8385 141.039C34.6443 141.559 34.4017 141.917 34.1105 142.112C33.8132 142.313 33.3825 142.413 32.8183 142.413C32.6302 142.413 32.4634 142.404 32.3178 142.387V141.509H32.7546C33.0033 141.509 33.1944 141.441 33.3279 141.305C33.4613 141.169 33.5281 140.992 33.5281 140.773C33.5281 140.554 33.4553 140.247 33.3097 139.851L31.9447 136.091H33.1823L33.5645 137.235C33.8314 138.051 34.0801 138.902 34.3107 139.789C34.4927 139.121 34.7444 138.273 35.066 137.244Z" fill="white"/>
<path d="M53.2999 128.317H5.19995C2.50756 128.317 0.324951 130.444 0.324951 133.067V141.934C0.324951 144.557 2.50756 146.684 5.19995 146.684H53.2999C55.9923 146.684 58.1749 144.557 58.1749 141.934V133.067C58.1749 130.444 55.9923 128.317 53.2999 128.317Z" stroke="#F9FE17"/>
<path d="M121.55 128H73.45C70.5781 128 68.25 130.268 68.25 133.067V141.933C68.25 144.732 70.5781 147 73.45 147H121.55C124.422 147 126.75 144.732 126.75 141.933V133.067C126.75 130.268 124.422 128 121.55 128Z" fill="white"/>
<path d="M92.0387 136.898L92.7212 134.354H93.9952L92.2025 140.667H90.8193L90.1277 138.042C89.8423 136.889 89.6668 136.145 89.5999 135.808C89.4302 136.594 89.2541 137.339 89.0721 138.042L88.3805 140.667H87.0064L85.2046 134.354H86.4877L87.1611 136.898C87.4763 138.128 87.6739 138.929 87.7526 139.301C87.9469 138.414 88.1315 137.611 88.3077 136.889L88.972 134.354H90.2369L90.9012 136.889C91.0708 137.563 91.2528 138.37 91.4472 139.31C91.5746 138.76 91.7715 137.956 92.0387 136.898ZM98.3905 138.459V138.725H94.8779C94.9201 139.115 95.0449 139.41 95.251 139.611C95.4635 139.807 95.7456 139.904 96.0973 139.904C96.6192 139.904 96.9767 139.685 97.1711 139.248H98.2722C98.1506 139.715 97.8958 140.087 97.5078 140.365C97.1197 140.637 96.6465 140.773 96.0882 140.773C95.3907 140.773 94.8265 140.554 94.3956 140.117C93.9646 139.679 93.7495 139.1 93.7495 138.379C93.7495 137.658 93.962 137.079 94.3865 136.641C94.8174 136.204 95.3784 135.985 96.07 135.985C96.7798 135.985 97.344 136.213 97.7626 136.668C98.1812 137.123 98.3905 137.72 98.3905 138.459ZM96.0609 136.854C95.3875 136.854 94.9962 137.217 94.887 137.945H97.2439C97.1951 137.608 97.0677 137.342 96.8617 137.147C96.6556 136.951 96.3885 136.854 96.0609 136.854ZM103.563 138.459V138.725H100.05C100.092 139.115 100.217 139.41 100.423 139.611C100.636 139.807 100.918 139.904 101.269 139.904C101.791 139.904 102.149 139.685 102.343 139.248H103.444C103.323 139.715 103.068 140.087 102.68 140.365C102.292 140.637 101.819 140.773 101.26 140.773C100.563 140.773 99.9986 140.554 99.5676 140.117C99.1367 139.679 98.9215 139.1 98.9215 138.379C98.9215 137.658 99.1341 137.079 99.5585 136.641C99.9895 136.204 100.55 135.985 101.242 135.985C101.952 135.985 102.516 136.213 102.935 136.668C103.353 137.123 103.563 137.72 103.563 138.459ZM101.233 136.854C100.56 136.854 100.168 137.217 100.059 137.945H102.416C102.367 137.608 102.24 137.342 102.034 137.147C101.828 136.951 101.561 136.854 101.233 136.854ZM108.816 140.667H107.506L106.141 138.539L105.431 139.23V140.667H104.303V134.354H105.431V137.989L107.342 136.091H108.707L106.933 137.82L108.816 140.667Z" fill="#35644A" fill-opacity="0.3"/>
<path d="M121.55 128.317H73.45C70.7576 128.317 68.575 130.444 68.575 133.067V141.934C68.575 144.557 70.7576 146.684 73.45 146.684H121.55C124.242 146.684 126.425 144.557 126.425 141.934V133.067C126.425 130.444 124.242 128.317 121.55 128.317Z" stroke="#35644A" stroke-opacity="0.3"/>
<path d="M189.8 128H141.7C138.828 128 136.5 130.268 136.5 133.067V141.933C136.5 144.732 138.828 147 141.7 147H189.8C192.672 147 195 144.732 195 141.933V133.067C195 130.268 192.672 128 189.8 128Z" fill="white"/>
<path d="M156.659 137.359L157.742 134.354H159.526V140.667H158.352V138.743C158.352 137.56 158.364 136.517 158.388 135.613C158.255 136.056 158.091 136.541 157.897 137.067L156.586 140.667H155.576L154.257 137.067C154.026 136.411 153.866 135.932 153.775 135.63C153.799 136.529 153.811 137.566 153.811 138.743V140.667H152.628V134.354H154.412L155.531 137.421C155.604 137.628 155.789 138.199 156.086 139.133C156.28 138.477 156.471 137.885 156.659 137.359ZM165.077 138.379C165.077 139.1 164.859 139.679 164.422 140.117C163.985 140.554 163.409 140.773 162.693 140.773C161.977 140.773 161.401 140.554 160.964 140.117C160.521 139.685 160.3 139.106 160.3 138.379C160.3 137.652 160.521 137.073 160.964 136.641C161.401 136.204 161.977 135.985 162.693 135.985C163.409 135.985 163.985 136.201 164.422 136.632C164.859 137.064 165.077 137.646 165.077 138.379ZM161.792 139.47C162.011 139.724 162.311 139.851 162.693 139.851C163.075 139.851 163.372 139.724 163.585 139.47C163.803 139.209 163.913 138.846 163.913 138.379C163.913 137.912 163.803 137.551 163.585 137.297C163.372 137.037 163.075 136.907 162.693 136.907C162.311 136.907 162.011 137.034 161.792 137.288C161.58 137.543 161.474 137.906 161.474 138.379C161.474 138.852 161.58 139.215 161.792 139.47ZM168.372 135.985C168.881 135.985 169.282 136.13 169.573 136.419C169.87 136.703 170.019 137.108 170.019 137.634V140.667H168.872V137.82C168.872 137.241 168.578 136.951 167.989 136.951C167.698 136.951 167.45 137.055 167.243 137.262C167.043 137.463 166.943 137.744 166.943 138.104V140.667H165.796V136.091H166.906V136.748C167.265 136.239 167.753 135.985 168.372 135.985ZM173.239 136.091V136.943H172.311V139.416C172.311 139.564 172.35 139.668 172.429 139.727C172.514 139.786 172.653 139.815 172.847 139.815H173.239V140.667C172.99 140.69 172.79 140.702 172.638 140.702C172.129 140.702 171.755 140.61 171.519 140.427C171.288 140.238 171.173 139.94 171.173 139.532V136.943H170.445V136.091H171.173V134.761H172.311V136.091H173.239ZM176.486 135.985C176.995 135.985 177.396 136.13 177.687 136.419C177.984 136.703 178.133 137.108 178.133 137.634V140.667H176.986V137.82C176.986 137.241 176.692 136.951 176.103 136.951C175.812 136.951 175.563 137.055 175.357 137.262C175.157 137.463 175.057 137.744 175.057 138.104V140.667H173.91V134.354H175.057V136.703C175.415 136.224 175.891 135.985 176.486 135.985Z" fill="#35644A" fill-opacity="0.3"/>
<path d="M189.8 128.317H141.7C139.008 128.317 136.825 130.444 136.825 133.067V141.934C136.825 144.557 139.008 146.684 141.7 146.684H189.8C192.492 146.684 194.675 144.557 194.675 141.934V133.067C194.675 130.444 192.492 128.317 189.8 128.317Z" stroke="#35644A" stroke-opacity="0.3"/>
</g>
<circle cx="36.1018" cy="124.016" r="8" fill="#F9FE17"/>
<path d="M36.1886 124.715C36.3187 124.761 36.4616 124.693 36.5077 124.563L37.2591 122.442C37.3052 122.312 37.237 122.169 37.1069 122.123C36.9768 122.077 36.8339 122.145 36.7878 122.275L36.1199 124.16L34.2347 123.493C34.1046 123.446 33.9617 123.515 33.9156 123.645C33.8695 123.775 33.9376 123.918 34.0677 123.964L36.1886 124.715ZM30.7684 75.9059C27.0236 85.1429 24.9783 90.3287 25.5734 96.7113C26.1668 103.076 29.384 110.614 36.0464 124.587L36.4977 124.372C29.8234 110.374 26.6546 102.922 26.0712 96.6649C25.4895 90.4255 27.4764 85.3569 31.2317 76.0938L30.7684 75.9059Z" fill="black"/>
<defs>
<clipPath id="clip0">
<rect width="195" height="19" fill="white" transform="translate(0 128)"/>
</clipPath>
</defs>
</svg>
