<svg width="28" height="65" viewBox="0 0 28 65" fill="none" xmlns="http://www.w3.org/2000/svg">
<path d="M26.7043 31.8944L26.4543 31.8944L26.7043 31.8944ZM12.5099 1.07725C12.3719 1.07382 12.2572 1.18295 12.2538 1.32098L12.1981 3.57028C12.1946 3.70831 12.3038 3.82298 12.4418 3.8264C12.5798 3.82983 12.6945 3.72071 12.6979 3.58267L12.7475 1.58329L14.7469 1.63286C14.8849 1.63628 14.9995 1.52716 15.003 1.38913C15.0064 1.2511 14.8973 1.13643 14.7592 1.13301L12.5099 1.07725ZM0.46938 64.1465C0.603096 64.3577 0.603102 64.3577 0.603109 64.3577C0.603112 64.3577 0.60312 64.3577 0.603128 64.3577C0.603143 64.3577 0.603162 64.3577 0.603186 64.3577C0.603233 64.3576 0.603298 64.3576 0.60338 64.3575C0.603545 64.3574 0.60378 64.3573 0.604084 64.3571C0.604693 64.3567 0.605581 64.3562 0.606746 64.3554C0.609076 64.3539 0.612515 64.3517 0.617048 64.3489C0.626114 64.3431 0.639556 64.3345 0.657257 64.3232C0.692659 64.3005 0.745096 64.2667 0.813627 64.2222C0.950689 64.1332 1.15214 64.0011 1.41044 63.8286L1.13274 63.4128C0.876297 63.5841 0.676639 63.715 0.541282 63.8029C0.473605 63.8468 0.422004 63.88 0.38742 63.9022C0.370129 63.9133 0.357091 63.9216 0.348426 63.9271C0.344093 63.9299 0.340853 63.932 0.338721 63.9333C0.337655 63.934 0.336866 63.9345 0.336356 63.9348C0.336101 63.935 0.335915 63.9351 0.3358 63.9352C0.335742 63.9352 0.335702 63.9352 0.335679 63.9352C0.335667 63.9353 0.33566 63.9353 0.335658 63.9353C0.335656 63.9353 0.335658 63.9353 0.335657 63.9353C0.335659 63.9353 0.335663 63.9353 0.46938 64.1465ZM3.03868 62.7122C3.51376 62.3787 4.04642 61.9984 4.62574 61.5751L4.33072 61.1714C3.75413 61.5928 3.22407 61.9712 2.75142 62.3029L3.03868 62.7122ZM6.18964 60.4102C6.68772 60.0322 7.20777 59.6306 7.74488 59.2072L7.43535 58.8146C6.90076 59.236 6.38313 59.6356 5.88735 60.0119L6.18964 60.4102ZM9.26645 57.9848C9.75858 57.5817 10.2603 57.1632 10.7683 56.7303L10.444 56.3497C9.93856 56.7804 9.43938 57.1969 8.94965 57.5979L9.26645 57.9848ZM12.2469 55.4438C12.7286 55.0156 13.2132 54.5758 13.6979 54.1253L13.3576 53.7591C12.8757 54.2069 12.3939 54.6442 11.9147 55.07L12.2469 55.4438ZM15.1161 52.7755C15.5805 52.3225 16.0427 51.8604 16.5003 51.3899L16.1419 51.0413C15.6875 51.5085 15.2284 51.9675 14.767 52.4175L15.1161 52.7755ZM17.8466 49.9655C18.2882 49.4841 18.7232 48.9952 19.1492 48.4996L18.77 48.1737C18.3477 48.665 17.9164 49.1499 17.4781 49.6275L17.8466 49.9655ZM20.4011 46.989C20.8109 46.4754 21.2093 45.9555 21.5938 45.4303L21.1903 45.1349C20.8102 45.6542 20.416 46.1686 20.0103 46.6772L20.4011 46.989ZM22.7164 43.8196C23.081 43.2683 23.4284 42.712 23.7561 42.1516L23.3245 41.8992C23.0017 42.4511 22.6592 42.9996 22.2993 43.5438L22.7164 43.8196ZM24.6965 40.4202C24.9945 39.8253 25.2679 39.2268 25.5137 38.6255L25.0509 38.4363C24.8102 39.025 24.5422 39.6119 24.2495 40.1962L24.6965 40.4202ZM26.1796 36.768C26.3752 36.1311 26.5368 35.4921 26.661 34.8522L26.1701 34.757C26.0496 35.3783 25.8924 36.0001 25.7016 36.6213L26.1796 36.768ZM26.9203 32.8857C26.9428 32.5551 26.9543 32.2246 26.9543 31.8944L26.4543 31.8944C26.4543 32.213 26.4432 32.5322 26.4215 32.8518L26.9203 32.8857ZM26.9543 31.8944C26.9543 31.5724 26.9483 31.2506 26.9366 30.9294L26.437 30.9476C26.4484 31.2629 26.4543 31.5785 26.4543 31.8944L26.9543 31.8944ZM26.7997 29.0063C26.7324 28.3667 26.6441 27.7301 26.5367 27.0973L26.0437 27.1809C26.1494 27.8038 26.2363 28.43 26.3025 29.0587L26.7997 29.0063ZM26.1589 25.2089C26.015 24.5826 25.8538 23.9612 25.6775 23.3457L25.1969 23.4834C25.3708 24.0908 25.5297 24.7036 25.6716 25.3209L26.1589 25.2089ZM25.1026 21.5098C24.8956 20.9004 24.6751 20.2979 24.4433 19.7034L23.9774 19.885C24.2067 20.473 24.4246 21.0685 24.6291 21.6706L25.1026 21.5098ZM23.7085 17.9286C23.4495 17.337 23.1807 16.7548 22.9043 16.1831L22.4542 16.4008C22.728 16.9671 22.9941 17.5435 23.2505 18.1291L23.7085 17.9286ZM22.0377 14.4687C21.7353 13.8954 21.4271 13.3347 21.1154 12.7878L20.681 13.0354C20.9901 13.5777 21.2957 14.1337 21.5954 14.702L22.0377 14.4687ZM20.1376 11.1321C19.7967 10.5743 19.4547 10.0341 19.115 9.513L18.6961 9.78608C19.0334 10.3033 19.3727 10.8395 19.711 11.3929L20.1376 11.1321ZM18.0423 7.91733C17.6619 7.36819 17.2887 6.84635 16.9275 6.35415L16.5244 6.64999C16.8831 7.13871 17.2536 7.65684 17.6313 8.20204L18.0423 7.91733ZM15.771 4.82268C15.3382 4.2657 14.9352 3.76455 14.5726 3.32458L14.1867 3.64258C14.5465 4.07908 14.9465 4.57648 15.3761 5.12944L15.771 4.82268ZM13.3303 1.86621C13.126 1.63505 12.9652 1.45771 12.8551 1.33791C12.8001 1.27801 12.7577 1.23249 12.7291 1.20183C12.7147 1.18649 12.7038 1.17487 12.6964 1.16702C12.6927 1.16309 12.6898 1.16011 12.6879 1.15807C12.687 1.15706 12.6862 1.15628 12.6857 1.15574C12.6854 1.15547 12.6852 1.15526 12.6851 1.1551C12.685 1.15503 12.685 1.15497 12.6849 1.15492C12.6849 1.1549 12.6849 1.15488 12.6849 1.15486C12.6849 1.15486 12.6849 1.15485 12.6849 1.15484C12.6848 1.15484 12.6848 1.15483 12.5037 1.32717C12.3226 1.49951 12.3226 1.49951 12.3226 1.4995L12.3226 1.4995C12.3226 1.4995 12.3226 1.4995 12.3226 1.49951C12.3226 1.49952 12.3227 1.49955 12.3227 1.4996C12.3228 1.49969 12.3229 1.49983 12.3231 1.50004C12.3235 1.50045 12.3241 1.5011 12.325 1.50199C12.3267 1.50377 12.3293 1.50649 12.3327 1.51016C12.3396 1.51749 12.3501 1.52859 12.3639 1.54339C12.3916 1.57299 12.4329 1.61741 12.4869 1.67617C12.5949 1.79372 12.7536 1.96866 12.9556 2.19727L13.3303 1.86621ZM26.7043 31.8944L26.2043 31.8944L26.7043 31.8944ZM12.5161 0.827324C12.2401 0.820482 12.0107 1.03872 12.0039 1.31478L11.8924 5.8134C11.8855 6.08946 12.1038 6.31879 12.3798 6.32563C12.6559 6.33248 12.8852 6.11424 12.8921 5.83818L12.9912 1.83941L16.99 1.93855C17.266 1.94539 17.4954 1.72715 17.5022 1.45109C17.509 1.17503 17.2908 0.945697 17.0147 0.938854L12.5161 0.827324ZM0.46938 64.1465C0.736813 64.569 0.736823 64.569 0.736835 64.5689C0.73684 64.5689 0.736852 64.5689 0.736863 64.5689C0.736884 64.5689 0.736909 64.5689 0.736939 64.5689C0.736999 64.5688 0.737076 64.5688 0.73717 64.5687C0.73736 64.5686 0.737619 64.5684 0.737948 64.5682C0.738606 64.5678 0.739544 64.5672 0.740758 64.5665C0.743188 64.5649 0.746726 64.5627 0.751359 64.5597C0.760625 64.5538 0.77427 64.5451 0.792175 64.5336C0.827986 64.5107 0.880841 64.4766 0.949799 64.4319C1.08771 64.3423 1.29005 64.2097 1.54929 64.0365L0.993888 63.2049C0.738378 63.3756 0.539614 63.5059 0.40511 63.5932C0.337859 63.6369 0.286677 63.6698 0.252502 63.6917C0.235415 63.7027 0.22258 63.7109 0.214115 63.7163C0.209882 63.719 0.206742 63.721 0.204709 63.7223C0.203692 63.7229 0.202953 63.7234 0.202492 63.7237C0.202261 63.7238 0.2021 63.7239 0.202009 63.724C0.201964 63.724 0.201936 63.724 0.201925 63.724C0.20192 63.724 0.201919 63.724 0.201923 63.724C0.201925 63.724 0.20193 63.724 0.201931 63.724C0.201938 63.724 0.201946 63.724 0.46938 64.1465ZM3.18231 62.9168C3.65861 62.5825 4.19257 62.2013 4.77325 61.7769L4.18322 60.9696C3.60799 61.3899 3.07922 61.7674 2.60779 62.0983L3.18231 62.9168ZM6.34079 60.6093C6.84002 60.2304 7.36127 59.828 7.89964 59.4036L7.28058 58.6182C6.74725 59.0386 6.23083 59.4374 5.7362 59.8128L6.34079 60.6093ZM9.42485 58.1782C9.91818 57.7742 10.4211 57.3546 10.9304 56.9206L10.2818 56.1594C9.77771 56.589 9.27978 57.0044 8.79124 57.4045L9.42485 58.1782ZM12.4129 55.6306C12.896 55.2013 13.382 54.7603 13.8681 54.3084L13.1874 53.5759C12.7069 54.0225 12.2265 54.4585 11.7486 54.8832L12.4129 55.6306ZM15.2907 52.9544C15.7566 52.5 16.2203 52.0364 16.6795 51.5642L15.9627 50.867C15.5099 51.3325 15.0524 51.79 14.5925 52.2386L15.2907 52.9544ZM18.0308 50.1345C18.4742 49.6513 18.9109 49.1603 19.3388 48.6625L18.5804 48.0108C18.16 48.4999 17.7304 48.9827 17.2939 49.4585L18.0308 50.1345ZM20.5965 47.1449C21.0084 46.6287 21.4088 46.1061 21.7955 45.578L20.9886 44.9873C20.6106 45.5036 20.2186 46.0152 19.8148 46.5213L20.5965 47.1449ZM22.9249 43.9575C23.2919 43.4026 23.6418 42.8424 23.9719 42.2777L23.1086 41.773C22.7884 42.3207 22.4483 42.8653 22.0908 43.4059L22.9249 43.9575ZM24.9201 40.5321C25.2207 39.932 25.4967 39.3277 25.7451 38.7201L24.8195 38.3417C24.5814 38.9241 24.316 39.5052 24.026 40.0843L24.9201 40.5321ZM26.4186 36.8414C26.6166 36.1966 26.7804 35.549 26.9064 34.8998L25.9247 34.7094C25.8059 35.3214 25.6509 35.9346 25.4627 36.5479L26.4186 36.8414ZM27.1697 32.9026C27.1926 32.5666 27.2043 32.2304 27.2043 31.8944L26.2043 31.8944C26.2043 32.2072 26.1934 32.5207 26.172 32.8348L27.1697 32.9026ZM27.2043 31.8944C27.2043 31.5693 27.1983 31.2445 27.1865 30.9203L26.1871 30.9567C26.1985 31.269 26.2043 31.5816 26.2043 31.8944L27.2043 31.8944ZM27.0484 28.9801C26.9805 28.3351 26.8914 27.6932 26.7832 27.0554L25.7973 27.2227C25.9021 27.8406 25.9883 28.4616 26.0539 29.0848L27.0484 28.9801ZM26.4026 25.1529C26.2576 24.5221 26.0953 23.8964 25.9179 23.2769L24.9565 23.5522C25.1293 24.1556 25.2871 24.7641 25.428 25.3769L26.4026 25.1529ZM25.3393 21.4294C25.131 20.8163 24.9093 20.2104 24.6762 19.6125L23.7445 19.9759C23.9725 20.5605 24.1891 21.1526 24.3924 21.751L25.3393 21.4294ZM23.9375 17.8283C23.6772 17.2337 23.4071 16.6487 23.1294 16.0743L22.2291 16.5096C22.5016 17.0732 22.7664 17.6468 23.0214 18.2293L23.9375 17.8283ZM22.2588 14.3521C21.9551 13.7763 21.6455 13.2132 21.3326 12.664L20.4638 13.1591C20.7716 13.6993 21.0759 14.2528 21.3743 14.8186L22.2588 14.3521ZM20.3509 11.0017C20.0086 10.4418 19.6654 9.89951 19.3244 9.37646L18.4867 9.92261C18.8227 10.4379 19.1607 10.972 19.4977 11.5233L20.3509 11.0017ZM18.2478 7.77497C17.866 7.22386 17.4915 6.70016 17.129 6.20623L16.3229 6.79792C16.6803 7.28489 17.0495 7.80116 17.4258 8.3444L18.2478 7.77497ZM15.9684 4.66929C15.5341 4.11031 15.1295 3.60728 14.7655 3.16559L13.9938 3.80157C14.3521 4.23634 14.7507 4.73187 15.1787 5.28283L15.9684 4.66929ZM13.5176 1.70067C13.3123 1.46825 13.1503 1.28971 13.0392 1.16878C12.9837 1.10831 12.9408 1.06225 12.9116 1.03104C12.897 1.01544 12.8859 1.00356 12.8782 0.995445C12.8744 0.991388 12.8714 0.988276 12.8694 0.986115C12.8684 0.985032 12.8676 0.98419 12.867 0.983588C12.8667 0.983285 12.8665 0.983042 12.8663 0.982859C12.8662 0.982766 12.8661 0.98269 12.8661 0.98263C12.866 0.982599 12.866 0.98257 12.866 0.982549C12.866 0.982537 12.866 0.98252 12.866 0.982514C12.866 0.9825 12.8659 0.98249 12.5037 1.32717C12.1415 1.67185 12.1415 1.67184 12.1415 1.67183C12.1415 1.67183 12.1415 1.67182 12.1415 1.67182C12.1415 1.67181 12.1415 1.67181 12.1415 1.6718C12.1415 1.6718 12.1415 1.67181 12.1415 1.67184C12.1416 1.6719 12.1417 1.67202 12.1418 1.67219C12.1422 1.67254 12.1427 1.67313 12.1435 1.67395C12.1451 1.6756 12.1475 1.6782 12.1509 1.68173C12.1575 1.6888 12.1677 1.69964 12.1813 1.71417C12.2085 1.74323 12.2493 1.7871 12.3028 1.84531C12.4097 1.96172 12.5674 2.13546 12.7682 2.36281L13.5176 1.70067Z" fill="black"/>
</svg>
