<svg width="149" height="153" viewBox="0 0 149 153" fill="none" xmlns="http://www.w3.org/2000/svg">
<g filter="url(#filter0_d)">
<path d="M99.6254 34.7763C99.5016 34.7151 99.3517 34.766 99.2906 34.8898L98.2946 36.9073C98.2335 37.0311 98.2843 37.181 98.4081 37.2422C98.5319 37.3033 98.6819 37.2525 98.743 37.1287L99.6283 35.3353L101.422 36.2206C101.545 36.2817 101.695 36.2309 101.757 36.1071C101.818 35.9833 101.767 35.8334 101.643 35.7722L99.6254 34.7763ZM48.1983 97.8478C47.9995 97.5888 47.8119 97.3322 47.6352 97.0778L47.2245 97.3631C47.406 97.6242 47.5983 97.8873 47.8017 98.1522L48.1983 97.8478ZM45.94 93.9156C45.2495 92.0536 45.1702 90.3142 45.5852 88.6642L45.1003 88.5423C44.6593 90.2954 44.7475 92.1378 45.4712 94.0895L45.94 93.9156ZM49.4167 82.6569C49.8358 82.2471 50.2827 81.8408 50.7553 81.4376L50.4308 81.0572C49.9505 81.467 49.4951 81.8809 49.0671 82.2994L49.4167 82.6569ZM53.6656 79.2019C55.0844 78.207 56.639 77.2275 58.2936 76.2544L58.0401 75.8234C56.3776 76.8012 54.8112 77.788 53.3785 78.7925L53.6656 79.2019ZM64.7329 72.7041C65.2689 72.4221 65.8095 72.1398 66.3537 71.857L66.1231 71.4133C65.5783 71.6964 65.037 71.9791 64.5001 72.2616L64.7329 72.7041ZM69.623 70.1691C71.2491 69.3324 72.8917 68.4873 74.5269 67.6291L74.2945 67.1863C72.6614 68.0435 71.0207 68.8876 69.3942 69.7245L69.623 70.1691ZM80.9949 64.1009C81.5295 63.7942 82.0599 63.4851 82.5851 63.1733L82.3299 62.7434C81.807 63.0537 81.2788 63.3616 80.7461 63.6672L80.9949 64.1009ZM85.7198 61.2356C87.3123 60.2068 88.8345 59.1466 90.2572 58.0482L89.9517 57.6524C88.5421 58.7407 87.0316 59.7928 85.4485 60.8157L85.7198 61.2356ZM95.6891 53.0541C96.106 52.5808 96.5018 52.1 96.8749 51.6115L96.4775 51.308C96.1119 51.7868 95.7235 52.2585 95.3139 52.7237L95.6891 53.0541ZM98.8746 48.4916C99.7453 46.82 100.346 45.0601 100.621 43.1994L100.126 43.1264C99.8607 44.9267 99.2786 46.6336 98.4312 48.2607L98.8746 48.4916ZM100.04 35.8368C99.952 35.5335 99.8559 35.228 99.7515 34.9202L99.278 35.0807C99.38 35.3817 99.474 35.6802 99.56 35.9763L100.04 35.8368ZM99.7361 34.5521C99.4885 34.4298 99.1887 34.5315 99.0664 34.7791L97.0745 38.8142C96.9522 39.0618 97.0539 39.3617 97.3015 39.4839C97.5491 39.6061 97.8489 39.5045 97.9712 39.2569L99.7418 35.6701L103.329 37.4407C103.576 37.563 103.876 37.4613 103.998 37.2137C104.12 36.9661 104.019 36.6663 103.771 36.544L99.7361 34.5521ZM48.3966 97.6955C48.2001 97.4396 48.0148 97.1861 47.8405 96.9352L47.0192 97.5057C47.203 97.7703 47.3977 98.0365 47.6034 98.3045L48.3966 97.6955ZM46.1744 93.8287C45.5006 92.0115 45.4256 90.3236 45.8276 88.7252L44.8578 88.4813C44.4039 90.2859 44.4965 92.1799 45.2368 94.1764L46.1744 93.8287ZM49.5915 82.8357C50.0061 82.4302 50.4488 82.0277 50.9176 81.6278L50.2685 80.867C49.7844 81.2801 49.3248 81.6978 48.8923 82.1207L49.5915 82.8357ZM53.8091 79.4066C55.221 78.4166 56.7698 77.4406 58.4204 76.4699L57.9134 75.6079C56.2469 76.588 54.6745 77.5785 53.235 78.5878L53.8091 79.4066ZM64.8493 72.9253C65.3848 72.6435 65.925 72.3615 66.469 72.0788L66.0079 71.1914C65.4627 71.4747 64.921 71.7576 64.3837 72.0403L64.8493 72.9253ZM69.7374 70.3914C71.3633 69.5547 73.0068 68.7093 74.6431 67.8504L74.1783 66.965C72.5463 67.8216 70.9065 68.6652 69.2799 69.5022L69.7374 70.3914ZM81.1193 64.3177C81.6549 64.0105 82.1864 63.7007 82.7127 63.3883L82.2022 62.5284C81.6805 62.8381 81.1534 63.1453 80.6217 63.4503L81.1193 64.3177ZM85.8555 61.4456C87.4526 60.4138 88.9807 59.3496 90.41 58.2461L89.7989 57.4545C88.3959 58.5377 86.8913 59.5859 85.3128 60.6057L85.8555 61.4456ZM95.8768 53.2194C96.2972 52.7419 96.6967 52.2567 97.0736 51.7632L96.2788 51.1563C95.917 51.6301 95.5323 52.0974 95.1263 52.5585L95.8768 53.2194ZM99.0963 48.6071C99.9786 46.9133 100.589 45.1267 100.868 43.2359L99.8791 43.0899C99.6178 44.86 99.0453 46.5404 98.2094 48.1452L99.0963 48.6071ZM100.28 35.767C100.191 35.4602 100.094 35.1511 99.9883 34.8399L99.0412 35.161C99.1421 35.4585 99.2349 35.7535 99.3199 36.046L100.28 35.767Z" fill="black"/>
</g>
<defs>
<filter id="filter0_d" x="0.582031" y="0.500488" width="147.468" height="151.804" filterUnits="userSpaceOnUse" color-interpolation-filters="sRGB">
<feFlood flood-opacity="0" result="BackgroundImageFix"/>
<feColorMatrix in="SourceAlpha" type="matrix" values="0 0 0 0 0 0 0 0 0 0 0 0 0 0 0 0 0 0 127 0" result="hardAlpha"/>
<feOffset dy="10"/>
<feGaussianBlur stdDeviation="22"/>
<feColorMatrix type="matrix" values="0 0 0 0 0.341667 0 0 0 0 0.341667 0 0 0 0 0.341667 0 0 0 0.18 0"/>
<feBlend mode="normal" in2="BackgroundImageFix" result="effect1_dropShadow"/>
<feBlend mode="normal" in="SourceGraphic" in2="effect1_dropShadow" result="shape"/>
</filter>
</defs>
</svg>
