<svg width="263" height="66" viewBox="0 0 263 66" fill="none" xmlns="http://www.w3.org/2000/svg">
<g clip-path="url(#clip0)">
<path d="M257.74 0H5.26C2.35498 0 0 2.36394 0 5.28V60.72C0 63.6361 2.35498 66 5.26 66H257.74C260.645 66 263 63.6361 263 60.72V5.28C263 2.36394 260.645 0 257.74 0Z" fill="white" fill-opacity="0.6"/>
<path d="M18.8997 10.7715V11.9694H15.0534V13.6326H18.5348V14.781H15.0534V16.6224H18.88V17.8203H13.7219V10.7715H18.8997ZM23.2931 13.4148V12.7119H24.4964V17.652C24.4964 18.345 24.2761 18.8895 23.8356 19.2855C23.4016 19.6815 22.7836 19.8795 21.9814 19.8795C21.2713 19.8795 20.7125 19.7211 20.3048 19.4043C19.9037 19.0875 19.6835 18.6519 19.644 18.0975H20.867C20.9262 18.6453 21.3042 18.9192 22.0012 18.9192C22.4088 18.9192 22.7178 18.8136 22.9282 18.6024C23.1452 18.3912 23.2537 18.0843 23.2537 17.6817V17.0382C22.8855 17.5464 22.3661 17.8005 21.6954 17.8005C21.0051 17.8005 20.4495 17.5596 20.0287 17.0778C19.6079 16.6092 19.3975 15.9822 19.3975 15.1968C19.3975 14.4048 19.6079 13.7745 20.0287 13.3059C20.4429 12.8307 20.9952 12.5931 21.6856 12.5931C22.4022 12.5931 22.9381 12.867 23.2931 13.4148ZM21.9716 16.7709C22.3858 16.7709 22.708 16.6323 22.9381 16.3551C23.1682 16.0779 23.2833 15.6918 23.2833 15.1968C23.2833 14.7018 23.1682 14.3157 22.9381 14.0385C22.708 13.7613 22.3858 13.6227 21.9716 13.6227C21.5705 13.6227 21.2516 13.7646 21.0149 14.0484C20.7848 14.3256 20.6697 14.7117 20.6697 15.2067C20.6697 15.6951 20.7848 16.0779 21.0149 16.3551C21.2516 16.6323 21.5705 16.7709 21.9716 16.7709ZM29.1683 13.4148V12.7119H30.3715V17.652C30.3715 18.345 30.1513 18.8895 29.7107 19.2855C29.2768 19.6815 28.6587 19.8795 27.8566 19.8795C27.1465 19.8795 26.5876 19.7211 26.18 19.4043C25.7789 19.0875 25.5586 18.6519 25.5192 18.0975H26.7421C26.8013 18.6453 27.1794 18.9192 27.8763 18.9192C28.284 18.9192 28.593 18.8136 28.8034 18.6024C29.0204 18.3912 29.1289 18.0843 29.1289 17.6817V17.0382C28.7607 17.5464 28.2412 17.8005 27.5706 17.8005C26.8802 17.8005 26.3246 17.5596 25.9038 17.0778C25.483 16.6092 25.2726 15.9822 25.2726 15.1968C25.2726 14.4048 25.483 13.7745 25.9038 13.3059C26.318 12.8307 26.8703 12.5931 27.5607 12.5931C28.2774 12.5931 28.8133 12.867 29.1683 13.4148ZM27.8467 16.7709C28.261 16.7709 28.5831 16.6323 28.8133 16.3551C29.0434 16.0779 29.1584 15.6918 29.1584 15.1968C29.1584 14.7018 29.0434 14.3157 28.8133 14.0385C28.5831 13.7613 28.261 13.6227 27.8467 13.6227C27.4457 13.6227 27.1268 13.7646 26.8901 14.0484C26.6599 14.3256 26.5449 14.7117 26.5449 15.2067C26.5449 15.6951 26.6599 16.0779 26.8901 16.3551C27.1268 16.6323 27.4457 16.7709 27.8467 16.7709ZM33.3766 17.9589C31.8907 17.9589 31.1148 17.3715 31.0491 16.1967H32.2622C32.295 16.5135 32.397 16.7379 32.5679 16.8699C32.7454 17.0019 33.0216 17.0679 33.3964 17.0679C34.067 17.0679 34.4023 16.8633 34.4023 16.4541C34.4023 16.2693 34.33 16.1274 34.1854 16.0284C34.0407 15.9294 33.781 15.8469 33.4062 15.7809L32.8243 15.6819C31.7132 15.4971 31.1576 14.9823 31.1576 14.1375C31.1576 13.6557 31.3417 13.2795 31.7099 13.0089C32.0781 12.7317 32.5975 12.5931 33.2681 12.5931C34.7212 12.5931 35.4708 13.1706 35.5168 14.3256H34.3432C34.33 14.022 34.2347 13.8075 34.0571 13.6821C33.8796 13.5501 33.6166 13.4841 33.2681 13.4841C32.6764 13.4841 32.3805 13.6821 32.3805 14.0781C32.3805 14.2497 32.4463 14.385 32.5778 14.484C32.7093 14.5764 32.9263 14.649 33.2287 14.7018L33.8698 14.8008C34.4878 14.913 34.9349 15.0912 35.2111 15.3354C35.4938 15.5796 35.6352 15.9195 35.6352 16.3551C35.6352 16.8699 35.4379 17.2659 35.0434 17.5431C34.6489 17.8203 34.0933 17.9589 33.3766 17.9589ZM43.997 15.9492L44.0562 16.9986C44.0628 17.3352 44.1351 17.6091 44.2732 17.8203H42.9023C42.784 17.6223 42.7215 17.3418 42.7149 16.9788L42.6853 16.2066C42.6656 15.7776 42.567 15.4806 42.3895 15.3156C42.2185 15.144 41.9423 15.0582 41.561 15.0582H39.8252V17.8203H38.4938V10.7715H41.6793C42.4618 10.7715 43.07 10.9497 43.5039 11.3061C43.9379 11.6625 44.1548 12.1476 44.1548 12.7614C44.1548 13.6062 43.7636 14.1672 42.9812 14.4444C43.3362 14.5566 43.5894 14.7348 43.7406 14.979C43.8984 15.2166 43.9839 15.54 43.997 15.9492ZM39.8252 11.8704V14.0088H41.6005C41.9752 14.0088 42.2645 13.9164 42.4683 13.7316C42.6787 13.5402 42.7839 13.2663 42.7839 12.9099C42.7839 12.5733 42.6755 12.3159 42.4585 12.1377C42.2481 11.9595 41.9456 11.8704 41.5511 11.8704H39.8252ZM49.925 15.2661C49.925 16.0713 49.6883 16.7181 49.2149 17.2065C48.7415 17.6949 48.1169 17.9391 47.341 17.9391C46.5652 17.9391 45.9405 17.6949 45.4671 17.2065C44.9872 16.7247 44.7472 16.0779 44.7472 15.2661C44.7472 14.4543 44.9872 13.8075 45.4671 13.3257C45.9405 12.8373 46.5652 12.5931 47.341 12.5931C48.1169 12.5931 48.7415 12.834 49.2149 13.3158C49.6883 13.7976 49.925 14.4477 49.925 15.2661ZM46.3646 16.4838C46.6013 16.7676 46.9268 16.9095 47.341 16.9095C47.7552 16.9095 48.0774 16.7676 48.3075 16.4838C48.5442 16.1934 48.6626 15.7875 48.6626 15.2661C48.6626 14.7447 48.5442 14.3421 48.3075 14.0583C48.0774 13.7679 47.7552 13.6227 47.341 13.6227C46.9268 13.6227 46.6013 13.7646 46.3646 14.0484C46.1345 14.3322 46.0194 14.7381 46.0194 15.2661C46.0194 15.7941 46.1345 16.2 46.3646 16.4838ZM53.3541 13.9989L53.7683 12.7119H55.0701L53.1075 18.2361C52.8971 18.8169 52.6341 19.2162 52.3185 19.434C51.9963 19.6584 51.5295 19.7706 50.918 19.7706C50.7142 19.7706 50.5334 19.7607 50.3756 19.7409V18.7608H50.849C51.1185 18.7608 51.3257 18.6849 51.4703 18.5331C51.615 18.3813 51.6873 18.1833 51.6873 17.9391C51.6873 17.6949 51.6084 17.3517 51.4506 16.9095L49.9712 12.7119H51.3125L51.7267 13.989C52.016 14.8998 52.2856 15.8502 52.5355 16.8402C52.7327 16.0944 53.0056 15.1473 53.3541 13.9989ZM59.9232 17.8203H58.6805C58.6213 17.7147 58.5753 17.5068 58.5424 17.1966C58.2006 17.6916 57.6548 17.9391 56.9053 17.9391C56.3464 17.9391 55.8993 17.8038 55.564 17.5332C55.2352 17.2626 55.0709 16.8864 55.0709 16.4046C55.0709 15.474 55.7218 14.9427 57.0236 14.8107L57.7929 14.7414C58.0493 14.7084 58.2334 14.649 58.3452 14.5632C58.457 14.4708 58.5129 14.3355 58.5129 14.1573C58.5129 13.9395 58.4405 13.7811 58.2959 13.6821C58.1578 13.5765 57.9211 13.5237 57.5858 13.5237C57.2242 13.5237 56.9645 13.5864 56.8067 13.7118C56.6488 13.8306 56.5568 14.0385 56.5305 14.3355H55.3076C55.3799 13.1739 56.1426 12.5931 57.5956 12.5931C59.0093 12.5931 59.7161 13.1046 59.7161 14.1276V16.8501C59.7161 17.2989 59.7851 17.6223 59.9232 17.8203ZM57.2011 17.0481C57.5891 17.0481 57.9047 16.9425 58.148 16.7313C58.3912 16.5135 58.5129 16.2033 58.5129 15.8007V15.3354C58.3945 15.441 58.2006 15.5103 57.931 15.5433L57.2603 15.6225C56.9316 15.6621 56.6949 15.7413 56.5502 15.8601C56.4122 15.9723 56.3431 16.1373 56.3431 16.3551C56.3431 16.5729 56.4154 16.7445 56.5601 16.8699C56.7113 16.9887 56.925 17.0481 57.2011 17.0481ZM61.8773 17.8203H60.6346V10.7715H61.8773V17.8203Z" fill="black"/>
<path d="M240.932 7.47139H241.987V14.5202H240.656V9.76819H239.039V8.82769L239.196 8.81779C239.709 8.78479 240.1 8.66929 240.37 8.47129C240.646 8.26669 240.834 7.93339 240.932 7.47139ZM244.439 13.3916H248.059V14.5202H242.95L242.98 13.9955C243.006 13.4543 243.118 12.9692 243.315 12.5402C243.558 12.0056 244.061 11.5634 244.824 11.2136L245.514 10.8572C245.922 10.6592 246.211 10.4579 246.382 10.2533C246.553 10.0487 246.639 9.79459 246.639 9.49099C246.639 9.16759 246.537 8.91349 246.333 8.72869C246.129 8.53729 245.846 8.44159 245.485 8.44159C244.676 8.44159 244.272 8.87059 244.272 9.72859H242.989C242.983 8.96959 243.197 8.37889 243.631 7.95649C244.071 7.52749 244.702 7.31299 245.524 7.31299C246.28 7.31299 246.879 7.50439 247.319 7.88719C247.76 8.26999 247.98 8.77159 247.98 9.39199C247.98 9.92659 247.832 10.382 247.536 10.7582C247.24 11.1278 246.77 11.4743 246.126 11.7977L245.475 12.1442C245.107 12.3422 244.847 12.5303 244.696 12.7085C244.551 12.8801 244.466 13.1078 244.439 13.3916ZM248.758 14.5202V13.1045H250.208V14.6291C250.208 15.5597 249.783 16.0415 248.935 16.0745H248.758V15.3617L248.925 15.3518C249.228 15.332 249.379 15.1109 249.379 14.6885V14.5202H248.758ZM253.688 9.88699C254.45 9.88699 255.045 10.1114 255.473 10.5602C255.887 11.009 256.094 11.5667 256.094 12.2333C256.094 12.9659 255.851 13.5566 255.364 14.0054C254.878 14.4542 254.247 14.6786 253.471 14.6786C252.754 14.6786 252.152 14.4839 251.666 14.0945C251.192 13.7117 250.929 13.1837 250.877 12.5105H252.149C252.195 12.8471 252.337 13.1144 252.573 13.3124C252.816 13.5038 253.116 13.5995 253.471 13.5995C253.872 13.5995 254.194 13.4741 254.437 13.2233C254.687 12.9659 254.812 12.6359 254.812 12.2333C254.812 11.8307 254.687 11.504 254.437 11.2532C254.194 10.9958 253.872 10.8671 253.471 10.8671C252.879 10.8671 252.468 11.1047 252.238 11.5799H251.015L251.666 7.47139H255.729V8.59999H252.711L252.406 10.3523C252.787 10.0421 253.214 9.88699 253.688 9.88699Z" fill="black"/>
<path d="M18.3983 34.532L19.0223 32.5328H19.7574L18.2872 36.9601H17.5692L16.9196 34.9095C16.6973 34.183 16.5492 33.6825 16.4751 33.408C16.3441 33.877 16.193 34.3775 16.0221 34.9095L15.381 36.9601H14.663L13.1929 32.5328H13.928L14.5519 34.532C14.7058 35.0182 14.8654 35.5558 15.0306 36.145C15.2129 35.4929 15.3697 34.9552 15.5007 34.532L16.1161 32.5328H16.8341L17.4495 34.532C17.763 35.5787 17.9225 36.1107 17.9282 36.1278C17.9738 35.9505 18.1305 35.4185 18.3983 34.532ZM19.9132 36.9601H19.2465L21.4262 30.8511H22.0929L19.9132 36.9601ZM24.5843 37.0974C23.7922 37.0974 23.1739 36.9172 22.7294 36.5568C22.285 36.1965 22.0599 35.6588 22.0542 34.9438H22.7978C22.8149 35.9448 23.4104 36.4453 24.5843 36.4453C25.08 36.4453 25.459 36.3481 25.7211 36.1536C25.9889 35.9591 26.1228 35.6759 26.1228 35.3042C26.1228 35.0124 26.0117 34.7865 25.7895 34.6263C25.5729 34.4605 25.1911 34.3175 24.6441 34.1973L24.1056 34.0772C23.4902 33.9342 23.0286 33.7283 22.7209 33.4595C22.4132 33.1849 22.2593 32.8016 22.2593 32.3097C22.2593 31.8235 22.4474 31.4374 22.8235 31.1514C23.1996 30.8597 23.7039 30.7139 24.3364 30.7139C24.7638 30.7139 25.1342 30.7653 25.4476 30.8683C25.7667 30.9713 26.0146 31.1171 26.1912 31.3059C26.3679 31.4889 26.4961 31.6891 26.5758 31.9065C26.6613 32.1238 26.7069 32.3641 26.7126 32.6272H25.9775C25.9433 32.1925 25.8009 31.875 25.5501 31.6748C25.3051 31.4689 24.9005 31.3659 24.3364 31.3659C23.909 31.3659 23.5785 31.4489 23.3449 31.6148C23.117 31.7806 23.003 32.0123 23.003 32.3097C23.003 32.6072 23.1027 32.8389 23.3021 33.0047C23.4959 33.1706 23.872 33.3164 24.4304 33.4423L24.9689 33.5624C25.6413 33.7111 26.1257 33.9256 26.422 34.2059C26.7183 34.4805 26.8664 34.8466 26.8664 35.3042C26.8664 35.859 26.6642 36.2966 26.2596 36.6169C25.855 36.9372 25.2966 37.0974 24.5843 37.0974ZM32.2357 32.4299C32.7144 32.4299 33.0847 32.57 33.3469 32.8503C33.6147 33.1248 33.7486 33.4938 33.7486 33.9571V36.9601H33.0648V34.0257C33.0648 33.3737 32.7571 33.0476 32.1417 33.0476C31.8169 33.0476 31.5462 33.1792 31.3297 33.4423C31.1188 33.6997 31.0134 34.0658 31.0134 34.5405V36.9601H30.3296V34.0257C30.3296 33.3737 30.0219 33.0476 29.4065 33.0476C29.0873 33.0476 28.8195 33.1792 28.603 33.4423C28.3864 33.6997 28.2782 34.0658 28.2782 34.5405V36.9601H27.5944V32.5328H28.244V33.1849C28.5346 32.6815 28.9591 32.4299 29.5176 32.4299C30.1786 32.4299 30.6316 32.7073 30.8767 33.2621C31.1844 32.7073 31.6374 32.4299 32.2357 32.4299ZM38.2347 36.4281C37.8301 36.8514 37.3173 37.0631 36.6961 37.0631C36.0751 37.0631 35.5622 36.8514 35.1576 36.4281C34.7587 36.0106 34.5593 35.45 34.5593 34.7465C34.5593 34.0429 34.7587 33.4824 35.1576 33.0648C35.5622 32.6415 36.0751 32.4299 36.6961 32.4299C37.3173 32.4299 37.8301 32.6415 38.2347 33.0648C38.6336 33.4824 38.833 34.0429 38.833 34.7465C38.833 35.45 38.6336 36.0106 38.2347 36.4281ZM35.6619 35.9906C35.9183 36.2937 36.2631 36.4453 36.6961 36.4453C37.1292 36.4453 37.4739 36.2937 37.7304 35.9906C37.9868 35.6931 38.115 35.2784 38.115 34.7465C38.115 34.2088 37.9868 33.7913 37.7304 33.4938C37.4739 33.1963 37.1292 33.0476 36.6961 33.0476C36.2631 33.0476 35.9183 33.1963 35.6619 33.4938C35.4055 33.7913 35.2772 34.2088 35.2772 34.7465C35.2772 35.2784 35.4055 35.6931 35.6619 35.9906ZM43.4001 36.9601H42.6051L41.1179 34.5834L40.3315 35.3213V36.9601H39.6477V30.8511H40.3315V34.5148L42.3744 32.5328H43.2804L41.6051 34.1287L43.4001 36.9601ZM47.5008 34.7465V34.9867H44.1501C44.1843 35.4672 44.3182 35.8304 44.5519 36.0764C44.7855 36.3166 45.1046 36.4367 45.5092 36.4367C46.1189 36.4367 46.5092 36.1622 46.6802 35.613H47.3896C47.27 36.0592 47.0477 36.4138 46.7229 36.677C46.3981 36.9344 45.9879 37.0631 45.4921 37.0631C44.8823 37.0631 44.3895 36.8543 44.0134 36.4367C43.6316 36.0191 43.4407 35.4558 43.4407 34.7465C43.4407 34.0486 43.6287 33.488 44.0048 33.0648C44.3752 32.6415 44.8652 32.4299 45.475 32.4299C46.1075 32.4299 46.6033 32.6501 46.9623 33.0905C47.3213 33.5309 47.5008 34.083 47.5008 34.7465ZM45.475 33.0562C45.116 33.0562 44.8225 33.1706 44.5946 33.3994C44.3667 33.6225 44.2242 33.9457 44.1672 34.3689H46.7657C46.7315 33.98 46.6004 33.6654 46.3725 33.4251C46.1445 33.1792 45.8454 33.0562 45.475 33.0562ZM51.6285 33.1677V30.8511H52.3123V36.9601H51.6627V36.2737C51.3094 36.7999 50.8051 37.0631 50.1498 37.0631C49.5287 37.0631 49.0329 36.8514 48.6625 36.4281C48.2864 36.0049 48.0984 35.4443 48.0984 34.7465C48.0984 34.0372 48.2864 33.4738 48.6625 33.0562C49.0272 32.6386 49.523 32.4299 50.1498 32.4299C50.7823 32.4299 51.2752 32.6759 51.6285 33.1677ZM48.8163 34.7808C48.8163 35.307 48.9446 35.716 49.201 36.0077C49.4574 36.2994 49.8022 36.4453 50.2352 36.4453C50.6683 36.4453 51.0131 36.2937 51.2695 35.9906C51.5259 35.6931 51.6541 35.2784 51.6541 34.7465C51.6541 34.2202 51.5259 33.8055 51.2695 33.5024C51.0131 33.1992 50.6683 33.0476 50.2352 33.0476C49.8079 33.0476 49.4631 33.2049 49.201 33.5195C48.9446 33.8284 48.8163 34.2488 48.8163 34.7808ZM57.2384 37.0974C56.4463 37.0974 55.8281 36.9172 55.3836 36.5568C54.9391 36.1965 54.7141 35.6588 54.7083 34.9438H55.452C55.4691 35.9448 56.0646 36.4453 57.2384 36.4453C57.7341 36.4453 58.1131 36.3481 58.3752 36.1536C58.643 35.9591 58.7769 35.6759 58.7769 35.3042C58.7769 35.0124 58.6658 34.7865 58.4436 34.6263C58.2271 34.4605 57.8453 34.3175 57.2982 34.1973L56.7597 34.0772C56.1443 33.9342 55.6828 33.7283 55.375 33.4595C55.0673 33.1849 54.9135 32.8016 54.9135 32.3097C54.9135 31.8235 55.1015 31.4374 55.4776 31.1514C55.8537 30.8597 56.358 30.7139 56.9905 30.7139C57.4179 30.7139 57.7883 30.7653 58.1017 30.8683C58.4208 30.9713 58.6687 31.1171 58.8453 31.3059C59.022 31.4889 59.1502 31.6891 59.23 31.9065C59.3154 32.1238 59.361 32.3641 59.3667 32.6272H58.6316C58.5975 32.1925 58.455 31.875 58.2043 31.6748C57.9592 31.4689 57.5547 31.3659 56.9905 31.3659C56.5631 31.3659 56.2326 31.4489 55.999 31.6148C55.7711 31.7806 55.6571 32.0123 55.6571 32.3097C55.6571 32.6072 55.7569 32.8389 55.9563 33.0047C56.15 33.1706 56.5261 33.3164 57.0845 33.4423L57.623 33.5624C58.2955 33.7111 58.7798 33.9256 59.0761 34.2059C59.3724 34.4805 59.5206 34.8466 59.5206 35.3042C59.5206 35.859 59.3183 36.2966 58.9137 36.6169C58.5091 36.9372 57.9507 37.0974 57.2384 37.0974ZM63.8973 36.4024H64.1452V36.9601C64.0312 36.9773 63.9058 36.9858 63.7691 36.9858C63.3075 36.9858 63.0596 36.7742 63.0255 36.3509C62.7177 36.8257 62.2391 37.0631 61.5895 37.0631C61.1051 37.0631 60.7233 36.9515 60.4441 36.7284C60.1706 36.4996 60.0338 36.1793 60.0338 35.7675C60.0338 34.9667 60.578 34.5091 61.6664 34.3947L62.2989 34.326C62.7605 34.2746 62.9913 34.0715 62.9913 33.7169C62.9913 33.4709 62.9143 33.2936 62.7605 33.1849C62.6123 33.0762 62.3587 33.0219 61.9997 33.0219C61.6179 33.0219 61.3416 33.0877 61.1706 33.2192C61.0054 33.3451 60.9114 33.571 60.8886 33.897H60.2048C60.2618 32.9189 60.8601 32.4299 61.9997 32.4299C63.1052 32.4299 63.658 32.8589 63.658 33.7169V36.1879C63.658 36.3309 63.7377 36.4024 63.8973 36.4024ZM61.6237 36.4796C61.9884 36.4796 62.3075 36.3681 62.581 36.145C62.8545 35.9277 62.9913 35.6159 62.9913 35.2098V34.6864C62.8659 34.7836 62.6722 34.8466 62.41 34.8752L61.769 34.9524C61.3986 34.9981 61.1336 35.0839 60.974 35.2098C60.8202 35.3356 60.7433 35.5158 60.7433 35.7503C60.7433 35.9791 60.8174 36.1593 60.9655 36.2909C61.1136 36.4167 61.333 36.4796 61.6237 36.4796ZM65.3897 36.9601H64.7059V30.8511H65.3897V36.9601ZM71.0581 32.4299C71.5368 32.4299 71.9076 32.57 72.1693 32.8503C72.4376 33.1248 72.571 33.4938 72.571 33.9571V36.9601H71.8872V34.0257C71.8872 33.3737 71.5795 33.0476 70.9641 33.0476C70.6393 33.0476 70.3691 33.1792 70.1521 33.4423C69.9417 33.6997 69.8358 34.0658 69.8358 34.5405V36.9601H69.152V34.0257C69.152 33.3737 68.8443 33.0476 68.2289 33.0476C67.91 33.0476 67.6424 33.1792 67.4254 33.4423C67.2091 33.6997 67.1006 34.0658 67.1006 34.5405V36.9601H66.4168V32.5328H67.0664V33.1849C67.3571 32.6815 67.7818 32.4299 68.34 32.4299C69.0015 32.4299 69.4545 32.7073 69.6991 33.2621C70.0068 32.7073 70.4598 32.4299 71.0581 32.4299ZM77.0572 36.4281C76.6528 36.8514 76.1399 37.0631 75.5186 37.0631C74.8979 37.0631 74.3851 36.8514 73.9801 36.4281C73.5816 36.0106 73.3817 35.45 73.3817 34.7465C73.3817 34.0429 73.5816 33.4824 73.9801 33.0648C74.3851 32.6415 74.8979 32.4299 75.5186 32.4299C76.1399 32.4299 76.6528 32.6415 77.0572 33.0648C77.4563 33.4824 77.6555 34.0429 77.6555 34.7465C77.6555 35.45 77.4563 36.0106 77.0572 36.4281ZM74.4844 35.9906C74.7408 36.2937 75.086 36.4453 75.5186 36.4453C75.9519 36.4453 76.2964 36.2937 76.5529 35.9906C76.8093 35.6931 76.9375 35.2784 76.9375 34.7465C76.9375 34.2088 76.8093 33.7913 76.5529 33.4938C76.2964 33.1963 75.9519 33.0476 75.5186 33.0476C75.086 33.0476 74.7408 33.1963 74.4844 33.4938C74.2279 33.7913 74.0997 34.2088 74.0997 34.7465C74.0997 35.2784 74.2279 35.6931 74.4844 35.9906ZM80.5044 32.4299C80.9949 32.4299 81.3763 32.5643 81.6498 32.8331C81.9233 33.1019 82.0601 33.4795 82.0601 33.9657V36.9601H81.3763V34.0343C81.3763 33.3765 81.0403 33.0476 80.3677 33.0476C80.0488 33.0476 79.7667 33.1677 79.5215 33.408C79.2769 33.6482 79.1539 33.9972 79.1539 34.4547V36.9601H78.4701V32.5328H79.1197V33.1935C79.4564 32.6844 79.9179 32.4299 80.5044 32.4299ZM82.9582 36.9601V36.1021H83.8215V37.0373C83.8215 37.7237 83.5625 38.0927 83.0437 38.1441L82.9582 38.1527V37.6894L83.0181 37.6808C83.2291 37.6579 83.3343 37.4635 83.3343 37.0974V36.9601H82.9582ZM89.9573 36.4024H90.2052V36.9601C90.0908 36.9773 89.9659 36.9858 89.8291 36.9858C89.3675 36.9858 89.1197 36.7742 89.0855 36.3509C88.7777 36.8257 88.2991 37.0631 87.6495 37.0631C87.1649 37.0631 86.7829 36.9515 86.5041 36.7284C86.2306 36.4996 86.0938 36.1793 86.0938 35.7675C86.0938 34.9667 86.6376 34.5091 87.7264 34.3947L88.3589 34.326C88.8205 34.2746 89.0513 34.0715 89.0513 33.7169C89.0513 33.4709 88.9743 33.2936 88.8205 33.1849C88.6719 33.0762 88.4188 33.0219 88.0598 33.0219C87.6777 33.0219 87.4016 33.0877 87.2307 33.2192C87.065 33.3451 86.9709 33.571 86.9486 33.897H86.2648C86.3213 32.9189 86.9197 32.4299 88.0598 32.4299C89.165 32.4299 89.718 32.8589 89.718 33.7169V36.1879C89.718 36.3309 89.7975 36.4024 89.9573 36.4024ZM87.6837 36.4796C88.0479 36.4796 88.3675 36.3681 88.641 36.145C88.9145 35.9277 89.0513 35.6159 89.0513 35.2098V34.6864C88.9257 34.7836 88.7317 34.8466 88.47 34.8752L87.829 34.9524C87.4582 34.9981 87.1932 35.0839 87.0341 35.2098C86.8802 35.3356 86.8033 35.5158 86.8033 35.7503C86.8033 35.9791 86.8769 36.1593 87.0255 36.2909C87.1735 36.4167 87.3931 36.4796 87.6837 36.4796ZM92.8385 34.4976L93.565 32.5328H94.3001L92.565 36.9601H91.847L90.1204 32.5328H90.864L91.5905 34.5062C91.9495 35.4729 92.1573 36.0449 92.2145 36.2222C92.3171 35.9191 92.5248 35.3442 92.8385 34.4976ZM98.059 36.4281C97.654 36.8514 97.1412 37.0631 96.5205 37.0631C95.8991 37.0631 95.3863 36.8514 94.9819 36.4281C94.5828 36.0106 94.3836 35.45 94.3836 34.7465C94.3836 34.0429 94.5828 33.4824 94.9819 33.0648C95.3863 32.6415 95.8991 32.4299 96.5205 32.4299C97.1412 32.4299 97.654 32.6415 98.059 33.0648C98.4575 33.4824 98.6573 34.0429 98.6573 34.7465C98.6573 35.45 98.4575 36.0106 98.059 36.4281ZM95.4862 35.9906C95.7426 36.2937 96.0872 36.4453 96.5205 36.4453C96.9531 36.4453 97.2983 36.2937 97.5547 35.9906C97.8111 35.6931 97.9394 35.2784 97.9394 34.7465C97.9394 34.2088 97.8111 33.7913 97.5547 33.4938C97.2983 33.1963 96.9531 33.0476 96.5205 33.0476C96.0872 33.0476 95.7426 33.1963 95.4862 33.4938C95.2298 33.7913 95.1016 34.2088 95.1016 34.7465C95.1016 35.2784 95.2298 35.6931 95.4862 35.9906ZM101.301 37.0631C100.691 37.0631 100.199 36.8514 99.8224 36.4281C99.4463 36.0049 99.2583 35.4443 99.2583 34.7465C99.2583 34.0372 99.4463 33.4738 99.8224 33.0562C100.187 32.6386 100.68 32.4299 101.301 32.4299C101.825 32.4299 102.255 32.5729 102.592 32.8589C102.928 33.1448 103.13 33.5367 103.199 34.0343H102.489C102.438 33.7197 102.301 33.4766 102.079 33.305C101.862 33.1334 101.603 33.0476 101.301 33.0476C100.896 33.0476 100.575 33.1963 100.335 33.4938C100.096 33.7855 99.9763 34.2031 99.9763 34.7465C99.9763 35.2842 100.096 35.7017 100.335 35.9991C100.58 36.2966 100.902 36.4453 101.301 36.4453C101.603 36.4453 101.865 36.3567 102.088 36.1793C102.31 36.002 102.447 35.7561 102.498 35.4414H103.199C103.124 35.9391 102.913 36.3338 102.566 36.6255C102.224 36.9172 101.802 37.0631 101.301 37.0631ZM107.536 36.4024H107.784V36.9601C107.67 36.9773 107.545 36.9858 107.408 36.9858C106.946 36.9858 106.699 36.7742 106.664 36.3509C106.357 36.8257 105.878 37.0631 105.228 37.0631C104.744 37.0631 104.362 36.9515 104.083 36.7284C103.81 36.4996 103.673 36.1793 103.673 35.7675C103.673 34.9667 104.217 34.5091 105.305 34.3947L105.938 34.326C106.399 34.2746 106.63 34.0715 106.63 33.7169C106.63 33.4709 106.553 33.2936 106.399 33.1849C106.251 33.0762 105.998 33.0219 105.639 33.0219C105.257 33.0219 104.981 33.0877 104.81 33.2192C104.645 33.3451 104.551 33.571 104.528 33.897H103.844C103.901 32.9189 104.499 32.4299 105.639 32.4299C106.744 32.4299 107.297 32.8589 107.297 33.7169V36.1879C107.297 36.3309 107.376 36.4024 107.536 36.4024ZM105.263 36.4796C105.628 36.4796 105.946 36.3681 106.22 36.145C106.493 35.9277 106.63 35.6159 106.63 35.2098V34.6864C106.505 34.7836 106.311 34.8466 106.049 34.8752L105.408 34.9524C105.038 34.9981 104.773 35.0839 104.613 35.2098C104.459 35.3356 104.382 35.5158 104.382 35.7503C104.382 35.9791 104.456 36.1593 104.604 36.2909C104.752 36.4167 104.972 36.4796 105.263 36.4796ZM111.661 33.1677V30.8511H112.345V36.9601H111.696V36.2737C111.342 36.7999 110.838 37.0631 110.183 37.0631C109.561 37.0631 109.066 36.8514 108.695 36.4281C108.319 36.0049 108.131 35.4443 108.131 34.7465C108.131 34.0372 108.319 33.4738 108.695 33.0562C109.06 32.6386 109.556 32.4299 110.183 32.4299C110.815 32.4299 111.308 32.6759 111.661 33.1677ZM108.849 34.7808C108.849 35.307 108.977 35.716 109.234 36.0077C109.49 36.2994 109.835 36.4453 110.268 36.4453C110.701 36.4453 111.046 36.2937 111.302 35.9906C111.559 35.6931 111.687 35.2784 111.687 34.7465C111.687 34.2202 111.559 33.8055 111.302 33.5024C111.046 33.1992 110.701 33.0476 110.268 33.0476C109.841 33.0476 109.496 33.2049 109.234 33.5195C108.977 33.8284 108.849 34.2488 108.849 34.7808ZM116.832 36.4281C116.427 36.8514 115.914 37.0631 115.293 37.0631C114.672 37.0631 114.159 36.8514 113.755 36.4281C113.356 36.0106 113.157 35.45 113.157 34.7465C113.157 34.0429 113.356 33.4824 113.755 33.0648C114.159 32.6415 114.672 32.4299 115.293 32.4299C115.914 32.4299 116.427 32.6415 116.832 33.0648C117.23 33.4824 117.43 34.0429 117.43 34.7465C117.43 35.45 117.23 36.0106 116.832 36.4281ZM114.259 35.9906C114.516 36.2937 114.86 36.4453 115.293 36.4453C115.726 36.4453 116.071 36.2937 116.328 35.9906C116.584 35.6931 116.712 35.2784 116.712 34.7465C116.712 34.2088 116.584 33.7913 116.328 33.4938C116.071 33.1963 115.726 33.0476 115.293 33.0476C114.86 33.0476 114.516 33.1963 114.259 33.4938C114.003 33.7913 113.875 34.2088 113.875 34.7465C113.875 35.2784 114.003 35.6931 114.259 35.9906ZM123.804 35.6388L124.984 36.9601H124.061L123.419 36.2394C122.935 36.8114 122.28 37.0974 121.454 37.0974C120.895 37.0974 120.451 36.9315 120.12 36.5997C119.784 36.2737 119.616 35.8733 119.616 35.3985C119.616 34.9981 119.724 34.6607 119.941 34.3861C120.163 34.1115 120.528 33.8312 121.035 33.5453C120.772 33.2478 120.584 32.9847 120.471 32.7559C120.362 32.5271 120.308 32.2954 120.308 32.0609C120.308 31.6891 120.445 31.3688 120.718 31.1C120.986 30.8426 121.348 30.7139 121.804 30.7139C122.208 30.7139 122.559 30.8311 122.855 31.0656C123.146 31.3001 123.291 31.6233 123.291 32.0352C123.291 32.6415 122.875 33.1849 122.043 33.6654L123.308 35.0811C123.422 34.7493 123.479 34.3918 123.479 34.0086H124.172C124.155 34.6206 124.032 35.1641 123.804 35.6388ZM121.795 31.3316C121.567 31.3316 121.383 31.4003 121.24 31.5375C121.097 31.6691 121.026 31.8436 121.026 32.0609C121.026 32.3641 121.231 32.7473 121.642 33.2106C121.966 33.0333 122.203 32.8531 122.351 32.6701C122.499 32.4871 122.573 32.284 122.573 32.0609C122.573 31.8493 122.499 31.6748 122.351 31.5375C122.203 31.4003 122.018 31.3316 121.795 31.3316ZM121.496 36.4453C122.129 36.4453 122.619 36.2051 122.966 35.7246L121.436 34C121.043 34.2117 120.761 34.4176 120.59 34.6178C120.425 34.8179 120.342 35.0668 120.342 35.3642C120.342 35.6674 120.448 35.9248 120.659 36.1364C120.87 36.3423 121.148 36.4453 121.496 36.4453ZM128.681 37.0631C127.502 37.0631 126.878 36.5597 126.81 35.553H127.502C127.542 35.8848 127.65 36.1221 127.827 36.2651C128.009 36.4024 128.294 36.471 128.681 36.471C129.388 36.471 129.741 36.2422 129.741 35.7846C129.741 35.5845 129.668 35.4329 129.519 35.3299C129.377 35.2269 129.115 35.1383 128.733 35.0639L128.322 34.9867C127.405 34.8151 126.946 34.3804 126.946 33.6825C126.946 33.2993 127.089 32.9961 127.374 32.7731C127.664 32.5442 128.057 32.4299 128.553 32.4299C129.722 32.4299 130.32 32.9189 130.348 33.897H129.664C129.647 33.5768 129.551 33.3508 129.374 33.2192C129.198 33.0877 128.924 33.0219 128.553 33.0219C128.257 33.0219 128.029 33.0791 127.869 33.1935C127.71 33.3079 127.63 33.468 127.63 33.674C127.63 33.8685 127.698 34.0143 127.835 34.1115C127.972 34.2088 128.2 34.2917 128.519 34.3604L128.912 34.4376C129.454 34.5463 129.841 34.7007 130.075 34.9009C130.314 35.1011 130.434 35.3814 130.434 35.7417C130.434 36.1593 130.277 36.4854 129.964 36.7199C129.656 36.9487 129.228 37.0631 128.681 37.0631ZM133.279 32.4299C133.899 32.4299 134.398 32.6386 134.774 33.0562C135.145 33.4795 135.33 34.0429 135.33 34.7465C135.33 35.4443 135.145 36.0049 134.774 36.4281C134.398 36.8514 133.899 37.0631 133.279 37.0631C132.646 37.0631 132.153 36.8171 131.8 36.3252V38.6418H131.116V32.5328H131.766V33.2192C132.119 32.693 132.623 32.4299 133.279 32.4299ZM133.193 36.4453C133.621 36.4453 133.962 36.2909 134.219 35.982C134.481 35.6674 134.612 35.2441 134.612 34.7121C134.612 34.1916 134.484 33.7855 134.227 33.4938C133.976 33.1963 133.632 33.0476 133.193 33.0476C132.76 33.0476 132.415 33.1963 132.159 33.4938C131.903 33.7913 131.774 34.2088 131.774 34.7465C131.774 35.2784 131.903 35.6931 132.159 35.9906C132.415 36.2937 132.76 36.4453 133.193 36.4453ZM136.842 31.8636H136.115V31.0227H136.842V31.8636ZM136.825 36.9601H136.141V32.5328H136.825V36.9601ZM139.887 32.4299C140.376 32.4299 140.758 32.5643 141.032 32.8331C141.305 33.1019 141.442 33.4795 141.442 33.9657V36.9601H140.758V34.0343C140.758 33.3765 140.422 33.0476 139.75 33.0476C139.431 33.0476 139.149 33.1677 138.904 33.408C138.658 33.6482 138.536 33.9972 138.536 34.4547V36.9601H137.852V32.5328H138.502V33.1935C138.838 32.6844 139.299 32.4299 139.887 32.4299ZM146.075 36.4024H146.323V36.9601C146.209 36.9773 146.083 36.9858 145.947 36.9858C145.485 36.9858 145.237 36.7742 145.203 36.3509C144.895 36.8257 144.417 37.0631 143.767 37.0631C143.283 37.0631 142.901 36.9515 142.622 36.7284C142.348 36.4996 142.211 36.1793 142.211 35.7675C142.211 34.9667 142.756 34.5091 143.844 34.3947L144.477 34.326C144.938 34.2746 145.169 34.0715 145.169 33.7169C145.169 33.4709 145.092 33.2936 144.938 33.1849C144.79 33.0762 144.536 33.0219 144.177 33.0219C143.796 33.0219 143.519 33.0877 143.348 33.2192C143.183 33.3451 143.089 33.571 143.066 33.897H142.382C142.44 32.9189 143.038 32.4299 144.177 32.4299C145.283 32.4299 145.836 32.8589 145.836 33.7169V36.1879C145.836 36.3309 145.916 36.4024 146.075 36.4024ZM143.801 36.4796C144.166 36.4796 144.485 36.3681 144.759 36.145C145.032 35.9277 145.169 35.6159 145.169 35.2098V34.6864C145.044 34.7836 144.85 34.8466 144.588 34.8752L143.947 34.9524C143.576 34.9981 143.311 35.0839 143.152 35.2098C142.998 35.3356 142.921 35.5158 142.921 35.7503C142.921 35.9791 142.995 36.1593 143.143 36.2909C143.292 36.4167 143.511 36.4796 143.801 36.4796ZM148.713 37.0631C148.103 37.0631 147.61 36.8514 147.234 36.4281C146.858 36.0049 146.67 35.4443 146.67 34.7465C146.67 34.0372 146.858 33.4738 147.234 33.0562C147.599 32.6386 148.092 32.4299 148.713 32.4299C149.238 32.4299 149.668 32.5729 150.003 32.8589C150.34 33.1448 150.542 33.5367 150.61 34.0343H149.901C149.85 33.7197 149.713 33.4766 149.491 33.305C149.274 33.1334 149.015 33.0476 148.713 33.0476C148.308 33.0476 147.986 33.1963 147.747 33.4938C147.508 33.7855 147.388 34.2031 147.388 34.7465C147.388 35.2842 147.508 35.7017 147.747 35.9991C147.992 36.2966 148.314 36.4453 148.713 36.4453C149.015 36.4453 149.277 36.3567 149.499 36.1793C149.721 36.002 149.858 35.7561 149.909 35.4414H150.61C150.537 35.9391 150.326 36.3338 149.978 36.6255C149.636 36.9172 149.214 37.0631 148.713 37.0631ZM153.375 32.4299C153.866 32.4299 154.247 32.5643 154.521 32.8331C154.794 33.1019 154.931 33.4795 154.931 33.9657V36.9601H154.247V34.0343C154.247 33.3765 153.911 33.0476 153.238 33.0476C152.919 33.0476 152.637 33.1677 152.392 33.408C152.148 33.6482 152.025 33.9972 152.025 34.4547V36.9601H151.341V30.8511H152.025V33.142C152.361 32.6673 152.811 32.4299 153.375 32.4299ZM161.047 36.4281C160.642 36.8514 160.129 37.0631 159.508 37.0631C158.887 37.0631 158.374 36.8514 157.97 36.4281C157.571 36.0106 157.371 35.45 157.371 34.7465C157.371 34.0429 157.571 33.4824 157.97 33.0648C158.374 32.6415 158.887 32.4299 159.508 32.4299C160.129 32.4299 160.642 32.6415 161.047 33.0648C161.445 33.4824 161.645 34.0429 161.645 34.7465C161.645 35.45 161.445 36.0106 161.047 36.4281ZM158.474 35.9906C158.73 36.2937 159.075 36.4453 159.508 36.4453C159.941 36.4453 160.286 36.2937 160.543 35.9906C160.799 35.6931 160.927 35.2784 160.927 34.7465C160.927 34.2088 160.799 33.7913 160.543 33.4938C160.286 33.1963 159.941 33.0476 159.508 33.0476C159.075 33.0476 158.73 33.1963 158.474 33.4938C158.218 33.7913 158.089 34.2088 158.089 34.7465C158.089 35.2784 158.218 35.6931 158.474 35.9906ZM164.494 32.4299C164.984 32.4299 165.366 32.5643 165.639 32.8331C165.913 33.1019 166.05 33.4795 166.05 33.9657V36.9601H165.366V34.0343C165.366 33.3765 165.029 33.0476 164.357 33.0476C164.038 33.0476 163.756 33.1677 163.511 33.408C163.266 33.6482 163.144 33.9972 163.144 34.4547V36.9601H162.46V32.5328H163.109V33.1935C163.445 32.6844 163.907 32.4299 164.494 32.4299ZM170.866 32.4299C171.487 32.4299 171.986 32.6386 172.362 33.0562C172.732 33.4795 172.917 34.0429 172.917 34.7465C172.917 35.4443 172.732 36.0049 172.362 36.4281C171.986 36.8514 171.487 37.0631 170.866 37.0631C170.21 37.0631 169.706 36.7999 169.353 36.2737V36.9601H168.703V30.8511H169.387V33.1677C169.74 32.6759 170.233 32.4299 170.866 32.4299ZM170.78 36.4453C171.208 36.4453 171.55 36.2909 171.806 35.982C172.068 35.6674 172.199 35.2441 172.199 34.7121C172.199 34.1916 172.071 33.7855 171.815 33.4938C171.564 33.1963 171.219 33.0476 170.78 33.0476C170.347 33.0476 170.003 33.1963 169.746 33.4938C169.49 33.7913 169.362 34.2088 169.362 34.7465C169.362 35.2784 169.49 35.6931 169.746 35.9906C170.003 36.2937 170.347 36.4453 170.78 36.4453ZM175.797 32.4642C175.911 32.4642 175.988 32.467 176.027 32.4728V33.1334H175.856C175.401 33.1334 175.044 33.2478 174.788 33.4766C174.537 33.6997 174.412 34.02 174.412 34.4376V36.9601H173.728V32.5328H174.378V33.3136C174.674 32.7473 175.147 32.4642 175.797 32.4642ZM177.367 31.8636H176.641V31.0227H177.367V31.8636ZM177.35 36.9601H176.666V32.5328H177.35V36.9601ZM180.207 37.0631C179.597 37.0631 179.104 36.8514 178.728 36.4281C178.352 36.0049 178.164 35.4443 178.164 34.7465C178.164 34.0372 178.352 33.4738 178.728 33.0562C179.093 32.6386 179.586 32.4299 180.207 32.4299C180.731 32.4299 181.161 32.5729 181.498 32.8589C181.834 33.1448 182.036 33.5367 182.105 34.0343H181.395C181.344 33.7197 181.207 33.4766 180.985 33.305C180.768 33.1334 180.509 33.0476 180.207 33.0476C179.802 33.0476 179.481 33.1963 179.241 33.4938C179.002 33.7855 178.882 34.2031 178.882 34.7465C178.882 35.2842 179.002 35.7017 179.241 35.9991C179.486 36.2966 179.808 36.4453 180.207 36.4453C180.509 36.4453 180.771 36.3567 180.993 36.1793C181.216 36.002 181.352 35.7561 181.404 35.4414H182.105C182.03 35.9391 181.819 36.3338 181.472 36.6255C181.13 36.9172 180.708 37.0631 180.207 37.0631ZM186.587 36.9601H185.793L184.305 34.5834L183.519 35.3213V36.9601H182.835V30.8511H183.519V34.5148L185.562 32.5328H186.468L184.792 34.1287L186.587 36.9601ZM192.231 36.4281C191.827 36.8514 191.314 37.0631 190.693 37.0631C190.072 37.0631 189.559 36.8514 189.154 36.4281C188.756 36.0106 188.556 35.45 188.556 34.7465C188.556 34.0429 188.756 33.4824 189.154 33.0648C189.559 32.6415 190.072 32.4299 190.693 32.4299C191.314 32.4299 191.827 32.6415 192.231 33.0648C192.631 33.4824 192.83 34.0429 192.83 34.7465C192.83 35.45 192.631 36.0106 192.231 36.4281ZM189.659 35.9906C189.915 36.2937 190.26 36.4453 190.693 36.4453C191.126 36.4453 191.471 36.2937 191.727 35.9906C191.984 35.6931 192.112 35.2784 192.112 34.7465C192.112 34.2088 191.984 33.7913 191.727 33.4938C191.471 33.1963 191.126 33.0476 190.693 33.0476C190.26 33.0476 189.915 33.1963 189.659 33.4938C189.402 33.7913 189.274 34.2088 189.274 34.7465C189.274 35.2784 189.402 35.6931 189.659 35.9906ZM195.634 34.4976L196.361 32.5328H197.096L195.36 36.9601H194.642L192.916 32.5328H193.66L194.386 34.5062C194.745 35.4729 194.953 36.0449 195.01 36.2222C195.113 35.9191 195.32 35.3442 195.634 34.4976ZM201.239 34.7465V34.9867H197.889C197.923 35.4672 198.056 35.8304 198.29 36.0764C198.524 36.3166 198.843 36.4367 199.248 36.4367C199.857 36.4367 200.248 36.1622 200.419 35.613H201.128C201.008 36.0592 200.786 36.4138 200.461 36.677C200.137 36.9344 199.726 37.0631 199.231 37.0631C198.62 37.0631 198.128 36.8543 197.752 36.4367C197.37 36.0191 197.179 35.4558 197.179 34.7465C197.179 34.0486 197.367 33.488 197.743 33.0648C198.113 32.6415 198.603 32.4299 199.213 32.4299C199.846 32.4299 200.342 32.6501 200.701 33.0905C201.06 33.5309 201.239 34.083 201.239 34.7465ZM199.213 33.0562C198.854 33.0562 198.561 33.1706 198.333 33.3994C198.105 33.6225 197.962 33.9457 197.906 34.3689H200.504C200.47 33.98 200.338 33.6654 200.111 33.4251C199.883 33.1792 199.584 33.0562 199.213 33.0562ZM204.085 32.4299C204.575 32.4299 204.957 32.5643 205.23 32.8331C205.504 33.1019 205.64 33.4795 205.64 33.9657V36.9601H204.957V34.0343C204.957 33.3765 204.62 33.0476 203.948 33.0476C203.629 33.0476 203.346 33.1677 203.102 33.408C202.857 33.6482 202.734 33.9972 202.734 34.4547V36.9601H202.051V32.5328H202.7V33.1935C203.036 32.6844 203.498 32.4299 204.085 32.4299ZM209.85 37.0631C208.67 37.0631 208.046 36.5597 207.978 35.553H208.67C208.71 35.8848 208.818 36.1221 208.995 36.2651C209.177 36.4024 209.462 36.471 209.85 36.471C210.556 36.471 210.91 36.2422 210.91 35.7846C210.91 35.5845 210.835 35.4329 210.687 35.3299C210.545 35.2269 210.282 35.1383 209.901 35.0639L209.491 34.9867C208.573 34.8151 208.115 34.3804 208.115 33.6825C208.115 33.2993 208.257 32.9961 208.542 32.7731C208.833 32.5442 209.226 32.4299 209.722 32.4299C210.889 32.4299 211.488 32.9189 211.517 33.897H210.833C210.816 33.5768 210.718 33.3508 210.542 33.2192C210.365 33.0877 210.092 33.0219 209.722 33.0219C209.425 33.0219 209.197 33.0791 209.038 33.1935C208.878 33.3079 208.798 33.468 208.798 33.674C208.798 33.8685 208.867 34.0143 209.004 34.1115C209.14 34.2088 209.368 34.2917 209.687 34.3604L210.081 34.4376C210.622 34.5463 211.009 34.7007 211.243 34.9009C211.482 35.1011 211.602 35.3814 211.602 35.7417C211.602 36.1593 211.445 36.4854 211.132 36.7199C210.824 36.9487 210.397 37.0631 209.85 37.0631ZM215.746 36.4281C215.341 36.8514 214.828 37.0631 214.207 37.0631C213.586 37.0631 213.073 36.8514 212.669 36.4281C212.269 36.0106 212.07 35.45 212.07 34.7465C212.07 34.0429 212.269 33.4824 212.669 33.0648C213.073 32.6415 213.586 32.4299 214.207 32.4299C214.828 32.4299 215.341 32.6415 215.746 33.0648C216.145 33.4824 216.344 34.0429 216.344 34.7465C216.344 35.45 216.145 36.0106 215.746 36.4281ZM213.173 35.9906C213.429 36.2937 213.774 36.4453 214.207 36.4453C214.64 36.4453 214.985 36.2937 215.241 35.9906C215.498 35.6931 215.626 35.2784 215.626 34.7465C215.626 34.2088 215.498 33.7913 215.241 33.4938C214.985 33.1963 214.64 33.0476 214.207 33.0476C213.774 33.0476 213.429 33.1963 213.173 33.4938C212.916 33.7913 212.788 34.2088 212.788 34.7465C212.788 35.2784 212.916 35.6931 213.173 35.9906ZM219.94 35.0382V32.5328H220.624V36.9601H219.974V36.2994C219.637 36.8085 219.176 37.0631 218.589 37.0631C218.099 37.0631 217.717 36.9286 217.444 36.6598C217.17 36.391 217.034 36.0135 217.034 35.5272V32.5328H217.717V35.4586C217.717 36.1164 218.053 36.4453 218.726 36.4453C219.045 36.4453 219.327 36.3252 219.572 36.0849C219.817 35.8447 219.94 35.4958 219.94 35.0382ZM223.718 32.4642C223.832 32.4642 223.908 32.467 223.949 32.4728V33.1334H223.778C223.322 33.1334 222.966 33.2478 222.709 33.4766C222.459 33.6997 222.333 34.02 222.333 34.4376V36.9601H221.649V32.5328H222.299V33.3136C222.595 32.7473 223.068 32.4642 223.718 32.4642ZM227.645 33.1677V30.8511H228.329V36.9601H227.679V36.2737C227.326 36.7999 226.822 37.0631 226.166 37.0631C225.546 37.0631 225.05 36.8514 224.679 36.4281C224.303 36.0049 224.115 35.4443 224.115 34.7465C224.115 34.0372 224.303 33.4738 224.679 33.0562C225.044 32.6386 225.54 32.4299 226.166 32.4299C226.799 32.4299 227.292 32.6759 227.645 33.1677ZM224.833 34.7808C224.833 35.307 224.961 35.716 225.218 36.0077C225.474 36.2994 225.819 36.4453 226.252 36.4453C226.685 36.4453 227.03 36.2937 227.286 35.9906C227.542 35.6931 227.671 35.2784 227.671 34.7465C227.671 34.2202 227.542 33.8055 227.286 33.5024C227.03 33.1992 226.685 33.0476 226.252 33.0476C225.824 33.0476 225.48 33.2049 225.218 33.5195C224.961 33.8284 224.833 34.2488 224.833 34.7808ZM232.816 36.4281C232.411 36.8514 231.898 37.0631 231.277 37.0631C230.656 37.0631 230.143 36.8514 229.739 36.4281C229.339 36.0106 229.14 35.45 229.14 34.7465C229.14 34.0429 229.339 33.4824 229.739 33.0648C230.143 32.6415 230.656 32.4299 231.277 32.4299C231.898 32.4299 232.411 32.6415 232.816 33.0648C233.215 33.4824 233.414 34.0429 233.414 34.7465C233.414 35.45 233.215 36.0106 232.816 36.4281ZM230.243 35.9906C230.499 36.2937 230.844 36.4453 231.277 36.4453C231.71 36.4453 232.055 36.2937 232.311 35.9906C232.568 35.6931 232.696 35.2784 232.696 34.7465C232.696 34.2088 232.568 33.7913 232.311 33.4938C232.055 33.1963 231.71 33.0476 231.277 33.0476C230.844 33.0476 230.499 33.1963 230.243 33.4938C229.986 33.7913 229.858 34.2088 229.858 34.7465C229.858 35.2784 229.986 35.6931 230.243 35.9906ZM237.01 35.0382V32.5328H237.694V36.9601H237.044V36.2994C236.707 36.8085 236.246 37.0631 235.659 37.0631C235.169 37.0631 234.787 36.9286 234.514 36.6598C234.24 36.391 234.104 36.0135 234.104 35.5272V32.5328H234.787V35.4586C234.787 36.1164 235.123 36.4453 235.796 36.4453C236.115 36.4453 236.397 36.3252 236.642 36.0849C236.887 35.8447 237.01 35.4958 237.01 35.0382ZM242.07 33.1763V32.5328H242.72V36.7885C242.72 37.3949 242.543 37.8724 242.19 38.2214C241.837 38.5703 241.329 38.7447 240.668 38.7447C240.121 38.7447 239.683 38.6189 239.352 38.3672C239.021 38.1156 238.833 37.7666 238.788 37.3205H239.471C239.557 37.881 239.956 38.1613 240.668 38.1613C241.58 38.1613 242.036 37.7037 242.036 36.7885V36.3595C241.688 36.8286 241.195 37.0631 240.557 37.0631C239.936 37.0631 239.44 36.8514 239.07 36.4281C238.694 36.0049 238.506 35.4443 238.506 34.7465C238.506 34.0372 238.694 33.4738 239.07 33.0562C239.435 32.6386 239.93 32.4299 240.557 32.4299C241.213 32.4299 241.717 32.6787 242.07 33.1763ZM240.642 36.4453C241.076 36.4453 241.42 36.2937 241.677 35.9906C241.933 35.6874 242.061 35.2727 242.061 34.7465C242.061 34.2202 241.933 33.8055 241.677 33.5024C241.42 33.1992 241.076 33.0476 240.642 33.0476C240.215 33.0476 239.871 33.2021 239.608 33.5109C239.352 33.8198 239.224 34.2317 239.224 34.7465C239.224 35.2613 239.352 35.6731 239.608 35.982C239.871 36.2909 240.215 36.4453 240.642 36.4453ZM245.779 32.4299C246.269 32.4299 246.651 32.5643 246.924 32.8331C247.198 33.1019 247.335 33.4795 247.335 33.9657V36.9601H246.651V34.0343C246.651 33.3765 246.314 33.0476 245.642 33.0476C245.323 33.0476 245.04 33.1677 244.796 33.408C244.551 33.6482 244.428 33.9972 244.428 34.4547V36.9601H243.745V30.8511H244.428V33.142C244.764 32.6673 245.215 32.4299 245.779 32.4299ZM18.3983 47.072L19.0223 45.0728H19.7574L18.2872 49.5001H17.5692L16.9196 47.4495C16.6973 46.723 16.5492 46.2225 16.4751 45.948C16.3441 46.417 16.193 46.9175 16.0221 47.4495L15.381 49.5001H14.663L13.1929 45.0728H13.928L14.5519 47.072C14.7058 47.5582 14.8654 48.0958 15.0306 48.685C15.2129 48.0329 15.3697 47.4952 15.5007 47.072L16.1161 45.0728H16.8341L17.4495 47.072C17.763 48.1187 17.9225 48.6507 17.9282 48.6678C17.9738 48.4905 18.1305 47.9585 18.3983 47.072ZM20.9748 44.4036H20.2483V43.5627H20.9748V44.4036ZM20.9577 49.5001H20.2739V45.0728H20.9577V49.5001ZM23.9168 45.0728V45.6734H23.0108V48.5477C23.0108 48.7994 23.1789 48.9252 23.5151 48.9252H23.9168V49.5001C23.7288 49.5173 23.5664 49.5258 23.4296 49.5258C22.6945 49.5258 22.327 49.2198 22.327 48.6078V45.6734H21.6005V45.0728H22.327V43.8201H23.0108V45.0728H23.9168ZM26.6738 44.9699C27.1639 44.9699 27.5456 45.1043 27.8192 45.3731C28.0927 45.6419 28.2294 46.0195 28.2294 46.5057V49.5001H27.5456V46.5743C27.5456 45.9165 27.2095 45.5876 26.537 45.5876C26.2179 45.5876 25.9359 45.7077 25.6908 45.948C25.4458 46.1882 25.3233 46.5372 25.3233 46.9947V49.5001H24.6395V43.3911H25.3233V45.682C25.6595 45.2073 26.1097 44.9699 26.6738 44.9699ZM32.9175 44.9699C33.4076 44.9699 33.7893 45.1043 34.0628 45.3731C34.3364 45.6419 34.4731 46.0195 34.4731 46.5057V49.5001H33.7893V46.5743C33.7893 45.9165 33.4531 45.5876 32.7807 45.5876C32.4616 45.5876 32.1796 45.7077 31.9345 45.948C31.6895 46.1882 31.567 46.5372 31.567 46.9947V49.5001H30.8832V43.3911H31.567V45.682C31.9032 45.2073 32.3533 44.9699 32.9175 44.9699ZM38.9609 48.9681C38.5563 49.3914 38.0435 49.6031 37.4223 49.6031C36.8013 49.6031 36.2884 49.3914 35.8838 48.9681C35.4849 48.5506 35.2855 47.99 35.2855 47.2865C35.2855 46.5829 35.4849 46.0224 35.8838 45.6048C36.2884 45.1815 36.8013 44.9699 37.4223 44.9699C38.0435 44.9699 38.5563 45.1815 38.9609 45.6048C39.3598 46.0224 39.5592 46.5829 39.5592 47.2865C39.5592 47.99 39.3598 48.5506 38.9609 48.9681ZM36.3881 48.5306C36.6445 48.8337 36.9893 48.9853 37.4223 48.9853C37.8554 48.9853 38.2002 48.8337 38.4566 48.5306C38.713 48.2331 38.8412 47.8184 38.8412 47.2865C38.8412 46.7488 38.713 46.3312 38.4566 46.0338C38.2002 45.7363 37.8554 45.5876 37.4223 45.5876C36.9893 45.5876 36.6445 45.7363 36.3881 46.0338C36.1317 46.3312 36.0035 46.7488 36.0035 47.2865C36.0035 47.8184 36.1317 48.2331 36.3881 48.5306ZM43.1549 47.5782V45.0728H43.8387V49.5001H43.1891V48.8394C42.8528 49.3485 42.3913 49.6031 41.8044 49.6031C41.3143 49.6031 40.9325 49.4686 40.659 49.1998C40.3855 48.931 40.2487 48.5535 40.2487 48.0672V45.0728H40.9325V47.9986C40.9325 48.6564 41.2687 48.9853 41.9411 48.9853C42.2602 48.9853 42.5423 48.8652 42.7873 48.6249C43.0323 48.3847 43.1549 48.0358 43.1549 47.5782ZM46.4204 49.6031C45.2408 49.6031 44.6168 49.0997 44.5484 48.093H45.2408C45.2806 48.4248 45.3889 48.6621 45.5656 48.8051C45.7479 48.9424 46.0328 49.011 46.4204 49.011C47.1269 49.011 47.4802 48.7822 47.4802 48.3246C47.4802 48.1245 47.4061 47.9729 47.258 47.8699C47.1155 47.7669 46.8534 47.6783 46.4716 47.6039L46.0614 47.5267C45.1439 47.3551 44.6852 46.9204 44.6852 46.2225C44.6852 45.8393 44.8276 45.5361 45.1126 45.3131C45.4032 45.0842 45.7964 44.9699 46.2921 44.9699C47.4603 44.9699 48.0586 45.4589 48.0871 46.437H47.4033C47.3862 46.1167 47.2893 45.8908 47.1127 45.7592C46.936 45.6277 46.6625 45.5619 46.2921 45.5619C45.9958 45.5619 45.7678 45.6191 45.6083 45.7335C45.4488 45.8479 45.369 46.008 45.369 46.214C45.369 46.4085 45.4374 46.5543 45.5742 46.6515C45.7109 46.7488 45.9388 46.8317 46.258 46.9004L46.6511 46.9776C47.1925 47.0863 47.5799 47.2407 47.8136 47.4409C48.0529 47.6411 48.1726 47.9214 48.1726 48.2817C48.1726 48.6993 48.0158 49.0254 47.7025 49.2599C47.3948 49.4887 46.9674 49.6031 46.4204 49.6031ZM52.701 47.2865V47.5267H49.3504C49.3846 48.0072 49.5185 48.3704 49.7521 48.6164C49.9858 48.8566 50.3049 48.9767 50.7094 48.9767C51.3192 48.9767 51.7095 48.7022 51.8804 48.153H52.5899C52.4702 48.5992 52.248 48.9538 51.9232 49.217C51.5984 49.4744 51.1881 49.6031 50.6923 49.6031C50.0826 49.6031 49.5897 49.3943 49.2136 48.9767C48.8319 48.5591 48.6409 47.9958 48.6409 47.2865C48.6409 46.5887 48.829 46.028 49.2051 45.6048C49.5755 45.1815 50.0655 44.9699 50.6752 44.9699C51.3078 44.9699 51.8035 45.1901 52.1625 45.6305C52.5215 46.0709 52.701 46.623 52.701 47.2865ZM50.6752 45.5962C50.3162 45.5962 50.0228 45.7106 49.7948 45.9394C49.567 46.1625 49.4245 46.4857 49.3675 46.9089H51.9659C51.9317 46.52 51.8007 46.2054 51.5727 45.9651C51.3448 45.7192 51.0457 45.5962 50.6752 45.5962ZM59.7813 44.9699C60.26 44.9699 60.6304 45.11 60.8925 45.3903C61.1603 45.6648 61.2943 46.0338 61.2943 46.4971V49.5001H60.6105V46.5657C60.6105 45.9137 60.3027 45.5876 59.6873 45.5876C59.3625 45.5876 59.0918 45.7192 58.8753 45.9823C58.6644 46.2397 58.5591 46.6058 58.5591 47.0805V49.5001H57.8753V46.5657C57.8753 45.9137 57.5675 45.5876 56.9521 45.5876C56.633 45.5876 56.3652 45.7192 56.1487 45.9823C55.9321 46.2397 55.8239 46.6058 55.8239 47.0805V49.5001H55.1401V45.0728H55.7897V45.7249C56.0803 45.2215 56.5048 44.9699 57.0632 44.9699C57.7242 44.9699 58.1772 45.2473 58.4223 45.8021C58.73 45.2473 59.183 44.9699 59.7813 44.9699ZM65.9257 48.9424H66.1736V49.5001C66.0598 49.5173 65.9342 49.5258 65.7975 49.5258C65.3359 49.5258 65.088 49.3142 65.0538 48.8909C64.7461 49.3657 64.2675 49.6031 63.6179 49.6031C63.1335 49.6031 62.7517 49.4915 62.4725 49.2684C62.199 49.0396 62.0622 48.7193 62.0622 48.3075C62.0622 47.5067 62.6064 47.0491 63.6948 46.9347L64.3273 46.866C64.7889 46.8146 65.0196 46.6115 65.0196 46.2569C65.0196 46.0109 64.9427 45.8336 64.7889 45.7249C64.6407 45.6162 64.3871 45.5619 64.0281 45.5619C63.6463 45.5619 63.37 45.6277 63.199 45.7592C63.0337 45.8851 62.9397 46.111 62.917 46.437H62.2332C62.2901 45.4589 62.8884 44.9699 64.0281 44.9699C65.1336 44.9699 65.6864 45.3989 65.6864 46.2569V48.7279C65.6864 48.8709 65.7659 48.9424 65.9257 48.9424ZM63.652 49.0196C64.0167 49.0196 64.3358 48.9081 64.6094 48.685C64.8829 48.4677 65.0196 48.1559 65.0196 47.7498V47.2264C64.8943 47.3236 64.7005 47.3866 64.4384 47.4152L63.7974 47.4924C63.4269 47.5381 63.1619 47.6239 63.0024 47.7498C62.8486 47.8756 62.7717 48.0558 62.7717 48.2903C62.7717 48.5191 62.8457 48.6993 62.9939 48.8309C63.142 48.9567 63.3614 49.0196 63.652 49.0196ZM70.0508 45.7077V43.3911H70.7346V49.5001H70.085V48.8137C69.7313 49.3399 69.227 49.6031 68.5721 49.6031C67.9508 49.6031 67.455 49.3914 67.0849 48.9681C66.7088 48.5449 66.5207 47.9843 66.5207 47.2865C66.5207 46.5772 66.7088 46.0138 67.0849 45.5962C67.4491 45.1786 67.9449 44.9699 68.5721 44.9699C69.2046 44.9699 69.6971 45.2158 70.0508 45.7077ZM67.2387 47.3208C67.2387 47.847 67.3669 48.256 67.6233 48.5477C67.8798 48.8394 68.2243 48.9853 68.6576 48.9853C69.0902 48.9853 69.4354 48.8337 69.6918 48.5306C69.9483 48.2331 70.0765 47.8184 70.0765 47.2865C70.0765 46.7603 69.9483 46.3455 69.6918 46.0424C69.4354 45.7392 69.0902 45.5876 68.6576 45.5876C68.2302 45.5876 67.885 45.7449 67.6233 46.0595C67.3669 46.3684 67.2387 46.7888 67.2387 47.3208ZM75.6054 47.2865V47.5267H72.2548C72.289 48.0072 72.4231 48.3704 72.6565 48.6164C72.8906 48.8566 73.2095 48.9767 73.6138 48.9767C74.224 48.9767 74.6139 48.7022 74.7848 48.153H75.4943C75.3746 48.5992 75.1524 48.9538 74.8276 49.217C74.5028 49.4744 74.0925 49.6031 73.5967 49.6031C72.9872 49.6031 72.4941 49.3943 72.118 48.9767C71.7367 48.5591 71.5453 47.9958 71.5453 47.2865C71.5453 46.5887 71.7334 46.028 72.1095 45.6048C72.4803 45.1815 72.9701 44.9699 73.5796 44.9699C74.2122 44.9699 74.7079 45.1901 75.0669 45.6305C75.4259 46.0709 75.6054 46.623 75.6054 47.2865ZM73.5796 45.5962C73.2206 45.5962 72.9274 45.7106 72.6992 45.9394C72.4718 46.1625 72.3291 46.4857 72.2719 46.9089H74.8703C74.8361 46.52 74.7053 46.2054 74.4771 45.9651C74.2496 45.7192 73.9505 45.5962 73.5796 45.5962ZM80.079 44.9699C80.5689 44.9699 80.9509 45.1043 81.2244 45.3731C81.4979 45.6419 81.6347 46.0195 81.6347 46.5057V49.5001H80.9509V46.5743C80.9509 45.9165 80.6149 45.5876 79.9423 45.5876C79.6234 45.5876 79.3413 45.7077 79.0961 45.948C78.8508 46.1882 78.7285 46.5372 78.7285 46.9947V49.5001H78.0447V43.3911H78.7285V45.682C79.0645 45.2073 79.5149 44.9699 80.079 44.9699ZM86.1221 48.9681C85.7177 49.3914 85.2049 49.6031 84.5836 49.6031C83.9629 49.6031 83.45 49.3914 83.045 48.9681C82.6466 48.5506 82.4467 47.99 82.4467 47.2865C82.4467 46.5829 82.6466 46.0224 83.045 45.6048C83.45 45.1815 83.9629 44.9699 84.5836 44.9699C85.2049 44.9699 85.7177 45.1815 86.1221 45.6048C86.5212 46.0224 86.7204 46.5829 86.7204 47.2865C86.7204 47.99 86.5212 48.5506 86.1221 48.9681ZM83.5493 48.5306C83.8057 48.8337 84.1509 48.9853 84.5836 48.9853C85.0168 48.9853 85.3614 48.8337 85.6178 48.5306C85.8742 48.2331 86.0024 47.8184 86.0024 47.2865C86.0024 46.7488 85.8742 46.3312 85.6178 46.0338C85.3614 45.7363 85.0168 45.5876 84.5836 45.5876C84.1509 45.5876 83.8057 45.7363 83.5493 46.0338C83.2929 46.3312 83.1647 46.7488 83.1647 47.2865C83.1647 47.8184 83.2929 48.2331 83.5493 48.5306ZM88.2195 49.5001H87.5357V43.3911H88.2195V49.5001ZM89.9304 49.5001H89.2465V43.3911H89.9304V49.5001ZM94.5651 48.9424H94.8129V49.5001C94.6985 49.5173 94.5736 49.5258 94.4369 49.5258C93.9753 49.5258 93.7274 49.3142 93.6932 48.8909C93.3855 49.3657 92.9069 49.6031 92.2572 49.6031C91.7727 49.6031 91.3907 49.4915 91.1119 49.2684C90.8384 49.0396 90.7016 48.7193 90.7016 48.3075C90.7016 47.5067 91.2454 47.0491 92.3342 46.9347L92.9667 46.866C93.4282 46.8146 93.659 46.6115 93.659 46.2569C93.659 46.0109 93.5821 45.8336 93.4282 45.7249C93.2796 45.6162 93.0265 45.5619 92.6675 45.5619C92.2855 45.5619 92.0094 45.6277 91.8384 45.7592C91.6727 45.8851 91.5787 46.111 91.5563 46.437H90.8725C90.9291 45.4589 91.5274 44.9699 92.6675 44.9699C93.7728 44.9699 94.3257 45.3989 94.3257 46.2569V48.7279C94.3257 48.8709 94.4053 48.9424 94.5651 48.9424ZM92.2914 49.0196C92.6557 49.0196 92.9752 48.9081 93.2487 48.685C93.5223 48.4677 93.659 48.1559 93.659 47.7498V47.2264C93.5335 47.3236 93.3395 47.3866 93.0778 47.4152L92.4367 47.4924C92.0659 47.5381 91.8009 47.6239 91.6418 47.7498C91.488 47.8756 91.411 48.0558 91.411 48.2903C91.411 48.5191 91.4847 48.6993 91.6333 48.8309C91.7812 48.9567 92.0008 49.0196 92.2914 49.0196ZM97.4495 44.9699C97.9394 44.9699 98.3214 45.1043 98.5949 45.3731C98.8684 45.6419 99.0052 46.0195 99.0052 46.5057V49.5001H98.3214V46.5743C98.3214 45.9165 97.9854 45.5876 97.3128 45.5876C96.9939 45.5876 96.7118 45.7077 96.4666 45.948C96.2213 46.1882 96.099 46.5372 96.099 46.9947V49.5001H95.4152V45.0728H96.0648V45.7335C96.4008 45.2244 96.8624 44.9699 97.4495 44.9699ZM103.347 45.7077V43.3911H104.031V49.5001H103.381V48.8137C103.028 49.3399 102.524 49.6031 101.869 49.6031C101.248 49.6031 100.752 49.3914 100.381 48.9681C100.005 48.5449 99.8172 47.9843 99.8172 47.2865C99.8172 46.5772 100.005 46.0138 100.381 45.5962C100.746 45.1786 101.242 44.9699 101.869 44.9699C102.501 44.9699 102.994 45.2158 103.347 45.7077ZM100.535 47.3208C100.535 47.847 100.663 48.256 100.92 48.5477C101.176 48.8394 101.521 48.9853 101.954 48.9853C102.387 48.9853 102.732 48.8337 102.988 48.5306C103.245 48.2331 103.373 47.8184 103.373 47.2865C103.373 46.7603 103.245 46.3455 102.988 46.0424C102.732 45.7392 102.387 45.5876 101.954 45.5876C101.527 45.5876 101.182 45.7449 100.92 46.0595C100.663 46.3684 100.535 46.7888 100.535 47.3208ZM108.663 48.9424H108.911V49.5001C108.797 49.5173 108.672 49.5258 108.535 49.5258C108.073 49.5258 107.826 49.3142 107.791 48.8909C107.484 49.3657 107.005 49.6031 106.355 49.6031C105.871 49.6031 105.489 49.4915 105.21 49.2684C104.936 49.0396 104.8 48.7193 104.8 48.3075C104.8 47.5067 105.344 47.0491 106.432 46.9347L107.065 46.866C107.526 46.8146 107.757 46.6115 107.757 46.2569C107.757 46.0109 107.68 45.8336 107.526 45.7249C107.378 45.6162 107.125 45.5619 106.766 45.5619C106.384 45.5619 106.107 45.6277 105.937 45.7592C105.771 45.8851 105.677 46.111 105.654 46.437H104.971C105.028 45.4589 105.626 44.9699 106.766 44.9699C107.871 44.9699 108.424 45.3989 108.424 46.2569V48.7279C108.424 48.8709 108.503 48.9424 108.663 48.9424ZM106.39 49.0196C106.754 49.0196 107.073 48.9081 107.347 48.685C107.62 48.4677 107.757 48.1559 107.757 47.7498V47.2264C107.632 47.3236 107.438 47.3866 107.176 47.4152L106.535 47.4924C106.165 47.5381 105.9 47.6239 105.74 47.7498C105.586 47.8756 105.509 48.0558 105.509 48.2903C105.509 48.5191 105.583 48.6993 105.731 48.8309C105.879 48.9567 106.099 49.0196 106.39 49.0196ZM110.173 44.4036H109.446V43.5627H110.173V44.4036ZM110.156 49.5001H109.472V45.0728H110.156V49.5001ZM112.738 49.6031C111.559 49.6031 110.935 49.0997 110.866 48.093H111.559C111.599 48.4248 111.707 48.6621 111.884 48.8051C112.066 48.9424 112.351 49.011 112.738 49.011C113.445 49.011 113.798 48.7822 113.798 48.3246C113.798 48.1245 113.725 47.9729 113.576 47.8699C113.434 47.7669 113.172 47.6783 112.79 47.6039L112.379 47.5267C111.462 47.3551 111.003 46.9204 111.003 46.2225C111.003 45.8393 111.146 45.5361 111.431 45.3131C111.721 45.0842 112.114 44.9699 112.61 44.9699C113.779 44.9699 114.377 45.4589 114.405 46.437H113.721C113.704 46.1167 113.608 45.8908 113.431 45.7592C113.255 45.6277 112.981 45.5619 112.61 45.5619C112.314 45.5619 112.086 45.6191 111.926 45.7335C111.767 45.8479 111.687 46.008 111.687 46.214C111.687 46.4085 111.755 46.5543 111.892 46.6515C112.029 46.7488 112.257 46.8317 112.576 46.9004L112.969 46.9776C113.511 47.0863 113.898 47.2407 114.132 47.4409C114.371 47.6411 114.491 47.9214 114.491 48.2817C114.491 48.6993 114.334 49.0254 114.02 49.2599C113.713 49.4887 113.285 49.6031 112.738 49.6031ZM119.019 47.2865V47.5267H115.669C115.703 48.0072 115.837 48.3704 116.071 48.6164C116.304 48.8566 116.623 48.9767 117.028 48.9767C117.637 48.9767 118.028 48.7022 118.199 48.153H118.908C118.789 48.5992 118.566 48.9538 118.242 49.217C117.917 49.4744 117.507 49.6031 117.011 49.6031C116.401 49.6031 115.908 49.3943 115.532 48.9767C115.15 48.5591 114.959 47.9958 114.959 47.2865C114.959 46.5887 115.147 46.028 115.524 45.6048C115.894 45.1815 116.384 44.9699 116.994 44.9699C117.626 44.9699 118.122 45.1901 118.481 45.6305C118.84 46.0709 119.019 46.623 119.019 47.2865ZM116.994 45.5962C116.635 45.5962 116.341 45.7106 116.113 45.9394C115.885 46.1625 115.742 46.4857 115.686 46.9089H118.284C118.25 46.52 118.119 46.2054 117.891 45.9651C117.663 45.7192 117.364 45.5962 116.994 45.5962Z" fill="#8D8D93"/>
<path d="M257.74 0.330078H5.26011C2.53665 0.330078 0.328857 2.54627 0.328857 5.28008V60.7201C0.328857 63.4539 2.53665 65.6701 5.26011 65.6701H257.74C260.464 65.6701 262.671 63.4539 262.671 60.7201V5.28008C262.671 2.54627 260.464 0.330078 257.74 0.330078Z" stroke="#F9FE17"/>
</g>
<defs>
<clipPath id="clip0">
<rect width="263" height="66" fill="white"/>
</clipPath>
</defs>
</svg>
