<svg width="255" height="186" viewBox="0 0 255 186" fill="none" xmlns="http://www.w3.org/2000/svg">
<g clip-path="url(#clip0)">
<g filter="url(#filter0_d)">
<path d="M6.26538 9.95562C6.26538 6.51921 9.07051 3.7334 12.5307 3.7334H242.469C245.93 3.7334 248.735 6.51921 248.735 9.95562V41.0667C248.735 44.5032 245.93 47.289 242.469 47.289H12.5307C9.07051 47.289 6.26538 44.5032 6.26538 41.0667V9.95562Z" fill="white"/>
<path d="M37.3141 21.437C36.5773 22.1986 35.6074 22.5794 34.4045 22.5794C33.2015 22.5794 32.2317 22.1986 31.4949 21.437C30.7581 20.6679 30.3896 19.6599 30.3896 18.413C30.3896 17.166 30.7581 16.158 31.4949 15.389C32.2317 14.6274 33.2015 14.2466 34.4045 14.2466C35.6074 14.2466 36.5773 14.6274 37.3141 15.389C38.0434 16.1431 38.408 17.1511 38.408 18.413C38.408 19.6748 38.0434 20.6828 37.3141 21.437ZM31.9798 18.413C31.9798 19.2866 32.2016 19.9773 32.6452 20.485C33.0888 20.9927 33.6752 21.2466 34.4045 21.2466C35.1413 21.2466 35.7315 20.9927 36.1751 20.485C36.6111 19.9847 36.8292 19.294 36.8292 18.413C36.8292 17.5319 36.6111 16.8412 36.1751 16.341C35.7315 15.8332 35.1413 15.5794 34.4045 15.5794C33.6752 15.5794 33.0888 15.8332 32.6452 16.341C32.2016 16.8487 31.9798 17.5394 31.9798 18.413ZM42.4181 16.5314C42.5459 16.5314 42.6625 16.5388 42.7677 16.5538V17.853H42.4069C41.8655 17.853 41.4483 17.9911 41.155 18.2674C40.8693 18.5362 40.7265 18.9356 40.7265 19.4658V22.4002H39.3055V16.621H40.6814V17.6514C41.0047 16.9047 41.5836 16.5314 42.4181 16.5314ZM47.4205 17.3714V14.4258H48.8414V22.4002H47.4656V21.5938C47.037 22.221 46.4243 22.5346 45.6273 22.5346C44.8228 22.5346 44.1875 22.2583 43.7214 21.7058C43.2477 21.1532 43.0109 20.4215 43.0109 19.5106C43.0109 18.5847 43.2477 17.8492 43.7214 17.3042C44.18 16.7591 44.8153 16.4866 45.6273 16.4866C46.4092 16.4866 47.0069 16.7815 47.4205 17.3714ZM44.4657 19.5554C44.4657 20.1527 44.5973 20.6044 44.8604 20.9106C45.1236 21.2167 45.4882 21.3698 45.9544 21.3698C46.4205 21.3698 46.7889 21.2092 47.0596 20.8882C47.3227 20.5671 47.4543 20.1079 47.4543 19.5106C47.4543 18.9132 47.3227 18.454 47.0596 18.133C46.7964 17.8119 46.428 17.6514 45.9544 17.6514C45.4957 17.6514 45.1311 17.8194 44.8604 18.1554C44.5973 18.4914 44.4657 18.958 44.4657 19.5554ZM55.4806 19.6114V19.9474H51.1275C51.1801 20.4402 51.3342 20.8135 51.5899 21.0674C51.853 21.3138 52.2026 21.437 52.6387 21.437C53.2853 21.437 53.7289 21.1607 53.9694 20.6082H55.334C55.1837 21.198 54.8679 21.6684 54.3867 22.0194C53.9055 22.3629 53.3191 22.5346 52.6274 22.5346C51.7628 22.5346 51.0636 22.2583 50.5298 21.7058C49.996 21.1532 49.729 20.4215 49.729 19.5106C49.729 18.5996 49.9922 17.8679 50.5185 17.3154C51.0523 16.7628 51.7477 16.4866 52.6048 16.4866C53.4845 16.4866 54.1837 16.774 54.7025 17.349C55.2213 17.9239 55.4806 18.678 55.4806 19.6114ZM52.5936 17.5842C51.759 17.5842 51.2741 18.0434 51.1388 18.9618H54.0597C53.9995 18.5362 53.8416 18.2002 53.586 17.9538C53.3304 17.7074 52.9996 17.5842 52.5936 17.5842ZM59.5108 16.5314C59.6387 16.5314 59.7552 16.5388 59.8604 16.5538V17.853H59.4996C58.9582 17.853 58.541 17.9911 58.2477 18.2674C57.962 18.5362 57.8192 18.9356 57.8192 19.4658V22.4002H56.3982V16.621H57.7741V17.6514C58.0974 16.9047 58.6763 16.5314 59.5108 16.5314ZM69.9165 16.509L69.6797 17.6626H68.6196L68.3151 19.1634H69.3752L69.1384 20.317H68.0783L67.6497 22.4002H66.3415L66.7701 20.317H65.2025L64.7739 22.4002H63.4657L63.8943 20.317H62.8454L63.0823 19.1634H64.1311L64.4356 17.6626H63.3868L63.6236 16.509H64.6724L65.101 14.4258H66.4092L65.9806 16.509H67.5482L67.9768 14.4258H69.285L68.8564 16.509H69.9165ZM65.4393 19.1634H67.0069L67.3114 17.6626H65.7438L65.4393 19.1634ZM72.3494 21.1234H76.4883V22.4002H70.6464L70.6803 21.8066C70.7103 21.1943 70.8382 20.6455 71.0637 20.1602C71.3419 19.5554 71.9171 19.0551 72.7892 18.6594L73.5786 18.2562C74.0448 18.0322 74.3756 17.8044 74.5711 17.573C74.7665 17.3415 74.8643 17.054 74.8643 16.7106C74.8643 16.3447 74.7477 16.0572 74.5147 15.8482C74.2816 15.6316 73.9583 15.5234 73.5448 15.5234C72.62 15.5234 72.1576 16.0087 72.1576 16.9794H70.6916C70.684 16.1207 70.9284 15.4524 71.4246 14.9746C71.9283 14.4892 72.6501 14.2466 73.5899 14.2466C74.4545 14.2466 75.1387 14.4631 75.6424 14.8962C76.1462 15.3292 76.398 15.8967 76.398 16.5986C76.398 17.2034 76.2289 17.7186 75.8905 18.1442C75.5522 18.5623 75.0146 18.9543 74.2778 19.3202L73.5335 19.7122C73.1125 19.9362 72.8155 20.149 72.6426 20.3506C72.4772 20.5447 72.3794 20.8023 72.3494 21.1234ZM76.7965 15.7026V14.4258H82.2887V15.6354C81.379 16.5911 80.7211 17.5916 80.3151 18.637C79.8941 19.7122 79.6723 20.9666 79.6498 22.4002H78.0709C78.116 19.8242 79.0032 17.5916 80.7324 15.7026H76.7965ZM87.3004 18.1442C87.7214 18.3234 88.0522 18.5847 88.2928 18.9282C88.5409 19.2642 88.665 19.6599 88.665 20.1154C88.665 20.8546 88.3943 21.4482 87.853 21.8962C87.3041 22.3516 86.5711 22.5794 85.6539 22.5794C84.6314 22.5794 83.8494 22.333 83.3081 21.8402C82.7743 21.3399 82.5074 20.6455 82.5074 19.757H83.9848C84.0073 20.7874 84.5486 21.3026 85.6087 21.3026C86.0674 21.3026 86.4282 21.1906 86.6914 20.9666C86.9545 20.7426 87.0861 20.4402 87.0861 20.0594C87.0861 19.6487 86.9508 19.3314 86.6801 19.1074C86.4095 18.8834 86.0335 18.7714 85.5524 18.7714H84.9546V17.6626H85.5411C86.4809 17.6626 86.9508 17.293 86.9508 16.5538C86.9508 16.2178 86.8305 15.9564 86.5899 15.7698C86.3493 15.5756 86.0185 15.4786 85.5975 15.4786C84.6877 15.4786 84.2103 15.9004 84.1652 16.7442H82.6991C82.7141 15.9452 82.9698 15.3292 83.466 14.8962C83.9697 14.4631 84.684 14.2466 85.6087 14.2466C86.4734 14.2466 87.1575 14.4444 87.6613 14.8402C88.1725 15.2284 88.4282 15.7586 88.4282 16.4306C88.4282 17.1922 88.0522 17.7634 87.3004 18.1442Z" fill="black"/>
<path d="M220.75 18.1442C221.171 18.3234 221.502 18.5847 221.742 18.9282C221.99 19.2642 222.114 19.6599 222.114 20.1154C222.114 20.8546 221.844 21.4482 221.302 21.8962C220.754 22.3516 220.021 22.5794 219.103 22.5794C218.081 22.5794 217.299 22.333 216.758 21.8402C216.224 21.3399 215.957 20.6455 215.957 19.757H217.434C217.457 20.7874 217.998 21.3026 219.058 21.3026C219.517 21.3026 219.878 21.1906 220.141 20.9666C220.404 20.7426 220.536 20.4402 220.536 20.0594C220.536 19.6487 220.4 19.3314 220.13 19.1074C219.859 18.8834 219.483 18.7714 219.002 18.7714H218.404V17.6626H218.99C219.93 17.6626 220.4 17.293 220.4 16.5538C220.4 16.2178 220.28 15.9564 220.039 15.7698C219.799 15.5756 219.468 15.4786 219.047 15.4786C218.137 15.4786 217.66 15.9004 217.615 16.7442H216.149C216.164 15.9452 216.419 15.3292 216.915 14.8962C217.419 14.4631 218.133 14.2466 219.058 14.2466C219.923 14.2466 220.607 14.4444 221.111 14.8402C221.622 15.2284 221.878 15.7586 221.878 16.4306C221.878 17.1922 221.502 17.7634 220.75 18.1442ZM228.119 19.2866H229.19V20.5634H228.119V22.4002H226.597V20.5634H222.695V19.1298L226.45 14.4258H228.119V19.2866ZM226.63 19.2866V16.0498L224.048 19.2866H226.63ZM232.55 19.5442C232.55 20.1042 232.294 20.6044 231.783 21.045H235.595V22.4002H229.877V21.1682C230.283 20.9666 230.576 20.7463 230.757 20.5074C230.945 20.261 231.039 19.9623 231.039 19.6114C231.039 19.4471 231.016 19.2866 230.971 19.1298H229.697V18.3122H230.655C230.655 18.3047 230.637 18.2636 230.599 18.189C230.261 17.4722 230.091 16.901 230.091 16.4754C230.091 15.7959 230.34 15.2546 230.836 14.8514C231.317 14.4482 231.967 14.2466 232.787 14.2466C233.689 14.2466 234.373 14.4668 234.839 14.9074C235.305 15.3479 235.557 15.9788 235.595 16.8002H234.118C234.095 16.3596 233.978 16.0311 233.768 15.8146C233.557 15.598 233.223 15.4898 232.764 15.4898C232.403 15.4898 232.125 15.5794 231.93 15.7586C231.734 15.9303 231.636 16.1692 231.636 16.4754C231.636 16.7442 231.768 17.1698 232.031 17.7522C232.091 17.9015 232.17 18.0882 232.268 18.3122H234.569V19.1298H232.516C232.539 19.2642 232.55 19.4023 232.55 19.5442Z" fill="black"/>
<path d="M18.9429 32.1963H23.6751V32.9729H21.7529V37.9556H20.8651V32.9729H18.9429V32.1963ZM26.9333 37.3328H27.1613V37.9556C27.0418 37.9718 26.9088 37.9799 26.7622 37.9799C26.5016 37.9799 26.3061 37.934 26.1758 37.8424C26.0509 37.7453 25.9749 37.5943 25.9477 37.3894C25.6653 37.8316 25.2092 38.0527 24.5794 38.0527C24.1178 38.0527 23.7513 37.9448 23.4798 37.7291C23.2137 37.508 23.0807 37.2033 23.0807 36.8151C23.0807 36.0601 23.6074 35.6287 24.6608 35.5209L25.2798 35.4561C25.4971 35.4292 25.6545 35.3752 25.7522 35.2944C25.8554 35.2081 25.907 35.0867 25.907 34.9304C25.907 34.72 25.8391 34.569 25.7034 34.4774C25.5731 34.3803 25.3531 34.3318 25.0436 34.3318C24.707 34.3318 24.4653 34.3884 24.3187 34.5017C24.1721 34.6095 24.088 34.8036 24.0662 35.084H23.2599C23.3196 34.1512 23.9142 33.6847 25.0436 33.6847C26.1514 33.6847 26.7052 34.0945 26.7052 34.9142V37.1224C26.7052 37.2626 26.7812 37.3328 26.9333 37.3328ZM24.7015 37.4217C25.0491 37.4217 25.3369 37.3247 25.5649 37.1305C25.793 36.9364 25.907 36.6614 25.907 36.3055V35.8687C25.8038 35.955 25.6301 36.0116 25.3857 36.0385L24.7993 36.1032C24.4843 36.141 24.259 36.2165 24.1233 36.3297C23.9875 36.4376 23.9196 36.5913 23.9196 36.7908C23.9196 36.9903 23.9848 37.1467 24.1151 37.26C24.2509 37.3678 24.4464 37.4217 24.7015 37.4217ZM29.8506 33.6847C30.437 33.6847 30.9041 33.8815 31.2515 34.2752C31.5991 34.6688 31.7728 35.2 31.7728 35.8687C31.7728 36.532 31.5991 37.0604 31.2515 37.4541C30.8986 37.8531 30.4317 38.0527 29.8506 38.0527C29.2316 38.0527 28.7646 37.81 28.4497 37.3247V37.9556H27.6678V32.1963H28.4823V34.3641C28.7972 33.9112 29.2533 33.6847 29.8506 33.6847ZM28.7999 36.9607C29.0171 37.2249 29.3158 37.357 29.6959 37.357C30.076 37.357 30.3773 37.2222 30.5999 36.9526C30.8172 36.6883 30.9257 36.3162 30.9257 35.8363C30.9257 35.3726 30.8172 35.0139 30.5999 34.7605C30.3828 34.5071 30.0814 34.3803 29.6959 34.3803C29.3212 34.3803 29.0226 34.5097 28.7999 34.7686C28.5773 35.0382 28.466 35.4049 28.466 35.8687C28.466 36.3324 28.5773 36.6964 28.7999 36.9607ZM33.3024 37.9556H32.4879V32.1963H33.3024V37.9556ZM38.0095 35.901V36.1356H34.8411C34.8791 36.5455 35.0013 36.8555 35.2077 37.0658C35.414 37.2707 35.6936 37.3732 36.0466 37.3732C36.5787 37.3732 36.9263 37.1413 37.0892 36.6776H37.9118C37.7978 37.1036 37.5751 37.4406 37.2439 37.6887C36.9181 37.9313 36.5136 38.0527 36.0303 38.0527C35.4276 38.0527 34.9416 37.8531 34.5724 37.4541C34.2031 37.0551 34.0185 36.5265 34.0185 35.8687C34.0185 35.2108 34.2031 34.6823 34.5724 34.2832C34.9416 33.8842 35.4221 33.6847 36.014 33.6847C36.633 33.6847 37.1217 33.8923 37.4801 34.3075C37.833 34.7227 38.0095 35.2539 38.0095 35.901ZM36.014 34.3641C35.6936 34.3641 35.4303 34.4612 35.224 34.6553C35.023 34.8495 34.8982 35.1299 34.8493 35.4966H37.1706C37.1326 35.1568 37.0104 34.8845 36.8041 34.6796C36.6032 34.4693 36.3398 34.3641 36.014 34.3641ZM41.2499 37.2033H44.2798V37.9556H40.2725L40.297 37.5916C40.3186 37.1979 40.4082 36.8205 40.5657 36.4592C40.7449 36.044 41.1141 35.6934 41.6735 35.4076L42.3332 35.0436C42.6807 34.8602 42.9305 34.6742 43.0825 34.4855C43.2345 34.2913 43.3106 34.0568 43.3106 33.7817C43.3106 33.4851 43.2155 33.2505 43.0255 33.078C42.8409 32.9055 42.5829 32.8192 42.2517 32.8192C41.5078 32.8192 41.1359 33.2048 41.1359 33.9759H40.2807C40.2752 33.3719 40.4463 32.9027 40.7938 32.5684C41.1413 32.2341 41.6354 32.0669 42.2762 32.0669C42.8626 32.0669 43.3296 32.2233 43.6771 32.5361C44.03 32.8542 44.2065 33.2586 44.2065 33.7494C44.2065 34.1538 44.0925 34.5097 43.8645 34.8171C43.6364 35.1245 43.278 35.4076 42.7893 35.6664L42.211 35.99C41.8798 36.1734 41.6409 36.354 41.4943 36.532C41.353 36.7099 41.2716 36.9337 41.2499 37.2033ZM48.0951 34.8818C48.7902 35.1514 49.1377 35.6314 49.1377 36.3216C49.1377 36.8609 48.9395 37.2869 48.5431 37.5997C48.1468 37.9232 47.62 38.085 46.963 38.085C46.306 38.085 45.7793 37.9232 45.3829 37.5997C44.9865 37.2869 44.7883 36.8609 44.7883 36.3216C44.7883 35.6314 45.1358 35.1514 45.8308 34.8818C45.2933 34.623 45.0245 34.2131 45.0245 33.6523C45.0245 33.1562 45.2064 32.768 45.5702 32.4875C45.9232 32.2071 46.3874 32.0669 46.963 32.0669C47.5331 32.0669 48.0001 32.2071 48.3639 32.4875C48.7223 32.768 48.9015 33.1562 48.9015 33.6523C48.9015 34.2131 48.6327 34.623 48.0951 34.8818ZM48.0788 33.6766C48.0788 33.3908 47.9757 33.1697 47.7693 33.0133C47.563 32.8569 47.2942 32.7787 46.963 32.7787C46.6318 32.7787 46.363 32.8569 46.1566 33.0133C45.9503 33.1697 45.8471 33.3908 45.8471 33.6766C45.8471 33.9624 45.9503 34.1835 46.1566 34.3399C46.363 34.4962 46.6318 34.5745 46.963 34.5745C47.2942 34.5745 47.563 34.4962 47.7693 34.3399C47.9757 34.1835 48.0788 33.9624 48.0788 33.6766ZM46.0182 37.0739C46.2517 37.2626 46.5666 37.357 46.963 37.357C47.3594 37.357 47.6744 37.2626 47.9078 37.0739C48.1359 36.8852 48.2499 36.6236 48.2499 36.2893C48.2499 35.955 48.1359 35.6961 47.9078 35.5128C47.6797 35.324 47.3648 35.2296 46.963 35.2296C46.5557 35.2296 46.2381 35.324 46.01 35.5128C45.782 35.6961 45.6679 35.955 45.6679 36.2893C45.6679 36.629 45.7847 36.8905 46.0182 37.0739Z" fill="black"/>
<path d="M218.614 32.1963H219.315V37.9556H218.443V33.8464H217.115V33.2074L217.246 33.1993C217.664 33.1724 217.976 33.0861 218.182 32.9405C218.394 32.7895 218.538 32.5415 218.614 32.1963ZM221.148 37.2033H224.178V37.9556H220.17L220.195 37.5916C220.216 37.1979 220.306 36.8205 220.464 36.4592C220.643 36.044 221.012 35.6934 221.571 35.4076L222.231 35.0436C222.578 34.8602 222.828 34.6742 222.98 34.4855C223.132 34.2913 223.209 34.0568 223.209 33.7817C223.209 33.4851 223.113 33.2505 222.923 33.078C222.739 32.9055 222.481 32.8192 222.15 32.8192C221.405 32.8192 221.034 33.2048 221.034 33.9759H220.179C220.173 33.3719 220.344 32.9027 220.692 32.5684C221.039 32.2341 221.533 32.0669 222.174 32.0669C222.761 32.0669 223.227 32.2233 223.575 32.5361C223.928 32.8542 224.104 33.2586 224.104 33.7494C224.104 34.1538 223.99 34.5097 223.762 34.8171C223.534 35.1245 223.176 35.4076 222.687 35.6664L222.109 35.99C221.778 36.1734 221.539 36.354 221.392 36.532C221.251 36.7099 221.169 36.9337 221.148 37.2033ZM225.769 34.9465H224.784V33.984H225.769V34.9465ZM225.769 37.9556H224.784V36.993H225.769V37.9556ZM227.44 37.2033H230.469V37.9556H226.462L226.487 37.5916C226.508 37.1979 226.597 36.8205 226.755 36.4592C226.935 36.044 227.304 35.6934 227.863 35.4076L228.523 35.0436C228.87 34.8602 229.12 34.6742 229.272 34.4855C229.424 34.2913 229.5 34.0568 229.5 33.7817C229.5 33.4851 229.405 33.2505 229.215 33.078C229.03 32.9055 228.772 32.8192 228.441 32.8192C227.697 32.8192 227.326 33.2048 227.326 33.9759H226.47C226.465 33.3719 226.636 32.9027 226.983 32.5684C227.331 32.2341 227.825 32.0669 228.466 32.0669C229.052 32.0669 229.519 32.2233 229.867 32.5361C230.219 32.8542 230.396 33.2586 230.396 33.7494C230.396 34.1538 230.282 34.5097 230.054 34.8171C229.826 35.1245 229.468 35.4076 228.979 35.6664L228.401 35.99C228.069 36.1734 227.83 36.354 227.684 36.532C227.542 36.7099 227.461 36.9337 227.44 37.2033ZM233.179 38.085C232.462 38.085 231.917 37.8262 231.542 37.3085C231.167 36.7908 230.98 36.0466 230.98 35.076C230.98 34.1053 231.167 33.3611 231.542 32.8434C231.917 32.3257 232.462 32.0669 233.179 32.0669C233.902 32.0669 234.447 32.3257 234.816 32.8434C235.191 33.3557 235.378 34.0999 235.378 35.076C235.378 36.052 235.191 36.7989 234.816 37.3166C234.447 37.8289 233.902 38.085 233.179 38.085ZM233.179 37.3328C234.043 37.3328 234.474 36.5805 234.474 35.076C234.474 33.5714 234.043 32.8192 233.179 32.8192C232.321 32.8192 231.892 33.5714 231.892 35.076C231.892 36.5805 232.321 37.3328 233.179 37.3328Z" fill="black"/>
<path d="M111.874 21.2754C111.082 21.2754 110.451 21.0191 109.98 20.5063C109.498 19.9986 109.258 19.3291 109.258 18.4978C109.258 17.6715 109.498 16.9995 109.98 16.4818C110.451 15.9741 111.082 15.7202 111.874 15.7202C112.656 15.7202 113.288 15.9741 113.769 16.4818C114.245 16.9995 114.483 17.6715 114.483 18.4978C114.483 19.3241 114.245 19.9936 113.769 20.5063C113.288 21.0191 112.656 21.2754 111.874 21.2754ZM110.581 19.9986C110.902 20.3719 111.333 20.5586 111.874 20.5586C112.416 20.5586 112.847 20.3719 113.167 19.9986C113.488 19.6352 113.649 19.135 113.649 18.4978C113.649 17.8607 113.488 17.3579 113.167 16.9895C112.842 16.6212 112.411 16.437 111.874 16.437C111.338 16.437 110.907 16.6212 110.581 16.9895C110.255 17.3679 110.092 17.8706 110.092 18.4978C110.092 19.13 110.255 19.6303 110.581 19.9986ZM117.158 17.2135C117.699 17.2135 118.13 17.3952 118.451 17.7586C118.772 18.122 118.932 18.6123 118.932 19.2295C118.932 19.8418 118.772 20.3296 118.451 20.693C118.125 21.0614 117.694 21.2455 117.158 21.2455C116.606 21.2455 116.185 21.0365 115.895 20.6183V22.6194H115.143V17.3031H115.865V17.8855C116.155 17.4375 116.586 17.2135 117.158 17.2135ZM116.188 20.2375C116.388 20.4815 116.664 20.6034 117.015 20.6034C117.366 20.6034 117.644 20.479 117.849 20.2301C118.05 19.9862 118.15 19.6427 118.15 19.1997C118.15 18.7716 118.05 18.4406 117.849 18.2066C117.649 17.9727 117.371 17.8557 117.015 17.8557C116.669 17.8557 116.393 17.9751 116.188 18.2141C115.982 18.463 115.88 18.8015 115.88 19.2295C115.88 19.6576 115.982 19.9936 116.188 20.2375ZM123.096 19.2594V19.4759H120.171C120.207 19.8543 120.319 20.1405 120.51 20.3346C120.7 20.5238 120.958 20.6183 121.284 20.6183C121.775 20.6183 122.096 20.4043 122.247 19.9762H123.006C122.901 20.3695 122.695 20.6806 122.389 20.9095C122.089 21.1335 121.715 21.2455 121.269 21.2455C120.713 21.2455 120.264 21.0614 119.923 20.693C119.582 20.3247 119.412 19.8368 119.412 19.2295C119.412 18.6223 119.582 18.1344 119.923 17.7661C120.264 17.3977 120.708 17.2135 121.254 17.2135C121.825 17.2135 122.277 17.4052 122.607 17.7885C122.933 18.1718 123.096 18.6621 123.096 19.2594ZM121.254 17.8407C120.958 17.8407 120.715 17.9303 120.525 18.1095C120.339 18.2887 120.224 18.5476 120.179 18.8861H122.322C122.287 18.5725 122.174 18.3211 121.983 18.1319C121.798 17.9378 121.555 17.8407 121.254 17.8407ZM125.702 17.2135C126.129 17.2135 126.462 17.333 126.702 17.5719C126.943 17.8059 127.063 18.1394 127.063 18.5725V21.1559H126.311V18.677C126.311 18.1394 126.038 17.8706 125.492 17.8706C125.241 17.8706 125.016 17.9652 124.815 18.1543C124.615 18.3485 124.515 18.6247 124.515 18.9831V21.1559H123.763V17.3031H124.484V17.8781C124.78 17.4351 125.186 17.2135 125.702 17.2135Z" fill="black"/>
<path d="M104.318 20.5335C105.183 20.5335 105.885 19.837 105.885 18.9779C105.885 18.1188 105.183 17.4224 104.318 17.4224C103.453 17.4224 102.752 18.1188 102.752 18.9779C102.752 19.837 103.453 20.5335 104.318 20.5335Z" fill="#FADC3F"/>
<path d="M22.69 15.4801C22.7463 15.3081 22.9912 15.3081 23.0475 15.4801L23.7409 17.5994C23.766 17.6763 23.8382 17.7283 23.9196 17.7283H26.1634C26.3455 17.7283 26.4212 17.9597 26.2739 18.066L24.4586 19.3758C24.3928 19.4233 24.3652 19.5076 24.3903 19.5845L25.0837 21.7038C25.14 21.8758 24.9418 22.0187 24.7945 21.9125L22.9792 20.6027C22.9133 20.5552 22.8241 20.5552 22.7583 20.6027L20.943 21.9125C20.7957 22.0187 20.5975 21.8758 20.6537 21.7038L21.3471 19.5845C21.3723 19.5076 21.3447 19.4233 21.2788 19.3758L19.4636 18.066C19.3163 17.9597 19.392 17.7283 19.574 17.7283H21.8179C21.8993 17.7283 21.9715 17.6763 21.9966 17.5994L22.69 15.4801Z" fill="#FCA626"/>
<path d="M12.5308 4.35577H242.469V3.11133H12.5308V4.35577ZM248.108 9.95577V41.0669H249.361V9.95577H248.108ZM242.469 46.6669H12.5308V47.9113H242.469V46.6669ZM6.89199 41.0669V9.95577H5.63892V41.0669H6.89199ZM12.5308 46.6669C9.41655 46.6669 6.89199 44.1597 6.89199 41.0669H5.63892C5.63892 44.8469 8.72454 47.9113 12.5308 47.9113V46.6669ZM248.108 41.0669C248.108 44.1597 245.584 46.6669 242.469 46.6669V47.9113C246.276 47.9113 249.361 44.8469 249.361 41.0669H248.108ZM242.469 4.35577C245.584 4.35577 248.108 6.86295 248.108 9.95577H249.361C249.361 6.17569 246.276 3.11133 242.469 3.11133V4.35577ZM12.5308 3.11133C8.72454 3.11133 5.63892 6.17569 5.63892 9.95577H6.89199C6.89199 6.86295 9.41655 4.35577 12.5308 4.35577V3.11133Z" fill="#F8FD17"/>
</g>
</g>
<path d="M26.8299 156.03C25.8299 156.03 25.0749 155.86 24.5649 155.52C24.0549 155.17 23.7999 154.54 23.7999 153.63C23.9999 148.63 24.3199 146.245 24.7599 146.475C24.9799 146.485 25.0899 146.825 25.0899 147.495C25.0899 147.905 25.0199 148.77 24.8799 150.09C24.6999 151.61 24.6099 152.725 24.6099 153.435L24.6249 153.87C24.6249 154.09 24.6899 154.31 24.8199 154.53C24.9599 154.75 25.1349 154.87 25.3449 154.89L28.2849 155.145C28.3949 155.155 28.4499 155.26 28.4499 155.46C28.4499 155.64 28.4049 155.765 28.3149 155.835C28.2349 155.905 28.0899 155.96 27.8799 156L26.8299 156.03ZM32.1567 156.015C31.5667 156.015 31.0317 155.885 30.5517 155.625C30.0817 155.355 29.7117 154.985 29.4417 154.515C29.1817 154.035 29.0517 153.49 29.0517 152.88C29.0517 151.88 29.4167 151.135 30.1467 150.645C30.8867 150.155 31.7917 149.91 32.8617 149.91C33.3517 149.91 33.8067 150.03 34.2267 150.27C34.6567 150.51 35.0017 150.855 35.2617 151.305C35.5217 151.755 35.6517 152.275 35.6517 152.865C35.6517 153.505 35.4867 154.065 35.1567 154.545C34.8267 155.015 34.3917 155.38 33.8517 155.64C33.3217 155.89 32.7567 156.015 32.1567 156.015ZM31.9917 155.16C32.9217 155.16 33.6267 154.95 34.1067 154.53C34.5867 154.11 34.8267 153.495 34.8267 152.685C34.8267 152.135 34.6367 151.66 34.2567 151.26C33.8867 150.86 33.3667 150.66 32.6967 150.66C32.2467 150.66 31.7917 150.745 31.3317 150.915C30.8717 151.085 30.4917 151.34 30.1917 151.68C29.8917 152.02 29.7417 152.43 29.7417 152.91C29.7417 153.31 29.8417 153.685 30.0417 154.035C30.2417 154.375 30.5117 154.65 30.8517 154.86C31.2017 155.06 31.5817 155.16 31.9917 155.16ZM38.1646 156C37.7546 155.2 37.4296 154.26 37.1896 153.18C36.9596 152.1 36.8446 151.165 36.8446 150.375C36.8446 150.065 36.9146 149.865 37.0546 149.775C37.1346 149.725 37.1946 149.7 37.2346 149.7C37.3046 149.7 37.3546 149.755 37.3846 149.865C37.4246 149.975 37.4646 150.175 37.5046 150.465L37.5796 151.005C37.6896 150.465 37.8996 150.04 38.2096 149.73C38.5296 149.41 38.9196 149.25 39.3796 149.25C39.8896 149.25 40.2696 149.35 40.5196 149.55C40.7696 149.74 40.8946 150.06 40.8946 150.51C40.3946 150.27 39.9396 150.15 39.5296 150.15C39.1396 150.15 38.8046 150.255 38.5246 150.465C38.2446 150.675 38.0496 150.985 37.9396 151.395C37.8496 151.675 37.8046 151.94 37.8046 152.19C37.8046 152.46 37.8396 152.715 37.9096 152.955C37.9896 153.185 38.1096 153.47 38.2696 153.81C38.4196 154.16 38.5346 154.46 38.6146 154.71C38.7046 154.96 38.7546 155.23 38.7646 155.52C38.7646 155.69 38.7046 155.815 38.5846 155.895C38.4646 155.965 38.3246 156 38.1646 156ZM45.0282 156C44.3882 156 43.7982 155.875 43.2582 155.625C42.7182 155.375 42.2882 155.02 41.9682 154.56C41.6482 154.1 41.4882 153.57 41.4882 152.97C41.4882 152.3 41.6132 151.675 41.8632 151.095C42.1132 150.505 42.4782 150.035 42.9582 149.685C43.4482 149.325 44.0182 149.145 44.6682 149.145C45.3482 149.145 45.8632 149.365 46.2132 149.805C46.5632 150.235 46.7282 150.78 46.7082 151.44C46.7082 152.03 46.4732 152.48 46.0032 152.79C45.5432 153.1 44.9532 153.255 44.2332 153.255C44.1232 153.255 43.9582 153.245 43.7382 153.225C43.3782 153.185 43.1232 153.13 42.9732 153.06C42.8232 152.99 42.7482 152.85 42.7482 152.64C42.7482 152.57 42.7682 152.52 42.8082 152.49C42.8482 152.45 42.9282 152.43 43.0482 152.43C43.1782 152.43 43.4082 152.46 43.7382 152.52C44.0582 152.58 44.3432 152.61 44.5932 152.61C45.5132 152.61 45.9732 152.21 45.9732 151.41C45.9732 150.93 45.8832 150.55 45.7032 150.27C45.5332 149.99 45.2282 149.85 44.7882 149.85C44.3082 149.85 43.8782 149.98 43.4982 150.24C43.1182 150.49 42.8232 150.82 42.6132 151.23C42.4132 151.64 42.3132 152.075 42.3132 152.535C42.3132 153.325 42.5332 153.975 42.9732 154.485C43.4132 154.985 44.0932 155.235 45.0132 155.235C45.1232 155.235 45.3082 155.225 45.5682 155.205C45.6782 155.195 45.8132 155.165 45.9732 155.115C46.1332 155.065 46.2482 155.03 46.3182 155.01C46.7482 154.86 47.0632 154.785 47.2632 154.785C47.4132 154.785 47.5282 154.825 47.6082 154.905C47.3582 155.285 46.9832 155.565 46.4832 155.745C45.9932 155.915 45.5082 156 45.0282 156ZM57.9468 156.015C57.7968 156.015 57.7068 155.975 57.6768 155.895C57.6468 155.805 57.6318 155.67 57.6318 155.49C57.6418 155.42 57.6468 155.34 57.6468 155.25C57.6468 155.15 57.6518 155.075 57.6618 155.025C57.7218 154.545 57.7518 154.09 57.7518 153.66C57.7518 152.71 57.5918 151.97 57.2718 151.44C56.9518 150.9 56.4468 150.63 55.7568 150.63C55.3768 150.63 54.9968 150.725 54.6168 150.915C54.2468 151.105 53.9418 151.34 53.7018 151.62C53.4718 151.9 53.3568 152.155 53.3568 152.385C53.4068 152.675 53.4968 153.03 53.6268 153.45C53.6368 153.5 53.6768 153.655 53.7468 153.915C53.8268 154.175 53.8668 154.41 53.8668 154.62L53.8818 154.905C53.8818 155.065 53.8018 155.145 53.6418 155.145C53.4418 155.145 53.2768 155.015 53.1468 154.755C53.0268 154.495 52.8918 154.09 52.7418 153.54C52.5918 153 52.4468 152.555 52.3068 152.205C52.1668 151.855 51.9768 151.555 51.7368 151.305C51.4968 151.055 51.1918 150.93 50.8218 150.93C50.3118 150.93 49.9118 151.105 49.6218 151.455C49.3418 151.805 49.2018 152.235 49.2018 152.745C49.2018 153.085 49.2318 153.535 49.2918 154.095C49.3418 154.515 49.3668 154.875 49.3668 155.175C49.3668 155.355 49.3468 155.49 49.3068 155.58C49.2668 155.67 49.1718 155.715 49.0218 155.715C48.8218 155.715 48.6818 155.65 48.6018 155.52C48.5218 155.38 48.4818 155.17 48.4818 154.89C48.4818 154.34 48.4518 153.675 48.3918 152.895C48.3818 152.795 48.3618 152.54 48.3318 152.13C48.3018 151.71 48.2968 151.29 48.3168 150.87L48.3318 150.375C48.3918 150.315 48.4618 150.285 48.5418 150.285C48.6518 150.285 48.7418 150.355 48.8118 150.495C48.8918 150.625 48.9318 150.825 48.9318 151.095C49.0818 150.835 49.3018 150.6 49.5918 150.39C49.8818 150.18 50.1868 150.075 50.5068 150.075C51.0568 150.075 51.5118 150.19 51.8718 150.42C52.2418 150.64 52.5768 151 52.8768 151.5C53.1568 150.99 53.5768 150.555 54.1368 150.195C54.7068 149.835 55.2918 149.655 55.8918 149.655C56.5118 149.655 57.0268 149.89 57.4368 150.36C57.8568 150.83 58.1618 151.395 58.3518 152.055C58.5518 152.715 58.6518 153.325 58.6518 153.885C58.6518 154.385 58.6068 154.865 58.5168 155.325C58.4368 155.785 58.2468 156.015 57.9468 156.015ZM64.6123 156.015C64.3823 156.015 64.1973 155.68 64.0573 155.01C63.9173 154.33 63.8273 153.745 63.7873 153.255C63.7473 152.765 63.6923 151.99 63.6223 150.93C63.6123 150.76 63.6073 150.54 63.6073 150.27C63.6073 149.93 63.6323 149.695 63.6823 149.565C63.7423 149.435 63.8373 149.37 63.9673 149.37C64.0773 149.37 64.1623 149.395 64.2223 149.445C64.2923 149.485 64.3523 149.555 64.4023 149.655L64.3873 150.255C64.3873 150.895 64.4173 151.5 64.4773 152.07C64.5473 152.64 64.6523 153.405 64.7923 154.365C64.8723 154.785 64.9273 155.13 64.9573 155.4C64.9773 155.54 64.9523 155.68 64.8823 155.82C64.8123 155.95 64.7223 156.015 64.6123 156.015ZM64.2373 147.765C64.0173 147.765 63.8523 147.68 63.7423 147.51C63.6423 147.34 63.5923 147.13 63.5923 146.88C63.5923 146.77 63.5973 146.69 63.6073 146.64C63.5973 146.48 63.6873 146.4 63.8773 146.4C64.0173 146.4 64.1573 146.435 64.2973 146.505C64.4473 146.565 64.4923 146.61 64.4323 146.64C64.5323 146.9 64.5823 147.105 64.5823 147.255C64.5823 147.385 64.5523 147.49 64.4923 147.57C64.4323 147.64 64.3473 147.705 64.2373 147.765ZM68.0726 161.34C67.8726 161.34 67.6326 160.805 67.3526 159.735C67.0826 158.665 66.8376 157.475 66.6176 156.165C66.4076 154.865 66.3026 154.045 66.3026 153.705C66.3026 152.695 66.6426 151.96 67.3226 151.5C68.0026 151.03 68.8776 150.795 69.9476 150.795C70.5176 150.795 71.0576 150.915 71.5676 151.155C72.0776 151.385 72.4876 151.72 72.7976 152.16C73.1076 152.59 73.2626 153.09 73.2626 153.66C73.2626 154.37 73.0126 154.87 72.5126 155.16C72.0226 155.45 71.4026 155.595 70.6526 155.595C69.8726 155.595 69.2076 155.465 68.6576 155.205C68.1176 154.935 67.8476 154.57 67.8476 154.11L67.8626 153.96C67.9326 153.88 68.0076 153.84 68.0876 153.84C68.1576 153.84 68.2326 153.87 68.3126 153.93C68.4026 153.98 68.4976 154.04 68.5976 154.11C68.9076 154.34 69.2126 154.525 69.5126 154.665C69.8226 154.805 70.2076 154.875 70.6676 154.875C71.2976 154.875 71.7426 154.765 72.0026 154.545C72.2726 154.315 72.4076 153.955 72.4076 153.465C72.4076 153.105 72.2876 152.785 72.0476 152.505C71.8076 152.225 71.4976 152.01 71.1176 151.86C70.7376 151.71 70.3476 151.635 69.9476 151.635C69.0176 151.635 68.3176 151.835 67.8476 152.235C67.3776 152.625 67.1676 153.28 67.2176 154.2C67.3076 155.76 67.4476 157.07 67.6376 158.13C67.8376 159.19 68.1826 160.09 68.6726 160.83L68.6876 160.86C68.6876 160.88 68.6626 160.9 68.6126 160.92C68.5726 160.95 68.5426 160.975 68.5226 160.995C68.4026 161.185 68.2526 161.3 68.0726 161.34ZM74.5368 154.23C74.6768 154.12 74.8118 154.065 74.9418 154.065C75.0618 154.065 75.1768 154.1 75.2868 154.17C75.4068 154.24 75.5268 154.33 75.6468 154.44C75.7668 154.54 75.8618 154.615 75.9318 154.665C76.1618 154.845 76.4768 154.985 76.8768 155.085C77.2768 155.185 77.7018 155.235 78.1518 155.235C78.6618 155.235 79.1168 155.14 79.5168 154.95C79.9268 154.75 80.1318 154.485 80.1318 154.155C80.1318 153.855 80.0218 153.62 79.8018 153.45C79.5818 153.27 79.3168 153.14 79.0068 153.06C78.6968 152.98 78.2868 152.905 77.7768 152.835C77.0868 152.755 76.5368 152.655 76.1268 152.535C75.7268 152.415 75.4068 152.22 75.1668 151.95C74.9268 151.67 74.8068 151.28 74.8068 150.78C74.8068 150.24 75.0618 149.84 75.5718 149.58C76.0818 149.31 76.6668 149.175 77.3268 149.175C77.9268 149.175 78.4368 149.305 78.8568 149.565C79.2868 149.815 79.5068 150.175 79.5168 150.645C79.5368 150.915 79.4968 151.13 79.3968 151.29C79.2968 151.44 79.1768 151.515 79.0368 151.515C78.9568 151.515 78.8868 151.485 78.8268 151.425C78.7768 151.365 78.7518 151.285 78.7518 151.185C78.7518 151.025 78.8068 150.85 78.9168 150.66C78.8668 150.42 78.7018 150.24 78.4218 150.12C78.1518 150 77.8268 149.94 77.4468 149.94C76.8868 149.94 76.4418 150.045 76.1118 150.255C75.7818 150.455 75.6168 150.695 75.6168 150.975C75.6168 151.275 75.7368 151.505 75.9768 151.665C76.2168 151.825 76.5068 151.94 76.8468 152.01C77.1968 152.07 77.6918 152.13 78.3318 152.19C78.8618 152.26 79.2918 152.345 79.6218 152.445C79.9618 152.545 80.2468 152.74 80.4768 153.03C80.7068 153.31 80.8218 153.715 80.8218 154.245C80.8218 154.795 80.5668 155.23 80.0568 155.55C79.5468 155.86 78.9368 156.015 78.2268 156.015C77.3168 156.015 76.5018 155.86 75.7818 155.55C75.0718 155.24 74.6568 154.8 74.5368 154.23ZM88.9937 155.925C88.8137 155.925 88.6687 155.85 88.5587 155.7C88.4587 155.54 88.3687 155.3 88.2887 154.98C88.2087 154.65 88.0837 154.08 87.9137 153.27C87.7437 153.94 87.4237 154.475 86.9537 154.875C86.4837 155.265 85.9087 155.46 85.2287 155.46C84.6087 155.46 84.0837 155.245 83.6537 154.815C83.2337 154.375 82.9187 153.8 82.7087 153.09C82.4987 152.37 82.3937 151.595 82.3937 150.765C82.3937 150.385 82.4287 150.06 82.4987 149.79C82.5787 149.51 82.6737 149.3 82.7837 149.16C82.9037 149.02 83.0187 148.955 83.1287 148.965C83.2487 148.965 83.3087 149.045 83.3087 149.205C83.3087 149.335 83.2737 149.54 83.2037 149.82C83.1337 150.13 83.0987 150.485 83.0987 150.885C83.0987 151.485 83.1837 152.07 83.3537 152.64C83.5337 153.21 83.7937 153.68 84.1337 154.05C84.4837 154.41 84.8937 154.59 85.3637 154.59C85.7537 154.59 86.1087 154.475 86.4287 154.245C86.7487 154.015 86.9987 153.725 87.1787 153.375C87.3687 153.025 87.4637 152.68 87.4637 152.34V149.955C87.5737 149.745 87.7237 149.64 87.9137 149.64C88.0837 149.64 88.1987 149.785 88.2587 150.075C88.3187 150.365 88.3487 150.775 88.3487 151.305C88.3487 151.755 88.3437 152.1 88.3337 152.34C88.3937 152.67 88.4837 153.005 88.6037 153.345C88.7337 153.685 88.8937 154.07 89.0837 154.5C89.3137 155.03 89.4287 155.355 89.4287 155.475C89.4287 155.775 89.2837 155.925 88.9937 155.925ZM100.369 156.015C100.219 156.015 100.129 155.975 100.099 155.895C100.069 155.805 100.054 155.67 100.054 155.49C100.064 155.42 100.069 155.34 100.069 155.25C100.069 155.15 100.074 155.075 100.084 155.025C100.144 154.545 100.174 154.09 100.174 153.66C100.174 152.71 100.014 151.97 99.6937 151.44C99.3737 150.9 98.8687 150.63 98.1787 150.63C97.7987 150.63 97.4187 150.725 97.0387 150.915C96.6687 151.105 96.3637 151.34 96.1237 151.62C95.8937 151.9 95.7787 152.155 95.7787 152.385C95.8287 152.675 95.9187 153.03 96.0487 153.45C96.0587 153.5 96.0987 153.655 96.1687 153.915C96.2487 154.175 96.2887 154.41 96.2887 154.62L96.3037 154.905C96.3037 155.065 96.2237 155.145 96.0637 155.145C95.8637 155.145 95.6987 155.015 95.5687 154.755C95.4487 154.495 95.3137 154.09 95.1637 153.54C95.0137 153 94.8687 152.555 94.7287 152.205C94.5887 151.855 94.3987 151.555 94.1587 151.305C93.9187 151.055 93.6137 150.93 93.2437 150.93C92.7337 150.93 92.3337 151.105 92.0437 151.455C91.7637 151.805 91.6237 152.235 91.6237 152.745C91.6237 153.085 91.6537 153.535 91.7137 154.095C91.7637 154.515 91.7887 154.875 91.7887 155.175C91.7887 155.355 91.7687 155.49 91.7287 155.58C91.6887 155.67 91.5937 155.715 91.4437 155.715C91.2437 155.715 91.1037 155.65 91.0237 155.52C90.9437 155.38 90.9037 155.17 90.9037 154.89C90.9037 154.34 90.8737 153.675 90.8137 152.895C90.8037 152.795 90.7837 152.54 90.7537 152.13C90.7237 151.71 90.7187 151.29 90.7387 150.87L90.7537 150.375C90.8137 150.315 90.8837 150.285 90.9637 150.285C91.0737 150.285 91.1637 150.355 91.2337 150.495C91.3137 150.625 91.3537 150.825 91.3537 151.095C91.5037 150.835 91.7237 150.6 92.0137 150.39C92.3037 150.18 92.6087 150.075 92.9287 150.075C93.4787 150.075 93.9337 150.19 94.2937 150.42C94.6637 150.64 94.9987 151 95.2987 151.5C95.5787 150.99 95.9987 150.555 96.5587 150.195C97.1287 149.835 97.7137 149.655 98.3137 149.655C98.9337 149.655 99.4487 149.89 99.8587 150.36C100.279 150.83 100.584 151.395 100.774 152.055C100.974 152.715 101.074 153.325 101.074 153.885C101.074 154.385 101.029 154.865 100.939 155.325C100.859 155.785 100.669 156.015 100.369 156.015ZM108.594 155.985C108.124 155.985 107.714 155.825 107.364 155.505C107.024 155.185 106.764 154.77 106.584 154.26C106.414 153.75 106.329 153.22 106.329 152.67C106.329 151.71 106.529 150.9 106.929 150.24C107.339 149.58 107.959 149.25 108.789 149.25C109.289 149.25 109.724 149.34 110.094 149.52C110.474 149.69 110.969 149.98 111.579 150.39L111.969 150.66C111.919 150.33 111.844 149.95 111.744 149.52C111.644 149.09 111.579 148.795 111.549 148.635C111.379 147.855 111.254 147.275 111.174 146.895C111.104 146.505 111.069 146.16 111.069 145.86C111.069 145.33 111.219 145.065 111.519 145.065C111.629 145.305 111.759 145.82 111.909 146.61C112.059 147.39 112.249 148.46 112.479 149.82C112.719 151.26 112.929 152.435 113.109 153.345C113.289 154.255 113.439 154.825 113.559 155.055C113.559 155.285 113.389 155.4 113.049 155.4C112.789 155.4 112.609 155.25 112.509 154.95C112.419 154.65 112.364 154.125 112.344 153.375H112.224C111.804 154.135 111.259 154.76 110.589 155.25C109.919 155.74 109.254 155.985 108.594 155.985ZM108.789 155.25C109.199 155.25 109.639 155.08 110.109 154.74C110.589 154.39 110.994 153.97 111.324 153.48C111.654 152.98 111.819 152.53 111.819 152.13V151.68C110.789 150.6 109.839 150.06 108.969 150.06C108.359 150.06 107.889 150.285 107.559 150.735C107.229 151.175 107.064 151.755 107.064 152.475L107.079 152.79C107.139 153.55 107.309 154.15 107.589 154.59C107.869 155.03 108.269 155.25 108.789 155.25ZM117.557 156.015C116.967 156.015 116.432 155.885 115.952 155.625C115.482 155.355 115.112 154.985 114.842 154.515C114.582 154.035 114.452 153.49 114.452 152.88C114.452 151.88 114.817 151.135 115.547 150.645C116.287 150.155 117.192 149.91 118.262 149.91C118.752 149.91 119.207 150.03 119.627 150.27C120.057 150.51 120.402 150.855 120.662 151.305C120.922 151.755 121.052 152.275 121.052 152.865C121.052 153.505 120.887 154.065 120.557 154.545C120.227 155.015 119.792 155.38 119.252 155.64C118.722 155.89 118.157 156.015 117.557 156.015ZM117.392 155.16C118.322 155.16 119.027 154.95 119.507 154.53C119.987 154.11 120.227 153.495 120.227 152.685C120.227 152.135 120.037 151.66 119.657 151.26C119.287 150.86 118.767 150.66 118.097 150.66C117.647 150.66 117.192 150.745 116.732 150.915C116.272 151.085 115.892 151.34 115.592 151.68C115.292 152.02 115.142 152.43 115.142 152.91C115.142 153.31 115.242 153.685 115.442 154.035C115.642 154.375 115.912 154.65 116.252 154.86C116.602 155.06 116.982 155.16 117.392 155.16ZM122.616 155.895C122.396 154.805 122.226 153.515 122.106 152.025C121.996 150.525 121.941 149.075 121.941 147.675C121.941 146.975 121.956 146.355 121.986 145.815C121.986 145.685 122.086 145.62 122.286 145.62C122.446 145.62 122.546 145.66 122.586 145.74C122.636 145.82 122.661 145.945 122.661 146.115C122.661 147.735 122.691 149.12 122.751 150.27C122.811 151.41 122.891 152.64 122.991 153.96C123.051 154.81 123.091 155.385 123.111 155.685C123.121 155.845 123.036 155.925 122.856 155.925C122.796 155.925 122.716 155.915 122.616 155.895ZM127.415 156.015C126.825 156.015 126.29 155.885 125.81 155.625C125.34 155.355 124.97 154.985 124.7 154.515C124.44 154.035 124.31 153.49 124.31 152.88C124.31 151.88 124.675 151.135 125.405 150.645C126.145 150.155 127.05 149.91 128.12 149.91C128.61 149.91 129.065 150.03 129.485 150.27C129.915 150.51 130.26 150.855 130.52 151.305C130.78 151.755 130.91 152.275 130.91 152.865C130.91 153.505 130.745 154.065 130.415 154.545C130.085 155.015 129.65 155.38 129.11 155.64C128.58 155.89 128.015 156.015 127.415 156.015ZM127.25 155.16C128.18 155.16 128.885 154.95 129.365 154.53C129.845 154.11 130.085 153.495 130.085 152.685C130.085 152.135 129.895 151.66 129.515 151.26C129.145 150.86 128.625 150.66 127.955 150.66C127.505 150.66 127.05 150.745 126.59 150.915C126.13 151.085 125.75 151.34 125.45 151.68C125.15 152.02 125 152.43 125 152.91C125 153.31 125.1 153.685 125.3 154.035C125.5 154.375 125.77 154.65 126.11 154.86C126.46 155.06 126.84 155.16 127.25 155.16ZM133.423 156C133.013 155.2 132.688 154.26 132.448 153.18C132.218 152.1 132.103 151.165 132.103 150.375C132.103 150.065 132.173 149.865 132.313 149.775C132.393 149.725 132.453 149.7 132.493 149.7C132.563 149.7 132.613 149.755 132.643 149.865C132.683 149.975 132.723 150.175 132.763 150.465L132.838 151.005C132.948 150.465 133.158 150.04 133.468 149.73C133.788 149.41 134.178 149.25 134.638 149.25C135.148 149.25 135.528 149.35 135.778 149.55C136.028 149.74 136.153 150.06 136.153 150.51C135.653 150.27 135.198 150.15 134.788 150.15C134.398 150.15 134.063 150.255 133.783 150.465C133.503 150.675 133.308 150.985 133.198 151.395C133.108 151.675 133.063 151.94 133.063 152.19C133.063 152.46 133.098 152.715 133.168 152.955C133.248 153.185 133.368 153.47 133.528 153.81C133.678 154.16 133.793 154.46 133.873 154.71C133.963 154.96 134.013 155.23 134.023 155.52C134.023 155.69 133.963 155.815 133.843 155.895C133.723 155.965 133.583 156 133.423 156ZM140.572 154.23C140.712 154.12 140.847 154.065 140.977 154.065C141.097 154.065 141.212 154.1 141.322 154.17C141.442 154.24 141.562 154.33 141.682 154.44C141.802 154.54 141.897 154.615 141.967 154.665C142.197 154.845 142.512 154.985 142.912 155.085C143.312 155.185 143.737 155.235 144.187 155.235C144.697 155.235 145.152 155.14 145.552 154.95C145.962 154.75 146.167 154.485 146.167 154.155C146.167 153.855 146.057 153.62 145.837 153.45C145.617 153.27 145.352 153.14 145.042 153.06C144.732 152.98 144.322 152.905 143.812 152.835C143.122 152.755 142.572 152.655 142.162 152.535C141.762 152.415 141.442 152.22 141.202 151.95C140.962 151.67 140.842 151.28 140.842 150.78C140.842 150.24 141.097 149.84 141.607 149.58C142.117 149.31 142.702 149.175 143.362 149.175C143.962 149.175 144.472 149.305 144.892 149.565C145.322 149.815 145.542 150.175 145.552 150.645C145.572 150.915 145.532 151.13 145.432 151.29C145.332 151.44 145.212 151.515 145.072 151.515C144.992 151.515 144.922 151.485 144.862 151.425C144.812 151.365 144.787 151.285 144.787 151.185C144.787 151.025 144.842 150.85 144.952 150.66C144.902 150.42 144.737 150.24 144.457 150.12C144.187 150 143.862 149.94 143.482 149.94C142.922 149.94 142.477 150.045 142.147 150.255C141.817 150.455 141.652 150.695 141.652 150.975C141.652 151.275 141.772 151.505 142.012 151.665C142.252 151.825 142.542 151.94 142.882 152.01C143.232 152.07 143.727 152.13 144.367 152.19C144.897 152.26 145.327 152.345 145.657 152.445C145.997 152.545 146.282 152.74 146.512 153.03C146.742 153.31 146.857 153.715 146.857 154.245C146.857 154.795 146.602 155.23 146.092 155.55C145.582 155.86 144.972 156.015 144.262 156.015C143.352 156.015 142.537 155.86 141.817 155.55C141.107 155.24 140.692 154.8 140.572 154.23ZM149.134 156.015C148.904 156.015 148.719 155.68 148.579 155.01C148.439 154.33 148.349 153.745 148.309 153.255C148.269 152.765 148.214 151.99 148.144 150.93C148.134 150.76 148.129 150.54 148.129 150.27C148.129 149.93 148.154 149.695 148.204 149.565C148.264 149.435 148.359 149.37 148.489 149.37C148.599 149.37 148.684 149.395 148.744 149.445C148.814 149.485 148.874 149.555 148.924 149.655L148.909 150.255C148.909 150.895 148.939 151.5 148.999 152.07C149.069 152.64 149.174 153.405 149.314 154.365C149.394 154.785 149.449 155.13 149.479 155.4C149.499 155.54 149.474 155.68 149.404 155.82C149.334 155.95 149.244 156.015 149.134 156.015ZM148.759 147.765C148.539 147.765 148.374 147.68 148.264 147.51C148.164 147.34 148.114 147.13 148.114 146.88C148.114 146.77 148.119 146.69 148.129 146.64C148.119 146.48 148.209 146.4 148.399 146.4C148.539 146.4 148.679 146.435 148.819 146.505C148.969 146.565 149.014 146.61 148.954 146.64C149.054 146.9 149.104 147.105 149.104 147.255C149.104 147.385 149.074 147.49 149.014 147.57C148.954 147.64 148.869 147.705 148.759 147.765ZM153.239 156C153.139 156.02 153.074 156.03 153.044 156.03C152.734 156.03 152.519 155.8 152.399 155.34C152.289 154.88 152.234 154.235 152.234 153.405C152.234 153.065 152.244 152.535 152.264 151.815C152.284 151.375 152.294 151.045 152.294 150.825C151.064 150.825 150.449 150.685 150.449 150.405C150.449 150.315 150.459 150.245 150.479 150.195C150.509 150.145 150.569 150.12 150.659 150.12L152.294 150.015C152.284 149.525 152.259 148.99 152.219 148.41C152.179 147.89 152.154 147.41 152.144 146.97C152.144 146.86 152.189 146.785 152.279 146.745C152.369 146.695 152.464 146.67 152.564 146.67C152.684 146.67 152.784 146.735 152.864 146.865C152.944 146.985 152.984 147.11 152.984 147.24L153.089 149.985L154.334 150.045C154.524 150.025 154.684 150.06 154.814 150.15C154.954 150.24 155.029 150.39 155.039 150.6C154.829 150.69 154.599 150.745 154.349 150.765C154.099 150.785 153.679 150.795 153.089 150.795C153.089 151.725 153.134 153.255 153.224 155.385C153.224 155.605 153.224 155.76 153.224 155.85C153.234 155.93 153.239 155.98 153.239 156ZM163.468 156C162.428 156 161.523 155.82 160.753 155.46C159.993 155.09 159.613 154.445 159.613 153.525C159.613 153.195 159.713 152.875 159.913 152.565C160.113 152.255 160.408 152.005 160.798 151.815C161.188 151.615 161.663 151.515 162.223 151.515C162.653 151.515 163.018 151.535 163.318 151.575C163.618 151.615 163.963 151.725 164.353 151.905C164.743 152.085 165.148 152.37 165.568 152.76C165.408 152.07 165.168 151.465 164.848 150.945C164.528 150.425 164.168 150.025 163.768 149.745C163.378 149.455 162.993 149.31 162.613 149.31C162.433 149.31 162.263 149.345 162.103 149.415C161.953 149.475 161.768 149.565 161.548 149.685C161.298 149.845 161.113 149.925 160.993 149.925C160.943 149.925 160.898 149.91 160.858 149.88C160.828 149.84 160.813 149.795 160.813 149.745C160.813 149.345 160.988 149.035 161.338 148.815C161.698 148.595 162.133 148.495 162.643 148.515C163.343 148.555 163.983 148.855 164.563 149.415C165.143 149.965 165.598 150.65 165.928 151.47C166.268 152.29 166.438 153.095 166.438 153.885C166.438 154.015 166.428 154.2 166.408 154.44L165.928 154.41C165.548 153.64 165.058 153.095 164.458 152.775C163.868 152.445 163.273 152.28 162.673 152.28C161.903 152.28 161.353 152.395 161.023 152.625C160.693 152.855 160.528 153.19 160.528 153.63C160.528 154.09 160.758 154.46 161.218 154.74C161.678 155.02 162.268 155.16 162.988 155.16C163.388 155.16 163.708 155.14 163.948 155.1C164.188 155.05 164.438 154.985 164.698 154.905C164.908 154.835 165.093 154.785 165.253 154.755C165.413 154.725 165.618 154.71 165.868 154.71C166.148 154.71 166.323 154.73 166.393 154.77C166.473 154.81 166.513 154.9 166.513 155.04C166.513 155.14 166.308 155.265 165.898 155.415C165.488 155.565 165.028 155.7 164.518 155.82C164.008 155.94 163.658 156 163.468 156ZM177.449 156.015C177.299 156.015 177.209 155.975 177.179 155.895C177.149 155.805 177.134 155.67 177.134 155.49C177.144 155.42 177.149 155.34 177.149 155.25C177.149 155.15 177.154 155.075 177.164 155.025C177.224 154.545 177.254 154.09 177.254 153.66C177.254 152.71 177.094 151.97 176.774 151.44C176.454 150.9 175.949 150.63 175.259 150.63C174.879 150.63 174.499 150.725 174.119 150.915C173.749 151.105 173.444 151.34 173.204 151.62C172.974 151.9 172.859 152.155 172.859 152.385C172.909 152.675 172.999 153.03 173.129 153.45C173.139 153.5 173.179 153.655 173.249 153.915C173.329 154.175 173.369 154.41 173.369 154.62L173.384 154.905C173.384 155.065 173.304 155.145 173.144 155.145C172.944 155.145 172.779 155.015 172.649 154.755C172.529 154.495 172.394 154.09 172.244 153.54C172.094 153 171.949 152.555 171.809 152.205C171.669 151.855 171.479 151.555 171.239 151.305C170.999 151.055 170.694 150.93 170.324 150.93C169.814 150.93 169.414 151.105 169.124 151.455C168.844 151.805 168.704 152.235 168.704 152.745C168.704 153.085 168.734 153.535 168.794 154.095C168.844 154.515 168.869 154.875 168.869 155.175C168.869 155.355 168.849 155.49 168.809 155.58C168.769 155.67 168.674 155.715 168.524 155.715C168.324 155.715 168.184 155.65 168.104 155.52C168.024 155.38 167.984 155.17 167.984 154.89C167.984 154.34 167.954 153.675 167.894 152.895C167.884 152.795 167.864 152.54 167.834 152.13C167.804 151.71 167.799 151.29 167.819 150.87L167.834 150.375C167.894 150.315 167.964 150.285 168.044 150.285C168.154 150.285 168.244 150.355 168.314 150.495C168.394 150.625 168.434 150.825 168.434 151.095C168.584 150.835 168.804 150.6 169.094 150.39C169.384 150.18 169.689 150.075 170.009 150.075C170.559 150.075 171.014 150.19 171.374 150.42C171.744 150.64 172.079 151 172.379 151.5C172.659 150.99 173.079 150.555 173.639 150.195C174.209 149.835 174.794 149.655 175.394 149.655C176.014 149.655 176.529 149.89 176.939 150.36C177.359 150.83 177.664 151.395 177.854 152.055C178.054 152.715 178.154 153.325 178.154 153.885C178.154 154.385 178.109 154.865 178.019 155.325C177.939 155.785 177.749 156.015 177.449 156.015ZM182.899 156C182.259 156 181.669 155.875 181.129 155.625C180.589 155.375 180.159 155.02 179.839 154.56C179.519 154.1 179.359 153.57 179.359 152.97C179.359 152.3 179.484 151.675 179.734 151.095C179.984 150.505 180.349 150.035 180.829 149.685C181.319 149.325 181.889 149.145 182.539 149.145C183.219 149.145 183.734 149.365 184.084 149.805C184.434 150.235 184.599 150.78 184.579 151.44C184.579 152.03 184.344 152.48 183.874 152.79C183.414 153.1 182.824 153.255 182.104 153.255C181.994 153.255 181.829 153.245 181.609 153.225C181.249 153.185 180.994 153.13 180.844 153.06C180.694 152.99 180.619 152.85 180.619 152.64C180.619 152.57 180.639 152.52 180.679 152.49C180.719 152.45 180.799 152.43 180.919 152.43C181.049 152.43 181.279 152.46 181.609 152.52C181.929 152.58 182.214 152.61 182.464 152.61C183.384 152.61 183.844 152.21 183.844 151.41C183.844 150.93 183.754 150.55 183.574 150.27C183.404 149.99 183.099 149.85 182.659 149.85C182.179 149.85 181.749 149.98 181.369 150.24C180.989 150.49 180.694 150.82 180.484 151.23C180.284 151.64 180.184 152.075 180.184 152.535C180.184 153.325 180.404 153.975 180.844 154.485C181.284 154.985 181.964 155.235 182.884 155.235C182.994 155.235 183.179 155.225 183.439 155.205C183.549 155.195 183.684 155.165 183.844 155.115C184.004 155.065 184.119 155.03 184.189 155.01C184.619 154.86 184.934 154.785 185.134 154.785C185.284 154.785 185.399 154.825 185.479 154.905C185.229 155.285 184.854 155.565 184.354 155.745C183.864 155.915 183.379 156 182.899 156ZM188.498 156C188.398 156.02 188.333 156.03 188.303 156.03C187.993 156.03 187.778 155.8 187.658 155.34C187.548 154.88 187.493 154.235 187.493 153.405C187.493 153.065 187.503 152.535 187.523 151.815C187.543 151.375 187.553 151.045 187.553 150.825C186.323 150.825 185.708 150.685 185.708 150.405C185.708 150.315 185.718 150.245 185.738 150.195C185.768 150.145 185.828 150.12 185.918 150.12L187.553 150.015C187.543 149.525 187.518 148.99 187.478 148.41C187.438 147.89 187.413 147.41 187.403 146.97C187.403 146.86 187.448 146.785 187.538 146.745C187.628 146.695 187.723 146.67 187.823 146.67C187.943 146.67 188.043 146.735 188.123 146.865C188.203 146.985 188.243 147.11 188.243 147.24L188.348 149.985L189.593 150.045C189.783 150.025 189.943 150.06 190.073 150.15C190.213 150.24 190.288 150.39 190.298 150.6C190.088 150.69 189.858 150.745 189.608 150.765C189.358 150.785 188.938 150.795 188.348 150.795C188.348 151.725 188.393 153.255 188.483 155.385C188.483 155.605 188.483 155.76 188.483 155.85C188.493 155.93 188.498 155.98 188.498 156ZM191.557 158.835C191.437 158.835 191.357 158.785 191.317 158.685C191.287 158.595 191.272 158.47 191.272 158.31C191.272 157.98 191.347 157.515 191.497 156.915C191.507 156.855 191.547 156.665 191.617 156.345C191.687 156.025 191.722 155.725 191.722 155.445L191.707 154.89C191.587 154.89 191.507 154.87 191.467 154.83C191.437 154.78 191.422 154.705 191.422 154.605C191.422 154.375 191.457 154.195 191.527 154.065C191.607 153.935 191.747 153.87 191.947 153.87C192.197 153.87 192.362 153.985 192.442 154.215C192.532 154.445 192.577 154.735 192.577 155.085L192.562 155.58C192.562 155.79 192.517 156.165 192.427 156.705C192.337 157.255 192.217 157.745 192.067 158.175C191.917 158.615 191.747 158.835 191.557 158.835ZM43.3764 178.015C42.2064 178.015 41.2964 177.75 40.6464 177.22C40.0064 176.68 39.6864 175.85 39.6864 174.73C39.6864 174.16 39.8264 173.62 40.1064 173.11C40.3964 172.59 40.7814 172.175 41.2614 171.865C41.7514 171.545 42.2764 171.385 42.8364 171.385C43.4064 171.385 43.8914 171.51 44.2914 171.76C44.6914 172 44.8914 172.35 44.8914 172.81C44.8914 173.13 44.8314 173.36 44.7114 173.5C44.6014 173.63 44.4764 173.695 44.3364 173.695C44.3364 173.215 44.2064 172.825 43.9464 172.525C43.6864 172.225 43.3164 172.075 42.8364 172.075C42.3564 172.075 41.9414 172.205 41.5914 172.465C41.2414 172.715 40.9714 173.05 40.7814 173.47C40.6014 173.88 40.5114 174.31 40.5114 174.76C40.5114 175.71 40.8314 176.355 41.4714 176.695C42.1214 177.035 42.9764 177.205 44.0364 177.205C44.3964 177.205 44.8664 177.185 45.4464 177.145C45.4664 177.145 45.5114 177.165 45.5814 177.205C45.6514 177.245 45.7064 177.27 45.7464 177.28V177.37C45.7464 177.66 45.4914 177.84 44.9814 177.91C44.4714 177.98 43.9364 178.015 43.3764 178.015ZM49.4565 178.015C48.8665 178.015 48.3315 177.885 47.8515 177.625C47.3815 177.355 47.0115 176.985 46.7415 176.515C46.4815 176.035 46.3515 175.49 46.3515 174.88C46.3515 173.88 46.7165 173.135 47.4465 172.645C48.1865 172.155 49.0915 171.91 50.1615 171.91C50.6515 171.91 51.1065 172.03 51.5265 172.27C51.9565 172.51 52.3015 172.855 52.5615 173.305C52.8215 173.755 52.9515 174.275 52.9515 174.865C52.9515 175.505 52.7865 176.065 52.4565 176.545C52.1265 177.015 51.6915 177.38 51.1515 177.64C50.6215 177.89 50.0565 178.015 49.4565 178.015ZM49.2915 177.16C50.2215 177.16 50.9265 176.95 51.4065 176.53C51.8865 176.11 52.1265 175.495 52.1265 174.685C52.1265 174.135 51.9365 173.66 51.5565 173.26C51.1865 172.86 50.6665 172.66 49.9965 172.66C49.5465 172.66 49.0915 172.745 48.6315 172.915C48.1715 173.085 47.7915 173.34 47.4915 173.68C47.1915 174.02 47.0415 174.43 47.0415 174.91C47.0415 175.31 47.1415 175.685 47.3415 176.035C47.5415 176.375 47.8115 176.65 48.1515 176.86C48.5015 177.06 48.8815 177.16 49.2915 177.16ZM55.5694 178.06C55.4294 178.1 55.3494 178.12 55.3294 178.12C55.2494 178.12 55.1644 178.08 55.0744 178C54.7444 177.51 54.5044 176.655 54.3544 175.435C54.2144 174.215 54.1444 173.165 54.1444 172.285C54.1444 172.145 54.2444 172.075 54.4444 172.075C54.7444 172.075 54.8944 172.24 54.8944 172.57C54.8944 172.66 54.8894 172.735 54.8794 172.795C54.9694 172.585 55.1394 172.37 55.3894 172.15C55.6394 171.93 55.9294 171.745 56.2594 171.595C56.5894 171.445 56.9244 171.37 57.2644 171.37C58.3344 171.37 59.1144 171.845 59.6044 172.795C60.0944 173.735 60.3394 174.905 60.3394 176.305C60.3394 176.785 60.2894 177.17 60.1894 177.46C60.0894 177.74 59.9544 177.88 59.7844 177.88C59.6044 177.88 59.5144 177.825 59.5144 177.715C59.5844 177.185 59.6194 176.665 59.6194 176.155C59.6194 174.865 59.3944 173.89 58.9444 173.23C58.4944 172.56 57.8994 172.225 57.1594 172.225C56.7994 172.225 56.4494 172.315 56.1094 172.495C55.7794 172.675 55.5094 172.925 55.2994 173.245C55.0994 173.565 54.9994 173.93 54.9994 174.34C54.9994 174.8 55.0244 175.2 55.0744 175.54C55.1244 175.88 55.2044 176.29 55.3144 176.77C55.4344 177.24 55.5194 177.67 55.5694 178.06ZM61.6169 176.23C61.7569 176.12 61.8919 176.065 62.0219 176.065C62.1419 176.065 62.2569 176.1 62.3669 176.17C62.4869 176.24 62.6069 176.33 62.7269 176.44C62.8469 176.54 62.9419 176.615 63.0119 176.665C63.2419 176.845 63.5569 176.985 63.9569 177.085C64.3569 177.185 64.7819 177.235 65.2319 177.235C65.7419 177.235 66.1969 177.14 66.5969 176.95C67.0069 176.75 67.2119 176.485 67.2119 176.155C67.2119 175.855 67.1019 175.62 66.8819 175.45C66.6619 175.27 66.3969 175.14 66.0869 175.06C65.7769 174.98 65.3669 174.905 64.8569 174.835C64.1669 174.755 63.6169 174.655 63.2069 174.535C62.8069 174.415 62.4869 174.22 62.2469 173.95C62.0069 173.67 61.8869 173.28 61.8869 172.78C61.8869 172.24 62.1419 171.84 62.6519 171.58C63.1619 171.31 63.7469 171.175 64.4069 171.175C65.0069 171.175 65.5169 171.305 65.9369 171.565C66.3669 171.815 66.5869 172.175 66.5969 172.645C66.6169 172.915 66.5769 173.13 66.4769 173.29C66.3769 173.44 66.2569 173.515 66.1169 173.515C66.0369 173.515 65.9669 173.485 65.9069 173.425C65.8569 173.365 65.8319 173.285 65.8319 173.185C65.8319 173.025 65.8869 172.85 65.9969 172.66C65.9469 172.42 65.7819 172.24 65.5019 172.12C65.2319 172 64.9069 171.94 64.5269 171.94C63.9669 171.94 63.5219 172.045 63.1919 172.255C62.8619 172.455 62.6969 172.695 62.6969 172.975C62.6969 173.275 62.8169 173.505 63.0569 173.665C63.2969 173.825 63.5869 173.94 63.9269 174.01C64.2769 174.07 64.7719 174.13 65.4119 174.19C65.9419 174.26 66.3719 174.345 66.7019 174.445C67.0419 174.545 67.3269 174.74 67.5569 175.03C67.7869 175.31 67.9019 175.715 67.9019 176.245C67.9019 176.795 67.6469 177.23 67.1369 177.55C66.6269 177.86 66.0169 178.015 65.3069 178.015C64.3969 178.015 63.5819 177.86 62.8619 177.55C62.1519 177.24 61.7369 176.8 61.6169 176.23ZM72.7137 178C72.0737 178 71.4837 177.875 70.9437 177.625C70.4037 177.375 69.9737 177.02 69.6537 176.56C69.3337 176.1 69.1737 175.57 69.1737 174.97C69.1737 174.3 69.2987 173.675 69.5487 173.095C69.7987 172.505 70.1637 172.035 70.6437 171.685C71.1337 171.325 71.7037 171.145 72.3537 171.145C73.0337 171.145 73.5487 171.365 73.8987 171.805C74.2487 172.235 74.4137 172.78 74.3937 173.44C74.3937 174.03 74.1587 174.48 73.6887 174.79C73.2287 175.1 72.6387 175.255 71.9187 175.255C71.8087 175.255 71.6437 175.245 71.4237 175.225C71.0637 175.185 70.8087 175.13 70.6587 175.06C70.5087 174.99 70.4337 174.85 70.4337 174.64C70.4337 174.57 70.4537 174.52 70.4937 174.49C70.5337 174.45 70.6137 174.43 70.7337 174.43C70.8637 174.43 71.0937 174.46 71.4237 174.52C71.7437 174.58 72.0287 174.61 72.2787 174.61C73.1987 174.61 73.6587 174.21 73.6587 173.41C73.6587 172.93 73.5687 172.55 73.3887 172.27C73.2187 171.99 72.9137 171.85 72.4737 171.85C71.9937 171.85 71.5637 171.98 71.1837 172.24C70.8037 172.49 70.5087 172.82 70.2987 173.23C70.0987 173.64 69.9987 174.075 69.9987 174.535C69.9987 175.325 70.2187 175.975 70.6587 176.485C71.0987 176.985 71.7787 177.235 72.6987 177.235C72.8087 177.235 72.9937 177.225 73.2537 177.205C73.3637 177.195 73.4987 177.165 73.6587 177.115C73.8187 177.065 73.9337 177.03 74.0037 177.01C74.4337 176.86 74.7487 176.785 74.9487 176.785C75.0987 176.785 75.2137 176.825 75.2937 176.905C75.0437 177.285 74.6687 177.565 74.1687 177.745C73.6787 177.915 73.1937 178 72.7137 178ZM79.5874 178.015C78.4174 178.015 77.5074 177.75 76.8574 177.22C76.2174 176.68 75.8974 175.85 75.8974 174.73C75.8974 174.16 76.0374 173.62 76.3174 173.11C76.6074 172.59 76.9924 172.175 77.4724 171.865C77.9624 171.545 78.4874 171.385 79.0474 171.385C79.6174 171.385 80.1024 171.51 80.5024 171.76C80.9024 172 81.1024 172.35 81.1024 172.81C81.1024 173.13 81.0424 173.36 80.9224 173.5C80.8124 173.63 80.6874 173.695 80.5474 173.695C80.5474 173.215 80.4174 172.825 80.1574 172.525C79.8974 172.225 79.5274 172.075 79.0474 172.075C78.5674 172.075 78.1524 172.205 77.8024 172.465C77.4524 172.715 77.1824 173.05 76.9924 173.47C76.8124 173.88 76.7224 174.31 76.7224 174.76C76.7224 175.71 77.0424 176.355 77.6824 176.695C78.3324 177.035 79.1874 177.205 80.2474 177.205C80.6074 177.205 81.0774 177.185 81.6574 177.145C81.6774 177.145 81.7224 177.165 81.7924 177.205C81.8624 177.245 81.9174 177.27 81.9574 177.28V177.37C81.9574 177.66 81.7024 177.84 81.1924 177.91C80.6824 177.98 80.1474 178.015 79.5874 178.015ZM84.9774 178C84.8774 178.02 84.8124 178.03 84.7824 178.03C84.4724 178.03 84.2574 177.8 84.1374 177.34C84.0274 176.88 83.9724 176.235 83.9724 175.405C83.9724 175.065 83.9824 174.535 84.0024 173.815C84.0224 173.375 84.0324 173.045 84.0324 172.825C82.8024 172.825 82.1874 172.685 82.1874 172.405C82.1874 172.315 82.1974 172.245 82.2174 172.195C82.2474 172.145 82.3074 172.12 82.3974 172.12L84.0324 172.015C84.0224 171.525 83.9974 170.99 83.9574 170.41C83.9174 169.89 83.8924 169.41 83.8824 168.97C83.8824 168.86 83.9274 168.785 84.0174 168.745C84.1074 168.695 84.2024 168.67 84.3024 168.67C84.4224 168.67 84.5224 168.735 84.6024 168.865C84.6824 168.985 84.7224 169.11 84.7224 169.24L84.8274 171.985L86.0724 172.045C86.2624 172.025 86.4224 172.06 86.5524 172.15C86.6924 172.24 86.7674 172.39 86.7774 172.6C86.5674 172.69 86.3374 172.745 86.0874 172.765C85.8374 172.785 85.4174 172.795 84.8274 172.795C84.8274 173.725 84.8724 175.255 84.9624 177.385C84.9624 177.605 84.9624 177.76 84.9624 177.85C84.9724 177.93 84.9774 177.98 84.9774 178ZM91.1415 178C90.5015 178 89.9115 177.875 89.3715 177.625C88.8315 177.375 88.4015 177.02 88.0815 176.56C87.7615 176.1 87.6015 175.57 87.6015 174.97C87.6015 174.3 87.7265 173.675 87.9765 173.095C88.2265 172.505 88.5915 172.035 89.0715 171.685C89.5615 171.325 90.1315 171.145 90.7815 171.145C91.4615 171.145 91.9765 171.365 92.3265 171.805C92.6765 172.235 92.8415 172.78 92.8215 173.44C92.8215 174.03 92.5865 174.48 92.1165 174.79C91.6565 175.1 91.0665 175.255 90.3465 175.255C90.2365 175.255 90.0715 175.245 89.8515 175.225C89.4915 175.185 89.2365 175.13 89.0865 175.06C88.9365 174.99 88.8615 174.85 88.8615 174.64C88.8615 174.57 88.8815 174.52 88.9215 174.49C88.9615 174.45 89.0415 174.43 89.1615 174.43C89.2915 174.43 89.5215 174.46 89.8515 174.52C90.1715 174.58 90.4565 174.61 90.7065 174.61C91.6265 174.61 92.0865 174.21 92.0865 173.41C92.0865 172.93 91.9965 172.55 91.8165 172.27C91.6465 171.99 91.3415 171.85 90.9015 171.85C90.4215 171.85 89.9915 171.98 89.6115 172.24C89.2315 172.49 88.9365 172.82 88.7265 173.23C88.5265 173.64 88.4265 174.075 88.4265 174.535C88.4265 175.325 88.6465 175.975 89.0865 176.485C89.5265 176.985 90.2065 177.235 91.1265 177.235C91.2365 177.235 91.4215 177.225 91.6815 177.205C91.7915 177.195 91.9265 177.165 92.0865 177.115C92.2465 177.065 92.3615 177.03 92.4315 177.01C92.8615 176.86 93.1765 176.785 93.3765 176.785C93.5265 176.785 93.6415 176.825 93.7215 176.905C93.4715 177.285 93.0965 177.565 92.5965 177.745C92.1065 177.915 91.6215 178 91.1415 178ZM96.7401 178C96.6401 178.02 96.5751 178.03 96.5451 178.03C96.2351 178.03 96.0201 177.8 95.9001 177.34C95.7901 176.88 95.7351 176.235 95.7351 175.405C95.7351 175.065 95.7451 174.535 95.7651 173.815C95.7851 173.375 95.7951 173.045 95.7951 172.825C94.5651 172.825 93.9501 172.685 93.9501 172.405C93.9501 172.315 93.9601 172.245 93.9801 172.195C94.0101 172.145 94.0701 172.12 94.1601 172.12L95.7951 172.015C95.7851 171.525 95.7601 170.99 95.7201 170.41C95.6801 169.89 95.6551 169.41 95.6451 168.97C95.6451 168.86 95.6901 168.785 95.7801 168.745C95.8701 168.695 95.9651 168.67 96.0651 168.67C96.1851 168.67 96.2851 168.735 96.3651 168.865C96.4451 168.985 96.4851 169.11 96.4851 169.24L96.5901 171.985L97.8351 172.045C98.0251 172.025 98.1851 172.06 98.3151 172.15C98.4551 172.24 98.5301 172.39 98.5401 172.6C98.3301 172.69 98.1001 172.745 97.8501 172.765C97.6001 172.785 97.1801 172.795 96.5901 172.795C96.5901 173.725 96.6351 175.255 96.7251 177.385C96.7251 177.605 96.7251 177.76 96.7251 177.85C96.7351 177.93 96.7401 177.98 96.7401 178ZM106.264 177.925C106.084 177.925 105.939 177.85 105.829 177.7C105.729 177.54 105.639 177.3 105.559 176.98C105.479 176.65 105.354 176.08 105.184 175.27C105.014 175.94 104.694 176.475 104.224 176.875C103.754 177.265 103.179 177.46 102.499 177.46C101.879 177.46 101.354 177.245 100.924 176.815C100.504 176.375 100.189 175.8 99.9792 175.09C99.7692 174.37 99.6642 173.595 99.6642 172.765C99.6642 172.385 99.6992 172.06 99.7692 171.79C99.8492 171.51 99.9442 171.3 100.054 171.16C100.174 171.02 100.289 170.955 100.399 170.965C100.519 170.965 100.579 171.045 100.579 171.205C100.579 171.335 100.544 171.54 100.474 171.82C100.404 172.13 100.369 172.485 100.369 172.885C100.369 173.485 100.454 174.07 100.624 174.64C100.804 175.21 101.064 175.68 101.404 176.05C101.754 176.41 102.164 176.59 102.634 176.59C103.024 176.59 103.379 176.475 103.699 176.245C104.019 176.015 104.269 175.725 104.449 175.375C104.639 175.025 104.734 174.68 104.734 174.34V171.955C104.844 171.745 104.994 171.64 105.184 171.64C105.354 171.64 105.469 171.785 105.529 172.075C105.589 172.365 105.619 172.775 105.619 173.305C105.619 173.755 105.614 174.1 105.604 174.34C105.664 174.67 105.754 175.005 105.874 175.345C106.004 175.685 106.164 176.07 106.354 176.5C106.584 177.03 106.699 177.355 106.699 177.475C106.699 177.775 106.554 177.925 106.264 177.925ZM109.224 178C108.814 177.2 108.489 176.26 108.249 175.18C108.019 174.1 107.904 173.165 107.904 172.375C107.904 172.065 107.974 171.865 108.114 171.775C108.194 171.725 108.254 171.7 108.294 171.7C108.364 171.7 108.414 171.755 108.444 171.865C108.484 171.975 108.524 172.175 108.564 172.465L108.639 173.005C108.749 172.465 108.959 172.04 109.269 171.73C109.589 171.41 109.979 171.25 110.439 171.25C110.949 171.25 111.329 171.35 111.579 171.55C111.829 171.74 111.954 172.06 111.954 172.51C111.454 172.27 110.999 172.15 110.589 172.15C110.199 172.15 109.864 172.255 109.584 172.465C109.304 172.675 109.109 172.985 108.999 173.395C108.909 173.675 108.864 173.94 108.864 174.19C108.864 174.46 108.899 174.715 108.969 174.955C109.049 175.185 109.169 175.47 109.329 175.81C109.479 176.16 109.594 176.46 109.674 176.71C109.764 176.96 109.814 177.23 109.824 177.52C109.824 177.69 109.764 177.815 109.644 177.895C109.524 177.965 109.384 178 109.224 178ZM120.153 178C119.113 178 118.208 177.82 117.438 177.46C116.678 177.09 116.298 176.445 116.298 175.525C116.298 175.195 116.398 174.875 116.598 174.565C116.798 174.255 117.093 174.005 117.483 173.815C117.873 173.615 118.348 173.515 118.908 173.515C119.338 173.515 119.703 173.535 120.003 173.575C120.303 173.615 120.648 173.725 121.038 173.905C121.428 174.085 121.833 174.37 122.253 174.76C122.093 174.07 121.853 173.465 121.533 172.945C121.213 172.425 120.853 172.025 120.453 171.745C120.063 171.455 119.678 171.31 119.298 171.31C119.118 171.31 118.948 171.345 118.788 171.415C118.638 171.475 118.453 171.565 118.233 171.685C117.983 171.845 117.798 171.925 117.678 171.925C117.628 171.925 117.583 171.91 117.543 171.88C117.513 171.84 117.498 171.795 117.498 171.745C117.498 171.345 117.673 171.035 118.023 170.815C118.383 170.595 118.818 170.495 119.328 170.515C120.028 170.555 120.668 170.855 121.248 171.415C121.828 171.965 122.283 172.65 122.613 173.47C122.953 174.29 123.123 175.095 123.123 175.885C123.123 176.015 123.113 176.2 123.093 176.44L122.613 176.41C122.233 175.64 121.743 175.095 121.143 174.775C120.553 174.445 119.958 174.28 119.358 174.28C118.588 174.28 118.038 174.395 117.708 174.625C117.378 174.855 117.213 175.19 117.213 175.63C117.213 176.09 117.443 176.46 117.903 176.74C118.363 177.02 118.953 177.16 119.673 177.16C120.073 177.16 120.393 177.14 120.633 177.1C120.873 177.05 121.123 176.985 121.383 176.905C121.593 176.835 121.778 176.785 121.938 176.755C122.098 176.725 122.303 176.71 122.553 176.71C122.833 176.71 123.008 176.73 123.078 176.77C123.158 176.81 123.198 176.9 123.198 177.04C123.198 177.14 122.993 177.265 122.583 177.415C122.173 177.565 121.713 177.7 121.203 177.82C120.693 177.94 120.343 178 120.153 178ZM126.963 177.985C126.493 177.985 126.083 177.825 125.733 177.505C125.393 177.185 125.133 176.77 124.953 176.26C124.783 175.75 124.698 175.22 124.698 174.67C124.698 173.71 124.898 172.9 125.298 172.24C125.708 171.58 126.328 171.25 127.158 171.25C127.658 171.25 128.093 171.34 128.463 171.52C128.843 171.69 129.338 171.98 129.948 172.39L130.338 172.66C130.288 172.33 130.213 171.95 130.113 171.52C130.013 171.09 129.948 170.795 129.918 170.635C129.748 169.855 129.623 169.275 129.543 168.895C129.473 168.505 129.438 168.16 129.438 167.86C129.438 167.33 129.588 167.065 129.888 167.065C129.998 167.305 130.128 167.82 130.278 168.61C130.428 169.39 130.618 170.46 130.848 171.82C131.088 173.26 131.298 174.435 131.478 175.345C131.658 176.255 131.808 176.825 131.928 177.055C131.928 177.285 131.758 177.4 131.418 177.4C131.158 177.4 130.978 177.25 130.878 176.95C130.788 176.65 130.733 176.125 130.713 175.375H130.593C130.173 176.135 129.628 176.76 128.958 177.25C128.288 177.74 127.623 177.985 126.963 177.985ZM127.158 177.25C127.568 177.25 128.008 177.08 128.478 176.74C128.958 176.39 129.363 175.97 129.693 175.48C130.023 174.98 130.188 174.53 130.188 174.13V173.68C129.158 172.6 128.208 172.06 127.338 172.06C126.728 172.06 126.258 172.285 125.928 172.735C125.598 173.175 125.433 173.755 125.433 174.475L125.448 174.79C125.508 175.55 125.678 176.15 125.958 176.59C126.238 177.03 126.638 177.25 127.158 177.25ZM133.826 178.015C133.596 178.015 133.411 177.68 133.271 177.01C133.131 176.33 133.041 175.745 133.001 175.255C132.961 174.765 132.906 173.99 132.836 172.93C132.826 172.76 132.821 172.54 132.821 172.27C132.821 171.93 132.846 171.695 132.896 171.565C132.956 171.435 133.051 171.37 133.181 171.37C133.291 171.37 133.376 171.395 133.436 171.445C133.506 171.485 133.566 171.555 133.616 171.655L133.601 172.255C133.601 172.895 133.631 173.5 133.691 174.07C133.761 174.64 133.866 175.405 134.006 176.365C134.086 176.785 134.141 177.13 134.171 177.4C134.191 177.54 134.166 177.68 134.096 177.82C134.026 177.95 133.936 178.015 133.826 178.015ZM133.451 169.765C133.231 169.765 133.066 169.68 132.956 169.51C132.856 169.34 132.806 169.13 132.806 168.88C132.806 168.77 132.811 168.69 132.821 168.64C132.811 168.48 132.901 168.4 133.091 168.4C133.231 168.4 133.371 168.435 133.511 168.505C133.661 168.565 133.706 168.61 133.646 168.64C133.746 168.9 133.796 169.105 133.796 169.255C133.796 169.385 133.766 169.49 133.706 169.57C133.646 169.64 133.561 169.705 133.451 169.765ZM137.287 183.34C137.087 183.34 136.847 182.805 136.567 181.735C136.297 180.665 136.052 179.475 135.832 178.165C135.622 176.865 135.517 176.045 135.517 175.705C135.517 174.695 135.857 173.96 136.537 173.5C137.217 173.03 138.092 172.795 139.162 172.795C139.732 172.795 140.272 172.915 140.782 173.155C141.292 173.385 141.702 173.72 142.012 174.16C142.322 174.59 142.477 175.09 142.477 175.66C142.477 176.37 142.227 176.87 141.727 177.16C141.237 177.45 140.617 177.595 139.867 177.595C139.087 177.595 138.422 177.465 137.872 177.205C137.332 176.935 137.062 176.57 137.062 176.11L137.077 175.96C137.147 175.88 137.222 175.84 137.302 175.84C137.372 175.84 137.447 175.87 137.527 175.93C137.617 175.98 137.712 176.04 137.812 176.11C138.122 176.34 138.427 176.525 138.727 176.665C139.037 176.805 139.422 176.875 139.882 176.875C140.512 176.875 140.957 176.765 141.217 176.545C141.487 176.315 141.622 175.955 141.622 175.465C141.622 175.105 141.502 174.785 141.262 174.505C141.022 174.225 140.712 174.01 140.332 173.86C139.952 173.71 139.562 173.635 139.162 173.635C138.232 173.635 137.532 173.835 137.062 174.235C136.592 174.625 136.382 175.28 136.432 176.2C136.522 177.76 136.662 179.07 136.852 180.13C137.052 181.19 137.397 182.09 137.887 182.83L137.902 182.86C137.902 182.88 137.877 182.9 137.827 182.92C137.787 182.95 137.757 182.975 137.737 182.995C137.617 183.185 137.467 183.3 137.287 183.34ZM144.681 178.015C144.451 178.015 144.266 177.68 144.126 177.01C143.986 176.33 143.896 175.745 143.856 175.255C143.816 174.765 143.761 173.99 143.691 172.93C143.681 172.76 143.676 172.54 143.676 172.27C143.676 171.93 143.701 171.695 143.751 171.565C143.811 171.435 143.906 171.37 144.036 171.37C144.146 171.37 144.231 171.395 144.291 171.445C144.361 171.485 144.421 171.555 144.471 171.655L144.456 172.255C144.456 172.895 144.486 173.5 144.546 174.07C144.616 174.64 144.721 175.405 144.861 176.365C144.941 176.785 144.996 177.13 145.026 177.4C145.046 177.54 145.021 177.68 144.951 177.82C144.881 177.95 144.791 178.015 144.681 178.015ZM144.306 169.765C144.086 169.765 143.921 169.68 143.811 169.51C143.711 169.34 143.661 169.13 143.661 168.88C143.661 168.77 143.666 168.69 143.676 168.64C143.666 168.48 143.756 168.4 143.946 168.4C144.086 168.4 144.226 168.435 144.366 168.505C144.516 168.565 144.561 168.61 144.501 168.64C144.601 168.9 144.651 169.105 144.651 169.255C144.651 169.385 144.621 169.49 144.561 169.57C144.501 169.64 144.416 169.705 144.306 169.765ZM146.446 176.23C146.586 176.12 146.721 176.065 146.851 176.065C146.971 176.065 147.086 176.1 147.196 176.17C147.316 176.24 147.436 176.33 147.556 176.44C147.676 176.54 147.771 176.615 147.841 176.665C148.071 176.845 148.386 176.985 148.786 177.085C149.186 177.185 149.611 177.235 150.061 177.235C150.571 177.235 151.026 177.14 151.426 176.95C151.836 176.75 152.041 176.485 152.041 176.155C152.041 175.855 151.931 175.62 151.711 175.45C151.491 175.27 151.226 175.14 150.916 175.06C150.606 174.98 150.196 174.905 149.686 174.835C148.996 174.755 148.446 174.655 148.036 174.535C147.636 174.415 147.316 174.22 147.076 173.95C146.836 173.67 146.716 173.28 146.716 172.78C146.716 172.24 146.971 171.84 147.481 171.58C147.991 171.31 148.576 171.175 149.236 171.175C149.836 171.175 150.346 171.305 150.766 171.565C151.196 171.815 151.416 172.175 151.426 172.645C151.446 172.915 151.406 173.13 151.306 173.29C151.206 173.44 151.086 173.515 150.946 173.515C150.866 173.515 150.796 173.485 150.736 173.425C150.686 173.365 150.661 173.285 150.661 173.185C150.661 173.025 150.716 172.85 150.826 172.66C150.776 172.42 150.611 172.24 150.331 172.12C150.061 172 149.736 171.94 149.356 171.94C148.796 171.94 148.351 172.045 148.021 172.255C147.691 172.455 147.526 172.695 147.526 172.975C147.526 173.275 147.646 173.505 147.886 173.665C148.126 173.825 148.416 173.94 148.756 174.01C149.106 174.07 149.601 174.13 150.241 174.19C150.771 174.26 151.201 174.345 151.531 174.445C151.871 174.545 152.156 174.74 152.386 175.03C152.616 175.31 152.731 175.715 152.731 176.245C152.731 176.795 152.476 177.23 151.966 177.55C151.456 177.86 150.846 178.015 150.136 178.015C149.226 178.015 148.411 177.86 147.691 177.55C146.981 177.24 146.566 176.8 146.446 176.23ZM157.693 178.015C156.523 178.015 155.613 177.75 154.963 177.22C154.323 176.68 154.003 175.85 154.003 174.73C154.003 174.16 154.143 173.62 154.423 173.11C154.713 172.59 155.098 172.175 155.578 171.865C156.068 171.545 156.593 171.385 157.153 171.385C157.723 171.385 158.208 171.51 158.608 171.76C159.008 172 159.208 172.35 159.208 172.81C159.208 173.13 159.148 173.36 159.028 173.5C158.918 173.63 158.793 173.695 158.653 173.695C158.653 173.215 158.523 172.825 158.263 172.525C158.003 172.225 157.633 172.075 157.153 172.075C156.673 172.075 156.258 172.205 155.908 172.465C155.558 172.715 155.288 173.05 155.098 173.47C154.918 173.88 154.828 174.31 154.828 174.76C154.828 175.71 155.148 176.355 155.788 176.695C156.438 177.035 157.293 177.205 158.353 177.205C158.713 177.205 159.183 177.185 159.763 177.145C159.783 177.145 159.828 177.165 159.898 177.205C159.968 177.245 160.023 177.27 160.063 177.28V177.37C160.063 177.66 159.808 177.84 159.298 177.91C158.788 177.98 158.253 178.015 157.693 178.015ZM161.673 178.015C161.443 178.015 161.258 177.68 161.118 177.01C160.978 176.33 160.888 175.745 160.848 175.255C160.808 174.765 160.753 173.99 160.683 172.93C160.673 172.76 160.668 172.54 160.668 172.27C160.668 171.93 160.693 171.695 160.743 171.565C160.803 171.435 160.898 171.37 161.028 171.37C161.138 171.37 161.223 171.395 161.283 171.445C161.353 171.485 161.413 171.555 161.463 171.655L161.448 172.255C161.448 172.895 161.478 173.5 161.538 174.07C161.608 174.64 161.713 175.405 161.853 176.365C161.933 176.785 161.988 177.13 162.018 177.4C162.038 177.54 162.013 177.68 161.943 177.82C161.873 177.95 161.783 178.015 161.673 178.015ZM161.298 169.765C161.078 169.765 160.913 169.68 160.803 169.51C160.703 169.34 160.653 169.13 160.653 168.88C160.653 168.77 160.658 168.69 160.668 168.64C160.658 168.48 160.748 168.4 160.938 168.4C161.078 168.4 161.218 168.435 161.358 168.505C161.508 168.565 161.553 168.61 161.493 168.64C161.593 168.9 161.643 169.105 161.643 169.255C161.643 169.385 161.613 169.49 161.553 169.57C161.493 169.64 161.408 169.705 161.298 169.765ZM164.788 178.06C164.648 178.1 164.568 178.12 164.548 178.12C164.468 178.12 164.383 178.08 164.293 178C163.963 177.51 163.723 176.655 163.573 175.435C163.433 174.215 163.363 173.165 163.363 172.285C163.363 172.145 163.463 172.075 163.663 172.075C163.963 172.075 164.113 172.24 164.113 172.57C164.113 172.66 164.108 172.735 164.098 172.795C164.188 172.585 164.358 172.37 164.608 172.15C164.858 171.93 165.148 171.745 165.478 171.595C165.808 171.445 166.143 171.37 166.483 171.37C167.553 171.37 168.333 171.845 168.823 172.795C169.313 173.735 169.558 174.905 169.558 176.305C169.558 176.785 169.508 177.17 169.408 177.46C169.308 177.74 169.173 177.88 169.003 177.88C168.823 177.88 168.733 177.825 168.733 177.715C168.803 177.185 168.838 176.665 168.838 176.155C168.838 174.865 168.613 173.89 168.163 173.23C167.713 172.56 167.118 172.225 166.378 172.225C166.018 172.225 165.668 172.315 165.328 172.495C164.998 172.675 164.728 172.925 164.518 173.245C164.318 173.565 164.218 173.93 164.218 174.34C164.218 174.8 164.243 175.2 164.293 175.54C164.343 175.88 164.423 176.29 164.533 176.77C164.653 177.24 164.738 177.67 164.788 178.06ZM173.281 185.32C172.441 185.32 171.736 185.08 171.166 184.6C170.606 184.13 170.271 183.335 170.161 182.215C170.151 182.045 170.176 181.915 170.236 181.825C170.306 181.735 170.396 181.69 170.506 181.69C170.626 181.69 170.731 181.735 170.821 181.825C170.911 181.925 170.951 182.055 170.941 182.215C170.941 182.875 171.166 183.395 171.616 183.775C172.076 184.165 172.661 184.36 173.371 184.36C173.781 184.36 174.141 184.21 174.451 183.91C174.771 183.61 175.016 183.19 175.186 182.65C175.356 182.12 175.441 181.51 175.441 180.82C175.441 179.61 175.456 178.435 175.486 177.295L175.501 176.53C175.111 176.94 174.756 177.24 174.436 177.43C174.126 177.62 173.751 177.715 173.311 177.715C172.541 177.715 171.971 177.51 171.601 177.1C171.241 176.68 171.061 176.04 171.061 175.18C171.061 174.69 171.191 174.18 171.451 173.65C171.721 173.11 172.086 172.66 172.546 172.3C173.016 171.94 173.546 171.76 174.136 171.76C174.336 171.76 174.521 171.78 174.691 171.82C175.331 171.96 175.761 172.555 175.981 173.605C176.201 174.655 176.311 176.015 176.311 177.685C176.311 178.145 176.301 178.755 176.281 179.515L176.266 180.94C176.266 181.51 176.176 182.13 175.996 182.8C175.816 183.48 175.501 184.07 175.051 184.57C174.601 185.07 174.011 185.32 173.281 185.32ZM173.086 176.725C173.826 176.725 174.386 176.55 174.766 176.2C175.146 175.84 175.336 175.315 175.336 174.625C175.336 174.535 175.326 174.38 175.306 174.16C175.256 173.7 175.136 173.34 174.946 173.08C174.766 172.81 174.481 172.675 174.091 172.675C173.681 172.675 173.306 172.82 172.966 173.11C172.626 173.4 172.361 173.76 172.171 174.19C171.981 174.61 171.886 175.005 171.886 175.375C171.886 175.745 171.996 176.065 172.216 176.335C172.436 176.595 172.726 176.725 173.086 176.725Z" fill="#333333"/>
<path d="M83.14 128.03C81.48 128.03 79.99 127.69 78.67 127.01C77.37 126.33 76.35 125.37 75.61 124.13C74.87 122.89 74.5 121.46 74.5 119.84C74.5 118.74 74.72 117.73 75.16 116.81C75.6 115.89 76.24 115.16 77.08 114.62C77.92 114.06 78.91 113.78 80.05 113.78C82.21 113.78 84.13 114.15 85.81 114.89C87.51 115.61 88.83 116.65 89.77 118.01C90.73 119.37 91.21 120.94 91.21 122.72C91.21 123.9 90.77 124.89 89.89 125.69C89.03 126.49 87.97 127.08 86.71 127.46C85.47 127.84 84.28 128.03 83.14 128.03ZM82.57 126.47C84.57 126.47 86.25 126.17 87.61 125.57C88.99 124.97 89.68 123.97 89.68 122.57C89.68 120.13 88.74 118.3 86.86 117.08C84.98 115.84 82.58 115.22 79.66 115.22C78.26 115.22 77.27 115.64 76.69 116.48C76.13 117.3 75.85 118.42 75.85 119.84C75.85 121.02 76.13 122.12 76.69 123.14C77.27 124.14 78.07 124.95 79.09 125.57C80.11 126.17 81.27 126.47 82.57 126.47ZM96.5568 128C95.7368 126.4 95.0868 124.52 94.6068 122.36C94.1468 120.2 93.9168 118.33 93.9168 116.75C93.9168 116.13 94.0568 115.73 94.3368 115.55C94.4968 115.45 94.6168 115.4 94.6968 115.4C94.8368 115.4 94.9368 115.51 94.9968 115.73C95.0768 115.95 95.1568 116.35 95.2368 116.93L95.3868 118.01C95.6068 116.93 96.0268 116.08 96.6468 115.46C97.2868 114.82 98.0668 114.5 98.9868 114.5C100.007 114.5 100.767 114.7 101.267 115.1C101.767 115.48 102.017 116.12 102.017 117.02C101.017 116.54 100.107 116.3 99.2868 116.3C98.5068 116.3 97.8368 116.51 97.2768 116.93C96.7168 117.35 96.3268 117.97 96.1068 118.79C95.9268 119.35 95.8368 119.88 95.8368 120.38C95.8368 120.92 95.9068 121.43 96.0468 121.91C96.2068 122.37 96.4468 122.94 96.7668 123.62C97.0668 124.32 97.2968 124.92 97.4568 125.42C97.6368 125.92 97.7368 126.46 97.7568 127.04C97.7568 127.38 97.6368 127.63 97.3968 127.79C97.1568 127.93 96.8768 128 96.5568 128ZM108.334 127.97C107.394 127.97 106.574 127.65 105.874 127.01C105.194 126.37 104.674 125.54 104.314 124.52C103.974 123.5 103.804 122.44 103.804 121.34C103.804 119.42 104.204 117.8 105.004 116.48C105.824 115.16 107.064 114.5 108.724 114.5C109.724 114.5 110.594 114.68 111.334 115.04C112.094 115.38 113.084 115.96 114.304 116.78L115.084 117.32C114.984 116.66 114.834 115.9 114.634 115.04C114.434 114.18 114.304 113.59 114.244 113.27C113.904 111.71 113.654 110.55 113.494 109.79C113.354 109.01 113.284 108.32 113.284 107.72C113.284 106.66 113.584 106.13 114.184 106.13C114.404 106.61 114.664 107.64 114.964 109.22C115.264 110.78 115.644 112.92 116.104 115.64C116.584 118.52 117.004 120.87 117.364 122.69C117.724 124.51 118.024 125.65 118.264 126.11C118.264 126.57 117.924 126.8 117.244 126.8C116.724 126.8 116.364 126.5 116.164 125.9C115.984 125.3 115.874 124.25 115.834 122.75H115.594C114.754 124.27 113.664 125.52 112.324 126.5C110.984 127.48 109.654 127.97 108.334 127.97ZM108.724 126.5C109.544 126.5 110.424 126.16 111.364 125.48C112.324 124.78 113.134 123.94 113.794 122.96C114.454 121.96 114.784 121.06 114.784 120.26V119.36C112.724 117.2 110.824 116.12 109.084 116.12C107.864 116.12 106.924 116.57 106.264 117.47C105.604 118.35 105.274 119.51 105.274 120.95L105.304 121.58C105.424 123.1 105.764 124.3 106.324 125.18C106.884 126.06 107.684 126.5 108.724 126.5ZM127.13 128C125.85 128 124.67 127.75 123.59 127.25C122.51 126.75 121.65 126.04 121.01 125.12C120.37 124.2 120.05 123.14 120.05 121.94C120.05 120.6 120.3 119.35 120.8 118.19C121.3 117.01 122.03 116.07 122.99 115.37C123.97 114.65 125.11 114.29 126.41 114.29C127.77 114.29 128.8 114.73 129.5 115.61C130.2 116.47 130.53 117.56 130.49 118.88C130.49 120.06 130.02 120.96 129.08 121.58C128.16 122.2 126.98 122.51 125.54 122.51C125.32 122.51 124.99 122.49 124.55 122.45C123.83 122.37 123.32 122.26 123.02 122.12C122.72 121.98 122.57 121.7 122.57 121.28C122.57 121.14 122.61 121.04 122.69 120.98C122.77 120.9 122.93 120.86 123.17 120.86C123.43 120.86 123.89 120.92 124.55 121.04C125.19 121.16 125.76 121.22 126.26 121.22C128.1 121.22 129.02 120.42 129.02 118.82C129.02 117.86 128.84 117.1 128.48 116.54C128.14 115.98 127.53 115.7 126.65 115.7C125.69 115.7 124.83 115.96 124.07 116.48C123.31 116.98 122.72 117.64 122.3 118.46C121.9 119.28 121.7 120.15 121.7 121.07C121.7 122.65 122.14 123.95 123.02 124.97C123.9 125.97 125.26 126.47 127.1 126.47C127.32 126.47 127.69 126.45 128.21 126.41C128.43 126.39 128.7 126.33 129.02 126.23C129.34 126.13 129.57 126.06 129.71 126.02C130.57 125.72 131.2 125.57 131.6 125.57C131.9 125.57 132.13 125.65 132.29 125.81C131.79 126.57 131.04 127.13 130.04 127.49C129.06 127.83 128.09 128 127.13 128ZM136.137 128C135.317 126.4 134.667 124.52 134.187 122.36C133.727 120.2 133.497 118.33 133.497 116.75C133.497 116.13 133.637 115.73 133.917 115.55C134.077 115.45 134.197 115.4 134.277 115.4C134.417 115.4 134.517 115.51 134.577 115.73C134.657 115.95 134.737 116.35 134.817 116.93L134.967 118.01C135.187 116.93 135.607 116.08 136.227 115.46C136.867 114.82 137.647 114.5 138.567 114.5C139.587 114.5 140.347 114.7 140.847 115.1C141.347 115.48 141.597 116.12 141.597 117.02C140.597 116.54 139.687 116.3 138.867 116.3C138.087 116.3 137.417 116.51 136.857 116.93C136.297 117.35 135.907 117.97 135.687 118.79C135.507 119.35 135.417 119.88 135.417 120.38C135.417 120.92 135.487 121.43 135.627 121.91C135.787 122.37 136.027 122.94 136.347 123.62C136.647 124.32 136.877 124.92 137.037 125.42C137.217 125.92 137.317 126.46 137.337 127.04C137.337 127.38 137.217 127.63 136.977 127.79C136.737 127.93 136.457 128 136.137 128Z" fill="black"/>
<circle cx="135" cy="47" r="8" fill="#F9FE17"/>
<g filter="url(#filter1_d)">
<path d="M134.605 44.7729C134.479 44.7152 134.331 44.77 134.273 44.8954L133.332 46.9391C133.274 47.0645 133.329 47.213 133.454 47.2708C133.58 47.3285 133.728 47.2737 133.786 47.1483L134.622 45.3317L136.439 46.1683C136.565 46.226 136.713 46.1712 136.771 46.0458C136.829 45.9204 136.774 45.7719 136.648 45.7141L134.605 44.7729ZM114.098 94.7578C113.925 94.4463 113.76 94.139 113.603 93.8357L113.159 94.0658C113.318 94.3734 113.486 94.685 113.661 95.0005L114.098 94.7578ZM112.003 90.1682C111.241 87.9764 110.943 86.0298 111.01 84.2768L110.51 84.2579C110.441 86.0827 110.752 88.0917 111.53 90.3323L112.003 90.1682ZM113.845 76.9709C114.254 76.453 114.699 75.9515 115.174 75.4632L114.816 75.1145C114.33 75.6136 113.874 76.1279 113.452 76.6609L113.845 76.9709ZM118.186 72.786C119.736 71.561 121.419 70.3949 123.118 69.2177L122.834 68.8067C121.137 69.9822 119.441 71.1573 117.876 72.3937L118.186 72.786ZM129.656 64.3321C130.176 63.8794 130.677 63.415 131.156 62.9363L130.803 62.5827C130.333 63.0522 129.84 63.5088 129.327 63.955L129.656 64.3321ZM133.777 59.7652C134.892 58.0662 135.681 56.1771 135.989 54.0203L135.494 53.9496C135.197 56.0249 134.439 57.8455 133.359 59.4909L133.777 59.7652ZM135.082 45.9127C134.975 45.5843 134.859 45.2512 134.735 44.9134L134.265 45.0866C134.388 45.4186 134.502 45.7457 134.607 46.0678L135.082 45.9127ZM134.709 44.5458C134.458 44.4303 134.161 44.54 134.046 44.7908L132.163 48.8782C132.048 49.129 132.158 49.426 132.408 49.5415C132.659 49.657 132.956 49.5473 133.072 49.2965L134.745 45.6633L138.378 47.3365C138.629 47.4521 138.926 47.3424 139.042 47.0915C139.157 46.8407 139.047 46.5438 138.797 46.4282L134.709 44.5458ZM114.317 94.6365C114.145 94.327 113.981 94.0217 113.825 93.7207L112.937 94.1808C113.098 94.4906 113.266 94.8043 113.442 95.1219L114.317 94.6365ZM112.239 90.0862C111.486 87.9188 111.195 86.0033 111.26 84.2863L110.261 84.2484C110.19 86.1092 110.507 88.1493 111.294 90.4144L112.239 90.0862ZM114.041 77.1259C114.444 76.6156 114.883 76.1205 115.353 75.6375L114.636 74.9402C114.146 75.4446 113.683 75.9654 113.256 76.5059L114.041 77.1259ZM118.341 72.9821C119.884 71.7629 121.56 70.6013 123.261 69.4232L122.691 68.6012C120.996 69.7758 119.293 70.9554 117.721 72.1976L118.341 72.9821ZM129.82 64.5206C130.343 64.0646 130.85 63.5963 131.333 63.113L130.626 62.4059C130.161 62.8709 129.672 63.3235 129.163 63.7665L129.82 64.5206ZM133.986 59.9023C135.118 58.1765 135.923 56.2531 136.237 54.0557L135.247 53.9142C134.956 55.9489 134.212 57.7351 133.15 59.3537L133.986 59.9023ZM135.32 45.8352C135.212 45.5036 135.095 45.1675 134.969 44.8268L134.031 45.1732C134.153 45.5023 134.265 45.8263 134.369 46.1454L135.32 45.8352Z" fill="black"/>
</g>
<defs>
<filter id="filter0_d" x="-4.36108" y="-2.88867" width="263.722" height="64.8" filterUnits="userSpaceOnUse" color-interpolation-filters="sRGB">
<feFlood flood-opacity="0" result="BackgroundImageFix"/>
<feColorMatrix in="SourceAlpha" type="matrix" values="0 0 0 0 0 0 0 0 0 0 0 0 0 0 0 0 0 0 127 0" result="hardAlpha"/>
<feOffset dy="4"/>
<feGaussianBlur stdDeviation="5"/>
<feColorMatrix type="matrix" values="0 0 0 0 0.6 0 0 0 0 0.59 0 0 0 0 0.59 0 0 0 0.25 0"/>
<feBlend mode="normal" in2="BackgroundImageFix" result="effect1_dropShadow"/>
<feBlend mode="normal" in="SourceGraphic" in2="effect1_dropShadow" result="shape"/>
</filter>
<filter id="filter1_d" x="66.251" y="10.5" width="116.836" height="138.622" filterUnits="userSpaceOnUse" color-interpolation-filters="sRGB">
<feFlood flood-opacity="0" result="BackgroundImageFix"/>
<feColorMatrix in="SourceAlpha" type="matrix" values="0 0 0 0 0 0 0 0 0 0 0 0 0 0 0 0 0 0 127 0" result="hardAlpha"/>
<feOffset dy="10"/>
<feGaussianBlur stdDeviation="22"/>
<feColorMatrix type="matrix" values="0 0 0 0 0.341667 0 0 0 0 0.341667 0 0 0 0 0.341667 0 0 0 0.18 0"/>
<feBlend mode="normal" in2="BackgroundImageFix" result="effect1_dropShadow"/>
<feBlend mode="normal" in="SourceGraphic" in2="effect1_dropShadow" result="shape"/>
</filter>
<clipPath id="clip0">
<rect width="255" height="56" fill="white"/>
</clipPath>
</defs>
</svg>
