<svg width="266" height="66" viewBox="0 0 266 66" fill="none" xmlns="http://www.w3.org/2000/svg">
<g clip-path="url(#clip0)">
<path d="M260.68 0H5.32C2.38184 0 0 2.36394 0 5.28V60.72C0 63.6361 2.38184 66 5.32 66H260.68C263.618 66 266 63.6361 266 60.72V5.28C266 2.36394 263.618 0 260.68 0Z" fill="#F5F5F5" fill-opacity="0.6"/>
<g opacity="0.5">
<path opacity="0.5" d="M253.821 7.47119H254.889V14.52H253.542V9.76799H251.906V8.82749L252.066 8.81759C252.584 8.78459 252.98 8.66909 253.253 8.47109C253.532 8.26649 253.721 7.93319 253.821 7.47119ZM257.698 7.47119H258.766V14.52H257.419V9.76799H255.783V8.82749L255.943 8.81759C256.461 8.78459 256.857 8.66909 257.13 8.47109C257.409 8.26649 257.598 7.93319 257.698 7.47119Z" fill="black"/>
</g>
<g opacity="0.5">
<path opacity="0.5" d="M18.6081 34.532L19.2392 32.5328H19.9826L18.4957 36.9601H17.7695L17.1125 34.9095C16.8877 34.183 16.7379 33.6825 16.6629 33.408C16.5304 33.877 16.3777 34.3775 16.2048 34.9095L15.5564 36.9601H14.8302L13.3433 32.5328H14.0867L14.7178 34.532C14.8734 35.0182 15.0348 35.5558 15.2019 36.145C15.3863 35.4929 15.5449 34.9552 15.6774 34.532L16.2999 32.5328H17.026L17.6485 34.532C17.9655 35.5787 18.1268 36.1107 18.1326 36.1278C18.1787 35.9505 18.3372 35.4185 18.6081 34.532ZM20.1403 36.9601H19.466L21.6705 30.8511H22.3448L20.1403 36.9601ZM26.4922 33.7855C27.2011 34.0543 27.5556 34.5405 27.5556 35.2441C27.5556 35.7761 27.3798 36.1965 27.0282 36.5054C26.6824 36.8085 26.1925 36.9601 25.5586 36.9601H22.87V30.8511H25.4289C26.0225 30.8511 26.4836 30.9998 26.8121 31.2973C27.1406 31.589 27.3049 31.9723 27.3049 32.447C27.3049 33.059 27.034 33.5052 26.4922 33.7855ZM25.377 31.5032H23.5962V33.5195H25.377C25.7747 33.5195 26.0773 33.428 26.2848 33.245C26.4922 33.0619 26.596 32.8045 26.596 32.4728C26.596 32.1696 26.4894 31.9322 26.2761 31.7606C26.0686 31.589 25.7689 31.5032 25.377 31.5032ZM23.5962 36.308H25.524C25.9505 36.308 26.2733 36.2165 26.4922 36.0335C26.717 35.8504 26.8294 35.5873 26.8294 35.2441C26.8294 34.5234 26.3914 34.163 25.5154 34.163H23.5962V36.308ZM31.1861 35.0382V32.5328H31.8777V36.9601H31.2207V36.2994C30.8806 36.8085 30.4138 37.0631 29.8202 37.0631C29.3245 37.0631 28.9384 36.9286 28.6617 36.6598C28.3851 36.391 28.2468 36.0135 28.2468 35.5272V32.5328H28.9384V35.4586C28.9384 36.1164 29.2784 36.4453 29.9585 36.4453C30.2812 36.4453 30.5665 36.3252 30.8143 36.0849C31.0622 35.8447 31.1861 35.4958 31.1861 35.0382ZM34.8692 32.5328V33.1334H33.9528V36.0077C33.9528 36.2594 34.1228 36.3852 34.4629 36.3852H34.8692V36.9601C34.679 36.9773 34.5147 36.9858 34.3764 36.9858C33.6329 36.9858 33.2612 36.6798 33.2612 36.0678V33.1334H32.5264V32.5328H33.2612V31.2801H33.9528V32.5328H34.8692ZM37.2077 32.5328V33.1334H36.2913V36.0077C36.2913 36.2594 36.4614 36.3852 36.8014 36.3852H37.2077V36.9601C37.0175 36.9773 36.8533 36.9858 36.715 36.9858C35.9715 36.9858 35.5997 36.6798 35.5997 36.0678V33.1334H34.8649V32.5328H35.5997V31.2801H36.2913V32.5328H37.2077ZM41.7445 34.7465V34.9867H38.3556C38.3902 35.4672 38.5256 35.8304 38.762 36.0764C38.9982 36.3166 39.321 36.4367 39.7302 36.4367C40.3468 36.4367 40.7417 36.1622 40.9146 35.613H41.6321C41.5111 36.0592 41.2863 36.4138 40.9578 36.677C40.6293 36.9344 40.2143 37.0631 39.7129 37.0631C39.0962 37.0631 38.5977 36.8543 38.2173 36.4367C37.8312 36.0191 37.6381 35.4558 37.6381 34.7465C37.6381 34.0486 37.8283 33.488 38.2087 33.0648C38.5833 32.6415 39.0789 32.4299 39.6956 32.4299C40.3353 32.4299 40.8368 32.6501 41.1998 33.0905C41.5629 33.5309 41.7445 34.083 41.7445 34.7465ZM39.6956 33.0562C39.3325 33.0562 39.0357 33.1706 38.8052 33.3994C38.5746 33.6225 38.4305 33.9457 38.3729 34.3689H41.001C40.9664 33.98 40.8338 33.6654 40.6033 33.4251C40.3728 33.1792 40.0702 33.0562 39.6956 33.0562ZM44.6571 32.4642C44.7724 32.4642 44.8502 32.467 44.8905 32.4728V33.1334H44.7176C44.2566 33.1334 43.8964 33.2478 43.637 33.4766C43.3834 33.6997 43.2566 34.02 43.2566 34.4376V36.9601H42.565V32.5328H43.222V33.3136C43.5218 32.7473 44.0001 32.4642 44.6571 32.4642ZM46.9329 37.0631C45.7399 37.0631 45.1088 36.5597 45.0396 35.553H45.7399C45.7802 35.8848 45.8897 36.1221 46.0684 36.2651C46.2528 36.4024 46.541 36.471 46.9329 36.471C47.6475 36.471 48.0049 36.2422 48.0049 35.7846C48.0049 35.5845 47.9299 35.4329 47.7801 35.3299C47.636 35.2269 47.3709 35.1383 46.9847 35.0639L46.5698 34.9867C45.6419 34.8151 45.1779 34.3804 45.1779 33.6825C45.1779 33.2993 45.322 32.9961 45.6102 32.7731C45.9041 32.5442 46.3018 32.4299 46.8032 32.4299C47.9847 32.4299 48.5899 32.9189 48.6186 33.897H47.9271C47.9098 33.5767 47.8118 33.3508 47.6331 33.2192C47.4544 33.0877 47.1778 33.0219 46.8032 33.0219C46.5035 33.0219 46.273 33.0791 46.1116 33.1935C45.9502 33.3079 45.8695 33.468 45.8695 33.674C45.8695 33.8685 45.9387 34.0143 46.077 34.1115C46.2153 34.2088 46.4459 34.2917 46.7686 34.3604L47.1663 34.4376C47.7138 34.5463 48.1057 34.7007 48.342 34.9009C48.5841 35.1011 48.7051 35.3814 48.7051 35.7417C48.7051 36.1593 48.5466 36.4854 48.2296 36.7199C47.9184 36.9487 47.4862 37.0631 46.9329 37.0631ZM51.2449 37.0631C50.6283 37.0631 50.1297 36.8514 49.7493 36.4281C49.369 36.0049 49.1788 35.4443 49.1788 34.7465C49.1788 34.0372 49.369 33.4738 49.7493 33.0562C50.1182 32.6386 50.6168 32.4299 51.2449 32.4299C51.7752 32.4299 52.2103 32.5729 52.5503 32.8589C52.8904 33.1448 53.095 33.5367 53.1641 34.0343H52.4466C52.3947 33.7197 52.2564 33.4766 52.0316 33.305C51.8126 33.1334 51.5504 33.0476 51.2449 33.0476C50.8358 33.0476 50.5101 33.1963 50.2681 33.4938C50.026 33.7855 49.905 34.2031 49.905 34.7465C49.905 35.2842 50.026 35.7017 50.2681 35.9991C50.5159 36.2966 50.8415 36.4453 51.2449 36.4453C51.5504 36.4453 51.8155 36.3567 52.0403 36.1793C52.265 36.002 52.4034 35.7561 52.4552 35.4414H53.1641C53.0892 35.9391 52.876 36.3338 52.5244 36.6255C52.1786 36.9172 51.7521 37.0631 51.2449 37.0631ZM57.4044 36.4281C56.9952 36.8514 56.4765 37.0631 55.8483 37.0631C55.2201 37.0631 54.7014 36.8514 54.2922 36.4281C53.8888 36.0106 53.687 35.45 53.687 34.7465C53.687 34.0429 53.8888 33.4824 54.2922 33.0648C54.7014 32.6415 55.2201 32.4299 55.8483 32.4299C56.4765 32.4299 56.9952 32.6415 57.4044 33.0648C57.8078 33.4824 58.0095 34.0429 58.0095 34.7465C58.0095 35.45 57.8078 36.0106 57.4044 36.4281ZM54.8022 35.9906C55.0616 36.2937 55.4103 36.4453 55.8483 36.4453C56.2863 36.4453 56.635 36.2937 56.8943 35.9906C57.1537 35.6931 57.2833 35.2784 57.2833 34.7465C57.2833 34.2088 57.1537 33.7912 56.8943 33.4938C56.635 33.1963 56.2863 33.0476 55.8483 33.0476C55.4103 33.0476 55.0616 33.1963 54.8022 33.4938C54.5429 33.7912 54.4132 34.2088 54.4132 34.7465C54.4132 35.2784 54.5429 35.6931 54.8022 35.9906ZM60.5256 32.5328V33.1334H59.6092V36.0077C59.6092 36.2594 59.7792 36.3852 60.1193 36.3852H60.5256V36.9601C60.3354 36.9773 60.1712 36.9858 60.0328 36.9858C59.2894 36.9858 58.9176 36.6798 58.9176 36.0678V33.1334H58.1828V32.5328H58.9176V31.2801H59.6092V32.5328H60.5256ZM63.0221 37.0631C62.4054 37.0631 61.9069 36.8514 61.5265 36.4281C61.1461 36.0049 60.9559 35.4443 60.9559 34.7465C60.9559 34.0372 61.1461 33.4738 61.5265 33.0562C61.8954 32.6386 62.3939 32.4299 63.0221 32.4299C63.5523 32.4299 63.9875 32.5729 64.3275 32.8589C64.6675 33.1448 64.8721 33.5367 64.9413 34.0343H64.2237C64.1719 33.7197 64.0336 33.4766 63.8088 33.305C63.5898 33.1334 63.3275 33.0476 63.0221 33.0476C62.6129 33.0476 62.2873 33.1963 62.0452 33.4938C61.8031 33.7855 61.6821 34.2031 61.6821 34.7465C61.6821 35.2842 61.8031 35.7017 62.0452 35.9991C62.293 36.2966 62.6186 36.4453 63.0221 36.4453C63.3275 36.4453 63.5927 36.3567 63.8174 36.1793C64.0422 36.002 64.1805 35.7561 64.2324 35.4414H64.9413C64.8663 35.9391 64.6531 36.3338 64.3015 36.6255C63.9557 36.9172 63.5293 37.0631 63.0221 37.0631ZM67.7376 32.4299C68.2337 32.4299 68.6194 32.5643 68.896 32.8331C69.1727 33.1019 69.311 33.4795 69.311 33.9657V36.9601H68.6194V34.0343C68.6194 33.3765 68.2796 33.0476 67.5993 33.0476C67.2768 33.0476 66.9915 33.1677 66.7434 33.408C66.4958 33.6482 66.3719 33.9972 66.3719 34.4547V36.9601H65.6803V30.8511H66.3719V33.142C66.7122 32.6673 67.167 32.4299 67.7376 32.4299ZM73.5683 37.0631C72.3753 37.0631 71.7442 36.5597 71.6751 35.553H72.3753C72.4159 35.8848 72.5256 36.1221 72.7038 36.2651C72.8887 36.4024 73.1766 36.471 73.5683 36.471C74.2832 36.471 74.6403 36.2422 74.6403 35.7846C74.6403 35.5845 74.5658 35.4329 74.4155 35.3299C74.2719 35.2269 74.0066 35.1383 73.6202 35.0639L73.2052 34.9867C72.2776 34.8151 71.8134 34.3804 71.8134 33.6825C71.8134 33.2993 71.9577 32.9961 72.2456 32.7731C72.5396 32.5442 72.9372 32.4299 73.4386 32.4299C74.6203 32.4299 75.2255 32.9189 75.2541 33.897H74.5625C74.5452 33.5767 74.4474 33.3508 74.2686 33.2192C74.0903 33.0877 73.8137 33.0219 73.4386 33.0219C73.1394 33.0219 72.9086 33.0791 72.747 33.1935C72.5861 33.3079 72.505 33.468 72.505 33.674C72.505 33.8685 72.5741 34.0143 72.7125 34.1115C72.8508 34.2088 73.0815 34.2917 73.4041 34.3604L73.8017 34.4376C74.3497 34.5463 74.7414 34.7007 74.9775 34.9009C75.2195 35.1011 75.3405 35.3814 75.3405 35.7417C75.3405 36.1593 75.1823 36.4854 74.8651 36.7199C74.5538 36.9487 74.1216 37.0631 73.5683 37.0631ZM79.8054 36.4024H80.0561V36.9601C79.941 36.9773 79.814 36.9858 79.6757 36.9858C79.2088 36.9858 78.9581 36.7742 78.9236 36.3509C78.6123 36.8257 78.1282 37.0631 77.4712 37.0631C76.9818 37.0631 76.5954 36.9515 76.3128 36.7284C76.0361 36.4996 75.8978 36.1793 75.8978 35.7675C75.8978 34.9667 76.4484 34.5091 77.549 34.3947L78.1887 34.326C78.6556 34.2746 78.889 34.0715 78.889 33.7169C78.889 33.4709 78.8112 33.2936 78.6556 33.1849C78.5059 33.0762 78.2493 33.0219 77.8862 33.0219C77.5005 33.0219 77.2205 33.0877 77.0476 33.2192C76.8807 33.3451 76.7856 33.571 76.7623 33.897H76.0707C76.1286 32.9189 76.7337 32.4299 77.8862 32.4299C79.0047 32.4299 79.5633 32.8589 79.5633 33.7169V36.1879C79.5633 36.3309 79.6444 36.4024 79.8054 36.4024ZM77.5058 36.4796C77.8749 36.4796 78.1974 36.3681 78.474 36.145C78.7507 35.9277 78.889 35.6159 78.889 35.2098V34.6864C78.7626 34.7836 78.5665 34.8466 78.3011 34.8752L77.6527 34.9524C77.2784 34.9981 77.0104 35.0839 76.8488 35.2098C76.6931 35.3356 76.6153 35.5158 76.6153 35.7503C76.6153 35.9791 76.6905 36.1593 76.8401 36.2909C76.9904 36.4167 77.2119 36.4796 77.5058 36.4796ZM83.6045 35.0382V32.5328H84.2961V36.9601H83.6391V36.2994C83.2993 36.8085 82.8324 37.0631 82.2386 37.0631C81.7432 37.0631 81.3568 36.9286 81.0802 36.6598C80.8035 36.391 80.6652 36.0135 80.6652 35.5272V32.5328H81.3568V35.4586C81.3568 36.1164 81.6973 36.4453 82.3769 36.4453C82.7001 36.4453 82.9854 36.3252 83.2328 36.0849C83.4808 35.8447 83.6045 35.4958 83.6045 35.0382ZM87.1842 37.0631C86.5677 37.0631 86.069 36.8514 85.6886 36.4281C85.3082 36.0049 85.118 35.4443 85.118 34.7465C85.118 34.0372 85.3082 33.4738 85.6886 33.0562C86.0577 32.6386 86.5558 32.4299 87.1842 32.4299C87.7142 32.4299 88.1498 32.5729 88.4896 32.8589C88.8294 33.1448 89.0342 33.5367 89.1034 34.0343H88.3858C88.334 33.7197 88.1957 33.4766 87.9709 33.305C87.7521 33.1334 87.4894 33.0476 87.1842 33.0476C86.7752 33.0476 86.4494 33.1963 86.2073 33.4938C85.9652 33.7855 85.8442 34.2031 85.8442 34.7465C85.8442 35.2842 85.9652 35.7017 86.2073 35.9991C86.4553 36.2966 86.7805 36.4453 87.1842 36.4453C87.4894 36.4453 87.7548 36.3567 87.9795 36.1793C88.2043 36.002 88.3426 35.7561 88.3945 35.4414H89.1034C89.0282 35.9391 88.8154 36.3338 88.4637 36.6255C88.1179 36.9172 87.6916 37.0631 87.1842 37.0631ZM93.7324 34.7465V34.9867H90.3436C90.3782 35.4672 90.5138 35.8304 90.7499 36.0764C90.9867 36.3166 91.3092 36.4367 91.7182 36.4367C92.3353 36.4367 92.7296 36.1622 92.9025 35.613H93.6201C93.499 36.0592 93.2743 36.4138 92.9458 36.677C92.6172 36.9344 92.2023 37.0631 91.7009 37.0631C91.0844 37.0631 90.5857 36.8543 90.2053 36.4367C89.8196 36.0191 89.6261 35.4558 89.6261 34.7465C89.6261 34.0486 89.8163 33.488 90.1966 33.0648C90.5717 32.6415 91.0671 32.4299 91.6836 32.4299C92.3233 32.4299 92.8247 32.6501 93.1878 33.0905C93.5509 33.5309 93.7324 34.083 93.7324 34.7465ZM91.6836 33.0562C91.3205 33.0562 91.0239 33.1706 90.7932 33.3994C90.5631 33.6225 90.4187 33.9457 90.3609 34.3689H92.989C92.9544 33.98 92.8221 33.6654 92.5913 33.4251C92.3612 33.1792 92.0586 33.0562 91.6836 33.0562ZM100.176 35.6388L101.369 36.9601H100.436L99.7873 36.2394C99.2972 36.8114 98.6348 37.0974 97.7989 37.0974C97.2343 37.0974 96.7848 36.9315 96.4503 36.5997C96.1105 36.2737 95.9402 35.8733 95.9402 35.3985C95.9402 34.9981 96.05 34.6607 96.2688 34.3861C96.4935 34.1115 96.8626 33.8312 97.3753 33.5453C97.11 33.2478 96.9198 32.9847 96.8047 32.7559C96.695 32.5271 96.6405 32.2954 96.6405 32.0609C96.6405 31.6891 96.7788 31.3688 97.0555 31.1C97.3261 30.8426 97.6925 30.7139 98.1534 30.7139C98.5623 30.7139 98.9168 30.8311 99.2167 31.0656C99.5106 31.3001 99.6576 31.6233 99.6576 32.0352C99.6576 32.6415 99.2366 33.1849 98.3954 33.6654L99.6749 35.0811C99.7899 34.7493 99.8478 34.3918 99.8478 34.0086H100.548C100.531 34.6206 100.407 35.164 100.176 35.6388ZM98.1447 31.3316C97.914 31.3316 97.7271 31.4003 97.5828 31.5375C97.4385 31.6691 97.3667 31.8436 97.3667 32.0609C97.3667 32.3641 97.5742 32.7473 97.9891 33.2106C98.3176 33.0333 98.557 32.8531 98.7066 32.6701C98.8563 32.4871 98.9314 32.284 98.9314 32.0609C98.9314 31.8493 98.8563 31.6748 98.7066 31.5375C98.557 31.4003 98.3695 31.3316 98.1447 31.3316ZM97.8421 36.4453C98.4819 36.4453 98.9773 36.2051 99.3291 35.7246L97.7816 34C97.384 34.2117 97.0987 34.4176 96.9258 34.6178C96.7589 34.8179 96.6751 35.0668 96.6751 35.3642C96.6751 35.6674 96.7815 35.9248 96.9949 36.1364C97.2084 36.3423 97.4904 36.4453 97.8421 36.4453ZM105.386 37.0631C104.769 37.0631 104.271 36.8514 103.89 36.4281C103.51 36.0049 103.32 35.4443 103.32 34.7465C103.32 34.0372 103.51 33.4738 103.89 33.0562C104.259 32.6386 104.757 32.4299 105.386 32.4299C105.916 32.4299 106.351 32.5729 106.691 32.8589C107.031 33.1448 107.236 33.5367 107.305 34.0343H106.588C106.536 33.7197 106.397 33.4766 106.173 33.305C105.954 33.1334 105.691 33.0476 105.386 33.0476C104.977 33.0476 104.651 33.1963 104.409 33.4938C104.167 33.7855 104.046 34.2031 104.046 34.7465C104.046 35.2842 104.167 35.7017 104.409 35.9991C104.657 36.2966 104.982 36.4453 105.386 36.4453C105.691 36.4453 105.956 36.3567 106.181 36.1793C106.406 36.002 106.544 35.7561 106.596 35.4414H107.305C107.23 35.9391 107.017 36.3338 106.665 36.6255C106.32 36.9172 105.893 37.0631 105.386 37.0631ZM111.545 36.4281C111.136 36.8514 110.617 37.0631 109.989 37.0631C109.361 37.0631 108.843 36.8514 108.433 36.4281C108.03 36.0106 107.828 35.45 107.828 34.7465C107.828 34.0429 108.03 33.4824 108.433 33.0648C108.843 32.6415 109.361 32.4299 109.989 32.4299C110.617 32.4299 111.136 32.6415 111.545 33.0648C111.949 33.4824 112.15 34.0429 112.15 34.7465C112.15 35.45 111.949 36.0106 111.545 36.4281ZM108.943 35.9906C109.202 36.2937 109.551 36.4453 109.989 36.4453C110.427 36.4453 110.776 36.2937 111.035 35.9906C111.294 35.6931 111.424 35.2784 111.424 34.7465C111.424 34.2088 111.294 33.7912 111.035 33.4938C110.776 33.1963 110.427 33.0476 109.989 33.0476C109.551 33.0476 109.202 33.1963 108.943 33.4938C108.684 33.7912 108.554 34.2088 108.554 34.7465C108.554 35.2784 108.684 35.6931 108.943 35.9906ZM114.824 37.0631C114.208 37.0631 113.709 36.8514 113.329 36.4281C112.948 36.0049 112.758 35.4443 112.758 34.7465C112.758 34.0372 112.948 33.4738 113.329 33.0562C113.698 32.6386 114.196 32.4299 114.824 32.4299C115.355 32.4299 115.79 32.5729 116.13 32.8589C116.47 33.1448 116.674 33.5367 116.743 34.0343H116.026C115.974 33.7197 115.836 33.4766 115.611 33.305C115.392 33.1334 115.13 33.0476 114.824 33.0476C114.415 33.0476 114.089 33.1963 113.847 33.4938C113.605 33.7855 113.484 34.2031 113.484 34.7465C113.484 35.2842 113.605 35.7017 113.847 35.9991C114.095 36.2966 114.421 36.4453 114.824 36.4453C115.13 36.4453 115.395 36.3567 115.62 36.1793C115.844 36.002 115.983 35.7561 116.035 35.4414H116.743C116.669 35.9391 116.455 36.3338 116.104 36.6255C115.758 36.9172 115.332 37.0631 114.824 37.0631ZM120.984 36.4281C120.575 36.8514 120.056 37.0631 119.428 37.0631C118.8 37.0631 118.281 36.8514 117.872 36.4281C117.468 36.0106 117.267 35.45 117.267 34.7465C117.267 34.0429 117.468 33.4824 117.872 33.0648C118.281 32.6415 118.8 32.4299 119.428 32.4299C120.056 32.4299 120.575 32.6415 120.984 33.0648C121.387 33.4824 121.589 34.0429 121.589 34.7465C121.589 35.45 121.387 36.0106 120.984 36.4281ZM118.382 35.9906C118.641 36.2937 118.99 36.4453 119.428 36.4453C119.866 36.4453 120.215 36.2937 120.474 35.9906C120.733 35.6931 120.863 35.2784 120.863 34.7465C120.863 34.2088 120.733 33.7912 120.474 33.4938C120.215 33.1963 119.866 33.0476 119.428 33.0476C118.99 33.0476 118.641 33.1963 118.382 33.4938C118.123 33.7912 117.993 34.2088 117.993 34.7465C117.993 35.2784 118.123 35.6931 118.382 35.9906ZM124.471 32.4299C124.966 32.4299 125.353 32.5643 125.629 32.8331C125.906 33.1019 126.044 33.4795 126.044 33.9657V36.9601H125.353V34.0343C125.353 33.3765 125.012 33.0476 124.332 33.0476C124.009 33.0476 123.724 33.1677 123.477 33.408C123.229 33.6482 123.105 33.9972 123.105 34.4547V36.9601H122.413V32.5328H123.07V33.1935C123.41 32.6844 123.877 32.4299 124.471 32.4299ZM129.852 35.0382V32.5328H130.544V36.9601H129.886V36.2994C129.547 36.8085 129.08 37.0631 128.486 37.0631C127.991 37.0631 127.604 36.9286 127.328 36.6598C127.051 36.391 126.913 36.0135 126.913 35.5272V32.5328H127.604V35.4586C127.604 36.1164 127.945 36.4453 128.624 36.4453C128.948 36.4453 129.233 36.3252 129.48 36.0849C129.728 35.8447 129.852 35.4958 129.852 35.0382ZM133.535 32.5328V33.1334H132.619V36.0077C132.619 36.2594 132.789 36.3852 133.129 36.3852H133.535V36.9601C133.345 36.9773 133.181 36.9858 133.043 36.9858C132.299 36.9858 131.927 36.6798 131.927 36.0678V33.1334H131.193V32.5328H131.927V31.2801H132.619V32.5328H133.535ZM138.109 34.3689L138.74 32.5328H139.492L137.607 37.6551C137.474 38.0269 137.293 38.2872 137.063 38.4359C136.832 38.5903 136.529 38.6675 136.155 38.6675C136.028 38.6675 135.889 38.6589 135.74 38.6418V38.0669H136.146C136.544 38.0669 136.814 37.8839 136.959 37.5178L137.114 37.106L135.437 32.5328H136.198L136.829 34.3775C137.054 35.0296 137.267 35.6674 137.469 36.2909C137.636 35.7589 137.849 35.1182 138.109 34.3689ZM143.289 36.4281C142.879 36.8514 142.361 37.0631 141.733 37.0631C141.104 37.0631 140.586 36.8514 140.177 36.4281C139.773 36.0106 139.572 35.45 139.572 34.7465C139.572 34.0429 139.773 33.4824 140.177 33.0648C140.586 32.6415 141.104 32.4299 141.733 32.4299C142.361 32.4299 142.879 32.6415 143.289 33.0648C143.692 33.4824 143.894 34.0429 143.894 34.7465C143.894 35.45 143.692 36.0106 143.289 36.4281ZM140.687 35.9906C140.946 36.2937 141.295 36.4453 141.733 36.4453C142.17 36.4453 142.52 36.2937 142.779 35.9906C143.038 35.6931 143.168 35.2784 143.168 34.7465C143.168 34.2088 143.038 33.7912 142.779 33.4938C142.52 33.1963 142.17 33.0476 141.733 33.0476C141.295 33.0476 140.946 33.1963 140.687 33.4938C140.427 33.7912 140.298 34.2088 140.298 34.7465C140.298 35.2784 140.427 35.6931 140.687 35.9906ZM148.107 33.1763V32.5328H148.764V36.7885C148.764 37.3948 148.585 37.8724 148.228 38.2214C147.87 38.5703 147.357 38.7447 146.689 38.7447C146.136 38.7447 145.692 38.6189 145.358 38.3672C145.023 38.1156 144.833 37.7666 144.787 37.3205H145.479C145.565 37.881 145.968 38.1613 146.689 38.1613C147.611 38.1613 148.072 37.7037 148.072 36.7885V36.3595C147.72 36.8286 147.222 37.0631 146.577 37.0631C145.948 37.0631 145.447 36.8514 145.072 36.4281C144.692 36.0049 144.502 35.4443 144.502 34.7465C144.502 34.0372 144.692 33.4738 145.072 33.0562C145.441 32.6386 145.942 32.4299 146.577 32.4299C147.239 32.4299 147.749 32.6787 148.107 33.1763ZM146.663 36.4453C147.101 36.4453 147.45 36.2937 147.709 35.9906C147.969 35.6874 148.098 35.2727 148.098 34.7465C148.098 34.2202 147.969 33.8055 147.709 33.5024C147.45 33.1992 147.101 33.0476 146.663 33.0476C146.231 33.0476 145.882 33.2021 145.617 33.5109C145.358 33.8198 145.228 34.2317 145.228 34.7465C145.228 35.2613 145.358 35.6731 145.617 35.982C145.882 36.2909 146.231 36.4453 146.663 36.4453ZM151.857 32.4299C152.354 32.4299 152.739 32.5643 153.016 32.8331C153.292 33.1019 153.431 33.4795 153.431 33.9657V36.9601H152.739V34.0343C152.739 33.3765 152.399 33.0476 151.719 33.0476C151.397 33.0476 151.111 33.1677 150.863 33.408C150.616 33.6482 150.492 33.9972 150.492 34.4547V36.9601H149.8V30.8511H150.492V33.142C150.832 32.6673 151.287 32.4299 151.857 32.4299ZM157.239 35.0382V32.5328H157.931V36.9601H157.274V36.2994C156.934 36.8085 156.467 37.0631 155.873 37.0631C155.378 37.0631 154.992 36.9286 154.715 36.6598C154.438 36.391 154.3 36.0135 154.3 35.5272V32.5328H154.992V35.4586C154.992 36.1164 155.331 36.4453 156.012 36.4453C156.334 36.4453 156.62 36.3252 156.868 36.0849C157.116 35.8447 157.239 35.4958 157.239 35.0382ZM161.061 32.4642C161.176 32.4642 161.254 32.467 161.294 32.4728V33.1334H161.122C160.66 33.1334 160.3 33.2478 160.041 33.4766C159.787 33.6997 159.661 34.02 159.661 34.4376V36.9601H158.969V32.5328H159.626V33.3136C159.925 32.7473 160.404 32.4642 161.061 32.4642ZM163.936 32.5328V33.1334H163.02V36.0077C163.02 36.2594 163.19 36.3852 163.53 36.3852H163.936V36.9601C163.746 36.9773 163.582 36.9858 163.444 36.9858C162.7 36.9858 162.329 36.6798 162.329 36.0678V33.1334H161.594V32.5328H162.329V31.2801H163.02V32.5328H163.936Z" fill="#8D8D93"/>
</g>
<g opacity="0.5">
<path opacity="0.5" d="M17.0207 17.9782C15.9966 17.9782 15.1687 17.6449 14.5369 16.9783C13.8985 16.3117 13.5793 15.4174 13.5793 14.2954C13.5793 13.1668 13.8952 12.2692 14.527 11.6026C15.1521 10.9426 15.9833 10.6126 17.0207 10.6126C17.852 10.6126 18.5602 10.8337 19.1454 11.2759C19.7306 11.7181 20.0963 12.3583 20.2426 13.1965H18.8761C18.7564 12.7345 18.5336 12.3847 18.2077 12.1471C17.8885 11.9029 17.4929 11.7808 17.0207 11.7808C16.389 11.7808 15.8902 12.0052 15.5245 12.454C15.1654 12.8962 14.9858 13.51 14.9858 14.2954C14.9858 15.0874 15.1654 15.7045 15.5245 16.1467C15.8836 16.5889 16.3823 16.81 17.0207 16.81C17.5128 16.81 17.9351 16.6648 18.2875 16.3744C18.64 16.084 18.8528 15.6814 18.9259 15.1666H20.2726C20.1861 16.0642 19.8337 16.7572 19.2152 17.2456C18.6034 17.734 17.8719 17.9782 17.0207 17.9782ZM25.6651 17.8198H24.4083C24.3484 17.7142 24.3019 17.5063 24.2686 17.1961C23.9228 17.6911 23.3709 17.9386 22.6128 17.9386C22.0475 17.9386 21.5953 17.8033 21.2562 17.5327C20.9237 17.2621 20.7574 16.8859 20.7574 16.4041C20.7574 15.4735 21.4158 14.9422 22.7325 14.8102L23.5105 14.7409C23.7699 14.7079 23.9561 14.6485 24.0691 14.5627C24.1822 14.4703 24.2387 14.335 24.2387 14.1568C24.2387 13.939 24.1655 13.7806 24.0192 13.6816C23.8796 13.576 23.6402 13.5232 23.301 13.5232C22.9353 13.5232 22.6726 13.5859 22.513 13.7113C22.3534 13.8301 22.2603 14.038 22.2337 14.335H20.9968C21.07 13.1734 21.8414 12.5926 23.311 12.5926C24.7408 12.5926 25.4556 13.1041 25.4556 14.1271V16.8496C25.4556 17.2984 25.5255 17.6218 25.6651 17.8198ZM22.912 17.0476C23.3044 17.0476 23.6236 16.942 23.8696 16.7308C24.1157 16.513 24.2387 16.2028 24.2387 15.8002V15.3349C24.119 15.4405 23.9228 15.5098 23.6502 15.5428L22.9719 15.622C22.6394 15.6616 22.4 15.7408 22.2537 15.8596C22.114 15.9718 22.0442 16.1368 22.0442 16.3546C22.0442 16.5724 22.1173 16.744 22.2636 16.8694C22.4166 16.9882 22.6327 17.0476 22.912 17.0476ZM29.167 12.6322C29.2801 12.6322 29.3831 12.6388 29.4762 12.652V13.8004H29.157C28.6782 13.8004 28.3092 13.9225 28.0498 14.1667C27.7971 14.4043 27.6708 14.7574 27.6708 15.226V17.8198H26.4139V12.7114H27.6309V13.6222C27.9168 12.9622 28.4289 12.6322 29.167 12.6322ZM34.481 17.8198H33.2241C33.1643 17.7142 33.1177 17.5063 33.0845 17.1961C32.7387 17.6911 32.1867 17.9386 31.4286 17.9386C30.8634 17.9386 30.4112 17.8033 30.072 17.5327C29.7395 17.2621 29.5733 16.8859 29.5733 16.4041C29.5733 15.4735 30.2316 14.9422 31.5483 14.8102L32.3264 14.7409C32.5857 14.7079 32.7719 14.6485 32.885 14.5627C32.998 14.4703 33.0545 14.335 33.0545 14.1568C33.0545 13.939 32.9814 13.7806 32.8351 13.6816C32.6954 13.576 32.456 13.5232 32.1169 13.5232C31.7511 13.5232 31.4885 13.5859 31.3289 13.7113C31.1693 13.8301 31.0762 14.038 31.0496 14.335H29.8127C29.8858 13.1734 30.6572 12.5926 32.1269 12.5926C33.5566 12.5926 34.2715 13.1041 34.2715 14.1271V16.8496C34.2715 17.2984 34.3413 17.6218 34.481 17.8198ZM31.7279 17.0476C32.1202 17.0476 32.4394 16.942 32.6855 16.7308C32.9315 16.513 33.0545 16.2028 33.0545 15.8002V15.3349C32.9348 15.4405 32.7387 15.5098 32.466 15.5428L31.7877 15.622C31.4552 15.6616 31.2158 15.7408 31.0695 15.8596C30.9299 15.9718 30.86 16.1368 30.86 16.3546C30.86 16.5724 30.9332 16.744 31.0795 16.8694C31.2324 16.9882 31.4486 17.0476 31.7279 17.0476ZM41.105 12.5926C41.6702 12.5926 42.1091 12.7576 42.4217 13.0876C42.7409 13.4176 42.9005 13.8697 42.9005 14.4439V17.8198H41.6436V14.6419C41.6436 13.9951 41.3477 13.6717 40.7558 13.6717C40.4366 13.6717 40.1773 13.7872 39.9778 14.0182C39.7849 14.2426 39.6885 14.5726 39.6885 15.0082V17.8198H38.4416V14.6419C38.4416 13.9951 38.1424 13.6717 37.5439 13.6717C37.2313 13.6717 36.9753 13.7872 36.7758 14.0182C36.583 14.2426 36.4865 14.5726 36.4865 15.0082V17.8198H35.2297V12.7114H36.4466V13.444C36.7991 12.8764 37.2879 12.5926 37.913 12.5926C38.6977 12.5926 39.2297 12.9094 39.509 13.543C39.8947 12.9094 40.4267 12.5926 41.105 12.5926ZM48.7767 15.3547V15.6517H44.9263C44.9729 16.0873 45.1092 16.4173 45.3353 16.6417C45.568 16.8595 45.8773 16.9684 46.263 16.9684C46.8349 16.9684 47.2272 16.7242 47.44 16.2358H48.647C48.514 16.7572 48.2347 17.173 47.8091 17.4832C47.3835 17.7868 46.8648 17.9386 46.253 17.9386C45.4882 17.9386 44.8698 17.6944 44.3976 17.206C43.9255 16.7176 43.6894 16.0708 43.6894 15.2656C43.6894 14.4604 43.9222 13.8136 44.3877 13.3252C44.8598 12.8368 45.4749 12.5926 46.233 12.5926C47.0111 12.5926 47.6295 12.8467 48.0884 13.3549C48.5472 13.8631 48.7767 14.5297 48.7767 15.3547ZM46.2231 13.5628C45.4849 13.5628 45.056 13.9687 44.9363 14.7805H47.5198C47.4666 14.4043 47.327 14.1073 47.1009 13.8895C46.8748 13.6717 46.5822 13.5628 46.2231 13.5628ZM50.8451 17.8198H49.5882V10.771H50.8451V17.8198ZM53.1048 12.0481H51.8679V10.8799H53.1048V12.0481ZM53.1148 17.8198H51.8579V12.7114H53.1148V17.8198ZM56.1526 17.9584C54.6497 17.9584 53.865 17.371 53.7985 16.1962H55.0254C55.0587 16.513 55.1617 16.7374 55.3346 16.8694C55.5142 17.0014 55.7935 17.0674 56.1725 17.0674C56.8508 17.0674 57.19 16.8628 57.19 16.4536C57.19 16.2688 57.1168 16.1269 56.9705 16.0279C56.8242 15.9289 56.5616 15.8464 56.1825 15.7804L55.594 15.6814C54.4701 15.4966 53.9082 14.9818 53.9082 14.137C53.9082 13.6552 54.0944 13.279 54.4668 13.0084C54.8392 12.7312 55.3646 12.5926 56.0429 12.5926C57.5125 12.5926 58.2706 13.1701 58.3172 14.3251H57.1301C57.1168 14.0215 57.0204 13.807 56.8409 13.6816C56.6613 13.5496 56.3953 13.4836 56.0429 13.4836C55.4444 13.4836 55.1451 13.6816 55.1451 14.0776C55.1451 14.2492 55.2116 14.3845 55.3446 14.4835C55.4776 14.5759 55.6971 14.6485 56.003 14.7013L56.6513 14.8003C57.2764 14.9125 57.7286 15.0907 58.0079 15.3349C58.2939 15.5791 58.4369 15.919 58.4369 16.3546C58.4369 16.8694 58.2374 17.2654 57.8384 17.5426C57.4394 17.8198 56.8774 17.9584 56.1526 17.9584ZM63.9632 15.3547V15.6517H60.1129C60.1594 16.0873 60.2957 16.4173 60.5218 16.6417C60.7546 16.8595 61.0638 16.9684 61.4495 16.9684C62.0214 16.9684 62.4138 16.7242 62.6266 16.2358H63.8335C63.7005 16.7572 63.4212 17.173 62.9956 17.4832C62.57 17.7868 62.0513 17.9386 61.4395 17.9386C60.6748 17.9386 60.0563 17.6944 59.5842 17.206C59.112 16.7176 58.876 16.0708 58.876 15.2656C58.876 14.4604 59.1087 13.8136 59.5742 13.3252C60.0464 12.8368 60.6615 12.5926 61.4196 12.5926C62.1976 12.5926 62.8161 12.8467 63.2749 13.3549C63.7338 13.8631 63.9632 14.5297 63.9632 15.3547ZM61.4096 13.5628C60.6715 13.5628 60.2425 13.9687 60.1228 14.7805H62.7064C62.6532 14.4043 62.5135 14.1073 62.2874 13.8895C62.0613 13.6717 61.7687 13.5628 61.4096 13.5628ZM68.4458 13.3747V10.771H69.7027V17.8198H68.4857V17.107C68.1067 17.6614 67.5647 17.9386 66.8598 17.9386C66.148 17.9386 65.5861 17.6944 65.1738 17.206C64.7548 16.7176 64.5453 16.0708 64.5453 15.2656C64.5453 14.4472 64.7548 13.7971 65.1738 13.3153C65.5794 12.8335 66.1413 12.5926 66.8598 12.5926C67.5514 12.5926 68.0801 12.8533 68.4458 13.3747ZM65.8321 15.3052C65.8321 15.8332 65.9485 16.2325 66.1812 16.5031C66.414 16.7737 66.7368 16.909 67.1491 16.909C67.5614 16.909 67.8872 16.7671 68.1266 16.4833C68.3594 16.1995 68.4758 15.7936 68.4758 15.2656C68.4758 14.7376 68.3594 14.3317 68.1266 14.0479C67.8939 13.7641 67.568 13.6222 67.1491 13.6222C66.7434 13.6222 66.4206 13.7707 66.1812 14.0677C65.9485 14.3647 65.8321 14.7772 65.8321 15.3052ZM77.4978 14.1073C77.8902 14.2459 78.1927 14.467 78.4055 14.7706C78.625 15.0742 78.7347 15.4174 78.7347 15.8002C78.7347 16.4404 78.5219 16.9387 78.0963 17.2951C77.6774 17.6449 77.0656 17.8198 76.2609 17.8198H72.9392V10.771H76.1512C76.896 10.771 77.4646 10.9393 77.8569 11.2759C78.2493 11.6125 78.4454 12.0514 78.4454 12.5926C78.4454 13.2856 78.1296 13.7905 77.4978 14.1073ZM76.0514 11.8699H74.2859V13.7113H76.0514C76.3906 13.7113 76.6499 13.6288 76.8295 13.4638C77.0157 13.2922 77.1088 13.0579 77.1088 12.7609C77.1088 12.4837 77.0157 12.2659 76.8295 12.1075C76.6433 11.9491 76.3839 11.8699 76.0514 11.8699ZM74.2859 16.711H76.1911C76.5701 16.711 76.8594 16.6285 77.0589 16.4635C77.2584 16.2919 77.3582 16.051 77.3582 15.7408C77.3582 15.0874 76.9691 14.7607 76.1911 14.7607H74.2859V16.711ZM84.1418 17.8198H82.885C82.8251 17.7142 82.7786 17.5063 82.7453 17.1961C82.3995 17.6911 81.8476 17.9386 81.0895 17.9386C80.5242 17.9386 80.072 17.8033 79.7329 17.5327C79.4004 17.2621 79.2341 16.8859 79.2341 16.4041C79.2341 15.4735 79.8925 14.9422 81.2092 14.8102L81.9872 14.7409C82.2466 14.7079 82.4328 14.6485 82.5458 14.5627C82.6589 14.4703 82.7154 14.335 82.7154 14.1568C82.7154 13.939 82.6423 13.7806 82.496 13.6816C82.3563 13.576 82.1169 13.5232 81.7778 13.5232C81.412 13.5232 81.1493 13.5859 80.9897 13.7113C80.8301 13.8301 80.737 14.038 80.7104 14.335H79.4735C79.5467 13.1734 80.3181 12.5926 81.7877 12.5926C83.2175 12.5926 83.9324 13.1041 83.9324 14.1271V16.8496C83.9324 17.2984 84.0022 17.6218 84.1418 17.8198ZM81.3887 17.0476C81.7811 17.0476 82.1003 16.942 82.3463 16.7308C82.5924 16.513 82.7154 16.2028 82.7154 15.8002V15.3349C82.5957 15.4405 82.3995 15.5098 82.1269 15.5428L81.4486 15.622C81.1161 15.6616 80.8767 15.7408 80.7304 15.8596C80.5907 15.9718 80.5209 16.1368 80.5209 16.3546C80.5209 16.5724 80.5941 16.744 80.7404 16.8694C80.8933 16.9882 81.1094 17.0476 81.3887 17.0476ZM87.7135 12.5926C88.2721 12.5926 88.7111 12.7543 89.0303 13.0777C89.3561 13.3945 89.519 13.8466 89.519 14.434V17.8198H88.2622V14.6419C88.2622 13.9951 87.9397 13.6717 87.2946 13.6717C86.9754 13.6717 86.7027 13.7872 86.4766 14.0182C86.2572 14.2426 86.1475 14.5561 86.1475 14.9587V17.8198H84.8906V12.7114H86.1076V13.444C86.4999 12.8764 87.0352 12.5926 87.7135 12.5926ZM95.1689 17.8198H93.912C93.8522 17.7142 93.8056 17.5063 93.7724 17.1961C93.4266 17.6911 92.8746 17.9386 92.1165 17.9386C91.5513 17.9386 91.0991 17.8033 90.7599 17.5327C90.4274 17.2621 90.2612 16.8859 90.2612 16.4041C90.2612 15.4735 90.9195 14.9422 92.2362 14.8102L93.0143 14.7409C93.2736 14.7079 93.4598 14.6485 93.5729 14.5627C93.6859 14.4703 93.7424 14.335 93.7424 14.1568C93.7424 13.939 93.6693 13.7806 93.523 13.6816C93.3833 13.576 93.1439 13.5232 92.8048 13.5232C92.439 13.5232 92.1764 13.5859 92.0168 13.7113C91.8572 13.8301 91.7641 14.038 91.7375 14.335H90.5006C90.5737 13.1734 91.3451 12.5926 92.8148 12.5926C94.2445 12.5926 94.9594 13.1041 94.9594 14.1271V16.8496C94.9594 17.2984 95.0292 17.6218 95.1689 17.8198ZM92.4158 17.0476C92.8081 17.0476 93.1273 16.942 93.3734 16.7308C93.6194 16.513 93.7424 16.2028 93.7424 15.8002V15.3349C93.6227 15.4405 93.4266 15.5098 93.1539 15.5428L92.4756 15.622C92.1431 15.6616 91.9037 15.7408 91.7574 15.8596C91.6178 15.9718 91.5479 16.1368 91.5479 16.3546C91.5479 16.5724 91.6211 16.744 91.7674 16.8694C91.9203 16.9882 92.1365 17.0476 92.4158 17.0476ZM98.7406 12.5926C99.2992 12.5926 99.7381 12.7543 100.057 13.0777C100.383 13.3945 100.546 13.8466 100.546 14.434V17.8198H99.2892V14.6419C99.2892 13.9951 98.9667 13.6717 98.3216 13.6717C98.0024 13.6717 97.7298 13.7872 97.5037 14.0182C97.2842 14.2426 97.1745 14.5561 97.1745 14.9587V17.8198H95.9177V12.7114H97.1346V13.444C97.527 12.8764 98.0623 12.5926 98.7406 12.5926ZM106.196 17.8198H104.939C104.879 17.7142 104.833 17.5063 104.799 17.1961C104.454 17.6911 103.902 17.9386 103.144 17.9386C102.578 17.9386 102.126 17.8033 101.787 17.5327C101.454 17.2621 101.288 16.8859 101.288 16.4041C101.288 15.4735 101.947 14.9422 103.263 14.8102L104.041 14.7409C104.301 14.7079 104.487 14.6485 104.6 14.5627C104.713 14.4703 104.769 14.335 104.769 14.1568C104.769 13.939 104.696 13.7806 104.55 13.6816C104.41 13.576 104.171 13.5232 103.832 13.5232C103.466 13.5232 103.203 13.5859 103.044 13.7113C102.884 13.8301 102.791 14.038 102.764 14.335H101.528C101.601 13.1734 102.372 12.5926 103.842 12.5926C105.272 12.5926 105.986 13.1041 105.986 14.1271V16.8496C105.986 17.2984 106.056 17.6218 106.196 17.8198ZM103.443 17.0476C103.835 17.0476 104.154 16.942 104.4 16.7308C104.646 16.513 104.769 16.2028 104.769 15.8002V15.3349C104.65 15.4405 104.454 15.5098 104.181 15.5428L103.503 15.622C103.17 15.6616 102.931 15.7408 102.784 15.8596C102.645 15.9718 102.575 16.1368 102.575 16.3546C102.575 16.5724 102.648 16.744 102.794 16.8694C102.947 16.9882 103.163 17.0476 103.443 17.0476ZM114.175 16.3546L115.501 17.8198H113.925L113.406 17.2357C112.801 17.7307 112.093 17.9782 111.282 17.9782C110.53 17.9782 109.939 17.7835 109.506 17.3941C109.067 17.0113 108.848 16.5196 108.848 15.919C108.848 15.4702 108.971 15.0841 109.217 14.7607C109.47 14.4373 109.862 14.1436 110.394 13.8796C110.115 13.5628 109.915 13.2856 109.796 13.048C109.682 12.8104 109.626 12.5629 109.626 12.3055C109.626 11.8237 109.806 11.4211 110.165 11.0977C110.517 10.7743 111.003 10.6126 111.621 10.6126C112.206 10.6126 112.682 10.7611 113.047 11.0581C113.42 11.3551 113.606 11.7511 113.606 12.2461C113.606 12.9919 113.117 13.6156 112.14 14.1172L113.377 15.4834C113.523 15.127 113.603 14.7508 113.616 14.3548H114.773C114.746 15.0808 114.547 15.7474 114.175 16.3546ZM111.661 11.6125C111.441 11.6125 111.259 11.6785 111.112 11.8105C110.966 11.9359 110.893 12.1009 110.893 12.3055C110.893 12.5959 111.096 12.9622 111.501 13.4044L111.521 13.4242C112.133 13.0876 112.439 12.7147 112.439 12.3055C112.439 12.1075 112.366 11.9425 112.219 11.8105C112.073 11.6785 111.887 11.6125 111.661 11.6125ZM111.392 16.909C111.877 16.909 112.313 16.7539 112.698 16.4437L111.032 14.6023C110.454 14.9191 110.165 15.325 110.165 15.82C110.165 16.1236 110.278 16.381 110.504 16.5922C110.73 16.8034 111.026 16.909 111.392 16.909ZM123.802 15.9487L123.862 16.9981C123.869 17.3347 123.942 17.6086 124.082 17.8198H122.695C122.576 17.6218 122.512 17.3413 122.506 16.9783L122.476 16.2061C122.456 15.7771 122.356 15.4801 122.177 15.3151C122.004 15.1435 121.724 15.0577 121.339 15.0577H119.583V17.8198H118.236V10.771H121.458C122.25 10.771 122.865 10.9492 123.304 11.3056C123.743 11.662 123.962 12.1471 123.962 12.7609C123.962 13.6057 123.566 14.1667 122.775 14.4439C123.134 14.5561 123.39 14.7343 123.543 14.9785C123.703 15.2161 123.789 15.5395 123.802 15.9487ZM119.583 11.8699V14.0083H121.379C121.758 14.0083 122.05 13.9159 122.256 13.7311C122.469 13.5397 122.576 13.2658 122.576 12.9094C122.576 12.5728 122.466 12.3154 122.246 12.1372C122.034 11.959 121.728 11.8699 121.329 11.8699H119.583ZM126.076 12.0481H124.839V10.8799H126.076V12.0481ZM126.086 17.8198H124.829V12.7114H126.086V17.8198ZM129.413 17.9386C128.655 17.9386 128.04 17.6944 127.568 17.206C127.102 16.7242 126.869 16.0774 126.869 15.2656C126.869 14.4472 127.102 13.7971 127.568 13.3153C128.027 12.8335 128.642 12.5926 129.413 12.5926C130.085 12.5926 130.633 12.7708 131.059 13.1272C131.485 13.477 131.734 13.9522 131.807 14.5528H130.55C130.49 14.2558 130.361 14.0281 130.161 13.8697C129.962 13.7113 129.712 13.6321 129.413 13.6321C129.021 13.6321 128.711 13.774 128.485 14.0578C128.266 14.335 128.156 14.7376 128.156 15.2656C128.156 15.7936 128.269 16.1995 128.495 16.4833C128.721 16.7605 129.027 16.8991 129.413 16.8991C129.719 16.8991 129.975 16.8166 130.181 16.6516C130.394 16.48 130.524 16.2358 130.57 15.919H131.827C131.76 16.5328 131.508 17.0245 131.069 17.3941C130.63 17.7571 130.078 17.9386 129.413 17.9386ZM137.542 15.2656C137.542 16.0708 137.303 16.7176 136.824 17.206C136.345 17.6944 135.713 17.9386 134.929 17.9386C134.144 17.9386 133.512 17.6944 133.033 17.206C132.548 16.7242 132.305 16.0774 132.305 15.2656C132.305 14.4538 132.548 13.807 133.033 13.3252C133.512 12.8368 134.144 12.5926 134.929 12.5926C135.713 12.5926 136.345 12.8335 136.824 13.3153C137.303 13.7971 137.542 14.4472 137.542 15.2656ZM133.941 16.4833C134.18 16.7671 134.51 16.909 134.929 16.909C135.347 16.909 135.673 16.7671 135.906 16.4833C136.146 16.1929 136.265 15.787 136.265 15.2656C136.265 14.7442 136.146 14.3416 135.906 14.0578C135.673 13.7674 135.347 13.6222 134.929 13.6222C134.51 13.6222 134.18 13.7641 133.941 14.0479C133.708 14.3317 133.592 14.7376 133.592 15.2656C133.592 15.7936 133.708 16.1995 133.941 16.4833ZM140.751 12.7114V13.6618H139.733V16.4239C139.733 16.5889 139.776 16.7044 139.863 16.7704C139.956 16.8364 140.109 16.8694 140.322 16.8694H140.751V17.8198C140.478 17.8462 140.259 17.8594 140.092 17.8594C139.534 17.8594 139.125 17.7571 138.865 17.5525C138.613 17.3413 138.486 17.008 138.486 16.5526V13.6618H137.688V12.7114H138.486V11.2264H139.733V12.7114H140.751ZM143.77 12.7114V13.6618H142.753V16.4239C142.753 16.5889 142.796 16.7044 142.883 16.7704C142.976 16.8364 143.129 16.8694 143.341 16.8694H143.77V17.8198C143.498 17.8462 143.278 17.8594 143.112 17.8594C142.553 17.8594 142.144 17.7571 141.885 17.5525C141.632 17.3413 141.506 17.008 141.506 16.5526V13.6618H140.708V12.7114H141.506V11.2264H142.753V12.7114H143.77ZM149.106 17.8198H147.849C147.789 17.7142 147.742 17.5063 147.709 17.1961C147.363 17.6911 146.811 17.9386 146.053 17.9386C145.488 17.9386 145.036 17.8033 144.697 17.5327C144.364 17.2621 144.198 16.8859 144.198 16.4041C144.198 15.4735 144.856 14.9422 146.173 14.8102L146.951 14.7409C147.21 14.7079 147.397 14.6485 147.51 14.5627C147.623 14.4703 147.679 14.335 147.679 14.1568C147.679 13.939 147.606 13.7806 147.46 13.6816C147.32 13.576 147.081 13.5232 146.742 13.5232C146.376 13.5232 146.113 13.5859 145.954 13.7113C145.794 13.8301 145.701 14.038 145.674 14.335H144.437C144.511 13.1734 145.282 12.5926 146.752 12.5926C148.181 12.5926 148.896 13.1041 148.896 14.1271V16.8496C148.896 17.2984 148.966 17.6218 149.106 17.8198ZM146.353 17.0476C146.745 17.0476 147.064 16.942 147.31 16.7308C147.556 16.513 147.679 16.2028 147.679 15.8002V15.3349C147.56 15.4405 147.363 15.5098 147.091 15.5428L146.412 15.622C146.08 15.6616 145.841 15.7408 145.694 15.8596C145.555 15.9718 145.485 16.1368 145.485 16.3546C145.485 16.5724 145.558 16.744 145.704 16.8694C145.857 16.9882 146.073 17.0476 146.353 17.0476ZM152.077 10.771H155.199C155.99 10.771 156.606 10.9789 157.044 11.3947C157.49 11.8039 157.713 12.3616 157.713 13.0678C157.713 13.7674 157.49 14.3251 157.044 14.7409C156.606 15.1501 155.99 15.3547 155.199 15.3547H153.424V17.8198H152.077V10.771ZM153.424 14.2063H155.139C155.532 14.2063 155.831 14.1106 156.037 13.9192C156.25 13.7212 156.356 13.4374 156.356 13.0678C156.356 12.6982 156.25 12.4144 156.037 12.2164C155.831 12.0184 155.532 11.9194 155.139 11.9194H153.424V14.2063ZM162.773 17.8198H161.516C161.456 17.7142 161.41 17.5063 161.376 17.1961C161.03 17.6911 160.479 17.9386 159.72 17.9386C159.155 17.9386 158.703 17.8033 158.364 17.5327C158.031 17.2621 157.865 16.8859 157.865 16.4041C157.865 15.4735 158.523 14.9422 159.84 14.8102L160.618 14.7409C160.878 14.7079 161.064 14.6485 161.177 14.5627C161.29 14.4703 161.346 14.335 161.346 14.1568C161.346 13.939 161.273 13.7806 161.127 13.6816C160.987 13.576 160.748 13.5232 160.409 13.5232C160.043 13.5232 159.78 13.5859 159.621 13.7113C159.461 13.8301 159.368 14.038 159.341 14.335H158.104C158.178 13.1734 158.949 12.5926 160.419 12.5926C161.848 12.5926 162.563 13.1041 162.563 14.1271V16.8496C162.563 17.2984 162.633 17.6218 162.773 17.8198ZM160.02 17.0476C160.412 17.0476 160.731 16.942 160.977 16.7308C161.223 16.513 161.346 16.2028 161.346 15.8002V15.3349C161.227 15.4405 161.03 15.5098 160.758 15.5428L160.08 15.622C159.747 15.6616 159.508 15.7408 159.361 15.8596C159.222 15.9718 159.152 16.1368 159.152 16.3546C159.152 16.5724 159.225 16.744 159.371 16.8694C159.524 16.9882 159.74 17.0476 160.02 17.0476ZM166.344 12.5926C166.903 12.5926 167.342 12.7543 167.661 13.0777C167.987 13.3945 168.15 13.8466 168.15 14.434V17.8198H166.893V14.6419C166.893 13.9951 166.571 13.6717 165.926 13.6717C165.606 13.6717 165.334 13.7872 165.108 14.0182C164.888 14.2426 164.778 14.5561 164.778 14.9587V17.8198H163.522V12.7114H164.739V13.444C165.131 12.8764 165.666 12.5926 166.344 12.5926ZM171.486 17.9386C170.727 17.9386 170.112 17.6944 169.64 17.206C169.175 16.7242 168.942 16.0774 168.942 15.2656C168.942 14.4472 169.175 13.7971 169.64 13.3153C170.099 12.8335 170.714 12.5926 171.486 12.5926C172.157 12.5926 172.706 12.7708 173.131 13.1272C173.557 13.477 173.806 13.9522 173.88 14.5528H172.623C172.563 14.2558 172.433 14.0281 172.234 13.8697C172.034 13.7113 171.785 13.6321 171.486 13.6321C171.093 13.6321 170.784 13.774 170.558 14.0578C170.338 14.335 170.229 14.7376 170.229 15.2656C170.229 15.7936 170.342 16.1995 170.568 16.4833C170.794 16.7605 171.1 16.8991 171.486 16.8991C171.791 16.8991 172.048 16.8166 172.254 16.6516C172.466 16.48 172.596 16.2358 172.643 15.919H173.9C173.833 16.5328 173.58 17.0245 173.141 17.3941C172.703 17.7571 172.151 17.9386 171.486 17.9386ZM179.255 17.8198H177.998C177.938 17.7142 177.892 17.5063 177.858 17.1961C177.512 17.6911 176.961 17.9386 176.202 17.9386C175.637 17.9386 175.185 17.8033 174.846 17.5327C174.513 17.2621 174.347 16.8859 174.347 16.4041C174.347 15.4735 175.005 14.9422 176.322 14.8102L177.1 14.7409C177.36 14.7079 177.546 14.6485 177.659 14.5627C177.772 14.4703 177.828 14.335 177.828 14.1568C177.828 13.939 177.755 13.7806 177.609 13.6816C177.469 13.576 177.23 13.5232 176.891 13.5232C176.525 13.5232 176.262 13.5859 176.103 13.7113C175.943 13.8301 175.85 14.038 175.823 14.335H174.587C174.66 13.1734 175.431 12.5926 176.901 12.5926C178.33 12.5926 179.045 13.1041 179.045 14.1271V16.8496C179.045 17.2984 179.115 17.6218 179.255 17.8198ZM176.502 17.0476C176.894 17.0476 177.213 16.942 177.459 16.7308C177.705 16.513 177.828 16.2028 177.828 15.8002V15.3349C177.709 15.4405 177.512 15.5098 177.24 15.5428L176.562 15.622C176.229 15.6616 175.99 15.7408 175.843 15.8596C175.704 15.9718 175.634 16.1368 175.634 16.3546C175.634 16.5724 175.707 16.744 175.853 16.8694C176.006 16.9882 176.222 17.0476 176.502 17.0476ZM184.922 17.8198H183.486L181.989 15.4438L181.211 16.216V17.8198H179.974V10.771H181.211V14.83L183.306 12.7114H184.802L182.857 14.6419L184.922 17.8198ZM189.927 15.3547V15.6517H186.076C186.123 16.0873 186.259 16.4173 186.485 16.6417C186.718 16.8595 187.027 16.9684 187.413 16.9684C187.985 16.9684 188.377 16.7242 188.59 16.2358H189.797C189.664 16.7572 189.385 17.173 188.959 17.4832C188.534 17.7868 188.015 17.9386 187.403 17.9386C186.638 17.9386 186.02 17.6944 185.548 17.206C185.076 16.7176 184.839 16.0708 184.839 15.2656C184.839 14.4604 185.072 13.8136 185.538 13.3252C186.01 12.8368 186.625 12.5926 187.383 12.5926C188.161 12.5926 188.78 12.8467 189.238 13.3549C189.697 13.8631 189.927 14.5297 189.927 15.3547ZM187.373 13.5628C186.635 13.5628 186.206 13.9687 186.086 14.7805H188.67C188.617 14.4043 188.477 14.1073 188.251 13.8895C188.025 13.6717 187.732 13.5628 187.373 13.5628ZM192.754 17.9584C191.251 17.9584 190.466 17.371 190.4 16.1962H191.626C191.66 16.513 191.763 16.7374 191.936 16.8694C192.115 17.0014 192.395 17.0674 192.774 17.0674C193.452 17.0674 193.791 16.8628 193.791 16.4536C193.791 16.2688 193.718 16.1269 193.572 16.0279C193.425 15.9289 193.163 15.8464 192.784 15.7804L192.195 15.6814C191.071 15.4966 190.509 14.9818 190.509 14.137C190.509 13.6552 190.695 13.279 191.068 13.0084C191.44 12.7312 191.966 12.5926 192.644 12.5926C194.114 12.5926 194.872 13.1701 194.918 14.3251H193.731C193.718 14.0215 193.621 13.807 193.442 13.6816C193.262 13.5496 192.996 13.4836 192.644 13.4836C192.045 13.4836 191.746 13.6816 191.746 14.0776C191.746 14.2492 191.813 14.3845 191.946 14.4835C192.079 14.5759 192.298 14.6485 192.604 14.7013L193.252 14.8003C193.877 14.9125 194.33 15.0907 194.609 15.3349C194.895 15.5791 195.038 15.919 195.038 16.3546C195.038 16.8694 194.838 17.2654 194.439 17.5426C194.04 17.8198 193.478 17.9584 192.754 17.9584ZM200.184 19.7602H199.027C198.195 18.328 197.78 16.7143 197.78 14.9191C197.78 13.0909 198.195 11.4673 199.027 10.0483H200.184C199.791 10.7809 199.509 11.5333 199.336 12.3055C199.163 13.0711 199.076 13.9423 199.076 14.9191C199.076 15.8629 199.163 16.7176 199.336 17.4832C199.509 18.2488 199.791 19.0078 200.184 19.7602ZM203.735 14.0776L204.234 12.7114H205.54L203.625 17.8198H202.179L200.273 12.7114H201.62L202.119 14.0875C202.352 14.8069 202.621 15.6748 202.927 16.6912C203.173 15.8728 203.442 15.0016 203.735 14.0776ZM206.779 19.7602H205.632C206.024 19.0078 206.307 18.2488 206.48 17.4832C206.653 16.7176 206.739 15.8629 206.739 14.9191C206.739 13.9423 206.653 13.0711 206.48 12.3055C206.307 11.5333 206.024 10.7809 205.632 10.0483H206.779C207.617 11.4673 208.036 13.0909 208.036 14.9191C208.036 16.7341 207.617 18.3478 206.779 19.7602Z" fill="black"/>
</g>
<path d="M221.029 11.4231C221.367 11.4231 221.643 11.1503 221.643 10.8138C221.643 10.4774 221.367 10.2046 221.029 10.2046C220.69 10.2046 220.414 10.4774 220.414 10.8138C220.414 11.1503 220.69 11.4231 221.029 11.4231Z" fill="#FF7474"/>
<path d="M219.391 10.2043C219.731 10.2043 220.005 9.93155 220.005 9.59509C220.005 9.25862 219.731 8.98584 219.391 8.98584C219.052 8.98584 218.778 9.25862 218.778 9.59509C218.778 9.93155 219.052 10.2043 219.391 10.2043Z" fill="#FF7474"/>
<path d="M217.754 9.79857C218.093 9.79857 218.368 9.52579 218.368 9.18933C218.368 8.85286 218.093 8.58008 217.754 8.58008C217.416 8.58008 217.14 8.85286 217.14 9.18933C217.14 9.52579 217.416 9.79857 217.754 9.79857Z" fill="#FF7474"/>
<path d="M216.118 10.611C216.457 10.611 216.731 10.3382 216.731 10.0018C216.731 9.66529 216.457 9.39258 216.118 9.39258C215.779 9.39258 215.504 9.66529 215.504 10.0018C215.504 10.3382 215.779 10.611 216.118 10.611Z" fill="#FF7474"/>
<path d="M220.414 10.8136V13.4536C220.414 13.5656 220.323 13.6566 220.21 13.6566C220.097 13.6566 220.005 13.5656 220.005 13.4536V9.59506H218.778V13.0474C218.778 13.1595 218.686 13.2505 218.573 13.2505C218.46 13.2505 218.369 13.1595 218.369 13.0474V9.18896H217.14V13.0474C217.14 13.1595 217.049 13.2505 216.936 13.2505C216.823 13.2505 216.731 13.1595 216.731 13.0474V10.0012H215.504V15.0781L214.675 13.9527C214.429 13.577 213.95 13.4511 213.599 13.6664C213.249 13.8865 213.162 14.3666 213.405 14.7411C213.405 14.7411 214.741 16.7487 215.311 17.6081C215.881 18.4675 216.803 19.1397 218.529 19.1397C221.386 19.1397 221.642 16.9497 221.642 16.2966C221.642 15.6435 221.642 10.8136 221.642 10.8136H220.414Z" fill="#FF7474"/>
<path d="M260.68 0.330078H5.32002C2.5655 0.330078 0.33252 2.54627 0.33252 5.28008V60.7201C0.33252 63.4539 2.5655 65.6701 5.32002 65.6701H260.68C263.435 65.6701 265.668 63.4539 265.668 60.7201V5.28008C265.668 2.54627 263.435 0.330078 260.68 0.330078Z" stroke="#F9FE17"/>
</g>
<defs>
<clipPath id="clip0">
<rect width="266" height="66" fill="white"/>
</clipPath>
</defs>
</svg>
