<svg width="205" height="69" viewBox="0 0 205 69" fill="none" xmlns="http://www.w3.org/2000/svg">
<path d="M76.844 43.038C74.7413 43.038 72.854 42.6073 71.182 41.746C69.5353 40.8847 68.2433 39.6687 67.306 38.098C66.3687 36.5273 65.9 34.716 65.9 32.664C65.9 31.2707 66.1787 29.9913 66.736 28.826C67.2933 27.6607 68.104 26.736 69.168 26.052C70.232 25.3427 71.486 24.988 72.93 24.988C75.666 24.988 78.098 25.4567 80.226 26.394C82.3793 27.306 84.0513 28.6233 85.242 30.346C86.458 32.0687 87.066 34.0573 87.066 36.312C87.066 37.8067 86.5087 39.0607 85.394 40.074C84.3047 41.0873 82.962 41.8347 81.366 42.316C79.7953 42.7973 78.288 43.038 76.844 43.038ZM76.122 41.062C78.6553 41.062 80.7833 40.682 82.506 39.922C84.254 39.162 85.128 37.8953 85.128 36.122C85.128 33.0313 83.9373 30.7133 81.556 29.168C79.1747 27.5973 76.1347 26.812 72.436 26.812C70.6627 26.812 69.4087 27.344 68.674 28.408C67.9647 29.4467 67.61 30.8653 67.61 32.664C67.61 34.1587 67.9647 35.552 68.674 36.844C69.4087 38.1107 70.422 39.1367 71.714 39.922C73.006 40.682 74.4753 41.062 76.122 41.062ZM93.8386 43C92.7999 40.9733 91.9766 38.592 91.3686 35.856C90.7859 33.12 90.4946 30.7513 90.4946 28.75C90.4946 27.9647 90.6719 27.458 91.0266 27.23C91.2293 27.1033 91.3813 27.04 91.4826 27.04C91.6599 27.04 91.7866 27.1793 91.8626 27.458C91.9639 27.7367 92.0653 28.2433 92.1666 28.978L92.3566 30.346C92.6353 28.978 93.1673 27.9013 93.9526 27.116C94.7633 26.3053 95.7513 25.9 96.9166 25.9C98.2086 25.9 99.1713 26.1533 99.8046 26.66C100.438 27.1413 100.755 27.952 100.755 29.092C99.4879 28.484 98.3353 28.18 97.2966 28.18C96.3086 28.18 95.4599 28.446 94.7506 28.978C94.0413 29.51 93.5473 30.2953 93.2686 31.334C93.0406 32.0433 92.9266 32.7147 92.9266 33.348C92.9266 34.032 93.0153 34.678 93.1926 35.286C93.3953 35.8687 93.6993 36.5907 94.1046 37.452C94.4846 38.3387 94.7759 39.0987 94.9786 39.732C95.2066 40.3653 95.3333 41.0493 95.3586 41.784C95.3586 42.2147 95.2066 42.5313 94.9026 42.734C94.5986 42.9113 94.2439 43 93.8386 43ZM108.756 42.962C107.566 42.962 106.527 42.5567 105.64 41.746C104.779 40.9353 104.12 39.884 103.664 38.592C103.234 37.3 103.018 35.9573 103.018 34.564C103.018 32.132 103.525 30.08 104.538 28.408C105.577 26.736 107.148 25.9 109.25 25.9C110.517 25.9 111.619 26.128 112.556 26.584C113.519 27.0147 114.773 27.7493 116.318 28.788L117.306 29.472C117.18 28.636 116.99 27.6733 116.736 26.584C116.483 25.4947 116.318 24.7473 116.242 24.342C115.812 22.366 115.495 20.8967 115.292 19.934C115.115 18.946 115.026 18.072 115.026 17.312C115.026 15.9693 115.406 15.298 116.166 15.298C116.445 15.906 116.774 17.2107 117.154 19.212C117.534 21.188 118.016 23.8987 118.598 27.344C119.206 30.992 119.738 33.9687 120.194 36.274C120.65 38.5793 121.03 40.0233 121.334 40.606C121.334 41.1887 120.904 41.48 120.042 41.48C119.384 41.48 118.928 41.1 118.674 40.34C118.446 39.58 118.307 38.25 118.256 36.35H117.952C116.888 38.2753 115.508 39.8587 113.81 41.1C112.113 42.3413 110.428 42.962 108.756 42.962ZM109.25 41.1C110.289 41.1 111.404 40.6693 112.594 39.808C113.81 38.9213 114.836 37.8573 115.672 36.616C116.508 35.3493 116.926 34.2093 116.926 33.196V32.056C114.317 29.32 111.91 27.952 109.706 27.952C108.161 27.952 106.97 28.522 106.134 29.662C105.298 30.7767 104.88 32.246 104.88 34.07L104.918 34.868C105.07 36.7933 105.501 38.3133 106.21 39.428C106.92 40.5427 107.933 41.1 109.25 41.1ZM132.564 43C130.943 43 129.448 42.6833 128.08 42.05C126.712 41.4167 125.623 40.5173 124.812 39.352C124.002 38.1867 123.596 36.844 123.596 35.324C123.596 33.6267 123.913 32.0433 124.546 30.574C125.18 29.0793 126.104 27.8887 127.32 27.002C128.562 26.09 130.006 25.634 131.652 25.634C133.375 25.634 134.68 26.1913 135.566 27.306C136.453 28.3953 136.871 29.776 136.82 31.448C136.82 32.9427 136.225 34.0827 135.034 34.868C133.869 35.6533 132.374 36.046 130.55 36.046C130.272 36.046 129.854 36.0207 129.296 35.97C128.384 35.8687 127.738 35.7293 127.358 35.552C126.978 35.3747 126.788 35.02 126.788 34.488C126.788 34.3107 126.839 34.184 126.94 34.108C127.042 34.0067 127.244 33.956 127.548 33.956C127.878 33.956 128.46 34.032 129.296 34.184C130.107 34.336 130.829 34.412 131.462 34.412C133.793 34.412 134.958 33.3987 134.958 31.372C134.958 30.156 134.73 29.1933 134.274 28.484C133.844 27.7747 133.071 27.42 131.956 27.42C130.74 27.42 129.651 27.7493 128.688 28.408C127.726 29.0413 126.978 29.8773 126.446 30.916C125.94 31.9547 125.686 33.0567 125.686 34.222C125.686 36.2233 126.244 37.87 127.358 39.162C128.473 40.4287 130.196 41.062 132.526 41.062C132.805 41.062 133.274 41.0367 133.932 40.986C134.211 40.9607 134.553 40.8847 134.958 40.758C135.364 40.6313 135.655 40.5427 135.832 40.492C136.922 40.112 137.72 39.922 138.226 39.922C138.606 39.922 138.898 40.0233 139.1 40.226C138.467 41.1887 137.517 41.898 136.25 42.354C135.009 42.7847 133.78 43 132.564 43ZM143.973 43C142.935 40.9733 142.111 38.592 141.503 35.856C140.921 33.12 140.629 30.7513 140.629 28.75C140.629 27.9647 140.807 27.458 141.161 27.23C141.364 27.1033 141.516 27.04 141.617 27.04C141.795 27.04 141.921 27.1793 141.997 27.458C142.099 27.7367 142.2 28.2433 142.301 28.978L142.491 30.346C142.77 28.978 143.302 27.9013 144.087 27.116C144.898 26.3053 145.886 25.9 147.051 25.9C148.343 25.9 149.306 26.1533 149.939 26.66C150.573 27.1413 150.889 27.952 150.889 29.092C149.623 28.484 148.47 28.18 147.431 28.18C146.443 28.18 145.595 28.446 144.885 28.978C144.176 29.51 143.682 30.2953 143.403 31.334C143.175 32.0433 143.061 32.7147 143.061 33.348C143.061 34.032 143.15 34.678 143.327 35.286C143.53 35.8687 143.834 36.5907 144.239 37.452C144.619 38.3387 144.911 39.0987 145.113 39.732C145.341 40.3653 145.468 41.0493 145.493 41.784C145.493 42.2147 145.341 42.5313 145.037 42.734C144.733 42.9113 144.379 43 143.973 43ZM152.583 38.516C152.938 38.2373 153.28 38.098 153.609 38.098C153.913 38.098 154.204 38.1867 154.483 38.364C154.787 38.5413 155.091 38.7693 155.395 39.048C155.699 39.3013 155.94 39.4913 156.117 39.618C156.7 40.074 157.498 40.4287 158.511 40.682C159.524 40.9353 160.601 41.062 161.741 41.062C163.033 41.062 164.186 40.8213 165.199 40.34C166.238 39.8333 166.757 39.162 166.757 38.326C166.757 37.566 166.478 36.9707 165.921 36.54C165.364 36.084 164.692 35.7547 163.907 35.552C163.122 35.3493 162.083 35.1593 160.791 34.982C159.043 34.7793 157.65 34.526 156.611 34.222C155.598 33.918 154.787 33.424 154.179 32.74C153.571 32.0307 153.267 31.0427 153.267 29.776C153.267 28.408 153.913 27.3947 155.205 26.736C156.497 26.052 157.979 25.71 159.651 25.71C161.171 25.71 162.463 26.0393 163.527 26.698C164.616 27.3313 165.174 28.2433 165.199 29.434C165.25 30.118 165.148 30.6627 164.895 31.068C164.642 31.448 164.338 31.638 163.983 31.638C163.78 31.638 163.603 31.562 163.451 31.41C163.324 31.258 163.261 31.0553 163.261 30.802C163.261 30.3967 163.4 29.9533 163.679 29.472C163.552 28.864 163.134 28.408 162.425 28.104C161.741 27.8 160.918 27.648 159.955 27.648C158.536 27.648 157.409 27.914 156.573 28.446C155.737 28.9527 155.319 29.5607 155.319 30.27C155.319 31.03 155.623 31.6127 156.231 32.018C156.839 32.4233 157.574 32.7147 158.435 32.892C159.322 33.044 160.576 33.196 162.197 33.348C163.54 33.5253 164.629 33.7407 165.465 33.994C166.326 34.2473 167.048 34.7413 167.631 35.476C168.214 36.1853 168.505 37.2113 168.505 38.554C168.505 39.9473 167.859 41.0493 166.567 41.86C165.275 42.6453 163.73 43.038 161.931 43.038C159.626 43.038 157.561 42.6453 155.737 41.86C153.938 41.0747 152.887 39.96 152.583 38.516Z" fill="black"/>
<path d="M41.866 44.558C41.6127 44.558 41.3973 44.5073 41.22 44.406C41.0427 44.3047 40.7767 44.102 40.422 43.798L40.764 41.784C41.22 38.972 41.5747 36.6287 41.828 34.754C42.0813 32.854 42.2587 30.9033 42.36 28.902C41.4987 29.662 40.3333 30.9033 38.864 32.626C38.0027 33.6393 37.3313 34.3867 36.85 34.868C36.394 35.324 36.0393 35.552 35.786 35.552C35.5833 35.5267 35.3933 35.4127 35.216 35.21C35.064 34.982 34.988 34.716 34.988 34.412C34.988 34.0573 35.1147 33.7407 35.368 33.462L42.056 26.318C42.284 26.0647 42.4613 25.7227 42.588 25.292C42.7147 24.8613 42.8413 24.266 42.968 23.506C43.12 22.5433 43.2973 21.8213 43.5 21.34C43.7027 20.8333 44.032 20.58 44.488 20.58C44.6907 20.58 44.8427 20.6053 44.944 20.656C45.0453 20.6813 45.134 20.77 45.21 20.922L45.248 22.176C45.248 22.632 45.02 24.8487 44.564 28.826C44.1333 32.778 43.6647 36.388 43.158 39.656C42.6513 42.924 42.2207 44.558 41.866 44.558ZM50.0497 43C49.5937 43 49.1883 42.7973 48.8337 42.392C48.5043 41.9613 48.2383 41.4673 48.0357 40.91C47.8583 40.3273 47.7697 39.8333 47.7697 39.428C47.7697 38.6173 47.8837 37.946 48.1117 37.414C48.365 36.8567 48.6563 36.464 48.9857 36.236C49.315 35.9827 49.619 35.856 49.8977 35.856C50.7843 35.856 51.4937 36.2867 52.0257 37.148C52.5577 37.984 52.8237 38.8833 52.8237 39.846C52.8237 40.226 52.6717 40.6693 52.3677 41.176C52.089 41.6827 51.7343 42.1133 51.3037 42.468C50.873 42.8227 50.455 43 50.0497 43Z" fill="black"/>
<path d="M189.5 39.4238C189.5 46.5015 186.477 51.7955 181.103 55.7881C175.704 59.7998 167.923 62.5006 158.435 64.3077C139.46 67.9219 113.889 67.9239 87.5 67.9239C61.1443 67.9239 39.3404 65.5485 24.1423 60.0166C16.5463 57.2517 10.6339 53.7101 6.6243 49.3136C2.62464 44.9279 0.5 39.6727 0.5 33.4239C0.5 27.2964 4.33356 22.3369 10.9106 18.2871C17.4888 14.2366 26.722 11.1575 37.2969 8.78676C58.4394 4.04685 84.7757 2.17326 105.53 0.922995C126.252 -0.325309 147.297 1.0529 163.14 6.893C171.057 9.81166 177.647 13.8342 182.254 19.1724C186.854 24.5014 189.5 31.166 189.5 39.4238Z" stroke="black"/>
<path d="M204.5 39.1464C204.5 45.5146 201.407 50.2972 195.857 53.9193C190.281 57.558 182.246 60.0075 172.452 61.646C152.87 64.9223 126.483 64.9238 99.2632 64.9238C72.0722 64.9238 49.5695 62.7713 33.8806 57.7553C18.1711 52.7327 9.5 44.9198 9.5 33.7098C9.5 28.2134 13.4178 23.7285 20.2226 20.0481C27.0143 16.3748 36.5459 13.5831 47.4584 11.4342C69.2751 7.13797 96.4487 5.44009 117.858 4.30723C139.239 3.17587 160.96 4.42447 177.316 9.72028C185.492 12.3677 192.292 16.0154 197.044 20.8507C201.783 25.6741 204.5 31.6944 204.5 39.1464Z" stroke="black"/>
</svg>
