<svg width="16" height="17" viewBox="0 0 16 17" fill="none" xmlns="http://www.w3.org/2000/svg">
<g clip-path="url(#clip0)">
<path d="M4.48226 2.88031C4.01716 2.03958 3.1755 1.47467 2.38783 1.47467C1.80047 1.47467 1.20377 1.78525 0.750751 2.32675C0.322349 2.83883 0.0766602 3.47858 0.0766602 4.08188C0.0766602 4.8252 0.514851 5.52547 1.24883 5.95508C1.28677 5.9773 1.32835 5.98786 1.36942 5.98786C1.45077 5.98786 1.53004 5.94631 1.57481 5.8716C2.26172 4.72482 3.23277 3.80395 4.38293 3.20846C4.44027 3.17877 4.48319 3.12715 4.50187 3.06538C4.52059 3.00356 4.51351 2.93682 4.48226 2.88031Z" fill="#525256"/>
<path d="M2.00056 5.20335C1.26659 4.77374 0.828396 4.07346 0.828396 3.33015C0.828396 2.8167 1.00687 2.27718 1.32395 1.8121C1.11764 1.94708 0.923706 2.12004 0.750751 2.32676C0.322349 2.83883 0.0766602 3.47858 0.0766602 4.08188C0.0766602 4.8252 0.514851 5.52547 1.24883 5.95508C1.28677 5.97731 1.32835 5.98786 1.36942 5.98786C1.45077 5.98786 1.53004 5.94632 1.57481 5.8716C1.71192 5.64269 1.86055 5.42292 2.0195 5.21279C2.01316 5.20976 2.00675 5.20695 2.00056 5.20335Z" fill="#454549"/>
<path d="M11.5943 2.88031C12.0594 2.03958 12.9011 1.47467 13.6888 1.47467C14.2761 1.47467 14.8728 1.78525 15.3258 2.32675C15.7542 2.83883 15.9999 3.47858 15.9999 4.08188C15.9999 4.8252 15.5617 5.52547 14.8278 5.95508C14.7898 5.9773 14.7482 5.98786 14.7072 5.98786C14.6258 5.98786 14.5466 5.94631 14.5018 5.8716C13.8149 4.72482 12.8438 3.80395 11.6937 3.20846C11.6363 3.17877 11.5934 3.12715 11.5747 3.06538C11.556 3.00356 11.5631 2.93682 11.5943 2.88031Z" fill="#525256"/>
<path d="M14.0761 5.20335C14.81 4.77374 15.2482 4.07346 15.2482 3.33015C15.2482 2.8167 15.0698 2.27718 14.7527 1.8121C14.959 1.94708 15.1529 2.12004 15.3259 2.32676C15.7543 2.83883 16 3.47858 16 4.08188C16 4.8252 15.5618 5.52547 14.8278 5.95508C14.7899 5.97731 14.7483 5.98786 14.7072 5.98786C14.6259 5.98786 14.5466 5.94632 14.5018 5.8716C14.3647 5.64269 14.2161 5.42292 14.0571 5.21279C14.0635 5.20976 14.0699 5.20695 14.0761 5.20335Z" fill="#454549"/>
<path d="M13.9498 4.478C12.9187 3.30533 11.0486 1.9081 7.99078 1.89978C7.98938 1.89975 7.98798 1.89975 7.98654 1.89975H7.96346C7.96205 1.89975 7.96062 1.89975 7.95922 1.89978C4.90141 1.9081 3.0313 3.30533 2.00027 4.478C0.729064 5.92386 0 7.8607 0 9.79197C0 11.5577 0.821632 13.0363 2.37609 14.0679C3.78668 15.004 5.7689 15.5212 7.96001 15.5253C7.96116 15.5254 7.96234 15.5254 7.96349 15.5254H7.98657C7.98775 15.5254 7.9889 15.5254 7.99005 15.5253C10.1812 15.5212 12.1634 15.004 13.574 14.0679C15.1284 13.0363 15.9501 11.5577 15.9501 9.79197C15.95 7.8607 15.221 5.92386 13.9498 4.478Z" fill="#E0E0E0"/>
<path d="M13.5739 12.9636C12.1634 13.8996 10.1811 14.4169 7.99002 14.421C7.98887 14.421 7.98769 14.421 7.98654 14.421H7.96346C7.96228 14.421 7.96113 14.421 7.95998 14.421C5.76887 14.4169 3.78668 13.8996 2.37606 12.9636C0.972904 12.0324 0.167088 10.7369 0.0235007 9.19476C0.00819496 9.39351 0 9.59274 0 9.79197C0 11.5577 0.821632 13.0363 2.37609 14.0679C3.78668 15.004 5.7689 15.5212 7.96001 15.5254C7.96116 15.5254 7.96234 15.5254 7.96349 15.5254H7.98657C7.98775 15.5254 7.9889 15.5254 7.99005 15.5254C10.1812 15.5212 12.1634 15.004 13.574 14.0679C15.1284 13.0363 15.9501 11.5577 15.9501 9.79197C15.9501 9.59278 15.9419 9.39355 15.9266 9.19476C15.7829 10.7369 14.9771 12.0324 13.5739 12.9636Z" fill="#C4C4C4"/>
<path d="M6.47898 6.70176C6.15976 6.30515 5.65324 6.07767 5.08928 6.07767C4.51414 6.07767 3.95261 6.27664 3.5081 6.63792C2.99676 7.05354 2.65739 7.66803 2.52669 8.41495C2.40376 9.11729 2.53966 9.76578 2.89948 10.1941C3.18971 10.5395 3.59649 10.7221 4.07588 10.7221C4.60269 10.7221 5.21106 10.4517 5.74504 9.98025C6.27931 9.50858 6.65899 8.9033 6.78666 8.31964C6.92374 7.69309 6.81447 7.11855 6.47898 6.70176Z" fill="#525256"/>
<path d="M10.8416 11.6162C10.7923 11.4936 10.653 11.4343 10.5305 11.4836C9.25246 11.9979 8.46743 11.2015 8.27729 10.9749V10.6102C8.27729 10.4781 8.17022 10.371 8.03814 10.371C7.90606 10.371 7.79899 10.4781 7.79899 10.6102V10.9748C7.60789 11.2024 6.82309 11.9976 5.54576 11.4836C5.42325 11.4343 5.2839 11.4936 5.23463 11.6162C5.18534 11.7387 5.24468 11.878 5.36722 11.9273C5.73335 12.0747 6.06736 12.1317 6.36525 12.1317C6.83233 12.1317 7.21042 11.9914 7.48283 11.8394C7.72574 11.7038 7.9119 11.5449 8.03814 11.4188C8.16435 11.5449 8.35054 11.7038 8.59345 11.8394C8.86589 11.9914 9.24388 12.1317 9.71103 12.1317C10.0089 12.1317 10.343 12.0747 10.7091 11.9273C10.8316 11.878 10.8909 11.7387 10.8416 11.6162Z" fill="#2B2B2D"/>
<path d="M8.03843 9.05347C7.58388 9.05347 6.73779 9.05347 6.73779 9.71266C6.73779 9.95969 6.94018 10.2101 7.37474 10.5008C7.65008 10.685 7.92141 10.8191 7.93282 10.8247C7.96611 10.8411 8.00227 10.8493 8.03846 10.8493C8.07466 10.8493 8.11082 10.8411 8.14411 10.8247C8.15552 10.8191 8.42685 10.685 8.70219 10.5008C9.13672 10.2101 9.3391 9.95969 9.3391 9.71266C9.33904 9.05347 8.49298 9.05347 8.03843 9.05347Z" fill="#525256"/>
<path d="M9.21991 9.35529C8.54827 9.94328 7.52859 9.94328 6.85695 9.35529C6.78275 9.44511 6.73779 9.56137 6.73779 9.71267C6.73779 9.9597 6.94018 10.2101 7.37474 10.5008C7.65008 10.685 7.92141 10.8191 7.93282 10.8247C7.96611 10.8412 8.00227 10.8493 8.03846 10.8493C8.07466 10.8493 8.11082 10.8412 8.14411 10.8247C8.15552 10.8191 8.42685 10.685 8.70219 10.5008C9.13672 10.2101 9.3391 9.9597 9.3391 9.71267C9.33904 9.56137 9.29411 9.44511 9.21991 9.35529Z" fill="#454549"/>
<path d="M13.4001 8.41495C13.2694 7.66803 12.9301 7.05357 12.4187 6.63792C11.9742 6.27664 11.4127 6.07767 10.8376 6.07767C10.2736 6.07767 9.76709 6.30515 9.44783 6.70176C9.11235 7.11852 9.0031 7.69309 9.14016 8.31961C9.26783 8.90327 9.64748 9.50855 10.1818 9.98022C10.7158 10.4517 11.3242 10.7221 11.851 10.7221C12.3303 10.7221 12.7371 10.5395 13.0274 10.1941C13.3872 9.76578 13.523 9.11733 13.4001 8.41495Z" fill="#525256"/>
<path d="M5.74504 8.8622C5.21103 9.33365 4.60266 9.60406 4.07588 9.60406C3.59649 9.60406 3.18971 9.42147 2.89948 9.07601C2.7284 8.87241 2.60864 8.61865 2.54253 8.33339C2.53715 8.36053 2.53147 8.38744 2.52669 8.41493C2.40376 9.11727 2.53966 9.76575 2.89948 10.194C3.18971 10.5395 3.59649 10.7221 4.07588 10.7221C4.60269 10.7221 5.21106 10.4517 5.74504 9.98023C6.27931 9.50855 6.65898 8.90327 6.78666 8.31962C6.86912 7.94265 6.86175 7.58481 6.77027 7.26852C6.62911 7.83127 6.25896 8.40852 5.74504 8.8622Z" fill="#454549"/>
<path d="M13.3845 8.33336C13.3184 8.61865 13.1986 8.87241 13.0275 9.07604C12.7373 9.42147 12.3305 9.60406 11.8511 9.60406C11.3244 9.60406 10.716 9.33369 10.1819 8.8622C9.66806 8.40852 9.29788 7.83127 9.15675 7.26849C9.06523 7.58478 9.0579 7.94262 9.14036 8.31958C9.26803 8.90324 9.64768 9.50852 10.182 9.98019C10.716 10.4516 11.3244 10.722 11.8512 10.722C12.3305 10.722 12.7373 10.5395 13.0276 10.194C13.3874 9.76572 13.5233 9.11727 13.4004 8.41489C13.3956 8.38744 13.3899 8.3605 13.3845 8.33336Z" fill="#454549"/>
<path d="M4.9041 7.53006C4.5779 7.53006 4.3125 7.79546 4.3125 8.12169C4.3125 8.44789 4.5779 8.71329 4.9041 8.71329C5.2303 8.71329 5.4957 8.44793 5.4957 8.12169C5.4957 7.79546 5.23034 7.53006 4.9041 7.53006Z" fill="#2B2B2D"/>
<path d="M11.0223 7.53006C10.6961 7.53006 10.4307 7.79545 10.4307 8.12169C10.4307 8.44789 10.6961 8.71329 11.0223 8.71329C11.3485 8.71329 11.6139 8.44793 11.6139 8.12169C11.6139 7.79545 11.3485 7.53006 11.0223 7.53006Z" fill="#2B2B2D"/>
</g>
<defs>
<clipPath id="clip0">
<rect width="16" height="16" fill="white" transform="translate(0 0.5)"/>
</clipPath>
</defs>
</svg>
