<svg width="205" height="69" viewBox="0 0 205 69" fill="none" xmlns="http://www.w3.org/2000/svg">
<path d="M90.908 41.556C92.9853 41.556 94.594 41.2647 95.734 40.682C96.874 40.0993 97.444 39.2507 97.444 38.136C97.444 37.148 97.102 36.2993 96.418 35.59C95.734 34.8553 94.8853 34.2347 93.872 33.728C92.8587 33.2213 91.478 32.626 89.73 31.942C89.578 31.8913 89.2107 31.752 88.628 31.524C86.2467 30.5613 84.41 29.5987 83.118 28.636C81.8513 27.6733 81.218 26.432 81.218 24.912C81.218 23.2147 81.8893 21.9353 83.232 21.074C84.5747 20.2127 86.2973 19.782 88.4 19.782C89.9453 19.782 91.364 19.9847 92.656 20.39C93.9733 20.77 95.012 21.302 95.772 21.986C96.5573 22.67 96.95 23.4427 96.95 24.304C96.646 24.456 96.3547 24.532 96.076 24.532C95.772 24.532 95.4553 24.4687 95.126 24.342C94.822 24.19 94.366 23.9493 93.758 23.62C92.77 23.088 91.8453 22.67 90.984 22.366C90.1227 22.0367 89.1093 21.872 87.944 21.872C86.4747 21.872 85.284 22.1253 84.372 22.632C83.46 23.1387 83.004 23.848 83.004 24.76C83.004 25.4693 83.308 26.1153 83.916 26.698C84.5493 27.2807 85.3347 27.8 86.272 28.256C87.2347 28.6867 88.514 29.206 90.11 29.814C92.1367 30.5993 93.8087 31.334 95.126 32.018C96.4433 32.702 97.558 33.576 98.47 34.64C99.4073 35.6787 99.876 36.92 99.876 38.364C99.876 40.0613 99.0653 41.3787 97.444 42.316C95.8227 43.228 93.8087 43.684 91.402 43.684C89.502 43.684 87.6273 43.4053 85.778 42.848C83.9287 42.2907 82.3453 41.4673 81.028 40.378C79.7107 39.2633 78.8747 37.9333 78.52 36.388C78.52 35.704 78.71 35.1213 79.09 34.64C79.47 34.1333 79.9387 33.88 80.496 33.88C80.496 35.5267 80.952 36.9327 81.864 38.098C82.8013 39.238 84.0553 40.0993 85.626 40.682C87.222 41.2647 88.9827 41.556 90.908 41.556ZM109.019 43C108.766 43.0507 108.601 43.076 108.525 43.076C107.74 43.076 107.195 42.4933 106.891 41.328C106.612 40.1627 106.473 38.5287 106.473 36.426C106.473 35.5647 106.498 34.222 106.549 32.398C106.6 31.2833 106.625 30.4473 106.625 29.89C103.509 29.89 101.951 29.5353 101.951 28.826C101.951 28.598 101.976 28.4207 102.027 28.294C102.103 28.1673 102.255 28.104 102.483 28.104L106.625 27.838C106.6 26.5967 106.536 25.2413 106.435 23.772C106.334 22.4547 106.27 21.2387 106.245 20.124C106.245 19.8453 106.359 19.6553 106.587 19.554C106.815 19.4273 107.056 19.364 107.309 19.364C107.613 19.364 107.866 19.5287 108.069 19.858C108.272 20.162 108.373 20.4787 108.373 20.808L108.639 27.762L111.793 27.914C112.274 27.8633 112.68 27.952 113.009 28.18C113.364 28.408 113.554 28.788 113.579 29.32C113.047 29.548 112.464 29.6873 111.831 29.738C111.198 29.7887 110.134 29.814 108.639 29.814C108.639 32.17 108.753 36.046 108.981 41.442C108.981 41.9993 108.981 42.392 108.981 42.62C109.006 42.8227 109.019 42.9493 109.019 43ZM125.432 43C122.798 43 120.505 42.544 118.554 41.632C116.629 40.6947 115.666 39.0607 115.666 36.73C115.666 35.894 115.92 35.0833 116.426 34.298C116.933 33.5127 117.68 32.8793 118.668 32.398C119.656 31.8913 120.86 31.638 122.278 31.638C123.368 31.638 124.292 31.6887 125.052 31.79C125.812 31.8913 126.686 32.17 127.674 32.626C128.662 33.082 129.688 33.804 130.752 34.792C130.347 33.044 129.739 31.5113 128.928 30.194C128.118 28.8767 127.206 27.8633 126.192 27.154C125.204 26.4193 124.229 26.052 123.266 26.052C122.81 26.052 122.38 26.1407 121.974 26.318C121.594 26.47 121.126 26.698 120.568 27.002C119.935 27.4073 119.466 27.61 119.162 27.61C119.036 27.61 118.922 27.572 118.82 27.496C118.744 27.3947 118.706 27.2807 118.706 27.154C118.706 26.1407 119.15 25.3553 120.036 24.798C120.948 24.2407 122.05 23.9873 123.342 24.038C125.116 24.1393 126.737 24.8993 128.206 26.318C129.676 27.7113 130.828 29.4467 131.664 31.524C132.526 33.6013 132.956 35.6407 132.956 37.642C132.956 37.9713 132.931 38.44 132.88 39.048L131.664 38.972C130.702 37.0213 129.46 35.6407 127.94 34.83C126.446 33.994 124.938 33.576 123.418 33.576C121.468 33.576 120.074 33.8673 119.238 34.45C118.402 35.0327 117.984 35.8813 117.984 36.996C117.984 38.1613 118.567 39.0987 119.732 39.808C120.898 40.5173 122.392 40.872 124.216 40.872C125.23 40.872 126.04 40.8213 126.648 40.72C127.256 40.5933 127.89 40.4287 128.548 40.226C129.08 40.0487 129.549 39.922 129.954 39.846C130.36 39.77 130.879 39.732 131.512 39.732C132.222 39.732 132.665 39.7827 132.842 39.884C133.045 39.9853 133.146 40.2133 133.146 40.568C133.146 40.8213 132.627 41.138 131.588 41.518C130.55 41.898 129.384 42.24 128.092 42.544C126.8 42.848 125.914 43 125.432 43ZM155.188 16.248C156.328 16.248 157.417 16.5393 158.456 17.122C159.495 17.6793 160.331 18.4013 160.964 19.288C161.623 20.1747 161.952 21.0613 161.952 21.948C161.572 22.0747 161.268 22.138 161.04 22.138C160.609 22.138 160.255 22.024 159.976 21.796C159.697 21.5427 159.355 21.15 158.95 20.618C158.393 19.8833 157.861 19.326 157.354 18.946C156.847 18.566 156.138 18.376 155.226 18.376C153.833 18.376 152.667 19.022 151.73 20.314C150.793 21.5807 150.235 23.0753 150.058 24.798C149.982 25.5833 149.944 26.356 149.944 27.116C149.944 28.3827 150.033 29.5607 150.21 30.65L151.312 30.764C153.389 31.0173 155.34 31.1567 157.164 31.182C157.417 31.182 157.595 31.2453 157.696 31.372C157.823 31.4733 157.886 31.6633 157.886 31.942C157.886 32.626 157.113 32.968 155.568 32.968C154.225 32.968 152.541 32.7273 150.514 32.246C150.793 33.386 151.147 34.4373 151.578 35.4C152.009 36.3373 152.566 37.4647 153.25 38.782C153.731 39.7193 154.086 40.454 154.314 40.986C154.542 41.4927 154.656 41.9233 154.656 42.278C154.656 42.5567 154.567 42.7593 154.39 42.886C154.213 42.9873 153.959 43.038 153.63 43.038C152.946 43.038 152.3 42.316 151.692 40.872C151.109 39.4027 150.438 37.376 149.678 34.792L148.994 32.55L148.918 32.094C148.386 32.094 147.233 32.1193 145.46 32.17C143.636 32.2207 142.103 32.246 140.862 32.246C141.267 33.2087 142.027 34.868 143.142 37.224C143.826 38.6427 144.307 39.7193 144.586 40.454C144.865 41.1633 145.004 41.7713 145.004 42.278C145.004 42.5567 144.915 42.7593 144.738 42.886C144.561 42.9873 144.307 43.038 143.978 43.038C143.623 43.038 143.269 42.6707 142.914 41.936C142.559 41.176 141.964 39.6433 141.128 37.338C140.064 34.45 139.469 32.854 139.342 32.55C138.785 32.6007 138.088 32.7527 137.252 33.006C137.176 33.0313 136.91 33.1073 136.454 33.234C136.023 33.3353 135.631 33.386 135.276 33.386C134.871 33.386 134.668 33.1453 134.668 32.664C134.668 32.0307 134.997 31.6127 135.656 31.41C136.315 31.182 136.935 31.0553 137.518 31.03C138.101 30.9793 138.468 30.9413 138.62 30.916C138.569 30.2067 138.544 29.5733 138.544 29.016C138.544 26.6093 138.987 24.5193 139.874 22.746C140.786 20.9473 142.42 20.048 144.776 20.048C146.245 20.048 147.664 20.542 149.032 21.53C149.513 19.8073 150.273 18.5027 151.312 17.616C152.351 16.704 153.643 16.248 155.188 16.248ZM140.558 30.726C140.862 30.7513 141.255 30.764 141.736 30.764C142.217 30.7387 142.711 30.726 143.218 30.726C146.005 30.65 147.841 30.6247 148.728 30.65C148.525 29.0287 148.424 27.61 148.424 26.394C148.424 25.6593 148.462 24.95 148.538 24.266C147.955 23.6073 147.385 23.1007 146.828 22.746C146.296 22.366 145.625 22.176 144.814 22.176C143.193 22.176 142.053 22.708 141.394 23.772C140.735 24.8107 140.406 26.2293 140.406 28.028C140.406 29.016 140.457 29.9153 140.558 30.726Z" fill="black"/>
<path d="M52.12 43.038C51.056 42.962 50.2073 42.8607 49.574 42.734C48.9407 42.6073 48.13 42.278 47.142 41.746C46.154 41.1887 44.9 40.3147 43.38 39.124V38.82C43.38 38.364 43.494 38.0093 43.722 37.756C43.95 37.4773 44.2793 37.338 44.71 37.338C44.786 37.338 44.9253 37.4393 45.128 37.642C45.356 37.8193 45.4953 37.9333 45.546 37.984C46.382 38.7947 47.2813 39.4787 48.244 40.036C49.2067 40.5933 50.3847 40.872 51.778 40.872C52.6647 40.872 53.4373 40.5807 54.096 39.998C54.78 39.4153 55.122 38.5667 55.122 37.452C55.122 35.8813 54.5013 34.7033 53.26 33.918C52.044 33.1073 50.258 32.7273 47.902 32.778C47.75 32.4993 47.674 32.208 47.674 31.904C47.674 31.6507 47.712 31.4353 47.788 31.258C47.864 31.0553 47.9653 30.9287 48.092 30.878C49.7893 30.726 51.0813 30.2827 51.968 29.548C52.88 28.8133 53.336 27.8253 53.336 26.584C53.336 25.824 52.8927 25.216 52.006 24.76C51.1447 24.2787 49.992 24.038 48.548 24.038C47.5093 24.038 46.7367 24.1647 46.23 24.418C45.7487 24.646 45.508 25.0133 45.508 25.52V26.356C45.052 26.356 44.6847 26.2547 44.406 26.052C44.1527 25.824 44.026 25.4947 44.026 25.064C44.026 24.1267 44.4187 23.392 45.204 22.86C45.9893 22.3027 47.142 22.024 48.662 22.024C50.6633 22.024 52.234 22.4547 53.374 23.316C54.5393 24.152 55.122 25.3807 55.122 27.002C55.122 28.3447 54.742 29.358 53.982 30.042C53.2473 30.7007 52.1327 31.2073 50.638 31.562C52.842 31.8407 54.4887 32.4487 55.578 33.386C56.6927 34.298 57.25 35.5773 57.25 37.224C57.25 38.516 56.9967 39.6053 56.49 40.492C55.9833 41.3533 55.3373 41.9993 54.552 42.43C53.7667 42.8353 52.956 43.038 52.12 43.038ZM62.6493 43C62.1933 43 61.7879 42.7973 61.4333 42.392C61.1039 41.9613 60.8379 41.4673 60.6353 40.91C60.4579 40.3273 60.3693 39.8333 60.3693 39.428C60.3693 38.6173 60.4833 37.946 60.7113 37.414C60.9646 36.8567 61.2559 36.464 61.5853 36.236C61.9146 35.9827 62.2186 35.856 62.4973 35.856C63.3839 35.856 64.0933 36.2867 64.6253 37.148C65.1573 37.984 65.4233 38.8833 65.4233 39.846C65.4233 40.226 65.2713 40.6693 64.9673 41.176C64.6886 41.6827 64.3339 42.1133 63.9033 42.468C63.4726 42.8227 63.0546 43 62.6493 43Z" fill="black"/>
<path d="M189.5 39.4238C189.5 46.5015 186.477 51.7955 181.103 55.7881C175.704 59.7998 167.923 62.5006 158.435 64.3077C139.46 67.9219 113.889 67.9239 87.5 67.9239C61.1443 67.9239 39.3404 65.5485 24.1423 60.0166C16.5463 57.2517 10.6339 53.7101 6.6243 49.3136C2.62464 44.9279 0.5 39.6727 0.5 33.4239C0.5 27.2964 4.33356 22.3369 10.9106 18.2871C17.4888 14.2366 26.722 11.1575 37.2969 8.78676C58.4394 4.04685 84.7757 2.17326 105.53 0.922995C126.252 -0.325309 147.297 1.0529 163.14 6.893C171.057 9.81166 177.647 13.8342 182.254 19.1724C186.854 24.5014 189.5 31.166 189.5 39.4238Z" stroke="black"/>
<path d="M204.5 39.1464C204.5 45.5146 201.407 50.2972 195.857 53.9193C190.281 57.558 182.246 60.0075 172.452 61.646C152.87 64.9223 126.483 64.9238 99.2632 64.9238C72.0722 64.9238 49.5695 62.7713 33.8806 57.7553C18.1711 52.7327 9.5 44.9198 9.5 33.7098C9.5 28.2134 13.4178 23.7285 20.2226 20.0481C27.0143 16.3748 36.5459 13.5831 47.4584 11.4342C69.2751 7.13797 96.4487 5.44009 117.858 4.30723C139.239 3.17587 160.96 4.42447 177.316 9.72028C185.492 12.3677 192.292 16.0154 197.044 20.8507C201.783 25.6741 204.5 31.6944 204.5 39.1464Z" stroke="black"/>
</svg>
